<svg xmlns="http://www.w3.org/2000/svg" viewBox="0 0 128.96 61.14"><defs><style>.cls-1{fill:none;stroke:#333;stroke-linejoin:round;}.cls-2{opacity:0.16;}</style></defs><title>1-002</title><g id="图层_2" data-name="图层 2"><g id="_1-001_1-017" data-name="1-001——1-017"><g id="_1-002" data-name="1-002"><path class="cls-1" d="M.49,38.92s18.32-77.7,57.08-12.11c45,76.11,70.92,0,70.92,0"/><g class="cls-2"><path d="M46.27,35.36c-.18.37-.4.79-.66,1.25s-.53,1-.83,1.44-.6,1-.91,1.43-.58.88-.84,1.25l-2.35-1.12c.28-.37.57-.77.88-1.22s.6-.9.89-1.36.55-.91.79-1.36.43-.83.58-1.18Zm4-1.85v4.12a4.05,4.05,0,0,1-.14,1.17,1.63,1.63,0,0,1-.44.73,2.42,2.42,0,0,1-.81.46c-.33.11-.73.22-1.21.34l-1.17.29L45.65,38l.89-.21a2.69,2.69,0,0,0,.73-.27.65.65,0,0,0,.2-.55V33.88l-5.6.74.59-7.74c.62-.08,1.27-.18,2-.29s1.39-.22,2.1-.34S48,26,48.67,25.86s1.41-.27,2.07-.41S52,25.18,52.61,25s1.11-.26,1.56-.39l.56,2.63-2.08.48c-.76.17-1.57.34-2.42.5s-1.71.33-2.59.49l-2.58.45-.18,2.55,2.59-.34V29.19l2.78-.3V31l4.93-.65v2.47ZM53,33.29c.17.19.39.45.65.78s.54.69.83,1.08.58.79.86,1.2.54.81.77,1.18l-2.36,1.82c-.19-.35-.4-.74-.65-1.16s-.52-.82-.79-1.23-.55-.78-.82-1.14-.5-.66-.72-.91Z"/><path d="M71.79,28.46v2.22L57.15,32.6V30.39L60.42,30l.24-1-2.39.31V27.41L61.12,27l.21-.87-3.4.44V24.42L71,22.69v2.2l-6.85.9-.21.88,6-.79-.15,2.85ZM58.6,33.13l11.74-1.55v5.63L58.6,38.76Zm2.58,3.09,6.45-.85V34.09l-6.45.85Zm2.09-6.63,3.87-.51.06-.95-3.71.48Z"/><path d="M78.48,31.12c-.18.37-.39.78-.65,1.25s-.54,1-.84,1.44-.6,1-.9,1.43-.59.88-.85,1.25L72.9,35.36c.27-.36.56-.76.87-1.21s.61-.9.89-1.36.55-.91.79-1.36.44-.84.59-1.18Zm4-1.85v4.12a4.1,4.1,0,0,1-.13,1.17,1.74,1.74,0,0,1-.45.73,2.25,2.25,0,0,1-.81.45c-.33.12-.73.23-1.21.35l-1.17.28-.83-2.59.9-.21a2.37,2.37,0,0,0,.72-.28.62.62,0,0,0,.2-.54V29.64l-5.59.74.58-7.74,2-.29L78.75,22l2.14-.39c.71-.13,1.4-.27,2.06-.41s1.29-.27,1.87-.41,1.11-.26,1.57-.39L86.94,23l-2.08.47c-.76.18-1.57.34-2.41.51l-2.6.49L77.27,25l-.17,2.55,2.58-.34V25l2.78-.3V26.8l4.93-.65v2.47Zm2.72-.22c.17.19.39.45.65.78s.54.69.83,1.08.58.79.86,1.2.54.81.77,1.18l-2.36,1.82c-.18-.35-.4-.74-.65-1.16s-.51-.82-.79-1.23l-.81-1.14c-.27-.36-.51-.66-.73-.91Z"/></g></g></g></g></svg>