<svg xmlns="http://www.w3.org/2000/svg" viewBox="0 0 97.05 128.5"><defs><style>.cls-1{fill:none;stroke:#333;stroke-linejoin:round;}.cls-2{opacity:0.16;}</style></defs><title>1-009</title><g id="图层_2" data-name="图层 2"><g id="_1-001_1-017" data-name="1-001——1-017"><g id="_1-009" data-name="1-009"><line class="cls-1" x1="48.53" x2="48.53" y2="71.74"/><line class="cls-1" x1="97.05" y1="71.74" y2="71.74"/><g class="cls-2"><path d="M30.31,68.79c-.18.37-.39.79-.65,1.25s-.54.95-.84,1.44-.6,1-.91,1.43-.58.88-.84,1.25L24.73,73c.27-.37.56-.77.87-1.22s.6-.9.89-1.36.55-.91.79-1.36.43-.83.59-1.18Zm4-1.85v4.12a3.73,3.73,0,0,1-.14,1.17,1.63,1.63,0,0,1-.44.73,2.42,2.42,0,0,1-.81.46c-.33.11-.73.23-1.21.34l-1.17.29-.83-2.59.89-.22a2.69,2.69,0,0,0,.73-.27.65.65,0,0,0,.2-.55V67.31l-5.6.74.59-7.74c.62-.08,1.27-.18,2-.29s1.39-.22,2.1-.34,1.43-.25,2.14-.39,1.41-.27,2.07-.41,1.29-.27,1.87-.41,1.11-.26,1.56-.39l.56,2.63-2.08.48c-.76.17-1.57.34-2.41.5l-2.6.49-2.58.45-.18,2.55,2.59-.34V62.63l2.78-.31v2.15l4.93-.65v2.47ZM37,66.72c.17.19.39.45.65.78s.54.69.83,1.08.58.79.86,1.2.54.81.77,1.18l-2.36,1.82c-.19-.35-.4-.74-.65-1.15s-.52-.83-.79-1.24-.55-.78-.82-1.14-.5-.66-.72-.91Z"/><path d="M55.83,61.9v2.21L41.19,66V63.82l3.27-.43.24-1-2.39.31V60.84l2.85-.37.21-.87L42,60V57.85l13.08-1.73v2.2l-6.85.9L48,60.1l6-.79-.15,2.85ZM42.64,66.56,54.38,65v5.63L42.64,72.19Zm2.59,3.09,6.44-.84V67.52l-6.44.85ZM47.31,63l3.87-.51.06-.95-3.7.49Z"/><path d="M62.52,64.55c-.17.37-.39.79-.65,1.25s-.54,1-.84,1.44-.6,1-.9,1.43-.59.88-.85,1.25l-2.34-1.13c.27-.36.56-.76.87-1.21s.61-.9.89-1.36.55-.91.79-1.36.44-.83.59-1.18Zm4-1.85v4.12A4.05,4.05,0,0,1,66.37,68a1.65,1.65,0,0,1-.45.73,2.25,2.25,0,0,1-.81.45c-.33.12-.73.23-1.21.35l-1.17.29-.83-2.6.9-.21a2.37,2.37,0,0,0,.72-.28c.14-.09.2-.27.2-.54V63.07l-5.59.74.58-7.74c.62-.08,1.28-.18,2-.29s1.4-.22,2.11-.34l2.14-.39c.71-.13,1.4-.27,2.06-.41s1.29-.27,1.87-.41S70,54,70.43,53.84L71,56.47,68.9,57c-.76.17-1.57.34-2.41.5l-2.6.49-2.57.45-.18,2.55,2.58-.34V58.38l2.79-.3v2.15l4.92-.65v2.47Zm2.71-.22c.18.19.39.45.65.78s.54.69.83,1.08.58.79.86,1.2.54.81.77,1.18L70,68.54c-.18-.35-.4-.74-.65-1.16s-.51-.82-.79-1.23L67.72,65c-.27-.36-.51-.66-.73-.91Z"/></g><line class="cls-1" x1="86.51" y1="101.27" x2="10.55" y2="101.27"/><line class="cls-1" x1="75.96" y1="128" x2="21.1" y2="128"/></g></g></g></svg>