<svg xmlns="http://www.w3.org/2000/svg" viewBox="0 0 128 65.14"><defs><style>.cls-1{fill:none;stroke:#333;stroke-linejoin:round;}.cls-2{opacity:0.16;}</style></defs><title>1-014</title><g id="图层_2" data-name="图层 2"><g id="_1-001_1-017" data-name="1-001——1-017"><g id="_1-014" data-name="1-014"><line class="cls-1" y1="32.57" x2="128" y2="32.57"/><g class="cls-2"><path d="M45.78,37.36c-.17.37-.39.79-.65,1.26s-.54.94-.84,1.43-.6,1-.9,1.43-.59.88-.85,1.25L40.2,41.61c.27-.37.56-.77.87-1.22s.61-.9.89-1.36.55-.91.79-1.36.44-.83.59-1.18Zm4-1.85v4.12a4.1,4.1,0,0,1-.13,1.17,1.74,1.74,0,0,1-.45.73,2.42,2.42,0,0,1-.81.46c-.33.11-.73.23-1.21.34L46,42.62,45.16,40l.9-.22a2.73,2.73,0,0,0,.72-.27A.65.65,0,0,0,47,39V35.88l-5.59.74L42,28.88c.62-.08,1.28-.18,2-.29s1.4-.22,2.11-.34l2.14-.39c.71-.13,1.4-.27,2.06-.41s1.29-.27,1.87-.4,1.11-.27,1.57-.4l.55,2.63-2.08.48c-.76.17-1.57.34-2.41.5l-2.6.49-2.58.45-.17,2.55L47,33.41V31.2l2.78-.31V33l4.93-.65v2.48Zm2.72-.22c.17.19.39.45.65.78s.54.69.83,1.08.58.79.86,1.21.54.8.77,1.17l-2.36,1.82c-.18-.35-.4-.74-.65-1.15s-.51-.83-.79-1.23-.55-.79-.81-1.15-.51-.66-.73-.91Z"/><path d="M71.3,30.47v2.21L56.66,34.61V32.39L59.93,32l.25-1-2.39.31V29.42L60.63,29l.21-.87-3.4.44V26.42L70.52,24.7v2.19l-6.85.9-.21.88,6-.79-.15,2.85ZM58.11,35.13l11.75-1.54v5.62L58.11,40.76Zm2.59,3.09,6.44-.84V36.09l-6.44.85Zm2.08-6.63,3.87-.51.07-.95L63,30.62Z"/><path d="M78,33.12c-.17.37-.39.79-.65,1.25s-.54,1-.84,1.44-.6,1-.9,1.43-.59.88-.85,1.25l-2.34-1.12c.27-.37.56-.77.87-1.22s.61-.9.9-1.36.55-.91.79-1.36.43-.83.58-1.18Zm4-1.85v4.12a4.05,4.05,0,0,1-.14,1.17,1.56,1.56,0,0,1-.45.73,2.28,2.28,0,0,1-.8.46c-.33.11-.74.22-1.22.34l-1.17.29-.83-2.59.9-.22A2.46,2.46,0,0,0,79,35.3a.63.63,0,0,0,.21-.55V31.64l-5.6.74.58-7.74c.62-.08,1.28-.18,2-.29s1.4-.22,2.11-.34l2.14-.39c.72-.13,1.4-.27,2.07-.41s1.28-.27,1.87-.41,1.1-.26,1.56-.39L86.45,25l-2.07.48c-.77.17-1.57.34-2.42.5s-1.71.33-2.59.49L76.79,27l-.18,2.55,2.59-.34V27L82,26.65V28.8l4.93-.65v2.47Zm2.71-.22q.27.28.66.78l.83,1.08c.29.39.58.79.86,1.2s.53.81.76,1.18l-2.36,1.82c-.18-.35-.4-.74-.65-1.15s-.51-.83-.79-1.24-.54-.78-.81-1.14-.51-.66-.72-.91Z"/></g><line class="cls-1" x1="49.26" y1="0.29" x2="4.07" y2="64.85"/><line class="cls-1" x1="86.6" y1="0.29" x2="41.4" y2="64.85"/><line class="cls-1" x1="123.93" y1="0.29" x2="78.74" y2="64.85"/></g></g></g></svg>