<svg xmlns="http://www.w3.org/2000/svg" viewBox="0 0 128.84 116.92"><defs><style>.cls-1{fill:none;stroke:#333;stroke-linejoin:round;}.cls-2{opacity:0.16;}</style></defs><title>1-010</title><g id="图层_2" data-name="图层 2"><g id="_1-001_1-017" data-name="1-001——1-017"><g id="_1-010" data-name="1-010"><line class="cls-1" x1="73.68" x2="73.68" y2="83.38"/><g class="cls-2"><path d="M46.2,63.11c-.18.37-.39.79-.65,1.26s-.54.94-.84,1.43-.6,1-.9,1.43-.59.88-.85,1.25l-2.34-1.12c.27-.36.56-.77.87-1.21s.6-.91.89-1.37.55-.91.79-1.35.43-.84.59-1.19Zm4-1.84v4.11A3.84,3.84,0,0,1,50,66.56a1.65,1.65,0,0,1-.44.72,2.42,2.42,0,0,1-.81.46c-.33.11-.73.23-1.21.35l-1.17.28-.83-2.59.89-.22a2.69,2.69,0,0,0,.73-.27.65.65,0,0,0,.2-.55V61.63l-5.6.74.59-7.74c.62-.08,1.27-.17,2-.28s1.39-.22,2.11-.35l2.13-.38,2.07-.41,1.87-.41,1.56-.39L54.66,55l-2.08.48c-.76.17-1.57.34-2.41.5l-2.6.49L45,57l-.18,2.54,2.59-.34V57l2.78-.3V58.8l4.93-.65v2.47ZM52.9,61c.17.19.39.46.65.78s.54.69.83,1.08.58.8.86,1.21.54.8.77,1.17l-2.36,1.83c-.19-.36-.4-.74-.65-1.16s-.52-.83-.79-1.23l-.81-1.15c-.27-.36-.51-.66-.73-.9Z"/><path d="M71.72,56.22v2.21L57.08,60.36V58.15l3.27-.43.25-1-2.4.32V55.17l2.85-.38.21-.87-3.4.45v-2.2l13.08-1.72v2.19l-6.85.91-.21.87,6-.79-.15,2.85ZM58.53,60.88l11.75-1.54V65L58.53,66.51ZM61.12,64l6.44-.85V61.84l-6.44.85Zm2.08-6.64,3.87-.51.07-.95-3.71.49Z"/><path d="M78.41,58.87c-.17.37-.39.79-.65,1.26s-.54.94-.84,1.43-.6,1-.9,1.43-.59.88-.85,1.25l-2.34-1.12c.27-.36.56-.77.87-1.21s.61-.91.9-1.37.55-.91.78-1.35.44-.84.59-1.19Zm4-1.84v4.11a4.18,4.18,0,0,1-.14,1.18,1.58,1.58,0,0,1-.45.72,2.37,2.37,0,0,1-.8.46c-.34.11-.74.23-1.22.34l-1.17.29-.83-2.59.9-.22a2.73,2.73,0,0,0,.72-.27.63.63,0,0,0,.2-.55V57.39L74,58.13l.58-7.74,2-.28,2.11-.35,2.14-.38L82.88,49l1.87-.41c.59-.14,1.11-.27,1.57-.4l.55,2.63-2.07.48c-.77.17-1.57.34-2.42.5l-2.6.49-2.57.46L77,55.26l2.58-.34V52.71l2.79-.3v2.14l4.93-.64v2.47Zm2.71-.23c.18.19.39.46.65.78s.54.69.83,1.08.58.79.87,1.21.53.8.76,1.17l-2.36,1.83c-.18-.36-.4-.74-.65-1.16s-.51-.83-.79-1.23-.55-.79-.81-1.15-.51-.66-.73-.9Z"/></g><line class="cls-1" x1="22.73" y1="83.38" x2="126.7" y2="83.38"/><line class="cls-1" x1="22.39" y1="83.05" x2="0.42" y2="116.65"/><line class="cls-1" x1="73.86" y1="83.05" x2="51.89" y2="116.65"/><line class="cls-1" x1="128.42" y1="83.05" x2="106.44" y2="116.65"/></g></g></g></svg>