<svg xmlns="http://www.w3.org/2000/svg" viewBox="0 0 128 112.13"><defs><style>.cls-1{fill:none;stroke:#333;stroke-linejoin:round;}.cls-2{opacity:0.16;}</style></defs><title>1-020</title><g id="图层_2" data-name="图层 2"><g id="_1-018_1-030" data-name="1-018——1-030"><g id="_1-020" data-name="1-020"><line class="cls-1" y1="67.18" x2="128" y2="67.18"/><line class="cls-1" y1="77.1" x2="128" y2="77.1"/><line class="cls-1" y1="86.23" x2="128" y2="86.23"/><line class="cls-1" y1="101.71" x2="128" y2="101.71"/><line class="cls-1" y1="111.63" x2="128" y2="111.63"/><rect class="cls-1" x="52.79" y="0.5" width="17.07" height="44.06" rx="8.53"/><polyline class="cls-1" points="61.12 44.56 61.12 67.18 61.12 101.71"/><g class="cls-2"><path d="M45.78,60.85c-.17.37-.39.79-.65,1.26s-.54,1-.84,1.44-.6,1-.9,1.42-.59.88-.85,1.25L40.2,65.1c.27-.36.56-.76.87-1.21s.61-.9.89-1.36.55-.92.79-1.36.44-.84.59-1.18Zm4-1.84v4.12a4.15,4.15,0,0,1-.13,1.17,1.81,1.81,0,0,1-.45.73,2.41,2.41,0,0,1-.81.45c-.33.12-.73.23-1.21.35L46,66.11l-.83-2.59.9-.21a2.37,2.37,0,0,0,.72-.28.64.64,0,0,0,.2-.55v-3.1l-5.59.73L42,52.37c.62-.08,1.28-.17,2-.28l2.11-.34,2.14-.39L50.25,51c.66-.14,1.29-.27,1.87-.41l1.57-.39.55,2.63-2.08.47-2.41.51-2.6.49-2.58.45-.17,2.54L47,56.9V54.69l2.78-.3v2.15l4.93-.65v2.47Zm2.72-.23c.17.2.39.46.65.79s.54.69.83,1.08.58.79.86,1.2.54.81.77,1.18l-2.36,1.82c-.18-.36-.4-.74-.65-1.16s-.51-.83-.79-1.23L51,61.32a10.64,10.64,0,0,0-.73-.91Z"/><path d="M71.3,54v2.21L56.66,58.1V55.89l3.27-.43.25-1-2.39.32V52.91l2.84-.37.21-.88-3.4.45v-2.2l13.08-1.72v2.2l-6.85.9-.21.87,6-.79-.15,2.85ZM58.11,58.63l11.75-1.55v5.63L58.11,64.26Zm2.59,3.09,6.44-.85V59.59l-6.44.84Zm2.08-6.64,3.87-.51.07-1L63,54.11Z"/><path d="M78,56.61c-.17.37-.39.79-.65,1.26s-.54,1-.84,1.44-.6,1-.9,1.42-.59.88-.85,1.25l-2.34-1.12c.27-.36.56-.76.87-1.21s.61-.9.9-1.36.55-.92.79-1.36.43-.84.58-1.18Zm4-1.84v4.12a4.15,4.15,0,0,1-.14,1.17,1.61,1.61,0,0,1-.45.73,2.27,2.27,0,0,1-.8.45c-.33.11-.74.23-1.22.35l-1.17.28-.83-2.59.9-.22a2.2,2.2,0,0,0,.72-.27.62.62,0,0,0,.21-.55V55.13l-5.6.74.58-7.74c.62-.08,1.28-.17,2-.28l2.11-.34,2.14-.39,2.07-.41c.66-.14,1.28-.27,1.87-.41l1.56-.39.55,2.63L84.38,49,82,49.52,79.37,50l-2.58.46L76.61,53l2.59-.34V50.45l2.78-.3V52.3l4.93-.65v2.47Zm2.71-.23c.18.2.4.46.66.79l.83,1.07c.29.4.58.8.86,1.21s.53.8.76,1.18l-2.36,1.82c-.18-.36-.4-.74-.65-1.16s-.51-.83-.79-1.23-.54-.78-.81-1.15-.51-.66-.72-.9Z"/></g><line class="cls-1" x1="55.57" y1="60.43" x2="61.12" y2="67.18"/><line class="cls-1" x1="61.12" y1="67.18" x2="66.68" y2="60.43"/><line class="cls-1" x1="61.22" y1="101.11" x2="64.99" y2="96.55"/><line class="cls-1" x1="57.25" y1="96.55" x2="61.02" y2="101.11"/></g></g></g></svg>