<svg xmlns="http://www.w3.org/2000/svg" viewBox="0 0 128 22.33"><defs><style>.cls-1{fill:none;stroke:#333;stroke-linejoin:round;}.cls-2{opacity:0.16;}</style></defs><title>1-027</title><g id="图层_2" data-name="图层 2"><g id="_1-018_1-030" data-name="1-018——1-030"><g id="_1-027" data-name="1-027"><line class="cls-1" x1="106.67" y1="21.83" x2="21.94" y2="21.83"/><line class="cls-1" x1="23.16" y1="0.5" x2="106.67" y2="0.5"/><g class="cls-2"><path d="M45.78,16c-.17.37-.39.79-.65,1.26s-.54.95-.84,1.44-.6,1-.9,1.43l-.85,1.25L40.2,20.2c.27-.36.56-.76.87-1.21s.61-.9.89-1.36.55-.92.79-1.36.44-.84.59-1.18Zm4-1.84v4.12a4.1,4.1,0,0,1-.13,1.17,1.81,1.81,0,0,1-.45.73,2.25,2.25,0,0,1-.81.45c-.33.12-.73.23-1.21.35L46,21.21l-.83-2.59.9-.21a2.37,2.37,0,0,0,.72-.28.63.63,0,0,0,.2-.55v-3.1l-5.59.73L42,7.47c.62-.08,1.28-.17,2-.28l2.11-.34,2.14-.39,2.06-.41c.66-.14,1.29-.27,1.87-.41l1.57-.39.55,2.63-2.08.47-2.41.51-2.6.49-2.58.45-.17,2.55L47,12V9.79l2.78-.3v2.15L54.69,11v2.47Zm2.72-.23c.17.2.39.46.65.79s.54.69.83,1.08.58.79.86,1.2.54.81.77,1.18L53.23,20c-.18-.35-.4-.74-.65-1.16s-.51-.83-.79-1.23L51,16.42c-.27-.36-.51-.67-.73-.91Z"/><path d="M71.3,9.06v2.21L56.66,13.2V11l3.27-.43.25-1-2.39.32V8l2.84-.37.21-.88-3.4.45V5L70.52,3.29v2.2l-6.85.9-.21.87,6-.78L69.3,9.33ZM58.11,13.73l11.75-1.55v5.63L58.11,19.36Zm2.59,3.09L67.14,16V14.69l-6.44.84Zm2.08-6.64,3.87-.51.07-.95L63,9.21Z"/><path d="M78,11.71c-.17.37-.39.79-.65,1.26s-.54.95-.84,1.44-.6,1-.9,1.42-.59.88-.85,1.25L72.41,16c.27-.36.56-.76.87-1.21s.61-.9.9-1.36.55-.92.79-1.36.43-.84.58-1.18Zm4-1.84V14a4.1,4.1,0,0,1-.14,1.17,1.61,1.61,0,0,1-.45.73,2.27,2.27,0,0,1-.8.45c-.33.12-.74.23-1.22.35L78.2,17l-.83-2.59.9-.21a2.41,2.41,0,0,0,.72-.28.62.62,0,0,0,.21-.55v-3.1L73.6,11l.58-7.74c.62-.08,1.28-.17,2-.28l2.11-.34,2.14-.39,2.07-.41c.66-.14,1.28-.27,1.87-.41L85.9,1l.55,2.63-2.07.47L82,4.62l-2.59.49-2.58.45L76.61,8.1l2.59-.34V5.55L82,5.25V7.4l4.93-.65V9.22Zm2.71-.23c.18.2.4.46.66.79l.83,1.08c.29.39.58.79.86,1.2s.53.81.76,1.18l-2.36,1.82c-.18-.36-.4-.74-.65-1.16s-.51-.83-.79-1.23-.54-.78-.81-1.14-.51-.67-.72-.91Z"/></g><circle class="cls-1" cx="106.36" cy="11.17" r="10.67"/><circle class="cls-1" cx="21.64" cy="11.17" r="10.67"/><line class="cls-1" x1="128" y1="12.08" x2="117.03" y2="12.08"/><line class="cls-1" x1="10.97" y1="10.86" y2="10.86"/></g></g></g></svg>