<svg xmlns="http://www.w3.org/2000/svg" viewBox="0 0 128 38.09"><defs><style>.cls-1{fill:none;}.cls-1,.cls-2{stroke:#333;stroke-linejoin:round;}.cls-2{fill:#333;}.cls-3{opacity:0.16;}</style></defs><title>1-026</title><g id="图层_2" data-name="图层 2"><g id="_1-018_1-030" data-name="1-018——1-030"><g id="_1-026" data-name="1-026"><line class="cls-1" y1="18.08" x2="35.16" y2="18.08"/><path class="cls-1" d="M53.49.5a18.55,18.55,0,0,0,0,37.09"/><rect class="cls-2" x="52.53" y="11.01" width="38.59" height="15.44"/><line class="cls-1" x1="128" y1="18.72" x2="91.12" y2="18.72"/><g class="cls-3"><path d="M45.78,23.83c-.17.37-.39.79-.65,1.26s-.54.95-.84,1.44-.6,1-.9,1.42-.59.88-.85,1.25L40.2,28.08c.27-.36.56-.76.87-1.21s.61-.9.89-1.36.55-.92.79-1.36.44-.84.59-1.18Zm4-1.84v4.12a4.15,4.15,0,0,1-.13,1.17,1.81,1.81,0,0,1-.45.73,2.25,2.25,0,0,1-.81.45c-.33.12-.73.23-1.21.35L46,29.09l-.83-2.59.9-.21a2.37,2.37,0,0,0,.72-.28.64.64,0,0,0,.2-.55v-3.1l-5.59.73L42,15.35c.62-.08,1.28-.17,2-.28l2.11-.34,2.14-.39,2.06-.41c.66-.14,1.29-.27,1.87-.41l1.57-.39.55,2.63-2.08.47-2.41.51-2.6.49-2.58.45-.17,2.54L47,19.88V17.67l2.78-.3v2.15l4.93-.65v2.47Zm2.72-.23c.17.2.39.46.65.79s.54.69.83,1.08.58.79.86,1.2.54.81.77,1.18l-2.36,1.82c-.18-.36-.4-.74-.65-1.16s-.51-.83-.79-1.23L51,24.3a10.64,10.64,0,0,0-.73-.91Z"/><path d="M71.3,16.94v2.21L56.66,21.08V18.87l3.27-.43.25-1-2.39.32V15.89l2.84-.37.21-.88-3.4.45v-2.2l13.08-1.72v2.2l-6.85.9-.21.87,6-.79-.15,2.86ZM58.11,21.61l11.75-1.55v5.63L58.11,27.24ZM60.7,24.7l6.44-.85V22.57l-6.44.84Zm2.08-6.64,3.87-.51.07-.95L63,17.09Z"/><path d="M78,19.59c-.17.37-.39.79-.65,1.26s-.54.95-.84,1.44-.6,1-.9,1.42-.59.88-.85,1.25l-2.34-1.12c.27-.36.56-.76.87-1.21s.61-.9.9-1.36.55-.92.79-1.36.43-.84.58-1.18Zm4-1.84v4.12A4.1,4.1,0,0,1,81.84,23a1.61,1.61,0,0,1-.45.73,2.27,2.27,0,0,1-.8.45c-.33.11-.74.23-1.22.35l-1.17.28-.83-2.59.9-.21a2.41,2.41,0,0,0,.72-.28.62.62,0,0,0,.21-.55v-3.1l-5.6.73.58-7.74c.62-.08,1.28-.17,2-.28l2.11-.34,2.14-.39,2.07-.41c.66-.14,1.28-.27,1.87-.41l1.56-.39.55,2.63L84.38,12,82,12.5,79.37,13l-2.58.46L76.61,16l2.59-.34V13.43l2.78-.3v2.15l4.93-.65V17.1Zm2.71-.23c.18.2.4.46.66.79l.83,1.07c.29.4.58.8.86,1.21s.53.8.76,1.18l-2.36,1.82c-.18-.36-.4-.74-.65-1.16s-.51-.83-.79-1.23-.54-.78-.81-1.15-.51-.66-.72-.9Z"/></g></g></g></g></svg>