<svg xmlns="http://www.w3.org/2000/svg" viewBox="0 0 128 62.14"><defs><style>.cls-1{fill:none;stroke:#333;stroke-linejoin:round;}.cls-2{opacity:0.16;}</style></defs><title>1-028</title><g id="图层_2" data-name="图层 2"><g id="_1-018_1-030" data-name="1-018——1-030"><g id="_1-028" data-name="1-028"><circle class="cls-1" cx="22.39" cy="49.5" r="12"/><circle class="cls-1" cx="86.48" cy="12.5" r="12"/><line class="cls-1" x1="92.48" y1="22.89" x2="28.39" y2="59.89"/><g class="cls-2"><path d="M45.78,35.85c-.17.37-.39.79-.65,1.26s-.54,1-.84,1.44-.6,1-.9,1.43l-.85,1.25L40.2,40.1c.27-.36.56-.76.87-1.21s.61-.9.89-1.36.55-.92.79-1.36.44-.84.59-1.18Zm4-1.84v4.12a4.1,4.1,0,0,1-.13,1.17,1.74,1.74,0,0,1-.45.73,2.25,2.25,0,0,1-.81.45c-.33.12-.73.23-1.21.35L46,41.11l-.83-2.59.9-.21a2.37,2.37,0,0,0,.72-.28.63.63,0,0,0,.2-.55v-3.1l-5.59.73L42,27.37c.62-.08,1.28-.17,2-.28l2.11-.34,2.14-.39L50.25,26c.66-.14,1.29-.27,1.87-.41l1.57-.39.55,2.63-2.08.47c-.76.18-1.57.34-2.41.51l-2.6.49-2.58.45-.17,2.55L47,31.9V29.69l2.78-.3v2.15l4.93-.65v2.47Zm2.72-.23c.17.2.39.46.65.79s.54.69.83,1.08.58.79.86,1.2.54.81.77,1.18l-2.36,1.82c-.18-.35-.4-.74-.65-1.16s-.51-.83-.79-1.23L51,36.32c-.27-.36-.51-.67-.73-.91Z"/><path d="M71.3,29v2.21L56.66,33.1V30.89l3.27-.43.25-1-2.39.32V27.91l2.84-.37.21-.88-3.4.45v-2.2l13.08-1.72v2.2l-6.85.9-.21.87,6-.78-.15,2.85ZM58.11,33.63l11.75-1.55v5.63L58.11,39.26Zm2.59,3.09,6.44-.85V34.59l-6.44.85Zm2.08-6.64,3.87-.51.07-.95L63,29.11Z"/><path d="M78,31.61c-.17.37-.39.79-.65,1.26s-.54,1-.84,1.44-.6,1-.9,1.42-.59.88-.85,1.25l-2.34-1.12c.27-.36.56-.76.87-1.21s.61-.9.9-1.36.55-.92.79-1.36.43-.84.58-1.18Zm4-1.84v4.12a4.1,4.1,0,0,1-.14,1.17,1.61,1.61,0,0,1-.45.73,2.27,2.27,0,0,1-.8.45c-.33.12-.74.23-1.22.35l-1.17.28-.83-2.59.9-.21a2.17,2.17,0,0,0,.72-.28.62.62,0,0,0,.21-.55v-3.1l-5.6.73.58-7.74c.62-.08,1.28-.17,2-.28l2.11-.34,2.14-.39,2.07-.41c.66-.14,1.28-.27,1.87-.41l1.56-.39.55,2.63L84.38,24,82,24.52,79.37,25l-2.58.45L76.61,28l2.59-.34V25.45l2.78-.3V27.3l4.93-.65v2.47Zm2.71-.23c.18.2.4.46.66.79l.83,1.08c.29.39.58.79.86,1.2s.53.81.76,1.18l-2.36,1.82c-.18-.36-.4-.74-.65-1.16s-.51-.83-.79-1.23-.54-.78-.81-1.14-.51-.67-.72-.91Z"/></g><line class="cls-1" x1="16.39" y1="39.11" x2="80.48" y2="2.11"/><line class="cls-1" x1="10" y1="49.63" y2="49.63"/><circle class="cls-1" cx="106" cy="49.64" r="12"/><line class="cls-1" x1="128" y1="49.63" x2="118" y2="49.63"/></g></g></g></svg>