<svg xmlns="http://www.w3.org/2000/svg" viewBox="0 0 125.63 128"><defs><style>.cls-1{fill:#333;}.cls-2{fill:none;stroke:#333;stroke-linejoin:round;}.cls-3{opacity:0.16;}</style></defs><title>1-021</title><g id="图层_2" data-name="图层 2"><g id="_1-018_1-030" data-name="1-018——1-030"><g id="_1-021" data-name="1-021"><path class="cls-1" d="M.88,20V49.16H17.09V50H0V20Z"/><path class="cls-1" d="M26.27,50H25.4V21.16L19.25,24.6v-1L25.64,20h.63Z"/><path class="cls-1" d="M88.38,77.67v29.16h16.21v.84H87.5v-30Z"/><path class="cls-1" d="M113.3,91.07a9,9,0,0,1,3.63-.76,8.72,8.72,0,0,1,4.31,1.1,8.31,8.31,0,0,1,3.2,3.14,9.05,9.05,0,0,1,1.19,4.68,9.48,9.48,0,0,1-1.13,4.66,8.19,8.19,0,0,1-3.14,3.2,9,9,0,0,1-4.55,1.14,9.13,9.13,0,0,1-5.43-1.62,11.72,11.72,0,0,1-3.63-4.22l.75-.52q2.72,5.52,8.31,5.52a8.07,8.07,0,0,0,4.11-1,7.42,7.42,0,0,0,2.82-2.9,8.64,8.64,0,0,0,1-4.22,8.16,8.16,0,0,0-1.08-4.18,7.76,7.76,0,0,0-2.9-2.9,7.64,7.64,0,0,0-3.89-1,9.69,9.69,0,0,0-2.56.36,9.24,9.24,0,0,0-2.43,1l-.48-.68,11.7-13.32H108.34v-.84H124.2v.84L113.22,91Z"/><path class="cls-2" d="M70,105.77a29.7,29.7,0,0,0-8.9-24.92c-16.56-12.34-11-27.37-11-27.37"/><line class="cls-2" x1="60.1" x2="60.1" y2="128"/><line class="cls-2" x1="75" y1="17.43" x2="45" y2="30.53"/><line class="cls-2" x1="75" y1="23.44" x2="45" y2="36.54"/><line class="cls-2" x1="75" y1="29.45" x2="45" y2="42.55"/><g class="cls-3"><path d="M44.6,68.79c-.18.37-.39.79-.65,1.25s-.54.95-.84,1.44-.6,1-.91,1.43-.58.88-.84,1.25L39,73c.27-.37.56-.77.87-1.22s.6-.9.89-1.36.55-.91.79-1.36.43-.83.59-1.18Zm4-1.85v4.12a3.73,3.73,0,0,1-.14,1.17A1.63,1.63,0,0,1,48,73a2.42,2.42,0,0,1-.81.46c-.33.11-.73.23-1.21.34l-1.17.29L44,71.46l.89-.22A2.69,2.69,0,0,0,45.6,71a.65.65,0,0,0,.2-.55V67.31l-5.6.74.59-7.74c.62-.08,1.27-.18,2-.29s1.39-.22,2.1-.34,1.43-.25,2.14-.39,1.41-.27,2.07-.41,1.29-.27,1.87-.41,1.11-.26,1.56-.39l.56,2.63L51,61.19c-.76.17-1.57.34-2.41.5l-2.6.49-2.58.45-.18,2.55,2.59-.34V62.63l2.78-.31v2.15l4.93-.65v2.47Zm2.72-.22c.17.19.39.45.65.78s.54.69.83,1.08.58.79.86,1.2.54.81.77,1.18l-2.36,1.82c-.19-.35-.4-.74-.65-1.15s-.52-.83-.79-1.24-.55-.78-.82-1.14-.5-.66-.72-.91Z"/><path d="M70.12,61.9v2.21L55.48,66V63.82l3.27-.43.24-1-2.39.31V60.84l2.85-.37.21-.87-3.4.44V57.85l13.08-1.73v2.2l-6.85.9-.21.88,6-.79-.15,2.85ZM56.93,66.56,68.67,65v5.63L56.93,72.19Zm2.58,3.09L66,68.81V67.52l-6.45.85ZM61.6,63l3.87-.51.06-.95-3.7.49Z"/><path d="M76.81,64.55c-.17.37-.39.79-.65,1.25s-.54,1-.84,1.44-.6,1-.9,1.43-.59.88-.85,1.25l-2.34-1.13c.27-.36.56-.76.87-1.21s.61-.9.89-1.36.55-.91.79-1.36.44-.83.59-1.18Zm4-1.85v4.12A4.05,4.05,0,0,1,80.66,68a1.65,1.65,0,0,1-.45.73,2.25,2.25,0,0,1-.81.45c-.33.12-.73.23-1.21.35L77,69.81l-.83-2.6.9-.21a2.37,2.37,0,0,0,.72-.28c.14-.09.2-.27.2-.54V63.07l-5.59.74L73,56.07c.62-.08,1.28-.18,2-.29s1.4-.22,2.11-.34l2.14-.39c.71-.13,1.4-.27,2.06-.41s1.29-.27,1.87-.41,1.11-.26,1.57-.39l.55,2.63L83.19,57c-.76.17-1.57.34-2.41.5l-2.6.49-2.58.45-.17,2.55L78,60.6V58.38l2.79-.3v2.15l4.92-.65v2.47Zm2.71-.22c.18.19.39.45.65.78s.54.69.83,1.08.58.79.86,1.2.54.81.77,1.18l-2.36,1.82c-.18-.35-.4-.74-.65-1.16s-.51-.82-.79-1.23L82,65c-.27-.36-.51-.66-.73-.91Z"/></g></g></g></g></svg>