<svg xmlns="http://www.w3.org/2000/svg" viewBox="0 0 67.64 128"><defs><style>.cls-1{fill:none;stroke:#333;stroke-linejoin:round;}.cls-2{opacity:0.16;}</style></defs><title>1-048</title><g id="图层_2" data-name="图层 2"><g id="_1-046_1-056" data-name="1-046——1-056"><g id="_1-048" data-name="1-048"><line class="cls-1" x1="33.82" y1="128" x2="33.82"/><g class="cls-2"><path d="M15.6,68.79c-.18.37-.39.79-.65,1.25s-.54.95-.84,1.44-.6,1-.9,1.43-.59.88-.85,1.25L10,73c.27-.37.56-.77.87-1.22s.6-.9.89-1.36.55-.91.79-1.36.43-.83.59-1.18Zm4-1.85v4.12a3.73,3.73,0,0,1-.14,1.17A1.63,1.63,0,0,1,19,73a2.42,2.42,0,0,1-.81.46c-.33.11-.73.23-1.21.34l-1.17.29L15,71.46l.89-.22A2.69,2.69,0,0,0,16.6,71a.65.65,0,0,0,.2-.55V67.31l-5.6.74.59-7.74c.62-.08,1.27-.18,2-.29s1.39-.22,2.11-.34,1.42-.25,2.13-.39,1.41-.27,2.07-.41,1.29-.27,1.87-.41,1.11-.26,1.56-.39l.56,2.63L22,61.19c-.76.17-1.57.34-2.41.5l-2.6.49-2.58.45-.18,2.55,2.59-.34V62.63l2.78-.31v2.15l4.93-.65v2.47Zm2.72-.22c.17.19.39.45.65.78s.54.69.83,1.08.58.79.86,1.2.54.81.77,1.18l-2.36,1.82c-.19-.35-.4-.74-.65-1.15s-.52-.83-.79-1.24-.55-.78-.82-1.14-.5-.66-.72-.91Z"/><path d="M41.12,61.9v2.21L26.48,66V63.82l3.27-.43.24-1-2.39.31V60.84l2.85-.37.21-.87-3.4.44V57.85l13.08-1.73v2.2l-6.85.9-.21.88,6-.79-.15,2.85ZM27.93,66.56,39.68,65v5.63L27.93,72.19Zm2.59,3.09L37,68.81V67.52l-6.44.85ZM32.6,63l3.87-.51.07-.95-3.71.49Z"/><path d="M47.81,64.55c-.17.37-.39.79-.65,1.25s-.54,1-.84,1.44-.6,1-.9,1.43-.59.88-.85,1.25l-2.34-1.13c.27-.36.56-.76.87-1.21s.61-.9.89-1.36.56-.91.79-1.36.44-.83.59-1.18Zm4-1.85v4.12A4.05,4.05,0,0,1,51.66,68a1.56,1.56,0,0,1-.45.73,2.2,2.2,0,0,1-.8.45c-.34.12-.74.23-1.22.35L48,69.81l-.83-2.6.9-.21a2.37,2.37,0,0,0,.72-.28c.14-.09.2-.27.2-.54V63.07l-5.59.74L44,56.07c.62-.08,1.28-.18,2-.29s1.4-.22,2.11-.34l2.14-.39c.71-.13,1.4-.27,2.06-.41s1.29-.27,1.87-.41,1.11-.26,1.57-.39l.55,2.63L54.2,57c-.77.17-1.57.34-2.42.5l-2.6.49-2.57.45-.18,2.55L49,60.6V58.38l2.79-.3v2.15l4.93-.65v2.47Zm2.71-.22c.18.19.39.45.65.78s.54.69.83,1.08.58.79.87,1.2.53.81.76,1.18l-2.36,1.82c-.18-.35-.4-.74-.65-1.16s-.51-.82-.79-1.23L53,65c-.27-.36-.51-.66-.73-.91Z"/></g><line class="cls-1" x1="1.82" y1="96" x2="65.82" y2="96"/><polygon class="cls-1" points="33.82 96 67.14 28.71 0.5 28.71 33.82 96"/></g></g></g></svg>