<svg xmlns="http://www.w3.org/2000/svg" viewBox="0 0 128 48.26"><defs><style>.cls-1{fill:none;stroke:#333;stroke-linejoin:round;}.cls-2{opacity:0.16;}</style></defs><title>1-044</title><g id="图层_2" data-name="图层 2"><g id="_1-031_1-045" data-name="1-031——1-045"><g id="_1-044" data-name="1-044"><polyline class="cls-1" points="0 0.5 59.34 0.5 128 0.5"/><polyline class="cls-1" points="75.6 48.26 75.6 19.88 58 0.5"/><g class="cls-2"><path d="M45.78,29.17c-.17.37-.39.79-.65,1.26s-.54.94-.84,1.43-.6,1-.9,1.43-.59.88-.85,1.25L40.2,33.42c.27-.37.56-.77.87-1.22s.61-.9.89-1.36.55-.91.79-1.36.44-.83.59-1.18Zm4-1.85v4.12a4.1,4.1,0,0,1-.13,1.17,1.74,1.74,0,0,1-.45.73,2.42,2.42,0,0,1-.81.46c-.33.11-.73.23-1.21.34L46,34.43l-.83-2.59.9-.22a2.73,2.73,0,0,0,.72-.27.65.65,0,0,0,.2-.55V27.69l-5.59.74L42,20.69c.62-.08,1.28-.18,2-.29s1.4-.22,2.11-.34l2.14-.39c.71-.13,1.4-.27,2.06-.41s1.29-.27,1.87-.4,1.11-.27,1.57-.4l.55,2.63-2.08.48c-.76.17-1.57.34-2.41.5l-2.6.49L44.57,23l-.17,2.55L47,25.22V23l2.78-.31v2.15l4.93-.65v2.48Zm2.72-.22c.17.19.39.45.65.78s.54.69.83,1.08.58.79.86,1.21.54.8.77,1.17l-2.36,1.82c-.18-.35-.4-.74-.65-1.15s-.51-.83-.79-1.23S51.24,30,51,29.63s-.51-.66-.73-.91Z"/><path d="M71.3,22.28v2.21L56.66,26.42V24.2l3.27-.43.25-1-2.39.31V21.23l2.84-.38.21-.87-3.4.44V18.23l13.08-1.72V18.7l-6.85.9-.21.88,6-.79-.15,2.85ZM58.11,26.94,69.86,25.4V31L58.11,32.57ZM60.7,30l6.44-.84V27.9l-6.44.85Zm2.08-6.63,3.87-.51.07-.95L63,22.43Z"/><path d="M78,24.93c-.17.37-.39.79-.65,1.25s-.54.95-.84,1.44-.6,1-.9,1.43-.59.88-.85,1.25l-2.34-1.12c.27-.37.56-.77.87-1.22s.61-.9.9-1.36.55-.91.79-1.36.43-.83.58-1.18Zm4-1.85V27.2a4.05,4.05,0,0,1-.14,1.17,1.56,1.56,0,0,1-.45.73,2.28,2.28,0,0,1-.8.46c-.33.11-.74.22-1.22.34l-1.17.29-.83-2.59.9-.22a2.46,2.46,0,0,0,.72-.27.63.63,0,0,0,.21-.55V23.45l-5.6.74.58-7.74c.62-.08,1.28-.18,2-.29s1.4-.22,2.11-.34l2.14-.39c.72-.13,1.4-.27,2.07-.41s1.28-.27,1.87-.41,1.1-.26,1.56-.39l.55,2.63-2.07.48c-.77.17-1.57.34-2.42.5s-1.71.33-2.59.49l-2.58.45-.18,2.55L79.2,21V18.77L82,18.46v2.15L86.91,20v2.47Zm2.71-.22q.27.29.66.78l.83,1.08c.29.39.58.79.86,1.2s.53.81.76,1.18l-2.36,1.82c-.18-.35-.4-.74-.65-1.15s-.51-.83-.79-1.24-.54-.78-.81-1.14-.51-.66-.72-.91Z"/></g></g></g></g></svg>