<svg xmlns="http://www.w3.org/2000/svg" viewBox="0 0 128 70.79"><defs><style>.cls-1{fill:none;stroke:#333;stroke-linejoin:round;}.cls-2{opacity:0.16;}</style></defs><title>1-045</title><g id="图层_2" data-name="图层 2"><g id="_1-031_1-045" data-name="1-031——1-045"><g id="_1-045" data-name="1-045"><path class="cls-1" d="M77.62,35.4H23.19a4,4,0,0,1-4-4V0"/><path class="cls-1" d="M46.66,35.4h54.43a4,4,0,0,1,4,4V70.79"/><line class="cls-1" y1="35.4" x2="128" y2="35.4"/><g class="cls-2"><path d="M45.78,40.18c-.17.37-.39.79-.65,1.26s-.54,1-.84,1.44-.6,1-.9,1.42-.59.88-.85,1.25L40.2,44.43c.27-.36.56-.76.87-1.21s.61-.9.89-1.36.55-.92.79-1.36.44-.84.59-1.18Zm4-1.84v4.12a4.15,4.15,0,0,1-.13,1.17,1.81,1.81,0,0,1-.45.73,2.41,2.41,0,0,1-.81.45c-.33.11-.73.23-1.21.35L46,45.44l-.83-2.59.9-.22a2.41,2.41,0,0,0,.72-.27.64.64,0,0,0,.2-.55v-3.1l-5.59.73L42,31.7c.62-.08,1.28-.17,2-.28l2.11-.34,2.14-.39,2.06-.41c.66-.14,1.29-.27,1.87-.41l1.57-.39.55,2.63-2.08.47-2.41.51-2.6.48L44.57,34l-.17,2.54L47,36.23V34l2.78-.3v2.15l4.93-.65v2.47Zm2.72-.23c.17.2.39.46.65.79L54,40c.29.4.58.8.86,1.21s.54.8.77,1.18l-2.36,1.82c-.18-.36-.4-.74-.65-1.16s-.51-.83-.79-1.23L51,40.64c-.27-.36-.51-.66-.73-.9Z"/><path d="M71.3,33.29V35.5L56.66,37.43V35.22l3.27-.43.25-1-2.39.32V32.24l2.84-.38.21-.87-3.4.45v-2.2l13.08-1.72v2.2l-6.85.9-.21.87,6-.79-.15,2.85ZM58.11,38l11.75-1.55V42L58.11,43.59Zm2.59,3.09,6.44-.85V38.92l-6.44.84Zm2.08-6.64,3.87-.51.07-.95L63,33.44Z"/><path d="M78,35.94c-.17.37-.39.79-.65,1.26s-.54.94-.84,1.43-.6,1-.9,1.43-.59.88-.85,1.25l-2.34-1.12c.27-.36.56-.77.87-1.21s.61-.9.9-1.36.55-.92.79-1.36.43-.84.58-1.18Zm4-1.84v4.11a4.18,4.18,0,0,1-.14,1.18,1.58,1.58,0,0,1-.45.72,2.28,2.28,0,0,1-.8.46c-.33.11-.74.23-1.22.35l-1.17.28-.83-2.59.9-.22a2.46,2.46,0,0,0,.72-.27.62.62,0,0,0,.21-.55V34.46l-5.6.74.58-7.74c.62-.08,1.28-.17,2-.28l2.11-.34,2.14-.39L82.47,26c.66-.14,1.28-.27,1.87-.41l1.56-.39.55,2.62-2.07.48L82,28.85l-2.59.48-2.58.46-.18,2.54L79.2,32V29.78l2.78-.3v2.15L86.91,31v2.47Zm2.71-.23c.18.2.4.46.66.79l.83,1.07c.29.39.58.8.86,1.21s.53.8.76,1.17l-2.36,1.83c-.18-.36-.4-.74-.65-1.16S84.28,38,84,37.55s-.54-.79-.81-1.15-.51-.66-.72-.9Z"/></g></g></g></g></svg>