<svg xmlns="http://www.w3.org/2000/svg" viewBox="0 0 128.3 128.81"><defs><style>.cls-1{fill:none;stroke:#333;stroke-linejoin:round;}.cls-2{opacity:0.16;}</style></defs><title>1-053</title><g id="图层_2" data-name="图层 2"><g id="_1-046_1-056" data-name="1-046——1-056"><g id="_1-053" data-name="1-053"><line class="cls-1" x1="61.33" y1="31.95" x2="61.33" y2="95.02"/><line class="cls-1" x1="61.33" y1="63.71" y2="63.71"/><line class="cls-1" x1="128" y1="128.41" x2="61.33" y2="78.88"/><line class="cls-1" x1="128" y1="0.41" x2="61.33" y2="46.75"/><polyline class="cls-1" points="106.82 31.83 78.85 34.77 81.79 6.8"/><g class="cls-2"><path d="M45.78,69.2c-.17.37-.39.79-.65,1.26s-.54.94-.84,1.43-.6,1-.9,1.43-.59.88-.85,1.25L40.2,73.45c.27-.37.56-.77.87-1.22s.61-.9.89-1.36.55-.91.79-1.36.44-.83.59-1.18Zm4-1.85v4.12a4.1,4.1,0,0,1-.13,1.17,1.74,1.74,0,0,1-.45.73,2.42,2.42,0,0,1-.81.46c-.33.11-.73.23-1.21.34L46,74.46l-.83-2.59.9-.22a2.73,2.73,0,0,0,.72-.27.65.65,0,0,0,.2-.55V67.72l-5.59.74L42,60.72c.62-.08,1.28-.18,2-.29s1.4-.22,2.11-.34l2.14-.39c.71-.13,1.4-.27,2.06-.41s1.29-.27,1.87-.4,1.11-.27,1.57-.4l.55,2.63-2.08.48c-.76.17-1.57.34-2.41.5l-2.6.49L44.57,63l-.17,2.55L47,65.25V63l2.78-.31v2.15l4.93-.65v2.48Zm2.72-.22c.17.19.39.45.65.78s.54.69.83,1.08.58.79.86,1.21.54.8.77,1.17L53.23,73.2c-.18-.36-.4-.75-.65-1.16s-.51-.83-.79-1.23S51.24,70,51,69.66s-.51-.66-.73-.91Z"/><path d="M71.3,62.31v2.21L56.66,66.45V64.23l3.27-.43.25-1-2.39.31V61.26l2.84-.38.21-.87-3.4.44V58.26l13.08-1.72v2.19l-6.85.9-.21.88,6-.79-.15,2.85ZM58.11,67l11.75-1.54v5.63L58.11,72.6Zm2.59,3.09,6.44-.84V67.93l-6.44.85Zm2.08-6.63,3.87-.51.07-1L63,62.46Z"/><path d="M78,65c-.17.37-.39.79-.65,1.25s-.54,1-.84,1.44-.6,1-.9,1.43-.59.88-.85,1.25l-2.34-1.12c.27-.37.56-.77.87-1.22s.61-.9.9-1.36.55-.91.79-1.36.43-.83.58-1.18Zm4-1.85v4.12a4.05,4.05,0,0,1-.14,1.17,1.56,1.56,0,0,1-.45.73,2.28,2.28,0,0,1-.8.46c-.33.11-.74.22-1.22.34l-1.17.29-.83-2.59.9-.22a2.46,2.46,0,0,0,.72-.27.63.63,0,0,0,.21-.55V63.48l-5.6.74.58-7.74c.62-.08,1.28-.18,2-.29s1.4-.22,2.11-.34l2.14-.39c.72-.13,1.4-.27,2.07-.41s1.28-.27,1.87-.41,1.1-.26,1.56-.39l.55,2.63-2.07.48c-.77.17-1.57.34-2.42.5s-1.71.33-2.59.49l-2.58.45-.18,2.55L79.2,61V58.8L82,58.49v2.15L86.91,60v2.47Zm2.71-.22q.27.28.66.78l.83,1.08c.29.39.58.79.86,1.2s.53.81.76,1.18L85.44,69c-.18-.35-.4-.74-.65-1.15S84.28,67,84,66.56s-.54-.78-.81-1.14-.51-.66-.72-.91Z"/></g></g></g></g></svg>