<svg xmlns="http://www.w3.org/2000/svg" viewBox="0 0 89.37 128.5"><defs><style>.cls-1,.cls-4{fill:none;stroke:#333;}.cls-1{stroke-linejoin:round;}.cls-2{fill:#333;}.cls-3{opacity:0.16;}.cls-4{stroke-miterlimit:10;}</style></defs><title>1-057</title><g id="图层_2" data-name="图层 2"><g id="_1-057_1-064" data-name="1-057——1-064"><g id="_1-057" data-name="1-057"><circle class="cls-1" cx="44.69" cy="83.81" r="44.19"/><line class="cls-1" x1="44.76" x2="44.62" y2="39.32"/><line class="cls-1" x1="71.16" x2="71.02" y2="48.15"/><line class="cls-1" x1="18.35" x2="18.21" y2="48.59"/><path class="cls-2" d="M34.77,74.29h-.71v-24h1l9.64,18.92h.06l9.63-18.92h1v24h-.7V51.45h-.07L45,70h-.7L34.83,51.45h-.06Z"/><g class="cls-3"><path d="M26.47,68.79c-.18.37-.39.79-.65,1.26s-.54.94-.84,1.43-.6,1-.91,1.43-.58.88-.84,1.25L20.89,73c.27-.36.56-.77.87-1.21s.6-.91.89-1.37.55-.91.79-1.35.43-.84.58-1.19Zm4-1.84v4.11a3.84,3.84,0,0,1-.14,1.18,1.65,1.65,0,0,1-.44.72,2.42,2.42,0,0,1-.81.46c-.33.11-.73.23-1.21.34l-1.17.29-.83-2.59.89-.22a2.69,2.69,0,0,0,.73-.27.65.65,0,0,0,.2-.55V67.31l-5.6.74.59-7.74,2-.28,2.1-.35,2.14-.38,2.07-.41,1.87-.41c.59-.14,1.11-.27,1.56-.4l.56,2.63-2.08.48c-.76.17-1.57.34-2.41.5l-2.6.49-2.58.45-.18,2.55,2.59-.34V62.63l2.78-.3v2.14l4.93-.65V66.3Zm2.72-.23c.17.19.39.45.65.78s.54.69.83,1.08.58.79.86,1.21.54.8.77,1.17l-2.36,1.83c-.19-.36-.4-.75-.65-1.16s-.52-.83-.79-1.23-.55-.79-.82-1.15a10.07,10.07,0,0,0-.72-.9Z"/><path d="M52,61.9v2.21L37.35,66V63.82l3.27-.43.24-1-2.39.31V60.85l2.85-.38.21-.87-3.4.45v-2.2l13.08-1.72v2.19l-6.85.91-.21.87,6-.79L50,62.16ZM38.8,66.56,50.54,65v5.63L38.8,72.19Zm2.58,3.1,6.45-.85V67.52l-6.45.85ZM43.47,63l3.87-.51.06-.95-3.7.49Z"/><path d="M58.68,64.55c-.17.37-.39.79-.65,1.26s-.54.94-.84,1.43-.6,1-.9,1.43-.59.88-.85,1.25L53.1,68.8c.27-.36.56-.77.87-1.22s.61-.9.89-1.36.55-.91.79-1.36.44-.83.59-1.18Zm4-1.85v4.12A4.23,4.23,0,0,1,62.53,68a1.77,1.77,0,0,1-.45.72,2.42,2.42,0,0,1-.81.46c-.33.11-.73.23-1.21.34l-1.17.29-.83-2.59L59,67a2.73,2.73,0,0,0,.72-.27.65.65,0,0,0,.2-.55V63.07l-5.59.74.58-7.74c.62-.08,1.28-.18,2-.29s1.4-.22,2.11-.34l2.14-.39c.71-.13,1.4-.27,2.06-.41s1.29-.27,1.87-.4,1.11-.27,1.57-.4l.55,2.63L65.06,57c-.76.17-1.57.34-2.41.5l-2.6.49-2.58.45-.17,2.55,2.58-.34V58.39l2.78-.3v2.14l4.93-.65v2.48Zm2.72-.22c.18.19.39.45.65.78s.54.69.83,1.08.58.79.86,1.21.54.8.77,1.17l-2.36,1.83c-.18-.36-.4-.75-.65-1.16s-.51-.83-.79-1.23-.55-.79-.81-1.15-.51-.66-.73-.91Z"/></g><path class="cls-2" d="M30.07,98.58A7.38,7.38,0,0,1,33,98a7.11,7.11,0,0,1,3.45.88A6.66,6.66,0,0,1,39,101.37a7.2,7.2,0,0,1,1,3.74,7.55,7.55,0,0,1-.91,3.73,6.51,6.51,0,0,1-2.51,2.56,7.86,7.86,0,0,1-8-.39,9.33,9.33,0,0,1-2.91-3.37l.6-.42c1.46,2.94,3.67,4.42,6.66,4.42a6.43,6.43,0,0,0,3.3-.84,5.78,5.78,0,0,0,2.25-2.32,6.81,6.81,0,0,0,.82-3.37,6.47,6.47,0,0,0-.87-3.34,6,6,0,0,0-2.32-2.32A6.14,6.14,0,0,0,33,98.61a7.79,7.79,0,0,0-2,.29,7.61,7.61,0,0,0-2,.83l-.38-.54L38,88.53H26.11v-.67h12.7v.67l-8.8,10Z"/><path class="cls-4" d="M42.8,102.59s1.48-13.06,10.59-2.25c11.17,11.13,12.31-1.42,12.31-1.42"/></g></g></g></svg>