<svg xmlns="http://www.w3.org/2000/svg" viewBox="0 0 128.5 128.78"><defs><style>.cls-1{fill:none;}.cls-1,.cls-3{stroke:#333;stroke-linejoin:round;}.cls-2{opacity:0.16;}.cls-3{fill:#333;}</style></defs><title>1-054</title><g id="图层_2" data-name="图层 2"><g id="_1-046_1-056" data-name="1-046——1-056"><g id="_1-054" data-name="1-054"><line class="cls-1" x1="55.65" y1="57.41" y2="57.41"/><line class="cls-1" x1="109.06" y1="0.39" x2="55.65" y2="43.99"/><line class="cls-1" x1="128" y1="128.39" x2="55.65" y2="72.13"/><line class="cls-1" x1="55.65" y1="86.75" x2="55.65" y2="28.06"/><g class="cls-2"><path d="M45.78,69.17c-.17.37-.39.79-.65,1.26s-.54.95-.84,1.44-.6,1-.9,1.43-.59.88-.85,1.25L40.2,73.42c.27-.36.56-.76.87-1.21s.61-.9.89-1.36.55-.91.79-1.36.44-.84.59-1.18Zm4-1.84v4.12a4.1,4.1,0,0,1-.13,1.17,1.74,1.74,0,0,1-.45.73,2.25,2.25,0,0,1-.81.45c-.33.12-.73.23-1.21.35L46,74.43l-.83-2.59.9-.21a2.37,2.37,0,0,0,.72-.28.63.63,0,0,0,.2-.55V67.7l-5.59.73L42,60.7l2-.29,2.11-.34,2.14-.39,2.06-.41c.66-.13,1.29-.27,1.87-.41s1.11-.27,1.57-.39l.55,2.63-2.08.47c-.76.18-1.57.34-2.41.51l-2.6.49L44.57,63l-.17,2.55L47,65.23V63l2.78-.3v2.15l4.93-.65v2.47Zm2.72-.23c.17.2.39.46.65.79s.54.69.83,1.08.58.79.86,1.2.54.81.77,1.18l-2.36,1.82c-.18-.35-.4-.74-.65-1.16s-.51-.82-.79-1.23L51,69.64c-.27-.36-.51-.67-.73-.91Z"/><path d="M71.3,62.28V64.5L56.66,66.42V64.21l3.27-.43.25-1-2.39.31V61.23l2.84-.37.21-.88-3.4.45v-2.2l13.08-1.72v2.2l-6.85.9-.21.87,6-.78-.15,2.85ZM58.11,67,69.86,65.4V71L58.11,72.58ZM60.7,70l6.44-.85V67.91l-6.44.85Zm2.08-6.63,3.87-.51.07-1L63,62.43Z"/><path d="M78,64.93c-.17.37-.39.79-.65,1.26s-.54,1-.84,1.44-.6,1-.9,1.42-.59.88-.85,1.26l-2.34-1.13c.27-.36.56-.76.87-1.21s.61-.9.9-1.36.55-.92.79-1.36.43-.84.58-1.18Zm4-1.84v4.12a4.05,4.05,0,0,1-.14,1.17,1.61,1.61,0,0,1-.45.73,2.12,2.12,0,0,1-.8.45c-.33.12-.74.23-1.22.35l-1.17.28-.83-2.59.9-.21a2.17,2.17,0,0,0,.72-.28.61.61,0,0,0,.21-.55v-3.1l-5.6.73.58-7.74c.62-.08,1.28-.17,2-.28l2.11-.34,2.14-.39L82.47,55c.66-.14,1.28-.27,1.87-.41l1.56-.39.55,2.63-2.07.47L82,57.84l-2.59.49-2.58.45-.18,2.55L79.2,61V58.77l2.78-.3v2.15L86.91,60v2.47Zm2.71-.23c.18.2.4.46.66.79l.83,1.08c.29.39.58.79.86,1.2s.53.81.76,1.18l-2.36,1.82c-.18-.35-.4-.74-.65-1.16s-.51-.83-.79-1.23-.54-.78-.81-1.14-.51-.67-.72-.91Z"/></g><circle class="cls-1" cx="73.11" cy="55.51" r="54.89"/><circle class="cls-3" cx="98.67" cy="104.31" r="10.62"/><polyline class="cls-1" points="61.45 19.33 89.42 16.39 86.48 44.36"/></g></g></g></svg>