<svg xmlns="http://www.w3.org/2000/svg" viewBox="0 0 91.16 128.01"><defs><style>.cls-1{fill:none;stroke:#333;stroke-linejoin:round;}.cls-2{opacity:0.16;}.cls-3{fill:#333;}</style></defs><title>1-059</title><g id="图层_2" data-name="图层 2"><g id="_1-057_1-064" data-name="1-057——1-064"><g id="_1-059" data-name="1-059"><circle class="cls-1" cx="45.58" cy="64" r="36.2"/><g class="cls-2"><path d="M27.36,68.79c-.17.37-.39.79-.65,1.26s-.54.94-.84,1.43-.6,1-.9,1.43-.59.88-.85,1.25L21.78,73c.27-.36.56-.77.87-1.21s.61-.91.89-1.37.55-.91.79-1.35.44-.84.59-1.19Zm4-1.84v4.11a4.23,4.23,0,0,1-.13,1.18,1.77,1.77,0,0,1-.45.72,2.42,2.42,0,0,1-.81.46c-.33.11-.73.23-1.21.34l-1.17.29-.83-2.59.9-.22a2.73,2.73,0,0,0,.72-.27.65.65,0,0,0,.2-.55V67.31L23,68.05l.58-7.74,2-.28c.69-.11,1.4-.22,2.11-.35l2.14-.38,2.06-.41,1.87-.41c.59-.14,1.11-.27,1.57-.4l.55,2.63-2.08.48c-.76.17-1.57.34-2.41.5l-2.6.49-2.58.46L26,65.18l2.58-.34V62.63l2.78-.3v2.14l4.93-.64V66.3Zm2.72-.23c.18.19.39.46.65.78s.54.69.83,1.08.58.79.86,1.21.54.8.77,1.17l-2.36,1.83c-.18-.36-.4-.74-.65-1.16s-.51-.83-.79-1.23l-.81-1.15c-.27-.36-.51-.66-.73-.9Z"/><path d="M52.89,61.9v2.21L38.24,66V63.83l3.27-.43.25-1-2.39.32V60.85l2.84-.38.21-.87-3.4.45v-2.2L52.1,56.13v2.19l-6.85.91L45,60.1l6-.79-.15,2.85Zm-13.2,4.66L51.44,65v5.63L39.69,72.19Zm2.59,3.1,6.44-.85V67.52l-6.44.85ZM44.36,63l3.87-.51.07-.95-3.71.49Z"/><path d="M59.57,64.55c-.17.37-.39.79-.65,1.26s-.54.94-.84,1.43-.6,1-.9,1.43-.59.88-.85,1.25L54,68.8c.27-.36.56-.77.87-1.21s.61-.91.9-1.37.55-.91.79-1.35.43-.84.58-1.19Zm4-1.84v4.11A4.18,4.18,0,0,1,63.42,68a1.58,1.58,0,0,1-.45.72,2.28,2.28,0,0,1-.8.46c-.33.11-.74.23-1.22.34l-1.17.29L59,67.22l.9-.22a2.46,2.46,0,0,0,.72-.27.63.63,0,0,0,.21-.55V63.07l-5.6.74.58-7.74,2-.28,2.11-.35L62,55.06l2.07-.41,1.87-.41c.58-.14,1.1-.27,1.56-.4L68,56.47,66,57c-.77.17-1.57.34-2.42.5s-1.71.33-2.59.49l-2.58.45-.18,2.55,2.59-.34V58.39l2.78-.3v2.14l4.93-.65v2.48Zm2.71-.23q.27.29.66.78l.83,1.08c.29.39.58.79.86,1.21s.53.8.76,1.17L67,68.55c-.18-.36-.4-.75-.65-1.16s-.51-.83-.79-1.23S65,65.37,64.77,65s-.51-.66-.72-.9Z"/></g><circle class="cls-1" cx="45.58" cy="64" r="45.08"/><line class="cls-1" x1="45.52" x2="45.42" y2="18.92"/><line class="cls-1" x1="68.3" x2="68.2" y2="25"/><line class="cls-1" x1="22.98" x2="22.88" y2="25.04"/><line class="cls-1" x1="45.42" y1="109.08" x2="45.52" y2="128"/><line class="cls-1" x1="68.2" y1="103" x2="68.3" y2="128"/><line class="cls-1" x1="22.88" y1="102.96" x2="22.98" y2="128"/><path class="cls-3" d="M35.66,60.65H35v-24h1l9.63,18.91h.06l9.63-18.91h1v24h-.7V37.8h-.06L45.93,56.4h-.7L35.72,37.8h-.06Z"/><path class="cls-3" d="M31.07,76.21A7.13,7.13,0,0,1,34,75.6a7,7,0,0,1,3.45.88A6.63,6.63,0,0,1,40,79a7.26,7.26,0,0,1,1,3.74A7.55,7.55,0,0,1,40,86.46,6.51,6.51,0,0,1,37.53,89a7.22,7.22,0,0,1-3.65.91,7.36,7.36,0,0,1-4.35-1.29,9.37,9.37,0,0,1-2.91-3.38l.61-.41c1.45,2.94,3.66,4.41,6.65,4.41a6.42,6.42,0,0,0,3.3-.83,5.84,5.84,0,0,0,2.25-2.32,6.85,6.85,0,0,0,.82-3.38,6.59,6.59,0,0,0-.86-3.34A6.27,6.27,0,0,0,34,76.24a8,8,0,0,0-4,1.12l-.39-.55,9.38-10.65H27.1v-.67H39.8v.67l-8.8,10Z"/><path class="cls-1" d="M48,76.53s1.22-10.7,8.68-1.85c9.16,9.12,10.09-1.16,10.09-1.16"/></g></g></g></svg>