<svg xmlns="http://www.w3.org/2000/svg" viewBox="0 0 55.07 128"><defs><style>.cls-1{fill:none;stroke:#333;stroke-linejoin:round;}.cls-2{opacity:0.16;}</style></defs><title>1-060</title><g id="图层_2" data-name="图层 2"><g id="_1-057_1-064" data-name="1-057——1-064"><g id="_1-060" data-name="1-060"><circle class="cls-1" cx="27.54" cy="43.47" r="27.04"/><g class="cls-2"><path d="M9.32,68.79c-.18.37-.39.79-.65,1.25s-.54.95-.84,1.44-.6,1-.91,1.43-.58.88-.84,1.25L3.74,73c.27-.37.56-.77.87-1.22s.6-.9.89-1.36.55-.91.79-1.36.43-.83.59-1.18Zm4-1.85v4.12a3.73,3.73,0,0,1-.14,1.17,1.63,1.63,0,0,1-.44.73,2.42,2.42,0,0,1-.81.46c-.33.11-.73.23-1.21.34l-1.17.29L8.7,71.46l.89-.22a2.69,2.69,0,0,0,.73-.27.65.65,0,0,0,.2-.55V67.31l-5.6.74.59-7.74c.62-.08,1.27-.18,2-.29s1.39-.22,2.1-.34,1.43-.25,2.14-.39,1.41-.27,2.07-.41,1.29-.27,1.87-.41,1.11-.26,1.56-.39l.56,2.63-2.08.48c-.76.17-1.57.34-2.41.5l-2.6.49-2.58.45-.18,2.55,2.59-.34V62.63l2.78-.31v2.15l4.93-.65v2.47ZM16,66.72c.17.19.39.45.65.78s.54.69.83,1.08.58.79.86,1.2.54.81.77,1.18l-2.36,1.82c-.19-.35-.4-.74-.65-1.15s-.52-.83-.79-1.24-.55-.78-.82-1.14-.5-.66-.72-.91Z"/><path d="M34.84,61.9v2.21L20.2,66V63.82l3.27-.43.24-1-2.39.31V60.84l2.85-.37.21-.87L21,60V57.85l13.08-1.73v2.2l-6.85.9L27,60.1l6-.79-.15,2.85ZM21.65,66.56,33.39,65v5.63L21.65,72.19Zm2.59,3.09,6.44-.84V67.52l-6.44.85ZM26.32,63l3.87-.51.06-.95-3.7.49Z"/><path d="M41.53,64.55c-.17.37-.39.79-.65,1.25s-.54,1-.84,1.44-.6,1-.9,1.43-.59.88-.85,1.25L36,68.79c.27-.36.56-.76.87-1.21s.61-.9.89-1.36.55-.91.79-1.36.44-.83.59-1.18Zm4-1.85v4.12A4.05,4.05,0,0,1,45.38,68a1.65,1.65,0,0,1-.45.73,2.25,2.25,0,0,1-.81.45c-.33.12-.73.23-1.21.35l-1.17.29-.83-2.6.9-.21a2.37,2.37,0,0,0,.72-.28c.14-.09.2-.27.2-.54V63.07l-5.59.74.58-7.74c.62-.08,1.28-.18,2-.29s1.4-.22,2.11-.34l2.14-.39c.71-.13,1.4-.27,2.06-.41s1.29-.27,1.87-.41S49,54,49.44,53.84L50,56.47,47.91,57c-.76.17-1.57.34-2.41.5l-2.6.49-2.57.45-.18,2.55,2.58-.34V58.38l2.79-.3v2.15l4.92-.65v2.47Zm2.71-.22c.18.19.39.45.65.78s.54.69.83,1.08.58.79.86,1.2.54.81.77,1.18L49,68.54c-.18-.35-.4-.74-.65-1.16s-.51-.82-.79-1.23L46.73,65c-.27-.36-.51-.66-.73-.91Z"/></g><circle class="cls-1" cx="27.54" cy="81.11" r="27.04"/><line class="cls-1" x1="27.54" y1="128" x2="27.54" y2="108.15"/><line class="cls-1" x1="27.54" y1="16.09" x2="27.54"/></g></g></g></svg>