<svg xmlns="http://www.w3.org/2000/svg" viewBox="0 0 61 128"><defs><style>.cls-1{fill:none;stroke:#333;stroke-linejoin:round;}.cls-2{opacity:0.16;}</style></defs><title>1-062</title><g id="图层_2" data-name="图层 2"><g id="_1-057_1-064" data-name="1-057——1-064"><g id="_1-062" data-name="1-062"><circle class="cls-1" cx="29.58" cy="46.56" r="25.25"/><circle class="cls-1" cx="29.58" cy="81.71" r="25.25"/><line class="cls-1" x1="29.67" y1="21" x2="29.58"/><line class="cls-1" x1="22.57" y1="10.48" x2="36.68" y2="5.34"/><line class="cls-1" x1="22.57" y1="15.82" x2="36.68" y2="10.67"/><line class="cls-1" x1="29.67" y1="128" x2="29.58" y2="107"/><line class="cls-1" x1="22.57" y1="117.48" x2="36.68" y2="112.34"/><line class="cls-1" x1="22.57" y1="122.82" x2="36.68" y2="117.67"/><line class="cls-1" y1="64.34" x2="28.67" y2="64.34"/><line class="cls-1" x1="32.33" y1="64.34" x2="61" y2="64.34"/><g class="cls-2"><path d="M12.28,68.79c-.17.37-.39.79-.65,1.26s-.54.94-.84,1.43-.6,1-.9,1.43-.59.88-.85,1.25L6.7,73c.27-.36.56-.77.87-1.21s.61-.91.89-1.37.55-.91.79-1.35.44-.84.59-1.19Zm4-1.84v4.11a4.23,4.23,0,0,1-.13,1.18,1.77,1.77,0,0,1-.45.72,2.42,2.42,0,0,1-.81.46c-.33.11-.73.23-1.21.34l-1.17.29-.83-2.59.9-.22a2.73,2.73,0,0,0,.72-.27.65.65,0,0,0,.2-.55V67.31l-5.59.74.58-7.74,2-.28,2.11-.35,2.14-.38,2.06-.41,1.87-.41c.59-.14,1.11-.27,1.57-.4l.55,2.63-2.08.48c-.76.17-1.57.34-2.41.5l-2.6.49-2.58.45-.17,2.55,2.58-.34V62.63l2.78-.3v2.14l4.93-.65V66.3ZM19,66.72c.17.19.39.45.65.78s.54.69.83,1.08.58.79.86,1.21.54.8.77,1.17l-2.36,1.83c-.18-.36-.4-.75-.65-1.16s-.51-.83-.79-1.23l-.81-1.15c-.27-.36-.51-.66-.73-.9Z"/><path d="M37.8,61.9v2.21L23.16,66V63.83l3.27-.44.25-1-2.39.31V60.85l2.84-.38.21-.87-3.4.45v-2.2L37,56.13v2.19l-6.85.91L30,60.1l6-.79-.15,2.85ZM24.61,66.56,36.36,65v5.63L24.61,72.19Zm2.59,3.1,6.44-.85V67.52l-6.44.85ZM29.28,63l3.87-.51.07-.95-3.71.49Z"/><path d="M44.49,64.55c-.17.37-.39.79-.65,1.26s-.54.94-.84,1.43-.6,1-.9,1.43-.59.88-.85,1.25L38.91,68.8c.27-.36.56-.77.87-1.22s.61-.9.9-1.36.55-.91.79-1.36.43-.83.58-1.18Zm4-1.85v4.12A4.18,4.18,0,0,1,48.34,68a1.58,1.58,0,0,1-.45.72,2.28,2.28,0,0,1-.8.46c-.33.11-.74.23-1.22.34l-1.17.29-.83-2.59.9-.22a2.46,2.46,0,0,0,.72-.27.63.63,0,0,0,.21-.55V63.07l-5.6.74.58-7.74c.62-.08,1.28-.18,2-.29s1.4-.22,2.11-.34l2.14-.39c.72-.13,1.4-.27,2.07-.41s1.28-.27,1.87-.4,1.1-.27,1.56-.4L53,56.47,50.88,57c-.77.17-1.57.34-2.42.5s-1.71.33-2.59.49l-2.58.45-.18,2.55,2.59-.34V58.39l2.78-.3v2.14l4.93-.65v2.48Zm2.71-.22q.27.29.66.78l.83,1.08c.29.39.58.79.86,1.21s.53.8.76,1.17l-2.36,1.83c-.18-.36-.4-.75-.65-1.16s-.51-.83-.79-1.23S50,65.37,49.69,65s-.51-.66-.72-.91Z"/></g></g></g></g></svg>