<svg xmlns="http://www.w3.org/2000/svg" viewBox="0 0 71.17 128"><defs><style>.cls-1{fill:none;stroke:#333;stroke-linejoin:round;}.cls-2{opacity:0.16;}</style></defs><title>1-064</title><g id="图层_2" data-name="图层 2"><g id="_1-057_1-064" data-name="1-057——1-064"><g id="_1-064" data-name="1-064"><circle class="cls-1" cx="25.75" cy="46.56" r="25.25"/><g class="cls-2"><path d="M17.61,68.79c-.17.37-.39.79-.65,1.26s-.54.94-.84,1.43-.6,1-.9,1.43-.59.88-.85,1.25L12,73c.27-.36.56-.77.87-1.21s.61-.91.9-1.37.55-.91.79-1.35.43-.84.58-1.19Zm4-1.84v4.11a4.18,4.18,0,0,1-.14,1.18A1.58,1.58,0,0,1,21,73a2.28,2.28,0,0,1-.8.46c-.33.11-.74.23-1.22.34l-1.17.29L17,71.46l.9-.22a2.46,2.46,0,0,0,.72-.27.63.63,0,0,0,.21-.55V67.31l-5.6.74.58-7.74,2-.28,2.11-.35L20,59.3l2.07-.41L24,58.48c.58-.14,1.1-.27,1.56-.4l.55,2.63L24,61.19c-.77.17-1.57.34-2.42.5s-1.71.33-2.59.49l-2.58.45-.18,2.55,2.59-.34V62.63l2.78-.3v2.14l4.93-.65V66.3Zm2.71-.23q.27.28.66.78l.83,1.08c.29.39.58.79.86,1.21s.53.8.76,1.17l-2.36,1.83c-.18-.36-.4-.75-.65-1.16s-.51-.83-.79-1.23-.54-.79-.81-1.15-.51-.66-.72-.9Z"/><path d="M43.14,61.9v2.21L28.5,66V63.83l3.27-.44.24-1-2.39.31V60.85l2.85-.38.21-.87-3.4.45v-2.2l13.08-1.72v2.19l-6.85.91-.21.87,6-.79-.14,2.85Zm-13.2,4.66L41.69,65v5.63L29.94,72.19Zm2.59,3.1L39,68.81V67.52l-6.44.85ZM34.61,63l3.88-.51.06-.95-3.71.49Z"/><path d="M49.83,64.55q-.27.56-.66,1.26c-.26.46-.54.94-.83,1.43s-.6,1-.91,1.43-.58.88-.84,1.25L44.24,68.8c.28-.36.57-.77.87-1.22s.61-.9.9-1.36.55-.91.79-1.36.43-.83.58-1.18Zm4-1.85v4.12A4.18,4.18,0,0,1,53.67,68a1.65,1.65,0,0,1-.44.72,2.42,2.42,0,0,1-.81.46c-.33.11-.73.23-1.21.34L50,69.81l-.83-2.59L50.1,67a2.69,2.69,0,0,0,.73-.27.65.65,0,0,0,.2-.55V63.07l-5.6.74L46,56.07c.62-.08,1.27-.18,2-.29s1.39-.22,2.1-.34,1.43-.25,2.14-.39,1.41-.27,2.07-.41,1.28-.27,1.87-.4,1.11-.27,1.56-.4l.55,2.63L56.21,57c-.76.17-1.57.34-2.42.5s-1.71.33-2.59.49l-2.58.45-.18,2.55L51,60.6V58.39l2.78-.3v2.14l4.93-.65v2.48Zm2.72-.22c.17.19.39.45.65.78s.54.69.83,1.08.58.79.86,1.21.54.8.77,1.17l-2.36,1.83c-.19-.36-.41-.75-.65-1.16s-.52-.83-.79-1.23S55.29,65.37,55,65s-.5-.66-.72-.91Z"/></g><circle class="cls-1" cx="25.75" cy="81.71" r="25.25"/><line class="cls-1" x1="25.83" y1="21" x2="25.75"/><line class="cls-1" x1="18.74" y1="10.48" x2="32.84" y2="5.34"/><line class="cls-1" x1="18.74" y1="15.82" x2="32.84" y2="10.67"/><line class="cls-1" x1="25.83" y1="128" x2="25.75" y2="107"/><line class="cls-1" x1="18.74" y1="117.48" x2="32.84" y2="112.34"/><line class="cls-1" x1="18.74" y1="122.82" x2="32.84" y2="117.67"/><line class="cls-1" x1="24.83" y1="47.67" x2="71.17" y2="47.67"/><line class="cls-1" x1="24.83" y1="56.34" x2="24.83" y2="47.67"/></g></g></g></svg>