<svg xmlns="http://www.w3.org/2000/svg" viewBox="0 0 53.69 128"><defs><style>.cls-1{fill:none;stroke:#333;stroke-linejoin:round;}.cls-2{opacity:0.16;}</style></defs><title>1-066</title><g id="图层_2" data-name="图层 2"><g id="_1-066_1-090" data-name="1-066——1-090"><g id="_1-066" data-name="1-066"><circle class="cls-1" cx="26.84" cy="45.93" r="26.34"/><circle class="cls-1" cx="26.84" cy="81.39" r="26.34"/><g class="cls-2"><path d="M8.62,68.79c-.17.37-.39.79-.65,1.25s-.54.95-.84,1.44-.6,1-.9,1.43-.59.88-.85,1.25L3,73c.27-.37.56-.77.87-1.22s.61-.9.9-1.36.55-.91.79-1.36.43-.83.58-1.18Zm4-1.85v4.12a4.05,4.05,0,0,1-.14,1.17A1.56,1.56,0,0,1,12,73a2.28,2.28,0,0,1-.8.46c-.33.11-.74.23-1.22.34l-1.17.29L8,71.46l.9-.22A2.46,2.46,0,0,0,9.62,71a.63.63,0,0,0,.21-.55V67.31l-5.6.74.58-7.74c.62-.08,1.28-.18,2-.29s1.4-.22,2.11-.34L11,59.29c.72-.13,1.4-.27,2.07-.41s1.28-.27,1.87-.41,1.1-.26,1.56-.39l.55,2.63L15,61.19c-.77.17-1.57.34-2.42.5s-1.71.33-2.59.49l-2.58.45-.18,2.55,2.59-.34V62.63l2.78-.31v2.15l4.93-.65v2.47Zm2.71-.22q.27.28.66.78l.83,1.08c.29.39.58.79.86,1.2s.53.81.76,1.18l-2.36,1.82c-.18-.35-.4-.74-.65-1.15s-.51-.83-.79-1.24-.54-.78-.81-1.14-.51-.66-.72-.91Z"/><path d="M34.15,61.9v2.21L19.51,66V63.82l3.27-.43.24-1-2.39.31V60.84l2.85-.37.21-.87-3.4.44V57.85l13.08-1.73v2.2l-6.85.9-.21.88,6-.79-.14,2.85ZM21,66.56,32.7,65v5.63L21,72.19Zm2.59,3.09L30,68.81V67.52l-6.44.85ZM25.62,63l3.88-.51.06-.95-3.71.49Z"/><path d="M40.83,64.55c-.17.37-.39.79-.65,1.25s-.54,1-.83,1.44-.6,1-.91,1.43-.58.88-.84,1.25l-2.35-1.13c.28-.36.57-.76.87-1.21s.61-.9.9-1.36.55-.91.79-1.36.43-.83.58-1.18Zm4-1.85v4.12A4.05,4.05,0,0,1,44.68,68a1.56,1.56,0,0,1-.45.73,2.12,2.12,0,0,1-.8.45c-.33.12-.73.23-1.21.35l-1.17.29-.83-2.6.89-.21a2.35,2.35,0,0,0,.73-.28.62.62,0,0,0,.2-.54V63.07l-5.6.74L37,56.07c.62-.08,1.27-.18,2-.29s1.39-.22,2.1-.34,1.43-.25,2.14-.39,1.41-.27,2.07-.41,1.28-.27,1.87-.41,1.11-.26,1.56-.39l.55,2.63L47.22,57c-.76.17-1.57.34-2.42.5s-1.71.33-2.59.49l-2.58.45-.18,2.55L42,60.6V58.38l2.78-.3v2.15l4.93-.65v2.47Zm2.72-.22c.17.19.39.45.65.78s.54.69.83,1.08.58.79.86,1.2.54.81.76,1.18l-2.35,1.82c-.19-.35-.41-.74-.65-1.16s-.52-.82-.79-1.23S46.3,65.37,46,65s-.5-.66-.72-.91Z"/></g><line class="cls-1" x1="26.84" y1="19.59" x2="26.84"/><line class="cls-1" x1="21.05" y1="8.93" x2="32.63" y2="4.73"/><line class="cls-1" x1="21.05" y1="12.65" x2="32.63" y2="8.44"/><line class="cls-1" x1="21.05" y1="16.36" x2="32.63" y2="12.16"/><line class="cls-1" x1="26.84" y1="128" x2="26.84" y2="107.74"/><line class="cls-1" x1="21.05" y1="117.34" x2="32.63" y2="113.14"/><line class="cls-1" x1="21.05" y1="121.06" x2="32.63" y2="116.85"/><line class="cls-1" x1="21.05" y1="124.77" x2="32.63" y2="120.57"/><line class="cls-1" x1="26.84" y1="48.97" x2="26.84" y2="37.49"/><line class="cls-1" x1="14.68" y1="30.06" x2="26.84" y2="37.49"/><line class="cls-1" x1="26.84" y1="37.49" x2="39" y2="30.06"/><polygon class="cls-1" points="26.84 76.16 15.13 95.41 38.55 95.41 26.84 76.16"/></g></g></g></svg>