<svg xmlns="http://www.w3.org/2000/svg" viewBox="0 0 92.77 128"><defs><style>.cls-1{fill:none;stroke:#333;stroke-linejoin:round;}.cls-2{opacity:0.16;}</style></defs><title>1-074</title><g id="图层_2" data-name="图层 2"><g id="_1-066_1-090" data-name="1-066——1-090"><g id="_1-074" data-name="1-074"><circle class="cls-1" cx="46.04" cy="46.92" r="26.91"/><circle class="cls-1" cx="65.36" cy="82.46" r="26.91"/><g class="cls-2"><path d="M28.17,68.79c-.18.37-.4.79-.66,1.25s-.53.95-.83,1.44-.6,1-.91,1.43-.58.88-.84,1.25L22.58,73c.28-.37.57-.77.88-1.22s.6-.9.89-1.36.55-.91.79-1.36.43-.83.58-1.18Zm4-1.85v4.12A3.73,3.73,0,0,1,32,72.23a1.63,1.63,0,0,1-.44.73,2.42,2.42,0,0,1-.81.46c-.33.11-.73.23-1.21.34l-1.17.29-.83-2.59.89-.22a2.69,2.69,0,0,0,.73-.27.65.65,0,0,0,.2-.55V67.31l-5.6.74.59-7.74c.62-.08,1.27-.18,2-.29s1.39-.22,2.1-.34,1.43-.25,2.14-.39S32,59,32.64,58.88s1.28-.27,1.87-.41,1.11-.26,1.56-.39l.56,2.63-2.08.48c-.76.17-1.57.34-2.42.5s-1.71.33-2.59.49L27,62.63l-.18,2.55,2.59-.34V62.63l2.78-.31v2.15l4.93-.65v2.47Zm2.72-.22c.17.19.39.45.65.78s.54.69.83,1.08.58.79.86,1.2.54.81.77,1.18l-2.36,1.82c-.19-.35-.4-.74-.65-1.15s-.52-.83-.79-1.24-.55-.78-.82-1.14-.5-.66-.72-.91Z"/><path d="M53.69,61.9v2.21L39.05,66V63.82l3.27-.43.24-1-2.39.31V60.84L43,60.47l.21-.87-3.4.44V57.85l13.08-1.73v2.2l-6.85.9-.21.88,6-.79-.15,2.85ZM40.5,66.56,52.24,65v5.63L40.5,72.19Zm2.58,3.09,6.45-.84V67.52l-6.45.85ZM45.17,63,49,62.51l.06-.95-3.71.49Z"/><path d="M60.38,64.55c-.17.37-.39.79-.65,1.25s-.54,1-.84,1.44-.6,1-.9,1.43-.59.88-.85,1.25L54.8,68.79c.27-.36.56-.76.87-1.21s.61-.9.89-1.36.55-.91.79-1.36.44-.83.59-1.18Zm4-1.85v4.12A4.1,4.1,0,0,1,64.23,68a1.74,1.74,0,0,1-.45.73,2.25,2.25,0,0,1-.81.45c-.33.12-.73.23-1.21.35l-1.17.29-.83-2.6.9-.21a2.37,2.37,0,0,0,.72-.28.62.62,0,0,0,.2-.54V63.07L56,63.81l.58-7.74c.62-.08,1.28-.18,2-.29s1.4-.22,2.11-.34l2.14-.39c.71-.13,1.4-.27,2.06-.41s1.29-.27,1.87-.41,1.11-.26,1.57-.39l.55,2.63L66.76,57c-.76.17-1.57.34-2.41.5l-2.6.49-2.58.45L59,60.94l2.58-.34V58.38l2.78-.3v2.15l4.93-.65v2.47Zm2.72-.22c.17.19.39.45.65.78s.54.69.83,1.08.58.79.86,1.2.54.81.77,1.18l-2.36,1.82c-.18-.35-.4-.74-.65-1.16s-.51-.82-.79-1.23L65.58,65c-.27-.36-.51-.66-.73-.91Z"/></g><circle class="cls-1" cx="27.41" cy="82.46" r="26.91"/><line class="cls-1" x1="46.04" y1="20.01" x2="46.04"/><line class="cls-1" x1="40.13" y1="9.12" x2="51.96" y2="4.83"/><line class="cls-1" x1="40.13" y1="12.92" x2="51.96" y2="8.63"/><line class="cls-1" x1="40.13" y1="16.71" x2="51.96" y2="12.42"/><line class="cls-1" x1="65.36" y1="128" x2="65.36" y2="109.71"/><line class="cls-1" x1="59.45" y1="117.11" x2="71.28" y2="112.82"/><line class="cls-1" x1="59.45" y1="120.91" x2="71.28" y2="116.61"/><line class="cls-1" x1="59.45" y1="124.7" x2="71.28" y2="120.41"/><line class="cls-1" x1="27.41" y1="128" x2="27.41" y2="109.71"/><line class="cls-1" x1="21.5" y1="117.11" x2="33.32" y2="112.82"/><line class="cls-1" x1="21.5" y1="120.91" x2="33.32" y2="116.61"/><line class="cls-1" x1="21.5" y1="124.7" x2="33.32" y2="120.41"/><line class="cls-1" x1="46" y1="52.27" x2="46.08" y2="42.09"/><line class="cls-1" x1="37.11" y1="36.57" x2="46" y2="41.96"/><line class="cls-1" x1="46.08" y1="41.96" x2="54.97" y2="36.57"/><line class="cls-1" x1="23.18" y1="97.47" x2="23.27" y2="87.29"/><line class="cls-1" x1="14.3" y1="81.77" x2="23.18" y2="87.16"/><line class="cls-1" x1="23.27" y1="87.16" x2="32.15" y2="81.77"/><polygon class="cls-1" points="69.33 79.18 59.67 94.02 78.99 94.02 69.33 79.18"/></g></g></g></svg>