<svg xmlns="http://www.w3.org/2000/svg" viewBox="0 0 60.78 128"><defs><style>.cls-1{fill:none;stroke:#333;stroke-linejoin:round;}.cls-2{opacity:0.16;}</style></defs><title>1-076</title><g id="图层_2" data-name="图层 2"><g id="_1-066_1-090" data-name="1-066——1-090"><g id="_1-076" data-name="1-076"><circle class="cls-1" cx="30.39" cy="77.67" r="29.89"/><g class="cls-2"><path d="M12.17,68.79c-.18.37-.39.79-.65,1.25s-.54.95-.84,1.44-.6,1-.9,1.43-.59.88-.85,1.25L6.59,73c.27-.37.56-.77.87-1.22s.6-.9.89-1.36.55-.91.79-1.36.44-.83.59-1.18Zm4-1.85v4.12A4.1,4.1,0,0,1,16,72.23a1.74,1.74,0,0,1-.45.73,2.42,2.42,0,0,1-.81.46c-.33.11-.73.23-1.21.34l-1.17.29-.83-2.59.89-.22a2.69,2.69,0,0,0,.73-.27.65.65,0,0,0,.2-.55V67.31l-5.6.74.59-7.74c.62-.08,1.27-.18,2-.29s1.4-.22,2.11-.34l2.14-.39c.71-.13,1.4-.27,2.06-.41s1.29-.27,1.87-.41,1.11-.26,1.56-.39l.56,2.63-2.08.48c-.76.17-1.57.34-2.41.5l-2.6.49L11,62.63l-.18,2.55,2.59-.34V62.63l2.78-.31v2.15l4.93-.65v2.47Zm2.72-.22c.17.19.39.45.65.78s.54.69.83,1.08.58.79.86,1.2.54.81.77,1.18l-2.36,1.82c-.19-.35-.4-.74-.65-1.15s-.51-.83-.79-1.24l-.81-1.14c-.27-.36-.51-.66-.73-.91Z"/><path d="M37.69,61.9v2.21L23.05,66V63.82l3.27-.43.25-1-2.4.31V60.84L27,60.47l.21-.87-3.4.44V57.85l13.08-1.73v2.2l-6.85.9-.21.88,6-.79-.15,2.85ZM24.5,66.56,36.25,65v5.63L24.5,72.19Zm2.59,3.09,6.44-.84V67.52l-6.44.85ZM29.17,63,33,62.51l.07-.95-3.71.49Z"/><path d="M44.38,64.55c-.17.37-.39.79-.65,1.25s-.54,1-.84,1.44-.6,1-.9,1.43-.59.88-.85,1.25L38.8,68.79c.27-.36.56-.76.87-1.21s.61-.9.9-1.36.55-.91.78-1.36.44-.83.59-1.18Zm4-1.85v4.12A4.05,4.05,0,0,1,48.23,68a1.56,1.56,0,0,1-.45.73,2.2,2.2,0,0,1-.8.45c-.34.12-.74.23-1.22.35l-1.17.29-.83-2.6.9-.21a2.26,2.26,0,0,0,.72-.28c.14-.09.2-.27.2-.54V63.07L40,63.81l.58-7.74c.62-.08,1.28-.18,2-.29s1.4-.22,2.11-.34l2.14-.39c.71-.13,1.4-.27,2.06-.41s1.29-.27,1.88-.41,1.1-.26,1.56-.39l.55,2.63L50.77,57c-.77.17-1.57.34-2.42.5l-2.6.49-2.57.45L43,60.94l2.58-.34V58.38l2.79-.3v2.15l4.93-.65v2.47Zm2.71-.22c.18.19.39.45.65.78s.54.69.83,1.08.58.79.87,1.2.53.81.76,1.18l-2.36,1.82c-.18-.35-.4-.74-.65-1.16s-.51-.82-.79-1.23-.55-.78-.81-1.14-.51-.66-.73-.91Z"/></g><path class="cls-1" d="M51.83,56.44s-8.89-21.77-24-37.33V0"/><line class="cls-1" x1="30.39" y1="128" x2="30.39" y2="107.56"/></g></g></g></svg>