<svg xmlns="http://www.w3.org/2000/svg" viewBox="0 0 89.07 128"><defs><style>.cls-1{fill:none;}.cls-1,.cls-2{stroke:#333;stroke-linejoin:round;}.cls-2{fill:#333;}.cls-3{opacity:0.16;}</style></defs><title>1-084</title><g id="图层_2" data-name="图层 2"><g id="_1-066_1-090" data-name="1-066——1-090"><g id="_1-084" data-name="1-084"><line class="cls-1" x1="39.01" y1="32.89" x2="39.01"/><line class="cls-1" x1="30.43" y1="14.05" x2="47.59" y2="7.93"/><line class="cls-1" x1="30.43" y1="18.41" x2="47.59" y2="12.28"/><line class="cls-1" x1="30.43" y1="22.76" x2="47.59" y2="16.64"/><line class="cls-1" x1="38.88" y1="128" x2="38.88" y2="95.11"/><line class="cls-1" x1="30.3" y1="109.15" x2="47.45" y2="103.03"/><line class="cls-1" x1="30.3" y1="113.51" x2="47.45" y2="107.39"/><line class="cls-1" x1="30.3" y1="117.87" x2="47.45" y2="111.75"/><polygon class="cls-2" points="88.57 33.44 76.14 37.37 80.48 43.66 88.57 33.44"/><line class="cls-1" x1="0.25" y1="85.45" x2="81.24" y2="39.03"/><circle class="cls-1" cx="39.01" cy="63.7" r="30.77"/><circle class="cls-1" cx="37.86" cy="53.8" r="20.71"/><g class="cls-3"><path d="M26.19,68.79c-.18.37-.39.79-.65,1.25S25,71,24.7,71.48s-.6,1-.9,1.43-.59.88-.85,1.25L20.61,73c.27-.37.56-.77.87-1.22s.61-.9.89-1.36.55-.91.79-1.36.44-.83.59-1.18Zm4-1.85v4.12A4.1,4.1,0,0,1,30,72.23a1.74,1.74,0,0,1-.45.73,2.42,2.42,0,0,1-.81.46c-.33.11-.73.23-1.21.34l-1.17.29-.83-2.59.9-.22a2.73,2.73,0,0,0,.72-.27.65.65,0,0,0,.2-.55V67.31l-5.59.74.58-7.74c.62-.08,1.28-.18,2-.29s1.4-.22,2.11-.34l2.14-.39c.71-.13,1.4-.27,2.06-.41s1.29-.27,1.87-.41,1.11-.26,1.57-.39l.55,2.63-2.08.48c-.76.17-1.57.34-2.41.5l-2.6.49L25,62.63l-.17,2.55,2.58-.34V62.63l2.78-.31v2.15l4.93-.65v2.47Zm2.72-.22c.17.19.39.45.65.78s.54.69.83,1.08.58.79.86,1.2.54.81.77,1.18l-2.36,1.82c-.18-.35-.4-.74-.65-1.15s-.51-.83-.79-1.24l-.81-1.14c-.27-.36-.51-.66-.73-.91Z"/><path d="M51.71,61.9v2.21L37.07,66V63.82l3.27-.43.25-1-2.39.31V60.84L41,60.47l.21-.87-3.4.44V57.85l13.08-1.73v2.2l-6.85.9-.21.88,6-.79-.15,2.85ZM38.52,66.56,50.27,65v5.63L38.52,72.19Zm2.59,3.09,6.44-.84V67.52l-6.44.85ZM43.19,63l3.87-.51.07-.95-3.71.49Z"/><path d="M58.4,64.55c-.17.37-.39.79-.65,1.25s-.54,1-.84,1.44-.6,1-.9,1.43-.59.88-.85,1.25l-2.34-1.13c.27-.36.56-.76.87-1.21s.61-.9.9-1.36.55-.91.79-1.36.43-.83.58-1.18Zm4-1.85v4.12A4.05,4.05,0,0,1,62.25,68a1.56,1.56,0,0,1-.45.73,2.12,2.12,0,0,1-.8.45c-.33.12-.74.23-1.22.35l-1.17.29-.83-2.6.9-.21a2.17,2.17,0,0,0,.72-.28.6.6,0,0,0,.21-.54V63.07l-5.6.74.58-7.74c.62-.08,1.28-.18,2-.29s1.4-.22,2.11-.34l2.14-.39c.71-.13,1.4-.27,2.07-.41s1.28-.27,1.87-.41,1.1-.26,1.56-.39l.55,2.63L64.79,57c-.77.17-1.57.34-2.42.5l-2.59.49-2.58.45L57,60.94l2.59-.34V58.38l2.78-.3v2.15l4.93-.65v2.47Zm2.71-.22c.18.19.39.45.66.78l.83,1.08c.29.39.58.79.86,1.2s.53.81.76,1.18l-2.36,1.82c-.18-.35-.4-.74-.65-1.16s-.51-.82-.79-1.23-.54-.78-.81-1.14-.51-.66-.72-.91Z"/></g></g></g></g></svg>