<svg xmlns="http://www.w3.org/2000/svg" viewBox="0 0 79.96 128.01"><defs><style>.cls-1{fill:#333;}.cls-1,.cls-2{stroke:#333;stroke-linejoin:round;}.cls-2{fill:none;}.cls-3{opacity:0.16;}</style></defs><title>1-082</title><g id="图层_2" data-name="图层 2"><g id="_1-066_1-090" data-name="1-066——1-090"><g id="_1-082" data-name="1-082"><polygon class="cls-1" points="79.46 56.62 68.62 58.77 71.69 64.48 79.46 56.62"/><line class="cls-2" x1="0.2" y1="92.23" x2="72.77" y2="60.65"/><circle class="cls-2" cx="35.25" cy="75.35" r="26.08"/><g class="cls-3"><path d="M21.61,68.79c-.17.37-.39.79-.65,1.26s-.54,1-.84,1.44-.6,1-.9,1.43l-.85,1.25L16,73c.27-.36.56-.76.87-1.21s.61-.9.89-1.36.55-.92.79-1.36.44-.84.59-1.18Zm4-1.84v4.12a4.05,4.05,0,0,1-.14,1.17A1.61,1.61,0,0,1,25,73a2.25,2.25,0,0,1-.81.45c-.33.12-.73.23-1.21.35l-1.17.28L21,71.46l.9-.21a2.37,2.37,0,0,0,.72-.28c.14-.09.2-.27.2-.55v-3.1l-5.59.73.58-7.74c.62-.08,1.28-.17,2-.28l2.11-.34L24,59.3l2.06-.41c.66-.14,1.29-.27,1.87-.41l1.57-.39.55,2.63L28,61.19l-2.42.51-2.6.49-2.57.45-.18,2.55,2.58-.35V62.63l2.79-.3v2.15l4.92-.65V66.3Zm2.71-.23c.18.2.39.46.65.79s.54.69.83,1.08.58.79.87,1.2.53.81.76,1.18l-2.36,1.82c-.18-.35-.4-.74-.65-1.16s-.51-.83-.79-1.23l-.81-1.14c-.27-.36-.51-.67-.73-.91Z"/><path d="M47.14,61.9v2.21L32.49,66V63.83l3.27-.43.25-1-2.39.32V60.85l2.84-.37.21-.88-3.4.45v-2.2l13.09-1.72v2.2l-6.85.9-.22.87,6-.78-.15,2.85Zm-13.2,4.67L45.69,65v5.63L33.94,72.2Zm2.59,3.09L43,68.81V67.53l-6.44.84ZM38.61,63l3.87-.51.07-.95-3.71.49Z"/><path d="M53.82,64.55c-.17.37-.39.79-.65,1.26s-.54,1-.84,1.44-.6,1-.9,1.42-.59.88-.85,1.25L48.24,68.8c.27-.36.56-.76.87-1.21s.61-.9.9-1.36.55-.92.79-1.36.43-.84.58-1.18Zm4-1.84v4.12A4.1,4.1,0,0,1,57.67,68a1.61,1.61,0,0,1-.45.73,2.27,2.27,0,0,1-.8.45c-.33.12-.74.23-1.21.35L54,69.81l-.83-2.59.9-.21a2.41,2.41,0,0,0,.72-.28.62.62,0,0,0,.21-.55v-3.1l-5.6.73L50,56.07c.61-.08,1.27-.17,2-.28l2.11-.34,2.14-.39,2.07-.41c.66-.14,1.28-.27,1.87-.41l1.56-.39.55,2.63L60.21,57l-2.42.51L55.2,58l-2.58.45-.18,2.54L55,60.6V58.39l2.78-.3v2.15l4.93-.65v2.47Zm2.72-.23c.17.2.39.46.65.79L62,64.35c.29.39.58.79.86,1.2s.54.8.76,1.18l-2.36,1.82c-.18-.36-.4-.74-.65-1.16s-.51-.83-.79-1.23S59.29,65.38,59,65s-.51-.67-.72-.91Z"/></g><line class="cls-2" x1="35.35" y1="128.01" x2="35.35" y2="102.59"/><path class="cls-2" d="M54,56.82S53.11,43.68,34.3,25.88L34.64,0"/><line class="cls-2" x1="28.44" y1="115.25" x2="42.98" y2="109.39"/><line class="cls-2" x1="28.44" y1="118.95" x2="42.98" y2="113.09"/><line class="cls-2" x1="28.44" y1="12.45" x2="42.98" y2="6.59"/><line class="cls-2" x1="28.44" y1="16.14" x2="42.98" y2="10.28"/></g></g></g></svg>