<svg xmlns="http://www.w3.org/2000/svg" viewBox="0 0 83.54 128"><defs><style>.cls-1{fill:none;stroke:#333;stroke-linejoin:round;}.cls-2{opacity:0.16;}</style></defs><title>1-096</title><g id="图层_2" data-name="图层 2"><g id="_1-092_1-106" data-name="1-092——1-106"><g id="_1-096" data-name="1-096"><line class="cls-1" x1="45.77" y1="43.72" x2="83.54" y2="43.83"/><line class="cls-1" x1="56.11" y1="48.8" x2="62.06" y2="37.83"/><line class="cls-1" x1="62.06" y1="49.26" x2="68" y2="38.29"/><line class="cls-1" x1="45.77" y1="74.55" x2="83.54" y2="74.67"/><line class="cls-1" x1="56.11" y1="79.64" x2="62.06" y2="68.67"/><line class="cls-1" x1="62.06" y1="80.1" x2="68" y2="69.12"/><circle class="cls-1" cx="23.13" cy="43.55" r="22.63"/><circle class="cls-1" cx="23.2" cy="74.38" r="22.63"/><g class="cls-2"><path d="M23.8,68.79c-.17.37-.39.79-.65,1.25s-.54.95-.84,1.44-.6,1-.9,1.43-.59.88-.85,1.25L18.22,73c.27-.37.56-.77.87-1.22s.61-.9.9-1.36.55-.91.78-1.36.44-.83.59-1.18Zm4-1.85v4.12a4.05,4.05,0,0,1-.14,1.17,1.56,1.56,0,0,1-.45.73,2.37,2.37,0,0,1-.8.46c-.34.11-.74.23-1.22.34L24,74.05l-.83-2.59.9-.22A2.59,2.59,0,0,0,24.8,71a.63.63,0,0,0,.2-.55V67.31l-5.59.74L20,60.31c.62-.08,1.28-.18,2-.29s1.4-.22,2.11-.34l2.14-.39c.71-.13,1.4-.27,2.06-.41s1.29-.27,1.88-.41,1.1-.26,1.56-.39l.55,2.63-2.07.48c-.77.17-1.57.34-2.42.5l-2.6.49-2.57.45-.18,2.55L25,64.84V62.63l2.79-.31v2.15l4.93-.65v2.47Zm2.71-.22c.18.19.39.45.65.78s.54.69.83,1.08.58.79.87,1.2.53.81.76,1.18l-2.36,1.82c-.18-.35-.4-.74-.65-1.15s-.51-.83-.79-1.24-.55-.78-.81-1.14-.51-.66-.73-.91Z"/><path d="M49.33,61.9v2.21L34.68,66V63.82L38,63.39l.25-1-2.39.31V60.84l2.84-.37.22-.87-3.4.44V57.85l13.08-1.73v2.2l-6.85.9-.21.88,6-.79-.14,2.85Zm-13.2,4.66L47.88,65v5.63L36.13,72.19Zm2.59,3.09,6.44-.84V67.52l-6.44.85ZM40.8,63l3.87-.51.07-.95L41,62.05Z"/><path d="M56,64.55c-.17.37-.39.79-.65,1.25s-.54,1-.84,1.44-.59,1-.9,1.43-.58.88-.84,1.25l-2.35-1.13c.27-.36.56-.76.87-1.21s.61-.9.9-1.36.55-.91.79-1.36.43-.83.58-1.18Zm4-1.85v4.12A4.05,4.05,0,0,1,59.86,68a1.56,1.56,0,0,1-.45.73,2.12,2.12,0,0,1-.8.45c-.33.12-.74.23-1.21.35l-1.18.29-.82-2.6.89-.21a2.17,2.17,0,0,0,.72-.28.6.6,0,0,0,.21-.54V63.07l-5.6.74.59-7.74,2-.29c.69-.1,1.39-.22,2.1-.34s1.43-.25,2.14-.39,1.41-.27,2.07-.41,1.28-.27,1.87-.41,1.1-.26,1.56-.39l.55,2.63L62.4,57c-.77.17-1.57.34-2.42.5s-1.71.33-2.59.49l-2.58.45-.18,2.55,2.59-.34V58.38l2.78-.3v2.15l4.93-.65v2.47Zm2.72-.22c.17.19.39.45.65.78l.83,1.08c.29.39.58.79.86,1.2s.54.81.76,1.18l-2.36,1.82c-.18-.35-.4-.74-.65-1.16s-.51-.82-.78-1.23-.55-.78-.82-1.14-.51-.66-.72-.91Z"/></g><line class="cls-1" x1="23.2" x2="23.2" y2="128"/></g></g></g></svg>