<svg xmlns="http://www.w3.org/2000/svg" viewBox="0 0 60.14 129"><defs><style>.cls-1{fill:none;stroke:#333;stroke-linejoin:round;}.cls-2{opacity:0.16;}</style></defs><title>1-094</title><g id="图层_2" data-name="图层 2"><g id="_1-092_1-106" data-name="1-092——1-106"><g id="_1-094" data-name="1-094"><line class="cls-1" x1="33.01" y1="43.31" x2="60.14" y2="43.39"/><line class="cls-1" x1="40.44" y1="46.96" x2="44.71" y2="39.09"/><line class="cls-1" x1="44.71" y1="47.29" x2="48.98" y2="39.41"/><line class="cls-1" x1="33.01" y1="87.78" x2="60.14" y2="87.87"/><line class="cls-1" x1="40.44" y1="91.44" x2="44.71" y2="83.56"/><line class="cls-1" x1="44.71" y1="91.77" x2="48.98" y2="83.89"/><circle class="cls-1" cx="16.76" cy="43.19" r="16.26"/><circle class="cls-1" cx="16.8" cy="87.66" r="16.26"/><g class="cls-2"><path d="M12.1,69.29c-.17.37-.39.79-.65,1.25s-.54.95-.84,1.44-.6,1-.9,1.43-.59.88-.85,1.25L6.52,73.54c.27-.37.56-.77.87-1.22s.61-.9.89-1.36.55-.91.79-1.36.44-.83.59-1.18Zm4-1.85v4.12A4.05,4.05,0,0,1,16,72.73a1.56,1.56,0,0,1-.45.73,2.42,2.42,0,0,1-.81.46c-.33.11-.73.23-1.21.34l-1.17.29L11.48,72l.9-.22a2.73,2.73,0,0,0,.72-.27.63.63,0,0,0,.2-.55V67.81l-5.59.74.58-7.74c.62-.08,1.28-.18,2-.29s1.4-.22,2.11-.34l2.14-.39c.71-.13,1.4-.27,2.06-.41s1.29-.27,1.87-.41,1.11-.26,1.57-.39l.55,2.63-2.07.48c-.77.17-1.58.34-2.42.5l-2.6.49-2.57.45-.18,2.55,2.58-.34V63.13l2.79-.31V65L21,64.32v2.47Zm2.71-.22c.18.19.39.45.65.78s.54.69.83,1.08.58.79.87,1.2.53.81.76,1.18l-2.36,1.82c-.18-.35-.4-.74-.65-1.15s-.51-.83-.79-1.24l-.81-1.14c-.27-.36-.51-.66-.73-.91Z"/><path d="M37.63,62.4v2.21L23,66.54V64.32l3.27-.43.25-1-2.39.31V61.34L27,61l.21-.87-3.4.44V58.35l13.09-1.73v2.2l-6.85.9-.22.88,6-.79-.15,2.85Zm-13.2,4.66,11.75-1.55v5.63L24.43,72.69ZM27,70.15l6.44-.84V68L27,68.87Zm2.08-6.63L33,63l.07-.95-3.71.49Z"/><path d="M44.31,65.05c-.17.37-.39.79-.65,1.25s-.54,1-.84,1.44-.6,1-.9,1.43-.59.88-.85,1.25l-2.34-1.13c.27-.36.56-.76.87-1.21s.61-.9.9-1.36.55-.91.79-1.36.43-.83.58-1.18Zm4-1.85v4.12a4.05,4.05,0,0,1-.14,1.17,1.56,1.56,0,0,1-.45.73,2.12,2.12,0,0,1-.8.45c-.33.12-.74.23-1.21.35l-1.18.29-.83-2.6.9-.21a2.17,2.17,0,0,0,.72-.28.6.6,0,0,0,.21-.54V63.57l-5.6.74.59-7.74c.61-.08,1.27-.18,2-.29s1.4-.22,2.11-.34l2.14-.39c.72-.13,1.41-.27,2.07-.41s1.28-.27,1.87-.41,1.1-.26,1.56-.39L52.77,57l-2.07.48c-.77.17-1.57.34-2.42.5s-1.71.33-2.59.49l-2.58.45-.18,2.55,2.59-.34V58.88l2.78-.3v2.15l4.93-.65v2.47ZM51,63c.17.19.39.45.65.78l.83,1.08c.29.39.58.79.86,1.2s.54.81.76,1.18L51.76,69c-.18-.35-.4-.74-.65-1.16s-.51-.82-.79-1.23-.54-.78-.81-1.14-.51-.66-.72-.91Z"/></g><circle class="cls-1" cx="16.8" cy="123.43" r="5.07"/><circle class="cls-1" cx="16.8" cy="5.57" r="5.07"/><polyline class="cls-1" points="16.8 118.29 16.8 103.92 16.8 71.41 16.8 59.45 16.8 26.93 16.8 10.63"/></g></g></g></svg>