<svg xmlns="http://www.w3.org/2000/svg" viewBox="0 0 71.77 128"><defs><style>.cls-1{fill:none;stroke:#333;stroke-linejoin:round;}.cls-2{opacity:0.16;}.cls-3{font-size:24px;fill:#333;font-family:MiSans-ExtraLight, MiSans;font-weight:200;}</style></defs><title>1-098</title><g id="图层_2" data-name="图层 2"><g id="_1-092_1-106" data-name="1-092——1-106"><g id="_1-098" data-name="1-098"><line class="cls-1" x1="39.38" y1="73.42" x2="71.77" y2="73.52"/><line class="cls-1" x1="48.21" y1="77.79" x2="53.31" y2="68.37"/><line class="cls-1" x1="53.31" y1="78.18" x2="58.42" y2="68.76"/><circle class="cls-1" cx="19.94" cy="73.31" r="19.44"/><g class="cls-2"><path d="M17.91,68.79c-.17.37-.39.79-.65,1.25s-.54.95-.84,1.44-.59,1-.9,1.43-.58.88-.84,1.25L12.33,73c.27-.37.56-.77.87-1.22s.61-.9.9-1.36.55-.91.79-1.36.43-.83.58-1.18Zm4-1.85v4.12a4.05,4.05,0,0,1-.14,1.17,1.56,1.56,0,0,1-.45.73,2.28,2.28,0,0,1-.8.46c-.33.11-.74.23-1.21.34l-1.18.29-.83-2.59.9-.22a2.46,2.46,0,0,0,.72-.27.63.63,0,0,0,.21-.55V67.31l-5.6.74.59-7.74c.61-.08,1.27-.18,2-.29s1.4-.22,2.11-.34,1.43-.25,2.14-.39,1.41-.27,2.07-.41,1.28-.27,1.87-.41,1.1-.26,1.56-.39l.55,2.63-2.07.48c-.77.17-1.57.34-2.42.5s-1.71.33-2.59.49l-2.58.45-.18,2.55,2.59-.34V62.63l2.78-.31v2.15l4.93-.65v2.47Zm2.72-.22c.17.19.39.45.65.78l.83,1.08c.29.39.58.79.86,1.2s.54.81.76,1.18l-2.36,1.82c-.18-.35-.4-.74-.65-1.15s-.51-.83-.79-1.24-.54-.78-.81-1.14-.51-.66-.72-.91Z"/><path d="M43.44,61.9v2.21L28.8,66V63.82l3.27-.43.24-1-2.39.31V60.84l2.85-.37L33,59.6l-3.4.44V57.85l13.08-1.73v2.2l-6.85.9-.21.88,6-.79-.15,2.85Zm-13.2,4.66L42,65v5.63L30.24,72.19Zm2.59,3.09,6.44-.84V67.52l-6.44.85ZM34.91,63l3.88-.51.06-.95-3.71.49Z"/><path d="M50.13,64.55c-.18.37-.39.79-.65,1.25s-.54,1-.84,1.44-.6,1-.91,1.43-.58.88-.84,1.25l-2.34-1.13c.27-.36.56-.76.87-1.21s.6-.9.89-1.36.55-.91.79-1.36.43-.83.59-1.18Zm4-1.85v4.12A3.73,3.73,0,0,1,54,68a1.63,1.63,0,0,1-.44.73,2.25,2.25,0,0,1-.81.45c-.33.12-.73.23-1.21.35l-1.17.29-.83-2.6L50.4,67a2.35,2.35,0,0,0,.73-.28.62.62,0,0,0,.2-.54V63.07l-5.6.74.59-7.74c.62-.08,1.27-.18,2-.29s1.39-.22,2.1-.34,1.43-.25,2.14-.39,1.41-.27,2.07-.41,1.29-.27,1.87-.41S57.58,54,58,53.84l.56,2.63L56.51,57c-.76.17-1.57.34-2.41.5l-2.6.49-2.58.45-.18,2.55,2.59-.34V58.38l2.78-.3v2.15L59,59.58v2.47Zm2.72-.22c.17.19.39.45.65.78s.54.69.83,1.08.58.79.86,1.2.54.81.77,1.18l-2.36,1.82c-.19-.35-.4-.74-.65-1.16s-.52-.82-.79-1.23-.55-.78-.82-1.14-.5-.66-.72-.91Z"/></g><line class="cls-1" x1="19.94" x2="19.94" y2="128"/><line class="cls-1" x1="15.62" y1="73.42" x2="23.08" y2="65.57"/><text class="cls-3" transform="translate(21.93 79.96)">3</text></g></g></g></svg>