<svg xmlns="http://www.w3.org/2000/svg" viewBox="0 0 128 128"><defs><style>.cls-1{fill:none;stroke:#333;stroke-linejoin:round;}.cls-2{opacity:0.16;}.cls-3{fill:#333;}</style></defs><title>1-100</title><g id="图层_2" data-name="图层 2"><g id="_1-092_1-106" data-name="1-092——1-106"><g id="_1-100" data-name="1-100"><circle class="cls-1" cx="46.33" cy="61.24" r="19.31"/><line class="cls-1" x1="46.33" y1="3.99" x2="46.33" y2="117.16"/><line class="cls-1" x1="31.76" y1="14.7" x2="61.1" y2="30.07"/><line class="cls-1" x1="38.75" y1="69.19" x2="15.46" y2="101.79"/><line class="cls-1" x1="65.76" y1="61.27" x2="121.65" y2="61.27"/><g class="cls-2"><path d="M45.78,68.79c-.17.37-.39.79-.65,1.25s-.54.95-.84,1.44-.6,1-.9,1.43-.59.88-.85,1.25L40.2,73c.27-.37.56-.77.87-1.22s.61-.9.89-1.36.55-.91.79-1.36.44-.83.59-1.18Zm4-1.85v4.12a4.1,4.1,0,0,1-.13,1.17,1.74,1.74,0,0,1-.45.73,2.42,2.42,0,0,1-.81.46c-.33.11-.73.23-1.21.34L46,74.05l-.83-2.59.9-.22a2.73,2.73,0,0,0,.72-.27.65.65,0,0,0,.2-.55V67.31l-5.59.74L42,60.31c.62-.08,1.28-.18,2-.29s1.4-.22,2.11-.34l2.14-.39c.71-.13,1.4-.27,2.06-.41s1.29-.27,1.87-.41,1.11-.26,1.57-.39l.55,2.63-2.08.48c-.76.17-1.57.34-2.41.5l-2.6.49-2.58.45-.17,2.55L47,64.84V62.63l2.78-.31v2.15l4.93-.65v2.47Zm2.72-.22c.17.19.39.45.65.78s.54.69.83,1.08.58.79.86,1.2.54.81.77,1.18l-2.36,1.82c-.18-.35-.4-.74-.65-1.15s-.51-.83-.79-1.24L51,69.25c-.27-.36-.51-.66-.73-.91Z"/><path d="M71.3,61.9v2.21L56.66,66V63.82l3.27-.43.25-1-2.39.31V60.84l2.84-.37.21-.87-3.4.44V57.85l13.08-1.73v2.2l-6.85.9-.21.88,6-.79-.15,2.85ZM58.11,66.56,69.86,65v5.63L58.11,72.19Zm2.59,3.09,6.44-.84V67.52l-6.44.85ZM62.78,63l3.87-.51.07-.95L63,62.05Z"/><path d="M78,64.55c-.17.37-.39.79-.65,1.25s-.54,1-.84,1.44-.6,1-.9,1.43-.59.88-.85,1.25l-2.34-1.13c.27-.36.56-.76.87-1.21s.61-.9.9-1.36.55-.91.79-1.36.43-.83.58-1.18Zm4-1.85v4.12A4.05,4.05,0,0,1,81.84,68a1.56,1.56,0,0,1-.45.73,2.12,2.12,0,0,1-.8.45c-.33.12-.74.23-1.22.35l-1.17.29-.83-2.6.9-.21a2.17,2.17,0,0,0,.72-.28.6.6,0,0,0,.21-.54V63.07l-5.6.74.58-7.74c.62-.08,1.28-.18,2-.29s1.4-.22,2.11-.34l2.14-.39c.72-.13,1.4-.27,2.07-.41s1.28-.27,1.87-.41,1.1-.26,1.56-.39l.55,2.63L84.38,57c-.77.17-1.57.34-2.42.5s-1.71.33-2.59.49l-2.58.45-.18,2.55,2.59-.34V58.38l2.78-.3v2.15l4.93-.65v2.47Zm2.71-.22q.27.29.66.78l.83,1.08c.29.39.58.79.86,1.2s.53.81.76,1.18l-2.36,1.82c-.18-.35-.4-.74-.65-1.16s-.51-.82-.79-1.23-.54-.78-.81-1.14-.51-.66-.72-.91Z"/></g><line class="cls-1" x1="111.87" y1="43.11" x2="93.7" y2="80.37"/><path class="cls-3" d="M7.87,7.06a5.78,5.78,0,0,1-.33-1.88,5.25,5.25,0,0,1,.64-2.55A5,5,0,0,1,10.06.72,5.49,5.49,0,0,1,12.91,0a5.93,5.93,0,0,1,2.86.68A4.87,4.87,0,0,1,17.7,2.62a5.73,5.73,0,0,1,.68,2.83,5.73,5.73,0,0,1-1,3.33A6.51,6.51,0,0,1,14.76,11l-.43-.84A5,5,0,0,0,17.5,5.42a4.66,4.66,0,0,0-.58-2.31A4,4,0,0,0,15.3,1.52,5,5,0,0,0,12.91,1a4.63,4.63,0,0,0-2.36.6A4.2,4.2,0,0,0,8.93,3.18a4.43,4.43,0,0,0-.58,2.24A5.38,5.38,0,0,0,9.1,8.16l-.72.53L.89,2.11v8.5H0V.89H.84l7,6.21Z"/><path class="cls-3" d="M3.94,117.49a5.49,5.49,0,0,1,1.87-.34,5.26,5.26,0,0,1,2.55.65,4.9,4.9,0,0,1,1.91,1.87,5.55,5.55,0,0,1,.72,2.86,5.89,5.89,0,0,1-.68,2.85,4.81,4.81,0,0,1-1.93,1.94,5.9,5.9,0,0,1-2.84.68,5.67,5.67,0,0,1-3.33-1A6.49,6.49,0,0,1,0,124.38l.84-.44a5,5,0,0,0,4.73,3.17,4.65,4.65,0,0,0,2.31-.57,4.13,4.13,0,0,0,1.59-1.62,5,5,0,0,0,.56-2.39,4.69,4.69,0,0,0-.6-2.37,4.34,4.34,0,0,0-1.62-1.62A4.52,4.52,0,0,0,5.57,118a5.5,5.5,0,0,0-2.74.74L2.3,118l6.58-7.49H.38v-.88H10.1v.84l-6.21,7Z"/><path class="cls-3" d="M125.67,35H128v.88h-2.33v4.42h-1V35.89H116V35.1l8.43-12.84h1.22Zm-1-11.48L117.15,35h7.54Z"/></g></g></g></svg>