<svg xmlns="http://www.w3.org/2000/svg" viewBox="0 0 128.62 128.85"><defs><style>.cls-1{fill:none;stroke:#333;stroke-linejoin:round;}.cls-2{opacity:0.16;}</style></defs><title>1-108</title><g id="图层_2" data-name="图层 2"><g id="_1-108_1-116" data-name="1-108——1-116"><g id="_1-108" data-name="1-108"><path class="cls-1" d="M17.24,32.87S25.13-.56,41.8,27.66c19.35,32.75,30.51,0,30.51,0"/><rect class="cls-1" x="0.5" y="0.5" width="127.62" height="127.63"/><line class="cls-1" x1="128.12" y1="0.5" x2="0.88" y2="128.5"/><g class="cls-2"><path d="M46.09,69.29c-.18.37-.39.79-.65,1.25s-.54.95-.84,1.44-.6,1-.9,1.43-.59.88-.85,1.25l-2.34-1.12c.27-.37.56-.77.87-1.22s.61-.9.89-1.36.55-.91.79-1.36.44-.83.59-1.18Zm4-1.85v4.12a4.1,4.1,0,0,1-.13,1.17,1.74,1.74,0,0,1-.45.73,2.42,2.42,0,0,1-.81.46c-.33.11-.73.23-1.21.34l-1.17.29L45.47,72l.89-.22a2.69,2.69,0,0,0,.73-.27.65.65,0,0,0,.2-.55V67.81l-5.59.74.58-7.74c.62-.08,1.28-.18,2-.29s1.4-.22,2.11-.34l2.14-.39c.71-.13,1.4-.27,2.06-.41s1.29-.27,1.87-.41,1.11-.26,1.57-.39l.55,2.63-2.08.48c-.76.17-1.57.34-2.41.5l-2.6.49-2.58.45-.17,2.55,2.58-.34V63.13l2.78-.31V65L55,64.32v2.47Zm2.72-.22c.17.19.39.45.65.78s.54.69.83,1.08.58.79.86,1.2.54.81.77,1.18l-2.36,1.82c-.18-.35-.4-.74-.65-1.15s-.51-.83-.79-1.24l-.81-1.14c-.27-.36-.51-.66-.73-.91Z"/><path d="M71.61,62.4v2.21L57,66.54V64.32l3.27-.43.25-1-2.4.31V61.34L60.94,61l.21-.87-3.4.44V58.35l13.08-1.73v2.2l-6.85.9-.21.88,6-.79-.15,2.85ZM58.42,67.06l11.75-1.55v5.63L58.42,72.69ZM61,70.15l6.44-.84V68L61,68.87Zm2.08-6.63L67,63l.07-.95-3.71.49Z"/><path d="M78.3,65.05c-.17.37-.39.79-.65,1.25s-.54,1-.84,1.44-.6,1-.9,1.43-.59.88-.85,1.25l-2.34-1.13c.27-.36.56-.76.87-1.21s.61-.9.9-1.36.55-.91.79-1.36.43-.83.58-1.18Zm4-1.85v4.12a4.05,4.05,0,0,1-.14,1.17,1.56,1.56,0,0,1-.45.73,2.12,2.12,0,0,1-.8.45c-.33.12-.74.23-1.22.35l-1.17.29-.83-2.6.9-.21a2.26,2.26,0,0,0,.72-.28c.14-.09.2-.27.2-.54V63.57l-5.59.74.58-7.74c.62-.08,1.28-.18,2-.29s1.4-.22,2.11-.34l2.14-.39c.71-.13,1.4-.27,2.07-.41s1.28-.27,1.87-.41,1.1-.26,1.56-.39L86.76,57l-2.07.48c-.77.17-1.57.34-2.42.5l-2.59.49-2.58.45-.18,2.55,2.58-.34V58.88l2.79-.3v2.15l4.93-.65v2.47ZM85,63c.18.19.39.45.65.78s.54.69.83,1.08.58.79.87,1.2.53.81.76,1.18L85.75,69c-.18-.35-.4-.74-.65-1.16s-.51-.82-.79-1.23-.55-.78-.81-1.14-.51-.66-.72-.91Z"/></g><line class="cls-1" x1="60.41" y1="79.76" x2="88.69" y2="79.76"/><line class="cls-1" x1="98.36" y1="96.13" x2="125.52" y2="96.5"/><line class="cls-1" x1="60.41" y1="114.73" x2="88.69" y2="114.73"/><path class="cls-1" d="M81.57,88.69v14.19a7,7,0,0,1-7,7h0a7,7,0,0,1-7-7v-14"/></g></g></g></svg>