<svg xmlns="http://www.w3.org/2000/svg" viewBox="0 0 76.87 128"><defs><style>.cls-1{fill:#333;}.cls-2{fill:none;stroke:#333;stroke-linejoin:round;}.cls-3{opacity:0.16;}</style></defs><title>1-106</title><g id="图层_2" data-name="图层 2"><g id="_1-092_1-106" data-name="1-092——1-106"><g id="_1-106" data-name="1-106"><path class="cls-1" d="M.93,115.18V126.4H7.17v.88H0v-12.1Z"/><path class="cls-1" d="M11.55,127.28h-.94v-11l-2.4,1.31v-1l2.64-1.43h.7Z"/><path class="cls-1" d="M16.37,124.72a11.57,11.57,0,0,1,1.49,1.19,15.1,15.1,0,0,1,1.34,1.47l-.74.62a11.36,11.36,0,0,0-1.19-1.46,9.28,9.28,0,0,0-1.4-1.23Z"/><path class="cls-1" d="M31.66,115.18V126.4H37.9v.88H30.74v-12.1Z"/><path class="cls-1" d="M42.19,120.34a3.28,3.28,0,0,1,1-.13,3.61,3.61,0,0,1,1.71.42,3.33,3.33,0,0,1,1.29,1.24,3.75,3.75,0,0,1,.49,1.92,3.86,3.86,0,0,1-.48,1.95,3.24,3.24,0,0,1-1.32,1.3,4,4,0,0,1-2,.46,3.91,3.91,0,0,1-2.29-.68A4.06,4.06,0,0,1,39.15,125l.83-.34a3,3,0,0,0,3,2,2.65,2.65,0,0,0,2-.79,3.18,3.18,0,0,0,.39-3.55,2.51,2.51,0,0,0-1-1A2.94,2.94,0,0,0,42.9,121a3.14,3.14,0,0,0-1.64.45l-.51-.71,4.07-4.65h-5.4v-.87H46v.8l-3.86,4.31Z"/><circle class="cls-2" cx="36.33" cy="96.09" r="3.3"/><line class="cls-2" x1="36.33" y1="99.43" x2="36.33" y2="114.97"/><circle class="cls-2" cx="36.33" cy="45.03" r="10.22"/><circle class="cls-2" cx="36.23" cy="72.69" r="10.22"/><line class="cls-2" x1="36.33" y1="25.44" x2="36.33" y2="92.72"/><g class="cls-3"><path d="M20.21,68.79c-.17.37-.39.79-.65,1.25s-.54.95-.84,1.44-.6,1-.9,1.43-.58.88-.85,1.25L14.63,73c.27-.37.56-.77.87-1.22s.61-.9.9-1.36.55-.91.79-1.36.43-.83.58-1.18Zm4-1.85v4.12a4.05,4.05,0,0,1-.14,1.17,1.56,1.56,0,0,1-.45.73,2.28,2.28,0,0,1-.8.46c-.33.11-.74.23-1.21.34l-1.18.29-.83-2.59.9-.22a2.46,2.46,0,0,0,.72-.27.63.63,0,0,0,.21-.55V67.31l-5.6.74.59-7.74c.61-.08,1.27-.18,2-.29s1.4-.22,2.11-.34l2.14-.39c.72-.13,1.41-.27,2.07-.41s1.28-.27,1.87-.41,1.1-.26,1.56-.39l.55,2.63-2.07.48c-.77.17-1.57.34-2.42.5s-1.71.33-2.59.49L19,62.63l-.18,2.55,2.59-.34V62.63l2.78-.31v2.15l4.93-.65v2.47Zm2.72-.22c.17.19.39.45.65.78l.83,1.08c.29.39.58.79.86,1.2s.54.81.76,1.18l-2.36,1.82c-.18-.35-.4-.74-.65-1.15s-.51-.83-.79-1.24-.54-.78-.81-1.14-.51-.66-.72-.91Z"/><path d="M45.74,61.9v2.21L31.1,66V63.82l3.27-.43.24-1-2.39.31V60.84l2.85-.37.21-.87-3.4.44V57.85L45,56.12v2.2l-6.85.9-.21.88,6-.79-.14,2.85Zm-13.2,4.66L44.29,65v5.63L32.54,72.19Zm2.59,3.09,6.44-.84V67.52l-6.44.85ZM37.21,63l3.88-.51.06-.95-3.71.49Z"/><path d="M52.43,64.55c-.18.37-.39.79-.65,1.25s-.54,1-.84,1.44-.6,1-.91,1.43-.58.88-.84,1.25l-2.34-1.13c.27-.36.56-.76.87-1.21s.6-.9.89-1.36.55-.91.79-1.36.43-.83.59-1.18Zm4-1.85v4.12A3.73,3.73,0,0,1,56.27,68a1.63,1.63,0,0,1-.44.73,2.25,2.25,0,0,1-.81.45c-.33.12-.73.23-1.21.35l-1.17.29-.83-2.6L52.7,67a2.35,2.35,0,0,0,.73-.28.62.62,0,0,0,.2-.54V63.07l-5.6.74.59-7.74c.62-.08,1.27-.18,2-.29s1.39-.22,2.1-.34,1.43-.25,2.14-.39,1.41-.27,2.07-.41,1.29-.27,1.87-.41,1.11-.26,1.56-.39l.56,2.63L58.81,57c-.76.17-1.57.34-2.41.5l-2.6.49-2.58.45L51,60.94l2.59-.34V58.38l2.78-.3v2.15l4.93-.65v2.47Zm2.72-.22c.17.19.39.45.65.78s.54.69.83,1.08.58.79.86,1.2.54.81.77,1.18l-2.36,1.82c-.19-.35-.4-.74-.65-1.16s-.52-.82-.79-1.23-.55-.78-.82-1.14-.5-.66-.72-.91Z"/></g><line class="cls-2" x1="29.67" y1="5.64" x2="43.08" y2="12.67"/><line class="cls-2" x1="46.92" y1="73.15" x2="70.55" y2="73.15"/><line class="cls-2" x1="63.52" y1="66.61" x2="57.14" y2="79.69"/><line class="cls-2" x1="46.92" y1="45.03" x2="70.55" y2="45.03"/><line class="cls-2" x1="63.52" y1="38.49" x2="57.14" y2="51.57"/><path class="cls-1" d="M17,4.46a3.56,3.56,0,0,1-.13-1,3.62,3.62,0,0,1,.43-1.71A3.14,3.14,0,0,1,18.56.49,3.61,3.61,0,0,1,20.48,0a4,4,0,0,1,1.94.47A3.35,3.35,0,0,1,23.73,1.8a4,4,0,0,1,.46,1.94A4,4,0,0,1,23.51,6,4,4,0,0,1,21.66,7.5l-.33-.83a3,3,0,0,0,2-3,2.64,2.64,0,0,0-.8-2A2.81,2.81,0,0,0,20.48,1,3,3,0,0,0,19,1.32a2.44,2.44,0,0,0-1,1,2.9,2.9,0,0,0-.35,1.44,3.19,3.19,0,0,0,.44,1.63l-.7.51L12.73,1.84V7.23h-.86V.64h.8L17,4.5Z"/><path class="cls-1" d="M9.92,105.28h5.92v.86H8.69v-.8L12.5,101a14,14,0,0,0,1.7-2.28A3.54,3.54,0,0,0,14.7,97,2.18,2.18,0,0,0,14,95.3a2.5,2.5,0,0,0-1.76-.61,3,3,0,0,0-2.8,2l-.8-.38a4.17,4.17,0,0,1,1.44-1.85,3.74,3.74,0,0,1,2.18-.65,3.48,3.48,0,0,1,2.45.85,3,3,0,0,1,.92,2.27,4.46,4.46,0,0,1-.54,2,13,13,0,0,1-1.81,2.5Z"/><path class="cls-1" d="M72.4,34.9a3.69,3.69,0,0,1,1-.13,3.62,3.62,0,0,1,1.71.43,3.26,3.26,0,0,1,1.29,1.24,3.61,3.61,0,0,1,.49,1.92,4,4,0,0,1-.47,1.94,3.35,3.35,0,0,1-1.33,1.31,4,4,0,0,1-1.95.46,4,4,0,0,1-3.76-2.53l.84-.33a3,3,0,0,0,3,2,2.64,2.64,0,0,0,2-.8,2.85,2.85,0,0,0,.76-2,3,3,0,0,0-.36-1.49,2.51,2.51,0,0,0-1-1,2.9,2.9,0,0,0-1.44-.35,3.19,3.19,0,0,0-1.63.44l-.52-.7L75,30.61H69.64v-.86h6.59v.8l-3.86,4.3Z"/><path class="cls-1" d="M72.4,61.09a3.32,3.32,0,0,1,1-.13,3.61,3.61,0,0,1,1.71.42,3.41,3.41,0,0,1,1.29,1.24,3.66,3.66,0,0,1,.49,1.92,4,4,0,0,1-.47,1.95,3.33,3.33,0,0,1-1.33,1.3,4,4,0,0,1-1.95.47,4,4,0,0,1-2.28-.68,4,4,0,0,1-1.48-1.85l.84-.34a3,3,0,0,0,3,2,2.63,2.63,0,0,0,2-.79,2.88,2.88,0,0,0,.76-2.06,3,3,0,0,0-.36-1.48,2.6,2.6,0,0,0-1-1,3,3,0,0,0-1.44-.35,3.1,3.1,0,0,0-1.63.45l-.52-.7L75,56.8H69.64v-.86h6.59v.8L72.37,61Z"/><circle class="cls-2" cx="36.33" cy="21.61" r="3.3"/><line class="cls-2" x1="36.33" y1="18.31" x2="36.33"/><line class="cls-2" x1="31.38" y1="77.82" x2="17.86" y2="95.59"/></g></g></g></svg>