<svg xmlns="http://www.w3.org/2000/svg" viewBox="0 0 74.41 128"><defs><style>.cls-1{fill:none;stroke:#333;stroke-linejoin:round;}.cls-2{fill:#333;}.cls-3{opacity:0.16;}</style></defs><title>1-102</title><g id="图层_2" data-name="图层 2"><g id="_1-092_1-106" data-name="1-092——1-106"><g id="_1-102" data-name="1-102"><circle class="cls-1" cx="26.98" cy="107.86" r="4.54"/><line class="cls-1" x1="26.98" y1="112.46" x2="26.98" y2="128"/><circle class="cls-1" cx="26.98" cy="50.27" r="12.16"/><circle class="cls-1" cx="26.5" cy="79.84" r="11.51"/><line class="cls-1" x1="26.98" y1="28.15" x2="26.98" y2="103.32"/><line class="cls-1" x1="17.81" y1="5.43" x2="36.29" y2="15.1"/><line class="cls-1" x1="39.22" y1="50.27" x2="74.41" y2="50.27"/><line class="cls-1" x1="57.4" y1="42.52" x2="49.48" y2="58.06"/><line class="cls-1" x1="38.63" y1="79.91" x2="65.02" y2="79.91"/><line class="cls-1" x1="57.4" y1="72.16" x2="49.48" y2="87.7"/><path class="cls-2" d="M7.71,4.47a3.69,3.69,0,0,1-.13-1A3.62,3.62,0,0,1,8,1.78,3.14,3.14,0,0,1,9.25.49,3.61,3.61,0,0,1,11.17,0a4,4,0,0,1,1.94.47A3.35,3.35,0,0,1,14.42,1.8a4,4,0,0,1,.46,1.94A4,4,0,0,1,14.2,6,4,4,0,0,1,12.35,7.5L12,6.67a3,3,0,0,0,2-3,2.64,2.64,0,0,0-.8-2A2.81,2.81,0,0,0,11.17,1a3,3,0,0,0-1.49.36,2.44,2.44,0,0,0-1,1,2.9,2.9,0,0,0-.35,1.44,3.19,3.19,0,0,0,.44,1.63l-.7.51L3.42,1.84V7.23H2.56V.64h.8L7.66,4.5Z"/><path class="cls-2" d="M3,116.39a3.65,3.65,0,0,1,1-.12,3.66,3.66,0,0,1,1.71.42A3.26,3.26,0,0,1,7,117.93a3.7,3.7,0,0,1,.48,1.92A3.82,3.82,0,0,1,7,121.79,3.29,3.29,0,0,1,5.7,123.1a4,4,0,0,1-1.94.46,4,4,0,0,1-2.29-.68A4,4,0,0,1,0,121l.83-.33a3,3,0,0,0,3,2,2.65,2.65,0,0,0,2-.79,2.85,2.85,0,0,0,.76-2.06,3,3,0,0,0-.36-1.49,2.44,2.44,0,0,0-1-1A2.85,2.85,0,0,0,3.74,117a3.13,3.13,0,0,0-1.63.45l-.51-.71,4.06-4.65H.27v-.87H6.86v.8L3,116.35Z"/><path class="cls-2" d="M68.31,41h1.54v.84H68.31v2.87h-.93V41.88H61.69v-.73l5.36-8.5h1.26Zm-.93-7.27L62.79,41h4.59Z"/><path class="cls-2" d="M68.31,69.77h1.54v.85H68.31v2.86h-.93V70.62H61.69v-.74l5.36-8.49h1.26Zm-.93-7.26-4.59,7.26h4.59Z"/><circle class="cls-1" cx="26.98" cy="23.61" r="4.54"/><line class="cls-1" x1="26.98" y1="19.01" x2="26.98"/><line class="cls-1" x1="21.62" y1="86.07" x2="6.96" y2="106.6"/><g class="cls-3"><path d="M19,68.79c-.17.37-.39.79-.65,1.25s-.54.95-.84,1.44-.6,1-.9,1.43-.58.88-.85,1.25L13.4,73c.27-.37.56-.77.87-1.22s.61-.9.9-1.36.55-.91.79-1.36.43-.83.58-1.18Zm4-1.85v4.12a4.05,4.05,0,0,1-.14,1.17,1.56,1.56,0,0,1-.45.73,2.28,2.28,0,0,1-.8.46c-.33.11-.74.23-1.21.34l-1.18.29-.83-2.59.9-.22A2.46,2.46,0,0,0,20,71a.63.63,0,0,0,.21-.55V67.31l-5.6.74.59-7.74c.61-.08,1.27-.18,2-.29s1.4-.22,2.11-.34l2.14-.39c.72-.13,1.41-.27,2.07-.41s1.28-.27,1.87-.41,1.1-.26,1.56-.39l.55,2.63-2.07.48c-.77.17-1.57.34-2.42.5s-1.71.33-2.59.49l-2.58.45-.18,2.55,2.59-.34V62.63L23,62.32v2.15l4.93-.65v2.47Zm2.72-.22c.17.19.39.45.65.78l.83,1.08c.29.39.58.79.86,1.2s.54.81.76,1.18l-2.36,1.82c-.18-.35-.4-.74-.65-1.15s-.51-.83-.79-1.24-.54-.78-.81-1.14-.51-.66-.72-.91Z"/><path d="M44.51,61.9v2.21L29.87,66V63.82l3.27-.43.24-1L31,62.73V60.84l2.85-.37.21-.87-3.4.44V57.85l13.08-1.72v2.19l-6.85.9-.21.88,6-.79-.14,2.85Zm-13.2,4.66L43.06,65v5.63L31.31,72.19Zm2.59,3.09,6.44-.84V67.52l-6.44.85ZM36,63l3.88-.51.06-.95-3.71.49Z"/><path d="M51.2,64.55c-.18.37-.39.79-.65,1.25s-.54,1-.84,1.44-.6,1-.91,1.43-.58.88-.84,1.25l-2.34-1.13c.27-.36.56-.76.87-1.21s.6-.9.89-1.36.55-.91.79-1.36.43-.83.59-1.18Zm4-1.85v4.12A3.73,3.73,0,0,1,55,68a1.63,1.63,0,0,1-.44.73,2.42,2.42,0,0,1-.81.46c-.33.11-.73.22-1.21.34l-1.17.29-.83-2.6.89-.21a2.69,2.69,0,0,0,.73-.27.65.65,0,0,0,.2-.55V63.07l-5.6.74.59-7.74c.62-.08,1.27-.18,2-.29s1.39-.22,2.1-.34,1.43-.25,2.14-.39,1.41-.27,2.07-.41,1.29-.27,1.87-.41,1.11-.26,1.56-.39l.56,2.63L57.58,57c-.76.17-1.57.34-2.41.5l-2.6.49L50,58.39l-.18,2.55,2.59-.34V58.38l2.78-.3v2.15l4.93-.65v2.47Zm2.72-.22c.17.19.39.45.65.78s.54.69.83,1.08.58.79.86,1.2.54.81.77,1.18l-2.36,1.82c-.19-.35-.4-.74-.65-1.16s-.52-.82-.79-1.23-.55-.78-.82-1.14-.5-.66-.72-.91Z"/></g></g></g></g></svg>