<svg xmlns="http://www.w3.org/2000/svg" viewBox="0 0 128.85 91.93"><defs><style>.cls-1,.cls-4{fill:#333;}.cls-1,.cls-2{stroke:#333;stroke-linejoin:round;}.cls-2{fill:none;}.cls-3{opacity:0.16;}</style></defs><title>1-115</title><g id="图层_2" data-name="图层 2"><g id="_1-108_1-116" data-name="1-108——1-116"><g id="_1-115" data-name="1-115"><polygon class="cls-1" points="30.5 66.53 22.97 53.66 17.05 60.1 30.5 66.53"/><line class="cls-2" x1="11" y1="47.62" x2="25.72" y2="61.89"/><polygon class="cls-1" points="19.86 77.17 12.32 64.31 6.4 70.75 19.86 77.17"/><line class="cls-2" x1="0.35" y1="58.27" x2="15.07" y2="72.54"/><rect class="cls-2" x="39.54" y="0.5" width="88.81" height="90.93"/><g class="cls-3"><path d="M46.13,50.75c-.18.37-.39.79-.65,1.26s-.54.94-.84,1.43-.6,1-.91,1.43-.58.88-.84,1.25L40.55,55c.27-.36.56-.77.87-1.21s.6-.9.89-1.36.55-.92.79-1.36.43-.84.59-1.19Zm4-1.84V53A3.84,3.84,0,0,1,50,54.2a1.65,1.65,0,0,1-.44.72,2.42,2.42,0,0,1-.81.46c-.33.11-.73.23-1.21.35L46.34,56l-.83-2.59.89-.22a2.69,2.69,0,0,0,.73-.27.64.64,0,0,0,.2-.55V49.27l-5.6.74.59-7.74c.62-.08,1.27-.17,2-.28l2.1-.34c.72-.12,1.43-.25,2.14-.39l2.07-.41c.66-.14,1.29-.27,1.87-.41L54,40.05l.56,2.62-2.08.48c-.76.17-1.57.34-2.41.5l-2.6.49-2.58.46-.18,2.54,2.59-.34V44.59l2.78-.3v2.15L55,45.79v2.47Zm2.72-.23c.17.2.39.46.65.79s.54.68.83,1.07.58.8.86,1.21.54.8.77,1.17l-2.36,1.83c-.19-.36-.4-.74-.65-1.16s-.52-.83-.79-1.23-.55-.79-.82-1.15a10.07,10.07,0,0,0-.72-.9Z"/><path d="M71.65,43.86v2.21L57,48V45.79l3.27-.43.24-1-2.39.32V42.81L61,42.43l.21-.87-3.4.45v-2.2l13.08-1.72v2.2l-6.85.9-.21.87,6-.79-.15,2.85ZM58.46,48.53,70.21,47v5.63L58.46,54.15Zm2.59,3.09,6.44-.85V49.48l-6.44.85ZM63.13,45,67,44.47l.07-.95L63.36,44Z"/><path d="M78.34,46.51c-.17.37-.39.79-.65,1.26s-.54.94-.84,1.43-.6,1-.9,1.43-.59.88-.85,1.25l-2.34-1.12c.27-.36.56-.77.87-1.21s.61-.91.89-1.37.55-.91.79-1.35.44-.84.59-1.19Zm4-1.84v4.11A4.18,4.18,0,0,1,82.19,50a1.58,1.58,0,0,1-.45.72,2.33,2.33,0,0,1-.81.46c-.33.11-.73.23-1.21.35l-1.17.28-.83-2.59.9-.22a2.73,2.73,0,0,0,.72-.27.63.63,0,0,0,.2-.55V45L74,45.77,74.53,38l2-.28c.7-.11,1.4-.22,2.11-.35L80.75,37l2.06-.41,1.87-.41,1.57-.39.55,2.62-2.07.48c-.77.17-1.57.34-2.42.5l-2.6.49-2.57.46L77,42.9l2.58-.34V40.35l2.79-.3v2.14l4.92-.64V44ZM85,44.44c.18.19.39.46.65.78s.54.69.83,1.08.58.79.87,1.21.53.8.76,1.17l-2.36,1.83c-.18-.36-.4-.74-.65-1.16s-.51-.83-.79-1.23L83.54,47c-.27-.36-.51-.66-.73-.9Z"/></g><line class="cls-2" x1="81.88" y1="52.43" x2="81.88" y2="71.57"/><line class="cls-2" x1="65.68" y1="62.11" x2="81.88" y2="62.11"/><line class="cls-2" x1="88.32" y1="44.22" x2="88.32" y2="80.62"/><line class="cls-2" x1="88.53" y1="62.11" x2="102.21" y2="62.11"/><path class="cls-4" d="M81.8,16.83a6.51,6.51,0,0,0-2.46,2.94,10.67,10.67,0,0,0-.87,4.47,11.05,11.05,0,0,0,.84,4.48,6.65,6.65,0,0,0,2.41,2.94,6.52,6.52,0,0,0,3.67,1,7.07,7.07,0,0,0,5.35-2.5v-5H86.15v-.93H91.7v6.26a8.25,8.25,0,0,1-6.31,3.07,7.64,7.64,0,0,1-4.21-1.14,7.37,7.37,0,0,1-2.73-3.25,11.91,11.91,0,0,1-1-5,11.78,11.78,0,0,1,1-5A7.5,7.5,0,0,1,81.27,16a7.84,7.84,0,0,1,4.26-1.14,7.1,7.1,0,0,1,3.15.71,6.8,6.8,0,0,1,2.44,2l-.74.6a6.08,6.08,0,0,0-4.85-2.38A6.68,6.68,0,0,0,81.8,16.83Z"/></g></g></g></svg>