<svg xmlns="http://www.w3.org/2000/svg" viewBox="0 0 128 46.45"><defs><style>.cls-1{fill:#333;}.cls-2{opacity:0.16;}.cls-3{fill:none;stroke:#333;stroke-linejoin:round;}</style></defs><title>1-125</title><g id="图层_2" data-name="图层 2"><g id="_1-117_1-125" data-name="1-117——1-125"><g id="_1-125" data-name="1-125"><path class="cls-1" d="M52.25,46.45,42.06,8.8h1.16l9.64,35.74H53L63.3,8.8h1.4L75,44.54h.1L84.78,8.8h1.16L75.7,46.45H74.44L64.05,10.51H64L53.51,46.45Z"/><g class="cls-2"><path d="M45.78,28.19c-.17.37-.39.79-.65,1.26s-.54.95-.84,1.43-.6,1-.9,1.43-.59.88-.85,1.25L40.2,32.44c.27-.36.56-.76.87-1.21s.61-.9.89-1.36.55-.92.79-1.36.44-.84.59-1.18Zm4-1.84v4.11a4.23,4.23,0,0,1-.13,1.18,1.81,1.81,0,0,1-.45.73,2.41,2.41,0,0,1-.81.45c-.33.11-.73.23-1.21.35L46,33.45l-.83-2.59.9-.22a2.41,2.41,0,0,0,.72-.27.64.64,0,0,0,.2-.55V26.71l-5.59.74L42,19.71c.62-.08,1.28-.17,2-.28l2.11-.34,2.14-.39,2.06-.41c.66-.14,1.29-.27,1.87-.41l1.57-.39.55,2.63-2.08.47-2.41.51-2.6.48L44.57,22l-.17,2.54L47,24.24V22l2.78-.3v2.15l4.93-.65V25.7Zm2.72-.23c.17.2.39.46.65.79L54,28c.29.39.58.8.86,1.21s.54.8.77,1.18l-2.36,1.82c-.18-.36-.4-.74-.65-1.16s-.51-.83-.79-1.23L51,28.65c-.27-.36-.51-.66-.73-.9Z"/><path d="M71.3,21.3v2.21L56.66,25.44V23.23l3.27-.43.25-1-2.39.32V20.25l2.84-.38.21-.87-3.4.45v-2.2l13.08-1.72v2.2l-6.85.9-.21.87,6-.79-.15,2.85ZM58.11,26l11.75-1.55v5.63L58.11,31.6Zm2.59,3.09,6.44-.85V26.92l-6.44.85Zm2.08-6.64,3.87-.51.07-.95L63,21.45Z"/><path d="M78,24c-.17.37-.39.79-.65,1.26s-.54.94-.84,1.43-.6,1-.9,1.43-.59.88-.85,1.25L72.41,28.2c.27-.36.56-.77.87-1.21s.61-.9.9-1.37.55-.91.79-1.35.43-.84.58-1.19Zm4-1.84v4.11a4.18,4.18,0,0,1-.14,1.18,1.58,1.58,0,0,1-.45.72,2.28,2.28,0,0,1-.8.46c-.33.11-.74.23-1.22.35l-1.17.28-.83-2.59.9-.22a2.46,2.46,0,0,0,.72-.27.63.63,0,0,0,.21-.55V22.47l-5.6.74.58-7.74c.62-.08,1.28-.17,2-.28s1.4-.22,2.11-.35,1.42-.24,2.14-.38l2.07-.41c.66-.14,1.28-.27,1.87-.41l1.56-.39.55,2.62-2.07.48c-.77.17-1.57.34-2.42.5s-1.71.33-2.59.49l-2.58.46-.18,2.54L79.2,20V17.79l2.78-.3v2.15L86.91,19v2.47Zm2.71-.23c.18.2.4.46.66.79s.53.68.83,1.07.58.8.86,1.21.53.8.76,1.17L85.44,28c-.18-.36-.4-.74-.65-1.16S84.28,26,84,25.56s-.54-.79-.81-1.15-.51-.66-.72-.9Z"/></g><line class="cls-3" x1="95.25" y1="0.36" x2="109.75" y2="14.47"/><line class="cls-3" x1="111.28" y1="7.51" x2="93.71" y2="7.51"/><line class="cls-3" x1="109.75" y1="0.36" x2="95.44" y2="14.66"/><line class="cls-3" y1="27.63" x2="128" y2="27.63"/></g></g></g></svg>