<svg xmlns="http://www.w3.org/2000/svg" viewBox="0 0 47.6 128.01"><defs><style>.cls-1{fill:#333;}.cls-1,.cls-2{stroke:#333;stroke-linejoin:round;}.cls-2{fill:none;}.cls-3{opacity:0.16;}</style></defs><title>1-135</title><g id="图层_2" data-name="图层 2"><g id="_1-135_1-143" data-name="1-135——1-143"><g id="_1-135" data-name="1-135"><polygon class="cls-1" points="23.8 60.9 29.54 42.2 18.07 42.2 23.8 60.9"/><line class="cls-2" x1="23.59" x2="24.01" y2="44.23"/><g class="cls-3"><path d="M5.58,68.79c-.17.37-.39.79-.65,1.26s-.54,1-.84,1.44-.6,1-.9,1.42-.59.88-.85,1.25L0,73c.27-.36.56-.76.87-1.21s.61-.9.9-1.36.55-.92.78-1.36.44-.84.59-1.18Zm4-1.84v4.11a4.18,4.18,0,0,1-.14,1.18A1.61,1.61,0,0,1,9,73a2.36,2.36,0,0,1-.8.45c-.34.11-.74.23-1.22.35l-1.17.28L5,71.46l.9-.22A2.3,2.3,0,0,0,6.58,71a.61.61,0,0,0,.2-.55V67.31l-5.59.74.58-7.74c.62-.08,1.28-.17,2-.28l2.11-.34L8,59.3l2.06-.41c.67-.14,1.29-.27,1.88-.41l1.56-.39L14,60.72,12,61.19l-2.42.51L7,62.18l-2.58.46L4.2,65.18l2.58-.34V62.63l2.79-.3v2.15l4.93-.65V66.3Zm2.71-.23c.18.2.39.46.65.79l.83,1.07c.3.39.58.8.87,1.21s.53.8.76,1.18L13,72.79c-.18-.36-.4-.74-.65-1.16s-.51-.83-.79-1.23-.55-.78-.81-1.15-.51-.66-.73-.9Z"/><path d="M31.11,61.9v2.21L16.46,66V63.83l3.27-.43.25-1-2.39.32V60.85l2.84-.38.22-.87-3.4.45v-2.2l13.08-1.72v2.2l-6.85.9-.21.87,6-.79-.14,2.85Zm-13.2,4.67L29.66,65v5.63L17.91,72.2Zm2.59,3.09,6.44-.85V67.52l-6.44.85ZM22.58,63l3.87-.51.07-.95-3.71.49Z"/><path d="M37.79,64.55c-.17.37-.39.79-.65,1.26s-.54.94-.84,1.43-.59,1-.9,1.43-.58.88-.84,1.25L32.21,68.8c.27-.36.56-.77.87-1.21s.61-.9.9-1.36.55-.92.79-1.36.43-.84.58-1.19Zm4-1.84v4.11A4.18,4.18,0,0,1,41.64,68a1.58,1.58,0,0,1-.45.72,2.28,2.28,0,0,1-.8.46c-.33.11-.74.23-1.21.35L38,69.81l-.82-2.59.89-.22a2.46,2.46,0,0,0,.72-.27.62.62,0,0,0,.21-.55V63.07l-5.6.74L34,56.07c.61-.08,1.27-.17,2-.28s1.39-.22,2.1-.35,1.43-.24,2.14-.38l2.07-.41c.66-.14,1.28-.27,1.87-.41l1.56-.39.55,2.62L44.18,57c-.77.17-1.57.34-2.42.5s-1.71.33-2.59.49l-2.58.46-.18,2.54L39,60.6V58.39l2.78-.3v2.15l4.93-.65v2.47Zm2.72-.23c.17.2.39.46.65.79s.53.68.83,1.07.58.8.86,1.21.54.8.76,1.17l-2.35,1.83c-.19-.36-.41-.74-.66-1.16s-.51-.83-.78-1.23S43.26,65.37,43,65s-.51-.66-.72-.9Z"/></g><polygon class="cls-1" points="23.8 67.11 29.54 85.81 18.07 85.81 23.8 67.11"/><line class="cls-2" x1="23.59" y1="128" x2="24.01" y2="83.78"/></g></g></g></svg>