<svg xmlns="http://www.w3.org/2000/svg" viewBox="0 0 67.04 128"><defs><style>.cls-1{fill:none;stroke:#333;stroke-linejoin:round;}.cls-2{opacity:0.16;}</style></defs><title>1-134</title><g id="图层_2" data-name="图层 2"><g id="_1-126_1-134" data-name="1-126——1-134"><g id="_1-134" data-name="1-134"><line class="cls-1" x1="16.32" y1="64" x2="36.12" y2="64"/><g class="cls-2"><path d="M15.55,68.79c-.18.37-.39.79-.65,1.25s-.54.95-.84,1.44-.6,1-.91,1.43-.58.88-.84,1.25L10,73c.27-.37.56-.77.87-1.22s.6-.9.89-1.36.55-.91.79-1.36.43-.83.59-1.18Zm4-1.85v4.12a3.73,3.73,0,0,1-.14,1.17A1.63,1.63,0,0,1,19,73a2.42,2.42,0,0,1-.81.46c-.33.11-.73.23-1.21.34l-1.17.29-.83-2.59.89-.22a2.69,2.69,0,0,0,.73-.27.65.65,0,0,0,.2-.55V67.31l-5.6.74.59-7.74c.62-.08,1.27-.18,2-.29s1.39-.22,2.1-.34,1.43-.25,2.14-.39S19.36,59,20,58.88s1.29-.27,1.87-.41,1.11-.26,1.56-.39L24,60.71l-2.08.48c-.76.17-1.57.34-2.41.5l-2.6.49-2.58.45-.18,2.55,2.59-.34V62.63l2.78-.31v2.15l4.93-.65v2.47Zm2.72-.22c.17.19.39.45.65.78s.54.69.83,1.08.58.79.86,1.2.54.81.77,1.18L23,72.78c-.19-.35-.4-.74-.65-1.15s-.52-.83-.79-1.24-.55-.78-.82-1.14-.5-.66-.72-.91Z"/><path d="M41.07,61.9v2.21L26.43,66V63.82l3.27-.43.24-1-2.39.31V60.84l2.85-.37.21-.87-3.4.44V57.85l13.08-1.73v2.2l-6.85.9-.21.88,6-.79-.15,2.85ZM27.88,66.56,39.62,65v5.63L27.88,72.19Zm2.59,3.09,6.44-.84V67.52l-6.44.85ZM32.55,63l3.87-.51.07-.95-3.71.49Z"/><path d="M47.76,64.55c-.17.37-.39.79-.65,1.25s-.54,1-.84,1.44-.6,1-.9,1.43-.59.88-.85,1.25l-2.34-1.13c.27-.36.56-.76.87-1.21s.61-.9.89-1.36.55-.91.79-1.36.44-.83.59-1.18Zm4-1.85v4.12A4.05,4.05,0,0,1,51.61,68a1.56,1.56,0,0,1-.45.73,2.17,2.17,0,0,1-.81.45c-.33.12-.73.23-1.21.35L48,69.81l-.83-2.6L48,67a2.37,2.37,0,0,0,.72-.28c.14-.09.2-.27.2-.54V63.07l-5.59.74L44,56.07c.62-.08,1.28-.18,2-.29s1.4-.22,2.11-.34l2.14-.39c.71-.13,1.4-.27,2.06-.41s1.29-.27,1.87-.41,1.11-.26,1.57-.39l.55,2.63L54.15,57c-.77.17-1.57.34-2.42.5l-2.6.49-2.57.45-.18,2.55L49,60.6V58.38l2.79-.3v2.15l4.92-.65v2.47Zm2.71-.22c.18.19.39.45.65.78s.54.69.83,1.08.58.79.87,1.2.53.81.76,1.18l-2.36,1.82c-.18-.35-.4-.74-.65-1.16s-.51-.82-.79-1.23L53,65c-.27-.36-.51-.66-.73-.91Z"/></g><line class="cls-1" x1="47.23" y1="64" x2="67.04" y2="64"/><line class="cls-1" x1="8.5" x2="8.5" y2="128"/><rect class="cls-1" x="0.5" y="32" width="16" height="64"/></g></g></g></svg>