<svg xmlns="http://www.w3.org/2000/svg" viewBox="0 0 66.02 128"><defs><style>.cls-1{fill:none;stroke:#333;stroke-linejoin:round;}.cls-2{opacity:0.16;}</style></defs><title>1-149</title><g id="图层_2" data-name="图层 2"><g id="_1-144_1-152" data-name="1-144——1-152"><g id="_1-149" data-name="1-149"><polyline class="cls-1" points="37.72 128 37.72 81.45 56.44 34.4"/><polyline class="cls-1" points="66.02 43 37.69 43 37.69 0"/><path class="cls-1" d="M22.76,86.77a22.26,22.26,0,0,1,0-44.52"/><line class="cls-1" x1="46.83" y1="58.18" x2="1.26" y2="58.18"/><g class="cls-2"><path d="M15,68.79c-.18.37-.39.79-.65,1.25s-.54.95-.84,1.44-.6,1-.9,1.43-.59.88-.85,1.25L9.46,73c.27-.37.56-.77.87-1.22s.6-.9.89-1.36.55-.91.79-1.36.44-.83.59-1.18Zm4-1.85v4.12a4.1,4.1,0,0,1-.13,1.17,1.74,1.74,0,0,1-.45.73,2.42,2.42,0,0,1-.81.46c-.33.11-.73.23-1.21.34l-1.17.29-.83-2.59.89-.22A2.69,2.69,0,0,0,16,71a.65.65,0,0,0,.2-.55V67.31l-5.6.74.59-7.74c.62-.08,1.27-.18,2-.29s1.4-.22,2.11-.34l2.14-.39c.71-.13,1.4-.27,2.06-.41s1.29-.27,1.87-.41,1.11-.26,1.56-.39l.56,2.63-2.08.48c-.76.17-1.57.34-2.41.5l-2.6.49-2.58.45-.18,2.55,2.59-.34V62.63L19,62.32v2.15L24,63.82v2.47Zm2.72-.22c.17.19.39.45.65.78s.54.69.83,1.08.58.79.86,1.2.54.81.77,1.18l-2.36,1.82c-.19-.35-.4-.74-.65-1.15s-.51-.83-.79-1.24l-.81-1.14c-.27-.36-.51-.66-.73-.91Z"/><path d="M40.56,61.9v2.21L25.92,66V63.82l3.27-.43.25-1-2.4.31V60.84l2.85-.37.21-.87L26.7,60V57.85l13.08-1.73v2.2l-6.85.9-.21.88,6-.79-.15,2.85ZM27.37,66.56,39.12,65v5.63L27.37,72.19ZM30,69.65l6.44-.84V67.52L30,68.37ZM32,63l3.87-.51.07-.95-3.71.49Z"/><path d="M47.25,64.55c-.17.37-.39.79-.65,1.25s-.54,1-.84,1.44-.6,1-.9,1.43-.59.88-.85,1.25l-2.34-1.13c.27-.36.56-.76.87-1.21s.61-.9.9-1.36.55-.91.78-1.36.44-.83.59-1.18Zm4-1.85v4.12A4.05,4.05,0,0,1,51.1,68a1.56,1.56,0,0,1-.45.73,2.2,2.2,0,0,1-.8.45c-.34.12-.74.23-1.22.35l-1.17.29-.83-2.6.9-.21a2.26,2.26,0,0,0,.72-.28c.14-.09.2-.27.2-.54V63.07l-5.59.74.58-7.74c.62-.08,1.28-.18,2-.29s1.4-.22,2.11-.34l2.14-.39c.71-.13,1.4-.27,2.06-.41s1.29-.27,1.88-.41,1.1-.26,1.56-.39l.55,2.63L53.64,57c-.77.17-1.57.34-2.42.5l-2.6.49-2.57.45-.18,2.55,2.58-.34V58.38l2.79-.3v2.15l4.93-.65v2.47ZM54,62.48c.18.19.39.45.65.78s.54.69.83,1.08.58.79.87,1.2.53.81.76,1.18L54.7,68.54c-.18-.35-.4-.74-.65-1.16s-.51-.82-.79-1.23-.55-.78-.81-1.14-.51-.66-.73-.91Z"/></g><polyline class="cls-1" points="0.75 67.79 43.15 67.79 43.26 67.79"/></g></g></g></svg>