<svg xmlns="http://www.w3.org/2000/svg" viewBox="0 0 80.56 128"><defs><style>.cls-1{fill:none;stroke:#333;stroke-linejoin:round;}.cls-2{opacity:0.16;}</style></defs><title>1-148</title><g id="图层_2" data-name="图层 2"><g id="_1-144_1-152" data-name="1-144——1-152"><g id="_1-148" data-name="1-148"><line class="cls-1" x1="80.06" x2="80.06" y2="43.32"/><path class="cls-1" d="M0,85.9A21.41,21.41,0,0,0,21.41,64.49,21.41,21.41,0,0,0,0,43.07"/><polyline class="cls-1" points="80.06 128 80.06 83.22 52.08 37.72"/><line class="cls-1" x1="64.49" y1="58.4" x2="20.53" y2="58.4"/><line class="cls-1" x1="70.33" y1="67.65" x2="21.66" y2="67.65"/><g class="cls-2"><path d="M21.81,68.79c-.17.37-.39.79-.65,1.25s-.54.95-.84,1.44-.6,1-.9,1.43-.59.88-.85,1.25L16.23,73c.27-.37.56-.77.87-1.22s.61-.9.89-1.36.55-.91.79-1.36.44-.83.59-1.18Zm4-1.85v4.12a4.05,4.05,0,0,1-.14,1.17,1.65,1.65,0,0,1-.45.73,2.42,2.42,0,0,1-.81.46c-.33.11-.73.23-1.21.34L22,74.05l-.83-2.59.9-.22a2.73,2.73,0,0,0,.72-.27.63.63,0,0,0,.2-.55V67.31l-5.59.74L18,60.31c.62-.08,1.28-.18,2-.29s1.4-.22,2.11-.34l2.14-.39c.71-.13,1.4-.27,2.06-.41s1.29-.27,1.87-.41,1.11-.26,1.57-.39l.55,2.63-2.08.48c-.76.17-1.57.34-2.41.5l-2.6.49-2.58.45-.17,2.55L23,64.84V62.63l2.79-.31v2.15l4.92-.65v2.47Zm2.71-.22c.18.19.39.45.65.78s.54.69.83,1.08.58.79.86,1.2.54.81.77,1.18l-2.36,1.82c-.18-.35-.4-.74-.65-1.15s-.51-.83-.79-1.24L27,69.25c-.27-.36-.51-.66-.73-.91Z"/><path d="M47.34,61.9v2.21L32.69,66V63.82L36,63.39l.25-1-2.39.31V60.84l2.84-.37.21-.87-3.4.44V57.85l13.08-1.73v2.2l-6.84.9-.22.88,6-.79-.15,2.85Zm-13.2,4.66L45.89,65v5.63L34.14,72.19Zm2.59,3.09,6.44-.84V67.52l-6.44.85ZM38.81,63l3.87-.51.07-.95L39,62.05Z"/><path d="M54,64.55c-.17.37-.39.79-.65,1.25s-.54,1-.84,1.44-.6,1-.9,1.43-.59.88-.85,1.25l-2.34-1.13c.27-.36.56-.76.87-1.21s.61-.9.9-1.36.55-.91.79-1.36.43-.83.58-1.18Zm4-1.85v4.12A4.05,4.05,0,0,1,57.87,68a1.56,1.56,0,0,1-.45.73,2.12,2.12,0,0,1-.8.45c-.33.12-.74.23-1.21.35l-1.18.29-.83-2.6.9-.21a2.17,2.17,0,0,0,.72-.28.6.6,0,0,0,.21-.54V63.07l-5.6.74.59-7.74c.61-.08,1.27-.18,2-.29s1.4-.22,2.11-.34l2.14-.39c.72-.13,1.4-.27,2.07-.41s1.28-.27,1.87-.41,1.1-.26,1.56-.39l.55,2.63L60.41,57c-.77.17-1.57.34-2.42.5s-1.71.33-2.59.49l-2.58.45-.18,2.55,2.59-.34V58.38l2.78-.3v2.15l4.93-.65v2.47Zm2.71-.22q.27.29.66.78l.83,1.08c.29.39.58.79.86,1.2s.53.81.76,1.18l-2.36,1.82c-.18-.35-.4-.74-.65-1.16s-.51-.82-.79-1.23-.54-.78-.81-1.14-.51-.66-.72-.91Z"/></g></g></g></g></svg>