<svg xmlns="http://www.w3.org/2000/svg" viewBox="0 0 87.13 128"><defs><style>.cls-1{fill:none;stroke:#333;stroke-linejoin:round;}.cls-2{opacity:0.16;}</style></defs><title>1-159</title><g id="图层_2" data-name="图层 2"><g id="_1-153_1-161" data-name="1-153——1-161"><g id="_1-159" data-name="1-159"><polyline class="cls-1" points="86.63 128 86.63 83.22 58.65 37.72"/><line class="cls-1" x1="86.63" x2="86.63" y2="43.32"/><line class="cls-1" x1="58.89" y1="65.7" x2="75.82" y2="65.7"/><line class="cls-1" x1="32.12" y1="65.7" x2="48.67" y2="65.7"/><line class="cls-1" x1="10.71" y1="65.7" x2="24.82" y2="65.7"/><polyline class="cls-1" points="20.44 54.51 10.71 54.51 10.22 54.51 10.22 75.44 9.73 75.44 0 75.44"/><g class="cls-2"><path d="M25.09,68.79c-.17.37-.39.79-.65,1.25s-.54.95-.83,1.44-.6,1-.91,1.43-.58.88-.84,1.25L19.51,73c.28-.37.56-.77.87-1.22s.61-.9.9-1.36.55-.91.79-1.36.43-.83.58-1.18Zm4-1.85v4.12a4.05,4.05,0,0,1-.14,1.17,1.56,1.56,0,0,1-.45.73,2.28,2.28,0,0,1-.8.46c-.33.11-.74.23-1.21.34l-1.17.29-.83-2.59.89-.22a2.46,2.46,0,0,0,.72-.27.63.63,0,0,0,.21-.55V67.31l-5.6.74.59-7.74c.62-.08,1.27-.18,2-.29s1.39-.22,2.1-.34,1.43-.25,2.14-.39,1.41-.27,2.07-.41,1.28-.27,1.87-.41,1.11-.26,1.56-.39l.55,2.63-2.07.48c-.76.17-1.57.34-2.42.5s-1.71.33-2.59.49l-2.58.45-.18,2.55,2.59-.34V62.63l2.78-.31v2.15L34,63.82v2.47Zm2.72-.22c.17.19.39.45.65.78l.83,1.08c.29.39.58.79.86,1.2s.54.81.76,1.18l-2.35,1.82c-.19-.35-.41-.74-.65-1.15s-.52-.83-.79-1.24-.55-.78-.82-1.14-.5-.66-.72-.91Z"/><path d="M50.62,61.9v2.21L36,66V63.82l3.27-.43.24-1-2.39.31V60.84L40,60.47l.21-.87-3.4.44V57.85l13.08-1.73v2.2l-6.85.9-.21.88,6-.79-.15,2.85ZM37.43,66.56,49.17,65v5.63L37.43,72.19ZM40,69.65l6.45-.84V67.52L40,68.37ZM42.1,63,46,62.51l.06-.95-3.71.49Z"/><path d="M57.31,64.55c-.18.37-.39.79-.65,1.25s-.54,1-.84,1.44-.6,1-.9,1.43-.59.88-.85,1.25l-2.34-1.13c.27-.36.56-.76.87-1.21s.6-.9.89-1.36.55-.91.79-1.36.43-.83.59-1.18Zm4-1.85v4.12A3.73,3.73,0,0,1,61.15,68a1.63,1.63,0,0,1-.44.73,2.25,2.25,0,0,1-.81.45c-.33.12-.73.23-1.21.35l-1.17.29-.83-2.6.89-.21a2.35,2.35,0,0,0,.73-.28.62.62,0,0,0,.2-.54V63.07l-5.6.74.59-7.74c.62-.08,1.27-.18,2-.29s1.4-.22,2.11-.34l2.14-.39c.71-.13,1.4-.27,2.06-.41s1.29-.27,1.87-.41,1.11-.26,1.56-.39l.56,2.63L63.69,57c-.76.17-1.57.34-2.41.5l-2.6.49-2.58.45-.18,2.55,2.59-.34V58.38l2.78-.3v2.15l4.93-.65v2.47ZM64,62.48c.17.19.39.45.65.78s.54.69.83,1.08.58.79.86,1.2.54.81.77,1.18l-2.36,1.82c-.19-.35-.4-.74-.65-1.16s-.51-.82-.79-1.23L62.51,65c-.27-.36-.51-.66-.73-.91Z"/></g></g></g></g></svg>