<svg xmlns="http://www.w3.org/2000/svg" viewBox="0 0 118.37 128"><defs><style>.cls-1{fill:#333;}.cls-2{fill:none;stroke:#333;stroke-linejoin:round;}.cls-3{opacity:0.16;}</style></defs><title>1-155</title><g id="图层_2" data-name="图层 2"><g id="_1-153_1-161" data-name="1-153——1-161"><g id="_1-155" data-name="1-155"><path class="cls-1" d="M102.18,63.49a8.72,8.72,0,0,1-.45-2.88,8,8,0,0,1,1.08-3.9,7.59,7.59,0,0,1,2.94-2.87,8.4,8.4,0,0,1,4.4-1A9.08,9.08,0,0,1,114.51,54a7.36,7.36,0,0,1,2.9,3,9,9,0,0,1,1,4.37,8.78,8.78,0,0,1-1.64,5.09,10,10,0,0,1-4.11,3.3l-.63-1.3q4.91-2.22,5-7.16a7.07,7.07,0,0,0-.81-3.57,6.23,6.23,0,0,0-2.43-2.48,7.61,7.61,0,0,0-3.65-1,7.16,7.16,0,0,0-3.65.85,6.53,6.53,0,0,0-2.54,2.43A6.81,6.81,0,0,0,103,61a8.12,8.12,0,0,0,1,4.22L102.9,66,91.63,55.67l-.28,13-1.36,0,.32-14.91,1.29,0,10.51,9.77Z"/><path class="cls-1" d="M15.58,10.66a8.69,8.69,0,0,1-.45-2.88,8,8,0,0,1,1.08-3.9A7.56,7.56,0,0,1,19.14,1a8.56,8.56,0,0,1,4.41-1,9,9,0,0,1,4.36,1.15,7.24,7.24,0,0,1,2.9,3,8.94,8.94,0,0,1,1,4.36,8.85,8.85,0,0,1-1.64,5.09A10,10,0,0,1,26,16.93l-.63-1.3q4.91-2.22,5-7.15a7.18,7.18,0,0,0-.8-3.58,6.19,6.19,0,0,0-2.44-2.48,7.57,7.57,0,0,0-3.64-.94,7.15,7.15,0,0,0-3.65.84,6.53,6.53,0,0,0-2.54,2.43,6.93,6.93,0,0,0-1,3.43,8.34,8.34,0,0,0,1.05,4.22l-1.12.79L5,2.85l-.28,13-1.37,0L3.71.94,5,1l10.51,9.77Z"/><path class="cls-1" d="M15.58,94.66a8.69,8.69,0,0,1-.45-2.88,8,8,0,0,1,1.08-3.9A7.56,7.56,0,0,1,19.14,85a8.56,8.56,0,0,1,4.41-1,9,9,0,0,1,4.36,1.15,7.24,7.24,0,0,1,2.9,3,9.4,9.4,0,0,1-.68,9.45,10,10,0,0,1-4.11,3.3l-.63-1.3q4.91-2.22,5-7.15a7.18,7.18,0,0,0-.8-3.58,6.19,6.19,0,0,0-2.44-2.48,7.57,7.57,0,0,0-3.64-.94,7.15,7.15,0,0,0-3.65.84,6.53,6.53,0,0,0-2.54,2.43,6.93,6.93,0,0,0-1,3.43,8.34,8.34,0,0,0,1.05,4.22l-1.12.79L5,86.85l-.28,13-1.37,0,.33-14.91L5,85l10.51,9.77Z"/><polyline class="cls-2" points="73.38 128 73.38 88.28 46.26 35.94"/><line class="cls-2" x1="16" y1="45.4" x2="16" y2="82.6"/><line class="cls-2" x1="32.39" y1="64.31" x2="16" y2="64.31"/><line class="cls-2" x1="60.68" y1="64.31" x2="44.37" y2="64.31"/><line class="cls-2" x1="58.24" y1="10.72" x2="88.51" y2="25.22"/><line class="cls-2" x1="73.38" x2="73.38" y2="39.72"/><line class="cls-2" x1="48.15" y1="87.01" x2="84.73" y2="63.05"/><line class="cls-2" x1="0.23" y1="64.31" x2="29.55" y2="79.76"/><g class="cls-3"><path d="M41.08,68.79c-.17.37-.39.79-.65,1.25s-.54.95-.84,1.44-.6,1-.9,1.43-.59.88-.85,1.25L35.5,73c.27-.37.56-.77.87-1.22s.61-.9.9-1.36.55-.91.78-1.36.44-.83.59-1.18Zm4-1.85v4.12a4.05,4.05,0,0,1-.14,1.17,1.56,1.56,0,0,1-.45.73,2.37,2.37,0,0,1-.8.46c-.34.11-.74.23-1.22.34l-1.17.29-.83-2.59.9-.22a2.59,2.59,0,0,0,.72-.27.63.63,0,0,0,.2-.55V67.31l-5.59.74.58-7.74c.62-.08,1.28-.18,2-.29s1.4-.22,2.11-.34l2.14-.39c.71-.13,1.4-.27,2.06-.41s1.29-.27,1.88-.41,1.1-.26,1.56-.39l.55,2.63-2.07.48c-.77.17-1.57.34-2.42.5l-2.6.49-2.57.45-.18,2.55,2.58-.34V62.63l2.79-.31v2.15L50,63.82v2.47Zm2.71-.22c.18.19.39.45.65.78s.54.69.83,1.08.58.79.87,1.2.53.81.76,1.18l-2.36,1.82c-.18-.35-.4-.74-.65-1.15s-.51-.83-.79-1.24-.55-.78-.81-1.14-.51-.66-.73-.91Z"/><path d="M66.61,61.9v2.21L52,66V63.82l3.27-.43.25-1-2.39.31V60.84l2.84-.37.22-.87-3.4.44V57.85l13.08-1.73v2.2l-6.85.9-.21.88,6-.79-.14,2.85Zm-13.2,4.66L65.16,65v5.63L53.41,72.19ZM56,69.65l6.44-.84V67.52L56,68.37ZM58.08,63,62,62.51l.07-.95-3.71.49Z"/><path d="M73.29,64.55c-.17.37-.39.79-.65,1.25s-.54,1-.84,1.44-.59,1-.9,1.43-.58.88-.84,1.25l-2.35-1.13c.27-.36.56-.76.87-1.21s.61-.9.9-1.36.55-.91.79-1.36.43-.83.58-1.18Zm4-1.85v4.12A4.05,4.05,0,0,1,77.14,68a1.56,1.56,0,0,1-.45.73,2.12,2.12,0,0,1-.8.45c-.33.12-.74.23-1.21.35l-1.18.29-.82-2.6.89-.21a2.17,2.17,0,0,0,.72-.28.6.6,0,0,0,.21-.54V63.07l-5.6.74.59-7.74,2-.29c.69-.1,1.39-.22,2.1-.34s1.43-.25,2.14-.39,1.41-.27,2.07-.41,1.28-.27,1.87-.41,1.11-.26,1.56-.39l.55,2.63L79.68,57c-.77.17-1.57.34-2.42.5s-1.71.33-2.59.49l-2.58.45-.18,2.55,2.59-.34V58.38l2.78-.3v2.15l4.93-.65v2.47ZM80,62.48c.17.19.39.45.65.78l.83,1.08c.29.39.58.79.86,1.2s.54.81.76,1.18l-2.35,1.82c-.19-.35-.41-.74-.66-1.16s-.51-.82-.78-1.23-.55-.78-.82-1.14-.51-.66-.72-.91Z"/></g></g></g></g></svg>