<svg xmlns="http://www.w3.org/2000/svg" viewBox="0 0 108.99 128"><defs><style>.cls-1{fill:#333;}.cls-2{fill:none;stroke:#333;stroke-linejoin:round;}.cls-3{opacity:0.16;}</style></defs><title>1-153</title><g id="图层_2" data-name="图层 2"><g id="_1-153_1-161" data-name="1-153——1-161"><g id="_1-153" data-name="1-153"><path class="cls-1" d="M92.8,70.49a8.72,8.72,0,0,1-.45-2.88,8,8,0,0,1,1.08-3.9,7.49,7.49,0,0,1,2.93-2.87,8.46,8.46,0,0,1,4.41-1A9.11,9.11,0,0,1,105.13,61a7.36,7.36,0,0,1,2.9,3,8.86,8.86,0,0,1,1,4.37,8.77,8.77,0,0,1-1.63,5.09,10,10,0,0,1-4.11,3.3l-.64-1.3q4.92-2.22,5-7.16a7.07,7.07,0,0,0-.81-3.57,6.1,6.1,0,0,0-2.43-2.48,7.57,7.57,0,0,0-3.64-1,7.16,7.16,0,0,0-3.65.85,6.53,6.53,0,0,0-2.54,2.43,6.92,6.92,0,0,0-1,3.42,8.32,8.32,0,0,0,1,4.22L93.52,73,82.25,62.67l-.29,13-1.36,0,.32-14.91,1.29,0,10.51,9.77Z"/><path class="cls-1" d="M12.2,10.66a8.45,8.45,0,0,1-.46-2.88,8,8,0,0,1,1.08-3.9A7.59,7.59,0,0,1,15.76,1a8.54,8.54,0,0,1,4.4-1,9,9,0,0,1,4.36,1.15,7.27,7.27,0,0,1,2.91,3,8.82,8.82,0,0,1,.95,4.36,8.78,8.78,0,0,1-1.64,5.09,10,10,0,0,1-4.1,3.3L22,15.63q4.92-2.22,5-7.15a7.08,7.08,0,0,0-.81-3.58,6.17,6.17,0,0,0-2.43-2.48,7.61,7.61,0,0,0-3.65-.94,7.18,7.18,0,0,0-3.65.84A6.5,6.5,0,0,0,14,4.75a6.83,6.83,0,0,0-1,3.43,8.34,8.34,0,0,0,1,4.22l-1.12.79L1.64,2.85l-.28,13L0,15.85.32.94,1.61,1l10.51,9.77Z"/><polyline class="cls-2" points="65.62 128 65.62 92.55 41.43 45.85"/><line class="cls-2" x1="14.42" y1="54.29" x2="14.42" y2="87.49"/><line class="cls-2" x1="29.05" y1="71.17" x2="14.42" y2="71.17"/><line class="cls-2" x1="54.29" y1="71.17" x2="39.74" y2="71.17"/><line class="cls-2" x1="52.12" y1="23.34" x2="79.12" y2="36.29"/><line class="cls-2" x1="65.62" y1="13.78" x2="65.62" y2="49.23"/><line class="cls-2" x1="43.11" y1="91.43" x2="75.75" y2="70.05"/><g class="cls-3"><path d="M36.27,68.79c-.17.37-.39.79-.65,1.25s-.54.95-.84,1.44-.6,1-.9,1.43-.59.88-.85,1.25L30.69,73c.27-.37.56-.77.87-1.22s.61-.9.9-1.36.55-.91.79-1.36.43-.83.58-1.18Zm4-1.85v4.12a4.05,4.05,0,0,1-.14,1.17,1.56,1.56,0,0,1-.45.73,2.28,2.28,0,0,1-.8.46c-.33.11-.74.23-1.22.34l-1.17.29-.83-2.59.9-.22a2.46,2.46,0,0,0,.72-.27.63.63,0,0,0,.21-.55V67.31l-5.6.74.58-7.74c.62-.08,1.28-.18,2-.29s1.4-.22,2.11-.34l2.14-.39c.72-.13,1.4-.27,2.07-.41s1.28-.27,1.87-.41,1.1-.26,1.56-.39l.55,2.63-2.07.48c-.77.17-1.57.34-2.42.5s-1.71.33-2.59.49l-2.58.45-.18,2.55,2.59-.34V62.63l2.78-.31v2.15l4.93-.65v2.47ZM43,66.72q.27.28.66.78l.83,1.08c.29.39.58.79.86,1.2s.53.81.76,1.18l-2.36,1.82c-.18-.35-.4-.74-.65-1.15s-.51-.83-.79-1.24-.54-.78-.81-1.14-.51-.66-.72-.91Z"/><path d="M61.8,61.9v2.21L47.16,66V63.82l3.27-.43.24-1-2.39.31V60.84l2.85-.37.21-.87-3.4.44V57.85L61,56.12v2.2l-6.85.9L54,60.1l6-.79-.14,2.85ZM48.6,66.56,60.35,65v5.63L48.6,72.19Zm2.59,3.09,6.44-.84V67.52l-6.44.85ZM53.27,63l3.88-.51.06-.95-3.71.49Z"/><path d="M68.48,64.55c-.17.37-.39.79-.65,1.25s-.54,1-.83,1.44-.6,1-.91,1.43-.58.88-.84,1.25L62.9,68.79c.28-.36.57-.76.87-1.21s.61-.9.9-1.36.55-.91.79-1.36.43-.83.58-1.18Zm4-1.85v4.12A4.05,4.05,0,0,1,72.33,68a1.56,1.56,0,0,1-.45.73,2.12,2.12,0,0,1-.8.45c-.33.12-.73.23-1.21.35l-1.17.29-.83-2.6.89-.21a2.35,2.35,0,0,0,.73-.28.62.62,0,0,0,.2-.54V63.07l-5.6.74.59-7.74c.62-.08,1.27-.18,2-.29s1.39-.22,2.1-.34,1.43-.25,2.14-.39,1.41-.27,2.07-.41,1.28-.27,1.87-.41,1.11-.26,1.56-.39l.55,2.63L74.87,57c-.76.17-1.57.34-2.42.5s-1.71.33-2.59.49l-2.58.45-.18,2.55,2.59-.34V58.38l2.78-.3v2.15l4.93-.65v2.47Zm2.72-.22c.17.19.39.45.65.78s.54.69.83,1.08.58.79.86,1.2.54.81.77,1.18l-2.36,1.82c-.19-.35-.41-.74-.65-1.16s-.52-.82-.79-1.23S74,65.37,73.68,65s-.5-.66-.72-.91Z"/></g></g></g></g></svg>