<svg xmlns="http://www.w3.org/2000/svg" viewBox="0 0 86.17 128"><defs><style>.cls-1{fill:none;stroke:#333;stroke-linejoin:round;}.cls-2{opacity:0.16;}</style></defs><title>1-163</title><g id="图层_2" data-name="图层 2"><g id="_1-162_1-169" data-name="1-162——1-169"><g id="_1-163" data-name="1-163"><polyline class="cls-1" points="85.67 128 85.67 81.64 56.69 34.52"/><line class="cls-1" x1="85.67" x2="85.67" y2="40.82"/><line class="cls-1" x1="58.96" y1="62.99" x2="74.08" y2="62.99"/><line class="cls-1" x1="31.24" y1="62.99" x2="48.37" y2="62.99"/><line class="cls-1" x1="9.07" y1="62.99" x2="23.68" y2="62.99"/><g class="cls-2"><path d="M24.86,68.79c-.17.37-.39.79-.65,1.25s-.54.95-.84,1.44-.6,1-.9,1.43-.59.88-.85,1.25L19.28,73c.27-.37.56-.77.87-1.22s.61-.9.9-1.36.55-.91.79-1.36.43-.83.58-1.18Zm4-1.85v4.12a4.05,4.05,0,0,1-.14,1.17,1.56,1.56,0,0,1-.45.73,2.28,2.28,0,0,1-.8.46c-.33.11-.74.23-1.22.34l-1.17.29-.83-2.59.9-.22a2.59,2.59,0,0,0,.72-.27.63.63,0,0,0,.2-.55V67.31l-5.59.74.58-7.74c.62-.08,1.28-.18,2-.29s1.4-.22,2.11-.34l2.14-.39c.71-.13,1.4-.27,2.07-.41s1.28-.27,1.87-.41,1.1-.26,1.56-.39l.55,2.63-2.07.48c-.77.17-1.57.34-2.42.5l-2.59.49-2.58.45-.18,2.55,2.58-.34V62.63l2.79-.31v2.15l4.93-.65v2.47Zm2.71-.22c.18.19.39.45.65.78s.54.69.84,1.08.57.79.86,1.2.53.81.76,1.18l-2.36,1.82c-.18-.35-.4-.74-.65-1.15s-.51-.83-.79-1.24-.55-.78-.81-1.14-.51-.66-.72-.91Z"/><path d="M50.39,61.9v2.21L35.75,66V63.82L39,63.39l.24-1-2.39.31V60.84l2.84-.37.22-.87-3.4.44V57.85l13.08-1.73v2.2l-6.85.9-.21.88,6-.79-.14,2.85Zm-13.2,4.66L48.94,65v5.63L37.19,72.19Zm2.59,3.09,6.44-.84V67.52l-6.44.85ZM41.86,63l3.87-.51.07-.95-3.71.49Z"/><path d="M57.07,64.55c-.17.37-.39.79-.65,1.25s-.54,1-.83,1.44-.6,1-.91,1.43-.58.88-.84,1.25l-2.35-1.13c.28-.36.57-.76.87-1.21s.61-.9.9-1.36.55-.91.79-1.36.43-.83.58-1.18Zm4-1.85v4.12A4.05,4.05,0,0,1,60.92,68a1.56,1.56,0,0,1-.45.73,2.12,2.12,0,0,1-.8.45c-.33.12-.74.23-1.21.35l-1.17.29-.83-2.6.89-.21a2.17,2.17,0,0,0,.72-.28.6.6,0,0,0,.21-.54V63.07l-5.6.74.59-7.74c.62-.08,1.27-.18,2-.29s1.39-.22,2.1-.34,1.43-.25,2.14-.39,1.41-.27,2.07-.41,1.28-.27,1.87-.41S64.53,54,65,53.84l.55,2.63L63.46,57c-.76.17-1.57.34-2.42.5s-1.71.33-2.59.49l-2.58.45-.18,2.55,2.59-.34V58.38l2.78-.3v2.15L66,59.58v2.47Zm2.72-.22c.17.19.39.45.65.78l.83,1.08c.29.39.58.79.86,1.2s.54.81.76,1.18l-2.35,1.82c-.19-.35-.41-.74-.65-1.16s-.52-.82-.79-1.23-.55-.78-.82-1.14-.5-.66-.72-.91Z"/></g><line class="cls-1" x1="9.07" y1="52.54" x2="9.07" y2="73.2"/><polyline class="cls-1" points="9.07 40.82 9.07 45.86 0.5 45.86 0.5 80.13 9.07 80.13 9.07 84.66"/></g></g></g></svg>