<svg xmlns="http://www.w3.org/2000/svg" viewBox="0 0 77.6 128"><defs><style>.cls-1{fill:none;stroke:#333;stroke-linejoin:round;}.cls-2{opacity:0.16;}</style></defs><title>1-162</title><g id="图层_2" data-name="图层 2"><g id="_1-162_1-169" data-name="1-162——1-169"><g id="_1-162" data-name="1-162"><line class="cls-1" x1="77.1" x2="77.1" y2="40.66"/><polyline class="cls-1" points="77.1 128 77.1 81.82 48.24 34.89"/><line class="cls-1" x1="51.5" y1="59.73" x2="63.3" y2="59.73"/><line class="cls-1" x1="26.4" y1="59.73" x2="43.47" y2="59.73"/><g class="cls-2"><path d="M20.58,68.79c-.17.37-.39.79-.65,1.25s-.54.95-.84,1.44-.6,1-.9,1.43-.59.88-.85,1.25L15,73c.27-.37.56-.77.87-1.22s.61-.9.89-1.36.55-.91.79-1.36.44-.83.59-1.18Zm4-1.85v4.12a4.1,4.1,0,0,1-.13,1.17A1.74,1.74,0,0,1,24,73a2.42,2.42,0,0,1-.81.46c-.33.11-.73.23-1.21.34l-1.17.29L20,71.46l.9-.22a2.73,2.73,0,0,0,.72-.27.65.65,0,0,0,.2-.55V67.31l-5.59.74.58-7.74c.62-.08,1.28-.18,2-.29s1.4-.22,2.11-.34L23,59.29c.71-.13,1.4-.27,2.06-.41s1.29-.27,1.87-.41,1.11-.26,1.57-.39L29,60.71,27,61.19c-.76.17-1.57.34-2.41.5l-2.6.49-2.58.45-.17,2.55,2.58-.34V62.63l2.78-.31v2.15l4.93-.65v2.47Zm2.72-.22c.17.19.39.45.65.78s.54.69.83,1.08.58.79.86,1.2.54.81.77,1.18L28,72.78c-.18-.35-.4-.74-.65-1.15s-.51-.83-.79-1.24l-.81-1.14c-.27-.36-.51-.66-.73-.91Z"/><path d="M46.1,61.9v2.21L31.46,66V63.82l3.27-.43.25-1-2.39.31V60.84l2.84-.37.21-.87-3.4.44V57.85l13.08-1.73v2.2l-6.85.9-.21.88,6-.79-.15,2.85ZM32.91,66.56,44.66,65v5.63L32.91,72.19Zm2.59,3.09,6.44-.84V67.52l-6.44.85ZM37.58,63l3.87-.51.07-.95-3.71.49Z"/><path d="M52.79,64.55c-.17.37-.39.79-.65,1.25s-.54,1-.84,1.44-.6,1-.9,1.43-.59.88-.85,1.25l-2.34-1.13c.27-.36.56-.76.87-1.21s.61-.9.9-1.36.55-.91.79-1.36.43-.83.58-1.18Zm4-1.85v4.12A4.05,4.05,0,0,1,56.64,68a1.56,1.56,0,0,1-.45.73,2.12,2.12,0,0,1-.8.45c-.33.12-.74.23-1.22.35L53,69.81l-.83-2.6.9-.21a2.17,2.17,0,0,0,.72-.28.6.6,0,0,0,.21-.54V63.07l-5.6.74L49,56.07c.62-.08,1.28-.18,2-.29s1.4-.22,2.11-.34l2.14-.39c.72-.13,1.4-.27,2.07-.41s1.28-.27,1.87-.41,1.1-.26,1.56-.39l.55,2.63L59.18,57c-.77.17-1.57.34-2.42.5s-1.71.33-2.59.49l-2.58.45-.18,2.55L54,60.6V58.38l2.78-.3v2.15l4.93-.65v2.47Zm2.71-.22q.27.29.66.78L61,64.34c.29.39.58.79.86,1.2s.53.81.76,1.18l-2.36,1.82c-.18-.35-.4-.74-.65-1.16s-.51-.82-.79-1.23S58.26,65.37,58,65s-.51-.66-.72-.91Z"/></g><circle class="cls-1" cx="13" cy="48.94" r="11.29"/><polygon class="cls-1" points="13 60.49 0.5 82.14 25.5 82.14 13 60.49"/></g></g></g></svg>