<svg xmlns="http://www.w3.org/2000/svg" viewBox="0 0 92.1 128"><defs><style>.cls-1{fill:none;stroke:#333;stroke-linejoin:round;}.cls-2{opacity:0.16;}</style></defs><title>1-168</title><g id="图层_2" data-name="图层 2"><g id="_1-162_1-169" data-name="1-162——1-169"><g id="_1-168" data-name="1-168"><polyline class="cls-1" points="64 128 64 85.85 83.25 37.46"/><polyline class="cls-1" points="92.1 44.23 62.96 44.23 62.96 0"/><polyline class="cls-1" points="71.81 65.56 43.19 65.56 43.19 43.19 22.89 43.19 22.89 65.56 0 65.56"/><g class="cls-2"><path d="M27.83,68.79c-.18.37-.39.79-.65,1.25s-.54.95-.84,1.44-.6,1-.9,1.43-.59.88-.85,1.25L22.25,73c.27-.37.56-.77.87-1.22s.6-.9.89-1.36.55-.91.79-1.36.44-.83.59-1.18Zm4-1.85v4.12a4.1,4.1,0,0,1-.13,1.17,1.74,1.74,0,0,1-.45.73,2.42,2.42,0,0,1-.81.46c-.33.11-.73.23-1.21.34L28,74.05l-.83-2.59.89-.22a2.69,2.69,0,0,0,.73-.27.65.65,0,0,0,.2-.55V67.31l-5.6.74L24,60.31c.62-.08,1.27-.18,2-.29s1.4-.22,2.11-.34l2.14-.39c.71-.13,1.4-.27,2.06-.41s1.29-.27,1.87-.41,1.11-.26,1.56-.39l.56,2.63-2.08.48c-.76.17-1.57.34-2.41.5l-2.6.49-2.58.45-.18,2.55L29,64.84V62.63l2.78-.31v2.15l4.93-.65v2.47Zm2.72-.22c.17.19.39.45.65.78s.54.69.83,1.08.58.79.86,1.2.54.81.77,1.18l-2.36,1.82c-.19-.35-.4-.74-.65-1.15s-.51-.83-.79-1.24L33,69.25c-.27-.36-.51-.66-.73-.91Z"/><path d="M53.35,61.9v2.21L38.71,66V63.82L42,63.39l.25-1-2.4.31V60.84l2.85-.37.21-.87-3.4.44V57.85l13.08-1.73v2.2l-6.85.9-.21.88,6-.79-.15,2.85ZM40.16,66.56,51.91,65v5.63L40.16,72.19Zm2.59,3.09,6.44-.84V67.52l-6.44.85ZM44.83,63l3.87-.51.07-.95-3.71.49Z"/><path d="M60,64.55c-.17.37-.39.79-.65,1.25s-.54,1-.84,1.44-.6,1-.9,1.43-.59.88-.85,1.25l-2.34-1.13c.27-.36.56-.76.87-1.21s.61-.9.9-1.36.55-.91.78-1.36.44-.83.59-1.18Zm4-1.85v4.12A4.05,4.05,0,0,1,63.89,68a1.56,1.56,0,0,1-.45.73,2.2,2.2,0,0,1-.8.45c-.34.12-.74.23-1.22.35l-1.17.29-.83-2.6.9-.21a2.26,2.26,0,0,0,.72-.28c.14-.09.2-.27.2-.54V63.07l-5.59.74.58-7.74c.62-.08,1.28-.18,2-.29s1.4-.22,2.11-.34l2.14-.39c.71-.13,1.4-.27,2.06-.41s1.29-.27,1.88-.41,1.1-.26,1.56-.39l.55,2.63L66.43,57c-.77.17-1.57.34-2.42.5l-2.6.49-2.57.45-.18,2.55,2.58-.34V58.38l2.79-.3v2.15L69,59.58v2.47Zm2.71-.22c.18.19.39.45.65.78s.54.69.83,1.08.58.79.87,1.2.53.81.76,1.18l-2.36,1.82c-.18-.35-.4-.74-.65-1.16s-.51-.82-.79-1.23-.55-.78-.81-1.14-.51-.66-.73-.91Z"/></g></g></g></g></svg>