<svg xmlns="http://www.w3.org/2000/svg" viewBox="0 0 88.36 128"><defs><style>.cls-1{fill:none;stroke:#333;stroke-linejoin:round;}.cls-2{opacity:0.16;}</style></defs><title>1-160</title><g id="图层_2" data-name="图层 2"><g id="_1-153_1-161" data-name="1-153——1-161"><g id="_1-160" data-name="1-160"><polyline class="cls-1" points="87.86 128 87.86 83.22 59.88 37.72"/><line class="cls-1" x1="87.86" x2="87.86" y2="43.32"/><line class="cls-1" x1="60.12" y1="65.7" x2="77.18" y2="65.7"/><line class="cls-1" x1="33.35" y1="65.7" x2="49.9" y2="65.7"/><line class="cls-1" x1="11.94" y1="65.7" x2="26.05" y2="65.7"/><g class="cls-2"><path d="M26,68.79c-.17.37-.39.79-.65,1.25s-.54.95-.84,1.44-.6,1-.9,1.43-.59.88-.85,1.25L20.38,73c.27-.37.56-.77.87-1.22s.61-.9.89-1.36.55-.91.79-1.36.44-.83.59-1.18Zm4-1.85v4.12a4.05,4.05,0,0,1-.14,1.17,1.65,1.65,0,0,1-.45.73,2.42,2.42,0,0,1-.81.46c-.33.11-.73.23-1.21.34l-1.17.29-.83-2.59.9-.22A2.73,2.73,0,0,0,27,71a.63.63,0,0,0,.2-.55V67.31l-5.59.74.58-7.74c.62-.08,1.28-.18,2-.29s1.4-.22,2.11-.34l2.14-.39c.71-.13,1.4-.27,2.06-.41s1.29-.27,1.87-.41,1.11-.26,1.57-.39l.55,2.63-2.08.48c-.76.17-1.57.34-2.41.5l-2.6.49-2.57.45-.18,2.55,2.58-.34V62.63L30,62.32v2.15l4.92-.65v2.47Zm2.71-.22c.18.19.39.45.65.78s.54.69.83,1.08.58.79.86,1.2.54.81.77,1.18l-2.36,1.82c-.18-.35-.4-.74-.65-1.15s-.51-.83-.79-1.24l-.81-1.14c-.27-.36-.51-.66-.73-.91Z"/><path d="M51.49,61.9v2.21L36.84,66V63.82l3.27-.43.25-1L38,62.73V60.84l2.84-.37L41,59.6l-3.4.44V57.85L50.7,56.12v2.2l-6.84.9-.22.88,6-.79-.15,2.85Zm-13.2,4.66L50,65v5.63L38.29,72.19Zm2.59,3.09,6.44-.84V67.52l-6.44.85ZM43,63l3.87-.51.07-.95-3.71.49Z"/><path d="M58.17,64.55c-.17.37-.39.79-.65,1.25s-.54,1-.84,1.44-.6,1-.9,1.43-.59.88-.85,1.25l-2.34-1.13c.27-.36.56-.76.87-1.21s.61-.9.9-1.36.55-.91.79-1.36.43-.83.58-1.18Zm4-1.85v4.12A4.05,4.05,0,0,1,62,68a1.56,1.56,0,0,1-.45.73,2.12,2.12,0,0,1-.8.45c-.33.12-.74.23-1.21.35l-1.18.29-.83-2.6.9-.21a2.17,2.17,0,0,0,.72-.28.6.6,0,0,0,.21-.54V63.07l-5.6.74.59-7.74c.61-.08,1.27-.18,2-.29s1.4-.22,2.11-.34l2.14-.39c.72-.13,1.4-.27,2.07-.41s1.28-.27,1.87-.41,1.1-.26,1.56-.39l.55,2.63L64.56,57c-.77.17-1.57.34-2.42.5s-1.71.33-2.59.49L57,58.39l-.18,2.55,2.59-.34V58.38l2.78-.3v2.15l4.93-.65v2.47Zm2.72-.22c.17.19.39.45.65.78l.83,1.08c.29.39.58.79.86,1.2s.53.81.76,1.18l-2.36,1.82c-.18-.35-.4-.74-.65-1.16s-.51-.82-.79-1.23-.54-.78-.81-1.14-.51-.66-.72-.91Z"/></g><path class="cls-1" d="M11.45,83.47C5.4,83.47.5,74.64.5,63.76s4.9-19.71,11-19.71Z"/></g></g></g></svg>