<svg xmlns="http://www.w3.org/2000/svg" viewBox="0 0 129 93.09"><defs><style>.cls-1{fill:none;stroke:#333;stroke-linejoin:round;}.cls-2{opacity:0.16;}</style></defs><title>1-178</title><g id="图层_2" data-name="图层 2"><g id="_1-177_1-185" data-name="1-177——1-185"><g id="_1-178" data-name="1-178"><rect class="cls-1" x="0.5" y="32" width="64" height="29.09"/><line class="cls-1" x1="32.37" x2="32.37" y2="32"/><line class="cls-1" x1="32.37" y1="61.09" x2="32.37" y2="93.09"/><rect class="cls-1" x="64.5" y="32" width="64" height="29.09"/><line class="cls-1" x1="96.37" x2="96.37" y2="32"/><line class="cls-1" x1="96.37" y1="61.09" x2="96.37" y2="93.09"/><g class="cls-2"><path d="M46.28,51.33c-.17.37-.39.79-.65,1.26s-.54.95-.84,1.44-.6,1-.9,1.42-.59.88-.85,1.25L40.7,55.58c.27-.36.56-.76.87-1.21s.61-.9.89-1.36.55-.92.79-1.36.44-.84.59-1.18Zm4-1.84v4.12a4.15,4.15,0,0,1-.13,1.17,1.81,1.81,0,0,1-.45.73,2.41,2.41,0,0,1-.81.45c-.33.12-.73.23-1.21.35l-1.17.28L45.66,54l.9-.21a2.67,2.67,0,0,0,.72-.28.64.64,0,0,0,.2-.55v-3.1l-5.59.73.58-7.74c.62-.08,1.28-.17,2-.28l2.11-.34,2.14-.39,2.06-.41c.66-.14,1.29-.27,1.87-.41l1.57-.39.55,2.63-2.08.47-2.41.51-2.6.48c-.88.17-1.74.32-2.58.46l-.17,2.54,2.58-.34V45.17l2.78-.3V47l4.93-.65v2.47ZM53,49.26c.17.2.39.46.65.79s.54.69.83,1.08.58.79.86,1.2.54.8.77,1.18l-2.36,1.82c-.18-.36-.4-.74-.65-1.16s-.51-.83-.79-1.23l-.81-1.15c-.27-.36-.51-.66-.73-.9Z"/><path d="M71.8,44.44v2.21L57.16,48.58V46.37l3.27-.43.25-1-2.39.32V43.39L61.13,43l.21-.88-3.4.45v-2.2L71,38.67v2.2l-6.85.9-.21.87,6-.79L69.8,44.7ZM58.61,49.11l11.75-1.55v5.63L58.61,54.74ZM61.2,52.2l6.44-.85V50.07l-6.44.84Zm2.08-6.64,3.87-.51.07-.95-3.71.49Z"/><path d="M78.49,47.09c-.17.37-.39.79-.65,1.26s-.54.95-.84,1.43-.6,1-.9,1.43-.59.88-.85,1.25l-2.34-1.12c.27-.36.56-.76.87-1.21s.61-.9.9-1.36.55-.92.79-1.36.43-.84.58-1.18Zm4-1.84v4.11a4.18,4.18,0,0,1-.14,1.18,1.58,1.58,0,0,1-.45.72,2.13,2.13,0,0,1-.8.46c-.33.11-.74.23-1.22.35l-1.17.28-.83-2.59.9-.22a2.2,2.2,0,0,0,.72-.27.62.62,0,0,0,.21-.55V45.61l-5.6.74.58-7.74c.62-.08,1.28-.17,2-.28L78.76,38l2.14-.39L83,37.19c.66-.14,1.28-.27,1.87-.41l1.56-.39L87,39l-2.07.47L82.46,40l-2.59.48-2.58.46-.18,2.54,2.59-.34V40.93l2.78-.3v2.15l4.93-.65V44.6ZM85.19,45c.18.2.4.46.66.79l.83,1.07c.29.39.58.8.86,1.21s.53.8.76,1.18l-2.36,1.82c-.18-.36-.4-.74-.65-1.16s-.51-.83-.79-1.23-.54-.79-.81-1.15-.51-.66-.72-.9Z"/></g></g></g></g></svg>