<svg xmlns="http://www.w3.org/2000/svg" viewBox="0 0 129 107.21"><defs><style>.cls-1{fill:none;stroke:#333;stroke-linejoin:round;}.cls-2{opacity:0.16;}</style></defs><title>1-170</title><g id="图层_2" data-name="图层 2"><g id="_1-170_1-176" data-name="1-170——1-176"><g id="_1-170" data-name="1-170"><line class="cls-1" x1="106.62" y1="35.45" x2="128.28" y2="70.67"/><line class="cls-1" x1="128.5" y1="107.21" x2="128.5" y2="70.89"/><line class="cls-1" x1="128.5" x2="128.5" y2="35.45"/><line class="cls-1" x1="103.12" y1="53.39" x2="115.81" y2="53.39"/><line class="cls-1" x1="79.05" y1="53.39" x2="93.93" y2="53.39"/><line class="cls-1" x1="59.8" y1="53.39" x2="72.49" y2="53.39"/><line class="cls-1" x1="38.79" y1="53.39" x2="51.48" y2="53.39"/><ellipse class="cls-1" cx="19.54" cy="54.26" rx="19.04" ry="8.97"/><line class="cls-1" x1="19.54" y1="33.91" x2="19.54" y2="45.29"/><g class="cls-2"><path d="M46.28,58.39c-.17.37-.39.79-.65,1.26s-.54,1-.84,1.44-.6,1-.9,1.43L43,63.77,40.7,62.64c.27-.36.56-.76.87-1.21s.61-.9.89-1.36.55-.92.79-1.36.44-.84.59-1.18Zm4-1.84v4.12a4.1,4.1,0,0,1-.13,1.17,1.74,1.74,0,0,1-.45.73,2.25,2.25,0,0,1-.81.45c-.33.12-.73.23-1.21.35l-1.17.28-.83-2.59.9-.21a2.37,2.37,0,0,0,.72-.28.63.63,0,0,0,.2-.55v-3.1l-5.59.73.58-7.74c.62-.08,1.28-.17,2-.28l2.11-.34,2.14-.39,2.06-.41c.66-.14,1.29-.27,1.87-.41l1.57-.39.55,2.63-2.08.47c-.76.18-1.57.34-2.41.51l-2.6.49-2.58.45-.17,2.55,2.58-.35V52.23l2.78-.3v2.15l4.93-.65V55.9ZM53,56.32c.17.2.39.46.65.79s.54.69.83,1.08.58.79.86,1.2.54.81.77,1.18l-2.36,1.82c-.18-.35-.4-.74-.65-1.16s-.51-.83-.79-1.23l-.81-1.14c-.27-.36-.51-.67-.73-.91Z"/><path d="M71.8,51.5v2.21L57.16,55.64V53.43L60.43,53l.25-1-2.39.32V50.45l2.84-.37.21-.88-3.4.45v-2.2L71,45.73v2.2l-6.85.9L64,49.7l6-.78-.15,2.85ZM58.61,56.17l11.75-1.55v5.63L58.61,61.8Zm2.59,3.09,6.44-.85V57.13L61.2,58Zm2.08-6.64,3.87-.51.07-1-3.71.49Z"/><path d="M78.49,54.15c-.17.37-.39.79-.65,1.26s-.54,1-.84,1.44-.6,1-.9,1.42-.59.88-.85,1.25L72.91,58.4c.27-.36.56-.76.87-1.21s.61-.9.9-1.36.55-.92.79-1.36.43-.84.58-1.18Zm4-1.84v4.12a4.1,4.1,0,0,1-.14,1.17,1.61,1.61,0,0,1-.45.73,2.27,2.27,0,0,1-.8.45c-.33.12-.74.23-1.22.35l-1.17.28-.83-2.59.9-.21a2.17,2.17,0,0,0,.72-.28.62.62,0,0,0,.21-.55v-3.1l-5.6.73.58-7.74c.62-.08,1.28-.17,2-.28l2.11-.34,2.14-.39L83,44.25c.66-.14,1.28-.27,1.87-.41l1.56-.39L87,46.08l-2.07.47-2.42.51-2.59.49L77.29,48l-.18,2.54,2.59-.34V48l2.78-.3v2.15l4.93-.65v2.47Zm2.71-.23c.18.2.4.46.66.79L86.68,54c.29.39.58.79.86,1.2s.53.81.76,1.18l-2.36,1.82c-.18-.36-.4-.74-.65-1.16s-.51-.83-.79-1.23S84,55,83.69,54.62s-.51-.67-.72-.91Z"/></g></g></g></g></svg>