<svg xmlns="http://www.w3.org/2000/svg" viewBox="0 0 128.5 70.52"><defs><style>.cls-1{fill:none;stroke:#333;stroke-linejoin:round;}.cls-2{opacity:0.16;}.cls-3{fill:#333;}</style></defs><title>1-174</title><g id="图层_2" data-name="图层 2"><g id="_1-170_1-176" data-name="1-170——1-176"><g id="_1-174" data-name="1-174"><polyline class="cls-1" points="106.34 70.52 106.34 47.48 84.69 25.27"/><line class="cls-1" x1="72.47" y1="34.71" x2="80.52" y2="34.71"/><g class="cls-2"><path d="M45.78,40.05c-.17.37-.39.79-.65,1.26s-.54.94-.84,1.43-.6,1-.9,1.43-.59.88-.85,1.25L40.2,44.3c.27-.36.56-.77.87-1.21s.61-.91.89-1.37.55-.91.79-1.35.44-.84.59-1.19Zm4-1.84v4.11a4.23,4.23,0,0,1-.13,1.18,1.77,1.77,0,0,1-.45.72,2.42,2.42,0,0,1-.81.46c-.33.11-.73.23-1.21.34L46,45.31l-.83-2.59.9-.22a2.73,2.73,0,0,0,.72-.27.65.65,0,0,0,.2-.55V38.57l-5.59.74L42,31.57l2-.28,2.11-.35,2.14-.38,2.06-.41,1.87-.41c.59-.14,1.11-.27,1.57-.4L54.24,32l-2.08.48c-.76.17-1.57.34-2.41.5l-2.6.49-2.58.45-.17,2.55L47,36.1V33.89l2.78-.3v2.14l4.93-.65v2.48ZM52.48,38c.17.19.39.45.65.78s.54.69.83,1.08.58.79.86,1.21.54.8.77,1.17l-2.36,1.83c-.18-.36-.4-.75-.65-1.16s-.51-.83-.79-1.23-.55-.79-.81-1.15-.51-.66-.73-.9Z"/><path d="M71.3,33.16v2.21L56.66,37.3V35.09l3.27-.44.25-1L57.79,34V32.11l2.84-.38.21-.87-3.4.45v-2.2l13.08-1.72v2.19l-6.85.91-.21.87,6-.79-.15,2.85ZM58.11,37.82l11.75-1.54v5.63L58.11,43.45Zm2.59,3.1,6.44-.85V38.78l-6.44.85Zm2.08-6.64,3.87-.51.07-1L63,33.31Z"/><path d="M78,35.81c-.17.37-.39.79-.65,1.26s-.54.94-.84,1.43-.6,1-.9,1.43-.59.88-.85,1.25l-2.34-1.12c.27-.36.56-.77.87-1.22s.61-.9.9-1.36.55-.91.79-1.36.43-.83.58-1.18ZM82,34v4.12a4.18,4.18,0,0,1-.14,1.18,1.58,1.58,0,0,1-.45.72,2.28,2.28,0,0,1-.8.46c-.33.11-.74.23-1.22.34l-1.17.29-.83-2.59.9-.22A2.46,2.46,0,0,0,79,38a.63.63,0,0,0,.21-.55V34.33l-5.6.74.58-7.74c.62-.08,1.28-.18,2-.29s1.4-.22,2.11-.34l2.14-.39c.72-.13,1.4-.27,2.07-.41s1.28-.27,1.87-.4,1.1-.27,1.56-.4l.55,2.63-2.07.48c-.77.17-1.57.34-2.42.5s-1.71.33-2.59.49l-2.58.45-.18,2.55,2.59-.34V29.65l2.78-.3v2.14l4.93-.65v2.48Zm2.71-.22q.27.28.66.78l.83,1.08c.29.39.58.79.86,1.21s.53.8.76,1.17l-2.36,1.83c-.18-.36-.4-.75-.65-1.16s-.51-.83-.79-1.23-.54-.79-.81-1.15-.51-.66-.72-.91Z"/></g><line class="cls-1" x1="85.8" y1="34.71" x2="93.85" y2="34.71"/><line class="cls-1" x1="57.2" y1="34.71" x2="66.64" y2="34.71"/><line class="cls-1" x1="44.98" y1="34.71" x2="53.03" y2="34.71"/><line class="cls-1" x1="31.65" y1="34.71" x2="39.71" y2="34.71"/><line class="cls-1" x1="18.05" y1="34.71" x2="26.1" y2="34.71"/><line class="cls-1" x1="60.53" x2="60.53" y2="22.49"/><line class="cls-1" x1="83.3" x2="83.3" y2="22.49"/><line class="cls-1" x1="105.79" x2="105.79" y2="22.49"/><line class="cls-1" x1="128" x2="128" y2="22.49"/><path class="cls-3" d="M3.36,18.2H2.41v-11L0,8.47v-1L2.65,6h.71Z"/><path class="cls-3" d="M11.79,17.33h6v.87h-7.2v-.8L14.38,13a14.18,14.18,0,0,0,1.72-2.29A3.68,3.68,0,0,0,16.6,9a2.19,2.19,0,0,0-.67-1.7,2.53,2.53,0,0,0-1.77-.62,3,3,0,0,0-2.82,2l-.8-.39A4.2,4.2,0,0,1,12,6.46a3.74,3.74,0,0,1,2.18-.65,3.58,3.58,0,0,1,2.47.85A3,3,0,0,1,17.57,9,4.43,4.43,0,0,1,17,11a13,13,0,0,1-1.82,2.52Z"/><path class="cls-3" d="M26.69,11.22a3.32,3.32,0,0,1,1-.13,3.54,3.54,0,0,1,1.72.43,3.22,3.22,0,0,1,1.3,1.24,3.67,3.67,0,0,1,.49,1.93,3.93,3.93,0,0,1-.48,2A3.29,3.29,0,0,1,29.37,18a4.06,4.06,0,0,1-2,.47,4,4,0,0,1-2.3-.69,4.09,4.09,0,0,1-1.48-1.86l.84-.33a3,3,0,0,0,3,2,2.66,2.66,0,0,0,2-.8,2.86,2.86,0,0,0,.76-2.07,3,3,0,0,0-.36-1.49,2.47,2.47,0,0,0-1-1,2.94,2.94,0,0,0-1.45-.35,3.22,3.22,0,0,0-1.64.44l-.52-.7,4.09-4.68H23.91V6h6.63v.8l-3.88,4.33Z"/><path class="cls-3" d="M43.63,14.47h1.55v.85H43.63V18.2H42.7V15.32H37v-.74L42.36,6h1.27ZM42.7,7.16l-4.62,7.31H42.7Z"/><line class="cls-1" x1="3.47" y1="22.63" x2="20.13" y2="45.95"/><line class="cls-1" x1="37.73" y1="23.47" x2="20.3" y2="46.22"/><line class="cls-1" x1="26.1" y1="21.93" x2="20.27" y2="46.09"/><line class="cls-1" x1="14.3" y1="22.07" x2="20.41" y2="45.4"/></g></g></g></svg>