<svg xmlns="http://www.w3.org/2000/svg" viewBox="0 0 96.87 128"><defs><style>.cls-1{fill:none;stroke:#333;stroke-linejoin:round;}.cls-2{opacity:0.16;}</style></defs><title>1-175</title><g id="图层_2" data-name="图层 2"><g id="_1-170_1-176" data-name="1-170——1-176"><g id="_1-175" data-name="1-175"><line class="cls-1" x1="70.25" y1="38.14" x2="96.11" y2="84.38"/><line class="cls-1" x1="96.37" y1="128" x2="96.37" y2="84.64"/><line class="cls-1" x1="96.37" x2="96.37" y2="42.32"/><rect class="cls-1" x="6.66" y="49.25" width="29.1" height="29.1" transform="translate(51.33 3.69) rotate(45)"/><line class="cls-1" x1="0.5" y1="46.56" x2="0.5" y2="81.04"/><line class="cls-1" x1="16.51" y1="48.33" x2="16.51" y2="79.67"/><line class="cls-1" x1="25.91" y1="48.33" x2="25.91" y2="78.89"/><line class="cls-1" x1="59.8" y1="63.74" x2="42.03" y2="63.74"/><g class="cls-2"><path d="M30.21,68.79c-.17.37-.39.79-.65,1.25s-.54.95-.84,1.44-.59,1-.9,1.43-.58.88-.84,1.25L24.63,73c.27-.37.56-.77.87-1.22s.61-.9.9-1.36.55-.91.79-1.36.43-.83.58-1.18Zm4-1.85v4.12a4.05,4.05,0,0,1-.14,1.17,1.56,1.56,0,0,1-.45.73,2.28,2.28,0,0,1-.8.46c-.33.11-.74.23-1.21.34l-1.18.29-.82-2.59.89-.22a2.46,2.46,0,0,0,.72-.27.63.63,0,0,0,.21-.55V67.31l-5.6.74.59-7.74,2-.29c.69-.1,1.39-.22,2.1-.34s1.43-.25,2.14-.39S34,59,34.69,58.88s1.28-.27,1.87-.41,1.1-.26,1.56-.39l.55,2.63-2.07.48c-.77.17-1.57.34-2.42.5s-1.71.33-2.59.49L29,62.63l-.18,2.55,2.59-.34V62.63l2.78-.31v2.15l4.93-.65v2.47Zm2.72-.22c.17.19.39.45.65.78l.83,1.08c.29.39.58.79.86,1.2s.54.81.76,1.18l-2.36,1.82c-.18-.35-.4-.74-.65-1.15s-.51-.83-.78-1.24-.55-.78-.82-1.14-.51-.66-.72-.91Z"/><path d="M55.74,61.9v2.21L41.1,66V63.82l3.27-.43.24-1-2.39.31V60.84l2.85-.37.21-.87-3.4.44V57.85L55,56.12v2.2l-6.85.9-.21.88,6-.79-.15,2.85ZM42.55,66.56,54.29,65v5.63L42.55,72.19Zm2.58,3.09,6.44-.84V67.52l-6.44.85ZM47.21,63l3.88-.51.06-.95-3.71.49Z"/><path d="M62.43,64.55c-.18.37-.39.79-.65,1.25s-.54,1-.84,1.44-.6,1-.91,1.43-.58.88-.84,1.25l-2.34-1.13c.27-.36.56-.76.87-1.21s.6-.9.89-1.36.55-.91.79-1.36.43-.83.59-1.18Zm4-1.85v4.12A3.73,3.73,0,0,1,66.27,68a1.63,1.63,0,0,1-.44.73,2.25,2.25,0,0,1-.81.45c-.33.12-.73.23-1.21.35l-1.17.29-.83-2.6L62.7,67a2.35,2.35,0,0,0,.73-.28.62.62,0,0,0,.2-.54V63.07l-5.6.74.59-7.74c.62-.08,1.27-.18,2-.29s1.39-.22,2.1-.34,1.43-.25,2.14-.39,1.41-.27,2.07-.41,1.29-.27,1.87-.41,1.11-.26,1.56-.39l.56,2.63L68.81,57c-.76.17-1.57.34-2.41.5l-2.6.49-2.58.45L61,60.94l2.59-.34V58.38l2.78-.3v2.15l4.93-.65v2.47Zm2.72-.22c.17.19.39.45.65.78s.54.69.83,1.08.58.79.86,1.2.54.81.77,1.18l-2.36,1.82c-.19-.35-.4-.74-.65-1.16s-.52-.82-.79-1.23-.55-.78-.82-1.14-.5-.66-.72-.91Z"/></g><line class="cls-1" x1="84.35" y1="63.74" x2="67.63" y2="63.74"/></g></g></g></svg>