<svg xmlns="http://www.w3.org/2000/svg" viewBox="0 0 96.74 128"><defs><style>.cls-1{fill:none;stroke:#333;stroke-linejoin:round;}.cls-2{opacity:0.16;}</style></defs><title>1-176</title><g id="图层_2" data-name="图层 2"><g id="_1-170_1-176" data-name="1-170——1-176"><g id="_1-176" data-name="1-176"><line class="cls-1" x1="70.12" y1="38.14" x2="95.98" y2="84.38"/><line class="cls-1" x1="96.24" y1="128" x2="96.24" y2="84.64"/><line class="cls-1" x1="96.24" x2="96.24" y2="42.32"/><rect class="cls-1" x="6.53" y="49.25" width="29.1" height="29.1" transform="translate(51.29 3.78) rotate(45)"/><line class="cls-1" x1="16.38" y1="48.33" x2="16.38" y2="79.67"/><line class="cls-1" x1="25.78" y1="48.33" x2="25.78" y2="78.89"/><line class="cls-1" x1="59.67" y1="63.74" x2="41.9" y2="63.74"/><g class="cls-2"><path d="M30.15,68.79c-.18.37-.39.79-.65,1.25s-.54.95-.84,1.44-.6,1-.9,1.43-.59.88-.85,1.25L24.57,73c.27-.37.56-.77.87-1.22s.6-.9.89-1.36.55-.91.79-1.36.44-.83.59-1.18Zm4-1.85v4.12A4.1,4.1,0,0,1,34,72.23a1.74,1.74,0,0,1-.45.73,2.42,2.42,0,0,1-.81.46c-.33.11-.73.23-1.21.34l-1.17.29-.83-2.59.89-.22a2.69,2.69,0,0,0,.73-.27.65.65,0,0,0,.2-.55V67.31l-5.59.74.58-7.74c.62-.08,1.28-.18,2-.29s1.4-.22,2.11-.34l2.14-.39c.71-.13,1.4-.27,2.06-.41s1.29-.27,1.87-.41,1.11-.26,1.57-.39l.55,2.63-2.08.48c-.76.17-1.57.34-2.41.5l-2.6.49-2.58.45-.17,2.55,2.58-.34V62.63l2.78-.31v2.15l4.93-.65v2.47Zm2.72-.22c.17.19.39.45.65.78s.54.69.83,1.08.58.79.86,1.2.54.81.77,1.18L37.6,72.78c-.19-.35-.4-.74-.65-1.15s-.51-.83-.79-1.24l-.81-1.14c-.27-.36-.51-.66-.73-.91Z"/><path d="M55.67,61.9v2.21L41,66V63.82l3.27-.43.25-1-2.4.31V60.84L45,60.47l.21-.87-3.4.44V57.85l13.08-1.73v2.2l-6.85.9-.21.88,6-.79-.15,2.85ZM42.48,66.56,54.23,65v5.63L42.48,72.19Zm2.59,3.09,6.44-.84V67.52l-6.44.85ZM47.15,63,51,62.51l.07-.95-3.71.49Z"/><path d="M62.36,64.55c-.17.37-.39.79-.65,1.25s-.54,1-.84,1.44-.6,1-.9,1.43-.59.88-.85,1.25l-2.34-1.13c.27-.36.56-.76.87-1.21s.61-.9.9-1.36.55-.91.79-1.36.43-.83.58-1.18Zm4-1.85v4.12A4.05,4.05,0,0,1,66.21,68a1.56,1.56,0,0,1-.45.73,2.12,2.12,0,0,1-.8.45c-.33.12-.74.23-1.22.35l-1.17.29-.83-2.6.9-.21a2.26,2.26,0,0,0,.72-.28c.14-.09.2-.27.2-.54V63.07L58,63.81l.58-7.74c.62-.08,1.28-.18,2-.29s1.4-.22,2.11-.34l2.14-.39c.71-.13,1.4-.27,2.06-.41s1.29-.27,1.88-.41,1.1-.26,1.56-.39l.55,2.63L68.75,57c-.77.17-1.57.34-2.42.5l-2.59.49-2.58.45L61,60.94l2.58-.34V58.38l2.79-.3v2.15l4.93-.65v2.47Zm2.71-.22c.18.19.39.45.65.78s.54.69.83,1.08.58.79.87,1.2.53.81.76,1.18l-2.36,1.82c-.18-.35-.4-.74-.65-1.16s-.51-.82-.79-1.23-.55-.78-.81-1.14-.51-.66-.73-.91Z"/></g><line class="cls-1" x1="84.22" y1="63.74" x2="67.5" y2="63.74"/></g></g></g></svg>