<svg xmlns="http://www.w3.org/2000/svg" viewBox="0 0 128.5 103.07"><defs><style>.cls-1{fill:none;stroke:#333;stroke-linejoin:round;}.cls-2{opacity:0.16;}</style></defs><title>1-171</title><g id="图层_2" data-name="图层 2"><g id="_1-170_1-176" data-name="1-170——1-176"><g id="_1-171" data-name="1-171"><line class="cls-1" x1="98.75" y1="51.54" x2="110.9" y2="51.54"/><line class="cls-1" x1="75.71" y1="51.54" x2="89.95" y2="51.54"/><line class="cls-1" x1="57.27" y1="51.54" x2="69.42" y2="51.54"/><line class="cls-1" x1="37.16" y1="51.54" x2="49.31" y2="51.54"/><ellipse class="cls-1" cx="18.73" cy="52.37" rx="18.23" ry="8.59"/><line class="cls-1" x1="18.73" y1="32.89" x2="18.73" y2="43.78"/><g class="cls-2"><path d="M46.28,56.32c-.17.37-.39.79-.65,1.26s-.54,1-.84,1.44-.6,1-.9,1.42-.59.88-.85,1.25L40.7,60.57c.27-.36.56-.76.87-1.21s.61-.9.89-1.36.55-.92.79-1.36.44-.84.59-1.18Zm4-1.84V58.6a4.15,4.15,0,0,1-.13,1.17,1.81,1.81,0,0,1-.45.73,2.41,2.41,0,0,1-.81.45c-.33.11-.73.23-1.21.35l-1.17.28L45.66,59l.9-.21a2.67,2.67,0,0,0,.72-.28.64.64,0,0,0,.2-.55v-3.1l-5.59.73.58-7.74c.62-.08,1.28-.17,2-.28l2.11-.34,2.14-.39,2.06-.41c.66-.14,1.29-.27,1.87-.41l1.57-.39.55,2.63-2.08.47-2.41.51-2.6.48-2.58.46-.17,2.54,2.58-.34V50.16l2.78-.3V52l4.93-.65v2.47ZM53,54.25c.17.2.39.46.65.79l.83,1.07c.29.4.58.8.86,1.21s.54.8.77,1.18l-2.36,1.82c-.18-.36-.4-.74-.65-1.16s-.51-.83-.79-1.23l-.81-1.15c-.27-.36-.51-.66-.73-.9Z"/><path d="M71.8,49.43v2.21L57.16,53.57V51.36l3.27-.43.25-1-2.39.32V48.38L61.13,48l.21-.88-3.4.45v-2.2L71,43.66v2.2l-6.85.9-.21.87,6-.79-.15,2.85ZM58.61,54.1l11.75-1.55v5.63L58.61,59.73Zm2.59,3.09,6.44-.85V55.06l-6.44.84Zm2.08-6.64L67.15,50l.07-.95-3.71.49Z"/><path d="M78.49,52.08c-.17.37-.39.79-.65,1.26s-.54.95-.84,1.43-.6,1-.9,1.43-.59.88-.85,1.25l-2.34-1.12c.27-.36.56-.76.87-1.21s.61-.9.9-1.36.55-.92.79-1.36.43-.84.58-1.18Zm4-1.84v4.11a4.18,4.18,0,0,1-.14,1.18,1.58,1.58,0,0,1-.45.72,2.13,2.13,0,0,1-.8.46c-.33.11-.74.23-1.22.35l-1.17.28-.83-2.59.9-.22a2.46,2.46,0,0,0,.72-.27.62.62,0,0,0,.21-.55V50.6l-5.6.74.58-7.74c.62-.08,1.28-.17,2-.28L78.76,43l2.14-.39L83,42.18c.66-.14,1.28-.27,1.87-.41l1.56-.39L87,44l-2.07.48L82.46,45l-2.59.48-2.58.46-.18,2.54,2.59-.34V45.92l2.78-.3v2.15l4.93-.65v2.47ZM85.19,50c.18.2.4.46.66.79l.83,1.07c.29.39.58.8.86,1.21s.53.8.76,1.17l-2.36,1.83c-.18-.36-.4-.74-.65-1.16s-.51-.83-.79-1.23-.54-.79-.81-1.15-.51-.66-.72-.9Z"/></g><polyline class="cls-1" points="105.88 103.07 105.88 69.13 121.38 30.17"/><polyline class="cls-1" points="128.5 35.61 105.04 35.61 105.04 0"/></g></g></g></svg>