<svg xmlns="http://www.w3.org/2000/svg" viewBox="0 0 129 129"><defs><style>.cls-1{fill:#333;}.cls-2{opacity:0.16;}.cls-3{fill:none;stroke:#333;stroke-linejoin:round;}</style></defs><title>1-188</title><g id="图层_2" data-name="图层 2"><g id="_1-186_1-190" data-name="1-186——1-190"><g id="_1-188" data-name="1-188"><path class="cls-1" d="M26.67,48.73V77.31H25.19V48.73Z"/><path class="cls-1" d="M53.56,36.07l13.08,6.69V44L53.56,50.62V49.36l11.88-6-11.88-6Z"/><path class="cls-1" d="M71.23,50.11a6.2,6.2,0,0,0,6,3.87A5.42,5.42,0,0,0,80,53.26a5,5,0,0,0,1.92-2,6.31,6.31,0,0,0,.69-3A5.88,5.88,0,0,0,81.11,44a5.19,5.19,0,0,0-3.94-1.59A6,6,0,0,0,74.5,43a7.39,7.39,0,0,0-2.25,1.75l-1-.3L72,32.11h10.5v1.11H73.15l-.69,9.87.09,0a6.78,6.78,0,0,1,4.77-1.83,6.68,6.68,0,0,1,3.4.86A5.89,5.89,0,0,1,83,44.58a7.72,7.72,0,0,1,.83,3.64A7.41,7.41,0,0,1,83,51.79a6.07,6.07,0,0,1-2.36,2.43,6.75,6.75,0,0,1-3.43.87A7.59,7.59,0,0,1,73,54a8.13,8.13,0,0,1-2.85-3.3Z"/><path class="cls-1" d="M103.66,54.67H102.4l-2.94-8.1H90.19l-2.94,8.1H86l8.19-22.56h1.29ZM94.78,33.85l-4.2,11.58h8.49l-4.2-11.58Z"/><path class="cls-1" d="M53.56,85.76v-1.2l13.08-6.69v1.26l-11.88,6,11.88,6v1.26Z"/><path class="cls-1" d="M75.19,83.75a7.06,7.06,0,0,1,2.34-.42,6.55,6.55,0,0,1,3.19.81,6.17,6.17,0,0,1,2.39,2.34,6.91,6.91,0,0,1,.9,3.57,7.31,7.31,0,0,1-.86,3.57A6,6,0,0,1,80.74,96a7.25,7.25,0,0,1-3.54.86A7.15,7.15,0,0,1,73,95.64a8.1,8.1,0,0,1-2.76-3.28l1-.54a6.21,6.21,0,0,0,5.91,4,5.77,5.77,0,0,0,2.89-.72,5,5,0,0,0,2-2,6.16,6.16,0,0,0,.71-3,5.84,5.84,0,0,0-.75-3,5.32,5.32,0,0,0-2-2,5.59,5.59,0,0,0-2.8-.72,6.77,6.77,0,0,0-3.42.93l-.66-.9L81.37,75H70.75V73.91H82.9v1l-7.77,8.73Z"/><path class="cls-1" d="M103.81,96.47h-1.26l-2.94-8.1H90.34l-2.94,8.1H86.14l8.19-22.56h1.29ZM94.93,75.65l-4.2,11.58h8.49L95,75.65Z"/><g class="cls-2"><path d="M46.28,69.29c-.17.37-.39.79-.65,1.25s-.54.95-.84,1.44-.6,1-.9,1.43-.59.88-.85,1.25L40.7,73.54c.27-.37.56-.77.87-1.22s.61-.9.89-1.36.55-.91.79-1.36.44-.83.59-1.18Zm4-1.85v4.12a4.1,4.1,0,0,1-.13,1.17,1.74,1.74,0,0,1-.45.73,2.42,2.42,0,0,1-.81.46c-.33.11-.73.23-1.21.34l-1.17.29L45.66,72l.9-.22a2.73,2.73,0,0,0,.72-.27.65.65,0,0,0,.2-.55V67.81l-5.59.74.58-7.74c.62-.08,1.28-.18,2-.29s1.4-.22,2.11-.34l2.14-.39c.71-.13,1.4-.27,2.06-.41S52,59.11,52.62,59s1.11-.26,1.57-.39l.55,2.63-2.08.48c-.76.17-1.57.34-2.41.5l-2.6.49-2.58.45-.17,2.55,2.58-.34V63.13l2.78-.31V65l4.93-.65v2.47ZM53,67.22c.17.19.39.45.65.78s.54.69.83,1.08.58.79.86,1.2.54.81.77,1.18l-2.36,1.82c-.18-.35-.4-.74-.65-1.15s-.51-.83-.79-1.24l-.81-1.14c-.27-.36-.51-.66-.73-.91Z"/><path d="M71.8,62.4v2.21L57.16,66.54V64.32l3.27-.43.25-1-2.39.31V61.34L61.13,61l.21-.87-3.4.44V58.35L71,56.62v2.2l-6.85.9L64,60.6l6-.79-.15,2.85ZM58.61,67.06l11.75-1.55v5.63L58.61,72.69Zm2.59,3.09,6.44-.84V68l-6.44.85Zm2.08-6.63L67.15,63l.07-.95-3.71.49Z"/><path d="M78.49,65.05c-.17.37-.39.79-.65,1.25s-.54,1-.84,1.44-.6,1-.9,1.43-.59.88-.85,1.25l-2.34-1.13c.27-.36.56-.76.87-1.21s.61-.9.9-1.36.55-.91.79-1.36.43-.83.58-1.18Zm4-1.85v4.12a4.05,4.05,0,0,1-.14,1.17,1.56,1.56,0,0,1-.45.73,2.12,2.12,0,0,1-.8.45c-.33.12-.74.23-1.22.35l-1.17.29-.83-2.6.9-.21a2.17,2.17,0,0,0,.72-.28.6.6,0,0,0,.21-.54V63.57l-5.6.74.58-7.74c.62-.08,1.28-.18,2-.29s1.4-.22,2.11-.34l2.14-.39c.72-.13,1.4-.27,2.07-.41s1.28-.27,1.87-.41,1.1-.26,1.56-.39L87,57l-2.07.48c-.77.17-1.57.34-2.42.5s-1.71.33-2.59.49l-2.58.45-.18,2.55,2.59-.34V58.88l2.78-.3v2.15l4.93-.65v2.47ZM85.19,63q.27.29.66.78l.83,1.08c.29.39.58.79.86,1.2s.53.81.76,1.18L85.94,69c-.18-.35-.4-.74-.65-1.16s-.51-.82-.79-1.23-.54-.78-.81-1.14-.51-.66-.72-.91Z"/></g><rect class="cls-3" x="0.5" y="0.5" width="128" height="128"/></g></g></g></svg>