<svg xmlns="http://www.w3.org/2000/svg" viewBox="0 0 98.09 129"><defs><style>.cls-1{fill:#333;}.cls-2{opacity:0.16;}.cls-3{fill:none;stroke:#333;stroke-linejoin:round;}</style></defs><title>1-187</title><g id="图层_2" data-name="图层 2"><g id="_1-186_1-190" data-name="1-186——1-190"><g id="_1-187" data-name="1-187"><path class="cls-1" d="M35.85,26.24a6.38,6.38,0,0,0,1.4-4.34V10.36h1V22.12a7.76,7.76,0,0,1-.75,3.51,5.52,5.52,0,0,1-2.15,2.31,6.44,6.44,0,0,1-3.29.8,6.46,6.46,0,0,1-3.28-.8,5.48,5.48,0,0,1-2.16-2.31,7.76,7.76,0,0,1-.75-3.51V10.36h.93V21.88A7.16,7.16,0,0,0,27.41,25a4.85,4.85,0,0,0,1.84,2.08,5.14,5.14,0,0,0,2.77.73A4.86,4.86,0,0,0,35.85,26.24Z"/><path class="cls-1" d="M58.5,19.84v-1L69,13.53v1l-9.51,4.82L69,24.16v1Z"/><path class="cls-1" d="M22.81,110.82H21.69V91.13l-4.26,2.33V92.25L22,89.76h.81Z"/><path class="cls-1" d="M32.36,99a6.58,6.58,0,0,1,2.18-.4,6.17,6.17,0,0,1,3,.76,5.65,5.65,0,0,1,2.23,2.19,6.44,6.44,0,0,1,.84,3.33,6.83,6.83,0,0,1-.8,3.33,5.54,5.54,0,0,1-2.25,2.25,6.81,6.81,0,0,1-3.31.8,6.71,6.71,0,0,1-3.89-1.16A7.65,7.65,0,0,1,27.76,107l1-.5a5.81,5.81,0,0,0,5.52,3.69,5.36,5.36,0,0,0,2.7-.67,4.68,4.68,0,0,0,1.85-1.89,5.74,5.74,0,0,0,.66-2.78,5.39,5.39,0,0,0-.7-2.76,5,5,0,0,0-1.89-1.89,5.21,5.21,0,0,0-2.62-.67,6.3,6.3,0,0,0-3.19.87l-.62-.85,7.67-8.73H28.21v-1H39.55v1L32.3,98.89Z"/><path class="cls-1" d="M45.56,108.38q-1.73-2.82-1.72-8.06t1.72-8.12a5.63,5.63,0,0,1,9.77,0q1.72,2.82,1.72,8.12t-1.72,8.06a5.63,5.63,0,0,1-9.77,0Zm8.94-.77a15.09,15.09,0,0,0,1.43-7.29A15.25,15.25,0,0,0,54.5,93a4.48,4.48,0,0,0-8.1,0A15.5,15.5,0,0,0,45,100.32a15.34,15.34,0,0,0,1.42,7.29,4.48,4.48,0,0,0,8.1,0Z"/><path class="cls-1" d="M61.06,97.31a4.17,4.17,0,0,1-1.24-3.12,4.4,4.4,0,1,1,8.8,0,4.18,4.18,0,0,1-1.25,3.1,4.66,4.66,0,0,1-6.31,0Zm5.6-.69a3.29,3.29,0,0,0,1-2.43,3.43,3.43,0,0,0-1-2.51,3.58,3.58,0,0,0-4.9,0,3.4,3.4,0,0,0-1,2.51,3.27,3.27,0,0,0,1,2.43,3.62,3.62,0,0,0,4.89,0Zm-3.22,14.2H62.15l15-21.06h1.26Zm9.74-1.22a4.4,4.4,0,1,1,6.33,0,4.72,4.72,0,0,1-6.33,0Zm5.63-.68a3.67,3.67,0,0,0,0-5,3.32,3.32,0,0,0-2.45-1,3.26,3.26,0,0,0-2.43,1,3.37,3.37,0,0,0-1,2.48,3.33,3.33,0,0,0,1,2.47,3.29,3.29,0,0,0,2.43,1A3.37,3.37,0,0,0,78.81,108.92Z"/><path class="cls-1" d="M7.68,64.7a5,5,0,0,0,4.8,3.09,4.35,4.35,0,0,0,2.23-.57,4.07,4.07,0,0,0,1.54-1.62,5,5,0,0,0,.55-2.39,4.67,4.67,0,0,0-1.21-3.38,4.17,4.17,0,0,0-3.16-1.28A4.82,4.82,0,0,0,10.3,59a5.83,5.83,0,0,0-1.8,1.41l-.82-.24.65-9.89h8.4v.89H9.22l-.55,7.89.07,0a5.4,5.4,0,0,1,3.81-1.47,5.33,5.33,0,0,1,2.73.69,4.68,4.68,0,0,1,1.85,1.94,6.19,6.19,0,0,1,.66,2.92A5.89,5.89,0,0,1,17.11,66,4.83,4.83,0,0,1,15.23,68a5.45,5.45,0,0,1-2.75.69,6.08,6.08,0,0,1-3.36-.91,6.59,6.59,0,0,1-2.28-2.64Z"/><path class="cls-1" d="M22.05,66.26a13.31,13.31,0,0,1-1.48-6.91,13.39,13.39,0,0,1,1.48-7,4.82,4.82,0,0,1,8.37,0,13.39,13.39,0,0,1,1.48,7,13.31,13.31,0,0,1-1.48,6.91,4.83,4.83,0,0,1-8.37,0Zm7.66-.66a13,13,0,0,0,1.23-6.25,13.07,13.07,0,0,0-1.23-6.3,3.84,3.84,0,0,0-6.94,0,13.2,13.2,0,0,0-1.22,6.3,13.11,13.11,0,0,0,1.22,6.25,3.84,3.84,0,0,0,6.94,0Z"/><path class="cls-1" d="M35.21,68.35V66.79h1.56v1.56Z"/><path class="cls-1" d="M40.44,68.35V66.79H42v1.56Z"/><path class="cls-1" d="M45.67,68.35V66.79h1.56v1.56Z"/><path class="cls-1" d="M53.29,68a4.92,4.92,0,0,1-2-1.8,5.11,5.11,0,0,1-.19-4.88,5,5,0,0,1,1.4-1.69,4.9,4.9,0,0,1,1.93-.91v-.08a3.81,3.81,0,0,1-2.25-1.44,4.21,4.21,0,0,1-.92-2.71,4.46,4.46,0,0,1,.64-2.36,4.24,4.24,0,0,1,1.76-1.62,5.94,5.94,0,0,1,5.12,0,4.22,4.22,0,0,1,1.75,1.62,4.54,4.54,0,0,1,.62,2.36,4.35,4.35,0,0,1-.91,2.79A3.53,3.53,0,0,1,58,58.67v.08a5,5,0,0,1,3.87,4.87,4.81,4.81,0,0,1-.72,2.61,4.88,4.88,0,0,1-2,1.8,6.23,6.23,0,0,1-2.91.65A6.31,6.31,0,0,1,53.29,68Zm5.32-.79a4.2,4.2,0,0,0-.09-7.55,5.51,5.51,0,0,0-4.63,0,4.17,4.17,0,0,0-1.7,1.49,4.1,4.1,0,0,0-.64,2.32,4.23,4.23,0,0,0,.59,2.22,4,4,0,0,0,1.66,1.52,5.53,5.53,0,0,0,4.81,0Zm.44-10a3.38,3.38,0,0,0,1.14-2.66,3.56,3.56,0,0,0-1.11-2.71,4.42,4.42,0,0,0-5.74,0,3.57,3.57,0,0,0-1.12,2.71,3.38,3.38,0,0,0,1.14,2.66,4.51,4.51,0,0,0,5.69,0Z"/><path class="cls-1" d="M66.3,66.26a13.41,13.41,0,0,1-1.48-6.91,13.49,13.49,0,0,1,1.48-7,4.83,4.83,0,0,1,8.38,0,13.5,13.5,0,0,1,1.47,7,13.42,13.42,0,0,1-1.47,6.91,4.84,4.84,0,0,1-8.38,0ZM74,65.6a13.11,13.11,0,0,0,1.22-6.25A13.2,13.2,0,0,0,74,53.05a3.84,3.84,0,0,0-7,0,13.21,13.21,0,0,0-1.21,6.3A13.12,13.12,0,0,0,67,65.6a3.85,3.85,0,0,0,7,0Z"/><path class="cls-1" d="M84.6,68.35l-6.55-18h1l6,16.63h.07l6-16.63h1l-6.55,18Z"/><g class="cls-2"><path d="M30.82,69.29c-.17.37-.39.79-.65,1.25s-.54.95-.84,1.44-.59,1-.9,1.43-.58.88-.84,1.25l-2.35-1.12c.27-.37.56-.77.87-1.22s.61-.9.9-1.36.55-.91.79-1.36.43-.83.58-1.18Zm4-1.85v4.12a4.05,4.05,0,0,1-.14,1.17,1.56,1.56,0,0,1-.45.73,2.28,2.28,0,0,1-.8.46c-.33.11-.74.23-1.21.34L31,74.55,30.21,72l.89-.22a2.46,2.46,0,0,0,.72-.27.63.63,0,0,0,.21-.55V67.81l-5.6.74L27,60.81l2-.29c.69-.1,1.39-.22,2.1-.34s1.43-.25,2.14-.39,1.41-.27,2.07-.41,1.28-.27,1.87-.41,1.11-.26,1.56-.39l.55,2.63-2.07.48c-.77.17-1.57.34-2.42.5s-1.71.33-2.59.49l-2.58.45-.18,2.55L32,65.34V63.13l2.78-.31V65l4.93-.65v2.47Zm2.72-.22c.17.19.39.45.65.78L39,69.08c.29.39.58.79.86,1.2s.54.81.76,1.18l-2.35,1.82c-.19-.35-.41-.74-.66-1.15s-.51-.83-.78-1.24-.55-.78-.82-1.14-.51-.66-.72-.91Z"/><path d="M56.35,62.4v2.21L41.71,66.54V64.32L45,63.89l.24-1-2.39.31V61.34L45.68,61l.21-.87-3.4.44V58.35l13.08-1.73v2.2l-6.85.9-.21.88,6-.79-.15,2.85ZM43.16,67.06,54.9,65.51v5.63L43.16,72.69Zm2.58,3.09,6.45-.84V68l-6.45.85Zm2.08-6.63L51.7,63l.06-.95-3.71.49Z"/><path d="M63,65.05c-.18.37-.39.79-.65,1.25s-.54,1-.84,1.44-.6,1-.91,1.43-.58.88-.84,1.25l-2.34-1.13c.27-.36.56-.76.87-1.21s.6-.9.89-1.36.55-.91.79-1.36.43-.83.59-1.18Zm4-1.85v4.12a3.73,3.73,0,0,1-.14,1.17,1.63,1.63,0,0,1-.44.73,2.25,2.25,0,0,1-.81.45c-.33.12-.73.23-1.21.35l-1.17.29-.83-2.6.89-.21a2.35,2.35,0,0,0,.73-.28.62.62,0,0,0,.2-.54V63.57l-5.6.74.59-7.74c.62-.08,1.27-.18,2-.29s1.39-.22,2.1-.34,1.43-.25,2.14-.39,1.41-.27,2.07-.41,1.29-.27,1.87-.41,1.11-.26,1.56-.39L71.5,57l-2.08.48c-.76.17-1.57.34-2.41.5l-2.6.49-2.58.45-.18,2.55,2.59-.34V58.88l2.78-.3v2.15L72,60.08v2.47ZM69.74,63c.17.19.39.45.65.78s.54.69.83,1.08.58.79.86,1.2.54.81.77,1.18L70.49,69c-.19-.35-.4-.74-.65-1.16s-.52-.82-.79-1.23-.55-.78-.82-1.14-.5-.66-.72-.91Z"/></g><rect class="cls-3" x="0.5" y="0.5" width="97.09" height="128"/></g></g></g></svg>