<svg xmlns="http://www.w3.org/2000/svg" viewBox="0 0 129 88.77"><defs><style>.cls-1{fill:none;}.cls-1,.cls-3{stroke:#333;stroke-linejoin:round;}.cls-2{opacity:0.16;}.cls-3{fill:#333;}</style></defs><title>1-186</title><g id="图层_2" data-name="图层 2"><g id="_1-186_1-190" data-name="1-186——1-190"><g id="_1-186" data-name="1-186"><rect class="cls-1" x="0.5" y="0.5" width="128" height="87.77"/><g class="cls-2"><path d="M46.28,49.17c-.17.37-.39.79-.65,1.26s-.54,1-.84,1.44-.6,1-.9,1.42-.59.88-.85,1.25L40.7,53.42c.27-.36.56-.76.87-1.21s.61-.9.89-1.36.55-.92.79-1.36.44-.84.59-1.18Zm4-1.84v4.12a4.15,4.15,0,0,1-.13,1.17,1.81,1.81,0,0,1-.45.73,2.41,2.41,0,0,1-.81.45c-.33.12-.73.23-1.21.35l-1.17.28-.83-2.59.9-.21a2.67,2.67,0,0,0,.72-.28.64.64,0,0,0,.2-.55V47.7l-5.59.73.58-7.74c.62-.08,1.28-.17,2-.28l2.11-.34,2.14-.39,2.06-.41c.66-.14,1.29-.27,1.87-.41l1.57-.39.55,2.63-2.08.47-2.41.51-2.6.49L45.07,43l-.17,2.54,2.58-.34V43l2.78-.3v2.15l4.93-.65v2.47ZM53,47.1c.17.2.39.46.65.79s.54.69.83,1.08.58.79.86,1.2.54.81.77,1.18l-2.36,1.82c-.18-.36-.4-.74-.65-1.16s-.51-.83-.79-1.23l-.81-1.14a10.64,10.64,0,0,0-.73-.91Z"/><path d="M71.8,42.28v2.21L57.16,46.42V44.21l3.27-.43.25-1-2.39.32V41.23l2.84-.37.21-.88-3.4.45v-2.2L71,36.51v2.2l-6.85.9-.21.87,6-.79-.15,2.85ZM58.61,47,70.36,45.4V51L58.61,52.58ZM61.2,50l6.44-.85V47.91l-6.44.84Zm2.08-6.64,3.87-.51.07-1-3.71.49Z"/><path d="M78.49,44.93c-.17.37-.39.79-.65,1.26s-.54,1-.84,1.44-.6,1-.9,1.42-.59.88-.85,1.25l-2.34-1.12c.27-.36.56-.76.87-1.21s.61-.9.9-1.36.55-.92.79-1.36.43-.84.58-1.18Zm4-1.84V47.2a4.18,4.18,0,0,1-.14,1.18,1.61,1.61,0,0,1-.45.73,2.27,2.27,0,0,1-.8.45c-.33.11-.74.23-1.22.35l-1.17.28-.83-2.59.9-.22a2.2,2.2,0,0,0,.72-.27.62.62,0,0,0,.21-.55V43.45l-5.6.74.58-7.74c.62-.08,1.28-.17,2-.28l2.11-.34,2.14-.39L83,35c.66-.14,1.28-.27,1.87-.41l1.56-.39L87,36.86l-2.07.47-2.42.51-2.59.48-2.58.46-.18,2.54L79.7,41V38.77l2.78-.3v2.15L87.41,40v2.47Zm2.71-.23c.18.2.4.46.66.79l.83,1.07c.29.39.58.8.86,1.21s.53.8.76,1.18l-2.36,1.82c-.18-.36-.4-.74-.65-1.16s-.51-.83-.79-1.23-.54-.78-.81-1.15-.51-.66-.72-.9Z"/></g><polygon class="cls-3" points="64.5 37.46 66.75 42.02 71.78 42.75 68.14 46.3 69 51.31 64.5 48.95 60 51.31 60.86 46.3 57.22 42.75 62.25 42.02 64.5 37.46"/></g></g></g></svg>