<svg xmlns="http://www.w3.org/2000/svg" viewBox="0 0 129 129"><defs><style>.cls-1{fill:#333;}.cls-2{opacity:0.16;}.cls-3{fill:none;stroke:#333;stroke-linejoin:round;}</style></defs><title>1-194</title><g id="图层_2" data-name="图层 2"><g id="_1-191_1-200" data-name="1-191——1-200"><g id="_1-194" data-name="1-194"><path class="cls-1" d="M78.18,52.27h-1.1L72.28,39H56.72l-4.8,13.24h-1.1l13.1-36h1.16ZM64.45,17.86,57.11,38H71.89L64.55,17.86Z"/><g class="cls-2"><path d="M46.28,69.29c-.17.37-.39.79-.65,1.25s-.54.95-.84,1.44-.6,1-.9,1.43-.59.88-.85,1.25L40.7,73.54c.27-.37.56-.77.87-1.22s.61-.9.89-1.36.55-.91.79-1.36.44-.83.59-1.18Zm4-1.85v4.12a4.1,4.1,0,0,1-.13,1.17,1.74,1.74,0,0,1-.45.73,2.42,2.42,0,0,1-.81.46c-.33.11-.73.23-1.21.34l-1.17.29L45.66,72l.9-.22a2.73,2.73,0,0,0,.72-.27.65.65,0,0,0,.2-.55V67.81l-5.59.74.58-7.74c.62-.08,1.28-.18,2-.29s1.4-.22,2.11-.34l2.14-.39c.71-.13,1.4-.27,2.06-.41S52,59.11,52.62,59s1.11-.26,1.57-.39l.55,2.63-2.08.48c-.76.17-1.57.34-2.41.5l-2.6.49-2.58.45-.17,2.55,2.58-.34V63.13l2.78-.31V65l4.93-.65v2.47ZM53,67.22c.17.19.39.45.65.78s.54.69.83,1.08.58.79.86,1.2.54.81.77,1.18l-2.36,1.82c-.18-.35-.4-.74-.65-1.15s-.51-.83-.79-1.24l-.81-1.14c-.27-.36-.51-.66-.73-.91Z"/><path d="M71.8,62.4v2.21L57.16,66.54V64.32l3.27-.43.25-1-2.39.31V61.34L61.13,61l.21-.87-3.4.44V58.35L71,56.62v2.2l-6.85.9L64,60.6l6-.79-.15,2.85ZM58.61,67.06l11.75-1.55v5.63L58.61,72.69Zm2.59,3.09,6.44-.84V68l-6.44.85Zm2.08-6.63L67.15,63l.07-.95-3.71.49Z"/><path d="M78.49,65.05c-.17.37-.39.79-.65,1.25s-.54,1-.84,1.44-.6,1-.9,1.43-.59.88-.85,1.25l-2.34-1.13c.27-.36.56-.76.87-1.21s.61-.9.9-1.36.55-.91.79-1.36.43-.83.58-1.18Zm4-1.85v4.12a4.05,4.05,0,0,1-.14,1.17,1.56,1.56,0,0,1-.45.73,2.12,2.12,0,0,1-.8.45c-.33.12-.74.23-1.22.35l-1.17.29-.83-2.6.9-.21a2.17,2.17,0,0,0,.72-.28.6.6,0,0,0,.21-.54V63.57l-5.6.74.58-7.74c.62-.08,1.28-.18,2-.29s1.4-.22,2.11-.34l2.14-.39c.72-.13,1.4-.27,2.07-.41s1.28-.27,1.87-.41,1.1-.26,1.56-.39L87,57l-2.07.48c-.77.17-1.57.34-2.42.5s-1.71.33-2.59.49l-2.58.45-.18,2.55,2.59-.34V58.88l2.78-.3v2.15l4.93-.65v2.47ZM85.19,63q.27.29.66.78l.83,1.08c.29.39.58.79.86,1.2s.53.81.76,1.18L85.94,69c-.18-.35-.4-.74-.65-1.16s-.51-.82-.79-1.23-.54-.78-.81-1.14-.51-.66-.72-.91Z"/></g><path class="cls-1" d="M17.23,64.27v36H16.17v-36Z"/><path class="cls-1" d="M26.73,99.52a9,9,0,0,1-3.79-3.86l.91-.48a8.43,8.43,0,0,0,3.5,3.5,10.63,10.63,0,0,0,5.24,1.3,9.81,9.81,0,0,0,5.78-1.54,4.82,4.82,0,0,0,2.18-4.17q0-4.23-8.16-6a16.64,16.64,0,0,1-6.31-2.59A5.18,5.18,0,0,1,24,81.31a5.86,5.86,0,0,1,2.3-4.85,9.78,9.78,0,0,1,6.24-1.82,10.48,10.48,0,0,1,5.42,1.41,9.32,9.32,0,0,1,3.65,3.87l-.91.48a8.67,8.67,0,0,0-3.34-3.51,9.38,9.38,0,0,0-4.87-1.29A8.84,8.84,0,0,0,27,77.13a5,5,0,0,0-2,4.13A4.37,4.37,0,0,0,27,85a18,18,0,0,0,6.17,2.36A15.14,15.14,0,0,1,39.35,90a5.21,5.21,0,0,1,2.21,4.27,5.79,5.79,0,0,1-2.45,4.9,10.68,10.68,0,0,1-6.52,1.82A11.8,11.8,0,0,1,26.73,99.52Z"/><path class="cls-1" d="M48.86,65.66A1.2,1.2,0,0,1,48,66a1.16,1.16,0,0,1-1.2-1.2,1.2,1.2,0,0,1,.34-.87A1.17,1.17,0,0,1,48,63.6a1.13,1.13,0,0,1,1.2,1.2A1.17,1.17,0,0,1,48.86,65.66Zm-.39,9.65v25.1h-1V75.31Z"/><path class="cls-1" d="M56.49,100.27v-25h1v5.85h.09a10.3,10.3,0,0,1,3.72-4.77,10,10,0,0,1,5.88-1.75,8.41,8.41,0,0,1,6.7,2.85,11.37,11.37,0,0,1,2.47,7.71v15.07h-1V85.48a11,11,0,0,0-2.2-7.22,7.39,7.39,0,0,0-6-2.66,9,9,0,0,0-5,1.44,9.81,9.81,0,0,0-3.41,3.72,10.11,10.11,0,0,0-1.2,4.77v14.74Z"/><path class="cls-1" d="M90,87.4l8.88,12.87H97.67l-8.3-12.1-8.21,12.1H79.91l8.88-13-8.2-12h1.2l7.63,11.18L97,75.31h1.2Z"/><circle class="cls-3" cx="64.5" cy="64.5" r="64"/><path class="cls-3" d="M105.61,79.9s-10.14,20.54,7,13.26c0,0,7.8-6.24,3.64-13.52,0,0-8.84-6.24-9.36,20.8"/></g></g></g></svg>