<svg xmlns="http://www.w3.org/2000/svg" viewBox="0 0 128.5 74.41"><defs><style>.cls-1{fill:none;stroke:#333;stroke-linejoin:round;}.cls-2{fill:#333;}.cls-3{opacity:0.16;}</style></defs><title>1-195</title><g id="图层_2" data-name="图层 2"><g id="_1-191_1-200" data-name="1-191——1-200"><g id="_1-195" data-name="1-195"><line class="cls-1" x1="54.6" y1="37.2" y2="37.2"/><path class="cls-2" d="M85.42,34.77l-5.59-20.7H81l5,18.75h.08l5.37-18.75h1.24l5.36,18.75h.09l5.06-18.75h1.16l-5.65,20.7H97.56L92.14,15.89h-.09L86.63,34.77Z"/><path class="cls-2" d="M68.11,39.3a8.93,8.93,0,0,1,5.64,1.57,5.43,5.43,0,0,1,2,4.52,5.41,5.41,0,0,1-2,4.48,8.79,8.79,0,0,1-5.62,1.57H63.45V60H62.38V39.3ZM68,50.42a8,8,0,0,0,4.91-1.3,4.4,4.4,0,0,0,1.72-3.73,4.39,4.39,0,0,0-1.72-3.73A8,8,0,0,0,68,40.35H63.45V50.42Z"/><path class="cls-2" d="M78.15,60V48.53H79v2.25h0a4.67,4.67,0,0,1,1.55-1.85,3.69,3.69,0,0,1,2.15-.71A3.31,3.31,0,0,1,85,49a4.46,4.46,0,0,1,1.31,2.24h.06A4.43,4.43,0,0,1,87.91,49a4,4,0,0,1,2.48-.82,3.47,3.47,0,0,1,2.85,1.29A5.34,5.34,0,0,1,94.29,53V60h-.84V53.16a4.85,4.85,0,0,0-.86-3A2.72,2.72,0,0,0,90.28,49a3.39,3.39,0,0,0-1.86.53,3.61,3.61,0,0,0-1.3,1.5,5,5,0,0,0-.47,2.2V60h-.86V53.16a4.86,4.86,0,0,0-.87-3A2.72,2.72,0,0,0,82.64,49a3.22,3.22,0,0,0-1.78.55,4.07,4.07,0,0,0-1.35,1.52,4.71,4.71,0,0,0-.5,2.16V60Z"/><path class="cls-2" d="M98,59.54a2.67,2.67,0,0,1-1-2.18c0-2.38,2-3.57,6.08-3.57h2V52.3a3.24,3.24,0,0,0-.91-2.44A3.49,3.49,0,0,0,101.6,49a4.28,4.28,0,0,0-1.57.32,6.85,6.85,0,0,0-1.53.87L98,49.57a5.67,5.67,0,0,1,1.72-1,5.45,5.45,0,0,1,2-.36,4.43,4.43,0,0,1,3.09,1,3.66,3.66,0,0,1,1.09,2.83v8H105V57.85H105a4.44,4.44,0,0,1-1.79,1.87,5.1,5.1,0,0,1-2.51.61A4.07,4.07,0,0,1,98,59.54Zm5-.48a4,4,0,0,0,1.55-1.4,3.7,3.7,0,0,0,.58-2v-1h-1.83q-5.35,0-5.35,2.71A2,2,0,0,0,98.62,59a3.36,3.36,0,0,0,2.14.59A4.57,4.57,0,0,0,102.91,59.06Z"/><path class="cls-2" d="M112.57,54.12,116.64,60h-1L112,54.74,108.47,60h-1l4.11-6-3.81-5.51h1l3.34,4.93,3.26-4.93h1Z"/><circle class="cls-1" cx="91.3" cy="37.2" r="36.7"/><g class="cls-3"><path d="M45.78,42c-.17.37-.39.79-.65,1.26s-.54.94-.84,1.43-.6,1-.9,1.43-.59.88-.85,1.25L40.2,46.24c.27-.36.56-.77.87-1.21s.61-.91.89-1.37.55-.91.79-1.35.44-.84.59-1.19Zm4-1.84v4.11a4.23,4.23,0,0,1-.13,1.18,1.77,1.77,0,0,1-.45.72,2.42,2.42,0,0,1-.81.46c-.33.11-.73.23-1.21.34L46,47.25l-.83-2.59.9-.22a2.73,2.73,0,0,0,.72-.27.65.65,0,0,0,.2-.55V40.51l-5.59.74L42,33.51l2-.28,2.11-.35,2.14-.38,2.06-.41,1.87-.41c.59-.14,1.11-.27,1.57-.4l.55,2.63-2.08.48c-.76.17-1.57.34-2.41.5l-2.6.49-2.58.46-.17,2.54L47,38V35.83l2.78-.3v2.14L54.69,37V39.5Zm2.72-.23c.17.19.39.46.65.78s.54.69.83,1.08.58.79.86,1.21.54.8.77,1.17L53.23,46c-.18-.36-.4-.74-.65-1.16s-.51-.83-.79-1.23L51,42.45c-.27-.36-.51-.66-.73-.9Z"/><path d="M71.3,35.1v2.21L56.66,39.24V37l3.27-.43.25-1-2.39.32V34.05l2.84-.38.21-.87-3.4.45v-2.2l13.08-1.72v2.19l-6.85.91-.21.87,6-.79-.15,2.85ZM58.11,39.76l11.75-1.54v5.63L58.11,45.39Zm2.59,3.1L67.14,42V40.72l-6.44.85Zm2.08-6.64,3.87-.51.07-1L63,35.25Z"/><path d="M78,37.75c-.17.37-.39.79-.65,1.26s-.54.94-.84,1.43-.6,1-.9,1.43-.59.88-.85,1.25L72.41,42c.27-.36.56-.77.87-1.21s.61-.91.9-1.37.55-.91.79-1.35.43-.84.58-1.19Zm4-1.84V40a4.18,4.18,0,0,1-.14,1.18,1.58,1.58,0,0,1-.45.72,2.28,2.28,0,0,1-.8.46c-.33.11-.74.23-1.22.34L78.2,43l-.83-2.59.9-.22a2.46,2.46,0,0,0,.72-.27.63.63,0,0,0,.21-.55V36.27L73.6,37l.58-7.74c.62-.08,1.28-.18,2-.29s1.4-.22,2.11-.34l2.14-.38,2.07-.41,1.87-.41c.58-.14,1.1-.27,1.56-.4l.55,2.63-2.07.48c-.77.17-1.57.34-2.42.5s-1.71.33-2.59.49l-2.58.45-.18,2.55,2.59-.34V31.59l2.78-.3v2.14l4.93-.65v2.48Zm2.71-.23q.27.28.66.78l.83,1.08c.29.39.58.79.86,1.21s.53.8.76,1.17l-2.36,1.83c-.18-.36-.4-.75-.65-1.16s-.51-.83-.79-1.23-.54-.79-.81-1.15-.51-.66-.72-.9Z"/></g><line class="cls-1" x1="29.13" y1="32.61" x2="33.72" y2="37.2"/><line class="cls-1" x1="33.72" y1="37.2" x2="29.13" y2="41.79"/></g></g></g></svg>