<svg xmlns="http://www.w3.org/2000/svg" viewBox="0 0 129 65"><defs><style>.cls-1{fill:#333;}.cls-1,.cls-2{stroke:#333;stroke-linejoin:round;}.cls-2{fill:none;}.cls-3{opacity:0.16;}</style></defs><title>1-207</title><g id="图层_2" data-name="图层 2"><g id="_1-201_1-209" data-name="1-201——1-209"><g id="_1-207" data-name="1-207"><polygon class="cls-1" points="32.5 25.41 34.8 30.08 39.96 30.83 36.23 34.46 37.11 39.59 32.5 37.17 27.89 39.59 28.77 34.46 25.04 30.83 30.2 30.08 32.5 25.41"/><rect class="cls-2" x="0.5" y="0.5" width="64" height="64"/><polygon class="cls-1" points="96.5 25.41 98.81 30.08 103.96 30.83 100.23 34.46 101.11 39.59 96.5 37.17 91.89 39.59 92.77 34.46 89.04 30.83 94.19 30.08 96.5 25.41"/><rect class="cls-2" x="64.5" y="0.5" width="64" height="64"/><g class="cls-3"><path d="M46.28,37.29c-.17.37-.39.79-.65,1.25s-.54,1-.84,1.44-.6,1-.9,1.43-.59.88-.85,1.25L40.7,41.54c.27-.37.56-.77.87-1.22s.61-.9.89-1.36.55-.91.79-1.36.44-.83.59-1.18Zm4-1.85v4.12a4.1,4.1,0,0,1-.13,1.17,1.74,1.74,0,0,1-.45.73,2.42,2.42,0,0,1-.81.46c-.33.11-.73.23-1.21.34l-1.17.29L45.66,40l.9-.22a2.73,2.73,0,0,0,.72-.27.65.65,0,0,0,.2-.55V35.81l-5.59.74.58-7.74c.62-.08,1.28-.18,2-.29s1.4-.22,2.11-.34l2.14-.39c.71-.13,1.4-.27,2.06-.41S52,27.11,52.62,27s1.11-.26,1.57-.39l.55,2.63-2.08.48c-.76.17-1.57.34-2.41.5l-2.6.49-2.58.45-.17,2.55,2.58-.34V31.13l2.78-.31V33l4.93-.65v2.47ZM53,35.22c.17.19.39.45.65.78s.54.69.83,1.08.58.79.86,1.2.54.81.77,1.18l-2.36,1.82c-.18-.35-.4-.74-.65-1.15s-.51-.83-.79-1.24l-.81-1.14c-.27-.36-.51-.66-.73-.91Z"/><path d="M71.8,30.4v2.21L57.16,34.54V32.32l3.27-.43.25-1-2.39.31V29.34L61.13,29l.21-.87-3.4.44V26.35L71,24.62v2.2l-6.85.9L64,28.6l6-.79-.15,2.85ZM58.61,35.06l11.75-1.55v5.63L58.61,40.69Zm2.59,3.09,6.44-.84V36l-6.44.85Zm2.08-6.63L67.15,31l.07-1-3.71.49Z"/><path d="M78.49,33.05c-.17.37-.39.79-.65,1.25s-.54,1-.84,1.44-.6,1-.9,1.43-.59.88-.85,1.25l-2.34-1.13c.27-.36.56-.76.87-1.21s.61-.9.9-1.36.55-.91.79-1.36.43-.83.58-1.18Zm4-1.85v4.12a4.05,4.05,0,0,1-.14,1.17,1.56,1.56,0,0,1-.45.73,2.12,2.12,0,0,1-.8.45c-.33.12-.74.23-1.22.35l-1.17.29-.83-2.6.9-.21a2.17,2.17,0,0,0,.72-.28.6.6,0,0,0,.21-.54V31.57l-5.6.74.58-7.74c.62-.08,1.28-.18,2-.29s1.4-.22,2.11-.34l2.14-.39c.72-.13,1.4-.27,2.07-.41s1.28-.27,1.87-.41,1.1-.26,1.56-.39L87,25l-2.07.48c-.77.17-1.57.34-2.42.5s-1.71.33-2.59.49l-2.58.45-.18,2.55,2.59-.34V26.88l2.78-.3v2.15l4.93-.65v2.47ZM85.19,31q.27.29.66.78l.83,1.08c.29.39.58.79.86,1.2s.53.81.76,1.18L85.94,37c-.18-.35-.4-.74-.65-1.16s-.51-.82-.79-1.23-.54-.78-.81-1.14-.51-.66-.72-.91Z"/></g></g></g></g></svg>