<svg xmlns="http://www.w3.org/2000/svg" viewBox="0 0 88.37 129"><defs><style>.cls-1{fill:#333;}.cls-2{fill:none;stroke:#333;stroke-linejoin:round;}.cls-3{opacity:0.16;}</style></defs><title>1-208</title><g id="图层_2" data-name="图层 2"><g id="_1-201_1-209" data-name="1-201——1-209"><g id="_1-208" data-name="1-208"><path class="cls-1" d="M19.42,105.85l-9.75-36h1.1L20,104h.1L30,69.85h1.34L41.16,104h.1l9.26-34.18h1.1l-9.79,36h-1.2L30.69,71.48H30.6l-10,34.37Z"/><path class="cls-1" d="M56.23,105.85v-36h1v16.9h.09A10.23,10.23,0,0,1,61.06,82a10,10,0,0,1,5.87-1.75,8.39,8.39,0,0,1,6.7,2.86,11.34,11.34,0,0,1,2.47,7.7v15.07h-1V91.07a11,11,0,0,0-2.21-7.23,7.42,7.42,0,0,0-6-2.66,9,9,0,0,0-5,1.44,9.81,9.81,0,0,0-3.41,3.72,10.12,10.12,0,0,0-1.2,4.78v14.73Z"/><rect class="cls-2" x="0.5" y="45.2" width="87.37" height="83.3"/><rect class="cls-2" x="0.5" y="0.5" width="87.37" height="44.7"/><g class="cls-3"><path d="M26,69.29c-.17.37-.39.79-.65,1.25s-.54.95-.84,1.44-.6,1-.9,1.43-.59.88-.85,1.25l-2.34-1.12c.27-.37.56-.77.87-1.22s.61-.9.9-1.36.55-.91.79-1.36.43-.83.58-1.18Zm4-1.85v4.12a4.05,4.05,0,0,1-.14,1.17,1.56,1.56,0,0,1-.45.73,2.28,2.28,0,0,1-.8.46c-.33.11-.74.23-1.22.34l-1.17.29L25.34,72l.9-.22a2.59,2.59,0,0,0,.72-.27.63.63,0,0,0,.2-.55V67.81l-5.59.74.58-7.74c.62-.08,1.28-.18,2-.29s1.4-.22,2.11-.34l2.14-.39c.71-.13,1.4-.27,2.07-.41s1.28-.27,1.87-.41,1.1-.26,1.56-.39l.55,2.63-2.07.48c-.77.17-1.57.34-2.42.5l-2.59.49-2.58.45-.18,2.55,2.58-.34V63.13L30,62.82V65l4.93-.65v2.47Zm2.71-.22c.18.19.39.45.65.78s.54.69.83,1.08.58.79.87,1.2.53.81.76,1.18l-2.36,1.82c-.18-.35-.4-.74-.65-1.15s-.51-.83-.79-1.24-.55-.78-.81-1.14-.51-.66-.72-.91Z"/><path d="M51.49,62.4v2.21L36.85,66.54V64.32l3.27-.43.24-1L38,63.23V61.34L40.81,61,41,60.1l-3.4.44V58.35l13.08-1.73v2.2l-6.85.9-.21.88,6-.79-.14,2.85Zm-13.2,4.66L50,65.51v5.63L38.29,72.69Zm2.59,3.09,6.44-.84V68l-6.44.85ZM43,63.52,46.83,63l.07-.95-3.71.49Z"/><path d="M58.17,65.05c-.17.37-.39.79-.65,1.25s-.54,1-.83,1.44-.6,1-.91,1.43-.58.88-.84,1.25l-2.35-1.13c.28-.36.56-.76.87-1.21s.61-.9.9-1.36.55-.91.79-1.36.43-.83.58-1.18Zm4-1.85v4.12A4.05,4.05,0,0,1,62,68.49a1.56,1.56,0,0,1-.45.73,2.12,2.12,0,0,1-.8.45c-.33.12-.74.23-1.21.35l-1.17.29-.83-2.6.89-.21a2.17,2.17,0,0,0,.72-.28.6.6,0,0,0,.21-.54V63.57l-5.6.74.59-7.74c.62-.08,1.27-.18,2-.29s1.39-.22,2.1-.34,1.43-.25,2.14-.39,1.41-.27,2.07-.41,1.28-.27,1.87-.41,1.11-.26,1.56-.39L66.63,57l-2.07.48c-.76.17-1.57.34-2.42.5s-1.71.33-2.59.49L57,58.89l-.18,2.55,2.59-.34V58.88l2.78-.3v2.15l4.93-.65v2.47ZM64.88,63c.17.19.39.45.65.78l.83,1.08c.29.39.58.79.86,1.2s.54.81.76,1.18L65.63,69c-.19-.35-.41-.74-.65-1.16s-.52-.82-.79-1.23-.55-.78-.82-1.14-.5-.66-.72-.91Z"/></g></g></g></g></svg>