<svg xmlns="http://www.w3.org/2000/svg" viewBox="0 0 129 129"><defs><style>.cls-1{fill:#333;}.cls-2{opacity:0.16;}.cls-3{fill:none;stroke:#333;stroke-linejoin:round;}</style></defs><title>1-202</title><g id="图层_2" data-name="图层 2"><g id="_1-201_1-209" data-name="1-201——1-209"><g id="_1-202" data-name="1-202"><path class="cls-1" d="M19.26,81.41H18.2v-36h1.49L42.35,80.07h.09V45.41H43.5v36H42L19.36,46.75h-.1Z"/><path class="cls-1" d="M52.19,80.43a5.61,5.61,0,0,1-2.07-4.64,6.11,6.11,0,0,1,3.36-5.61q3.36-1.92,10.18-1.92h4.46V64.51A7.66,7.66,0,0,0,66,58.75a8.37,8.37,0,0,0-6-2,9.82,9.82,0,0,0-3.45.65,14.3,14.3,0,0,0-3.46,1.84l-.58-.81a14.1,14.1,0,0,1,3.65-2,12.11,12.11,0,0,1,4-.69q4.32,0,6.63,2.11a7.88,7.88,0,0,1,2.3,6.1V81.41h-1V76.23H68a10.52,10.52,0,0,1-10,5.85A9.16,9.16,0,0,1,52.19,80.43Zm11.13-.56a9.21,9.21,0,0,0,3.53-3.36,8.81,8.81,0,0,0,1.27-4.65V69.22H63.76q-6.34,0-9.48,1.65a5.23,5.23,0,0,0-3.15,4.83,4.78,4.78,0,0,0,1.83,4,8.3,8.3,0,0,0,5.18,1.41A10.43,10.43,0,0,0,63.32,79.87Z"/><path class="cls-1" d="M102,77.19a12.42,12.42,0,0,1-4.68,3.62,14.7,14.7,0,0,1-6.16,1.27,15.27,15.27,0,0,1-8.43-2.3,14.87,14.87,0,0,1-5.49-6.55,24.16,24.16,0,0,1-1.92-10,23.2,23.2,0,0,1,1.92-9.79A14.62,14.62,0,0,1,82.69,47a15.5,15.5,0,0,1,8.43-2.25A14.11,14.11,0,0,1,97,46a15.77,15.77,0,0,1,5,3.62l-.77.72A14.39,14.39,0,0,0,96.59,47a13.13,13.13,0,0,0-5.47-1.24,14.26,14.26,0,0,0-7.85,2.13A13.85,13.85,0,0,0,78.13,54a22.16,22.16,0,0,0-1.8,9.27,23.14,23.14,0,0,0,1.8,9.5,13.85,13.85,0,0,0,5.14,6.19,14.11,14.11,0,0,0,7.85,2.16,12,12,0,0,0,10.08-4.65Z"/><path class="cls-1" d="M108,45.41h1V78.19a2.07,2.07,0,0,0,2.4,2.4h1.92v1h-2.11a3.26,3.26,0,0,1-2.4-.81,3.21,3.21,0,0,1-.82-2.35Z"/><g class="cls-2"><path d="M46.28,69.29c-.17.37-.39.79-.65,1.25s-.54.95-.84,1.44-.6,1-.9,1.43-.59.88-.85,1.25L40.7,73.54c.27-.37.56-.77.87-1.22s.61-.9.89-1.36.55-.91.79-1.36.44-.83.59-1.18Zm4-1.85v4.12a4.1,4.1,0,0,1-.13,1.17,1.74,1.74,0,0,1-.45.73,2.42,2.42,0,0,1-.81.46c-.33.11-.73.23-1.21.34l-1.17.29L45.66,72l.9-.22a2.73,2.73,0,0,0,.72-.27.65.65,0,0,0,.2-.55V67.81l-5.59.74.58-7.74c.62-.08,1.28-.18,2-.29s1.4-.22,2.11-.34l2.14-.39c.71-.13,1.4-.27,2.06-.41S52,59.11,52.62,59s1.11-.26,1.57-.39l.55,2.63-2.08.48c-.76.17-1.57.34-2.41.5l-2.6.49-2.58.45-.17,2.55,2.58-.34V63.13l2.78-.31V65l4.93-.65v2.47ZM53,67.22c.17.19.39.45.65.78s.54.69.83,1.08.58.79.86,1.2.54.81.77,1.18l-2.36,1.82c-.18-.35-.4-.74-.65-1.15s-.51-.83-.79-1.24l-.81-1.14c-.27-.36-.51-.66-.73-.91Z"/><path d="M71.8,62.4v2.21L57.16,66.54V64.32l3.27-.43.25-1-2.39.31V61.34L61.13,61l.21-.87-3.4.44V58.35L71,56.62v2.2l-6.85.9L64,60.6l6-.79-.15,2.85ZM58.61,67.06l11.75-1.55v5.63L58.61,72.69Zm2.59,3.09,6.44-.84V68l-6.44.85Zm2.08-6.63L67.15,63l.07-.95-3.71.49Z"/><path d="M78.49,65.05c-.17.37-.39.79-.65,1.25s-.54,1-.84,1.44-.6,1-.9,1.43-.59.88-.85,1.25l-2.34-1.13c.27-.36.56-.76.87-1.21s.61-.9.9-1.36.55-.91.79-1.36.43-.83.58-1.18Zm4-1.85v4.12a4.05,4.05,0,0,1-.14,1.17,1.56,1.56,0,0,1-.45.73,2.12,2.12,0,0,1-.8.45c-.33.12-.74.23-1.22.35l-1.17.29-.83-2.6.9-.21a2.17,2.17,0,0,0,.72-.28.6.6,0,0,0,.21-.54V63.57l-5.6.74.58-7.74c.62-.08,1.28-.18,2-.29s1.4-.22,2.11-.34l2.14-.39c.72-.13,1.4-.27,2.07-.41s1.28-.27,1.87-.41,1.1-.26,1.56-.39L87,57l-2.07.48c-.77.17-1.57.34-2.42.5s-1.71.33-2.59.49l-2.58.45-.18,2.55,2.59-.34V58.88l2.78-.3v2.15l4.93-.65v2.47ZM85.19,63q.27.29.66.78l.83,1.08c.29.39.58.79.86,1.2s.53.81.76,1.18L85.94,69c-.18-.35-.4-.74-.65-1.16s-.51-.82-.79-1.23-.54-.78-.81-1.14-.51-.66-.72-.91Z"/></g><circle class="cls-3" cx="64.5" cy="64.5" r="64"/></g></g></g></svg>