<svg xmlns="http://www.w3.org/2000/svg" viewBox="0 0 129 65"><defs><style>.cls-1{fill:#333;}.cls-2{fill:none;stroke:#333;stroke-linejoin:round;}.cls-3{opacity:0.16;}</style></defs><title>1-206</title><g id="图层_2" data-name="图层 2"><g id="_1-201_1-209" data-name="1-201——1-209"><g id="_1-206" data-name="1-206"><path class="cls-1" d="M27,42.14,22.2,24.21h1l4.36,16.24h.08l4.65-16.24h1.07L38,40.45h.07l4.39-16.24h1L38.58,42.14h-1l-4.7-16.36h-.07l-4.7,16.36Z"/><rect class="cls-2" x="0.5" y="0.5" width="64" height="64"/><path class="cls-1" d="M87.22,40.79,80.71,22.86h1l6,16.53h.07l6-16.53h1L88.25,40.79Z"/><path class="cls-1" d="M97.13,40.31A5.36,5.36,0,0,1,95.19,38a8.7,8.7,0,0,1,0-6.84,5.36,5.36,0,0,1,1.94-2.32,5.36,5.36,0,0,1,5.7,0,5.57,5.57,0,0,1,2,2.33,8.66,8.66,0,0,1,0,6.82,5.57,5.57,0,0,1-2,2.33,5.36,5.36,0,0,1-5.7,0Zm5.23-.76a4.55,4.55,0,0,0,1.63-2,8,8,0,0,0,0-5.94,4.64,4.64,0,0,0-1.63-2,4.33,4.33,0,0,0-4.75,0,4.67,4.67,0,0,0-1.61,2,7.89,7.89,0,0,0,0,5.94,4.58,4.58,0,0,0,1.61,2,4.28,4.28,0,0,0,4.75,0Z"/><path class="cls-1" d="M108.52,40.79V28.34h.93v3h0A6.52,6.52,0,0,1,111.57,29a5.35,5.35,0,0,1,3.2-1H115V29h-.33a4.88,4.88,0,0,0-2.71.76,5.64,5.64,0,0,0-1.84,1.83,4.07,4.07,0,0,0-.65,2v7.2Z"/><rect class="cls-2" x="64.5" y="0.5" width="64" height="64"/><g class="cls-3"><path d="M46.28,37.29c-.17.37-.39.79-.65,1.25s-.54,1-.84,1.44-.6,1-.9,1.43-.59.88-.85,1.25L40.7,41.54c.27-.37.56-.77.87-1.22s.61-.9.89-1.36.55-.91.79-1.36.44-.83.59-1.18Zm4-1.85v4.12a4.1,4.1,0,0,1-.13,1.17,1.74,1.74,0,0,1-.45.73,2.42,2.42,0,0,1-.81.46c-.33.11-.73.23-1.21.34l-1.17.29L45.66,40l.9-.22a2.73,2.73,0,0,0,.72-.27.65.65,0,0,0,.2-.55V35.81l-5.59.74.58-7.74c.62-.08,1.28-.18,2-.29s1.4-.22,2.11-.34l2.14-.39c.71-.13,1.4-.27,2.06-.41S52,27.11,52.62,27s1.11-.26,1.57-.39l.55,2.63-2.08.48c-.76.17-1.57.34-2.41.5l-2.6.49-2.58.45-.17,2.55,2.58-.34V31.13l2.78-.31V33l4.93-.65v2.47ZM53,35.22c.17.19.39.45.65.78s.54.69.83,1.08.58.79.86,1.2.54.81.77,1.18l-2.36,1.82c-.18-.35-.4-.74-.65-1.15s-.51-.83-.79-1.24l-.81-1.14c-.27-.36-.51-.66-.73-.91Z"/><path d="M71.8,30.4v2.21L57.16,34.54V32.32l3.27-.43.25-1-2.39.31V29.34L61.13,29l.21-.87-3.4.44V26.35L71,24.62v2.2l-6.85.9L64,28.6l6-.79-.15,2.85ZM58.61,35.06l11.75-1.55v5.63L58.61,40.69Zm2.59,3.09,6.44-.84V36l-6.44.85Zm2.08-6.63L67.15,31l.07-1-3.71.49Z"/><path d="M78.49,33.05c-.17.37-.39.79-.65,1.25s-.54,1-.84,1.44-.6,1-.9,1.43-.59.88-.85,1.25l-2.34-1.13c.27-.36.56-.76.87-1.21s.61-.9.9-1.36.55-.91.79-1.36.43-.83.58-1.18Zm4-1.85v4.12a4.05,4.05,0,0,1-.14,1.17,1.56,1.56,0,0,1-.45.73,2.12,2.12,0,0,1-.8.45c-.33.12-.74.23-1.22.35l-1.17.29-.83-2.6.9-.21a2.17,2.17,0,0,0,.72-.28.6.6,0,0,0,.21-.54V31.57l-5.6.74.58-7.74c.62-.08,1.28-.18,2-.29s1.4-.22,2.11-.34l2.14-.39c.72-.13,1.4-.27,2.07-.41s1.28-.27,1.87-.41,1.1-.26,1.56-.39L87,25l-2.07.48c-.77.17-1.57.34-2.42.5s-1.71.33-2.59.49l-2.58.45-.18,2.55,2.59-.34V26.88l2.78-.3v2.15l4.93-.65v2.47ZM85.19,31q.27.29.66.78l.83,1.08c.29.39.58.79.86,1.2s.53.81.76,1.18L85.94,37c-.18-.35-.4-.74-.65-1.16s-.51-.82-.79-1.23-.54-.78-.81-1.14-.51-.66-.72-.91Z"/></g></g></g></g></svg>