<svg xmlns="http://www.w3.org/2000/svg" viewBox="0 0 88.37 129"><defs><style>.cls-1{fill:none;stroke:#333;stroke-linejoin:round;}.cls-2{fill:#333;}.cls-3{opacity:0.16;}</style></defs><title>1-213</title><g id="图层_2" data-name="图层 2"><g id="_1-210_1-219" data-name="1-210——1-219"><g id="_1-213" data-name="1-213"><rect class="cls-1" x="0.5" y="45.2" width="87.37" height="83.3"/><rect class="cls-1" x="0.5" y="0.5" width="87.37" height="44.7"/><path class="cls-2" d="M27.43,82.61l-6.5-24h.74l6.14,22.78h.07l6.59-22.78h.9l6.56,22.78H42l6.18-22.78h.73l-6.53,24h-.8L35,59.69h-.06L28.23,82.61Z"/><path class="cls-2" d="M52,82.61v-24h.68V69.87h.06a6.8,6.8,0,0,1,2.48-3.18,6.69,6.69,0,0,1,3.92-1.17,5.57,5.57,0,0,1,4.46,1.9,7.58,7.58,0,0,1,1.65,5.14v10h-.67V72.75a7.34,7.34,0,0,0-1.47-4.82,4.93,4.93,0,0,0-4-1.77,6,6,0,0,0-3.36,1,6.78,6.78,0,0,0-3.07,5.66v9.83Z"/><g class="cls-3"><path d="M26,69.29c-.17.37-.39.79-.65,1.25s-.54.95-.84,1.44-.6,1-.9,1.43-.59.88-.85,1.25l-2.34-1.12c.27-.37.56-.77.87-1.22s.61-.9.9-1.36.55-.91.79-1.36.43-.83.58-1.18Zm4-1.85v4.12a4.05,4.05,0,0,1-.14,1.17,1.56,1.56,0,0,1-.45.73,2.28,2.28,0,0,1-.8.46c-.33.11-.74.23-1.22.34l-1.17.29L25.34,72l.9-.22a2.59,2.59,0,0,0,.72-.27.63.63,0,0,0,.2-.55V67.81l-5.59.74.58-7.74c.62-.08,1.28-.18,2-.29s1.4-.22,2.11-.34l2.14-.39c.71-.13,1.4-.27,2.07-.41s1.28-.27,1.87-.41,1.1-.26,1.56-.39l.55,2.63-2.07.48c-.77.17-1.57.34-2.42.5l-2.59.49-2.58.45-.18,2.55,2.58-.34V63.13L30,62.82V65l4.93-.65v2.47Zm2.71-.22c.18.19.39.45.65.78s.54.69.83,1.08.58.79.87,1.2.53.81.76,1.18l-2.36,1.82c-.18-.35-.4-.74-.65-1.15s-.51-.83-.79-1.24-.55-.78-.81-1.14-.51-.66-.72-.91Z"/><path d="M51.49,62.4v2.21L36.85,66.54V64.32l3.27-.43.24-1L38,63.23V61.34L40.81,61,41,60.1l-3.4.44V58.35l13.08-1.73v2.2l-6.85.9-.21.88,6-.79-.14,2.85Zm-13.2,4.66L50,65.51v5.63L38.29,72.69Zm2.59,3.09,6.44-.84V68l-6.44.85ZM43,63.52,46.83,63l.07-.95-3.71.49Z"/><path d="M58.17,65.05c-.17.37-.39.79-.65,1.25s-.54,1-.83,1.44-.6,1-.91,1.43-.58.88-.84,1.25l-2.35-1.13c.28-.36.56-.76.87-1.21s.61-.9.9-1.36.55-.91.79-1.36.43-.83.58-1.18Zm4-1.85v4.12A4.05,4.05,0,0,1,62,68.49a1.56,1.56,0,0,1-.45.73,2.12,2.12,0,0,1-.8.45c-.33.12-.74.23-1.21.35l-1.17.29-.83-2.6.89-.21a2.17,2.17,0,0,0,.72-.28.6.6,0,0,0,.21-.54V63.57l-5.6.74.59-7.74c.62-.08,1.27-.18,2-.29s1.39-.22,2.1-.34,1.43-.25,2.14-.39,1.41-.27,2.07-.41,1.28-.27,1.87-.41,1.11-.26,1.56-.39L66.63,57l-2.07.48c-.76.17-1.57.34-2.42.5s-1.71.33-2.59.49L57,58.89l-.18,2.55,2.59-.34V58.88l2.78-.3v2.15l4.93-.65v2.47ZM64.88,63c.17.19.39.45.65.78l.83,1.08c.29.39.58.79.86,1.2s.54.81.76,1.18L65.63,69c-.19-.35-.41-.74-.65-1.16s-.52-.82-.79-1.23-.55-.78-.82-1.14-.5-.66-.72-.91Z"/></g><path class="cls-2" d="M14.81,93.61a10.23,10.23,0,0,1,6.49,1.8,6.18,6.18,0,0,1,2.27,5.14,6.12,6.12,0,0,1-2.27,5.12c-1.51,1.2-3.68,1.79-6.49,1.79H9.08v10.15H8.37v-24Zm-.1,13.18a9.79,9.79,0,0,0,6.05-1.62,6.16,6.16,0,0,0,0-9.28,9.86,9.86,0,0,0-6.05-1.61H9.08v12.51Z"/><path class="cls-2" d="M26.87,117.61V101h.7l0,3.64h.07a7.13,7.13,0,0,1,2.3-3,5.41,5.41,0,0,1,3.33-1.12,4.83,4.83,0,0,1,3.37,1.26,6.7,6.7,0,0,1,1.94,3.54h.06a6.46,6.46,0,0,1,2.21-3.51,5.89,5.89,0,0,1,3.75-1.29,5,5,0,0,1,4.11,1.92,8,8,0,0,1,1.52,5.12v10h-.67v-9.86A7.79,7.79,0,0,0,48.17,103a4.32,4.32,0,0,0-3.64-1.81,5.22,5.22,0,0,0-2.86.83,5.73,5.73,0,0,0-2.05,2.34,7.61,7.61,0,0,0-.75,3.45v9.83H38.2v-9.86a8.76,8.76,0,0,0-.63-3.44A5.28,5.28,0,0,0,35.81,102a4.29,4.29,0,0,0-2.6-.83,4.78,4.78,0,0,0-2.72.88,6.46,6.46,0,0,0-2.13,2.4,6.88,6.88,0,0,0-.82,3.34v9.83Z"/><path class="cls-2" d="M55.61,117a3.73,3.73,0,0,1-1.38-3.09,4.08,4.08,0,0,1,2.24-3.74c1.49-.85,3.76-1.28,6.78-1.28h3v-2.5a5.09,5.09,0,0,0-1.39-3.84,5.59,5.59,0,0,0-4-1.34,6.66,6.66,0,0,0-2.3.43,9.94,9.94,0,0,0-2.31,1.23l-.38-.54a9.19,9.19,0,0,1,2.43-1.3,8,8,0,0,1,2.69-.46,6.32,6.32,0,0,1,4.42,1.41A5.24,5.24,0,0,1,66.9,106v11.62h-.67v-3.46h-.06a7,7,0,0,1-6.66,3.9A6.06,6.06,0,0,1,55.61,117Zm7.42-.37a6.11,6.11,0,0,0,2.35-2.24,5.85,5.85,0,0,0,.85-3.1v-1.76H63.32a14.12,14.12,0,0,0-6.32,1.1,3.49,3.49,0,0,0-2.1,3.22,3.19,3.19,0,0,0,1.22,2.67,5.51,5.51,0,0,0,3.45.94A7,7,0,0,0,63,116.58Z"/><path class="cls-2" d="M76,109l5.92,8.58h-.83l-5.54-8.07-5.47,8.07h-.83L75.19,109l-5.47-8h.8l5.09,7.45,5-7.45h.8Z"/></g></g></g></svg>