<svg xmlns="http://www.w3.org/2000/svg" viewBox="0 0 88.37 129"><defs><style>.cls-1{fill:none;stroke:#333;stroke-linejoin:round;}.cls-2{opacity:0.16;}.cls-3{fill:#333;}</style></defs><title>1-214</title><g id="图层_2" data-name="图层 2"><g id="_1-210_1-219" data-name="1-210——1-219"><g id="_1-214" data-name="1-214"><rect class="cls-1" x="0.5" y="45.2" width="87.37" height="83.3"/><rect class="cls-1" x="0.5" y="0.5" width="87.37" height="44.7"/><g class="cls-2"><path d="M26,69.29c-.17.37-.39.79-.65,1.25s-.54.95-.84,1.44-.6,1-.9,1.43-.59.88-.85,1.25l-2.34-1.12c.27-.37.56-.77.87-1.22s.61-.9.9-1.36.55-.91.79-1.36.43-.83.58-1.18Zm4-1.85v4.12a4.05,4.05,0,0,1-.14,1.17,1.56,1.56,0,0,1-.45.73,2.28,2.28,0,0,1-.8.46c-.33.11-.74.23-1.22.34l-1.17.29L25.34,72l.9-.22a2.59,2.59,0,0,0,.72-.27.63.63,0,0,0,.2-.55V67.81l-5.59.74.58-7.74c.62-.08,1.28-.18,2-.29s1.4-.22,2.11-.34l2.14-.39c.71-.13,1.4-.27,2.07-.41s1.28-.27,1.87-.41,1.1-.26,1.56-.39l.55,2.63-2.07.48c-.77.17-1.57.34-2.42.5l-2.59.49-2.58.45-.18,2.55,2.58-.34V63.13L30,62.82V65l4.93-.65v2.47Zm2.71-.22c.18.19.39.45.65.78s.54.69.83,1.08.58.79.87,1.2.53.81.76,1.18l-2.36,1.82c-.18-.35-.4-.74-.65-1.15s-.51-.83-.79-1.24-.55-.78-.81-1.14-.51-.66-.72-.91Z"/><path d="M51.49,62.4v2.21L36.85,66.54V64.32l3.27-.43.24-1L38,63.23V61.34L40.81,61,41,60.1l-3.4.44V58.35l13.08-1.73v2.2l-6.85.9-.21.88,6-.79-.14,2.85Zm-13.2,4.66L50,65.51v5.63L38.29,72.69Zm2.59,3.09,6.44-.84V68l-6.44.85ZM43,63.52,46.83,63l.07-.95-3.71.49Z"/><path d="M58.17,65.05c-.17.37-.39.79-.65,1.25s-.54,1-.83,1.44-.6,1-.91,1.43-.58.88-.84,1.25l-2.35-1.13c.28-.36.56-.76.87-1.21s.61-.9.9-1.36.55-.91.79-1.36.43-.83.58-1.18Zm4-1.85v4.12A4.05,4.05,0,0,1,62,68.49a1.56,1.56,0,0,1-.45.73,2.12,2.12,0,0,1-.8.45c-.33.12-.74.23-1.21.35l-1.17.29-.83-2.6.89-.21a2.17,2.17,0,0,0,.72-.28.6.6,0,0,0,.21-.54V63.57l-5.6.74.59-7.74c.62-.08,1.27-.18,2-.29s1.39-.22,2.1-.34,1.43-.25,2.14-.39,1.41-.27,2.07-.41,1.28-.27,1.87-.41,1.11-.26,1.56-.39L66.63,57l-2.07.48c-.76.17-1.57.34-2.42.5s-1.71.33-2.59.49L57,58.89l-.18,2.55,2.59-.34V58.88l2.78-.3v2.15l4.93-.65v2.47ZM64.88,63c.17.19.39.45.65.78l.83,1.08c.29.39.58.79.86,1.2s.54.81.76,1.18L65.63,69c-.19-.35-.41-.74-.65-1.16s-.52-.82-.79-1.23-.55-.78-.82-1.14-.5-.66-.72-.91Z"/></g><path class="cls-3" d="M21.24,97.61l-8.74-24h.74l8.35,22.91h.06L30,73.61h.73L22,97.61Z"/><path class="cls-3" d="M34,96.93a7.4,7.4,0,0,1-2.58-3.12,11.59,11.59,0,0,1,0-9A7.46,7.46,0,0,1,34,81.64a6.77,6.77,0,0,1,7.46,0A7.44,7.44,0,0,1,44,84.76a11.47,11.47,0,0,1,0,9,7.38,7.38,0,0,1-2.57,3.12,6.77,6.77,0,0,1-7.46,0Zm7.12-.55a7,7,0,0,0,2.34-2.89,11.07,11.07,0,0,0,0-8.41,6.85,6.85,0,0,0-2.34-2.88,6,6,0,0,0-6.78,0A6.78,6.78,0,0,0,32,85.08a11.07,11.07,0,0,0,0,8.41,6.87,6.87,0,0,0,2.34,2.89,6.09,6.09,0,0,0,6.78,0Z"/><path class="cls-3" d="M49.17,97.61V81h.68v4.38h.06A9,9,0,0,1,52.69,82a7.3,7.3,0,0,1,4.55-1.44h.35v.7h-.54a6.4,6.4,0,0,0-3.73,1.14,8.37,8.37,0,0,0-2.56,2.72,5.82,5.82,0,0,0-.91,2.86v9.67Z"/><path class="cls-3" d="M60.41,97.61v-24h.67V84.87h.06a6.86,6.86,0,0,1,2.48-3.18,6.69,6.69,0,0,1,3.92-1.17A5.61,5.61,0,0,1,72,82.42a7.62,7.62,0,0,1,1.64,5.14v10H73V87.75a7.34,7.34,0,0,0-1.47-4.82,4.92,4.92,0,0,0-4-1.77,6,6,0,0,0-3.36,1,6.78,6.78,0,0,0-3.07,5.66v9.83Z"/></g></g></g></svg>