<svg xmlns="http://www.w3.org/2000/svg" viewBox="0 0 128.5 94.77"><defs><style>.cls-1{fill:none;stroke:#333;stroke-linejoin:round;}.cls-2{fill:#333;}.cls-3{opacity:0.16;}</style></defs><title>1-212</title><g id="图层_2" data-name="图层 2"><g id="_1-210_1-219" data-name="1-210——1-219"><g id="_1-212" data-name="1-212"><g id="_1-208" data-name="1-208"><rect class="cls-1" x="0.5" y="33.24" width="64" height="61.02"/><rect class="cls-1" x="0.5" y="0.5" width="64" height="32.74"/><path class="cls-2" d="M21,73.1,16.28,55.52h.54l4.5,16.69h.05l4.82-16.69h.66l4.81,16.69h0l4.53-16.69h.54L32,73.1H31.4L26.55,56.32H26.5L21.62,73.1Z"/><path class="cls-2" d="M39,73.1V55.52h.49v8.25h.05a5,5,0,0,1,1.81-2.33,4.91,4.91,0,0,1,2.87-.86A4.09,4.09,0,0,1,47.51,62a5.52,5.52,0,0,1,1.21,3.76V73.1h-.49V65.88a5.37,5.37,0,0,0-1.08-3.53,3.62,3.62,0,0,0-2.93-1.3,4.4,4.4,0,0,0-2.46.71,4.73,4.73,0,0,0-1.66,1.81,4.83,4.83,0,0,0-.59,2.33v7.2Z"/></g><g class="cls-3"><path d="M46.28,52.17c-.17.37-.39.79-.65,1.26s-.54.94-.84,1.43-.6,1-.9,1.43-.59.88-.85,1.25L40.7,56.42c.27-.36.56-.77.87-1.21s.61-.9.89-1.37.55-.91.79-1.35.44-.84.59-1.19Zm4-1.84v4.11a4.23,4.23,0,0,1-.13,1.18,1.77,1.77,0,0,1-.45.72,2.42,2.42,0,0,1-.81.46c-.33.11-.73.23-1.21.35l-1.17.28-.83-2.59.9-.22a2.73,2.73,0,0,0,.72-.27.65.65,0,0,0,.2-.55V50.69l-5.59.74.58-7.74c.62-.08,1.28-.17,2-.28s1.4-.22,2.11-.35,1.42-.24,2.14-.38l2.06-.41c.66-.14,1.29-.27,1.87-.41l1.57-.39.55,2.62-2.08.48c-.76.17-1.57.34-2.41.5l-2.6.49L45.07,46l-.17,2.54,2.58-.34V46l2.78-.3v2.15l4.93-.65v2.47ZM53,50.1c.18.2.39.46.65.79s.54.68.83,1.07.58.8.86,1.21.54.8.77,1.17l-2.36,1.83c-.18-.36-.4-.74-.65-1.16s-.51-.83-.79-1.23l-.81-1.15c-.27-.36-.51-.66-.73-.9Z"/><path d="M71.81,45.28v2.21L57.16,49.42V47.21l3.27-.43.25-1-2.39.32V44.23l2.84-.38.21-.87-3.4.45v-2.2L71,39.51v2.2l-6.85.9-.21.87,6-.79-.15,2.85Zm-13.2,4.66L70.36,48.4V54L58.61,55.57ZM61.2,53l6.44-.85V50.9l-6.44.85Zm2.08-6.64,3.87-.51.07-1-3.71.49Z"/><path d="M78.49,47.93c-.17.37-.39.79-.65,1.26s-.54.94-.84,1.43-.6,1-.9,1.43-.59.88-.85,1.25l-2.34-1.12c.27-.36.56-.77.87-1.21s.61-.91.9-1.37.55-.91.79-1.35.43-.84.58-1.19Zm4-1.84V50.2a4.18,4.18,0,0,1-.14,1.18,1.58,1.58,0,0,1-.45.72,2.28,2.28,0,0,1-.8.46c-.33.11-.74.23-1.22.34l-1.17.29-.83-2.59.9-.22a2.46,2.46,0,0,0,.72-.27.63.63,0,0,0,.21-.55V46.45l-5.6.74.58-7.74,2-.28c.7-.11,1.4-.22,2.11-.35l2.14-.38L83,38l1.87-.41,1.56-.39L87,39.85l-2.07.48c-.77.17-1.57.34-2.42.5s-1.71.33-2.59.49l-2.58.46-.18,2.54L79.7,44V41.77l2.78-.3v2.14L87.41,43v2.47Zm2.71-.23c.18.19.4.46.66.78l.83,1.08c.29.39.58.79.86,1.21s.53.8.76,1.17l-2.36,1.83c-.18-.36-.4-.74-.65-1.16s-.51-.83-.79-1.23-.54-.79-.81-1.15-.51-.66-.72-.9Z"/></g><line class="cls-1" x1="128.5" y1="60.38" x2="64.5" y2="60.38"/><line class="cls-1" x1="96.04" y1="55.8" x2="100.63" y2="60.38"/><line class="cls-1" x1="100.63" y1="60.38" x2="96.04" y2="64.97"/></g></g></g></svg>