<svg xmlns="http://www.w3.org/2000/svg" viewBox="0 0 109 128.5"><defs><style>.cls-1{fill:none;}.cls-1,.cls-3{stroke:#333;stroke-linejoin:round;}.cls-2{opacity:0.16;}.cls-3{fill:#333;}</style></defs><title>1-216</title><g id="图层_2" data-name="图层 2"><g id="_1-210_1-219" data-name="1-210——1-219"><g id="_1-216" data-name="1-216"><line class="cls-1" x1="20.08" x2="20.08" y2="75.29"/><line class="cls-1" y1="75.29" x2="20.08" y2="75.29"/><line class="cls-1" x1="20.08" y1="75.29" x2="46.61" y2="114.73"/><polyline class="cls-1" points="79.6 0 79.6 75.29 53.06 114.73"/><g class="cls-2"><path d="M36.28,68.79c-.18.37-.39.79-.65,1.25s-.54.95-.84,1.44-.6,1-.9,1.43-.59.88-.85,1.25L30.7,73c.27-.37.56-.77.87-1.22s.6-.9.89-1.36.55-.91.79-1.36.43-.83.59-1.18Zm4-1.85v4.12a3.73,3.73,0,0,1-.14,1.17,1.63,1.63,0,0,1-.44.73,2.42,2.42,0,0,1-.81.46c-.33.11-.73.23-1.21.34l-1.17.29-.83-2.59.89-.22a2.69,2.69,0,0,0,.73-.27.65.65,0,0,0,.2-.55V67.31l-5.6.74.59-7.74c.62-.08,1.27-.18,2-.29s1.4-.22,2.11-.34l2.14-.39c.71-.13,1.4-.27,2.06-.41s1.29-.27,1.87-.41,1.11-.26,1.56-.39l.56,2.63-2.08.48c-.76.17-1.57.34-2.41.5l-2.6.49-2.58.45-.18,2.55,2.59-.34V62.63l2.78-.31v2.15l4.93-.65v2.47ZM43,66.72c.17.19.39.45.65.78s.54.69.83,1.08.58.79.86,1.2.54.81.77,1.18l-2.36,1.82c-.19-.35-.4-.74-.65-1.15s-.51-.83-.79-1.24l-.81-1.14c-.27-.36-.51-.66-.73-.91Z"/><path d="M61.8,61.9v2.21L47.16,66V63.82l3.27-.43.25-1-2.4.31V60.84l2.85-.37.21-.87-3.4.44V57.85L61,56.12v2.2l-6.85.9L54,60.1l6-.79-.15,2.85ZM48.61,66.56,60.36,65v5.63L48.61,72.19Zm2.59,3.09,6.44-.84V67.52l-6.44.85ZM53.28,63l3.87-.51.07-.95-3.71.49Z"/><path d="M68.49,64.55c-.17.37-.39.79-.65,1.25s-.54,1-.84,1.44-.6,1-.9,1.43-.59.88-.85,1.25l-2.34-1.13c.27-.36.56-.76.87-1.21s.61-.9.9-1.36.55-.91.78-1.36.44-.83.59-1.18Zm4-1.85v4.12A4.05,4.05,0,0,1,72.34,68a1.56,1.56,0,0,1-.45.73,2.2,2.2,0,0,1-.8.45c-.34.12-.74.23-1.22.35l-1.17.29-.83-2.6.9-.21a2.37,2.37,0,0,0,.72-.28c.14-.09.2-.27.2-.54V63.07l-5.59.74.58-7.74c.62-.08,1.28-.18,2-.29s1.4-.22,2.11-.34l2.14-.39c.71-.13,1.4-.27,2.06-.41s1.29-.27,1.87-.41,1.11-.26,1.57-.39L77,56.47,74.88,57c-.77.17-1.57.34-2.42.5l-2.6.49-2.57.45-.18,2.55,2.58-.34V58.38l2.79-.3v2.15l4.93-.65v2.47Zm2.71-.22c.18.19.39.45.65.78s.54.69.83,1.08.58.79.87,1.2.53.81.76,1.18l-2.36,1.82c-.18-.35-.4-.74-.65-1.16s-.51-.82-.79-1.23S74,65.37,73.69,65s-.51-.66-.73-.91Z"/></g><circle class="cls-3" cx="49.84" cy="117.96" r="10.04"/><line class="cls-1" x1="88.2" y1="76.37" x2="109" y2="76.37"/><line class="cls-1" x1="98.6" y1="65.97" x2="98.6" y2="86.77"/></g></g></g></svg>