<svg xmlns="http://www.w3.org/2000/svg" viewBox="0 0 49 129"><defs><style>.cls-1{fill:none;stroke:#333;stroke-linejoin:round;}.cls-2{opacity:0.16;}.cls-3{fill:#333;}</style></defs><title>1-220</title><g id="图层_2" data-name="图层 2"><g id="_1-220_1-225" data-name="1-220——1-225"><g id="_1-220" data-name="1-220"><rect class="cls-1" x="0.5" y="0.5" width="48" height="128"/><rect class="cls-1" x="0.5" y="80.5" width="48" height="48"/><rect class="cls-1" x="0.5" y="32.5" width="48" height="48"/><g class="cls-2"><path d="M6.28,69.29c-.17.37-.39.79-.65,1.25s-.54.95-.84,1.44-.6,1-.9,1.43-.59.88-.85,1.25L.7,73.54c.27-.37.56-.77.87-1.22s.61-.9.89-1.36.55-.91.79-1.36.44-.83.59-1.18Zm4-1.85v4.12a4.1,4.1,0,0,1-.13,1.17,1.74,1.74,0,0,1-.45.73,2.42,2.42,0,0,1-.81.46c-.33.11-.73.23-1.21.34l-1.17.29L5.66,72l.9-.22a2.73,2.73,0,0,0,.72-.27.65.65,0,0,0,.2-.55V67.81l-5.59.74.58-7.74c.62-.08,1.28-.18,2-.29s1.4-.22,2.11-.34l2.14-.39c.71-.13,1.4-.27,2.06-.41S12,59.11,12.62,59s1.11-.26,1.57-.39l.55,2.63-2.08.48c-.76.17-1.57.34-2.41.5l-2.6.49-2.58.45L4.9,65.68l2.58-.34V63.13l2.78-.31V65l4.93-.65v2.47ZM13,67.22c.17.19.39.45.65.78s.54.69.83,1.08.58.79.86,1.2.54.81.77,1.18l-2.36,1.82c-.18-.35-.4-.74-.65-1.15s-.51-.83-.79-1.24l-.81-1.14c-.27-.36-.51-.66-.73-.91Z"/><path d="M31.8,62.4v2.21L17.16,66.54V64.32l3.27-.43.25-1-2.39.31V61.34L21.13,61l.21-.87-3.4.44V58.35L31,56.62v2.2l-6.85.9L24,60.6l6-.79-.15,2.85ZM18.61,67.06l11.75-1.55v5.63L18.61,72.69Zm2.59,3.09,6.44-.84V68l-6.44.85Zm2.08-6.63L27.15,63l.07-.95-3.71.49Z"/><path d="M38.49,65.05c-.17.37-.39.79-.65,1.25s-.54,1-.84,1.44-.6,1-.9,1.43-.59.88-.85,1.25l-2.34-1.13c.27-.36.56-.76.87-1.21s.61-.9.9-1.36.55-.91.79-1.36.43-.83.58-1.18Zm4-1.85v4.12a4.05,4.05,0,0,1-.14,1.17,1.56,1.56,0,0,1-.45.73,2.12,2.12,0,0,1-.8.45c-.33.12-.74.23-1.22.35l-1.17.29-.83-2.6.9-.21a2.17,2.17,0,0,0,.72-.28.6.6,0,0,0,.21-.54V63.57l-5.6.74.58-7.74c.62-.08,1.28-.18,2-.29s1.4-.22,2.11-.34l2.14-.39c.72-.13,1.4-.27,2.07-.41s1.28-.27,1.87-.41,1.1-.26,1.56-.39L47,57l-2.07.48c-.77.17-1.57.34-2.42.5s-1.71.33-2.59.49l-2.58.45-.18,2.55,2.59-.34V58.88l2.78-.3v2.15l4.93-.65v2.47ZM45.19,63q.27.29.66.78l.83,1.08c.29.39.58.79.86,1.2s.53.81.76,1.18L45.94,69c-.18-.35-.4-.74-.65-1.16s-.51-.82-.79-1.23-.54-.78-.81-1.14-.51-.66-.72-.91Z"/></g><path class="cls-3" d="M20.25,62.73,17,50.64h1l2.79,10.43h.08l2.93-10.43h1l2.95,10.43h.05l2.81-10.43h1L28.27,62.73h-1l-3-10.51h-.08l-3,10.51Z"/><path class="cls-3" d="M9.3,98.64a5.13,5.13,0,0,1,3.32.94,3.69,3.69,0,0,1,0,5.35,5.16,5.16,0,0,1-3.28.92H6.77v4.88H5.84V98.64ZM9.2,105a4.41,4.41,0,0,0,2.7-.71,2.65,2.65,0,0,0,0-4,4.41,4.41,0,0,0-2.7-.71H6.77V105Z"/><path class="cls-3" d="M15.44,110.73v-8.41h.9l0,1.47h.07a3.22,3.22,0,0,1,1.08-1.23,2.54,2.54,0,0,1,1.46-.47,2.36,2.36,0,0,1,1.54.53,3.3,3.3,0,0,1,1,1.51h0a3.19,3.19,0,0,1,1.15-1.49,3,3,0,0,1,1.75-.55,2.56,2.56,0,0,1,2.07.92,3.82,3.82,0,0,1,.76,2.51v5.21h-.9v-5.07a3.23,3.23,0,0,0-.57-2,1.85,1.85,0,0,0-1.54-.75,2.28,2.28,0,0,0-1.25.35,2.43,2.43,0,0,0-.87,1,3.38,3.38,0,0,0-.31,1.5v5h-.9v-5.07a3.18,3.18,0,0,0-.58-2,1.83,1.83,0,0,0-1.53-.76,2.16,2.16,0,0,0-1.22.37,2.53,2.53,0,0,0-.9,1,3.21,3.21,0,0,0-.33,1.47v5Z"/><path class="cls-3" d="M29.83,110.35a2.06,2.06,0,0,1-.71-1.65q0-2.64,4.32-2.64h1.35v-.94a2.18,2.18,0,0,0-.6-1.63,2.34,2.34,0,0,0-1.67-.58,3.52,3.52,0,0,0-2.21.9l-.53-.63a4.61,4.61,0,0,1,1.3-.8,4,4,0,0,1,1.5-.29,3.22,3.22,0,0,1,2.27.76,2.73,2.73,0,0,1,.82,2.11v5.77h-.88v-1.44h-.07a3,3,0,0,1-1.21,1.24,3.64,3.64,0,0,1-1.73.43A2.87,2.87,0,0,1,29.83,110.35Zm3.48-.53a2.65,2.65,0,0,0,1.07-.92,2.41,2.41,0,0,0,.41-1.38v-.64H33.6c-2.39,0-3.58.59-3.58,1.77a1.3,1.3,0,0,0,.51,1.09,2.19,2.19,0,0,0,1.39.4A3.11,3.11,0,0,0,33.31,109.82Z"/><path class="cls-3" d="M40.87,106.45l3,4.28H42.76l-2.44-3.63-2.44,3.63H36.8l3-4.36L37,102.32h1.07l2.31,3.42,2.22-3.42h1.06Z"/></g></g></g></svg>