<svg viewBox="0 0 129 129" xmlns="http://www.w3.org/2000/svg"><path d="m.5.5h59.73v128h-59.73z" fill="#333" stroke="#333" stroke-linejoin="round"/><g opacity=".16"><path d="m46.28 69.29c-.17.37-.39.79-.65 1.25s-.54.95-.84 1.44-.6 1-.9 1.43-.59.88-.85 1.25l-2.34-1.12c.27-.37.56-.77.87-1.22s.61-.9.89-1.36.55-.91.79-1.36.44-.83.59-1.18zm4-1.85v4.12a4.1 4.1 0 0 1 -.13 1.17 1.74 1.74 0 0 1 -.45.73 2.42 2.42 0 0 1 -.81.46c-.33.11-.73.23-1.21.34l-1.17.29-.85-2.55.9-.22a2.73 2.73 0 0 0 .72-.27.65.65 0 0 0 .2-.55v-3.15l-5.59.74.58-7.74c.62-.08 1.28-.18 2-.29s1.4-.22 2.11-.34l2.14-.39c.71-.13 1.4-.27 2.06-.41s1.22-.27 1.84-.38 1.11-.26 1.57-.39l.55 2.63-2.08.48c-.76.17-1.57.34-2.41.5l-2.6.49-2.58.45-.17 2.55 2.58-.34v-2.24l2.78-.31v2.18l4.93-.65v2.47zm2.72-.22c.17.19.39.45.65.78s.54.69.83 1.08.58.79.86 1.2.54.81.77 1.18l-2.36 1.82c-.18-.35-.4-.74-.65-1.15s-.51-.83-.79-1.24l-.81-1.14c-.27-.36-.51-.66-.73-.91z"/><path d="m71.8 62.4v2.21l-14.64 1.93v-2.22l3.27-.43.25-1-2.39.31v-1.86l2.84-.34.21-.87-3.4.44v-2.22l13.06-1.73v2.2l-6.85.9-.15.88 6-.79-.15 2.85zm-13.19 4.66 11.75-1.55v5.63l-11.75 1.55zm2.59 3.09 6.44-.84v-1.31l-6.44.85zm2.08-6.63 3.87-.52.07-.95-3.71.49z"/><path d="m78.49 65.05c-.17.37-.39.79-.65 1.25s-.54 1-.84 1.44-.6 1-.9 1.43-.59.88-.85 1.25l-2.34-1.13c.27-.36.56-.76.87-1.21s.61-.9.9-1.36.55-.91.79-1.36.43-.83.58-1.18zm4-1.85v4.12a4.05 4.05 0 0 1 -.14 1.17 1.56 1.56 0 0 1 -.45.73 2.12 2.12 0 0 1 -.8.45c-.33.12-.74.23-1.22.35l-1.17.29-.83-2.6.9-.21a2.17 2.17 0 0 0 .72-.28.6.6 0 0 0 .21-.54v-3.11l-5.6.74.58-7.74c.62-.08 1.28-.18 2-.29s1.4-.22 2.11-.34l2.14-.39c.72-.13 1.4-.27 2.07-.41s1.28-.27 1.87-.41 1.1-.26 1.56-.39l.56 2.66-2.07.48c-.77.17-1.57.34-2.42.5s-1.71.33-2.59.49l-2.58.45-.18 2.55 2.59-.34v-2.25l2.78-.3v2.15l4.93-.65v2.47zm2.7-.2q.27.29.66.78l.83 1.08c.29.39.58.79.86 1.2s.53.81.76 1.18l-2.36 1.76c-.18-.35-.4-.74-.65-1.16s-.51-.82-.79-1.23-.54-.78-.81-1.14-.51-.66-.72-.91z"/></g><g fill="none" stroke="#333" stroke-linejoin="round"><path d="m.5.5h128v128h-128z"/><path d="m93.59.5v128"/></g></svg>