<svg xmlns="http://www.w3.org/2000/svg" viewBox="0 0 128 20.56"><defs><style>.cls-1{fill:none;stroke:#333;stroke-linejoin:round;}.cls-2{opacity:0.16;}</style></defs><title>1-233</title><g id="图层_2" data-name="图层 2"><g id="_1-226_1-233" data-name="1-226——1-233"><g id="_1-233" data-name="1-233"><line class="cls-1" x1="50.31" y1="0.5" x2="77.69" y2="0.5"/><line class="cls-1" x1="55.06" y1="5.53" x2="73.5" y2="5.53"/><line class="cls-1" x1="58.69" y1="10.28" x2="68.19" y2="10.28"/><g class="cls-2"><path d="M45.78,15.07c-.17.37-.39.79-.65,1.26s-.54.94-.84,1.43-.6,1-.9,1.43-.59.88-.85,1.25L40.2,19.32c.27-.36.56-.77.87-1.21s.61-.91.89-1.37.55-.91.79-1.35.44-.84.59-1.19Zm4-1.84v4.11a4.23,4.23,0,0,1-.13,1.18,1.77,1.77,0,0,1-.45.72,2.42,2.42,0,0,1-.81.46c-.33.11-.73.23-1.21.34L46,20.33l-.83-2.59.9-.22a2.73,2.73,0,0,0,.72-.27.65.65,0,0,0,.2-.55V13.59l-5.59.74L42,6.59c.62-.08,1.28-.18,2-.29s1.4-.22,2.11-.34l2.14-.38,2.06-.41,1.87-.41c.59-.14,1.11-.27,1.57-.4L54.24,7l-2.08.48c-.76.17-1.57.34-2.41.5l-2.6.49-2.58.45-.17,2.55L47,11.12V8.91l2.78-.3v2.14l4.93-.65v2.48ZM52.48,13c.17.19.39.45.65.78s.54.69.83,1.08.58.79.86,1.21.54.8.77,1.17l-2.36,1.83c-.18-.36-.4-.75-.65-1.16s-.51-.83-.79-1.23-.55-.79-.81-1.15-.51-.66-.73-.9Z"/><path d="M71.3,8.18v2.21L56.66,12.32V10.1l3.27-.43.25-1L57.79,9V7.13l2.84-.38.21-.87-3.4.45V4.13L70.52,2.41V4.6l-6.85.9-.21.88,6-.79L69.3,8.44ZM58.11,12.84,69.86,11.3v5.63L58.11,18.47Zm2.59,3.1,6.44-.85V13.8l-6.44.85ZM62.78,9.3l3.87-.51.07-.95L63,8.33Z"/><path d="M78,10.83c-.17.37-.39.79-.65,1.26s-.54.94-.84,1.43-.6,1-.9,1.43-.59.88-.85,1.25l-2.34-1.12c.27-.36.56-.77.87-1.22s.61-.9.9-1.36.55-.91.79-1.36.43-.83.58-1.18ZM82,9V13.1a4.05,4.05,0,0,1-.14,1.17,1.56,1.56,0,0,1-.45.73,2.28,2.28,0,0,1-.8.46c-.33.11-.74.23-1.22.34l-1.17.29-.83-2.59.9-.22A2.46,2.46,0,0,0,79,13a.63.63,0,0,0,.21-.55V9.35l-5.6.74.58-7.74c.62-.08,1.28-.18,2-.29s1.4-.22,2.11-.34l2.14-.39c.72-.13,1.4-.27,2.07-.41s1.28-.27,1.87-.4,1.1-.27,1.56-.4l.55,2.63-2.07.48c-.77.17-1.57.34-2.42.5s-1.71.33-2.59.49l-2.58.45-.18,2.55,2.59-.34V4.67L82,4.36V6.51l4.93-.65V8.34Zm2.71-.22q.27.28.66.78l.83,1.08c.29.39.58.79.86,1.21s.53.8.76,1.17l-2.36,1.83c-.18-.36-.4-.75-.65-1.16s-.51-.83-.79-1.23-.54-.79-.81-1.15-.51-.66-.72-.91Z"/></g><line class="cls-1" y1="20.06" x2="128" y2="20.06"/></g></g></g></svg>