<svg xmlns="http://www.w3.org/2000/svg" viewBox="0 0 128 24.48"><defs><style>.cls-1{fill:none;}.cls-1,.cls-2{stroke:#333;stroke-linejoin:round;}.cls-2,.cls-4{fill:#333;}.cls-3{opacity:0.16;}</style></defs><title>1-235</title><g id="图层_2" data-name="图层 2"><g id="_1-234_1-242" data-name="1-234——1-242"><g id="_1-235" data-name="1-235"><line class="cls-1" x1="50.31" y1="0.5" x2="77.69" y2="0.5"/><line class="cls-1" x1="54.78" y1="5.53" x2="73.22" y2="5.53"/><line class="cls-1" x1="59.25" y1="10.28" x2="68.75" y2="10.28"/><line class="cls-1" y1="20.06" x2="128" y2="20.06"/><circle class="cls-2" cx="64" cy="19.92" r="4.05"/><g class="cls-3"><path d="M45.78,17c-.17.36-.39.78-.65,1.25s-.54.95-.84,1.44-.6,1-.9,1.43-.59.88-.85,1.25L40.2,21.27c.27-.36.56-.76.87-1.21s.61-.9.89-1.36.55-.91.79-1.36.44-.84.59-1.18Zm4-1.85V19.3a4.1,4.1,0,0,1-.13,1.17,1.74,1.74,0,0,1-.45.73,2.25,2.25,0,0,1-.81.45c-.33.12-.73.23-1.21.35L46,22.28l-.83-2.59.9-.21a2.37,2.37,0,0,0,.72-.28.62.62,0,0,0,.2-.54V15.55l-5.59.73L42,8.55l2-.29,2.11-.34,2.14-.39,2.06-.41c.66-.13,1.29-.27,1.87-.41s1.11-.26,1.57-.39L54.24,9l-2.08.47c-.76.18-1.57.34-2.41.51l-2.6.49-2.58.45-.17,2.55L47,13.08V10.86l2.78-.3v2.15l4.93-.65v2.47ZM52.48,15c.17.19.39.45.65.78s.54.69.83,1.08.58.79.86,1.2.54.81.77,1.18L53.23,21c-.18-.35-.4-.74-.65-1.16s-.51-.82-.79-1.23L51,17.49c-.27-.36-.51-.67-.73-.91Z"/><path d="M71.3,10.13v2.22L56.66,14.27V12.06l3.27-.43.25-1L57.79,11V9.08l2.84-.37.21-.88-3.4.45V6.09L70.52,4.36v2.2l-6.85.9-.21.88,6-.79L69.3,10.4ZM58.11,14.8l11.75-1.55v5.63L58.11,20.43Zm2.59,3.09L67.14,17V15.76l-6.44.85Zm2.08-6.63,3.87-.51.07-1L63,10.28Z"/><path d="M78,12.78c-.17.37-.39.79-.65,1.26s-.54,1-.84,1.44-.6,1-.9,1.43-.59.88-.85,1.25L72.41,17c.27-.36.56-.76.87-1.21s.61-.9.9-1.36.55-.91.79-1.36.43-.84.58-1.18Zm4-1.84v4.12a4.05,4.05,0,0,1-.14,1.17,1.56,1.56,0,0,1-.45.73,2.12,2.12,0,0,1-.8.45c-.33.12-.74.23-1.22.35L78.2,18l-.83-2.59.9-.21A2.17,2.17,0,0,0,79,15a.61.61,0,0,0,.21-.55v-3.1L73.6,12l.58-7.74c.62-.08,1.28-.17,2-.28l2.11-.34,2.14-.39,2.07-.41c.66-.14,1.28-.27,1.87-.41s1.1-.27,1.56-.39l.55,2.63-2.07.47c-.77.18-1.57.34-2.42.51l-2.59.49-2.58.45-.18,2.55,2.59-.34V6.62L82,6.32V8.47l4.93-.65v2.47Zm2.71-.23c.18.2.4.46.66.79l.83,1.08c.29.39.58.79.86,1.2s.53.81.76,1.18l-2.36,1.82c-.18-.35-.4-.74-.65-1.16s-.51-.82-.79-1.23-.54-.78-.81-1.14-.51-.67-.72-.91Z"/></g><path class="cls-4" d="M94.79,9.69v5h6.35v.88H93.86V3.47h7.08v.88H94.79V8.83h5.79v.86Z"/></g></g></g></svg>