<svg xmlns="http://www.w3.org/2000/svg" viewBox="0 0 129 34.5"><defs><style>.cls-1,.cls-3{fill:none;stroke:#333;stroke-linecap:round;stroke-linejoin:round;}.cls-2{opacity:0.16;}.cls-3{stroke-dasharray:7.6 7.6;}</style></defs><title>1-244</title><g id="图层_2" data-name="图层 2"><g id="_1-243_1-251" data-name="1-243——1-251"><g id="_1-244" data-name="1-244"><line class="cls-1" x1="3.03" y1="18.51" x2="125.66" y2="18.51"/><g class="cls-2"><path d="M46.28,22c-.17.37-.39.79-.65,1.26s-.54.94-.84,1.43-.6,1-.9,1.43S43.3,27,43,27.41L40.7,26.29c.27-.37.56-.77.87-1.22s.61-.9.89-1.36.55-.91.79-1.36.44-.83.59-1.18Zm4-1.85v4.12a4.1,4.1,0,0,1-.13,1.17,1.74,1.74,0,0,1-.45.73,2.42,2.42,0,0,1-.81.46c-.33.11-.73.23-1.21.34l-1.17.29-.83-2.59.9-.22a2.73,2.73,0,0,0,.72-.27.65.65,0,0,0,.2-.55V20.56l-5.59.74.58-7.74c.62-.08,1.28-.18,2-.29s1.4-.22,2.11-.34l2.14-.39c.71-.13,1.4-.27,2.06-.41s1.29-.27,1.87-.4,1.11-.27,1.57-.4L54.74,14l-2.08.48c-.76.17-1.57.34-2.41.5l-2.6.49-2.58.45-.17,2.55,2.58-.34V15.88l2.78-.31v2.15l4.93-.65v2.48ZM53,20c.17.19.39.45.65.78s.54.69.83,1.08.58.79.86,1.21.54.8.77,1.17L53.73,26c-.18-.36-.4-.75-.65-1.16s-.51-.83-.79-1.23-.55-.79-.81-1.15-.51-.66-.73-.91Z"/><path d="M71.8,15.15v2.21L57.16,19.29V17.07l3.27-.43.25-1L58.29,16V14.1l2.84-.38.21-.87-3.4.44V11.1L71,9.38v2.19l-6.85.9-.21.88,6-.79-.15,2.85ZM58.61,19.81l11.75-1.54V23.9L58.61,25.44ZM61.2,22.9l6.44-.84V20.77l-6.44.85Zm2.08-6.63,3.87-.51.07-.95-3.71.49Z"/><path d="M78.49,17.8c-.17.37-.39.79-.65,1.25S77.3,20,77,20.49s-.6,1-.9,1.43-.59.88-.85,1.25l-2.34-1.12c.27-.37.56-.77.87-1.22s.61-.9.9-1.36.55-.91.79-1.36.43-.83.58-1.18Zm4-1.85v4.12a4.05,4.05,0,0,1-.14,1.17,1.56,1.56,0,0,1-.45.73,2.28,2.28,0,0,1-.8.46c-.33.11-.74.22-1.22.34l-1.17.29-.83-2.59.9-.22a2.46,2.46,0,0,0,.72-.27.63.63,0,0,0,.21-.55V16.32l-5.6.74.58-7.74c.62-.08,1.28-.18,2-.29s1.4-.22,2.11-.34L80.9,8.3c.72-.13,1.4-.27,2.07-.41s1.28-.27,1.87-.41,1.1-.26,1.56-.39L87,9.72l-2.07.48c-.77.17-1.57.34-2.42.5s-1.71.33-2.59.49l-2.58.45-.18,2.55,2.59-.34V11.64l2.78-.31v2.15l4.93-.65V15.3Zm2.71-.22q.27.29.66.78l.83,1.08c.29.39.58.79.86,1.2s.53.81.76,1.18l-2.36,1.82c-.18-.35-.4-.74-.65-1.15s-.51-.83-.79-1.24-.54-.78-.81-1.14-.51-.66-.72-.91Z"/></g><line class="cls-1" x1="128.5" y1="15.67" x2="121.86" y2="17.57"/><line class="cls-1" x1="6.82" y1="16.62" x2="0.5" y2="18.51"/><line class="cls-1" x1="125.66" y1="34" x2="125.66" y2="18.51"/><line class="cls-1" x1="2.71" y1="0.5" x2="2.71" y2="34"/><line class="cls-1" x1="125.66" y1="0.5" x2="125.66" y2="15.04"/><line class="cls-1" x1="2.71" y1="28" x2="6.71" y2="28"/><line class="cls-3" x1="14.31" y1="28" x2="116.91" y2="28"/><line class="cls-1" x1="120.71" y1="28" x2="124.71" y2="28"/><line class="cls-1" x1="2.71" y1="6.82" x2="6.71" y2="6.82"/><line class="cls-3" x1="14.31" y1="6.82" x2="116.91" y2="6.82"/><line class="cls-1" x1="120.71" y1="6.82" x2="124.71" y2="6.82"/></g></g></g></svg>