<svg xmlns="http://www.w3.org/2000/svg" viewBox="0 0 128 44.54"><defs><style>.cls-1{fill:none;stroke:#333;stroke-linejoin:round;}.cls-2{opacity:0.16;}.cls-3{fill:#333;}</style></defs><title>1-242</title><g id="图层_2" data-name="图层 2"><g id="_1-234_1-242" data-name="1-234——1-242"><g id="_1-242" data-name="1-242"><line class="cls-1" y1="44.04" x2="128" y2="44.04"/><circle class="cls-1" cx="64" cy="24.04" r="8.94"/><g class="cls-2"><path d="M45.78,26.81c-.17.37-.39.79-.65,1.25s-.54,1-.84,1.44-.6,1-.9,1.43-.59.88-.85,1.25L40.2,31.06c.27-.37.56-.77.87-1.22s.61-.9.89-1.36.55-.91.79-1.36.44-.83.59-1.18Zm4-1.85v4.12a4.1,4.1,0,0,1-.13,1.17,1.74,1.74,0,0,1-.45.73,2.42,2.42,0,0,1-.81.46c-.33.11-.73.22-1.21.34L46,32.07l-.83-2.59.9-.22a2.73,2.73,0,0,0,.72-.27.65.65,0,0,0,.2-.55V25.33l-5.59.74L42,18.33c.62-.08,1.28-.18,2-.29s1.4-.22,2.11-.34l2.14-.39c.71-.13,1.4-.27,2.06-.41s1.29-.27,1.87-.41,1.11-.26,1.57-.39l.55,2.63-2.08.48c-.76.17-1.57.34-2.41.5l-2.6.49-2.58.45L44.4,23.2,47,22.86V20.65l2.78-.31v2.15l4.93-.65v2.47Zm2.72-.22c.17.19.39.45.65.78s.54.69.83,1.08.58.79.86,1.2.54.81.77,1.18L53.23,30.8c-.18-.35-.4-.74-.65-1.15s-.51-.83-.79-1.24L51,27.27c-.27-.36-.51-.66-.73-.91Z"/><path d="M71.3,19.92v2.21L56.66,24.06V21.84l3.27-.43.25-1-2.39.31V18.86l2.84-.37.21-.87-3.4.44V15.87l13.08-1.73v2.2l-6.85.9-.21.88,6-.79-.15,2.85ZM58.11,24.58,69.86,23v5.63L58.11,30.21Zm2.59,3.09,6.44-.84V25.54l-6.44.85ZM62.78,21l3.87-.51.07-1L63,20.07Z"/><path d="M78,22.57c-.17.37-.39.79-.65,1.25s-.54.95-.84,1.44-.6,1-.9,1.43-.59.88-.85,1.25l-2.34-1.13c.27-.36.56-.76.87-1.21s.61-.9.9-1.36.55-.91.79-1.36.43-.83.58-1.18Zm4-1.85v4.12A4.05,4.05,0,0,1,81.84,26a1.56,1.56,0,0,1-.45.73,2.12,2.12,0,0,1-.8.45c-.33.12-.74.23-1.22.35l-1.17.29-.83-2.6.9-.21a2.17,2.17,0,0,0,.72-.28.6.6,0,0,0,.21-.54V21.09l-5.6.74.58-7.74c.62-.08,1.28-.18,2-.29s1.4-.22,2.11-.34l2.14-.39c.72-.13,1.4-.27,2.07-.41s1.28-.27,1.87-.41,1.1-.26,1.56-.39l.55,2.63L84.38,15c-.77.17-1.57.34-2.42.5s-1.71.33-2.59.49l-2.58.45L76.61,19l2.59-.34V16.4L82,16.1v2.15l4.93-.65v2.47Zm2.71-.22q.27.29.66.78l.83,1.08c.29.39.58.79.86,1.2s.53.81.76,1.18l-2.36,1.82c-.18-.35-.4-.74-.65-1.16s-.51-.82-.79-1.23-.54-.78-.81-1.14-.51-.66-.72-.91Z"/></g><line class="cls-1" x1="64.5" y1="24.07" x2="79.5" y2="9.07"/><path class="cls-3" d="M90.25,11.83a3.42,3.42,0,0,1-1.36-1.36,3.94,3.94,0,0,1-.49-2,6.09,6.09,0,0,1,.31-2,13.86,13.86,0,0,1,1.1-2.3L92.19,0h1.07L90.05,5.63l0,0a2.31,2.31,0,0,1,1-.72,3.84,3.84,0,0,1,3.24.24,3.36,3.36,0,0,1,1.29,1.35,4,4,0,0,1,.47,2,4,4,0,0,1-.5,2,3.47,3.47,0,0,1-1.38,1.36,4,4,0,0,1-2,.49A3.92,3.92,0,0,1,90.25,11.83Zm3.5-.75a2.67,2.67,0,0,0,1-1.06,3.22,3.22,0,0,0,.37-1.54A3.19,3.19,0,0,0,94.78,7a2.6,2.6,0,0,0-1-1,2.76,2.76,0,0,0-1.44-.37,3.2,3.2,0,0,0-1.53.36,2.68,2.68,0,0,0-1.07,1,3.06,3.06,0,0,0-.38,1.54A3.11,3.11,0,0,0,89.73,10a2.57,2.57,0,0,0,1,1.06,3,3,0,0,0,1.51.38A2.88,2.88,0,0,0,93.75,11.08Z"/></g></g></g></svg>