<svg xmlns="http://www.w3.org/2000/svg" viewBox="0 0 128 94.21"><defs><style>.cls-1{fill:#333;}.cls-2{opacity:0.16;}</style></defs><title>1-247</title><g id="图层_2" data-name="图层 2"><g id="_1-243_1-251" data-name="1-243——1-251"><g id="_1-247" data-name="1-247"><path class="cls-1" d="M25.25,0q16.57,0,25.5,7.09t8.92,20.17q0,13.06-8.92,20.09t-25.5,7H2.76V94.21H0V0Zm-.38,51.75q15.45,0,23.74-6.34T56.9,27.26Q56.9,15.32,48.61,9T24.87,2.64H2.76V51.75Z"/><path class="cls-1" d="M76.12,46.35V91.57H128v2.64H73.36V0h52.88V2.64H76.12V43.71h47.36v2.64Z"/><g class="cls-2"><path d="M45.78,51.89c-.17.37-.39.79-.65,1.26s-.54,1-.84,1.44-.6,1-.9,1.42-.59.88-.85,1.25L40.2,56.14c.27-.36.56-.76.87-1.21s.61-.9.89-1.36.55-.92.79-1.36.44-.84.59-1.18Zm4-1.84v4.11a4.23,4.23,0,0,1-.13,1.18,1.81,1.81,0,0,1-.45.73,2.41,2.41,0,0,1-.81.45c-.33.11-.73.23-1.21.35L46,57.15l-.83-2.59.9-.22a2.41,2.41,0,0,0,.72-.27.64.64,0,0,0,.2-.55V50.41l-5.59.74L42,43.41c.62-.08,1.28-.17,2-.28l2.11-.34,2.14-.39L50.25,42c.66-.14,1.29-.27,1.87-.41l1.57-.39.55,2.63-2.08.47-2.41.51-2.6.48-2.58.46-.17,2.54L47,47.94V45.73l2.78-.3v2.15l4.93-.65V49.4Zm2.72-.23c.17.2.39.46.65.79L54,51.68c.29.4.58.8.86,1.21s.54.8.77,1.18l-2.36,1.82c-.18-.36-.4-.74-.65-1.16s-.51-.83-.79-1.23L51,52.35c-.27-.36-.51-.66-.73-.9Z"/><path d="M71.3,45v2.21L56.66,49.14V46.93l3.27-.43.25-1-2.39.32V44l2.84-.38.21-.87-3.4.45V41l13.08-1.72v2.2l-6.85.9-.21.87,6-.79-.15,2.85ZM58.11,49.67l11.75-1.55v5.63L58.11,55.3Zm2.59,3.09,6.44-.85V50.62l-6.44.85Zm2.08-6.64,3.87-.51.07-1L63,45.15Z"/><path d="M78,47.65c-.17.37-.39.79-.65,1.26s-.54.94-.84,1.43-.6,1-.9,1.43-.59.88-.85,1.25L72.41,51.9c.27-.36.56-.77.87-1.21s.61-.9.9-1.36.55-.92.79-1.36.43-.84.58-1.19Zm4-1.84v4.11a4.18,4.18,0,0,1-.14,1.18,1.58,1.58,0,0,1-.45.72,2.28,2.28,0,0,1-.8.46c-.33.11-.74.23-1.22.35l-1.17.28-.83-2.59.9-.22a2.46,2.46,0,0,0,.72-.27.62.62,0,0,0,.21-.55V46.17l-5.6.74.58-7.74c.62-.08,1.28-.17,2-.28l2.11-.34,2.14-.39,2.07-.41c.66-.14,1.28-.27,1.87-.41L85.9,37l.55,2.62-2.07.48c-.77.17-1.57.34-2.42.5s-1.71.33-2.59.49l-2.58.46L76.61,44l2.59-.34V41.49l2.78-.3v2.15l4.93-.65v2.47Zm2.71-.23c.18.2.4.46.66.79l.83,1.07c.29.39.58.8.86,1.21s.53.8.76,1.17l-2.36,1.83c-.18-.36-.4-.74-.65-1.16s-.51-.83-.79-1.23-.54-.79-.81-1.15-.51-.66-.72-.9Z"/></g></g></g></g></svg>