<svg xmlns="http://www.w3.org/2000/svg" viewBox="0 0 128 29.94"><defs><style>.cls-1{fill:none;stroke:#333;stroke-linejoin:round;}.cls-2{opacity:0.16;}</style></defs><title>1-241</title><g id="图层_2" data-name="图层 2"><g id="_1-234_1-242" data-name="1-234——1-242"><g id="_1-241" data-name="1-241"><line class="cls-1" y1="29.44" x2="128" y2="29.44"/><g class="cls-2"><path d="M45.78,19.76c-.17.37-.39.79-.65,1.26s-.54.94-.84,1.43-.6,1-.9,1.43-.59.88-.85,1.25L40.2,24c.27-.36.56-.77.87-1.21s.61-.91.89-1.37.55-.91.79-1.35.44-.84.59-1.19Zm4-1.84V22a4.23,4.23,0,0,1-.13,1.18,1.77,1.77,0,0,1-.45.72,2.42,2.42,0,0,1-.81.46c-.33.11-.73.23-1.21.34L46,25l-.83-2.59.9-.22a2.73,2.73,0,0,0,.72-.27.65.65,0,0,0,.2-.55V18.28L41.39,19,42,11.28c.62-.08,1.28-.18,2-.29s1.4-.22,2.11-.34l2.14-.38,2.06-.41,1.87-.41c.59-.14,1.11-.27,1.57-.4l.55,2.63-2.08.48c-.76.17-1.57.34-2.41.5l-2.6.49-2.58.45-.17,2.55L47,15.81V13.6l2.78-.3v2.14l4.93-.65v2.48Zm2.72-.23c.17.19.39.45.65.78s.54.69.83,1.08.58.79.86,1.21.54.8.77,1.17l-2.36,1.83c-.18-.36-.4-.75-.65-1.16s-.51-.83-.79-1.23-.55-.79-.81-1.15-.51-.66-.73-.9Z"/><path d="M71.3,12.87v2.21L56.66,17V14.79l3.27-.43.25-1-2.39.31V11.82l2.84-.38.21-.87-3.4.45V8.82L70.52,7.1V9.29l-6.85.9-.21.88,6-.79-.15,2.85ZM58.11,17.53,69.86,16v5.63L58.11,23.16Zm2.59,3.1,6.44-.85V18.49l-6.44.85ZM62.78,14l3.87-.51.07-1L63,13Z"/><path d="M78,15.52c-.17.37-.39.79-.65,1.26s-.54.94-.84,1.43-.6,1-.9,1.43-.59.88-.85,1.25l-2.34-1.12c.27-.36.56-.77.87-1.22s.61-.9.9-1.36.55-.91.79-1.36.43-.83.58-1.18Zm4-1.85v4.12A4.05,4.05,0,0,1,81.84,19a1.56,1.56,0,0,1-.45.73,2.28,2.28,0,0,1-.8.46c-.33.11-.74.23-1.22.34l-1.17.29-.83-2.59.9-.22A2.46,2.46,0,0,0,79,17.7a.63.63,0,0,0,.21-.55V14l-5.6.74L74.18,7c.62-.08,1.28-.18,2-.29s1.4-.22,2.11-.34L80.4,6c.72-.13,1.4-.27,2.07-.41s1.28-.27,1.87-.4,1.1-.27,1.56-.4l.55,2.63-2.07.48c-.77.17-1.57.34-2.42.5s-1.71.33-2.59.49l-2.58.45-.18,2.55,2.59-.34V9.36L82,9.05V11.2l4.93-.65V13Zm2.71-.22q.27.29.66.78l.83,1.08c.29.39.58.79.86,1.21s.53.8.76,1.17l-2.36,1.83c-.18-.36-.4-.75-.65-1.16s-.51-.83-.79-1.23-.54-.79-.81-1.15-.51-.66-.72-.91Z"/></g><circle class="cls-1" cx="64" cy="9.44" r="8.94"/></g></g></g></svg>