<svg xmlns="http://www.w3.org/2000/svg" viewBox="0 0 128 40.03"><defs><style>.cls-1{fill:none;}.cls-1,.cls-3{stroke:#333;stroke-linejoin:round;}.cls-2{opacity:0.16;}.cls-3{fill:#333;}</style></defs><title>1-248</title><g id="图层_2" data-name="图层 2"><g id="_1-243_1-251" data-name="1-243——1-251"><g id="_1-248" data-name="1-248"><line class="cls-1" y1="25.66" x2="128" y2="25.66"/><g class="cls-2"><path d="M45.78,24.94c-.17.37-.39.79-.65,1.26s-.54.95-.84,1.44-.6,1-.9,1.42-.59.88-.85,1.25L40.2,29.19c.27-.36.56-.76.87-1.21s.61-.9.89-1.36.55-.92.79-1.36.44-.84.59-1.18Zm4-1.84v4.12a4.15,4.15,0,0,1-.13,1.17,1.81,1.81,0,0,1-.45.73,2.25,2.25,0,0,1-.81.45c-.33.12-.73.23-1.21.35L46,30.2l-.83-2.59.9-.21a2.37,2.37,0,0,0,.72-.28.64.64,0,0,0,.2-.55v-3.1l-5.59.73L42,16.46c.62-.08,1.28-.17,2-.28l2.11-.34,2.14-.39L50.25,15c.66-.14,1.29-.27,1.87-.41l1.57-.39.55,2.63-2.08.47-2.41.51-2.6.49-2.58.45-.17,2.54L47,21V18.78l2.78-.3v2.15L54.69,20v2.47Zm2.72-.23c.17.2.39.46.65.79s.54.69.83,1.08.58.79.86,1.2.54.81.77,1.18l-2.36,1.82c-.18-.36-.4-.74-.65-1.16s-.51-.83-.79-1.23L51,25.41a10.64,10.64,0,0,0-.73-.91Z"/><path d="M71.3,18.05v2.21L56.66,22.19V20l3.27-.43.25-1-2.39.32V17l2.84-.37.21-.88-3.4.45V14l13.08-1.72v2.2l-6.85.9-.21.87,6-.79-.15,2.85ZM58.11,22.72l11.75-1.55V26.8L58.11,28.35Zm2.59,3.09L67.14,25V23.68l-6.44.84Zm2.08-6.64,3.87-.51.07-.95L63,18.2Z"/><path d="M78,20.7c-.17.37-.39.79-.65,1.26s-.54.95-.84,1.44-.6,1-.9,1.42-.59.88-.85,1.25L72.41,25c.27-.36.56-.76.87-1.21s.61-.9.9-1.36.55-.92.79-1.36.43-.84.58-1.18Zm4-1.84V23a4.1,4.1,0,0,1-.14,1.17,1.61,1.61,0,0,1-.45.73,2.27,2.27,0,0,1-.8.45c-.33.11-.74.23-1.22.35L78.2,26l-.83-2.59.9-.22a2.2,2.2,0,0,0,.72-.27.62.62,0,0,0,.21-.55v-3.1L73.6,20l.58-7.74c.62-.08,1.28-.17,2-.28l2.11-.34,2.14-.39,2.07-.41c.66-.14,1.28-.27,1.87-.41L85.9,10l.55,2.63-2.07.47L82,13.61l-2.59.48-2.58.46-.18,2.54,2.59-.34V14.54l2.78-.3v2.15l4.93-.65v2.47Zm2.71-.23c.18.2.4.46.66.79l.83,1.07c.29.4.58.8.86,1.21s.53.8.76,1.18L85.44,24.7c-.18-.36-.4-.74-.65-1.16s-.51-.83-.79-1.23-.54-.78-.81-1.15-.51-.66-.72-.9Z"/></g><line class="cls-1" x1="70.13" y1="0.5" x2="51.26" y2="39.81"/><circle class="cls-3" cx="64.5" cy="12.45" r="4.4"/><line class="cls-1" x1="64.16" y1="0.5" x2="76.74" y2="0.5"/></g></g></g></svg>