<svg xmlns="http://www.w3.org/2000/svg" viewBox="0 0 128.49 33.85"><defs><style>.cls-1{fill:none;stroke:#333;stroke-linejoin:round;}.cls-2{opacity:0.16;}</style></defs><title>1-243</title><g id="图层_2" data-name="图层 2"><g id="_1-243_1-251" data-name="1-243——1-251"><g id="_1-243" data-name="1-243"><line class="cls-1" x1="4.4" y1="6.62" x2="124.09" y2="6.62"/><line class="cls-1" x1="4.55" y1="28" x2="124.24" y2="28"/><line class="cls-1" x1="4.24" x2="4.24" y2="33.85"/><line class="cls-1" x1="124.24" x2="124.24" y2="33.85"/><line class="cls-1" x1="4.55" y1="16.92" x2="123.94" y2="16.92"/><g class="cls-2"><path d="M46,21.71c-.17.37-.39.79-.65,1.26s-.54.94-.84,1.43-.6,1-.9,1.43-.59.88-.85,1.25L40.44,26c.27-.36.56-.77.87-1.21s.61-.91.9-1.37.55-.91.79-1.35.43-.84.58-1.19Zm4-1.84V24a4.18,4.18,0,0,1-.14,1.18,1.58,1.58,0,0,1-.45.72,2.28,2.28,0,0,1-.8.46c-.33.11-.74.23-1.22.35L46.23,27l-.83-2.59.9-.22a2.46,2.46,0,0,0,.72-.27.63.63,0,0,0,.21-.55V20.23l-5.6.74.58-7.74c.62-.08,1.28-.17,2-.28s1.4-.22,2.11-.35l2.14-.38,2.07-.41,1.87-.41L53.93,11l.55,2.62-2.07.48c-.77.17-1.57.34-2.42.5l-2.59.49-2.58.46-.18,2.54,2.59-.34V15.55l2.78-.3v2.14l4.93-.64v2.47Zm2.71-.23c.18.19.39.46.66.78l.83,1.08c.29.39.58.79.86,1.21s.53.8.76,1.17l-2.36,1.83c-.18-.36-.4-.74-.65-1.16s-.51-.83-.79-1.23-.54-.79-.81-1.15-.51-.66-.72-.9Z"/><path d="M71.55,14.82V17L56.91,19V16.75l3.27-.43.24-1L58,15.66V13.77l2.84-.38.22-.87-3.4.45v-2.2L70.77,9.05v2.19l-6.85.91-.21.87,6-.79-.14,2.85Zm-13.2,4.66L70.1,17.94v5.63L58.35,25.11Zm2.59,3.1,6.44-.85V20.44l-6.44.85ZM63,15.94l3.88-.51.06-.95L63.25,15Z"/><path d="M78.23,17.47c-.17.37-.39.79-.65,1.26s-.54.94-.83,1.43-.6,1-.91,1.43-.58.88-.84,1.25l-2.35-1.12c.28-.36.57-.77.87-1.21s.61-.91.9-1.37.55-.91.79-1.35.43-.84.58-1.19Zm4-1.84v4.11a4.18,4.18,0,0,1-.14,1.18,1.58,1.58,0,0,1-.45.72,2.28,2.28,0,0,1-.8.46c-.33.11-.74.23-1.21.34l-1.17.29-.83-2.59.89-.22a2.46,2.46,0,0,0,.72-.27.63.63,0,0,0,.21-.55V16l-5.6.74L74.43,9l2-.28,2.1-.35L80.64,8l2.07-.41,1.87-.41c.59-.14,1.11-.27,1.56-.4l.55,2.63-2.07.48c-.76.17-1.57.34-2.42.5s-1.71.33-2.59.49L77,11.32l-.18,2.54,2.59-.34V11.31l2.78-.3v2.14l4.93-.64V15Zm2.72-.23c.17.19.39.45.65.78l.83,1.08c.29.39.58.79.86,1.21s.54.8.76,1.17l-2.35,1.83c-.19-.36-.41-.74-.65-1.16s-.52-.83-.79-1.23-.55-.79-.82-1.15a10.07,10.07,0,0,0-.72-.9Z"/></g><line class="cls-1" x1="8.55" y1="14.46" x2="0.24" y2="19.08"/><line class="cls-1" x1="128.24" y1="14.46" x2="119.94" y2="19.08"/></g></g></g></svg>