<svg xmlns="http://www.w3.org/2000/svg" viewBox="0 0 128 27.14"><defs><style>.cls-1{fill:none;stroke:#333;stroke-linejoin:round;}.cls-2{opacity:0.16;}</style></defs><title>1-246</title><g id="图层_2" data-name="图层 2"><g id="_1-243_1-251" data-name="1-243——1-251"><g id="_1-246" data-name="1-246"><line class="cls-1" y1="14.34" x2="128" y2="14.34"/><g class="cls-2"><path d="M45.78,18.5c-.17.37-.39.78-.65,1.25s-.54.95-.84,1.44-.6,1-.9,1.43-.59.88-.85,1.25L40.2,22.74c.27-.36.56-.76.87-1.21s.61-.9.89-1.36.55-.91.79-1.36.44-.83.59-1.18Zm4-1.85v4.12a4.1,4.1,0,0,1-.13,1.17,1.74,1.74,0,0,1-.45.73,2.25,2.25,0,0,1-.81.45c-.33.12-.73.23-1.21.35L46,23.75l-.83-2.59.9-.21a2.37,2.37,0,0,0,.72-.28.62.62,0,0,0,.2-.54V17l-5.59.74L42,10c.62-.08,1.28-.18,2-.29l2.11-.34L48.19,9c.71-.13,1.4-.27,2.06-.41s1.29-.27,1.87-.41,1.11-.26,1.57-.39l.55,2.63-2.08.47c-.76.18-1.57.35-2.41.51l-2.6.49-2.58.45-.17,2.55L47,14.55V12.33l2.78-.3v2.15l4.93-.65V16Zm2.72-.22c.17.19.39.45.65.78s.54.69.83,1.08.58.79.86,1.2.54.81.77,1.18l-2.36,1.82c-.18-.35-.4-.74-.65-1.16s-.51-.82-.79-1.23L51,19c-.27-.36-.51-.66-.73-.91Z"/><path d="M71.3,11.6v2.22L56.66,15.74V13.53l3.27-.43.25-1-2.39.31V10.55l2.84-.37.21-.88-3.4.45V7.56L70.52,5.83V8l-6.85.9-.21.88,6-.79-.15,2.85ZM58.11,16.27l11.75-1.55v5.63L58.11,21.9Zm2.59,3.09,6.44-.85V17.23l-6.44.85Zm2.08-6.63,3.87-.51.07-1L63,11.75Z"/><path d="M78,14.26c-.17.36-.39.78-.65,1.25s-.54,1-.84,1.44-.6,1-.9,1.43-.59.88-.85,1.25L72.41,18.5c.27-.36.56-.76.87-1.21s.61-.9.9-1.36.55-.91.79-1.36.43-.84.58-1.18Zm4-1.85v4.12a4.05,4.05,0,0,1-.14,1.17,1.56,1.56,0,0,1-.45.73,2.12,2.12,0,0,1-.8.45c-.33.12-.74.23-1.22.35l-1.17.28-.83-2.59.9-.21a2.17,2.17,0,0,0,.72-.28.6.6,0,0,0,.21-.54V12.78l-5.6.73.58-7.73,2-.29,2.11-.34,2.14-.39,2.07-.41c.66-.13,1.28-.27,1.87-.41s1.1-.26,1.56-.39l.55,2.63-2.07.47c-.77.18-1.57.34-2.42.51s-1.71.33-2.59.49l-2.58.45-.18,2.55,2.59-.34V8.09L82,7.79V9.94l4.93-.65v2.47Zm2.71-.22q.27.29.66.78l.83,1.08c.29.39.58.79.86,1.2s.53.81.76,1.18l-2.36,1.82c-.18-.35-.4-.74-.65-1.16s-.51-.82-.79-1.23-.54-.78-.81-1.14-.51-.67-.72-.91Z"/></g><line class="cls-1" x1="55.67" y1="0.81" x2="42.46" y2="26.92"/><line class="cls-1" x1="49.69" y1="0.5" x2="62.27" y2="0.5"/></g></g></g></svg>