<svg xmlns="http://www.w3.org/2000/svg" viewBox="0 0 128 27.45"><defs><style>.cls-1{fill:none;stroke:#333;stroke-linejoin:round;}.cls-2{opacity:0.16;}</style></defs><title>1-249</title><g id="图层_2" data-name="图层 2"><g id="_1-243_1-251" data-name="1-243——1-251"><g id="_1-249" data-name="1-249"><line class="cls-1" y1="13.08" x2="128" y2="13.08"/><g class="cls-2"><path d="M45.78,18.65c-.17.37-.39.79-.65,1.26s-.54.95-.84,1.44-.6,1-.9,1.42-.59.88-.85,1.25L40.2,22.9c.27-.36.56-.76.87-1.21s.61-.9.89-1.36.55-.92.79-1.36.44-.84.59-1.18Zm4-1.84v4.12a4.15,4.15,0,0,1-.13,1.17,1.81,1.81,0,0,1-.45.73,2.25,2.25,0,0,1-.81.45c-.33.12-.73.23-1.21.35L46,23.91l-.83-2.59.9-.21a2.37,2.37,0,0,0,.72-.28.64.64,0,0,0,.2-.55v-3.1l-5.59.73L42,10.17c.62-.08,1.28-.17,2-.28l2.11-.34,2.14-.39,2.06-.41c.66-.14,1.29-.27,1.87-.41L53.69,8l.55,2.63-2.08.47-2.41.51-2.6.49-2.58.45L44.4,15,47,14.7V12.49l2.78-.3v2.15l4.93-.65v2.47Zm2.72-.23c.17.2.39.46.65.79s.54.69.83,1.08.58.79.86,1.2.54.81.77,1.18l-2.36,1.82c-.18-.36-.4-.74-.65-1.16s-.51-.83-.79-1.23L51,19.12a10.64,10.64,0,0,0-.73-.91Z"/><path d="M71.3,11.76V14L56.66,15.9V13.69l3.27-.43.25-1-2.39.32V10.71l2.84-.37.21-.88-3.4.45V7.71L70.52,6v2.2l-6.85.9-.21.87,6-.79L69.3,12ZM58.11,16.43l11.75-1.55v5.63L58.11,22.06Zm2.59,3.09,6.44-.85V17.39l-6.44.84Zm2.08-6.64,3.87-.51.07-.95L63,11.91Z"/><path d="M78,14.41c-.17.37-.39.79-.65,1.26s-.54,1-.84,1.44-.6,1-.9,1.42-.59.88-.85,1.25l-2.34-1.12c.27-.36.56-.76.87-1.21s.61-.9.9-1.36.55-.92.79-1.36.43-.84.58-1.18Zm4-1.84v4.12a4.1,4.1,0,0,1-.14,1.17,1.61,1.61,0,0,1-.45.73,2.27,2.27,0,0,1-.8.45c-.33.11-.74.23-1.22.35l-1.17.28-.83-2.59.9-.21a2.41,2.41,0,0,0,.72-.28A.62.62,0,0,0,79.2,16v-3.1l-5.6.73.58-7.74c.62-.08,1.28-.17,2-.28l2.11-.34,2.14-.39,2.07-.41c.66-.14,1.28-.27,1.87-.41l1.56-.39.55,2.63-2.07.47L82,7.32l-2.59.48-2.58.46-.18,2.54,2.59-.34V8.25L82,8V10.1l4.93-.65v2.47Zm2.71-.23c.18.2.4.46.66.79l.83,1.07c.29.4.58.8.86,1.21s.53.8.76,1.18l-2.36,1.82c-.18-.36-.4-.74-.65-1.16S84.28,16.42,84,16s-.54-.78-.81-1.15-.51-.66-.72-.9Z"/></g><line class="cls-1" x1="63.21" y1="2.07" x2="51.26" y2="27.23"/><line class="cls-1" x1="37.74" y1="2.07" x2="25.79" y2="27.23"/><line class="cls-1" x1="31.69" y1="2.07" x2="19.73" y2="27.23"/><line class="cls-1" x1="25.63" y1="2.07" x2="13.68" y2="27.23"/><line class="cls-1" x1="103.47" y1="0.81" x2="90.26" y2="26.92"/><line class="cls-1" x1="97.49" y1="0.5" x2="110.07" y2="0.5"/></g></g></g></svg>