<svg xmlns="http://www.w3.org/2000/svg" viewBox="0 0 105.59 128.5"><defs><style>.cls-1{fill:none;stroke:#333;stroke-linejoin:round;}.cls-2{opacity:0.16;}</style></defs><title>1-255</title><g id="图层_2" data-name="图层 2"><g id="_1-252_1-258" data-name="1-252——1-258"><g id="_1-255" data-name="1-255"><line class="cls-1" x1="33.91" x2="33.91" y2="127.5"/><line class="cls-1" x1="71.68" x2="71.68" y2="127.5"/><line class="cls-1" x1="33.91" y1="63.75" x2="71.68" y2="63.75"/><g class="cls-2"><path d="M34.57,68.79c-.17.37-.39.79-.65,1.26s-.54.94-.84,1.43-.6,1-.9,1.43-.59.88-.85,1.25L29,73c.27-.36.56-.77.87-1.21s.61-.91.9-1.37.55-.91.79-1.35.43-.84.58-1.19Zm4-1.84v4.11a4.18,4.18,0,0,1-.14,1.18A1.58,1.58,0,0,1,38,73a2.28,2.28,0,0,1-.8.46c-.33.11-.74.23-1.21.34l-1.18.29L34,71.46l.9-.22a2.46,2.46,0,0,0,.72-.27.63.63,0,0,0,.21-.55V67.31l-5.6.74.59-7.74,2-.28,2.11-.35L37,59.3l2.07-.41,1.87-.41c.58-.14,1.1-.27,1.56-.4L43,60.71,41,61.19c-.77.17-1.57.34-2.42.5s-1.71.33-2.59.49l-2.58.45-.18,2.55,2.59-.34V62.63l2.78-.3v2.14l4.93-.65V66.3Zm2.72-.23c.17.19.39.45.65.78l.83,1.08c.29.39.58.79.86,1.21s.53.8.76,1.17L42,72.79c-.18-.36-.4-.75-.65-1.16s-.51-.83-.79-1.23-.54-.79-.81-1.15-.51-.66-.72-.9Z"/><path d="M60.1,61.9v2.21L45.46,66V63.83l3.27-.44.24-1-2.39.31V60.85l2.85-.38.21-.87-3.4.45v-2.2l13.08-1.72v2.19l-6.85.91-.21.87,6-.79-.14,2.85ZM46.9,66.56,58.65,65v5.63L46.9,72.19Zm2.59,3.1,6.44-.85V67.52l-6.44.85ZM51.57,63l3.88-.51.06-.95-3.71.49Z"/><path d="M66.79,64.55q-.27.56-.66,1.26c-.26.46-.53.94-.83,1.43s-.6,1-.91,1.43-.58.88-.84,1.25L61.2,68.8c.28-.36.57-.77.88-1.22s.6-.9.89-1.36.55-.91.79-1.36.43-.83.58-1.18Zm4-1.85v4.12A3.84,3.84,0,0,1,70.63,68a1.65,1.65,0,0,1-.44.72,2.42,2.42,0,0,1-.81.46c-.33.11-.73.23-1.21.34L67,69.81l-.83-2.59.89-.22a2.69,2.69,0,0,0,.73-.27.65.65,0,0,0,.2-.55V63.07l-5.6.74L63,56.07c.62-.08,1.27-.18,2-.29s1.39-.22,2.1-.34,1.43-.25,2.14-.39,1.41-.27,2.07-.41,1.28-.27,1.87-.4,1.11-.27,1.56-.4l.56,2.63L73.17,57c-.76.17-1.57.34-2.42.5s-1.71.33-2.59.49l-2.58.45-.18,2.55L68,60.6V58.39l2.78-.3v2.14l4.93-.65v2.48Zm2.72-.22c.17.19.39.45.65.78s.54.69.83,1.08.58.79.86,1.21.54.8.77,1.17l-2.36,1.83c-.19-.36-.4-.75-.65-1.16s-.52-.83-.79-1.23S72.25,65.37,72,65s-.5-.66-.72-.91Z"/></g><line class="cls-1" x1="81.68" y1="0.5" x2="105.59" y2="0.5"/><line class="cls-1" x1="81.68" y1="32.38" x2="105.59" y2="32.38"/><line class="cls-1" x1="81.68" y1="64.25" x2="105.59" y2="64.25"/><line class="cls-1" x1="81.68" y1="96.13" x2="105.59" y2="96.13"/><line class="cls-1" x1="81.68" y1="128" x2="105.59" y2="128"/><line class="cls-1" y1="0.5" x2="23.91" y2="0.5"/><line class="cls-1" y1="32.38" x2="23.91" y2="32.38"/><line class="cls-1" y1="64.25" x2="23.91" y2="64.25"/><line class="cls-1" y1="96.13" x2="23.91" y2="96.13"/><line class="cls-1" y1="128" x2="23.91" y2="128"/></g></g></g></svg>