<svg xmlns="http://www.w3.org/2000/svg" viewBox="0 0 128 43.13"><defs><style>.cls-1{fill:none;stroke:#333;stroke-linejoin:round;}.cls-2{opacity:0.16;}</style></defs><title>1-253</title><g id="图层_2" data-name="图层 2"><g id="_1-252_1-258" data-name="1-252——1-258"><g id="_1-253" data-name="1-253"><rect class="cls-1" x="42.94" y="0.5" width="42.13" height="42.13"/><g class="cls-2"><path d="M45.78,26.35c-.17.37-.39.79-.65,1.26s-.54.94-.84,1.43-.6,1-.9,1.43-.59.88-.85,1.25L40.2,30.6c.27-.36.56-.77.87-1.21s.61-.91.89-1.37.55-.91.79-1.35.44-.84.59-1.19Zm4-1.84v4.11a4.23,4.23,0,0,1-.13,1.18,1.77,1.77,0,0,1-.45.72,2.42,2.42,0,0,1-.81.46c-.33.11-.73.23-1.21.35L46,31.61,45.16,29l.9-.22a2.73,2.73,0,0,0,.72-.27A.65.65,0,0,0,47,28V24.87l-5.59.74L42,17.87c.62-.08,1.28-.17,2-.28s1.4-.22,2.11-.35l2.14-.38,2.06-.41L52.12,16l1.57-.39.55,2.62-2.08.48c-.76.17-1.57.34-2.41.5l-2.6.49-2.58.46-.17,2.54L47,22.4V20.19l2.78-.3V22l4.93-.65v2.47Zm2.72-.23c.17.19.39.46.65.78s.54.69.83,1.08.58.8.86,1.21.54.8.77,1.17l-2.36,1.83c-.18-.36-.4-.74-.65-1.16s-.51-.83-.79-1.23L51,26.81c-.27-.36-.51-.66-.73-.9Z"/><path d="M71.3,19.46v2.21L56.66,23.6V21.39L59.93,21l.25-1-2.39.32V18.41L60.63,18l.21-.87-3.4.45v-2.2l13.08-1.72v2.19l-6.85.91-.21.87,6-.79-.15,2.85ZM58.11,24.12l11.75-1.54v5.63L58.11,29.75Zm2.59,3.1,6.44-.85V25.08l-6.44.85Zm2.08-6.64,3.87-.51.07-.95L63,19.61Z"/><path d="M78,22.11c-.17.37-.39.79-.65,1.26s-.54.94-.84,1.43-.6,1-.9,1.43-.59.88-.85,1.25l-2.34-1.12c.27-.36.56-.77.87-1.21s.61-.91.9-1.37.55-.91.79-1.35.43-.84.58-1.19Zm4-1.84v4.11a4.18,4.18,0,0,1-.14,1.18,1.58,1.58,0,0,1-.45.72,2.28,2.28,0,0,1-.8.46c-.33.11-.74.23-1.22.34l-1.17.29-.83-2.59.9-.22a2.46,2.46,0,0,0,.72-.27.63.63,0,0,0,.21-.55V20.63l-5.6.74.58-7.74,2-.28L78.26,13l2.14-.38,2.07-.41,1.87-.41c.58-.14,1.1-.27,1.56-.4L86.45,14l-2.07.48c-.77.17-1.57.34-2.42.5s-1.71.33-2.59.49L76.79,16l-.18,2.54,2.59-.34V16l2.78-.3v2.14l4.93-.64v2.47ZM84.69,20c.18.19.4.46.66.78l.83,1.08c.29.39.58.79.86,1.21s.53.8.76,1.17l-2.36,1.83c-.18-.36-.4-.74-.65-1.16s-.51-.83-.79-1.23-.54-.79-.81-1.15-.51-.66-.72-.9Z"/></g><line class="cls-1" y1="20.75" x2="128" y2="20.75"/></g></g></g></svg>