<svg xmlns="http://www.w3.org/2000/svg" viewBox="0 0 98.64 128.5"><defs><style>.cls-1{fill:#333;}.cls-2{fill:none;stroke:#333;stroke-linejoin:round;}.cls-3{opacity:0.16;}</style></defs><title>1-257</title><g id="图层_2" data-name="图层 2"><g id="_1-252_1-258" data-name="1-252——1-258"><g id="_1-257" data-name="1-257"><path class="cls-1" d="M21.85,7.4H21L20.1,5H17.47L16.6,7.4h-.88L18.35.13h.86ZM18.76,1.34l-1,2.82h2.07l-1-2.82Z"/><path class="cls-1" d="M19.82,33.5a1.93,1.93,0,0,1,1.18.56,1.55,1.55,0,0,1,.43,1.13,1.82,1.82,0,0,1-.74,1.56,3.56,3.56,0,0,1-2.15.55h-2.2V30h2.2a3.17,3.17,0,0,1,1.88.48,1.6,1.6,0,0,1,.66,1.37,1.52,1.52,0,0,1-.33,1,1.72,1.72,0,0,1-.93.57Zm-2.65-2.69V33.1h1.28a2.29,2.29,0,0,0,1.3-.32,1,1,0,0,0,.46-.89.91.91,0,0,0-.46-.8,2.64,2.64,0,0,0-1.32-.28Zm1.26,5.7A2.93,2.93,0,0,0,20,36.16a1.14,1.14,0,0,0,.55-1A1,1,0,0,0,20,34.2a3.17,3.17,0,0,0-1.57-.32H17.17v2.63Z"/><path class="cls-1" d="M21.7,66.06a2.8,2.8,0,0,1-1,.93,3,3,0,0,1-1.42.34,3.09,3.09,0,0,1-1.72-.48,3.16,3.16,0,0,1-1.16-1.34,4.62,4.62,0,0,1-.4-2,4.52,4.52,0,0,1,.4-2,3.08,3.08,0,0,1,1.16-1.31,3.16,3.16,0,0,1,1.72-.46,3,3,0,0,1,1.43.34,2.62,2.62,0,0,1,1,.93l-.66.46a2,2,0,0,0-.79-.69,2.22,2.22,0,0,0-2.27.11,2.38,2.38,0,0,0-.85,1,3.74,3.74,0,0,0-.3,1.54,3.86,3.86,0,0,0,.3,1.57A2.41,2.41,0,0,0,18,66.16a2.09,2.09,0,0,0,1.26.38,2,2,0,0,0,1-.26,2.29,2.29,0,0,0,.81-.7Z"/><path class="cls-1" d="M16,95.89V88.62h2.3a3.91,3.91,0,0,1,1.91.44,2.87,2.87,0,0,1,1.2,1.26,4.2,4.2,0,0,1,.41,1.94,4,4,0,0,1-.43,1.93,2.84,2.84,0,0,1-1.26,1.26,4.09,4.09,0,0,1-2,.44Zm2.14-.78a2.8,2.8,0,0,0,2.09-.74,2.85,2.85,0,0,0,.73-2.11,2.91,2.91,0,0,0-.71-2.12,2.68,2.68,0,0,0-2-.73H16.8v5.7Z"/><path class="cls-1" d="M17.51,122.39V125h3.68v.79H16.68v-7.27h4.39v.78H17.51v2.32h3.35v.77Z"/><path class="cls-1" d="M81.49,6.27a2.8,2.8,0,0,1-1,.93A2.92,2.92,0,0,1,79,7.54a3.08,3.08,0,0,1-2.88-1.82,4.62,4.62,0,0,1-.4-2,4.52,4.52,0,0,1,.4-2A3.08,3.08,0,0,1,77.32.46,3.25,3.25,0,0,1,79,0a3.11,3.11,0,0,1,1.43.34,2.62,2.62,0,0,1,1,.93l-.66.46A2.26,2.26,0,0,0,79,.78a2.28,2.28,0,0,0-1.27.37,2.43,2.43,0,0,0-.84,1,3.74,3.74,0,0,0-.3,1.54,3.94,3.94,0,0,0,.3,1.58,2.49,2.49,0,0,0,.84,1.06A2.14,2.14,0,0,0,79,6.75a2,2,0,0,0,1-.26,2.29,2.29,0,0,0,.81-.7Z"/><path class="cls-1" d="M75.77,37.3V30h2.3a3.91,3.91,0,0,1,1.91.44,2.81,2.81,0,0,1,1.2,1.26,4.29,4.29,0,0,1,.41,1.93,4.06,4.06,0,0,1-.43,1.94,3,3,0,0,1-1.26,1.26,4.21,4.21,0,0,1-2,.44Zm2.14-.79A2.8,2.8,0,0,0,80,35.78a2.87,2.87,0,0,0,.73-2.12A2.94,2.94,0,0,0,80,31.55a2.69,2.69,0,0,0-2-.74h-1.4v5.7Z"/><path class="cls-1" d="M77.3,63.8v2.61H81v.78H76.47V59.92h4.38v.79H77.3V63h3.35v.78Z"/><path class="cls-1" d="M81.63,95.89h-.88l-.87-2.46H77.26l-.87,2.46h-.88l2.63-7.27H79Zm-3.09-6.06-1,2.82h2.07l-1-2.82Z"/><path class="cls-1" d="M79.61,122a1.92,1.92,0,0,1,1.18.55,1.56,1.56,0,0,1,.43,1.13,1.85,1.85,0,0,1-.74,1.57,3.63,3.63,0,0,1-2.15.55h-2.2v-7.27h2.19a3.18,3.18,0,0,1,1.89.48,1.6,1.6,0,0,1,.66,1.37,1.47,1.47,0,0,1-.34,1,1.77,1.77,0,0,1-.92.57ZM77,119.3v2.29h1.28a2.29,2.29,0,0,0,1.3-.32,1,1,0,0,0,.46-.89.9.9,0,0,0-.47-.8,2.48,2.48,0,0,0-1.31-.28Zm1.26,5.7a3,3,0,0,0,1.59-.35,1.14,1.14,0,0,0,.55-1,1,1,0,0,0-.55-.94,3.17,3.17,0,0,0-1.57-.32H77V125Z"/><line class="cls-2" x1="31.68" y1="8.42" x2="31.68" y2="127.53"/><line class="cls-2" x1="66.96" y1="8.42" x2="66.96" y2="127.53"/><line class="cls-2" x1="31.68" y1="67.98" x2="66.96" y2="67.98"/><line class="cls-2" x1="76.31" y1="8.89" x2="98.64" y2="8.89"/><line class="cls-2" x1="76.31" y1="38.67" x2="98.64" y2="38.67"/><line class="cls-2" x1="76.31" y1="68.44" x2="98.64" y2="68.44"/><line class="cls-2" x1="76.31" y1="98.22" x2="98.64" y2="98.22"/><line class="cls-2" x1="76.31" y1="128" x2="98.64" y2="128"/><line class="cls-2" y1="8.89" x2="22.33" y2="8.89"/><line class="cls-2" y1="38.67" x2="22.33" y2="38.67"/><line class="cls-2" y1="68.44" x2="22.33" y2="68.44"/><line class="cls-2" y1="98.22" x2="22.33" y2="98.22"/><line class="cls-2" y1="128" x2="22.33" y2="128"/><g class="cls-3"><path d="M31.1,68.79c-.17.37-.39.79-.65,1.25s-.54.95-.84,1.44-.6,1-.9,1.43-.59.88-.85,1.25L25.52,73c.27-.37.56-.77.87-1.22s.61-.9.89-1.36.55-.91.79-1.36.44-.83.59-1.18Zm4-1.85v4.12A4.1,4.1,0,0,1,35,72.23a1.74,1.74,0,0,1-.45.73,2.42,2.42,0,0,1-.81.46c-.33.11-.73.23-1.21.34l-1.17.29-.83-2.59.9-.22A2.73,2.73,0,0,0,32.1,71a.65.65,0,0,0,.2-.55V67.31l-5.59.74.58-7.74c.62-.08,1.28-.18,2-.29s1.4-.22,2.11-.34l2.14-.39c.71-.13,1.4-.27,2.06-.41s1.29-.27,1.87-.41,1.11-.26,1.57-.39l.55,2.63-2.08.48c-.76.17-1.57.34-2.41.5l-2.6.49-2.58.45-.17,2.55,2.58-.34V62.63l2.78-.31v2.15L40,63.82v2.47Zm2.72-.22c.18.19.39.45.65.78s.54.69.83,1.08.58.79.86,1.2.54.81.77,1.18l-2.36,1.82c-.18-.35-.4-.74-.65-1.15s-.51-.83-.79-1.24l-.81-1.14c-.27-.36-.51-.66-.73-.91Z"/><path d="M56.63,61.9v2.21L42,66V63.82l3.27-.43.25-1-2.39.31V60.84L46,60.47l.21-.87-3.4.44V57.85l13.08-1.73v2.2l-6.85.9-.21.88,6-.79-.15,2.85Zm-13.2,4.66L55.18,65v5.63L43.43,72.19ZM46,69.65l6.44-.84V67.52L46,68.37ZM48.1,63,52,62.51l.07-.95-3.71.49Z"/><path d="M63.31,64.55c-.17.37-.39.79-.65,1.25s-.54,1-.84,1.44-.6,1-.9,1.43-.59.88-.85,1.25l-2.34-1.13c.27-.36.56-.76.87-1.21s.61-.9.9-1.36.55-.91.79-1.36.43-.83.58-1.18Zm4-1.85v4.12A4.05,4.05,0,0,1,67.16,68a1.56,1.56,0,0,1-.45.73,2.12,2.12,0,0,1-.8.45c-.33.12-.74.23-1.22.35l-1.17.29-.83-2.6.9-.21a2.17,2.17,0,0,0,.72-.28.6.6,0,0,0,.21-.54V63.07l-5.6.74.58-7.74c.62-.08,1.28-.18,2-.29s1.4-.22,2.11-.34l2.14-.39c.72-.13,1.4-.27,2.07-.41s1.28-.27,1.87-.41,1.1-.26,1.56-.39l.55,2.63L69.7,57c-.77.17-1.57.34-2.42.5s-1.71.33-2.59.49l-2.58.45-.18,2.55,2.59-.34V58.38l2.78-.3v2.15l4.93-.65v2.47ZM70,62.48q.27.29.66.78l.83,1.08c.29.39.58.79.86,1.2s.53.81.76,1.18l-2.36,1.82c-.18-.35-.4-.74-.65-1.16s-.51-.82-.79-1.23-.54-.78-.81-1.14-.51-.66-.72-.91Z"/></g></g></g></g></svg>