<svg xmlns="http://www.w3.org/2000/svg" viewBox="0 0 128 46.24"><defs><style>.cls-1{fill:none;stroke:#333;stroke-linejoin:round;}.cls-2{opacity:0.16;}</style></defs><title>1-258</title><g id="图层_2" data-name="图层 2"><g id="_1-252_1-258" data-name="1-252——1-258"><g id="_1-258" data-name="1-258"><line class="cls-1" x1="90.64" y1="0.21" x2="86.23" y2="9.49"/><line class="cls-1" x1="87.4" y1="0.21" x2="82.99" y2="9.49"/><line class="cls-1" x1="93.16" y1="36.75" x2="88.75" y2="46.03"/><line class="cls-1" x1="89.92" y1="36.75" x2="85.51" y2="46.03"/><line class="cls-1" x1="84.16" y1="0.21" x2="79.75" y2="9.49"/><line class="cls-1" x1="21.34" y1="0.21" x2="16.94" y2="9.49"/><line class="cls-1" x1="18.1" y1="0.21" x2="13.7" y2="9.49"/><line class="cls-1" x1="14.86" y1="0.21" x2="10.46" y2="9.49"/><line class="cls-1" y1="4.85" x2="128" y2="4.85"/><path class="cls-1" d="M41.29,4.85s21.7,1,17.54,36.41h68"/><g class="cls-2"><path d="M45.78,27.91c-.17.37-.39.79-.65,1.26s-.54.94-.84,1.43-.6,1-.9,1.43-.59.88-.85,1.25L40.2,32.16c.27-.36.56-.77.87-1.21s.61-.91.89-1.37.55-.91.79-1.36.44-.83.59-1.18Zm4-1.84v4.11a4.23,4.23,0,0,1-.13,1.18,1.77,1.77,0,0,1-.45.72,2.42,2.42,0,0,1-.81.46c-.33.11-.73.23-1.21.34L46,33.17l-.83-2.59.9-.22a2.73,2.73,0,0,0,.72-.27.65.65,0,0,0,.2-.55V26.43l-5.59.74L42,19.43c.62-.08,1.28-.18,2-.29s1.4-.22,2.11-.34l2.14-.38L50.25,18l1.87-.41c.59-.14,1.11-.27,1.57-.4l.55,2.63-2.08.48c-.76.17-1.57.34-2.41.5l-2.6.49-2.58.45L44.4,24.3,47,24V21.75l2.78-.3v2.14l4.93-.65v2.48Zm2.72-.23c.17.19.39.45.65.78s.54.69.83,1.08.58.79.86,1.21.54.8.77,1.17l-2.36,1.83c-.18-.36-.4-.75-.65-1.16s-.51-.83-.79-1.23-.55-.79-.81-1.15-.51-.66-.73-.9Z"/><path d="M71.3,21v2.21L56.66,25.16V22.94l3.27-.43.25-1-2.39.31V20l2.84-.38.21-.87-3.4.45V17l13.08-1.72v2.19l-6.85.9-.21.88,6-.79-.15,2.85ZM58.11,25.68l11.75-1.54v5.63L58.11,31.31Zm2.59,3.1,6.44-.85V26.64l-6.44.85Zm2.08-6.64,3.87-.51.07-.95L63,21.17Z"/><path d="M78,23.67c-.17.37-.39.79-.65,1.26s-.54.94-.84,1.43-.6,1-.9,1.43-.59.88-.85,1.25l-2.34-1.12c.27-.37.56-.77.87-1.22s.61-.9.9-1.36.55-.91.79-1.36.43-.83.58-1.18Zm4-1.85v4.12a4.05,4.05,0,0,1-.14,1.17,1.56,1.56,0,0,1-.45.73,2.28,2.28,0,0,1-.8.46c-.33.11-.74.23-1.22.34l-1.17.29-.83-2.59.9-.22a2.46,2.46,0,0,0,.72-.27.63.63,0,0,0,.21-.55V22.19l-5.6.74.58-7.74c.62-.08,1.28-.18,2-.29s1.4-.22,2.11-.34l2.14-.39c.72-.13,1.4-.27,2.07-.41s1.28-.27,1.87-.4,1.1-.27,1.56-.4l.55,2.63-2.07.48c-.77.17-1.57.34-2.42.5s-1.71.33-2.59.49l-2.58.45-.18,2.55,2.59-.34V17.51L82,17.2v2.15l4.93-.65v2.48Zm2.71-.22q.27.28.66.78l.83,1.08c.29.39.58.79.86,1.21s.53.8.76,1.17l-2.36,1.82c-.18-.35-.4-.74-.65-1.15s-.51-.83-.79-1.23-.54-.79-.81-1.15-.51-.66-.72-.91Z"/></g></g></g></g></svg>