<svg xmlns="http://www.w3.org/2000/svg" viewBox="0 0 128.5 36.87"><defs><style>.cls-1{fill:#333;}.cls-1,.cls-2{stroke:#333;stroke-linejoin:round;}.cls-2{fill:none;}.cls-3{opacity:0.16;}</style></defs><title>1-251</title><g id="图层_2" data-name="图层 2"><g id="_1-243_1-251" data-name="1-243——1-251"><g id="_1-251" data-name="1-251"><circle class="cls-1" cx="96" cy="4.5" r="4"/><polyline class="cls-2" points="0 4.5 96 4.5 122.13 30.63"/><g class="cls-3"><path d="M45.78,23.22c-.17.37-.39.79-.65,1.26s-.54.95-.84,1.44-.6,1-.9,1.43l-.85,1.25L40.2,27.47c.27-.36.56-.76.87-1.21s.61-.9.89-1.36.55-.92.79-1.36.44-.84.59-1.18Zm4-1.84V25.5a4.1,4.1,0,0,1-.13,1.17,1.74,1.74,0,0,1-.45.73,2.25,2.25,0,0,1-.81.45c-.33.12-.73.23-1.21.35L46,28.48l-.83-2.59.9-.21a2.37,2.37,0,0,0,.72-.28.63.63,0,0,0,.2-.55v-3.1l-5.59.73L42,14.74c.62-.08,1.28-.17,2-.28l2.11-.34,2.14-.39,2.06-.41c.66-.14,1.29-.27,1.87-.41l1.57-.39.55,2.63-2.08.47c-.76.18-1.57.34-2.41.51l-2.6.49-2.58.45-.17,2.55L47,19.27V17.06l2.78-.3v2.15l4.93-.65v2.47Zm2.72-.23c.17.2.39.46.65.79s.54.69.83,1.08.58.79.86,1.2.54.81.77,1.18l-2.36,1.82c-.18-.35-.4-.74-.65-1.16s-.51-.83-.79-1.23L51,23.69c-.27-.36-.51-.67-.73-.91Z"/><path d="M71.3,16.33v2.21L56.66,20.47V18.26l3.27-.43.25-1-2.39.32V15.28l2.84-.37.21-.88-3.4.45v-2.2l13.08-1.72v2.2l-6.85.9-.21.87,6-.78L69.3,16.6ZM58.11,21l11.75-1.55v5.63L58.11,26.63Zm2.59,3.09,6.44-.85V22l-6.44.84Zm2.08-6.64,3.87-.51.07-1L63,16.48Z"/><path d="M78,19c-.17.37-.39.79-.65,1.26s-.54,1-.84,1.44-.6,1-.9,1.42-.59.88-.85,1.25l-2.34-1.12c.27-.36.56-.76.87-1.21s.61-.9.9-1.36.55-.92.79-1.36.43-.84.58-1.18Zm4-1.84v4.12a4.1,4.1,0,0,1-.14,1.17,1.61,1.61,0,0,1-.45.73,2.27,2.27,0,0,1-.8.45c-.33.12-.74.23-1.22.35l-1.17.28-.83-2.59.9-.21a2.17,2.17,0,0,0,.72-.28.62.62,0,0,0,.21-.55v-3.1l-5.6.73.58-7.74c.62-.08,1.28-.17,2-.28l2.11-.34,2.14-.39,2.07-.41c.66-.14,1.28-.27,1.87-.41l1.56-.39.55,2.63-2.07.47L82,11.89l-2.59.49-2.58.45-.18,2.54L79.2,15V12.82l2.78-.3v2.15L86.91,14v2.47Zm2.71-.23c.18.2.4.46.66.79l.83,1.08c.29.39.58.79.86,1.2s.53.81.76,1.18L85.44,23c-.18-.36-.4-.74-.65-1.16S84.28,21,84,20.59s-.54-.78-.81-1.14-.51-.67-.72-.91Z"/></g><polygon class="cls-1" points="119.23 27.61 117.3 29.54 122.65 32.96 128 36.37 124.58 31.02 121.17 25.67 119.23 27.61"/></g></g></g></svg>