<svg xmlns="http://www.w3.org/2000/svg" viewBox="0 0 101.51 129"><defs><style>.cls-1{fill:none;}.cls-1,.cls-3{stroke:#333;stroke-linejoin:round;}.cls-2{opacity:0.16;}.cls-3{fill:#333;}</style></defs><title>1-256</title><g id="图层_2" data-name="图层 2"><g id="_1-252_1-258" data-name="1-252——1-258"><g id="_1-256" data-name="1-256"><line class="cls-1" x1="32.6" y1="5.44" x2="32.6" y2="128.02"/><line class="cls-1" x1="68.91" y1="5.44" x2="68.91" y2="128.02"/><line class="cls-1" x1="32.6" y1="66.73" x2="68.91" y2="66.73"/><g class="cls-2"><path d="M32.53,69.29c-.17.37-.39.79-.65,1.25s-.54.95-.84,1.44-.59,1-.9,1.43-.58.88-.84,1.25L27,73.54c.27-.37.56-.77.87-1.22s.61-.9.9-1.36.55-.91.79-1.36.43-.83.58-1.18Zm4-1.85v4.12a4.05,4.05,0,0,1-.14,1.17,1.56,1.56,0,0,1-.45.73,2.28,2.28,0,0,1-.8.46c-.33.11-.74.23-1.21.34l-1.18.29L31.91,72l.9-.22a2.46,2.46,0,0,0,.72-.27.63.63,0,0,0,.21-.55V67.81l-5.6.74.59-7.74c.61-.08,1.27-.18,2-.29s1.4-.22,2.11-.34,1.43-.25,2.14-.39,1.41-.27,2.07-.41,1.28-.27,1.87-.41,1.1-.26,1.56-.39L41,61.21l-2.07.48c-.77.17-1.57.34-2.42.5s-1.71.33-2.59.49l-2.58.45-.18,2.55,2.59-.34V63.13l2.78-.31V65l4.93-.65v2.47Zm2.72-.22c.17.19.39.45.65.78l.83,1.08c.29.39.58.79.86,1.2s.54.81.76,1.18L40,73.28c-.18-.35-.4-.74-.65-1.15s-.51-.83-.79-1.24-.54-.78-.81-1.14-.51-.66-.72-.91Z"/><path d="M58.06,62.4v2.21L43.42,66.54V64.32l3.27-.43.24-1-2.39.31V61.34L47.39,61l.21-.87-3.4.44V58.35l13.08-1.73v2.2l-6.85.9-.21.88,6-.79-.15,2.85ZM44.87,67.06l11.74-1.55v5.63L44.87,72.69Zm2.58,3.09,6.44-.84V68l-6.44.85Zm2.08-6.63L53.41,63l.06-.95-3.71.49Z"/><path d="M64.75,65.05c-.18.37-.39.79-.65,1.25s-.54,1-.84,1.44-.6,1-.91,1.43-.58.88-.84,1.25l-2.34-1.13c.27-.36.56-.76.87-1.21s.6-.9.89-1.36.55-.91.79-1.36.43-.83.59-1.18Zm4-1.85v4.12a3.73,3.73,0,0,1-.14,1.17,1.63,1.63,0,0,1-.44.73,2.25,2.25,0,0,1-.81.45c-.33.12-.73.23-1.21.35L65,70.31l-.83-2.6L65,67.5a2.35,2.35,0,0,0,.73-.28.62.62,0,0,0,.2-.54V63.57l-5.6.74.59-7.74c.62-.08,1.27-.18,2-.29s1.39-.22,2.1-.34,1.43-.25,2.14-.39,1.41-.27,2.07-.41,1.29-.27,1.87-.41,1.11-.26,1.56-.39L73.21,57l-2.08.48c-.76.17-1.57.34-2.41.5l-2.6.49-2.58.45-.18,2.55L66,61.1V58.88l2.78-.3v2.15l4.93-.65v2.47ZM71.45,63c.17.19.39.45.65.78s.54.69.83,1.08.58.79.86,1.2.54.81.77,1.18L72.2,69c-.19-.35-.4-.74-.65-1.16s-.52-.82-.79-1.23-.55-.78-.82-1.14-.5-.66-.72-.91Z"/></g><line class="cls-1" x1="78.53" y1="5.92" x2="101.51" y2="5.92"/><line class="cls-1" x1="78.53" y1="36.57" x2="101.51" y2="36.57"/><line class="cls-1" x1="78.53" y1="67.21" x2="101.51" y2="67.21"/><line class="cls-1" x1="78.53" y1="97.86" x2="101.51" y2="97.86"/><line class="cls-1" x1="78.53" y1="128.5" x2="101.51" y2="128.5"/><line class="cls-1" y1="5.92" x2="22.98" y2="5.92"/><line class="cls-1" y1="36.57" x2="22.98" y2="36.57"/><line class="cls-1" y1="67.21" x2="22.98" y2="67.21"/><line class="cls-1" y1="97.86" x2="22.98" y2="97.86"/><line class="cls-1" y1="128.5" x2="22.98" y2="128.5"/><circle class="cls-3" cx="20.54" cy="2.7" r="2.2"/><circle class="cls-3" cx="98.55" cy="125.75" r="2.2"/></g></g></g></svg>