<svg xmlns="http://www.w3.org/2000/svg" viewBox="0 0 129 95.88"><defs><style>.cls-1{fill:#333;}.cls-1,.cls-2{stroke:#333;stroke-linejoin:round;}.cls-2{fill:none;}.cls-3{opacity:0.16;}</style></defs><title>1-269</title><g id="图层_2" data-name="图层 2"><g id="_1-268_1-275" data-name="1-268——1-275"><g id="_1-269" data-name="1-269"><polygon class="cls-1" points="119.11 39.01 122.01 44.89 128.5 45.83 123.81 50.41 124.91 56.87 119.11 53.82 113.31 56.87 114.42 50.41 109.72 45.83 116.21 44.89 119.11 39.01"/><rect class="cls-2" x="0.5" y="31.88" width="80.06" height="32.12"/><g class="cls-3"><path d="M46.28,52.73c-.17.37-.39.79-.65,1.25s-.54,1-.84,1.44-.6,1-.9,1.43-.59.88-.85,1.25L40.7,57c.27-.36.56-.76.87-1.21s.61-.9.89-1.36.55-.91.79-1.36.44-.83.59-1.18Zm4-1.85V55a4.1,4.1,0,0,1-.13,1.17,1.74,1.74,0,0,1-.45.73,2.42,2.42,0,0,1-.81.46c-.33.11-.73.22-1.21.34L46.49,58l-.83-2.6.9-.21a2.73,2.73,0,0,0,.72-.27.65.65,0,0,0,.2-.55V51.25L41.89,52l.58-7.74c.62-.08,1.28-.18,2-.29s1.4-.22,2.11-.34l2.14-.39c.71-.13,1.4-.27,2.06-.41s1.29-.27,1.87-.41,1.11-.26,1.57-.39l.55,2.63-2.08.48c-.76.17-1.57.34-2.41.5l-2.6.49-2.58.45-.17,2.55,2.58-.34V46.56l2.78-.3v2.15l4.93-.65v2.47ZM53,50.66c.17.19.39.45.65.78s.54.69.83,1.08.58.79.86,1.2.54.81.77,1.18l-2.36,1.82c-.18-.35-.4-.74-.65-1.16s-.51-.82-.79-1.23l-.81-1.14c-.27-.36-.51-.66-.73-.91Z"/><path d="M71.8,45.83v2.22L57.16,50V47.76l3.27-.43.25-1-2.39.31V44.78l2.84-.37.21-.87-3.4.44V41.79L71,40.06v2.2l-6.85.9L64,44l6-.79L69.8,46.1ZM58.61,50.5,70.36,49v5.63L58.61,56.13Zm2.59,3.09,6.44-.85V51.46l-6.44.85ZM63.28,47l3.87-.51.07-1L63.51,46Z"/><path d="M78.49,48.49c-.17.37-.39.78-.65,1.25s-.54.95-.84,1.44-.6,1-.9,1.43-.59.88-.85,1.25l-2.34-1.13c.27-.36.56-.76.87-1.21s.61-.9.9-1.36.55-.91.79-1.36.43-.84.58-1.18Zm4-1.85v4.12a4.05,4.05,0,0,1-.14,1.17,1.56,1.56,0,0,1-.45.73,2.12,2.12,0,0,1-.8.45c-.33.12-.74.23-1.22.35l-1.17.28-.83-2.59.9-.21a2.17,2.17,0,0,0,.72-.28.6.6,0,0,0,.21-.54V47l-5.6.74L74.68,40l2-.29,2.11-.34L80.9,39c.72-.13,1.4-.27,2.07-.41s1.28-.27,1.87-.41,1.1-.26,1.56-.39L87,40.41l-2.07.47c-.77.18-1.57.34-2.42.51s-1.71.33-2.59.49l-2.58.45-.18,2.55,2.59-.34V42.32l2.78-.3v2.15l4.93-.65V46Zm2.71-.22q.27.28.66.78l.83,1.08c.29.39.58.79.86,1.2s.53.81.76,1.18l-2.36,1.82c-.18-.35-.4-.74-.65-1.16s-.51-.82-.79-1.23S84,49.31,83.69,49s-.51-.67-.72-.91Z"/></g><line class="cls-2" x1="17.06" x2="17.06" y2="31.63"/><line class="cls-2" x1="32.87" x2="32.87" y2="31.63"/><line class="cls-2" x1="49.18" x2="49.18" y2="31.63"/><line class="cls-2" x1="65.49" x2="65.49" y2="31.63"/><line class="cls-2" x1="38.31" y1="64.25" x2="38.31" y2="95.88"/></g></g></g></svg>