<svg xmlns="http://www.w3.org/2000/svg" viewBox="0 0 86.33 128"><defs><style>.cls-1{fill:none;stroke:#333;stroke-linejoin:round;}.cls-2{opacity:0.16;}</style></defs><title>1-279</title><g id="图层_2" data-name="图层 2"><g id="_1-276_1-284" data-name="1-276——1-284"><g id="_1-279" data-name="1-279"><line class="cls-1" x1="43.17" y1="85.33" x2="43.17"/><g class="cls-2"><path d="M25,68.79c-.18.37-.4.79-.66,1.25s-.53.95-.83,1.44-.6,1-.91,1.43-.58.88-.84,1.25L19.36,73c.28-.37.57-.77.88-1.22s.6-.9.89-1.36.55-.91.79-1.36.43-.83.58-1.18Zm4-1.85v4.12a4.05,4.05,0,0,1-.14,1.17,1.63,1.63,0,0,1-.44.73,2.42,2.42,0,0,1-.81.46c-.33.11-.73.23-1.21.34l-1.17.29-.83-2.59.89-.22A2.69,2.69,0,0,0,26,71a.65.65,0,0,0,.2-.55V67.31l-5.6.74.59-7.74c.62-.08,1.27-.18,2-.29s1.39-.22,2.1-.34,1.43-.25,2.14-.39,1.41-.27,2.07-.41,1.28-.27,1.87-.41,1.11-.26,1.56-.39l.56,2.63-2.08.48c-.76.17-1.57.34-2.42.5s-1.71.33-2.59.49l-2.58.45-.18,2.55,2.59-.34V62.63l2.78-.31v2.15l4.93-.65v2.47Zm2.72-.22c.17.19.39.45.65.78s.54.69.83,1.08.58.79.86,1.2.54.81.77,1.18L32.4,72.78c-.19-.35-.4-.74-.65-1.15s-.52-.83-.79-1.24-.55-.78-.82-1.14-.5-.66-.72-.91Z"/><path d="M50.47,61.9v2.21L35.83,66V63.82l3.27-.43.24-1L37,62.73V60.84l2.85-.37L40,59.6l-3.4.44V57.85l13.08-1.73v2.2l-6.85.9-.21.88,6-.79-.15,2.85ZM37.28,66.56,49,65v5.63L37.28,72.19Zm2.58,3.09,6.45-.84V67.52l-6.45.85ZM42,63l3.87-.51.06-.95-3.71.49Z"/><path d="M57.16,64.55c-.18.37-.39.79-.65,1.25s-.54,1-.84,1.44-.6,1-.9,1.43-.59.88-.85,1.25l-2.34-1.13c.27-.36.56-.76.87-1.21s.61-.9.89-1.36.55-.91.79-1.36.44-.83.59-1.18Zm4-1.85v4.12A4.1,4.1,0,0,1,61,68a1.74,1.74,0,0,1-.45.73,2.25,2.25,0,0,1-.81.45c-.33.12-.73.23-1.21.35l-1.17.29-.83-2.6.9-.21a2.37,2.37,0,0,0,.72-.28.62.62,0,0,0,.2-.54V63.07l-5.59.74.58-7.74c.62-.08,1.28-.18,2-.29s1.4-.22,2.11-.34l2.14-.39c.71-.13,1.4-.27,2.06-.41s1.29-.27,1.87-.41,1.11-.26,1.57-.39l.55,2.63L63.54,57c-.76.17-1.57.34-2.41.5l-2.6.49L56,58.39l-.17,2.55,2.58-.34V58.38l2.78-.3v2.15l4.93-.65v2.47Zm2.72-.22c.17.19.39.45.65.78s.54.69.83,1.08.58.79.86,1.2.54.81.77,1.18l-2.36,1.82c-.18-.35-.4-.74-.65-1.16s-.51-.82-.79-1.23L62.36,65c-.27-.36-.51-.66-.73-.91Z"/></g><path class="cls-1" d="M.5,128a42.67,42.67,0,1,1,85.33,0"/></g></g></g></svg>