<svg xmlns="http://www.w3.org/2000/svg" viewBox="0 0 97.25 129"><defs><style>.cls-1{fill:none;}.cls-1,.cls-3{stroke:#333;stroke-linejoin:round;}.cls-2{opacity:0.16;}.cls-3{fill:#333;}</style></defs><title>1-278</title><g id="图层_2" data-name="图层 2"><g id="_1-276_1-284" data-name="1-276——1-284"><g id="_1-278" data-name="1-278"><rect class="cls-1" x="0.5" y="32.25" width="96.25" height="96.25"/><polygon class="cls-1" points="48.63 56.9 96.75 32.54 0.5 32.54 48.63 56.9"/><g class="cls-2"><path d="M30.4,69.29c-.17.37-.39.79-.65,1.25s-.54.95-.84,1.44-.59,1-.9,1.43-.58.88-.84,1.25l-2.35-1.12c.27-.37.56-.77.87-1.22s.61-.9.9-1.36.55-.91.79-1.36.43-.83.58-1.18Zm4-1.85v4.12a4.05,4.05,0,0,1-.14,1.17,1.56,1.56,0,0,1-.45.73,2.28,2.28,0,0,1-.8.46c-.33.11-.74.23-1.21.34l-1.18.29L29.79,72l.89-.22a2.46,2.46,0,0,0,.72-.27.63.63,0,0,0,.21-.55V67.81l-5.6.74.59-7.74,2-.29c.69-.1,1.39-.22,2.1-.34s1.43-.25,2.14-.39,1.41-.27,2.07-.41,1.28-.27,1.87-.41,1.11-.26,1.56-.39l.55,2.63-2.07.48c-.77.17-1.57.34-2.42.5s-1.71.33-2.59.49l-2.58.45L29,65.68l2.59-.34V63.13l2.78-.31V65l4.93-.65v2.47Zm2.72-.22c.17.19.39.45.65.78l.83,1.08c.29.39.58.79.86,1.2s.54.81.76,1.18l-2.35,1.82c-.19-.35-.41-.74-.66-1.15s-.51-.83-.78-1.24-.55-.78-.82-1.14-.51-.66-.72-.91Z"/><path d="M55.93,62.4v2.21L41.29,66.54V64.32l3.27-.43.24-1-2.39.31V61.34L45.26,61l.21-.87-3.4.44V58.35l13.08-1.73v2.2l-6.85.9-.21.88,6-.79-.15,2.85ZM42.74,67.06l11.74-1.55v5.63L42.74,72.69Zm2.58,3.09,6.45-.84V68l-6.45.85Zm2.08-6.63L51.28,63l.06-.95-3.71.49Z"/><path d="M62.62,65.05c-.18.37-.39.79-.65,1.25s-.54,1-.84,1.44-.6,1-.91,1.43-.58.88-.84,1.25L57,69.29c.27-.36.56-.76.87-1.21s.6-.9.89-1.36.55-.91.79-1.36.43-.83.59-1.18Zm4-1.85v4.12a3.73,3.73,0,0,1-.14,1.17,1.63,1.63,0,0,1-.44.73,2.25,2.25,0,0,1-.81.45c-.33.12-.73.23-1.21.35l-1.17.29L62,67.71l.89-.21a2.35,2.35,0,0,0,.73-.28.62.62,0,0,0,.2-.54V63.57l-5.6.74.59-7.74c.62-.08,1.27-.18,2-.29s1.39-.22,2.1-.34,1.43-.25,2.14-.39,1.41-.27,2.07-.41,1.29-.27,1.87-.41,1.11-.26,1.56-.39L71.08,57,69,57.45c-.76.17-1.57.34-2.41.5l-2.6.49-2.58.45-.18,2.55,2.59-.34V58.88l2.78-.3v2.15l4.93-.65v2.47ZM69.32,63c.17.19.39.45.65.78s.54.69.83,1.08.58.79.86,1.2.54.81.77,1.18L70.07,69c-.19-.35-.4-.74-.65-1.16s-.52-.82-.79-1.23-.55-.78-.82-1.14-.5-.66-.72-.91Z"/></g><polygon class="cls-3" points="79.57 0.5 53.1 13.32 66.36 26.77 79.57 0.5"/><line class="cls-1" x1="58.52" y1="19.91" x2="15.31" y2="62.48"/><polygon class="cls-1" points="63 86.71 28.38 66.79 28.38 106.63 63 86.71"/><line class="cls-1" x1="9.6" y1="86.54" x2="84.13" y2="86.54"/><line class="cls-1" x1="65.06" y1="68.64" x2="65.06" y2="106.79"/><line class="cls-1" x1="45.69" y1="96.81" x2="45.69" y2="122.04"/></g></g></g></svg>