<svg xmlns="http://www.w3.org/2000/svg" viewBox="0 0 128.5 118.19"><defs><style>.cls-1{fill:#333;}.cls-1,.cls-2{stroke:#333;stroke-linejoin:round;}.cls-2{fill:none;}.cls-3{opacity:0.16;}</style></defs><title>1-284</title><g id="图层_2" data-name="图层 2"><g id="_1-276_1-284" data-name="1-276——1-284"><g id="_1-284" data-name="1-284"><polygon class="cls-1" points="94.25 89.66 98.81 98.89 108.99 100.37 101.62 107.55 103.36 117.69 94.25 112.9 85.15 117.69 86.89 107.55 79.52 100.37 89.7 98.89 94.25 89.66"/><path class="cls-2" d="M61.28,98.25a33.36,33.36,0,1,1,66.72,0"/><line class="cls-2" x1="94.64" y1="0.5" x2="94.64" y2="64.89"/><line class="cls-2" y1="0.5" x2="94.64" y2="0.5"/><g class="cls-3"><path d="M45.78,63.88c-.17.37-.39.79-.65,1.26s-.54,1-.84,1.44-.6,1-.9,1.42-.59.88-.85,1.25L40.2,68.13c.27-.36.56-.76.87-1.21s.61-.9.89-1.36.55-.92.79-1.36.44-.84.59-1.18Zm4-1.84v4.12a4.15,4.15,0,0,1-.13,1.17,1.81,1.81,0,0,1-.45.73,2.41,2.41,0,0,1-.81.45c-.33.11-.73.23-1.21.35L46,69.14l-.83-2.59.9-.22a2.41,2.41,0,0,0,.72-.27.64.64,0,0,0,.2-.55v-3.1l-5.59.73L42,55.4c.62-.08,1.28-.17,2-.28l2.11-.34,2.14-.39L50.25,54c.66-.14,1.29-.27,1.87-.41l1.57-.39.55,2.63-2.08.47-2.41.51-2.6.48-2.58.46-.17,2.54L47,59.93V57.72l2.78-.3v2.15l4.93-.65v2.47Zm2.72-.23c.17.2.39.46.65.79L54,63.67c.29.4.58.8.86,1.21s.54.8.77,1.18l-2.36,1.82c-.18-.36-.4-.74-.65-1.16s-.51-.83-.79-1.23L51,64.34c-.27-.36-.51-.66-.73-.9Z"/><path d="M71.3,57V59.2L56.66,61.13V58.92l3.27-.43.25-1-2.39.32V55.94l2.84-.38.21-.87-3.4.45v-2.2l13.08-1.72v2.2l-6.85.9-.21.87,6-.79-.15,2.85ZM58.11,61.66l11.75-1.55v5.63L58.11,67.29Zm2.59,3.09,6.44-.85V62.62l-6.44.84Zm2.08-6.64,3.87-.51.07-1L63,57.14Z"/><path d="M78,59.64c-.17.37-.39.79-.65,1.26s-.54.94-.84,1.43-.6,1-.9,1.43-.59.88-.85,1.25l-2.34-1.12c.27-.36.56-.77.87-1.21s.61-.9.9-1.36.55-.92.79-1.36.43-.84.58-1.19Zm4-1.84v4.11a4.18,4.18,0,0,1-.14,1.18,1.58,1.58,0,0,1-.45.72,2.28,2.28,0,0,1-.8.46c-.33.11-.74.23-1.22.35l-1.17.28-.83-2.59.9-.22a2.46,2.46,0,0,0,.72-.27.62.62,0,0,0,.21-.55V58.16l-5.6.74.58-7.74c.62-.08,1.28-.17,2-.28l2.11-.34,2.14-.39,2.07-.41c.66-.14,1.28-.27,1.87-.41l1.56-.39.55,2.62L84.38,52c-.77.17-1.57.34-2.42.5s-1.71.33-2.59.49l-2.58.46L76.61,56l2.59-.34V53.48l2.78-.3v2.15l4.93-.65v2.47Zm2.71-.23c.18.2.4.46.66.79l.83,1.07c.29.39.58.8.86,1.21s.53.8.76,1.17l-2.36,1.83c-.18-.36-.4-.74-.65-1.16s-.51-.83-.79-1.23-.54-.79-.81-1.15-.51-.66-.72-.9Z"/></g></g></g></g></svg>