<svg xmlns="http://www.w3.org/2000/svg" viewBox="0 0 128.5 126.95"><defs><style>.cls-1{fill:none;stroke:#333;stroke-linejoin:round;}.cls-2{opacity:0.16;}</style></defs><title>1-281</title><g id="图层_2" data-name="图层 2"><g id="_1-276_1-284" data-name="1-276——1-284"><g id="_1-281" data-name="1-281"><path class="cls-1" d="M61.28,108.25a33.36,33.36,0,1,1,66.72,0"/><path class="cls-1" d="M61.28,88.25a33.36,33.36,0,1,1,66.72,0"/><g class="cls-2"><path d="M45.78,68.51c-.17.37-.39.79-.65,1.26s-.54,1-.84,1.43-.6,1-.9,1.43-.59.88-.85,1.25L40.2,72.76c.27-.36.56-.76.87-1.21s.61-.9.89-1.36.55-.92.79-1.36.44-.84.59-1.18Zm4-1.84v4.11A4.23,4.23,0,0,1,49.63,72a1.77,1.77,0,0,1-.45.72,2.26,2.26,0,0,1-.81.46c-.33.11-.73.23-1.21.35L46,73.77l-.83-2.59.9-.22a2.73,2.73,0,0,0,.72-.27.64.64,0,0,0,.2-.55V67l-5.59.74L42,60c.62-.08,1.28-.17,2-.28l2.11-.34L48.19,59l2.06-.41c.66-.14,1.29-.27,1.87-.41l1.57-.39.55,2.62-2.08.48-2.41.51-2.6.48-2.58.46L44.4,64.9,47,64.56V62.35l2.78-.3V64.2l4.93-.65V66Zm2.72-.23c.17.2.39.46.65.79s.54.68.83,1.07.58.8.86,1.21.54.8.77,1.17l-2.36,1.83c-.18-.36-.4-.74-.65-1.16s-.51-.83-.79-1.23L51,69c-.27-.36-.51-.66-.73-.9Z"/><path d="M71.3,61.62v2.21L56.66,65.76V63.55l3.27-.43.25-1-2.39.32V60.57l2.84-.38.21-.87-3.4.45v-2.2l13.08-1.72v2.2l-6.85.9-.21.87,6-.79-.15,2.85ZM58.11,66.29l11.75-1.55v5.63L58.11,71.92Zm2.59,3.09,6.44-.85V67.24l-6.44.85Zm2.08-6.64,3.87-.51.07-.95L63,61.77Z"/><path d="M78,64.27c-.17.37-.39.79-.65,1.26s-.54.94-.84,1.43-.6,1-.9,1.43-.59.88-.85,1.25l-2.34-1.12c.27-.36.56-.77.87-1.21s.61-.91.9-1.37.55-.91.79-1.35.43-.84.58-1.19Zm4-1.84v4.11a4.18,4.18,0,0,1-.14,1.18,1.58,1.58,0,0,1-.45.72,2.28,2.28,0,0,1-.8.46c-.33.11-.74.23-1.22.35l-1.17.28-.83-2.59.9-.22a2.46,2.46,0,0,0,.72-.27.63.63,0,0,0,.21-.55V62.79l-5.6.74.58-7.74c.62-.08,1.28-.17,2-.28s1.4-.22,2.11-.35l2.14-.38,2.07-.41L84.34,54l1.56-.39.55,2.62-2.07.48c-.77.17-1.57.34-2.42.5s-1.71.33-2.59.49l-2.58.46-.18,2.54,2.59-.34V58.11l2.78-.3V60l4.93-.65v2.47Zm2.71-.23c.18.19.4.46.66.78l.83,1.08c.29.39.58.8.86,1.21s.53.8.76,1.17l-2.36,1.83c-.18-.36-.4-.74-.65-1.16s-.51-.83-.79-1.23-.54-.79-.81-1.15-.51-.66-.72-.9Z"/></g><path class="cls-1" d="M61.28,127A33.36,33.36,0,0,1,128,127"/><line class="cls-1" x1="94.64" y1="0.5" x2="94.64" y2="93.59"/><line class="cls-1" y1="0.5" x2="94.64" y2="0.5"/></g></g></g></svg>