<svg xmlns="http://www.w3.org/2000/svg" viewBox="0 0 128.5 98.25"><defs><style>.cls-1{fill:none;stroke:#333;stroke-linejoin:round;}.cls-2{opacity:0.16;}</style></defs><title>1-282</title><g id="图层_2" data-name="图层 2"><g id="_1-276_1-284" data-name="1-276——1-284"><g id="_1-282" data-name="1-282"><path class="cls-1" d="M61.28,98.25a33.36,33.36,0,1,1,66.72,0"/><line class="cls-1" x1="94.64" y1="0.5" x2="94.64" y2="64.89"/><line class="cls-1" y1="0.5" x2="94.64" y2="0.5"/><g class="cls-2"><path d="M45.78,54.16c-.17.37-.39.79-.65,1.26s-.54.94-.84,1.43-.6,1-.9,1.43-.59.88-.85,1.25L40.2,58.41c.27-.36.56-.77.87-1.21s.61-.91.89-1.37.55-.91.79-1.35.44-.84.59-1.19Zm4-1.84v4.11a4.23,4.23,0,0,1-.13,1.18,1.77,1.77,0,0,1-.45.72,2.42,2.42,0,0,1-.81.46c-.33.11-.73.23-1.21.34L46,59.42l-.83-2.59.9-.22a2.73,2.73,0,0,0,.72-.27.65.65,0,0,0,.2-.55V52.68l-5.59.74L42,45.68l2-.28c.69-.11,1.4-.22,2.11-.35l2.14-.38,2.06-.41,1.87-.41,1.57-.39.55,2.62-2.08.48c-.76.17-1.57.34-2.41.5l-2.6.49L44.57,48l-.17,2.54L47,50.21V48l2.78-.3v2.14l4.93-.64v2.47Zm2.72-.23c.17.19.39.46.65.78s.54.69.83,1.08.58.79.86,1.21.54.8.77,1.17l-2.36,1.83c-.18-.36-.4-.74-.65-1.16s-.51-.83-.79-1.23L51,54.62c-.27-.36-.51-.66-.73-.9Z"/><path d="M71.3,47.27v2.21L56.66,51.41V49.2l3.27-.43.25-1-2.39.32V46.22l2.84-.38.21-.87-3.4.45v-2.2L70.52,41.5v2.19l-6.85.91-.21.87,6-.79-.15,2.85ZM58.11,51.93l11.75-1.54V56L58.11,57.56ZM60.7,55l6.44-.85V52.89l-6.44.85Zm2.08-6.64,3.87-.51.07-1L63,47.42Z"/><path d="M78,49.92c-.17.37-.39.79-.65,1.26s-.54.94-.84,1.43-.6,1-.9,1.43-.59.88-.85,1.25l-2.34-1.12c.27-.36.56-.77.87-1.21s.61-.91.9-1.37.55-.91.79-1.35.43-.84.58-1.19Zm4-1.84v4.11a4.18,4.18,0,0,1-.14,1.18,1.58,1.58,0,0,1-.45.72,2.28,2.28,0,0,1-.8.46c-.33.11-.74.23-1.22.34l-1.17.29-.83-2.59.9-.22A2.46,2.46,0,0,0,79,52.1a.63.63,0,0,0,.21-.55V48.44l-5.6.74.58-7.74,2-.28,2.11-.35,2.14-.38L82.47,40l1.87-.41c.58-.14,1.1-.27,1.56-.4l.55,2.63-2.07.48c-.77.17-1.57.34-2.42.5s-1.71.33-2.59.49l-2.58.45-.18,2.55L79.2,46V43.76l2.78-.3V45.6L86.91,45v2.48Zm2.71-.23q.27.28.66.78l.83,1.08c.29.39.58.79.86,1.21s.53.8.76,1.17l-2.36,1.83c-.18-.36-.4-.75-.65-1.16s-.51-.83-.79-1.23-.54-.79-.81-1.15-.51-.66-.72-.9Z"/></g><line class="cls-1" x1="62.84" y1="64.89" x2="126.45" y2="64.89"/></g></g></g></svg>