<svg xmlns="http://www.w3.org/2000/svg" viewBox="0 0 127.88 72.91"><defs><style>.cls-1{fill:none;stroke:#333;stroke-linejoin:round;}.cls-2{opacity:0.16;}.cls-3{fill:#333;}</style></defs><title>1-280</title><g id="图层_2" data-name="图层 2"><g id="_1-276_1-284" data-name="1-276——1-284"><g id="_1-280" data-name="1-280"><path class="cls-1" d="M44.35,72.91a24.14,24.14,0,0,1,48.27,0"/><line class="cls-1" x1="68.48" y1="48.78" x2="68.48" y2="0.5"/><line class="cls-1" y1="0.5" x2="68.48" y2="0.5"/><g class="cls-2"><path d="M45.72,41.49c-.17.37-.39.79-.65,1.26s-.54,1-.84,1.44-.6,1-.9,1.42-.59.88-.85,1.25l-2.34-1.12c.27-.36.56-.76.87-1.21s.61-.9.89-1.36.55-.92.79-1.36.44-.84.59-1.18Zm4-1.84v4.12a4.1,4.1,0,0,1-.14,1.17,1.61,1.61,0,0,1-.45.73,2.36,2.36,0,0,1-.8.45c-.34.12-.74.23-1.22.35l-1.17.28-.83-2.59L46,44a2.37,2.37,0,0,0,.72-.28.61.61,0,0,0,.2-.55V40l-5.59.73L41.91,33c.62-.08,1.28-.17,2-.28L46,32.39,48.13,32l2.06-.41c.67-.14,1.29-.27,1.87-.41l1.57-.39.55,2.63-2.07.47-2.42.51-2.6.49-2.57.45-.18,2.54,2.58-.34V35.33l2.79-.3v2.15l4.93-.65V39Zm2.71-.23c.18.2.39.46.65.79s.54.69.83,1.08.58.79.87,1.2.53.81.76,1.18l-2.36,1.82c-.18-.36-.4-.74-.65-1.16s-.51-.83-.79-1.23L50.92,42a10.64,10.64,0,0,0-.73-.91Z"/><path d="M71.25,34.6v2.21L56.6,38.74V36.53l3.27-.43.25-1-2.39.32V33.55l2.84-.37.22-.88-3.4.45v-2.2l13.08-1.72V31l-6.85.9-.22.87,6-.79-.15,2.85Zm-13.2,4.67L69.8,37.72v5.63L58.05,44.9Zm2.59,3.09,6.44-.85V40.23l-6.44.84Zm2.08-6.64,3.87-.51.07-1L63,34.75Z"/><path d="M77.93,37.25c-.17.37-.39.79-.65,1.26s-.54,1-.84,1.44-.59,1-.9,1.42-.58.88-.84,1.25L72.35,41.5c.27-.36.56-.76.87-1.21s.61-.9.9-1.36.55-.92.79-1.36.43-.84.58-1.18Zm4-1.84v4.11a4.18,4.18,0,0,1-.14,1.18,1.61,1.61,0,0,1-.45.73,2.27,2.27,0,0,1-.8.45c-.33.11-.74.23-1.21.35l-1.18.28-.83-2.59.9-.22a2.2,2.2,0,0,0,.72-.27.62.62,0,0,0,.21-.55V35.77l-5.6.74.59-7.74c.61-.08,1.27-.17,2-.28l2.11-.34c.71-.12,1.43-.25,2.14-.39l2.07-.41c.66-.14,1.28-.27,1.87-.41l1.56-.39.55,2.63-2.07.47-2.42.51-2.59.48-2.58.46-.18,2.54,2.59-.34V31.09l2.78-.3v2.15l4.93-.65v2.47Zm2.72-.23c.17.2.39.46.65.79L86.12,37c.29.39.58.8.86,1.21s.54.8.76,1.18l-2.36,1.82c-.18-.36-.4-.74-.65-1.16s-.51-.83-.79-1.23-.54-.78-.81-1.15-.51-.66-.72-.9Z"/></g><line class="cls-1" x1="90.94" y1="39.23" x2="68.48" y2="62.81"/><path class="cls-3" d="M115.52,34.83a9.07,9.07,0,0,1,3.64-.76,8.73,8.73,0,0,1,4.32,1.1,8.25,8.25,0,0,1,3.2,3.14,9.06,9.06,0,0,1,1.2,4.68,9.49,9.49,0,0,1-1.14,4.66,8.12,8.12,0,0,1-3.14,3.2A9,9,0,0,1,119,52a9.16,9.16,0,0,1-5.44-1.62A11.84,11.84,0,0,1,110,46.15l.76-.52q2.73,5.52,8.32,5.52a8.11,8.11,0,0,0,4.12-1,7.42,7.42,0,0,0,2.82-2.9A8.64,8.64,0,0,0,127,43a8.16,8.16,0,0,0-1.08-4.18,7.84,7.84,0,0,0-6.8-3.94,9.75,9.75,0,0,0-2.56.36,9.3,9.3,0,0,0-2.44,1l-.48-.68,11.72-13.32h-14.8v-.84h15.88v.84l-11,12.48Z"/></g></g></g></svg>