<svg xmlns="http://www.w3.org/2000/svg" viewBox="0 0 128.5 120.52"><defs><style>.cls-1{fill:#333;}.cls-1,.cls-2{stroke:#333;stroke-linejoin:round;}.cls-2{fill:none;}.cls-3{opacity:0.16;}</style></defs><title>1-285</title><g id="图层_2" data-name="图层 2"><g id="_1-285_1-296" data-name="1-285——1-296"><g id="_1-285" data-name="1-285"><polygon class="cls-1" points="94.25 91.99 98.81 101.22 108.99 102.69 101.62 109.88 103.36 120.02 94.25 115.23 85.15 120.02 86.89 109.88 79.52 102.69 89.7 101.22 94.25 91.99"/><path class="cls-2" d="M61.28,98.25a33.36,33.36,0,1,1,66.72,0"/><line class="cls-2" x1="94.64" y1="0.5" x2="94.64" y2="64.89"/><line class="cls-2" y1="0.5" x2="94.64" y2="0.5"/><g class="cls-3"><path d="M45.78,65.05c-.17.37-.39.78-.65,1.25s-.54,1-.84,1.44-.6,1-.9,1.43-.59.88-.85,1.25L40.2,69.29c.27-.36.56-.76.87-1.21s.61-.9.89-1.36.55-.91.79-1.36.44-.83.59-1.18Zm4-1.85v4.12a4.1,4.1,0,0,1-.13,1.17,1.74,1.74,0,0,1-.45.73,2.25,2.25,0,0,1-.81.45c-.33.12-.73.23-1.21.35L46,70.3l-.83-2.59.9-.21a2.37,2.37,0,0,0,.72-.28.62.62,0,0,0,.2-.54V63.57l-5.59.74L42,56.57l2-.29,2.11-.34,2.14-.39c.71-.13,1.4-.27,2.06-.41s1.29-.27,1.87-.41,1.11-.26,1.57-.39L54.24,57l-2.08.47c-.76.18-1.57.35-2.41.51l-2.6.49-2.58.45-.17,2.55L47,61.1V58.88l2.78-.3v2.15l4.93-.65v2.47ZM52.48,63c.17.19.39.45.65.78s.54.69.83,1.08.58.79.86,1.2.54.81.77,1.18L53.23,69c-.18-.35-.4-.74-.65-1.16s-.51-.82-.79-1.23L51,65.51c-.27-.36-.51-.66-.73-.91Z"/><path d="M71.3,58.15v2.22L56.66,62.29V60.08l3.27-.43.25-1L57.79,59V57.1l2.84-.37.21-.88-3.4.45V54.11l13.08-1.73v2.2l-6.85.9-.21.88,6-.79-.15,2.85ZM58.11,62.82l11.75-1.55V66.9L58.11,68.45Zm2.59,3.09,6.44-.85V63.78l-6.44.85Zm2.08-6.63,3.87-.51.07-1L63,58.3Z"/><path d="M78,60.8c-.17.37-.39.79-.65,1.26s-.54.95-.84,1.44-.6,1-.9,1.43-.59.88-.85,1.25l-2.34-1.13c.27-.36.56-.76.87-1.21s.61-.9.9-1.36.55-.91.79-1.36.43-.84.58-1.18ZM82,59v4.12a4.05,4.05,0,0,1-.14,1.17,1.56,1.56,0,0,1-.45.73,2.12,2.12,0,0,1-.8.45c-.33.12-.74.23-1.22.35l-1.17.28-.83-2.59.9-.21A2.17,2.17,0,0,0,79,63a.6.6,0,0,0,.21-.54V59.33l-5.6.73.58-7.73,2-.29,2.11-.34,2.14-.39,2.07-.41c.66-.13,1.28-.27,1.87-.41s1.1-.27,1.56-.39l.55,2.63-2.07.47c-.77.18-1.57.34-2.42.51s-1.71.33-2.59.49l-2.58.45-.18,2.55,2.59-.34V54.64l2.78-.3v2.15l4.93-.65v2.47Zm2.71-.23c.18.2.4.46.66.79l.83,1.08c.29.39.58.79.86,1.2s.53.81.76,1.18L85.44,64.8c-.18-.35-.4-.74-.65-1.16s-.51-.82-.79-1.23-.54-.78-.81-1.14-.51-.67-.72-.91Z"/></g><line class="cls-2" x1="62.84" y1="64.89" x2="126.45" y2="64.89"/></g></g></g></svg>