<svg xmlns="http://www.w3.org/2000/svg" viewBox="0 0 109 128.75"><defs><style>.cls-1{fill:#333;}.cls-1,.cls-2{stroke:#333;stroke-linejoin:round;}.cls-2{fill:none;}.cls-3{opacity:0.16;}</style></defs><title>1-292</title><g id="图层_2" data-name="图层 2"><g id="_1-285_1-296" data-name="1-285——1-296"><g id="_1-292" data-name="1-292"><polygon class="cls-1" points="93.26 23.07 97.97 32.62 108.5 34.15 100.88 41.58 102.68 52.07 93.26 47.12 83.83 52.07 85.63 41.58 78.01 34.15 88.55 32.62 93.26 23.07"/><line class="cls-2" x1="35.61" y1="85.41" x2="84.88" y2="0.25"/><circle class="cls-2" cx="23.69" cy="105.06" r="23.19"/><g class="cls-3"><path d="M36.28,69c-.17.37-.39.79-.65,1.25s-.54.95-.84,1.44-.6,1-.9,1.43S33.3,74,33,74.41L30.7,73.29c.27-.37.56-.77.87-1.22s.61-.9.89-1.36.55-.91.79-1.36.44-.83.59-1.18Zm4-1.85v4.12a4.1,4.1,0,0,1-.13,1.17,1.74,1.74,0,0,1-.45.73,2.42,2.42,0,0,1-.81.46c-.33.11-.73.23-1.21.34l-1.17.29-.83-2.59.9-.22a2.73,2.73,0,0,0,.72-.27.65.65,0,0,0,.2-.55V67.56l-5.59.74.58-7.74c.62-.08,1.28-.18,2-.29s1.4-.22,2.11-.34l2.14-.39c.71-.13,1.4-.27,2.06-.41s1.29-.27,1.87-.4,1.11-.27,1.57-.4L44.74,61l-2.08.48c-.76.17-1.57.34-2.41.5l-2.6.49-2.58.45-.17,2.55,2.58-.34V62.88l2.78-.31v2.15l4.93-.65v2.48ZM43,67c.17.19.39.45.65.78s.54.69.83,1.08.58.79.86,1.21.54.8.77,1.17L43.73,73c-.18-.35-.4-.74-.65-1.15s-.51-.83-.79-1.23-.55-.79-.81-1.15-.51-.66-.73-.91Z"/><path d="M61.8,62.15v2.21L47.16,66.29V64.07l3.27-.43.25-1L48.29,63V61.1l2.84-.38.21-.87-3.4.44V58.1L61,56.38v2.19l-6.85.9-.21.88,6-.79-.15,2.85ZM48.61,66.81l11.75-1.54v5.62L48.61,72.44ZM51.2,69.9l6.44-.84V67.77l-6.44.85Zm2.08-6.63,3.87-.51.07-.95-3.71.49Z"/><path d="M68.49,64.8c-.17.37-.39.79-.65,1.25s-.54,1-.84,1.44-.6,1-.9,1.43-.59.88-.85,1.25l-2.34-1.12c.27-.37.56-.77.87-1.22s.61-.9.9-1.36.55-.91.79-1.36.43-.83.58-1.18Zm4-1.85v4.12a4.05,4.05,0,0,1-.14,1.17,1.56,1.56,0,0,1-.45.73,2.28,2.28,0,0,1-.8.46c-.33.11-.74.22-1.22.34l-1.17.29-.83-2.59.9-.22a2.46,2.46,0,0,0,.72-.27.63.63,0,0,0,.21-.55V63.32l-5.6.74.58-7.74c.62-.08,1.28-.18,2-.29s1.4-.22,2.11-.34l2.14-.39c.72-.13,1.4-.27,2.07-.41s1.28-.27,1.87-.41,1.1-.26,1.56-.39L77,56.72l-2.07.48c-.77.17-1.57.34-2.42.5s-1.71.33-2.59.49l-2.58.45-.18,2.55,2.59-.34V58.64l2.78-.31v2.15l4.93-.65V62.3Zm2.71-.22q.27.29.66.78l.83,1.08c.29.39.58.79.86,1.2s.53.81.76,1.18l-2.36,1.82c-.18-.35-.4-.74-.65-1.15s-.51-.83-.79-1.24-.54-.78-.81-1.14-.51-.66-.72-.91Z"/></g></g></g></g></svg>