<svg xmlns="http://www.w3.org/2000/svg" viewBox="0 0 85.31 128.75"><defs><style>.cls-1{fill:none;stroke:#333;stroke-linejoin:round;}.cls-2{opacity:0.16;}</style></defs><title>1-291</title><g id="图层_2" data-name="图层 2"><g id="_1-285_1-296" data-name="1-285——1-296"><g id="_1-291" data-name="1-291"><line class="cls-1" x1="35.61" y1="85.41" x2="84.88" y2="0.25"/><g class="cls-2"><path d="M24.47,69c-.18.37-.39.79-.65,1.25s-.54.95-.84,1.44-.6,1-.9,1.43-.59.88-.85,1.25l-2.34-1.12c.27-.37.56-.77.87-1.22s.6-.9.89-1.36.55-.91.79-1.36.43-.83.59-1.18Zm4-1.85v4.12a3.73,3.73,0,0,1-.14,1.17,1.63,1.63,0,0,1-.44.73,2.42,2.42,0,0,1-.81.46c-.33.11-.73.23-1.21.34l-1.17.29-.83-2.59.89-.22a2.69,2.69,0,0,0,.73-.27.65.65,0,0,0,.2-.55V67.56l-5.6.74.59-7.74c.62-.08,1.27-.18,2-.29s1.4-.22,2.11-.34l2.14-.39c.71-.13,1.4-.27,2.06-.41s1.29-.27,1.87-.4,1.11-.27,1.56-.4L32.93,61l-2.08.48c-.76.17-1.57.34-2.41.5l-2.6.49-2.58.45-.18,2.55,2.59-.34V62.88l2.78-.31v2.15l4.93-.65v2.48ZM31.17,67c.17.19.39.45.65.78s.54.69.83,1.08.58.79.86,1.21.54.8.77,1.17L31.92,73c-.19-.35-.4-.74-.65-1.15s-.51-.83-.79-1.23-.55-.79-.81-1.15-.51-.66-.73-.91Z"/><path d="M50,62.15v2.21L35.35,66.29V64.07l3.27-.43.25-1-2.4.31V61.1l2.85-.38.21-.87-3.4.44V58.1l13.08-1.72v2.19l-6.85.9-.21.88,6-.79L48,62.41ZM36.8,66.81l11.75-1.54v5.62L36.8,72.44Zm2.59,3.09,6.44-.84V67.77l-6.44.85Zm2.08-6.63,3.87-.51.07-.95-3.71.49Z"/><path d="M56.68,64.8c-.17.37-.39.79-.65,1.25s-.54,1-.84,1.44-.6,1-.9,1.43-.59.88-.85,1.25L51.1,69.05c.27-.37.56-.77.87-1.22s.61-.9.9-1.36.55-.91.78-1.36.44-.83.59-1.18Zm4-1.85v4.12a4.05,4.05,0,0,1-.14,1.17,1.56,1.56,0,0,1-.45.73,2.37,2.37,0,0,1-.8.46c-.34.11-.74.22-1.22.34l-1.17.29-.83-2.59.9-.22a2.73,2.73,0,0,0,.72-.27.63.63,0,0,0,.2-.55V63.32l-5.59.74.58-7.74c.62-.08,1.28-.18,2-.29s1.4-.22,2.11-.34l2.14-.39c.71-.13,1.4-.27,2.06-.41s1.29-.27,1.88-.41,1.1-.26,1.56-.39l.55,2.63-2.07.48c-.77.17-1.57.34-2.42.5l-2.6.49-2.57.45-.18,2.55,2.58-.34V58.64l2.79-.31v2.15l4.93-.65V62.3Zm2.71-.22c.18.19.39.45.65.78s.54.69.83,1.08.58.79.87,1.2.53.81.76,1.18l-2.36,1.82c-.18-.35-.4-.74-.65-1.15s-.51-.83-.79-1.24-.55-.78-.81-1.14-.51-.66-.73-.91Z"/></g><circle class="cls-1" cx="23.69" cy="105.06" r="23.19"/></g></g></g></svg>