<svg xmlns="http://www.w3.org/2000/svg" viewBox="0 0 98.53 128.77"><defs><style>.cls-1{fill:none;stroke:#333;stroke-linejoin:round;}.cls-2{opacity:0.16;}.cls-3{fill:#333;}</style></defs><title>1-295</title><g id="图层_2" data-name="图层 2"><g id="_1-285_1-296" data-name="1-285——1-296"><g id="_1-295" data-name="1-295"><line class="cls-1" x1="66.04" y1="29.93" x2="78.19" y2="50.49"/><line class="cls-1" x1="40.19" y1="88.77" x2="96.69" y2="0.27"/><circle class="cls-1" cx="23.69" cy="105.08" r="23.19"/><circle class="cls-1" cx="23.69" cy="105.08" r="23.19"/><g class="cls-2"><path d="M31.29,69.06c-.17.37-.39.79-.65,1.25s-.54,1-.84,1.44-.6,1-.9,1.43-.59.88-.85,1.25L25.71,73.3c.27-.36.56-.76.87-1.21s.61-.9.9-1.36.55-.91.79-1.36.43-.83.58-1.18Zm4-1.85v4.12a4.05,4.05,0,0,1-.14,1.17,1.56,1.56,0,0,1-.45.73,2.12,2.12,0,0,1-.8.45c-.33.12-.74.23-1.22.35l-1.17.29-.83-2.6.9-.21a2.17,2.17,0,0,0,.72-.28.6.6,0,0,0,.21-.54V67.58l-5.6.74.58-7.74c.62-.08,1.28-.18,2-.29s1.4-.22,2.11-.34l2.14-.39c.72-.13,1.4-.27,2.07-.41s1.28-.27,1.87-.41,1.1-.26,1.56-.39L39.75,61l-2.07.48c-.77.17-1.57.34-2.42.5s-1.71.33-2.59.49l-2.58.45-.18,2.55,2.59-.34V62.89l2.78-.3v2.15l4.93-.65v2.47ZM38,67q.27.29.66.78l.83,1.08c.29.39.58.79.86,1.2s.53.81.76,1.18l-2.36,1.82c-.18-.35-.4-.74-.65-1.16s-.51-.82-.79-1.23-.54-.78-.81-1.14-.51-.66-.72-.91Z"/><path d="M56.82,62.16v2.22L42.18,66.3V64.09l3.27-.43.24-1L43.3,63V61.11l2.85-.37.21-.88-3.4.45V58.12L56,56.39v2.2l-6.85.9-.21.88,6-.79-.14,2.85Zm-13.2,4.67,11.75-1.55v5.63L43.62,72.46Zm2.59,3.09,6.44-.85V67.79l-6.44.85Zm2.08-6.63,3.88-.51.06-1-3.71.48Z"/><path d="M63.51,64.82c-.18.37-.4.78-.66,1.25s-.54,1-.83,1.44-.6,1-.91,1.43-.58.88-.84,1.25l-2.35-1.13c.28-.36.57-.76.87-1.21s.61-.9.9-1.36.55-.91.79-1.36.43-.84.58-1.18Zm4-1.85v4.12a4.05,4.05,0,0,1-.14,1.17,1.63,1.63,0,0,1-.44.73,2.25,2.25,0,0,1-.81.45c-.33.12-.73.23-1.21.35l-1.17.28-.83-2.59.89-.21a2.35,2.35,0,0,0,.73-.28.62.62,0,0,0,.2-.54V63.34l-5.6.73.59-7.73,2-.29,2.1-.34c.71-.12,1.43-.25,2.14-.39s1.41-.27,2.07-.41,1.28-.27,1.87-.41,1.11-.26,1.56-.39L72,56.74l-2.07.47c-.76.18-1.57.34-2.42.51s-1.71.33-2.59.49l-2.58.45-.18,2.55,2.59-.34V58.65l2.78-.3V60.5l4.93-.65v2.47Zm2.72-.22c.17.19.39.45.65.78s.54.69.83,1.08.58.79.86,1.2.54.81.77,1.18L71,68.81c-.19-.35-.41-.74-.65-1.16s-.52-.82-.79-1.23-.55-.78-.82-1.14a10.36,10.36,0,0,0-.72-.91Z"/></g><path class="cls-3" d="M78.65,83.23v-25h1v5.85h.1a10.3,10.3,0,0,1,3.72-4.77,10,10,0,0,1,5.88-1.76,8.4,8.4,0,0,1,6.69,2.86,11.35,11.35,0,0,1,2.48,7.7V83.23h-1V68.44a11,11,0,0,0-2.21-7.22,7.37,7.37,0,0,0-6-2.67,9,9,0,0,0-5,1.44,9.89,9.89,0,0,0-3.41,3.72,10.15,10.15,0,0,0-1.2,4.78V83.23Z"/></g></g></g></svg>