<svg xmlns="http://www.w3.org/2000/svg" viewBox="0 0 121.81 129"><defs><style>.cls-1{fill:none;}.cls-1,.cls-3{stroke:#333;stroke-linejoin:round;}.cls-2{opacity:0.16;}.cls-3{fill:#333;}</style></defs><title>1-307</title><g id="图层_2" data-name="图层 2"><g id="_1-306_1-313" data-name="1-306——1-313"><g id="_1-307" data-name="1-307"><polyline class="cls-1" points="40.19 89 96.69 0.5 121.51 19.25"/><circle class="cls-1" cx="23.69" cy="105.31" r="23.19"/><circle class="cls-1" cx="23.69" cy="105.31" r="23.19"/><g class="cls-2"><path d="M42.79,69.29c-.18.37-.4.79-.66,1.25s-.53.95-.83,1.44-.6,1-.91,1.43-.58.88-.84,1.25L37.2,73.54c.28-.37.57-.77.88-1.22s.6-.9.89-1.36.55-.91.79-1.36.43-.83.58-1.18Zm4-1.85v4.12a4.05,4.05,0,0,1-.14,1.17,1.63,1.63,0,0,1-.44.73,2.42,2.42,0,0,1-.81.46c-.33.11-.73.23-1.21.34L43,74.55,42.17,72l.89-.22a2.69,2.69,0,0,0,.73-.27.65.65,0,0,0,.2-.55V67.81l-5.6.74L39,60.81c.62-.08,1.27-.18,2-.29s1.39-.22,2.1-.34,1.43-.25,2.14-.39,1.41-.27,2.07-.41,1.28-.27,1.87-.41,1.11-.26,1.56-.39l.56,2.63-2.08.48c-.76.17-1.57.34-2.42.5s-1.71.33-2.59.49l-2.58.45-.18,2.55L44,65.34V63.13l2.78-.31V65l4.93-.65v2.47Zm2.72-.22c.17.19.39.45.65.78s.54.69.83,1.08.58.79.86,1.2.54.81.77,1.18l-2.36,1.82c-.19-.35-.41-.74-.65-1.15s-.52-.83-.79-1.24-.55-.78-.82-1.14-.5-.66-.72-.91Z"/><path d="M68.31,62.4v2.21L53.67,66.54V64.32l3.27-.43.24-1-2.39.31V61.34L57.64,61l.21-.87-3.4.44V58.35l13.08-1.73v2.2l-6.85.9-.21.88,6-.79-.15,2.85ZM55.12,67.06l11.74-1.55v5.63L55.12,72.69Zm2.58,3.09,6.45-.84V68l-6.45.85Zm2.09-6.63L63.66,63l.06-.95L60,62.55Z"/><path d="M75,65.05c-.18.37-.39.79-.65,1.25s-.54,1-.84,1.44-.6,1-.9,1.43-.59.88-.85,1.25l-2.34-1.13c.27-.36.56-.76.87-1.21s.61-.9.89-1.36.55-.91.79-1.36.44-.83.59-1.18Zm4-1.85v4.12a4.1,4.1,0,0,1-.13,1.17,1.74,1.74,0,0,1-.45.73,2.25,2.25,0,0,1-.81.45c-.33.12-.73.23-1.21.35l-1.17.29-.83-2.6.9-.21a2.37,2.37,0,0,0,.72-.28.62.62,0,0,0,.2-.54V63.57l-5.59.74.58-7.74c.62-.08,1.28-.18,2-.29s1.4-.22,2.11-.34l2.14-.39c.71-.13,1.4-.27,2.06-.41s1.29-.27,1.87-.41,1.11-.26,1.57-.39L83.46,57l-2.08.48c-.76.17-1.57.34-2.41.5l-2.6.49-2.58.45-.17,2.55,2.58-.34V58.88l2.78-.3v2.15l4.93-.65v2.47ZM81.7,63c.17.19.39.45.65.78s.54.69.83,1.08.58.79.86,1.2.54.81.77,1.18L82.45,69c-.18-.35-.4-.74-.65-1.16s-.51-.82-.79-1.23l-.81-1.14c-.27-.36-.51-.66-.73-.91Z"/></g><line class="cls-1" x1="96.69" y1="35.5" x2="96.69" y2="0.5"/><polygon class="cls-3" points="97.01 32 103.01 32 100.01 41 97.01 50 94.01 41 91.01 32 97.01 32"/></g></g></g></svg>