<svg xmlns="http://www.w3.org/2000/svg" viewBox="0 0 102.01 128.93"><defs><style>.cls-1{fill:none;stroke:#333;stroke-linejoin:round;}.cls-2{opacity:0.16;}</style></defs><title>1-306</title><g id="图层_2" data-name="图层 2"><g id="_1-306_1-313" data-name="1-306——1-313"><g id="_1-306" data-name="1-306"><circle class="cls-1" cx="28.57" cy="100.36" r="28.06"/><g class="cls-2"><path d="M32.91,69.22c-.17.37-.39.79-.65,1.26s-.54.94-.84,1.43-.6,1-.9,1.43-.59.88-.85,1.25l-2.34-1.12c.27-.36.56-.77.87-1.21s.61-.91.89-1.37.56-.91.79-1.35.44-.84.59-1.19Zm4-1.84v4.11a4.18,4.18,0,0,1-.14,1.18,1.58,1.58,0,0,1-.45.72,2.37,2.37,0,0,1-.8.46c-.34.11-.74.23-1.22.35l-1.17.28-.83-2.59.9-.22a2.73,2.73,0,0,0,.72-.27.63.63,0,0,0,.2-.55V67.74l-5.59.74.58-7.74,2-.28c.7-.11,1.4-.22,2.11-.35l2.14-.38,2.06-.41,1.87-.41,1.57-.39.55,2.62-2.07.48c-.77.17-1.57.34-2.42.5l-2.6.49-2.57.46-.18,2.54,2.58-.34V63.06l2.79-.3V64.9l4.93-.64v2.47Zm2.71-.23c.18.19.39.46.65.78s.54.69.83,1.08.58.79.87,1.21.53.8.76,1.17l-2.36,1.83c-.18-.36-.4-.74-.65-1.16s-.51-.83-.79-1.23l-.81-1.15c-.27-.36-.51-.66-.73-.9Z"/><path d="M58.44,62.33v2.21L43.79,66.47V64.26l3.27-.43.25-1-2.39.32V61.28l2.84-.38L48,60l-3.4.45v-2.2l13.08-1.72v2.19l-6.85.91-.22.87,6-.79-.15,2.85ZM45.24,67,57,65.45v5.63L45.24,72.62Zm2.59,3.1,6.44-.85V68l-6.44.85Zm2.08-6.64,3.87-.51.07-.95-3.71.49Z"/><path d="M65.12,65c-.17.37-.39.79-.65,1.26s-.54.94-.84,1.43-.59,1-.9,1.43-.58.88-.84,1.25l-2.35-1.12c.27-.36.56-.77.87-1.21s.61-.91.9-1.37.55-.91.79-1.35.43-.84.58-1.19Zm4-1.84v4.11A4.18,4.18,0,0,1,69,68.43a1.58,1.58,0,0,1-.45.72,2.28,2.28,0,0,1-.8.46c-.33.11-.74.23-1.21.34l-1.18.29-.83-2.59.9-.22a2.46,2.46,0,0,0,.72-.27.63.63,0,0,0,.21-.55V63.5l-5.6.74.59-7.74,2-.28,2.11-.35,2.14-.38,2.07-.41,1.87-.41c.58-.14,1.1-.27,1.56-.4l.55,2.63-2.07.48c-.77.17-1.57.34-2.42.5s-1.71.33-2.59.49l-2.58.45-.18,2.55L66.33,61V58.82l2.78-.3v2.14L74,60v2.48Zm2.72-.23c.17.19.39.45.65.78l.83,1.08c.29.39.58.79.86,1.21s.54.8.76,1.17L72.57,69c-.18-.36-.4-.74-.65-1.16s-.51-.83-.79-1.23-.54-.79-.81-1.15-.51-.66-.72-.9Z"/></g><line class="cls-1" x1="14.01" y1="124.36" x2="14.01" y2="124.35"/><line class="cls-1" x1="42.07" y1="75.77" x2="77.46" y2="14.47"/><line class="cls-1" x1="101.76" y1="28.5" x2="53.15" y2="0.43"/></g></g></g></svg>