<svg xmlns="http://www.w3.org/2000/svg" viewBox="0 0 97.11 128.77"><defs><style>.cls-1{fill:none;stroke:#333;stroke-linejoin:round;}.cls-2{opacity:0.16;}</style></defs><title>1-305</title><g id="图层_2" data-name="图层 2"><g id="_1-297_1-305" data-name="1-297——1-305"><g id="_1-305" data-name="1-305"><line class="cls-1" x1="40.19" y1="88.77" x2="96.69" y2="0.27"/><circle class="cls-1" cx="23.69" cy="105.08" r="23.19"/><circle class="cls-1" cx="23.69" cy="105.08" r="23.19"/><g class="cls-2"><path d="M30.37,69.06c-.17.37-.39.79-.65,1.25s-.54,1-.84,1.44-.59,1-.9,1.43-.58.88-.84,1.25L24.79,73.3c.27-.36.56-.76.87-1.21s.61-.9.9-1.36.55-.91.79-1.36.43-.83.58-1.18Zm4-1.85v4.12a4.05,4.05,0,0,1-.14,1.17,1.56,1.56,0,0,1-.45.73,2.12,2.12,0,0,1-.8.45c-.33.12-.74.23-1.21.35l-1.18.29-.83-2.6.9-.21a2.17,2.17,0,0,0,.72-.28.6.6,0,0,0,.21-.54V67.58l-5.6.74.59-7.74c.61-.08,1.27-.18,2-.29s1.4-.22,2.11-.34,1.43-.25,2.14-.39,1.41-.27,2.07-.41,1.28-.27,1.87-.41,1.1-.26,1.56-.39L38.83,61l-2.07.48c-.77.17-1.57.34-2.42.5s-1.71.33-2.59.49l-2.58.45L29,65.45l2.59-.34V62.89l2.78-.3v2.15l4.93-.65v2.47ZM37.08,67c.17.19.39.45.65.78l.83,1.08c.29.39.58.79.86,1.2s.54.81.76,1.18l-2.36,1.82c-.18-.35-.4-.74-.65-1.16s-.51-.82-.79-1.23-.54-.78-.81-1.14-.51-.66-.72-.91Z"/><path d="M55.9,62.16v2.22L41.26,66.3V64.09l3.27-.43.24-1L42.38,63V61.11l2.85-.37.21-.88-3.4.45V58.12l13.08-1.73v2.2l-6.85.9-.21.88,6-.79-.14,2.85ZM42.7,66.83l11.75-1.55v5.63L42.7,72.46Zm2.59,3.09,6.44-.85V67.79l-6.44.85Zm2.08-6.63,3.88-.51.06-1-3.71.48Z"/><path d="M62.59,64.82c-.18.37-.39.78-.65,1.25s-.54,1-.84,1.44-.6,1-.91,1.43-.58.88-.84,1.25L57,69.06c.27-.36.56-.76.87-1.21s.6-.9.89-1.36.55-.91.79-1.36.43-.84.59-1.18Zm4-1.85v4.12a3.73,3.73,0,0,1-.14,1.17A1.63,1.63,0,0,1,66,69a2.25,2.25,0,0,1-.81.45c-.33.12-.73.23-1.21.35l-1.17.28L62,67.48l.89-.21a2.35,2.35,0,0,0,.73-.28.62.62,0,0,0,.2-.54V63.34l-5.6.73.59-7.73,2-.29,2.1-.34c.71-.12,1.43-.25,2.14-.39s1.41-.27,2.07-.41,1.29-.27,1.87-.41,1.11-.26,1.56-.39l.56,2.63L69,57.21c-.76.18-1.57.34-2.41.51l-2.6.49-2.58.45-.18,2.55,2.59-.34V58.65l2.78-.3V60.5l4.93-.65v2.47Zm2.72-.22c.17.19.39.45.65.78s.54.69.83,1.08.58.79.86,1.2.54.81.77,1.18L70,68.81c-.19-.35-.4-.74-.65-1.16s-.52-.82-.79-1.23-.55-.78-.82-1.14a10.36,10.36,0,0,0-.72-.91Z"/></g><polygon class="cls-1" points="91.51 25.77 94.51 44.97 46.51 44.97 91.51 25.77"/></g></g></g></svg>