<svg xmlns="http://www.w3.org/2000/svg" viewBox="0 0 122.38 129"><defs><style>.cls-1{fill:none;stroke:#333;stroke-linejoin:round;}.cls-2{opacity:0.16;}</style></defs><title>1-303</title><g id="图层_2" data-name="图层 2"><g id="_1-297_1-305" data-name="1-297——1-305"><g id="_1-303" data-name="1-303"><circle class="cls-1" cx="61.19" cy="64.5" r="23.09"/><polyline class="cls-1" points="0.25 114.64 24.24 128.5 49.64 84.49"/><polyline class="cls-1" points="72.74 44.51 98.14 0.5 122.13 14.36"/><g class="cls-2"><path d="M43,69.29c-.17.37-.39.79-.65,1.25s-.54.95-.84,1.44-.6,1-.9,1.43-.59.88-.85,1.25l-2.34-1.12c.27-.37.56-.77.87-1.22s.61-.9.89-1.36.55-.91.79-1.36.44-.83.59-1.18Zm4-1.85v4.12a4.1,4.1,0,0,1-.13,1.17,1.74,1.74,0,0,1-.45.73,2.42,2.42,0,0,1-.81.46c-.33.11-.73.23-1.21.34l-1.17.29L42.35,72l.9-.22a2.73,2.73,0,0,0,.72-.27.63.63,0,0,0,.2-.55V67.81l-5.59.74.58-7.74c.62-.08,1.28-.18,2-.29s1.4-.22,2.11-.34l2.14-.39c.71-.13,1.4-.27,2.06-.41s1.29-.27,1.87-.41,1.11-.26,1.57-.39l.55,2.63-2.08.48c-.76.17-1.57.34-2.41.5l-2.6.49-2.58.45-.17,2.55,2.58-.34V63.13L47,62.82V65l4.93-.65v2.47Zm2.72-.22c.18.19.39.45.65.78s.54.69.83,1.08.58.79.86,1.2.54.81.77,1.18l-2.36,1.82c-.18-.35-.4-.74-.65-1.15s-.51-.83-.79-1.24l-.81-1.14c-.27-.36-.51-.66-.73-.91Z"/><path d="M68.5,62.4v2.21L53.85,66.54V64.32l3.27-.43.25-1L55,63.23V61.34L57.82,61,58,60.1l-3.4.44V58.35l13.08-1.73v2.2l-6.85.9-.21.88,6-.79-.15,2.85ZM55.3,67.06l11.75-1.55v5.63L55.3,72.69Zm2.59,3.09,6.44-.84V68l-6.44.85ZM60,63.52,63.84,63l.07-.95-3.71.49Z"/><path d="M75.18,65.05c-.17.37-.39.79-.65,1.25s-.54,1-.84,1.44-.6,1-.9,1.43-.59.88-.85,1.25L69.6,69.29c.27-.36.56-.76.87-1.21s.61-.9.9-1.36.55-.91.79-1.36.43-.83.58-1.18Zm4-1.85v4.12A4.05,4.05,0,0,1,79,68.49a1.56,1.56,0,0,1-.45.73,2.12,2.12,0,0,1-.8.45c-.33.12-.74.23-1.21.35l-1.18.29-.83-2.6.9-.21a2.17,2.17,0,0,0,.72-.28.6.6,0,0,0,.21-.54V63.57l-5.6.74.58-7.74c.62-.08,1.28-.18,2-.29s1.4-.22,2.11-.34l2.14-.39c.72-.13,1.4-.27,2.07-.41s1.28-.27,1.87-.41,1.1-.26,1.56-.39L83.64,57l-2.07.48c-.77.17-1.57.34-2.42.5s-1.71.33-2.59.49L74,58.89l-.18,2.55,2.59-.34V58.88l2.78-.3v2.15l4.93-.65v2.47ZM81.88,63q.27.29.66.78l.83,1.08c.29.39.58.79.86,1.2s.53.81.76,1.18L82.63,69c-.18-.35-.4-.74-.65-1.16s-.51-.82-.79-1.23-.54-.78-.81-1.14-.51-.66-.72-.91Z"/></g></g></g></g></svg>