<svg xmlns="http://www.w3.org/2000/svg" viewBox="0 0 57.57 128"><defs><style>.cls-1{fill:none;stroke:#333;stroke-linejoin:round;}.cls-2{opacity:0.16;}</style></defs><title>1-311</title><g id="图层_2" data-name="图层 2"><g id="_1-306_1-313" data-name="1-306——1-313"><g id="_1-311" data-name="1-311"><line class="cls-1" x1="31.93" x2="31.93" y2="27.43"/><line class="cls-1" x1="31.93" y1="100.57" x2="31.93" y2="128"/><line class="cls-1" x1="57.07" y1="27.43" x2="31.93" y2="27.43"/><line class="cls-1" x1="57.07" y1="100.57" x2="31.93" y2="100.57"/><line class="cls-1" x1="57.07" y1="27.43" x2="57.07" y2="100.57"/><circle class="cls-1" cx="24.5" cy="64" r="24"/><circle class="cls-1" cx="24.5" cy="64" r="11.7"/><g class="cls-2"><path d="M10.56,68.79c-.17.37-.39.79-.65,1.25s-.54.95-.83,1.44-.6,1-.91,1.43-.58.88-.84,1.25L5,73c.28-.37.57-.77.87-1.22s.61-.9.9-1.36.55-.91.79-1.36.43-.83.58-1.18Zm4-1.85v4.12a4.05,4.05,0,0,1-.14,1.17A1.56,1.56,0,0,1,14,73a2.28,2.28,0,0,1-.8.46c-.33.11-.74.23-1.21.34l-1.17.29L10,71.46l.89-.22a2.46,2.46,0,0,0,.72-.27.63.63,0,0,0,.21-.55V67.31l-5.6.74.59-7.74c.62-.08,1.27-.18,2-.29s1.39-.22,2.1-.34,1.43-.25,2.14-.39S14.38,59,15,58.88s1.28-.27,1.87-.41,1.11-.26,1.56-.39L19,60.71,17,61.19c-.76.17-1.57.34-2.42.5s-1.71.33-2.59.49l-2.58.45-.18,2.55,2.59-.34V62.63l2.78-.31v2.15l4.93-.65v2.47Zm2.72-.22c.17.19.39.45.65.78l.83,1.08c.29.39.58.79.86,1.2s.54.81.76,1.18L18,72.78c-.19-.35-.41-.74-.65-1.15s-.52-.83-.79-1.24-.55-.78-.82-1.14-.5-.66-.72-.91Z"/><path d="M36.09,61.9v2.21L21.45,66V63.82l3.27-.43.24-1-2.39.31V60.84l2.85-.37.21-.87-3.4.44V57.85l13.08-1.73v2.2l-6.85.9-.21.88,6-.79-.15,2.85ZM22.9,66.56,34.64,65v5.63L22.9,72.19Zm2.58,3.09,6.45-.84V67.52l-6.45.85ZM27.57,63l3.87-.51.06-.95-3.71.49Z"/><path d="M42.78,64.55c-.18.37-.39.79-.65,1.25s-.54,1-.84,1.44-.6,1-.9,1.43-.59.88-.85,1.25L37.2,68.79c.27-.36.56-.76.87-1.21s.6-.9.89-1.36.55-.91.79-1.36.44-.83.59-1.18Zm4-1.85v4.12A4.1,4.1,0,0,1,46.63,68a1.74,1.74,0,0,1-.45.73,2.25,2.25,0,0,1-.81.45c-.33.12-.73.23-1.21.35L43,69.81l-.83-2.6.89-.21a2.35,2.35,0,0,0,.73-.28.62.62,0,0,0,.2-.54V63.07l-5.6.74L39,56.07c.62-.08,1.27-.18,2-.29s1.4-.22,2.11-.34l2.14-.39c.71-.13,1.4-.27,2.06-.41s1.29-.27,1.87-.41,1.11-.26,1.56-.39l.56,2.63L49.16,57c-.76.17-1.57.34-2.41.5l-2.6.49-2.58.45-.18,2.55L44,60.6V58.38l2.78-.3v2.15l4.93-.65v2.47Zm2.72-.22c.17.19.39.45.65.78s.54.69.83,1.08.58.79.86,1.2.54.81.77,1.18l-2.36,1.82c-.19-.35-.4-.74-.65-1.16s-.51-.82-.79-1.23L48,65c-.27-.36-.51-.66-.73-.91Z"/></g></g></g></g></svg>