<svg xmlns="http://www.w3.org/2000/svg" viewBox="0 0 108.76 129"><defs><style>.cls-1{fill:none;stroke:#333;stroke-linejoin:round;}.cls-2{opacity:0.16;}</style></defs><title>1-314</title><g id="图层_2" data-name="图层 2"><g id="_1-314_1-320" data-name="1-314——1-320"><g id="_1-314" data-name="1-314"><circle class="cls-1" cx="54.38" cy="53.07" r="20.24"/><g class="cls-2"><path d="M36.16,69.29c-.18.37-.39.79-.65,1.25s-.54.95-.84,1.44-.6,1-.91,1.43-.58.88-.84,1.25l-2.34-1.12c.27-.37.56-.77.87-1.22s.6-.9.89-1.36.55-.91.79-1.36.43-.83.59-1.18Zm4-1.85v4.12A3.73,3.73,0,0,1,40,72.73a1.63,1.63,0,0,1-.44.73,2.42,2.42,0,0,1-.81.46c-.33.11-.73.23-1.21.34l-1.17.29L35.54,72l.89-.22a2.69,2.69,0,0,0,.73-.27.65.65,0,0,0,.2-.55V67.81l-5.6.74.59-7.74c.62-.08,1.27-.18,2-.29s1.39-.22,2.1-.34,1.43-.25,2.14-.39,1.41-.27,2.07-.41,1.29-.27,1.87-.41,1.11-.26,1.56-.39l.56,2.63-2.08.48c-.76.17-1.57.34-2.41.5l-2.6.49L35,63.13l-.18,2.55,2.59-.34V63.13l2.78-.31V65l4.93-.65v2.47Zm2.72-.22c.17.19.39.45.65.78s.54.69.83,1.08.58.79.86,1.2.54.81.77,1.18l-2.36,1.82c-.19-.35-.4-.74-.65-1.15s-.52-.83-.79-1.24-.55-.78-.82-1.14-.5-.66-.72-.91Z"/><path d="M61.68,62.4v2.21L47,66.54V64.32l3.27-.43.24-1-2.39.31V61.34L51,61l.21-.87-3.4.44V58.35L60.9,56.62v2.2l-6.85.9-.21.88,6-.79-.15,2.85ZM48.49,67.06l11.74-1.55v5.63L48.49,72.69Zm2.59,3.09,6.44-.84V68l-6.44.85Zm2.08-6.63L57,63l.06-.95-3.7.49Z"/><path d="M68.37,65.05c-.17.37-.39.79-.65,1.25s-.54,1-.84,1.44-.6,1-.9,1.43-.59.88-.85,1.25l-2.34-1.13c.27-.36.56-.76.87-1.21s.61-.9.89-1.36.55-.91.79-1.36.44-.83.59-1.18Zm4-1.85v4.12a4.05,4.05,0,0,1-.14,1.17,1.65,1.65,0,0,1-.45.73,2.25,2.25,0,0,1-.81.45c-.33.12-.73.23-1.21.35l-1.17.29-.83-2.6.9-.21a2.37,2.37,0,0,0,.72-.28c.14-.09.2-.27.2-.54V63.57L64,64.31l.58-7.74c.62-.08,1.28-.18,2-.29s1.4-.22,2.11-.34l2.14-.39c.71-.13,1.4-.27,2.06-.41s1.29-.27,1.87-.41,1.11-.26,1.57-.39L76.83,57l-2.08.48c-.76.17-1.57.34-2.41.5l-2.6.49-2.57.45L67,61.44l2.58-.34V58.88l2.79-.3v2.15l4.92-.65v2.47ZM75.07,63c.18.19.39.45.65.78s.54.69.83,1.08.58.79.86,1.2.54.81.77,1.18L75.82,69c-.18-.35-.4-.74-.65-1.16s-.51-.82-.79-1.23l-.81-1.14c-.27-.36-.51-.66-.73-.91Z"/></g><rect class="cls-1" x="0.5" y="0.5" width="107.76" height="128"/><polyline class="cls-1" points="66.86 69.74 80.5 104.99 28.26 104.99 43.93 69.78"/></g></g></g></svg>