<svg xmlns="http://www.w3.org/2000/svg" viewBox="0 0 129 75.31"><defs><style>.cls-1{fill:none;stroke:#333;stroke-linejoin:round;}.cls-2{opacity:0.16;}</style></defs><title>1-324</title><g id="图层_2" data-name="图层 2"><g id="_1-321_1-329" data-name="1-321——1-329"><g id="_1-324" data-name="1-324"><line class="cls-1" x1="0.6" x2="0.5" y2="74.2"/><line class="cls-1" x1="128.5" y1="1.11" x2="128.4" y2="75.3"/><line class="cls-1" x1="0.91" y1="13.28" x2="128.48" y2="13.46"/><line class="cls-1" x1="0.9" y1="37.33" x2="128.47" y2="37.51"/><g class="cls-2"><path d="M46.28,42.44c-.17.37-.39.79-.65,1.26s-.54.94-.84,1.43-.6,1-.9,1.43-.59.88-.85,1.25L40.7,46.69c.27-.36.56-.77.87-1.21s.61-.91.89-1.37.55-.91.79-1.35.44-.84.59-1.19Zm4-1.84v4.11a4.23,4.23,0,0,1-.13,1.18,1.77,1.77,0,0,1-.45.72,2.42,2.42,0,0,1-.81.46c-.33.11-.73.23-1.21.34l-1.17.29-.83-2.59.9-.22a2.73,2.73,0,0,0,.72-.27.65.65,0,0,0,.2-.55V41l-5.59.74L42.47,34l2-.28c.69-.11,1.4-.22,2.11-.35L48.69,33l2.06-.41,1.87-.41,1.57-.39.55,2.62-2.08.48c-.76.17-1.57.34-2.41.5l-2.6.49-2.58.46-.17,2.54,2.58-.34V36.28l2.78-.3v2.14l4.93-.64V40ZM53,40.37c.17.19.39.46.65.78s.54.69.83,1.08.58.79.86,1.21.54.8.77,1.17l-2.36,1.83c-.18-.36-.4-.74-.65-1.16s-.51-.83-.79-1.23l-.81-1.15c-.27-.36-.51-.66-.73-.9Z"/><path d="M71.8,35.55v2.21L57.16,39.69V37.48l3.27-.43.25-1-2.39.32V34.5l2.84-.38.21-.87-3.4.45V31.5L71,29.78V32l-6.85.91-.21.87L70,33l-.15,2.85ZM58.61,40.21l11.75-1.54V44.3L58.61,45.84Zm2.59,3.1,6.44-.85V41.17L61.2,42Zm2.08-6.64,3.87-.51.07-.95-3.71.49Z"/><path d="M78.49,38.2c-.17.37-.39.79-.65,1.26s-.54.94-.84,1.43-.6,1-.9,1.43-.59.88-.85,1.25l-2.34-1.12c.27-.36.56-.77.87-1.21s.61-.91.9-1.37.55-.91.79-1.35.43-.84.58-1.19Zm4-1.84v4.11a4.18,4.18,0,0,1-.14,1.18,1.58,1.58,0,0,1-.45.72,2.28,2.28,0,0,1-.8.46c-.33.11-.74.23-1.22.34l-1.17.29-.83-2.59.9-.22a2.46,2.46,0,0,0,.72-.27.63.63,0,0,0,.21-.55V36.72l-5.6.74.58-7.74,2-.28,2.11-.35,2.14-.38L83,28.3l1.87-.41c.58-.14,1.1-.27,1.56-.4L87,30.12l-2.07.48c-.77.17-1.57.34-2.42.5s-1.71.33-2.59.49L77.29,32l-.18,2.55,2.59-.34V32l2.78-.3v2.14l4.93-.65v2.48Zm2.71-.23q.27.28.66.78L86.68,38c.29.39.58.79.86,1.21s.53.8.76,1.17L85.94,42.2c-.18-.36-.4-.75-.65-1.16s-.51-.83-.79-1.23S84,39,83.69,38.66s-.51-.66-.72-.9Z"/></g><line class="cls-1" x1="0.9" y1="63.88" x2="128.47" y2="64.06"/></g></g></g></svg>