<svg xmlns="http://www.w3.org/2000/svg" viewBox="0 0 129 47.85"><defs><style>.cls-1{fill:#333;}.cls-1,.cls-2{stroke:#333;stroke-linejoin:round;}.cls-2{fill:none;}.cls-3{opacity:0.16;}</style></defs><title>1-326</title><g id="图层_2" data-name="图层 2"><g id="_1-321_1-329" data-name="1-321——1-329"><g id="_1-326" data-name="1-326"><polygon class="cls-1" points="64.5 0.5 68.3 8.21 76.81 9.44 70.66 15.44 72.11 23.92 64.5 19.92 56.89 23.92 58.34 15.44 52.19 9.44 60.7 8.21 64.5 0.5"/><line class="cls-2" x1="0.5" y1="21.61" x2="0.5" y2="47.53"/><line class="cls-2" x1="128.5" y1="21.93" x2="128.5" y2="47.85"/><line class="cls-2" x1="0.82" y1="34.89" x2="128.5" y2="34.89"/><g class="cls-3"><path d="M46.28,29c-.17.37-.39.79-.65,1.26s-.54,1-.84,1.44-.6,1-.9,1.43L43,34.34,40.7,33.21c.27-.36.56-.76.87-1.21s.61-.9.89-1.36.55-.92.79-1.36.44-.84.59-1.18Zm4-1.84v4.12a4.1,4.1,0,0,1-.13,1.17,1.74,1.74,0,0,1-.45.73,2.25,2.25,0,0,1-.81.45c-.33.12-.73.23-1.21.35l-1.17.28-.83-2.59.9-.21a2.37,2.37,0,0,0,.72-.28.63.63,0,0,0,.2-.55v-3.1l-5.59.73.58-7.74c.62-.08,1.28-.17,2-.28l2.11-.34,2.14-.39,2.06-.41c.66-.14,1.29-.27,1.87-.41l1.57-.39.55,2.63-2.08.47c-.76.18-1.57.34-2.41.51l-2.6.49-2.58.45-.17,2.55L47.48,25V22.8l2.78-.3v2.15L55.19,24v2.47ZM53,26.89c.17.2.39.46.65.79s.54.69.83,1.08.58.79.86,1.2.54.81.77,1.18L53.73,33c-.18-.35-.4-.74-.65-1.16s-.51-.83-.79-1.23l-.81-1.14c-.27-.36-.51-.67-.73-.91Z"/><path d="M71.8,22.07v2.21L57.16,26.21V24l3.27-.43.25-1-2.39.32V21l2.84-.37.21-.88-3.4.45V18L71,16.3v2.2l-6.85.9-.21.87,6-.78-.15,2.85ZM58.61,26.74l11.75-1.55v5.63L58.61,32.37Zm2.59,3.09L67.64,29V27.7l-6.44.85Zm2.08-6.64,3.87-.51.07-.95-3.71.49Z"/><path d="M78.49,24.72c-.17.37-.39.79-.65,1.26s-.54.95-.84,1.44-.6,1-.9,1.42-.59.88-.85,1.25L72.91,29c.27-.36.56-.76.87-1.21s.61-.9.9-1.36.55-.92.79-1.36.43-.84.58-1.18Zm4-1.84V27a4.1,4.1,0,0,1-.14,1.17,1.61,1.61,0,0,1-.45.73,2.27,2.27,0,0,1-.8.45c-.33.12-.74.23-1.22.35L78.7,30l-.83-2.59.9-.21a2.17,2.17,0,0,0,.72-.28.62.62,0,0,0,.21-.55v-3.1L74.1,24l.58-7.74c.62-.08,1.28-.17,2-.28l2.11-.34,2.14-.39L83,14.82c.66-.14,1.28-.27,1.87-.41L86.4,14,87,16.65l-2.07.47-2.42.51-2.59.49-2.58.45-.18,2.54,2.59-.34V18.56l2.78-.3v2.15l4.93-.65v2.47Zm2.71-.23c.18.2.4.46.66.79l.83,1.08c.29.39.58.79.86,1.2s.53.81.76,1.18l-2.36,1.82c-.18-.36-.4-.74-.65-1.16s-.51-.83-.79-1.23-.54-.78-.81-1.14-.51-.67-.72-.91Z"/></g></g></g></g></svg>