<svg xmlns="http://www.w3.org/2000/svg" viewBox="0 0 129 56.53"><defs><style>.cls-1{fill:none;stroke:#333;stroke-linejoin:round;}.cls-2{fill:#333;}.cls-3{opacity:0.16;}</style></defs><title>1-325</title><g id="图层_2" data-name="图层 2"><g id="_1-321_1-329" data-name="1-321——1-329"><g id="_1-325" data-name="1-325"><line class="cls-1" x1="0.5" y1="30.28" x2="0.5" y2="56.2"/><line class="cls-1" x1="128.5" y1="30.6" x2="128.5" y2="56.53"/><line class="cls-1" x1="0.82" y1="43.56" x2="128.5" y2="43.56"/><path class="cls-2" d="M54.71,25.63V.67h1V6.53h.09a10.28,10.28,0,0,1,3.72-4.78A10,10,0,0,1,65.41,0a8.39,8.39,0,0,1,6.7,2.86,11.34,11.34,0,0,1,2.47,7.7V25.63h-1V10.85a11,11,0,0,0-2.21-7.23,7.39,7.39,0,0,0-6-2.66,9.06,9.06,0,0,0-5,1.44,9.87,9.87,0,0,0-3.4,3.72,10.12,10.12,0,0,0-1.2,4.78V25.63Z"/><g class="cls-3"><path d="M46.28,24.63c-.17.37-.39.79-.65,1.25s-.54.95-.84,1.44-.6,1-.9,1.43S43.3,29.63,43,30L40.7,28.88c.27-.37.56-.77.87-1.22s.61-.9.89-1.36.55-.91.79-1.36.44-.83.59-1.18Zm4-1.85V26.9a4.1,4.1,0,0,1-.13,1.17,1.74,1.74,0,0,1-.45.73,2.42,2.42,0,0,1-.81.46c-.33.11-.73.22-1.21.34l-1.17.29-.83-2.59.9-.22a2.73,2.73,0,0,0,.72-.27.65.65,0,0,0,.2-.55V23.15l-5.59.74.58-7.74c.62-.08,1.28-.18,2-.29s1.4-.22,2.11-.34l2.14-.39c.71-.13,1.4-.27,2.06-.41s1.29-.27,1.87-.41,1.11-.26,1.57-.39l.55,2.63L52.66,17c-.76.17-1.57.34-2.41.5l-2.6.49-2.58.45L44.9,21l2.58-.34V18.47l2.78-.31v2.15l4.93-.65v2.47ZM53,22.56c.17.19.39.45.65.78s.54.69.83,1.08.58.79.86,1.2.54.81.77,1.18l-2.36,1.82c-.18-.35-.4-.74-.65-1.15s-.51-.83-.79-1.24l-.81-1.14c-.27-.36-.51-.66-.73-.91Z"/><path d="M71.8,17.74V20L57.16,21.88V19.66l3.27-.43.25-1-2.39.31V16.68l2.84-.37.21-.87-3.4.44V13.69L71,12v2.2l-6.85.9-.21.88,6-.79L69.8,18ZM58.61,22.4l11.75-1.55v5.63L58.61,28Zm2.59,3.09,6.44-.84V23.36l-6.44.85Zm2.08-6.63,3.87-.51.07-1-3.71.48Z"/><path d="M78.49,20.39c-.17.37-.39.78-.65,1.25s-.54.95-.84,1.44-.6,1-.9,1.43-.59.88-.85,1.25l-2.34-1.13c.27-.36.56-.76.87-1.21s.61-.9.9-1.36.55-.91.79-1.36.43-.83.58-1.18Zm4-1.85v4.12a4.05,4.05,0,0,1-.14,1.17,1.56,1.56,0,0,1-.45.73,2.12,2.12,0,0,1-.8.45c-.33.12-.74.23-1.22.35l-1.17.29-.83-2.6.9-.21a2.17,2.17,0,0,0,.72-.28A.6.6,0,0,0,79.7,22V18.91l-5.6.74.58-7.74c.62-.08,1.28-.18,2-.29s1.4-.22,2.11-.34l2.14-.39c.72-.13,1.4-.27,2.07-.41s1.28-.27,1.87-.41,1.1-.26,1.56-.39L87,12.31l-2.07.48c-.77.17-1.57.34-2.42.5s-1.71.33-2.59.49l-2.58.45-.18,2.55,2.59-.34V14.22l2.78-.3v2.15l4.93-.65v2.47Zm2.71-.22q.27.29.66.78l.83,1.08c.29.39.58.79.86,1.2s.53.81.76,1.18l-2.36,1.82c-.18-.35-.4-.74-.65-1.16s-.51-.82-.79-1.23-.54-.78-.81-1.14-.51-.66-.72-.91Z"/></g><line class="cls-1" x1="63.04" y1="32.39" x2="52.02" y2="54.42"/></g></g></g></svg>