<svg xmlns="http://www.w3.org/2000/svg" viewBox="0 0 128.71 128.71"><defs><style>.cls-1{fill:#333;}.cls-1,.cls-2{stroke:#333;stroke-linejoin:round;}.cls-2{fill:none;}.cls-3{opacity:0.16;}</style></defs><title>1-320</title><g id="图层_2" data-name="图层 2"><g id="_1-314_1-320" data-name="1-314——1-320"><g id="_1-320" data-name="1-320"><circle class="cls-1" cx="64.35" cy="64.35" r="20"/><line class="cls-2" x1="128.35" y1="0.35" x2="0.35" y2="128.35"/><line class="cls-2" x1="128.35" y1="128.35" x2="0.35" y2="0.35"/><g class="cls-3"><path d="M46.13,69.14c-.17.37-.39.79-.65,1.26s-.54.94-.84,1.43-.6,1-.9,1.43-.59.88-.85,1.25l-2.34-1.12c.27-.36.56-.77.87-1.21s.61-.9.9-1.37.55-.91.79-1.35.43-.84.58-1.19Zm4-1.84v4.11A4.18,4.18,0,0,1,50,72.59a1.58,1.58,0,0,1-.45.72,2.28,2.28,0,0,1-.8.46c-.33.11-.74.23-1.21.35l-1.18.28-.83-2.59.9-.22a2.46,2.46,0,0,0,.72-.27.63.63,0,0,0,.21-.55V67.66l-5.6.74.59-7.74c.61-.08,1.27-.17,2-.28s1.4-.22,2.11-.35l2.14-.38,2.07-.41,1.87-.41L54,58.44l.55,2.62-2.07.48c-.77.17-1.57.34-2.42.5s-1.71.33-2.59.49L44.93,63l-.18,2.54,2.59-.34V63l2.78-.3v2.15l4.93-.65v2.47Zm2.72-.23c.17.19.39.46.65.78l.83,1.08c.29.39.58.8.86,1.21s.53.8.76,1.17l-2.36,1.83c-.18-.36-.4-.74-.65-1.16s-.51-.83-.79-1.23-.54-.79-.81-1.15-.51-.66-.72-.9Z"/><path d="M71.66,62.25v2.21L57,66.39V64.18l3.27-.43.24-1-2.39.32V61.2L61,60.82,61.2,60l-3.4.45V58.2l13.08-1.72v2.2l-6.85.9-.21.87,6-.79-.14,2.85Zm-13.2,4.66,11.75-1.54V71L58.46,72.54ZM61.05,70l6.44-.85V67.87l-6.44.85Zm2.08-6.64L67,62.86l.06-1-3.71.49Z"/><path d="M78.35,64.9q-.27.55-.66,1.26c-.26.46-.53.94-.83,1.43s-.6,1-.91,1.43-.58.88-.84,1.25l-2.35-1.12c.28-.36.57-.77.88-1.21s.6-.91.89-1.37.55-.91.79-1.35.43-.84.58-1.19Zm4-1.84v4.11a4.18,4.18,0,0,1-.14,1.18,1.65,1.65,0,0,1-.44.72,2.42,2.42,0,0,1-.81.46c-.33.11-.73.23-1.21.34l-1.17.29-.83-2.59.89-.22a2.69,2.69,0,0,0,.73-.27.65.65,0,0,0,.2-.55V63.42l-5.6.74.59-7.74,2-.28c.69-.11,1.39-.22,2.1-.35l2.14-.38L82.82,55l1.87-.41c.59-.14,1.11-.27,1.56-.4l.56,2.63-2.08.48c-.76.17-1.57.34-2.42.5s-1.71.33-2.59.49l-2.58.46L77,61.29,79.55,61V58.74l2.78-.3v2.14l4.93-.64v2.47Zm2.72-.23c.17.19.39.46.65.78s.54.69.83,1.08.58.79.86,1.21.54.8.77,1.17L85.8,68.9c-.19-.36-.41-.74-.65-1.16s-.52-.83-.79-1.23-.55-.79-.82-1.15a10.07,10.07,0,0,0-.72-.9Z"/></g></g></g></g></svg>