<svg xmlns="http://www.w3.org/2000/svg" viewBox="0 0 129 98.75"><defs><style>.cls-1{fill:#333;}.cls-1,.cls-2{stroke:#333;stroke-linejoin:round;}.cls-2{fill:none;}.cls-3{opacity:0.16;}</style></defs><title>1-327</title><g id="图层_2" data-name="图层 2"><g id="_1-321_1-329" data-name="1-321——1-329"><g id="_1-327" data-name="1-327"><polygon class="cls-1" points="68.41 0.5 72.21 8.2 80.71 9.44 74.56 15.43 76.01 23.9 68.41 19.9 60.8 23.9 62.26 15.43 56.11 9.44 64.61 8.2 68.41 0.5"/><line class="cls-2" x1="0.6" y1="23.44" x2="0.5" y2="97.64"/><line class="cls-2" x1="128.5" y1="24.55" x2="128.4" y2="98.75"/><line class="cls-2" x1="0.91" y1="36.72" x2="128.48" y2="36.9"/><g class="cls-3"><path d="M46.28,54.41c-.17.37-.39.79-.65,1.26s-.54.94-.84,1.43-.6,1-.9,1.43-.59.88-.85,1.25L40.7,58.66c.27-.36.56-.77.87-1.21s.61-.91.89-1.37.55-.91.79-1.35.44-.84.59-1.19Zm4-1.84v4.11a4.23,4.23,0,0,1-.13,1.18,1.77,1.77,0,0,1-.45.72,2.42,2.42,0,0,1-.81.46c-.33.11-.73.23-1.21.35l-1.17.28-.83-2.59.9-.22a2.73,2.73,0,0,0,.72-.27.65.65,0,0,0,.2-.55V52.93l-5.59.74.58-7.74,2-.28c.69-.11,1.4-.22,2.11-.35l2.14-.38,2.06-.41,1.87-.41,1.57-.39.55,2.62-2.08.48c-.76.17-1.57.34-2.41.5l-2.6.49-2.58.46L44.9,50.8l2.58-.34V48.25l2.78-.3v2.14l4.93-.64v2.47ZM53,52.34c.17.19.39.46.65.78s.54.69.83,1.08.58.79.86,1.21.54.8.77,1.17l-2.36,1.83c-.18-.36-.4-.74-.65-1.16s-.51-.83-.79-1.23l-.81-1.15c-.27-.36-.51-.66-.73-.9Z"/><path d="M71.8,47.52v2.21L57.16,51.66V49.45L60.43,49l.25-1-2.39.32V46.47l2.84-.38.21-.87-3.4.45v-2.2L71,41.75v2.19l-6.85.91-.21.87,6-.79-.15,2.85ZM58.61,52.18l11.75-1.54v5.63L58.61,57.81Zm2.59,3.1,6.44-.85V53.14L61.2,54Zm2.08-6.64,3.87-.51.07-1-3.71.49Z"/><path d="M78.49,50.17c-.17.37-.39.79-.65,1.26s-.54.94-.84,1.43-.6,1-.9,1.43-.59.88-.85,1.25l-2.34-1.12c.27-.36.56-.77.87-1.21s.61-.91.9-1.37.55-.91.79-1.35.43-.84.58-1.19Zm4-1.84v4.11a4.18,4.18,0,0,1-.14,1.18,1.58,1.58,0,0,1-.45.72,2.28,2.28,0,0,1-.8.46c-.33.11-.74.23-1.22.34l-1.17.29-.83-2.59.9-.22a2.46,2.46,0,0,0,.72-.27.63.63,0,0,0,.21-.55V48.69l-5.6.74.58-7.74,2-.28,2.11-.35,2.14-.38L83,40.27l1.87-.41c.58-.14,1.1-.27,1.56-.4L87,42.09l-2.07.48c-.77.17-1.57.34-2.42.5s-1.71.33-2.59.49L77.29,44l-.18,2.55,2.59-.34V44l2.78-.3v2.14l4.93-.65v2.48Zm2.71-.23q.27.28.66.78L86.68,50c.29.39.58.79.86,1.21s.53.8.76,1.17l-2.36,1.83c-.18-.36-.4-.75-.65-1.16s-.51-.83-.79-1.23S84,51,83.69,50.63s-.51-.66-.72-.9Z"/></g><line class="cls-2" x1="0.9" y1="60.77" x2="128.47" y2="60.95"/><line class="cls-2" x1="0.9" y1="87.32" x2="128.47" y2="87.5"/></g></g></g></svg>