<svg xmlns="http://www.w3.org/2000/svg" viewBox="0 0 128.5 77.45"><defs><style>.cls-1{fill:none;}.cls-1,.cls-2{stroke:#333;stroke-linejoin:round;}.cls-2{fill:#333;}.cls-3{opacity:0.16;}</style></defs><title>1-331</title><g id="图层_2" data-name="图层 2"><g id="_1-330_1-337" data-name="1-330——1-337"><g id="_1-331" data-name="1-331"><rect class="cls-1" x="0.5" y="0.5" width="76.45" height="76.45"/><circle class="cls-2" cx="38.73" cy="38.73" r="30.63"/><g class="cls-3"><path d="M46.28,43.51c-.17.37-.39.79-.65,1.26s-.54.95-.84,1.44-.6,1-.9,1.42-.59.88-.85,1.25L40.7,47.76c.27-.36.56-.76.87-1.21s.61-.9.89-1.36.55-.92.79-1.36.44-.84.59-1.18Zm4-1.84v4.12A4.15,4.15,0,0,1,50.13,47a1.81,1.81,0,0,1-.45.73,2.41,2.41,0,0,1-.81.45c-.33.12-.73.23-1.21.35l-1.17.28-.83-2.59.9-.21a2.67,2.67,0,0,0,.72-.28.64.64,0,0,0,.2-.55V42l-5.59.73L42.47,35c.62-.08,1.28-.17,2-.28l2.11-.34L48.69,34l2.06-.41c.66-.14,1.29-.27,1.87-.41l1.57-.39.55,2.63-2.08.47-2.41.51-2.6.49-2.58.45L44.9,39.9l2.58-.34V37.35l2.78-.3V39.2l4.93-.65V41ZM53,41.44c.17.2.39.46.65.79s.54.69.83,1.08.58.79.86,1.2.54.81.77,1.18l-2.36,1.82c-.18-.36-.4-.74-.65-1.16s-.51-.83-.79-1.23L51.48,44a10.64,10.64,0,0,0-.73-.91Z"/><path d="M71.8,36.62v2.21L57.16,40.76V38.55l3.27-.43.25-1-2.39.32V35.57l2.84-.37.21-.88-3.4.45v-2.2L71,30.85v2.2l-6.85.9-.21.87L70,34l-.15,2.85ZM58.61,41.29l11.75-1.55v5.63L58.61,46.92Zm2.59,3.09,6.44-.85V42.25l-6.44.84Zm2.08-6.64,3.87-.51.07-.95-3.71.49Z"/><path d="M78.49,39.27c-.17.37-.39.79-.65,1.26S77.3,41.48,77,42s-.6,1-.9,1.42-.59.88-.85,1.25l-2.34-1.12c.27-.36.56-.76.87-1.21s.61-.9.9-1.36.55-.92.79-1.36.43-.84.58-1.18Zm4-1.84v4.11a4.18,4.18,0,0,1-.14,1.18,1.61,1.61,0,0,1-.45.73,2.27,2.27,0,0,1-.8.45c-.33.11-.74.23-1.22.35l-1.17.28-.83-2.59.9-.22a2.2,2.2,0,0,0,.72-.27.62.62,0,0,0,.21-.55V37.79l-5.6.74.58-7.74c.62-.08,1.28-.17,2-.28l2.11-.34,2.14-.39L83,29.37c.66-.14,1.28-.27,1.87-.41l1.56-.39L87,31.2l-2.07.47-2.42.51-2.59.48-2.58.46-.18,2.54,2.59-.34V33.11l2.78-.3V35l4.93-.65v2.47Zm2.71-.23c.18.2.4.46.66.79l.83,1.07c.29.39.58.8.86,1.21s.53.8.76,1.18l-2.36,1.82c-.18-.36-.4-.74-.65-1.16s-.51-.83-.79-1.23-.54-.78-.81-1.15-.51-.66-.72-.9Z"/></g><line class="cls-1" x1="98.37" y1="20.67" x2="108.33" y2="20.67"/><line class="cls-1" x1="118.54" y1="20.92" x2="128.5" y2="20.92"/><line class="cls-1" x1="108.58" y1="0.5" x2="118.54" y2="0.5"/><line class="cls-1" x1="108.58" y1="0.5" x2="108.58" y2="20.42"/><line class="cls-1" x1="118.54" y1="0.5" x2="118.54" y2="20.42"/></g></g></g></svg>