<svg xmlns="http://www.w3.org/2000/svg" viewBox="0 0 129 129"><defs><style>.cls-1{fill:none;stroke:#333;stroke-linejoin:round;}.cls-2{fill:#333;}.cls-3{opacity:0.16;}</style></defs><title>1-338</title><g id="图层_2" data-name="图层 2"><g id="_1-338_1-346" data-name="1-338——1-346"><g id="_1-338" data-name="1-338"><g id="_1-321" data-name="1-321"><g id="_2-002" data-name="2-002"><rect class="cls-1" x="0.5" y="0.5" width="128" height="128"/></g></g><g id="_1-321-2" data-name="1-321"><g id="_2-002-2" data-name="2-002"><polygon class="cls-1" points="0.5 128.5 0.5 0.5 128.5 0.5 0.5 128.5"/></g><path class="cls-2" d="M26.39,24.72a7,7,0,0,0-1.23,4.47v4.7H33v1H25.16v24h-1v-24H20.27v-1h3.89V29A7.92,7.92,0,0,1,25.6,24a4.81,4.81,0,0,1,4-1.8,10.38,10.38,0,0,1,3.6.58v1.1a7.73,7.73,0,0,0-3.46-.67A4,4,0,0,0,26.39,24.72Z"/><path class="cls-2" d="M44,58.85H43V24.24l-7.39,4.13v-1.2l7.68-4.32H44Z"/><path class="cls-2" d="M81.42,74.72a7,7,0,0,0-1.22,4.47v4.7H88v1H80.2v24h-1v-24H75.3v-1h3.89V79A7.92,7.92,0,0,1,80.63,74a4.82,4.82,0,0,1,4-1.8,10.3,10.3,0,0,1,3.6.58v1.1a7.68,7.68,0,0,0-3.45-.67A4.05,4.05,0,0,0,81.42,74.72Z"/><path class="cls-2" d="M92.48,107.8h19.2v1H91.09v-1l12.1-13.49a39.6,39.6,0,0,0,5.52-7.37,12.51,12.51,0,0,0,1.58-5.83,7.47,7.47,0,0,0-2.3-5.83,8.79,8.79,0,0,0-6.15-2.09q-6.61,0-9.6,6.67l-1-.48A12.74,12.74,0,0,1,95.6,74a10.92,10.92,0,0,1,6.24-1.82,9.79,9.79,0,0,1,6.92,2.4A8.36,8.36,0,0,1,111.35,81a13.74,13.74,0,0,1-1.68,6.19A39.24,39.24,0,0,1,104,95Z"/></g><g class="cls-3"><path d="M46.28,69.29c-.17.37-.39.79-.65,1.25s-.54.95-.84,1.44-.6,1-.9,1.43-.59.88-.85,1.25L40.7,73.54c.27-.37.56-.77.87-1.22s.61-.9.89-1.36.55-.91.79-1.36.44-.83.59-1.18Zm4-1.85v4.12a4.1,4.1,0,0,1-.13,1.17,1.74,1.74,0,0,1-.45.73,2.42,2.42,0,0,1-.81.46c-.33.11-.73.23-1.21.34l-1.17.29L45.66,72l.9-.22a2.73,2.73,0,0,0,.72-.27.65.65,0,0,0,.2-.55V67.81l-5.59.74.58-7.74c.62-.08,1.28-.18,2-.29s1.4-.22,2.11-.34l2.14-.39c.71-.13,1.4-.27,2.06-.41S52,59.11,52.62,59s1.11-.26,1.57-.39l.55,2.63-2.08.48c-.76.17-1.57.34-2.41.5l-2.6.49-2.58.45-.17,2.55,2.58-.34V63.13l2.78-.31V65l4.93-.65v2.47ZM53,67.22c.17.19.39.45.65.78s.54.69.83,1.08.58.79.86,1.2.54.81.77,1.18l-2.36,1.82c-.18-.35-.4-.74-.65-1.15s-.51-.83-.79-1.24l-.81-1.14c-.27-.36-.51-.66-.73-.91Z"/><path d="M71.8,62.4v2.21L57.16,66.54V64.32l3.27-.43.25-1-2.39.31V61.34L61.13,61l.21-.87-3.4.44V58.35L71,56.62v2.2l-6.85.9L64,60.6l6-.79-.15,2.85ZM58.61,67.06l11.75-1.55v5.63L58.61,72.69Zm2.59,3.09,6.44-.84V68l-6.44.85Zm2.08-6.63L67.15,63l.07-.95-3.71.49Z"/><path d="M78.49,65.05c-.17.37-.39.79-.65,1.25s-.54,1-.84,1.44-.6,1-.9,1.43-.59.88-.85,1.25l-2.34-1.13c.27-.36.56-.76.87-1.21s.61-.9.9-1.36.55-.91.79-1.36.43-.83.58-1.18Zm4-1.85v4.12a4.05,4.05,0,0,1-.14,1.17,1.56,1.56,0,0,1-.45.73,2.12,2.12,0,0,1-.8.45c-.33.12-.74.23-1.22.35l-1.17.29-.83-2.6.9-.21a2.17,2.17,0,0,0,.72-.28.6.6,0,0,0,.21-.54V63.57l-5.6.74.58-7.74c.62-.08,1.28-.18,2-.29s1.4-.22,2.11-.34l2.14-.39c.72-.13,1.4-.27,2.07-.41s1.28-.27,1.87-.41,1.1-.26,1.56-.39L87,57l-2.07.48c-.77.17-1.57.34-2.42.5s-1.71.33-2.59.49l-2.58.45-.18,2.55,2.59-.34V58.88l2.78-.3v2.15l4.93-.65v2.47ZM85.19,63q.27.29.66.78l.83,1.08c.29.39.58.79.86,1.2s.53.81.76,1.18L85.94,69c-.18-.35-.4-.74-.65-1.16s-.51-.82-.79-1.23-.54-.78-.81-1.14-.51-.66-.72-.91Z"/></g></g></g></g></svg>