<svg xmlns="http://www.w3.org/2000/svg" viewBox="0 0 129 70.3"><defs><style>.cls-1{fill:none;stroke:#333;stroke-linejoin:round;}.cls-2{opacity:0.16;}</style></defs><title>1-348</title><g id="图层_2" data-name="图层 2"><g id="_1-347_1-353" data-name="1-347——1-353"><g id="_1-348" data-name="1-348"><rect class="cls-1" x="0.5" y="0.5" width="128" height="69.3"/><g class="cls-2"><path d="M46.28,39.94c-.17.37-.39.79-.65,1.25s-.54,1-.84,1.44-.6,1-.9,1.43-.59.88-.85,1.25L40.7,44.19c.27-.37.56-.77.87-1.22s.61-.9.89-1.36.55-.91.79-1.36.44-.83.59-1.18Zm4-1.85v4.12a4.1,4.1,0,0,1-.13,1.17,1.74,1.74,0,0,1-.45.73,2.42,2.42,0,0,1-.81.46c-.33.11-.73.22-1.21.34l-1.17.29-.83-2.59.9-.22a2.73,2.73,0,0,0,.72-.27.65.65,0,0,0,.2-.55V38.46l-5.59.74.58-7.74c.62-.08,1.28-.18,2-.29s1.4-.22,2.11-.34l2.14-.39c.71-.13,1.4-.27,2.06-.41s1.29-.27,1.87-.41,1.11-.26,1.57-.39l.55,2.63-2.08.48c-.76.17-1.57.34-2.41.5l-2.6.49-2.58.45-.17,2.55L47.48,36V33.78l2.78-.31v2.15L55.19,35v2.47ZM53,37.87c.17.19.39.45.65.78s.54.69.83,1.08.58.79.86,1.2.54.81.77,1.18l-2.36,1.82c-.18-.35-.4-.74-.65-1.15s-.51-.83-.79-1.24l-.81-1.14c-.27-.36-.51-.66-.73-.91Z"/><path d="M71.8,33.05v2.21L57.16,37.19V35l3.27-.43.25-1-2.39.31V32l2.84-.37.21-.87-3.4.44V29L71,27.27v2.2l-6.85.9-.21.88,6-.79-.15,2.85ZM58.61,37.71l11.75-1.55v5.63L58.61,43.34ZM61.2,40.8,67.64,40V38.67l-6.44.85Zm2.08-6.63,3.87-.51.07-.95-3.71.48Z"/><path d="M78.49,35.7c-.17.37-.39.78-.65,1.25s-.54.95-.84,1.44-.6,1-.9,1.43-.59.88-.85,1.25l-2.34-1.13c.27-.36.56-.76.87-1.21s.61-.9.9-1.36.55-.91.79-1.36.43-.83.58-1.18Zm4-1.85V38a4.05,4.05,0,0,1-.14,1.17,1.56,1.56,0,0,1-.45.73,2.12,2.12,0,0,1-.8.45c-.33.12-.74.23-1.22.35L78.7,41l-.83-2.59.9-.21a2.17,2.17,0,0,0,.72-.28.6.6,0,0,0,.21-.54V34.22L74.1,35l.58-7.74c.62-.08,1.28-.18,2-.29l2.11-.34,2.14-.39c.72-.13,1.4-.27,2.07-.41s1.28-.27,1.87-.41,1.1-.26,1.56-.39L87,27.62l-2.07.47c-.77.18-1.57.35-2.42.51s-1.71.33-2.59.49l-2.58.45-.18,2.55,2.59-.34V29.53l2.78-.3v2.15l4.93-.65V33.2Zm2.71-.22q.27.28.66.78l.83,1.08c.29.39.58.79.86,1.2s.53.81.76,1.18l-2.36,1.82c-.18-.35-.4-.74-.65-1.16s-.51-.82-.79-1.23-.54-.78-.81-1.14-.51-.66-.72-.91Z"/></g><line class="cls-1" x1="0.5" y1="69.8" x2="128.5" y2="0.5"/></g></g></g></svg>