<svg xmlns="http://www.w3.org/2000/svg" viewBox="0 0 129 44.21"><defs><style>.cls-1{fill:none;stroke:#333;stroke-linejoin:round;}.cls-2{opacity:0.16;}.cls-3{fill:#333;}</style></defs><title>1-340</title><g id="图层_2" data-name="图层 2"><g id="_1-338_1-346" data-name="1-338——1-346"><g id="_1-340" data-name="1-340"><rect class="cls-1" x="0.5" y="0.5" width="86.41" height="43.21"/><g class="cls-2"><path d="M46.28,26.89c-.17.37-.39.79-.65,1.26s-.54.94-.84,1.43-.6,1-.9,1.43-.59.88-.85,1.25L40.7,31.14c.27-.36.56-.77.87-1.21s.61-.91.89-1.37.55-.91.79-1.35.44-.84.59-1.19Zm4-1.84v4.11a4.23,4.23,0,0,1-.13,1.18,1.77,1.77,0,0,1-.45.72,2.42,2.42,0,0,1-.81.46c-.33.11-.73.23-1.21.35l-1.17.28-.83-2.59.9-.22a2.73,2.73,0,0,0,.72-.27.65.65,0,0,0,.2-.55V25.41l-5.59.74.58-7.74c.62-.08,1.28-.17,2-.28s1.4-.22,2.11-.35l2.14-.38L50.75,17l1.87-.41,1.57-.39.55,2.62-2.08.48c-.76.17-1.57.34-2.41.5l-2.6.49-2.58.46-.17,2.54,2.58-.34V20.73l2.78-.3v2.15l4.93-.65V24.4ZM53,24.82c.17.19.39.46.65.78s.54.69.83,1.08.58.8.86,1.21.54.8.77,1.17l-2.36,1.83c-.18-.36-.4-.74-.65-1.16s-.51-.83-.79-1.23l-.81-1.15c-.27-.36-.51-.66-.73-.9Z"/><path d="M71.8,20v2.21L57.16,24.14V21.93l3.27-.43.25-1-2.39.32V19l2.84-.38.21-.87-3.4.45V16L71,14.23v2.19l-6.85.91L64,18.2l6-.79-.15,2.85ZM58.61,24.66l11.75-1.54v5.63L58.61,30.29Zm2.59,3.1,6.44-.85V25.62l-6.44.85Zm2.08-6.64,3.87-.51.07-.95-3.71.49Z"/><path d="M78.49,22.65c-.17.37-.39.79-.65,1.26s-.54.94-.84,1.43-.6,1-.9,1.43-.59.88-.85,1.25L72.91,26.9c.27-.36.56-.77.87-1.21s.61-.91.9-1.37.55-.91.79-1.35.43-.84.58-1.19Zm4-1.84v4.11a4.18,4.18,0,0,1-.14,1.18,1.58,1.58,0,0,1-.45.72,2.28,2.28,0,0,1-.8.46c-.33.11-.74.23-1.22.34l-1.17.29-.83-2.59.9-.22a2.46,2.46,0,0,0,.72-.27.63.63,0,0,0,.21-.55V21.17l-5.6.74.58-7.74,2-.28,2.11-.35,2.14-.38L83,12.75l1.87-.41c.58-.14,1.1-.27,1.56-.4L87,14.57l-2.07.48c-.77.17-1.57.34-2.42.5s-1.71.33-2.59.49l-2.58.46L77.11,19l2.59-.34V16.49l2.78-.3v2.14l4.93-.64v2.47Zm2.71-.23c.18.19.4.46.66.78l.83,1.08c.29.39.58.79.86,1.21s.53.8.76,1.17l-2.36,1.83c-.18-.36-.4-.74-.65-1.16s-.51-.83-.79-1.23-.54-.79-.81-1.15-.51-.66-.72-.9Z"/></g><path class="cls-3" d="M37.57,24.36A9.44,9.44,0,0,1,37,21.24,8.76,8.76,0,0,1,38.09,17a8.21,8.21,0,0,1,3.12-3.18A9.22,9.22,0,0,1,46,12.6a9.71,9.71,0,0,1,4.76,1.14A8,8,0,0,1,54,17a9.67,9.67,0,0,1,1.14,4.72,9.5,9.5,0,0,1-1.66,5.56,10.71,10.71,0,0,1-4.38,3.68l-.72-1.4q5.28-2.52,5.28-7.88a7.73,7.73,0,0,0-1-3.86A6.73,6.73,0,0,0,50,15.14a8.3,8.3,0,0,0-4-.94,7.85,7.85,0,0,0-3.94,1,7.14,7.14,0,0,0-2.7,2.7,7.49,7.49,0,0,0-1,3.74,9.09,9.09,0,0,0,1.24,4.56l-1.2.88-12.48-11V30.28H24.45V14.08h1.4L37.49,24.44Z"/><polygon class="cls-1" points="128.5 43.71 86.91 0.5 86.91 43.71 128.5 43.71"/></g></g></g></svg>