<svg xmlns="http://www.w3.org/2000/svg" viewBox="0 0 90.66 129"><defs><style>.cls-1{fill:none;stroke:#333;stroke-linejoin:round;}.cls-2{opacity:0.16;}</style></defs><title>1-341</title><g id="图层_2" data-name="图层 2"><g id="_1-338_1-346" data-name="1-338——1-346"><g id="_1-341" data-name="1-341"><path class="cls-1" d="M90.16.5H.5V80.27H.64C.56,81.39.5,82.52.5,83.67a44.83,44.83,0,0,0,89.66,0c0-1.15-.06-2.28-.14-3.4h.14Z"/><circle class="cls-1" cx="46.88" cy="46.88" r="29.06"/><g class="cls-2"><path d="M27.11,69.29c-.17.37-.39.79-.65,1.25s-.54.95-.84,1.44-.6,1-.9,1.43-.59.88-.85,1.25l-2.34-1.12c.27-.37.56-.77.87-1.22s.61-.9.89-1.36.55-.91.79-1.36.44-.83.59-1.18Zm4-1.85v4.12A4.05,4.05,0,0,1,31,72.73a1.56,1.56,0,0,1-.45.73,2.33,2.33,0,0,1-.81.46c-.33.11-.73.23-1.21.34l-1.17.29L26.49,72l.9-.22a2.73,2.73,0,0,0,.72-.27.63.63,0,0,0,.2-.55V67.81l-5.59.74.58-7.74c.62-.08,1.28-.18,2-.29s1.4-.22,2.11-.34l2.14-.39c.71-.13,1.4-.27,2.06-.41s1.29-.27,1.87-.41,1.11-.26,1.57-.39l.55,2.63-2.07.48c-.77.17-1.57.34-2.42.5l-2.6.49-2.57.45-.18,2.55,2.58-.34V63.13l2.79-.31V65L36,64.32v2.47Zm2.71-.22c.18.19.39.45.65.78s.54.69.83,1.08.58.79.87,1.2.53.81.76,1.18l-2.36,1.82c-.18-.35-.4-.74-.65-1.15s-.51-.83-.79-1.24l-.81-1.14c-.27-.36-.51-.66-.73-.91Z"/><path d="M52.64,62.4v2.21L38,66.54V64.32l3.27-.43.25-1-2.39.31V61.34L42,61l.21-.87-3.4.44V58.35l13.09-1.73v2.2l-6.85.9-.22.88,6-.79-.15,2.85Zm-13.2,4.66,11.75-1.55v5.63L39.44,72.69ZM42,70.15l6.44-.84V68L42,68.87Zm2.08-6.63L48,63l.07-.95-3.71.49Z"/><path d="M59.32,65.05c-.17.37-.39.79-.65,1.25s-.54,1-.84,1.44-.6,1-.9,1.43-.59.88-.85,1.25l-2.34-1.13c.27-.36.56-.76.87-1.21s.61-.9.9-1.36.55-.91.79-1.36.43-.83.58-1.18Zm4-1.85v4.12a4.05,4.05,0,0,1-.14,1.17,1.56,1.56,0,0,1-.45.73,2.12,2.12,0,0,1-.8.45c-.33.12-.74.23-1.21.35l-1.18.29-.83-2.6.9-.21a2.17,2.17,0,0,0,.72-.28.6.6,0,0,0,.21-.54V63.57l-5.6.74.59-7.74c.61-.08,1.27-.18,2-.29s1.4-.22,2.11-.34l2.14-.39c.72-.13,1.41-.27,2.07-.41s1.28-.27,1.87-.41,1.1-.26,1.56-.39L67.78,57l-2.07.48c-.77.17-1.57.34-2.42.5s-1.71.33-2.59.49l-2.58.45-.18,2.55,2.59-.34V58.88l2.78-.3v2.15l4.93-.65v2.47ZM66,63c.17.19.39.45.65.78l.83,1.08c.29.39.58.79.86,1.2s.54.81.76,1.18L66.77,69c-.18-.35-.4-.74-.65-1.16s-.51-.82-.79-1.23-.54-.78-.81-1.14-.51-.66-.72-.91Z"/></g><circle class="cls-1" cx="46.88" cy="86.45" r="29.06"/><line class="cls-1" x1="8.85" y1="67.28" x2="81.81" y2="67.28"/></g></g></g></svg>