<svg xmlns="http://www.w3.org/2000/svg" viewBox="0 0 129 76.6"><defs><style>.cls-1{fill:none;stroke:#333;stroke-linejoin:round;}.cls-2{opacity:0.16;}</style></defs><title>1-353</title><g id="图层_2" data-name="图层 2"><g id="_1-347_1-353" data-name="1-347——1-353"><g id="_1-353" data-name="1-353"><line class="cls-1" x1="0.5" y1="9.47" x2="0.5" y2="24.14"/><line class="cls-1" x1="128.5" y1="9.47" x2="128.5" y2="24.14"/><line class="cls-1" x1="128.5" y1="16.81" x2="0.5" y2="16.81"/><line class="cls-1" x1="64.5" y1="60.5" x2="64.5" y2="33.11"/><g class="cls-2"><path d="M46.28,43.34c-.17.37-.39.79-.65,1.26s-.54.94-.84,1.43-.6,1-.9,1.43-.59.88-.85,1.25L40.7,47.59c.27-.36.56-.77.87-1.22s.61-.9.89-1.36.55-.91.79-1.36.44-.83.59-1.18Zm4-1.85v4.12a4.23,4.23,0,0,1-.13,1.18,1.77,1.77,0,0,1-.45.72,2.42,2.42,0,0,1-.81.46c-.33.11-.73.23-1.21.34l-1.17.29L45.66,46l.9-.22a2.73,2.73,0,0,0,.72-.27.65.65,0,0,0,.2-.55V41.86l-5.59.74.58-7.74c.62-.08,1.28-.18,2-.29s1.4-.22,2.11-.34l2.14-.39c.71-.13,1.4-.27,2.06-.41s1.29-.27,1.87-.4,1.11-.27,1.57-.4l.55,2.63-2.08.48c-.76.17-1.57.34-2.41.5l-2.6.49-2.58.45-.17,2.55,2.58-.34V37.18l2.78-.3V39l4.93-.65v2.48ZM53,41.27c.17.19.39.45.65.78s.54.69.83,1.08.58.79.86,1.21.54.8.77,1.17l-2.36,1.83c-.18-.36-.4-.75-.65-1.16s-.51-.83-.79-1.23-.55-.79-.81-1.15-.51-.66-.73-.91Z"/><path d="M71.8,36.45v2.21L57.16,40.59V38.37l3.27-.43.25-1-2.39.31V35.4L61.13,35l.21-.87-3.4.44V32.4L71,30.68v2.19l-6.85.9-.21.88,6-.79-.15,2.85ZM58.61,41.11l11.75-1.54V45.2L58.61,46.74ZM61.2,44.2l6.44-.84V42.07l-6.44.85Zm2.08-6.63,3.87-.51.07-1-3.71.49Z"/><path d="M78.49,39.1c-.17.37-.39.79-.65,1.25s-.54.95-.84,1.44-.6,1-.9,1.43-.59.88-.85,1.25l-2.34-1.12c.27-.37.56-.77.87-1.22s.61-.9.9-1.36.55-.91.79-1.36.43-.83.58-1.18Zm4-1.85v4.12a4.05,4.05,0,0,1-.14,1.17,1.56,1.56,0,0,1-.45.73,2.28,2.28,0,0,1-.8.46c-.33.11-.74.23-1.22.34l-1.17.29-.83-2.59.9-.22a2.46,2.46,0,0,0,.72-.27.63.63,0,0,0,.21-.55V37.62l-5.6.74.58-7.74c.62-.08,1.28-.18,2-.29s1.4-.22,2.11-.34l2.14-.39c.72-.13,1.4-.27,2.07-.41s1.28-.27,1.87-.41,1.1-.26,1.56-.39L87,31l-2.07.48c-.77.17-1.57.34-2.42.5s-1.71.33-2.59.49l-2.58.45-.18,2.55,2.59-.34V32.94l2.78-.31v2.15l4.93-.65V36.6ZM85.19,37q.27.28.66.78l.83,1.08c.29.39.58.79.86,1.2s.53.81.76,1.18l-2.36,1.82c-.18-.35-.4-.74-.65-1.15s-.51-.83-.79-1.24-.54-.78-.81-1.14-.51-.66-.72-.91Z"/></g><line class="cls-1" x1="79.99" y1="60.5" x2="49.01" y2="60.5"/><circle class="cls-1" cx="64.5" cy="16.6" r="16.1"/><path class="cls-1" d="M48.4,76.6a16.1,16.1,0,1,1,32.2,0"/></g></g></g></svg>