<svg xmlns="http://www.w3.org/2000/svg" viewBox="0 0 129 45.85"><defs><style>.cls-1{fill:#333;}.cls-1,.cls-2{stroke:#333;stroke-linejoin:round;}.cls-2{fill:none;}.cls-3{opacity:0.16;}</style></defs><title>1-350</title><g id="图层_2" data-name="图层 2"><g id="_1-347_1-353" data-name="1-347——1-353"><g id="_1-350" data-name="1-350"><polygon class="cls-1" points="64.5 15.52 66.91 20.39 72.29 21.18 68.4 24.98 69.32 30.34 64.5 27.81 59.68 30.34 60.6 24.98 56.71 21.18 62.09 20.39 64.5 15.52"/><rect class="cls-2" x="42.07" y="0.5" width="44.85" height="44.85"/><g class="cls-3"><path d="M46.28,27.71c-.17.37-.39.79-.65,1.26s-.54,1-.84,1.44-.6,1-.9,1.43-.59.88-.85,1.25L40.7,32c.27-.36.56-.76.87-1.21s.61-.9.89-1.36.55-.91.79-1.36.44-.84.59-1.18Zm4-1.84V30a4.1,4.1,0,0,1-.13,1.17,1.74,1.74,0,0,1-.45.73,2.25,2.25,0,0,1-.81.45c-.33.12-.73.23-1.21.35L46.49,33l-.83-2.59.9-.21a2.37,2.37,0,0,0,.72-.28.63.63,0,0,0,.2-.55v-3.1L41.89,27l.58-7.73,2-.29,2.11-.34,2.14-.39,2.06-.41c.66-.13,1.29-.27,1.87-.41s1.11-.27,1.57-.39l.55,2.63-2.08.47c-.76.18-1.57.34-2.41.51l-2.6.49-2.58.45-.17,2.55,2.58-.34V21.55l2.78-.3V23.4l4.93-.65v2.47ZM53,25.64c.17.2.39.46.65.79s.54.69.83,1.08.58.79.86,1.2.54.81.77,1.18l-2.36,1.82c-.18-.35-.4-.74-.65-1.16s-.51-.82-.79-1.23l-.81-1.14c-.27-.36-.51-.67-.73-.91Z"/><path d="M71.8,20.82V23L57.16,25V22.75l3.27-.43.25-1-2.39.31V19.77l2.84-.37.21-.88-3.4.45v-2.2L71,15.05v2.2l-6.85.9L64,19l6-.78-.15,2.85ZM58.61,25.49l11.75-1.55v5.63L58.61,31.12Zm2.59,3.09,6.44-.85V26.45l-6.44.85ZM63.28,22l3.87-.51.07-1L63.51,21Z"/><path d="M78.49,23.47c-.17.37-.39.79-.65,1.26s-.54.95-.84,1.44-.6,1-.9,1.43-.59.87-.85,1.25l-2.34-1.13c.27-.36.56-.76.87-1.21s.61-.9.9-1.36.55-.92.79-1.36.43-.84.58-1.18Zm4-1.84v4.12a4.05,4.05,0,0,1-.14,1.17,1.61,1.61,0,0,1-.45.73,2.12,2.12,0,0,1-.8.45c-.33.12-.74.23-1.22.35l-1.17.28-.83-2.59.9-.21a2.17,2.17,0,0,0,.72-.28.61.61,0,0,0,.21-.55V22l-5.6.73L74.68,15c.62-.08,1.28-.17,2-.28l2.11-.34L80.9,14,83,13.57c.66-.14,1.28-.27,1.87-.41l1.56-.39L87,15.4l-2.07.47-2.42.51-2.59.49-2.58.45-.18,2.55,2.59-.35V17.31l2.78-.3v2.15l4.93-.65V21Zm2.71-.23c.18.2.4.46.66.79l.83,1.08c.29.39.58.79.86,1.2s.53.81.76,1.18l-2.36,1.82c-.18-.35-.4-.74-.65-1.16s-.51-.83-.79-1.23-.54-.78-.81-1.14-.51-.67-.72-.91Z"/></g><line class="cls-2" x1="0.5" y1="13.08" x2="0.5" y2="32.77"/><line class="cls-2" x1="42.07" y1="22.93" x2="0.5" y2="22.93"/><line class="cls-2" x1="128.5" y1="32.77" x2="128.5" y2="13.08"/><line class="cls-2" x1="86.93" y1="22.93" x2="128.5" y2="22.93"/></g></g></g></svg>