<svg xmlns="http://www.w3.org/2000/svg" viewBox="0 0 129 69"><defs><style>.cls-1{fill:#333;}.cls-2{opacity:0.16;}.cls-3{fill:none;stroke:#333;stroke-linejoin:round;}</style></defs><title>2-012</title><g id="图层_2" data-name="图层 2"><g id="_2-001_2-016" data-name="2-001——2-016"><g id="_2-012" data-name="2-012"><path class="cls-1" d="M44,32.92V16.16H45v36H44V33.92H21.8V52.16H20.75v-36H21.8V32.92Z"/><path class="cls-1" d="M71.12,50.27A9.89,9.89,0,0,0,75,45.92a15.34,15.34,0,0,0,1.34-6.62V16.16h1.06V39.73a15.38,15.38,0,0,1-1.49,7,10.55,10.55,0,0,1-4.22,4.56,13.82,13.82,0,0,1-12.87,0,10.55,10.55,0,0,1-4.22-4.56,15.38,15.38,0,0,1-1.49-7V16.16h1.06V39.3a15.19,15.19,0,0,0,1.34,6.62,9.87,9.87,0,0,0,3.86,4.35,12.2,12.2,0,0,0,11.76,0Z"/><path class="cls-1" d="M98.75,33.3a11.63,11.63,0,0,1,7,2.9,8.12,8.12,0,0,1,2.54,6.12,8.31,8.31,0,0,1-3.72,7.3q-3.72,2.55-10.63,2.54H85.45v-36h8.31q6,0,9.28,2.24a7.25,7.25,0,0,1,3.24,6.36,8,8,0,0,1-2.06,5.49,9.29,9.29,0,0,1-5.47,3ZM86.51,17.17v15.6H95a12,12,0,0,0,7.47-2.11,6.91,6.91,0,0,0,2.76-5.81,6.44,6.44,0,0,0-3-5.69c-2-1.32-4.87-2-8.62-2Zm7.1,34q6.52,0,10.06-2.28a7.36,7.36,0,0,0,3.53-6.56A7.19,7.19,0,0,0,104,36q-3.24-2.2-9-2.21H86.51V51.16Z"/><g class="cls-2"><path d="M46.28,39.29c-.17.37-.39.79-.65,1.25s-.54,1-.84,1.44-.6,1-.9,1.43-.59.88-.85,1.25L40.7,43.54c.27-.37.56-.77.87-1.22s.61-.9.89-1.36.55-.91.79-1.36.44-.83.59-1.18Zm4-1.85v4.12a4.1,4.1,0,0,1-.13,1.17,1.74,1.74,0,0,1-.45.73,2.42,2.42,0,0,1-.81.46c-.33.11-.73.23-1.21.34l-1.17.29L45.66,42l.9-.22a2.73,2.73,0,0,0,.72-.27.65.65,0,0,0,.2-.55V37.81l-5.59.74.58-7.74c.62-.08,1.28-.18,2-.29s1.4-.22,2.11-.34l2.14-.39c.71-.13,1.4-.27,2.06-.41S52,29.11,52.62,29s1.11-.26,1.57-.39l.55,2.63-2.08.48c-.76.17-1.57.34-2.41.5l-2.6.49-2.58.45-.17,2.55,2.58-.34V33.13l2.78-.31V35l4.93-.65v2.47ZM53,37.22c.17.19.39.45.65.78s.54.69.83,1.08.58.79.86,1.2.54.81.77,1.18l-2.36,1.82c-.18-.35-.4-.74-.65-1.15s-.51-.83-.79-1.24l-.81-1.14c-.27-.36-.51-.66-.73-.91Z"/><path d="M71.8,32.4v2.21L57.16,36.54V34.32l3.27-.43.25-1-2.39.31V31.34L61.13,31l.21-.87-3.4.44V28.35L71,26.62v2.2l-6.85.9L64,30.6l6-.79-.15,2.85ZM58.61,37.06l11.75-1.55v5.63L58.61,42.69Zm2.59,3.09,6.44-.84V38l-6.44.85Zm2.08-6.63L67.15,33l.07-.95-3.71.49Z"/><path d="M78.49,35.05c-.17.37-.39.79-.65,1.25s-.54,1-.84,1.44-.6,1-.9,1.43-.59.88-.85,1.25l-2.34-1.13c.27-.36.56-.76.87-1.21s.61-.9.9-1.36.55-.91.79-1.36.43-.83.58-1.18Zm4-1.85v4.12a4.05,4.05,0,0,1-.14,1.17,1.56,1.56,0,0,1-.45.73,2.12,2.12,0,0,1-.8.45c-.33.12-.74.23-1.22.35l-1.17.29-.83-2.6.9-.21a2.17,2.17,0,0,0,.72-.28.6.6,0,0,0,.21-.54V33.57l-5.6.74.58-7.74c.62-.08,1.28-.18,2-.29s1.4-.22,2.11-.34l2.14-.39c.72-.13,1.4-.27,2.07-.41s1.28-.27,1.87-.41,1.1-.26,1.56-.39L87,27l-2.07.48c-.77.17-1.57.34-2.42.5s-1.71.33-2.59.49l-2.58.45-.18,2.55,2.59-.34V28.88l2.78-.3v2.15l4.93-.65v2.47ZM85.19,33q.27.29.66.78l.83,1.08c.29.39.58.79.86,1.2s.53.81.76,1.18L85.94,39c-.18-.35-.4-.74-.65-1.16s-.51-.82-.79-1.23-.54-.78-.81-1.14-.51-.66-.72-.91Z"/></g><rect class="cls-3" x="0.5" y="0.5" width="128" height="68"/></g></g></g></svg>