<svg xmlns="http://www.w3.org/2000/svg" viewBox="0 0 129 87"><defs><style>.cls-1{fill:none;stroke:#333;stroke-linejoin:round;}.cls-2{fill:#333;}.cls-3{opacity:0.16;}</style></defs><title>2-014</title><g id="图层_2" data-name="图层 2"><g id="_2-001_2-016" data-name="2-001——2-016"><g id="_2-014" data-name="2-014"><ellipse class="cls-1" cx="64.5" cy="43.5" rx="64" ry="43"/><path class="cls-2" d="M63.3,57.28a12.58,12.58,0,0,1-4.68,3.62,14.74,14.74,0,0,1-6.17,1.27A15.24,15.24,0,0,1,44,59.87a14.82,14.82,0,0,1-5.5-6.55,24.16,24.16,0,0,1-1.92-10,23.2,23.2,0,0,1,1.92-9.79A14.58,14.58,0,0,1,44,27.08a15.47,15.47,0,0,1,8.42-2.25,14.12,14.12,0,0,1,5.86,1.27,15.77,15.77,0,0,1,5,3.62l-.77.72a14.32,14.32,0,0,0-4.66-3.36,13.06,13.06,0,0,0-5.47-1.24A14.28,14.28,0,0,0,44.6,28,13.89,13.89,0,0,0,39.47,34a22.16,22.16,0,0,0-1.8,9.27,23.14,23.14,0,0,0,1.8,9.5A13.9,13.9,0,0,0,44.6,59a14.13,14.13,0,0,0,7.85,2.16,12,12,0,0,0,10.08-4.65Z"/><path class="cls-2" d="M79.24,25.5q6.33,0,9.74,2.71a9.29,9.29,0,0,1,3.41,7.71A9.24,9.24,0,0,1,89,43.6q-3.41,2.68-9.74,2.68h-8.6V61.5h-1v-36Zm-.15,19.78q5.91,0,9.07-2.43a8.18,8.18,0,0,0,3.17-6.93,8.26,8.26,0,0,0-3.17-7Q85,26.52,79.09,26.51H70.64V45.28Z"/><g class="cls-3"><path d="M46.28,48.29c-.17.37-.39.79-.65,1.25s-.54,1-.84,1.44-.6,1-.9,1.43-.59.88-.85,1.25L40.7,52.54c.27-.37.56-.77.87-1.22s.61-.9.89-1.36.55-.91.79-1.36.44-.83.59-1.18Zm4-1.85v4.12a4.1,4.1,0,0,1-.13,1.17,1.74,1.74,0,0,1-.45.73,2.42,2.42,0,0,1-.81.46c-.33.11-.73.23-1.21.34l-1.17.29L45.66,51l.9-.22a2.73,2.73,0,0,0,.72-.27.65.65,0,0,0,.2-.55V46.81l-5.59.74.58-7.74c.62-.08,1.28-.18,2-.29s1.4-.22,2.11-.34l2.14-.39c.71-.13,1.4-.27,2.06-.41S52,38.11,52.62,38s1.11-.26,1.57-.39l.55,2.63-2.08.48c-.76.17-1.57.34-2.41.5l-2.6.49-2.58.45-.17,2.55,2.58-.34V42.13l2.78-.31V44l4.93-.65v2.47ZM53,46.22c.17.19.39.45.65.78s.54.69.83,1.08.58.79.86,1.2.54.81.77,1.18l-2.36,1.82c-.18-.35-.4-.74-.65-1.15s-.51-.83-.79-1.24l-.81-1.14c-.27-.36-.51-.66-.73-.91Z"/><path d="M71.8,41.4v2.21L57.16,45.54V43.32l3.27-.43.25-1-2.39.31V40.34L61.13,40l.21-.87-3.4.44V37.35L71,35.62v2.2l-6.85.9L64,39.6l6-.79-.15,2.85ZM58.61,46.06l11.75-1.55v5.63L58.61,51.69Zm2.59,3.09,6.44-.84V47l-6.44.85Zm2.08-6.63L67.15,42l.07-.95-3.71.49Z"/><path d="M78.49,44.05c-.17.37-.39.79-.65,1.25s-.54,1-.84,1.44-.6,1-.9,1.43-.59.88-.85,1.25l-2.34-1.13c.27-.36.56-.76.87-1.21s.61-.9.9-1.36.55-.91.79-1.36.43-.83.58-1.18Zm4-1.85v4.12a4.05,4.05,0,0,1-.14,1.17,1.56,1.56,0,0,1-.45.73,2.12,2.12,0,0,1-.8.45c-.33.12-.74.23-1.22.35l-1.17.29-.83-2.6.9-.21a2.17,2.17,0,0,0,.72-.28.6.6,0,0,0,.21-.54V42.57l-5.6.74.58-7.74c.62-.08,1.28-.18,2-.29s1.4-.22,2.11-.34l2.14-.39c.72-.13,1.4-.27,2.07-.41s1.28-.27,1.87-.41,1.1-.26,1.56-.39L87,36l-2.07.48c-.77.17-1.57.34-2.42.5s-1.71.33-2.59.49l-2.58.45-.18,2.55,2.59-.34V37.88l2.78-.3v2.15l4.93-.65v2.47ZM85.19,42q.27.29.66.78l.83,1.08c.29.39.58.79.86,1.2s.53.81.76,1.18L85.94,48c-.18-.35-.4-.74-.65-1.16s-.51-.82-.79-1.23-.54-.78-.81-1.14-.51-.66-.72-.91Z"/></g></g></g></g></svg>