<svg xmlns="http://www.w3.org/2000/svg" viewBox="0 0 47.6 128.5"><defs><style>.cls-1{fill:none;stroke:#333;stroke-linejoin:round;}.cls-2{opacity:0.16;}</style></defs><title>2-023</title><g id="图层_2" data-name="图层 2"><g id="_2-017_2-027" data-name="2-017——2-027"><g id="_2-023" data-name="2-023"><rect class="cls-1" x="7.44" y="0.5" width="32.72" height="64.48"/><g class="cls-2"><path d="M5.58,69.29c-.17.37-.39.79-.65,1.25s-.54.95-.84,1.44-.6,1-.9,1.43-.59.88-.85,1.25L0,73.54c.27-.37.56-.77.87-1.22s.61-.9.9-1.36.55-.91.78-1.36.44-.83.59-1.18Zm4-1.85v4.12a4.05,4.05,0,0,1-.14,1.17,1.56,1.56,0,0,1-.45.73,2.37,2.37,0,0,1-.8.46c-.34.11-.74.23-1.22.34l-1.17.29L5,72l.9-.22a2.59,2.59,0,0,0,.72-.27.63.63,0,0,0,.2-.55V67.81l-5.59.74.58-7.74c.62-.08,1.28-.18,2-.29s1.4-.22,2.11-.34L8,59.79c.71-.13,1.4-.27,2.06-.41s1.29-.27,1.88-.41,1.1-.26,1.56-.39L14,61.21,12,61.69c-.77.17-1.57.34-2.42.5L7,62.68l-2.58.45L4.2,65.68l2.58-.34V63.13l2.79-.31V65l4.93-.65v2.47Zm2.71-.22c.18.19.39.45.65.78s.54.69.83,1.08.58.79.87,1.2.53.81.76,1.18L13,73.28c-.18-.35-.4-.74-.65-1.15s-.51-.83-.79-1.24-.55-.78-.81-1.14-.51-.66-.73-.91Z"/><path d="M31.11,62.4v2.21L16.46,66.54V64.32l3.27-.43.25-1-2.39.31V61.34L20.43,61l.22-.87-3.4.44V58.35l13.08-1.73v2.2l-6.85.9-.21.88,6-.79-.14,2.85Zm-13.2,4.66,11.75-1.55v5.63L17.91,72.69Zm2.59,3.09,6.44-.84V68l-6.44.85Zm2.08-6.63L26.45,63l.07-.95-3.71.49Z"/><path d="M37.79,65.05c-.17.37-.39.79-.65,1.25s-.54,1-.84,1.44-.59,1-.9,1.43-.58.88-.84,1.25l-2.35-1.13c.27-.36.56-.76.87-1.21s.61-.9.9-1.36.55-.91.79-1.36.43-.83.58-1.18Zm4-1.85v4.12a4.05,4.05,0,0,1-.14,1.17,1.56,1.56,0,0,1-.45.73,2.12,2.12,0,0,1-.8.45c-.33.12-.74.23-1.21.35L38,70.31l-.82-2.6.89-.21a2.17,2.17,0,0,0,.72-.28.6.6,0,0,0,.21-.54V63.57l-5.6.74L34,56.57l2-.29c.69-.1,1.39-.22,2.1-.34s1.43-.25,2.14-.39,1.41-.27,2.07-.41,1.28-.27,1.87-.41,1.11-.26,1.56-.39L46.25,57l-2.07.48c-.77.17-1.57.34-2.42.5s-1.71.33-2.59.49l-2.58.45-.18,2.55L39,61.1V58.88l2.78-.3v2.15l4.93-.65v2.47ZM44.5,63c.17.19.39.45.65.78L46,64.84c.29.39.58.79.86,1.2s.54.81.76,1.18L45.25,69c-.19-.35-.41-.74-.66-1.16s-.51-.82-.78-1.23-.55-.78-.82-1.14-.51-.66-.72-.91Z"/></g><line class="cls-1" x1="23.8" y1="64.98" x2="23.8" y2="128.5"/></g></g></g></svg>