<svg xmlns="http://www.w3.org/2000/svg" viewBox="0 0 128.5 57.58"><defs><style>.cls-1{fill:none;stroke:#333;stroke-linejoin:round;}.cls-2{opacity:0.16;}</style></defs><title>2-022</title><g id="图层_2" data-name="图层 2"><g id="_2-017_2-027" data-name="2-017——2-027"><g id="_2-022" data-name="2-022"><line class="cls-1" x1="113.83" x2="113.83" y2="57.58"/><line class="cls-1" x1="128" x2="128" y2="57.58"/><line class="cls-1" y1="28.79" x2="113.83" y2="28.79"/><g class="cls-2"><path d="M45.78,33.58c-.17.37-.39.79-.65,1.25s-.54,1-.84,1.44-.6,1-.9,1.43-.59.88-.85,1.25L40.2,37.82c.27-.36.56-.76.87-1.21s.61-.9.89-1.36.55-.91.79-1.36.44-.83.59-1.18Zm4-1.85v4.12A4.1,4.1,0,0,1,49.63,37a1.74,1.74,0,0,1-.45.73,2.25,2.25,0,0,1-.81.45c-.33.12-.73.23-1.21.35L46,38.84l-.83-2.6.9-.21a2.37,2.37,0,0,0,.72-.28.62.62,0,0,0,.2-.54V32.1l-5.59.74L42,25.1c.62-.08,1.28-.18,2-.29s1.4-.22,2.11-.34l2.14-.39c.71-.13,1.4-.27,2.06-.41s1.29-.27,1.87-.41,1.11-.26,1.57-.39l.55,2.63L52.16,26c-.76.17-1.57.34-2.41.5l-2.6.49-2.58.45L44.4,30,47,29.63V27.41l2.78-.3v2.15l4.93-.65v2.47Zm2.72-.22c.17.19.39.45.65.78s.54.69.83,1.08.58.79.86,1.2.54.81.77,1.18l-2.36,1.82c-.18-.35-.4-.74-.65-1.16s-.51-.82-.79-1.23L51,34c-.27-.36-.51-.66-.73-.91Z"/><path d="M71.3,26.68V28.9L56.66,30.82V28.61l3.27-.43.25-1-2.39.31V25.63l2.84-.37.21-.88-3.4.45V22.64l13.08-1.73v2.2l-6.85.9-.21.88,6-.79L69.3,27ZM58.11,31.35,69.86,29.8v5.63L58.11,37Zm2.59,3.09,6.44-.85V32.31l-6.44.85Zm2.08-6.63,3.87-.51.07-.95L63,26.83Z"/><path d="M78,29.34c-.17.36-.39.78-.65,1.25s-.54.95-.84,1.44-.6,1-.9,1.43-.59.88-.85,1.25l-2.34-1.13c.27-.36.56-.76.87-1.21s.61-.9.9-1.36.55-.91.79-1.36.43-.84.58-1.18Zm4-1.85v4.12a4.05,4.05,0,0,1-.14,1.17,1.56,1.56,0,0,1-.45.73,2.12,2.12,0,0,1-.8.45c-.33.12-.74.23-1.22.35l-1.17.28L77.37,32l.9-.21a2.17,2.17,0,0,0,.72-.28A.6.6,0,0,0,79.2,31V27.86l-5.6.73.58-7.73,2-.29,2.11-.34,2.14-.39,2.07-.41c.66-.13,1.28-.27,1.87-.41s1.1-.26,1.56-.39l.55,2.63-2.07.47c-.77.18-1.57.34-2.42.51s-1.71.33-2.59.49l-2.58.45-.18,2.55,2.59-.34V23.17l2.78-.3V25l4.93-.65v2.47Zm2.71-.22q.27.29.66.78l.83,1.08c.29.39.58.79.86,1.2s.53.81.76,1.18l-2.36,1.82c-.18-.35-.4-.74-.65-1.16s-.51-.82-.79-1.23-.54-.78-.81-1.14-.51-.67-.72-.91Z"/></g></g></g></g></svg>