<svg xmlns="http://www.w3.org/2000/svg" viewBox="0 0 129 66.19"><defs><style>.cls-1{fill:none;}.cls-1,.cls-2{stroke:#333;stroke-linejoin:round;}.cls-2{fill:#333;}.cls-3{opacity:0.16;}</style></defs><title>2-026</title><g id="图层_2" data-name="图层 2"><g id="_2-017_2-027" data-name="2-017——2-027"><g id="_2-026" data-name="2-026"><rect class="cls-1" x="0.5" y="0.5" width="128" height="65.19"/><line class="cls-1" x1="0.5" y1="65.69" x2="128.5" y2="0.5"/><line class="cls-1" x1="0.5" y1="0.5" x2="128.5" y2="65.69"/><polygon class="cls-2" points="128.5 65.68 0.5 65.68 64.5 33.09 128.5 65.68"/><line class="cls-2" x1="64.5" y1="33.09" x2="0.5" y2="65.68"/><line class="cls-2" x1="128.5" y1="65.68" x2="64.5" y2="33.09"/><g class="cls-3"><path d="M46.28,37.88c-.17.37-.39.79-.65,1.26s-.54.94-.84,1.43-.6,1-.9,1.43-.59.88-.85,1.25L40.7,42.13c.27-.36.56-.77.87-1.21s.61-.91.89-1.37.55-.91.79-1.35.44-.84.59-1.19Zm4-1.84v4.11a4.23,4.23,0,0,1-.13,1.18,1.77,1.77,0,0,1-.45.72,2.42,2.42,0,0,1-.81.46c-.33.11-.73.23-1.21.34l-1.17.29-.83-2.59.9-.22a2.73,2.73,0,0,0,.72-.27.65.65,0,0,0,.2-.55V36.4l-5.59.74.58-7.74,2-.28c.69-.11,1.4-.22,2.11-.35l2.14-.38L50.75,28l1.87-.41c.59-.14,1.11-.27,1.57-.4l.55,2.63-2.08.48c-.76.17-1.57.34-2.41.5l-2.6.49-2.58.46-.17,2.54,2.58-.34V31.72l2.78-.3v2.14l4.93-.64v2.47ZM53,35.81c.17.19.39.46.65.78s.54.69.83,1.08.58.79.86,1.21.54.8.77,1.17l-2.36,1.83c-.18-.36-.4-.74-.65-1.16s-.51-.83-.79-1.23l-.81-1.15c-.27-.36-.51-.66-.73-.9Z"/><path d="M71.8,31V33.2L57.16,35.13V32.92l3.27-.43.25-1-2.39.32V29.94l2.84-.38.21-.87-3.4.45v-2.2L71,25.22v2.19l-6.85.91-.21.87,6-.79-.15,2.85ZM58.61,35.65l11.75-1.54v5.63L58.61,41.28Zm2.59,3.1,6.44-.85V36.61l-6.44.85Zm2.08-6.64,3.87-.51.07-1-3.71.49Z"/><path d="M78.49,33.64c-.17.37-.39.79-.65,1.26s-.54.94-.84,1.43-.6,1-.9,1.43-.59.88-.85,1.25l-2.34-1.12c.27-.36.56-.77.87-1.21s.61-.91.9-1.37.55-.91.79-1.35.43-.84.58-1.19Zm4-1.84v4.11a4.18,4.18,0,0,1-.14,1.18,1.58,1.58,0,0,1-.45.72,2.28,2.28,0,0,1-.8.46c-.33.11-.74.23-1.22.34l-1.17.29-.83-2.59.9-.22a2.46,2.46,0,0,0,.72-.27.63.63,0,0,0,.21-.55V32.16l-5.6.74.58-7.74c.62-.08,1.28-.18,2-.29s1.4-.22,2.11-.34l2.14-.38L83,23.74l1.87-.41c.58-.14,1.1-.27,1.56-.4L87,25.56,84.88,26c-.77.17-1.57.34-2.42.5s-1.71.33-2.59.49l-2.58.45L77.11,30l2.59-.34V27.48l2.78-.3v2.14l4.93-.65v2.48Zm2.71-.23q.27.29.66.78l.83,1.08c.29.39.58.79.86,1.21s.53.8.76,1.17l-2.36,1.83c-.18-.36-.4-.75-.65-1.16s-.51-.83-.79-1.23-.54-.79-.81-1.15-.51-.66-.72-.9Z"/></g></g></g></g></svg>