<svg xmlns="http://www.w3.org/2000/svg" viewBox="0 0 128.88 84.28"><defs><style>.cls-1{fill:none;stroke:#333;stroke-linejoin:round;}.cls-2{opacity:0.16;}</style></defs><title>2-028</title><g id="图层_2" data-name="图层 2"><g id="_2-028_2-042" data-name="2-028——2-042"><g id="_2-028" data-name="2-028"><path class="cls-1" d="M.44,35.35C11.78,14.75,36.15.5,64.38.5s52.77,14.35,64.06,35.06"/><rect class="cls-1" x="9.44" y="24.61" width="110" height="59.17"/><g class="cls-2"><path d="M46.22,46.93c-.18.37-.39.79-.65,1.25s-.54,1-.84,1.44-.6,1-.91,1.43-.58.88-.84,1.25l-2.34-1.13c.27-.36.56-.76.87-1.21s.6-.9.89-1.36.55-.91.79-1.36.43-.83.59-1.18Zm4-1.85V49.2a3.73,3.73,0,0,1-.14,1.17,1.63,1.63,0,0,1-.44.73,2.25,2.25,0,0,1-.81.45c-.33.12-.73.23-1.21.35l-1.17.29-.83-2.6.89-.21a2.35,2.35,0,0,0,.73-.28.62.62,0,0,0,.2-.54V45.45l-5.6.74.59-7.74c.62-.08,1.27-.18,2-.29s1.39-.22,2.1-.34,1.43-.25,2.14-.39S50,37.16,50.69,37s1.29-.27,1.87-.41,1.11-.26,1.56-.39l.56,2.63-2.08.48c-.76.17-1.57.34-2.41.5l-2.6.49L45,40.77l-.18,2.55L47.42,43V40.76l2.78-.3v2.15L55.13,42v2.47Zm2.72-.22c.17.19.39.45.65.78s.54.69.83,1.08.58.79.86,1.2.54.81.77,1.18l-2.36,1.82c-.19-.35-.4-.74-.65-1.16s-.52-.82-.79-1.23-.55-.78-.82-1.14-.5-.66-.72-.91Z"/><path d="M71.74,40v2.22L57.1,44.17V42l3.27-.43.24-1-2.39.31V39l2.85-.37.21-.88-3.4.45V36L71,34.26v2.2l-6.85.9-.21.88,6-.79-.15,2.85ZM58.55,44.7,70.3,43.15v5.63L58.55,50.33Zm2.59,3.09,6.44-.85V45.66l-6.44.85Zm2.08-6.63,3.87-.51.07-.95-3.71.48Z"/><path d="M78.43,42.69c-.17.36-.39.78-.65,1.25s-.54,1-.84,1.44-.6,1-.9,1.43-.59.88-.85,1.25l-2.34-1.13c.27-.36.56-.76.87-1.21s.61-.9.89-1.36.55-.91.79-1.36.44-.84.59-1.18Zm4-1.85V45a4.05,4.05,0,0,1-.14,1.17,1.56,1.56,0,0,1-.45.73,2.17,2.17,0,0,1-.81.45c-.33.12-.73.23-1.21.35l-1.17.28-.83-2.59.9-.21a2.37,2.37,0,0,0,.72-.28c.14-.09.2-.27.2-.54V41.21L74,41.94l.58-7.73,2-.29,2.11-.34,2.14-.39c.71-.13,1.4-.27,2.06-.41s1.29-.27,1.87-.41,1.11-.26,1.57-.39l.55,2.63-2.07.47c-.77.18-1.57.34-2.42.51l-2.6.49-2.57.45-.18,2.55,2.58-.34V36.52l2.79-.3v2.15l4.92-.65v2.47Zm2.71-.22c.18.19.39.45.65.78s.54.69.83,1.08.58.79.87,1.2.53.81.76,1.18l-2.36,1.82c-.18-.35-.4-.74-.65-1.16s-.51-.82-.79-1.23l-.81-1.14c-.27-.36-.51-.67-.73-.91Z"/></g></g></g></g></svg>