<svg xmlns="http://www.w3.org/2000/svg" viewBox="0 0 126.66 28.43"><defs><style>.cls-1{fill:#333;}.cls-2{fill:none;stroke:#333;stroke-linejoin:round;}.cls-3{opacity:0.16;}</style></defs><title>2-032</title><g id="图层_2" data-name="图层 2"><g id="_2-028_2-042" data-name="2-028——2-042"><g id="_2-032" data-name="2-032"><path class="cls-1" d="M104.05,28.43h-1.39V11.61H96.78V10.29H109.9v1.32h-5.85Z"/><path class="cls-1" d="M112.35,28.43V10.29h5.31a8.91,8.91,0,0,1,6.66,2.39,9.14,9.14,0,0,1,2.34,6.68,10.15,10.15,0,0,1-1.1,4.87,7.26,7.26,0,0,1-3.18,3.12,10.84,10.84,0,0,1-5,1.08Zm5-1.32a8,8,0,0,0,5.88-2,7.7,7.7,0,0,0,2-5.75,7.82,7.82,0,0,0-2-5.75,7.74,7.74,0,0,0-5.73-2h-3.75v15.5Z"/><line class="cls-2" y1="10.03" x2="61.6" y2="10.03"/><g class="cls-3"><path d="M45.78,22.66c-.17.37-.39.79-.65,1.26s-.54.95-.84,1.44-.6,1-.9,1.42-.59.88-.85,1.25L40.2,26.91c.27-.36.56-.76.87-1.21s.61-.9.89-1.36.55-.92.79-1.36.44-.84.59-1.18Zm4-1.84v4.12a4.2,4.2,0,0,1-.13,1.17,1.81,1.81,0,0,1-.45.73,2.41,2.41,0,0,1-.81.45c-.33.11-.73.23-1.21.35L46,27.92l-.83-2.59.9-.22a2.41,2.41,0,0,0,.72-.27.64.64,0,0,0,.2-.55V21.18l-5.59.74L42,14.18c.62-.08,1.28-.17,2-.28l2.11-.34,2.14-.39,2.06-.41c.66-.14,1.29-.27,1.87-.41L53.69,12l.55,2.63-2.08.47-2.41.51-2.6.48-2.58.46-.17,2.54L47,18.71V16.5l2.78-.3v2.15l4.93-.65v2.47Zm2.72-.23c.17.2.39.46.65.79L54,22.45c.29.4.58.8.86,1.21s.54.8.77,1.18l-2.36,1.82c-.18-.36-.4-.74-.65-1.16s-.51-.83-.79-1.23L51,23.12c-.27-.36-.51-.66-.73-.9Z"/><path d="M71.3,15.77V18L56.66,19.91V17.7l3.27-.43.25-1-2.39.32V14.72l2.84-.38.21-.87-3.4.45v-2.2L70.52,10v2.2l-6.85.9-.21.87,6-.79L69.3,16ZM58.11,20.44l11.75-1.55v5.63L58.11,26.07Zm2.59,3.09,6.44-.85V21.39l-6.44.85Zm2.08-6.64,3.87-.51.07-.95L63,15.92Z"/><path d="M78,18.42c-.17.37-.39.79-.65,1.26s-.54.94-.84,1.43-.6,1-.9,1.43-.59.88-.85,1.25l-2.34-1.12c.27-.36.56-.77.87-1.21s.61-.9.9-1.36.55-.92.79-1.36.43-.84.58-1.19Zm4-1.84v4.11a4.18,4.18,0,0,1-.14,1.18,1.58,1.58,0,0,1-.45.72,2.28,2.28,0,0,1-.8.46c-.33.11-.74.23-1.22.35l-1.17.28-.83-2.59.9-.22A2.46,2.46,0,0,0,79,20.6a.62.62,0,0,0,.21-.55V16.94l-5.6.74.58-7.74c.62-.08,1.28-.17,2-.28l2.11-.34,2.14-.39,2.07-.41c.66-.14,1.28-.27,1.87-.41l1.56-.39.55,2.62-2.07.48c-.77.17-1.57.34-2.42.5s-1.71.33-2.59.49l-2.58.46-.18,2.54,2.59-.34V12.26L82,12v2.15l4.93-.65v2.47Zm2.71-.23c.18.2.4.46.66.79l.83,1.07c.29.39.58.8.86,1.21s.53.8.76,1.17l-2.36,1.83c-.18-.36-.4-.74-.65-1.16S84.28,20.43,84,20s-.54-.79-.81-1.15-.51-.66-.72-.9Z"/></g><circle class="cls-2" cx="71.52" cy="10.42" r="9.92"/></g></g></g></svg>