<svg xmlns="http://www.w3.org/2000/svg" viewBox="0 0 128 28"><defs><style>.cls-1{fill:none;stroke:#333;stroke-linejoin:round;}.cls-2{opacity:0.16;}</style></defs><title>2-039</title><g id="图层_2" data-name="图层 2"><g id="_2-028_2-042" data-name="2-028——2-042"><g id="_2-039" data-name="2-039"><rect class="cls-1" x="42.56" y="0.5" width="42.88" height="27"/><line class="cls-1" y1="14" x2="128" y2="14"/><g class="cls-2"><path d="M45.78,18.79c-.17.37-.39.78-.65,1.25s-.54.95-.84,1.44-.6,1-.9,1.43-.59.88-.85,1.25L40.2,23c.27-.36.56-.76.87-1.21s.61-.9.89-1.36.55-.91.79-1.36.44-.83.59-1.18Zm4-1.85v4.12a4.1,4.1,0,0,1-.13,1.17,1.74,1.74,0,0,1-.45.73,2.25,2.25,0,0,1-.81.45c-.33.12-.73.23-1.21.35L46,24l-.83-2.59.9-.21a2.37,2.37,0,0,0,.72-.28.62.62,0,0,0,.2-.54V17.31l-5.59.74L42,10.31c.62-.08,1.28-.18,2-.29l2.11-.34,2.14-.39c.71-.13,1.4-.27,2.06-.41s1.29-.27,1.87-.41,1.11-.26,1.57-.39l.55,2.63-2.08.47c-.76.18-1.57.35-2.41.51l-2.6.49-2.58.45-.17,2.55L47,14.84V12.62l2.78-.3v2.15l4.93-.65v2.47Zm2.72-.22c.17.19.39.45.65.78s.54.69.83,1.08.58.79.86,1.2.54.81.77,1.18l-2.36,1.82c-.18-.35-.4-.74-.65-1.16s-.51-.82-.79-1.23L51,19.25c-.27-.36-.51-.66-.73-.91Z"/><path d="M71.3,11.89v2.22L56.66,16V13.82l3.27-.43.25-1-2.39.31V10.84l2.84-.37.21-.88-3.4.45V7.85L70.52,6.12v2.2l-6.85.9-.21.88,6-.79-.15,2.85ZM58.11,16.56,69.86,15v5.63L58.11,22.19Zm2.59,3.09,6.44-.85V17.52l-6.44.85ZM62.78,13l3.87-.51.07-.95L63,12Z"/><path d="M78,14.55c-.17.36-.39.78-.65,1.25s-.54.95-.84,1.44-.6,1-.9,1.43-.59.88-.85,1.25l-2.34-1.13c.27-.36.56-.76.87-1.21s.61-.9.9-1.36.55-.91.79-1.36.43-.84.58-1.18Zm4-1.85v4.12A4.05,4.05,0,0,1,81.84,18a1.56,1.56,0,0,1-.45.73,2.12,2.12,0,0,1-.8.45c-.33.12-.74.23-1.22.35l-1.17.28-.83-2.59.9-.21a2.17,2.17,0,0,0,.72-.28.6.6,0,0,0,.21-.54V13.07l-5.6.73.58-7.73,2-.29,2.11-.34,2.14-.39,2.07-.41c.66-.13,1.28-.27,1.87-.41s1.1-.27,1.56-.39l.55,2.63-2.07.47c-.77.18-1.57.34-2.42.51s-1.71.33-2.59.49l-2.58.45-.18,2.55,2.59-.34V8.38L82,8.08v2.15l4.93-.65v2.47Zm2.71-.23c.18.2.4.46.66.79l.83,1.08c.29.39.58.79.86,1.2s.53.81.76,1.18l-2.36,1.82c-.18-.35-.4-.74-.65-1.16s-.51-.82-.79-1.23-.54-.78-.81-1.14-.51-.67-.72-.91Z"/></g></g></g></g></svg>