<svg xmlns="http://www.w3.org/2000/svg" viewBox="0 0 127.3 28.43"><defs><style>.cls-1{fill:#333;}.cls-2{fill:none;stroke:#333;stroke-linejoin:round;}.cls-3{opacity:0.16;}</style></defs><title>2-030</title><g id="图层_2" data-name="图层 2"><g id="_2-028_2-042" data-name="2-028——2-042"><g id="_2-030" data-name="2-030"><path class="cls-1" d="M107.1,28.43h-1.4V11.61H99.82V10.29H113v1.32H107.1Z"/><path class="cls-1" d="M120.58,10.29a7.68,7.68,0,0,1,5,1.42,4.86,4.86,0,0,1,1.74,4,4.87,4.87,0,0,1-1.71,4,7.62,7.62,0,0,1-4.91,1.39h-3.89v7.32H115.4V10.29Zm-.14,9.53a6.57,6.57,0,0,0,4-1.07,3.58,3.58,0,0,0,1.41-3,3.57,3.57,0,0,0-1.41-3,6.57,6.57,0,0,0-4-1.07h-3.65v8.21Z"/><line class="cls-2" y1="10.03" x2="61.6" y2="10.03"/><circle class="cls-2" cx="71.52" cy="10.42" r="9.92"/><g class="cls-3"><path d="M45.78,19.8c-.17.37-.39.79-.65,1.25s-.54.95-.84,1.44-.6,1-.9,1.43-.59.88-.85,1.25L40.2,24.05c.27-.37.56-.77.87-1.22s.61-.9.89-1.36.55-.91.79-1.36.44-.83.59-1.18Zm4-1.85v4.12a4.1,4.1,0,0,1-.13,1.17,1.74,1.74,0,0,1-.45.73,2.42,2.42,0,0,1-.81.46c-.33.11-.73.22-1.21.34L46,25.06l-.83-2.59.9-.22a2.73,2.73,0,0,0,.72-.27.65.65,0,0,0,.2-.55V18.32l-5.59.74L42,11.32c.62-.08,1.28-.18,2-.29s1.4-.22,2.11-.34l2.14-.39c.71-.13,1.4-.27,2.06-.41s1.29-.27,1.87-.41,1.11-.26,1.57-.39l.55,2.63-2.08.48c-.76.17-1.57.34-2.41.5l-2.6.49-2.58.45-.17,2.55L47,15.85V13.64l2.78-.31v2.15l4.93-.65V17.3Zm2.72-.22c.17.19.39.45.65.78s.54.69.83,1.08.58.79.86,1.2.54.81.77,1.18l-2.36,1.82c-.18-.35-.4-.74-.65-1.15s-.51-.83-.79-1.24L51,20.26c-.27-.36-.51-.66-.73-.91Z"/><path d="M71.3,12.91v2.21L56.66,17.05V14.83l3.27-.43.25-1-2.39.31V11.85l2.84-.37.21-.87-3.4.44V8.86L70.52,7.13v2.2l-6.85.9-.21.88,6-.79-.15,2.85ZM58.11,17.57,69.86,16v5.63L58.11,23.2Zm2.59,3.09,6.44-.84V18.53l-6.44.85ZM62.78,14l3.87-.51.07-.95L63,13.05Z"/><path d="M78,15.56c-.17.37-.39.78-.65,1.25s-.54,1-.84,1.44-.6,1-.9,1.43-.59.88-.85,1.25L72.41,19.8c.27-.36.56-.76.87-1.21s.61-.9.9-1.36.55-.91.79-1.36.43-.83.58-1.18Zm4-1.85v4.12A4.05,4.05,0,0,1,81.84,19a1.56,1.56,0,0,1-.45.73,2.12,2.12,0,0,1-.8.45c-.33.12-.74.23-1.22.35l-1.17.28-.83-2.59.9-.21a2.17,2.17,0,0,0,.72-.28.6.6,0,0,0,.21-.54V14.08l-5.6.74.58-7.74c.62-.08,1.28-.18,2-.29l2.11-.34,2.14-.39c.72-.13,1.4-.27,2.07-.41s1.28-.27,1.87-.41,1.1-.26,1.56-.39l.55,2.63L84.38,8c-.77.18-1.57.35-2.42.51s-1.71.33-2.59.49l-2.58.45L76.61,12l2.59-.34V9.39L82,9.09v2.15l4.93-.65v2.47Zm2.71-.22q.27.28.66.78l.83,1.08c.29.39.58.79.86,1.2s.53.81.76,1.18l-2.36,1.82c-.18-.35-.4-.74-.65-1.16s-.51-.82-.79-1.23-.54-.78-.81-1.14-.51-.66-.72-.91Z"/></g></g></g></g></svg>