<svg xmlns="http://www.w3.org/2000/svg" viewBox="0 0 127.1 23.91"><defs><style>.cls-1{fill:#333;}.cls-2{fill:none;stroke:#333;stroke-linejoin:round;}.cls-3{opacity:0.16;}</style></defs><title>2-038</title><g id="图层_2" data-name="图层 2"><g id="_2-028_2-042" data-name="2-028——2-042"><g id="_2-038" data-name="2-038"><path class="cls-1" d="M84.22,22.47H83.3V10.37h1l4.54,8.3h.07l4.52-8.3h1v12.1H93.5V12.15h-.06L89.17,20h-.61l-4.27-7.82h-.07Z"/><path class="cls-1" d="M103.66,20.78a4,4,0,0,0,.88-2.71V10.35h.93v7.84a5.18,5.18,0,0,1-.51,2.37,3.69,3.69,0,0,1-1.47,1.56,4.84,4.84,0,0,1-4.48,0,3.69,3.69,0,0,1-1.47-1.56A5.18,5.18,0,0,1,97,18.19V10.35H98V18a4,4,0,0,0,.89,2.75,3,3,0,0,0,2.41,1A3.1,3.1,0,0,0,103.66,20.78Z"/><path class="cls-1" d="M112,22.45H111V11.23H107.1v-.88h8.76v.88H112Z"/><path class="cls-1" d="M119.11,21.89a5.1,5.1,0,0,1-1.84-2.21,7.87,7.87,0,0,1-.65-3.28,7.87,7.87,0,0,1,.65-3.28,5.15,5.15,0,0,1,1.84-2.21,5.22,5.22,0,0,1,5.49,0,5.24,5.24,0,0,1,1.85,2.21,7.71,7.71,0,0,1,.65,3.28,7.71,7.71,0,0,1-.65,3.28,5.18,5.18,0,0,1-1.85,2.21,5.22,5.22,0,0,1-5.49,0Zm5-.77a4.4,4.4,0,0,0,1.51-1.89,7,7,0,0,0,.53-2.83,6.92,6.92,0,0,0-.53-2.82,4.37,4.37,0,0,0-1.51-1.9,4.1,4.1,0,0,0-4.49,0,4.37,4.37,0,0,0-1.51,1.9,7.09,7.09,0,0,0-.53,2.82,7.14,7.14,0,0,0,.53,2.83,4.4,4.4,0,0,0,1.51,1.89,4.1,4.1,0,0,0,4.49,0Z"/><line class="cls-2" y1="10.03" x2="61.6" y2="10.03"/><circle class="cls-2" cx="71.52" cy="10.42" r="9.92"/><g class="cls-3"><path d="M45.78,18.53c-.17.37-.39.79-.65,1.26s-.54.95-.84,1.44-.6,1-.9,1.43-.59.88-.85,1.25L40.2,22.78c.27-.36.56-.76.87-1.21s.61-.9.89-1.36.55-.92.79-1.36.44-.84.59-1.18Zm4-1.84v4.12A4.1,4.1,0,0,1,49.63,22a1.74,1.74,0,0,1-.45.73,2.25,2.25,0,0,1-.81.45c-.33.12-.73.23-1.21.35L46,23.79l-.83-2.59.9-.21a2.37,2.37,0,0,0,.72-.28.63.63,0,0,0,.2-.55v-3.1l-5.59.73L42,10.05c.62-.08,1.28-.17,2-.28l2.11-.34L48.19,9l2.06-.41c.66-.14,1.29-.27,1.87-.41l1.57-.39.55,2.63-2.08.47c-.76.18-1.57.34-2.41.51l-2.6.49-2.58.45-.17,2.55L47,14.59V12.37l2.78-.3v2.15l4.93-.65V16Zm2.72-.23c.17.2.39.46.65.79s.54.69.83,1.08.58.79.86,1.2.54.81.77,1.18l-2.36,1.82c-.18-.35-.4-.74-.65-1.16s-.51-.82-.79-1.23L51,19c-.27-.36-.51-.67-.73-.91Z"/><path d="M71.3,11.64v2.21L56.66,15.78V13.57l3.27-.43.25-1-2.39.32V10.59l2.84-.37.21-.88-3.4.45V7.59L70.52,5.87v2.2L63.67,9l-.21.87,6-.78-.15,2.85ZM58.11,16.31l11.75-1.55v5.63L58.11,21.94ZM60.7,19.4l6.44-.85V17.27l-6.44.85Zm2.08-6.64,3.87-.51.07-.95L63,11.79Z"/><path d="M78,14.29c-.17.37-.39.79-.65,1.26s-.54.95-.84,1.44-.6,1-.9,1.42-.59.88-.85,1.25l-2.34-1.12c.27-.36.56-.76.87-1.21s.61-.9.9-1.36.55-.92.79-1.36.43-.84.58-1.18Zm4-1.84v4.12a4.1,4.1,0,0,1-.14,1.17,1.61,1.61,0,0,1-.45.73,2.27,2.27,0,0,1-.8.45c-.33.12-.74.23-1.22.35l-1.17.28L77.37,17l.9-.21a2.17,2.17,0,0,0,.72-.28.62.62,0,0,0,.21-.55v-3.1l-5.6.73.58-7.74c.62-.08,1.28-.17,2-.28l2.11-.34L80.4,4.8l2.07-.41c.66-.14,1.28-.27,1.87-.41l1.56-.39.55,2.63-2.07.47L82,7.2l-2.59.49-2.58.45-.18,2.54,2.59-.34V8.13L82,7.83V10l4.93-.65V11.8Zm2.71-.23c.18.2.4.46.66.79l.83,1.08c.29.39.58.79.86,1.2s.53.81.76,1.18l-2.36,1.82c-.18-.36-.4-.74-.65-1.16s-.51-.83-.79-1.23-.54-.78-.81-1.14-.51-.67-.72-.91Z"/></g></g></g></g></svg>