<svg xmlns="http://www.w3.org/2000/svg" viewBox="0 0 128 65.29"><defs><style>.cls-1{fill:none;stroke:#333;stroke-linejoin:round;}.cls-2{opacity:0.16;}</style></defs><title>2-040</title><g id="图层_2" data-name="图层 2"><g id="_2-028_2-042" data-name="2-028——2-042"><g id="_2-040" data-name="2-040"><polygon class="cls-1" points="42.56 0.5 85.44 0.5 85.44 27.82 72.73 54.81 54.31 54.81 42.56 27.82 42.56 0.5"/><line class="cls-1" y1="14.79" x2="128" y2="14.79"/><line class="cls-1" x1="64" y1="14.79" x2="64" y2="65.29"/><g class="cls-2"><path d="M45.78,37.68c-.17.37-.39.79-.65,1.26s-.54,1-.84,1.44-.6,1-.9,1.43-.59.88-.85,1.25L40.2,41.93c.27-.36.56-.76.87-1.21s.61-.9.89-1.36.55-.91.79-1.36.44-.84.59-1.18Zm4-1.84V40a4.1,4.1,0,0,1-.13,1.17,1.74,1.74,0,0,1-.45.73,2.25,2.25,0,0,1-.81.45c-.33.12-.73.23-1.21.35L46,42.94l-.83-2.59.9-.21a2.37,2.37,0,0,0,.72-.28.63.63,0,0,0,.2-.55v-3.1l-5.59.73L42,29.2c.62-.08,1.28-.17,2-.28l2.11-.34,2.14-.39,2.06-.41c.66-.14,1.29-.27,1.87-.41L53.69,27l.55,2.63-2.08.47c-.76.18-1.57.34-2.41.51l-2.6.49-2.58.45-.17,2.55L47,33.74V31.52l2.78-.3v2.15l4.93-.65v2.47Zm2.72-.23c.17.2.39.46.65.79s.54.69.83,1.08.58.79.86,1.2.54.81.77,1.18l-2.36,1.82c-.18-.35-.4-.74-.65-1.16s-.51-.82-.79-1.23L51,38.15c-.27-.36-.51-.67-.73-.91Z"/><path d="M71.3,30.79V33L56.66,34.93V32.72l3.27-.43.25-1-2.39.32V29.74l2.84-.37.21-.88-3.4.45v-2.2L70.52,25v2.2l-6.85.9-.21.87,6-.78-.15,2.85ZM58.11,35.46l11.75-1.55v5.63L58.11,41.09Zm2.59,3.09,6.44-.85V36.42l-6.44.85Zm2.08-6.64,3.87-.5.07-1L63,30.94Z"/><path d="M78,33.44c-.17.37-.39.79-.65,1.26s-.54.95-.84,1.44-.6,1-.9,1.42-.59.88-.85,1.25l-2.34-1.12c.27-.36.56-.76.87-1.21s.61-.9.9-1.36.55-.92.79-1.36.43-.84.58-1.18Zm4-1.84v4.12a4.1,4.1,0,0,1-.14,1.17,1.61,1.61,0,0,1-.45.73,2.12,2.12,0,0,1-.8.45c-.33.12-.74.23-1.22.35l-1.17.28-.83-2.59.9-.21a2.17,2.17,0,0,0,.72-.28.62.62,0,0,0,.21-.55V32l-5.6.73L74.18,25c.62-.08,1.28-.17,2-.28l2.11-.34L80.4,24l2.07-.41c.66-.14,1.28-.27,1.87-.41l1.56-.39.55,2.63-2.07.47L82,26.35l-2.59.49-2.58.45-.18,2.54,2.59-.34V27.28L82,27v2.15l4.93-.65V31Zm2.71-.23c.18.2.4.46.66.79l.83,1.08c.29.39.58.79.86,1.2s.53.81.76,1.18l-2.36,1.82c-.18-.36-.4-.74-.65-1.16s-.51-.83-.79-1.23-.54-.78-.81-1.14-.51-.67-.72-.91Z"/></g></g></g></g></svg>