<svg xmlns="http://www.w3.org/2000/svg" viewBox="0 0 128.5 55.15"><defs><style>.cls-1{fill:none;stroke:#333;stroke-linejoin:round;}.cls-2{opacity:0.16;}</style></defs><title>2-041</title><g id="图层_2" data-name="图层 2"><g id="_2-028_2-042" data-name="2-028——2-042"><g id="_2-041" data-name="2-041"><polygon class="cls-1" points="24.06 0.5 48.68 23.71 82.79 23.71 82.79 54.65 37.07 54.65 0.5 21.6 24.06 0.5"/><g class="cls-2"><path d="M46.28,32.36c-.17.37-.39.79-.65,1.26s-.54,1-.84,1.44-.6,1-.9,1.43-.59.88-.85,1.25L40.7,36.61c.27-.36.56-.76.87-1.21s.61-.9.89-1.36.55-.92.79-1.36.44-.84.59-1.18Zm4-1.84v4.12a4.1,4.1,0,0,1-.13,1.17,1.74,1.74,0,0,1-.45.73,2.25,2.25,0,0,1-.81.45c-.33.12-.73.23-1.21.35l-1.17.28L45.66,35l.9-.21a2.37,2.37,0,0,0,.72-.28.63.63,0,0,0,.2-.55v-3.1l-5.59.73.58-7.74c.62-.08,1.28-.17,2-.28l2.11-.34,2.14-.39,2.06-.41c.66-.14,1.29-.27,1.87-.41l1.57-.39.55,2.63-2.08.47c-.76.18-1.57.34-2.41.51l-2.6.49-2.58.45-.17,2.55,2.58-.34V26.2l2.78-.3v2.15l4.93-.65v2.47ZM53,30.29c.17.2.39.46.65.79s.54.69.83,1.08.58.79.86,1.2.54.81.77,1.18l-2.36,1.82c-.18-.35-.4-.74-.65-1.16s-.51-.83-.79-1.23l-.81-1.14c-.27-.36-.51-.67-.73-.91Z"/><path d="M71.8,25.47v2.21L57.16,29.61V27.4L60.43,27l.25-1-2.39.32V24.42l2.84-.37.21-.88-3.4.45v-2.2L71,19.7v2.2l-6.85.9-.21.87,6-.78-.15,2.85ZM58.61,30.14l11.75-1.55v5.63L58.61,35.77Zm2.59,3.09,6.44-.85V31.1L61.2,32Zm2.08-6.64,3.87-.51.07-.95-3.71.49Z"/><path d="M78.49,28.12c-.17.37-.39.79-.65,1.26s-.54.95-.84,1.44-.6,1-.9,1.42-.59.88-.85,1.25l-2.34-1.12c.27-.36.56-.76.87-1.21s.61-.9.9-1.36.55-.92.79-1.36.43-.84.58-1.18Zm4-1.84V30.4a4.1,4.1,0,0,1-.14,1.17,1.61,1.61,0,0,1-.45.73,2.27,2.27,0,0,1-.8.45c-.33.12-.74.23-1.22.35l-1.17.28-.83-2.59.9-.21a2.17,2.17,0,0,0,.72-.28.62.62,0,0,0,.21-.55v-3.1l-5.6.73.58-7.74c.62-.08,1.28-.17,2-.28L78.76,19l2.14-.39L83,18.22c.66-.14,1.28-.27,1.87-.41l1.56-.39L87,20.05l-2.07.47L82.46,21l-2.59.49L77.29,22l-.18,2.54,2.59-.34V22l2.78-.3v2.15l4.93-.65v2.47Zm2.71-.23c.18.2.4.46.66.79l.83,1.08c.29.39.58.79.86,1.2s.53.81.76,1.18l-2.36,1.82c-.18-.36-.4-.74-.65-1.16s-.51-.83-.79-1.23S84,29,83.69,28.59s-.51-.67-.72-.91Z"/></g><line class="cls-1" x1="41.64" y1="38.83" x2="128.5" y2="38.83"/><line class="cls-1" x1="4.02" y1="3.31" x2="41.64" y2="38.83"/></g></g></g></svg>