<svg xmlns="http://www.w3.org/2000/svg" viewBox="0 0 128 73"><defs><style>.cls-1{fill:none;}.cls-1,.cls-3{stroke:#333;stroke-linejoin:round;}.cls-2{opacity:0.16;}.cls-3{fill:#333;}</style></defs><title>2-063</title><g id="图层_2" data-name="图层 2"><g id="_2-055_2-069" data-name="2-055——2-069"><g id="_2-063" data-name="2-063"><rect class="cls-1" x="14" y="0.5" width="72" height="72"/><line class="cls-1" x1="50" y1="0.5" x2="50" y2="72.5"/><g class="cls-2"><path d="M45.78,41.29c-.17.37-.39.79-.65,1.25s-.54,1-.84,1.44-.6,1-.9,1.43-.59.88-.85,1.25L40.2,45.54c.27-.37.56-.77.87-1.22s.61-.9.89-1.36.55-.91.79-1.36.44-.83.59-1.18Zm4-1.85v4.12a4.1,4.1,0,0,1-.13,1.17,1.74,1.74,0,0,1-.45.73,2.42,2.42,0,0,1-.81.46c-.33.11-.73.23-1.21.34L46,46.55,45.16,44l.9-.22a2.73,2.73,0,0,0,.72-.27.65.65,0,0,0,.2-.55V39.81l-5.59.74L42,32.81c.62-.08,1.28-.18,2-.29s1.4-.22,2.11-.34l2.14-.39c.71-.13,1.4-.27,2.06-.41s1.29-.27,1.87-.41,1.11-.26,1.57-.39l.55,2.63-2.08.48c-.76.17-1.57.34-2.41.5l-2.6.49-2.58.45-.17,2.55L47,37.34V35.13l2.78-.31V37l4.93-.65v2.47Zm2.72-.22c.17.19.39.45.65.78s.54.69.83,1.08.58.79.86,1.2.54.81.77,1.18l-2.36,1.82c-.18-.35-.4-.74-.65-1.15s-.51-.83-.79-1.24L51,41.75c-.27-.36-.51-.66-.73-.91Z"/><path d="M71.3,34.4v2.21L56.66,38.54V36.32l3.27-.43.25-1-2.39.31V33.34L60.63,33l.21-.87-3.4.44V30.35l13.08-1.73v2.2l-6.85.9-.21.88,6-.79-.15,2.85ZM58.11,39.06l11.75-1.55v5.63L58.11,44.69Zm2.59,3.09,6.44-.84V40l-6.44.85Zm2.08-6.63L66.65,35l.07-.95L63,34.55Z"/><path d="M78,37.05c-.17.37-.39.79-.65,1.25s-.54,1-.84,1.44-.6,1-.9,1.43-.59.88-.85,1.25l-2.34-1.13c.27-.36.56-.76.87-1.21s.61-.9.9-1.36.55-.91.79-1.36.43-.83.58-1.18Zm4-1.85v4.12a4.05,4.05,0,0,1-.14,1.17,1.56,1.56,0,0,1-.45.73,2.12,2.12,0,0,1-.8.45c-.33.12-.74.23-1.22.35l-1.17.29-.83-2.6.9-.21a2.17,2.17,0,0,0,.72-.28.6.6,0,0,0,.21-.54V35.57l-5.6.74.58-7.74c.62-.08,1.28-.18,2-.29s1.4-.22,2.11-.34l2.14-.39c.72-.13,1.4-.27,2.07-.41s1.28-.27,1.87-.41,1.1-.26,1.56-.39L86.45,29l-2.07.48c-.77.17-1.57.34-2.42.5s-1.71.33-2.59.49l-2.58.45-.18,2.55,2.59-.34V30.88l2.78-.3v2.15l4.93-.65v2.47ZM84.69,35q.27.29.66.78l.83,1.08c.29.39.58.79.86,1.2s.53.81.76,1.18L85.44,41c-.18-.35-.4-.74-.65-1.16s-.51-.82-.79-1.23-.54-.78-.81-1.14-.51-.66-.72-.91Z"/></g><line class="cls-1" x1="14" y1="36" y2="36"/><line class="cls-1" x1="128" y1="36" x2="86" y2="36"/><polyline class="cls-1" points="39.39 7.8 22 26.93 42 46.94 23.74 65.2"/><circle class="cls-3" cx="68" cy="50.16" r="6"/><line class="cls-1" x1="68" y1="15.84" x2="68" y2="50.16"/><polygon class="cls-3" points="115.12 36 103.12 29.07 103.12 42.93 115.12 36"/></g></g></g></svg>