<svg xmlns="http://www.w3.org/2000/svg" viewBox="0 0 128.5 82.55"><defs><style>.cls-1{fill:none;stroke:#333;stroke-linejoin:round;}.cls-2{opacity:0.16;}</style></defs><title>2-079</title><g id="图层_2" data-name="图层 2"><g id="_2-070_2-084" data-name="2-070——2-084"><g id="_2-079" data-name="2-079"><g id="_2-078" data-name="2-078"><polygon class="cls-1" points="64 49.83 128 18.05 128 82.05 64 49.83"/><polygon class="cls-1" points="64.5 49.83 0.5 18.05 0.5 82.05 64.5 49.83"/></g><g class="cls-2"><path d="M46,46.06c-.18.37-.39.79-.65,1.26s-.54,1-.84,1.44-.6,1-.9,1.42-.59.88-.85,1.25l-2.34-1.12c.27-.36.56-.76.87-1.21s.6-.9.89-1.36.55-.92.79-1.36.43-.84.59-1.18Zm4-1.84v4.11a3.84,3.84,0,0,1-.14,1.18,1.69,1.69,0,0,1-.44.73,2.41,2.41,0,0,1-.81.45c-.33.11-.73.23-1.21.35l-1.17.28-.83-2.59.89-.22a2.39,2.39,0,0,0,.73-.27.64.64,0,0,0,.2-.55V44.58l-5.6.74.59-7.74c.62-.08,1.27-.17,2-.28L46.3,37l2.14-.39,2.06-.41c.66-.14,1.29-.27,1.87-.41l1.56-.39L54.49,38l-2.08.47L50,39l-2.6.48-2.58.46-.18,2.54,2.59-.34V39.9L50,39.6v2.15l4.93-.65v2.47ZM52.73,44c.17.2.39.46.65.79l.83,1.07c.29.39.58.8.86,1.21s.54.8.77,1.18l-2.36,1.82c-.19-.36-.4-.74-.65-1.16s-.51-.83-.79-1.23l-.81-1.15c-.27-.36-.51-.66-.73-.9Z"/><path d="M71.55,39.17v2.21L56.91,43.31V41.1l3.27-.43.25-1L58,40V38.12l2.85-.38.21-.87-3.4.45v-2.2L70.77,33.4v2.2l-6.85.9-.21.87,6-.79-.15,2.85ZM58.36,43.84l11.75-1.55v5.63L58.36,49.47ZM61,46.93l6.44-.85V44.79L61,45.64ZM63,40.29l3.87-.51.07-1-3.71.49Z"/><path d="M78.24,41.82c-.17.37-.39.79-.65,1.26s-.54.94-.84,1.43-.6,1-.9,1.43-.59.88-.85,1.25l-2.34-1.12c.27-.36.56-.77.87-1.21s.61-.9.9-1.36.55-.92.78-1.36.44-.84.59-1.19Zm4-1.84v4.11a4.18,4.18,0,0,1-.14,1.18,1.58,1.58,0,0,1-.45.72,2.37,2.37,0,0,1-.8.46c-.34.11-.74.23-1.22.35l-1.17.28-.83-2.59.9-.22a2.59,2.59,0,0,0,.72-.27.61.61,0,0,0,.2-.55V40.34l-5.59.74.58-7.74c.62-.08,1.28-.17,2-.28l2.11-.34,2.14-.39,2.06-.41c.67-.14,1.29-.27,1.88-.41l1.56-.39.55,2.62-2.07.48c-.77.17-1.57.34-2.42.5l-2.6.49L77,35.67l-.18,2.54,2.58-.34V35.66l2.79-.3v2.15l4.93-.65v2.47Zm2.71-.23c.18.2.39.46.65.79s.54.68.83,1.07.58.8.87,1.21.53.8.76,1.17l-2.36,1.83c-.18-.36-.4-.74-.65-1.16s-.51-.83-.79-1.23-.55-.79-.81-1.15-.51-.66-.73-.9Z"/></g><polyline class="cls-1" points="95.99 0.5 64.5 0.5 64.5 50.09"/></g></g></g></svg>