<svg xmlns="http://www.w3.org/2000/svg" viewBox="0 0 128.5 61"><defs><style>.cls-1{fill:#333;}.cls-2{fill:none;stroke:#333;stroke-linejoin:round;}.cls-3{opacity:0.16;}</style></defs><title>2-081</title><g id="图层_2" data-name="图层 2"><g id="_2-070_2-084" data-name="2-070——2-084"><g id="_2-081" data-name="2-081"><path class="cls-1" d="M55.45,59H66.26v1.07H54v-1l6.89-7.73A23.82,23.82,0,0,0,64,47.23,6.83,6.83,0,0,0,64.86,44a4.08,4.08,0,0,0-1.26-3.17,4.82,4.82,0,0,0-3.36-1.14q-3.62,0-5.24,3.72l-1-.5a7.43,7.43,0,0,1,2.52-3.17,6.42,6.42,0,0,1,3.72-1.09,5.9,5.9,0,0,1,4.15,1.44A5,5,0,0,1,66,44a7.91,7.91,0,0,1-1,3.57A21.9,21.9,0,0,1,61.78,52Z"/><path class="cls-1" d="M72.82,59.74a5.68,5.68,0,0,1-2.34-2.1A5.94,5.94,0,0,1,70.26,52a5.81,5.81,0,0,1,3.89-3v-.09a4.46,4.46,0,0,1-2.63-1.68A4.92,4.92,0,0,1,70.46,44a5.14,5.14,0,0,1,.74-2.76,5,5,0,0,1,2.06-1.89,6.36,6.36,0,0,1,3-.67,6.49,6.49,0,0,1,3,.67,4.91,4.91,0,0,1,2,1.89A5.22,5.22,0,0,1,82,44a5.08,5.08,0,0,1-1.06,3.25,4.11,4.11,0,0,1-2.63,1.59v.09A5.82,5.82,0,0,1,80.55,50a5.9,5.9,0,0,1,1.64,2,5.69,5.69,0,0,1,.61,2.63,5.61,5.61,0,0,1-.84,3,5.71,5.71,0,0,1-2.33,2.1,8,8,0,0,1-6.81,0Zm6.2-.92A4.92,4.92,0,0,0,78.93,50a6.4,6.4,0,0,0-5.41,0,4.94,4.94,0,0,0-2,1.74,5.25,5.25,0,0,0,0,5.29,4.75,4.75,0,0,0,1.93,1.78,6,6,0,0,0,2.81.64A5.93,5.93,0,0,0,79,58.82Zm.52-11.62a3.93,3.93,0,0,0,1.33-3.11,4.14,4.14,0,0,0-1.3-3.16,5.16,5.16,0,0,0-6.69,0,4.14,4.14,0,0,0-1.3,3.16,3.93,3.93,0,0,0,1.33,3.11,5.25,5.25,0,0,0,6.63,0Z"/><path class="cls-1" d="M88,57.67q-1.73-2.82-1.72-8.06T88,41.49a5.63,5.63,0,0,1,9.77,0q1.73,2.82,1.72,8.12t-1.72,8.06a5.63,5.63,0,0,1-9.77,0Zm8.94-.77a15.09,15.09,0,0,0,1.43-7.29,15.25,15.25,0,0,0-1.43-7.35,4.48,4.48,0,0,0-8.1,0,15.5,15.5,0,0,0-1.42,7.35,15.34,15.34,0,0,0,1.42,7.29,4.48,4.48,0,0,0,8.1,0Z"/><path class="cls-1" d="M103.58,45.91a4.47,4.47,0,0,1,0-6,4,4,0,0,1,3-1.2,4.17,4.17,0,0,1,2.15.55,3.82,3.82,0,0,1,1.5,1.51,4.56,4.56,0,0,1,0,4.34,3.89,3.89,0,0,1-1.5,1.51,4.27,4.27,0,0,1-2.15.55A4,4,0,0,1,103.58,45.91Zm5.36-.57a3.33,3.33,0,0,0,.94-2.42,3.36,3.36,0,0,0-.94-2.47,3.43,3.43,0,0,0-4.74,0,3.36,3.36,0,0,0-.93,2.44,3.4,3.4,0,0,0,.93,2.45,3.41,3.41,0,0,0,4.74,0Zm19.53,12.08a7.18,7.18,0,0,1-2.8,2.28,8.79,8.79,0,0,1-3.75.8A8.89,8.89,0,0,1,117,59.14a8.77,8.77,0,0,1-3.26-3.85,13.71,13.71,0,0,1-1.15-5.82,13.17,13.17,0,0,1,1.15-5.71A8.67,8.67,0,0,1,117,40a9,9,0,0,1,4.94-1.33,8.58,8.58,0,0,1,3.63.8,8.38,8.38,0,0,1,3,2.28l-.87.67a7.14,7.14,0,0,0-2.59-2,7.47,7.47,0,0,0-3.12-.73,7.53,7.53,0,0,0-7.2,4.58,12.36,12.36,0,0,0-1,5.17,12.92,12.92,0,0,0,1,5.28,8,8,0,0,0,2.86,3.47,7.72,7.72,0,0,0,4.34,1.22,7.39,7.39,0,0,0,3.18-.69,6.83,6.83,0,0,0,2.53-2.06Z"/><circle class="cls-2" cx="19.5" cy="30.5" r="10"/><line class="cls-2" x1="9.5" y1="30.5" x2="29.5" y2="30.5"/><rect class="cls-2" x="0.5" y="0.5" width="38" height="60"/><g class="cls-3"><path d="M46.28,35.29c-.17.37-.39.79-.65,1.25s-.54,1-.84,1.44-.6,1-.9,1.43-.59.88-.85,1.25L40.7,39.54c.27-.37.56-.77.87-1.22s.61-.9.89-1.36.55-.91.79-1.36.44-.83.59-1.18Zm4-1.85v4.12a4.1,4.1,0,0,1-.13,1.17,1.74,1.74,0,0,1-.45.73,2.42,2.42,0,0,1-.81.46c-.33.11-.73.23-1.21.34l-1.17.29L45.66,38l.9-.22a2.73,2.73,0,0,0,.72-.27.65.65,0,0,0,.2-.55V33.81l-5.59.74.58-7.74c.62-.08,1.28-.18,2-.29s1.4-.22,2.11-.34l2.14-.39c.71-.13,1.4-.27,2.06-.41S52,25.11,52.62,25s1.11-.26,1.57-.39l.55,2.63-2.08.48c-.76.17-1.57.34-2.41.5l-2.6.49-2.58.45-.17,2.55,2.58-.34V29.13l2.78-.31V31l4.93-.65v2.47ZM53,33.22c.17.19.39.45.65.78s.54.69.83,1.08.58.79.86,1.2.54.81.77,1.18l-2.36,1.82c-.18-.35-.4-.74-.65-1.15s-.51-.83-.79-1.24l-.81-1.14c-.27-.36-.51-.66-.73-.91Z"/><path d="M71.8,28.4v2.21L57.16,32.54V30.32l3.27-.43.25-1-2.39.31V27.34L61.13,27l.21-.87-3.4.44V24.35L71,22.62v2.2l-6.85.9L64,26.6l6-.79-.15,2.85ZM58.61,33.06l11.75-1.55v5.63L58.61,38.69Zm2.59,3.09,6.44-.84V34l-6.44.85Zm2.08-6.63L67.15,29l.07-1-3.71.49Z"/><path d="M78.49,31.05c-.17.37-.39.79-.65,1.25s-.54,1-.84,1.44-.6,1-.9,1.43-.59.88-.85,1.25l-2.34-1.13c.27-.36.56-.76.87-1.21s.61-.9.9-1.36.55-.91.79-1.36.43-.83.58-1.18Zm4-1.85v4.12a4.05,4.05,0,0,1-.14,1.17,1.56,1.56,0,0,1-.45.73,2.12,2.12,0,0,1-.8.45c-.33.12-.74.23-1.22.35l-1.17.29-.83-2.6.9-.21a2.17,2.17,0,0,0,.72-.28.6.6,0,0,0,.21-.54V29.57l-5.6.74.58-7.74c.62-.08,1.28-.18,2-.29s1.4-.22,2.11-.34l2.14-.39c.72-.13,1.4-.27,2.07-.41s1.28-.27,1.87-.41,1.1-.26,1.56-.39L87,23l-2.07.48c-.77.17-1.57.34-2.42.5s-1.71.33-2.59.49l-2.58.45-.18,2.55,2.59-.34V24.88l2.78-.3v2.15l4.93-.65v2.47ZM85.19,29q.27.29.66.78l.83,1.08c.29.39.58.79.86,1.2s.53.81.76,1.18L85.94,35c-.18-.35-.4-.74-.65-1.16s-.51-.82-.79-1.23-.54-.78-.81-1.14-.51-.66-.72-.91Z"/></g></g></g></g></svg>