<svg xmlns="http://www.w3.org/2000/svg" viewBox="0 0 128 50.96"><defs><style>.cls-1{fill:none;stroke:#333;stroke-linejoin:round;}.cls-2{opacity:0.16;}</style></defs><title>2-090</title><g id="图层_2" data-name="图层 2"><g id="_2-085_2-107" data-name="2-085——2-107"><g id="_2-090" data-name="2-090"><line class="cls-1" y1="25.48" x2="128" y2="25.48"/><g class="cls-2"><path d="M45.78,30.77c-.17.37-.39.79-.65,1.25s-.54.95-.84,1.44-.6,1-.9,1.43-.59.88-.85,1.25L40.2,35c.27-.37.56-.77.87-1.22s.61-.9.89-1.36.55-.91.79-1.36.44-.83.59-1.18Zm4-1.85V33a4.1,4.1,0,0,1-.13,1.17,1.74,1.74,0,0,1-.45.73,2.42,2.42,0,0,1-.81.46c-.33.11-.73.23-1.21.34L46,36l-.83-2.59.9-.22a2.73,2.73,0,0,0,.72-.27.65.65,0,0,0,.2-.55V29.29L41.39,30,42,22.29c.62-.08,1.28-.18,2-.29s1.4-.22,2.11-.34l2.14-.39c.71-.13,1.4-.27,2.06-.41s1.29-.27,1.87-.41,1.11-.26,1.57-.39l.55,2.63-2.08.48c-.76.17-1.57.34-2.41.5l-2.6.49-2.58.45-.17,2.55L47,26.82V24.61l2.78-.31v2.15l4.93-.65v2.47Zm2.72-.22c.17.19.39.45.65.78s.54.69.83,1.08.58.79.86,1.21.54.8.77,1.17l-2.36,1.82c-.18-.35-.4-.74-.65-1.15s-.51-.83-.79-1.23-.55-.79-.81-1.15-.51-.66-.73-.91Z"/><path d="M71.3,23.88v2.21L56.66,28V25.8l3.27-.43.25-1-2.39.31V22.82l2.84-.37.21-.87-3.4.44V19.83l13.08-1.72V20.3l-6.85.9-.21.88,6-.79-.15,2.85ZM58.11,28.54,69.86,27v5.63L58.11,34.17Zm2.59,3.09,6.44-.84V29.5l-6.44.85ZM62.78,25l3.87-.51.07-.95L63,24Z"/><path d="M78,26.53c-.17.37-.39.79-.65,1.25s-.54.95-.84,1.44-.6,1-.9,1.43-.59.88-.85,1.25l-2.34-1.12c.27-.37.56-.77.87-1.22s.61-.9.9-1.36.55-.91.79-1.36.43-.83.58-1.18Zm4-1.85V28.8A4.05,4.05,0,0,1,81.84,30a1.56,1.56,0,0,1-.45.73,2.28,2.28,0,0,1-.8.46c-.33.11-.74.22-1.22.34l-1.17.29-.83-2.6.9-.21a2.46,2.46,0,0,0,.72-.27.63.63,0,0,0,.21-.55V25.05l-5.6.74.58-7.74c.62-.08,1.28-.18,2-.29s1.4-.22,2.11-.34L80.4,17c.72-.13,1.4-.27,2.07-.41s1.28-.27,1.87-.41,1.1-.26,1.56-.39l.55,2.63-2.07.48c-.77.17-1.57.34-2.42.5s-1.71.33-2.59.49l-2.58.45-.18,2.55,2.59-.34V20.36l2.78-.3v2.15l4.93-.65V24Zm2.71-.22q.27.28.66.78l.83,1.08c.29.39.58.79.86,1.2s.53.81.76,1.18l-2.36,1.82c-.18-.35-.4-.74-.65-1.16s-.51-.82-.79-1.23-.54-.78-.81-1.14-.51-.66-.72-.91Z"/></g><line class="cls-1" x1="64" y1="24.85" x2="64" y2="17.24"/><polygon class="cls-1" points="64 1.4 50.78 16.93 77.22 16.93 64 1.4"/><line class="cls-1" x1="49.43" y1="0.5" x2="78.57" y2="0.5"/><line class="cls-1" x1="64" y1="26.11" x2="64" y2="33.72"/><polygon class="cls-1" points="64 49.56 77.22 34.03 50.78 34.03 64 49.56"/><line class="cls-1" x1="78.57" y1="50.46" x2="49.43" y2="50.46"/></g></g></g></svg>