<svg xmlns="http://www.w3.org/2000/svg" viewBox="0 0 91.27 128"><defs><style>.cls-1{fill:none;}.cls-1,.cls-2{stroke:#333;stroke-linejoin:round;}.cls-2{fill:#333;}.cls-3{opacity:0.16;}</style></defs><title>2-092</title><g id="图层_2" data-name="图层 2"><g id="_2-085_2-107" data-name="2-085——2-107"><g id="_2-092" data-name="2-092"><polygon class="cls-1" points="25 58.9 49.17 11.36 0.5 11.36 25 58.9"/><polygon class="cls-2" points="25 57.43 49.17 104.97 0.5 104.97 25 57.43"/><line class="cls-1" x1="24.83" x2="24.83" y2="11.36"/><line class="cls-1" x1="24.83" y1="104.67" x2="24.83" y2="128"/><line class="cls-1" x1="24.97" y1="58.62" x2="57.87" y2="58.62"/><circle class="cls-1" cx="74.32" cy="60.11" r="16.45"/><g class="cls-3"><path d="M27.34,68.79c-.17.37-.39.79-.65,1.25s-.54.95-.84,1.44-.6,1-.9,1.43-.58.88-.84,1.25L21.76,73c.27-.37.56-.77.87-1.22s.61-.9.9-1.36.55-.91.79-1.36.43-.83.58-1.18Zm4-1.85v4.12a4.05,4.05,0,0,1-.14,1.17,1.56,1.56,0,0,1-.45.73,2.28,2.28,0,0,1-.8.46c-.33.11-.74.23-1.21.34l-1.18.29-.83-2.59.9-.22a2.46,2.46,0,0,0,.72-.27.63.63,0,0,0,.21-.55V67.31l-5.6.74.59-7.74c.61-.08,1.27-.18,2-.29s1.4-.22,2.11-.34,1.43-.25,2.14-.39,1.41-.27,2.07-.41,1.28-.27,1.87-.41,1.1-.26,1.56-.39l.55,2.63-2.07.48c-.77.17-1.57.34-2.42.5s-1.71.33-2.59.49l-2.58.45L26,65.18l2.59-.34V62.63l2.78-.31v2.15l4.93-.65v2.47Zm2.72-.22c.17.19.39.45.65.78l.83,1.08c.29.39.58.79.86,1.2s.54.81.76,1.18l-2.36,1.82c-.18-.35-.4-.74-.65-1.15s-.51-.83-.79-1.24-.54-.78-.81-1.14-.51-.66-.72-.91Z"/><path d="M52.87,61.9v2.21L38.23,66V63.82l3.27-.43.24-1-2.39.31V60.84l2.85-.37.21-.87L39,60V57.85l13.08-1.73v2.2l-6.85.9L45,60.1l6-.79-.14,2.85Zm-13.2,4.66L51.42,65v5.63L39.67,72.19Zm2.59,3.09,6.44-.84V67.52l-6.44.85ZM44.34,63l3.88-.51.06-.95-3.71.49Z"/><path d="M59.56,64.55c-.18.37-.39.79-.65,1.25s-.54,1-.84,1.44-.6,1-.91,1.43-.58.88-.84,1.25L54,68.79c.27-.36.56-.76.87-1.21s.6-.9.89-1.36.55-.91.79-1.36.43-.83.59-1.18Zm4-1.85v4.12A3.73,3.73,0,0,1,63.4,68a1.63,1.63,0,0,1-.44.73,2.25,2.25,0,0,1-.81.45c-.33.12-.73.23-1.21.35l-1.17.29-.83-2.6.89-.21a2.35,2.35,0,0,0,.73-.28.62.62,0,0,0,.2-.54V63.07l-5.6.74.59-7.74c.62-.08,1.27-.18,2-.29s1.39-.22,2.1-.34,1.43-.25,2.14-.39,1.41-.27,2.07-.41,1.29-.27,1.87-.41S67,54,67.46,53.84L68,56.47,65.94,57c-.76.17-1.57.34-2.41.5l-2.6.49-2.58.45-.18,2.55,2.59-.34V58.38l2.78-.3v2.15l4.93-.65v2.47Zm2.72-.22c.17.19.39.45.65.78s.54.69.83,1.08.58.79.86,1.2.54.81.77,1.18L67,68.54c-.19-.35-.4-.74-.65-1.16s-.52-.82-.79-1.23S65,65.37,64.75,65s-.5-.66-.72-.91Z"/></g></g></g></g></svg>