<svg xmlns="http://www.w3.org/2000/svg" viewBox="0 0 128.63 35"><defs><style>.cls-1{fill:none;}.cls-1,.cls-2{stroke:#333;stroke-linejoin:round;}.cls-2{fill:#333;}.cls-3{opacity:0.16;}</style></defs><title>2-106</title><g id="图层_2" data-name="图层 2"><g id="_2-085_2-107" data-name="2-085——2-107"><g id="_2-106" data-name="2-106"><line class="cls-1" y1="17.5" x2="42" y2="17.5"/><rect class="cls-1" x="42.13" y="0.5" width="86" height="34"/><polygon class="cls-2" points="85.13 17.5 42.13 34.5 42.13 0.5 85.13 17.5"/><g class="cls-3"><path d="M45.84,22.29c-.17.37-.39.79-.65,1.25s-.54.95-.84,1.44-.59,1-.9,1.43-.58.88-.84,1.25l-2.35-1.12c.27-.37.56-.77.87-1.22s.61-.9.9-1.36.55-.91.79-1.36.43-.83.58-1.18Zm4-1.85v4.12a4.05,4.05,0,0,1-.14,1.17,1.56,1.56,0,0,1-.45.73,2.28,2.28,0,0,1-.8.46c-.33.11-.74.23-1.21.34l-1.18.29L45.23,25l.89-.22a2.46,2.46,0,0,0,.72-.27.63.63,0,0,0,.21-.55V20.81l-5.6.74L42,13.81l2-.29c.69-.1,1.39-.22,2.1-.34s1.43-.25,2.14-.39,1.41-.27,2.07-.41,1.28-.27,1.87-.41,1.11-.26,1.56-.39l.55,2.63-2.07.48c-.77.17-1.57.34-2.42.5s-1.71.33-2.59.49l-2.58.45-.18,2.55,2.59-.34V16.13l2.78-.31V18l4.93-.65v2.47Zm2.72-.22c.17.19.39.45.65.78L54,22.08c.29.39.58.79.86,1.2s.54.81.76,1.18L53.3,26.28c-.19-.35-.41-.74-.66-1.15s-.51-.83-.78-1.24-.55-.78-.82-1.14-.51-.66-.72-.91Z"/><path d="M71.37,15.4v2.21L56.73,19.54V17.32L60,16.89l.24-1-2.39.31V14.34L60.7,14l.21-.87-3.4.44V11.35L70.59,9.62v2.2l-6.85.9-.21.88,6-.79-.15,2.85ZM58.18,20.06l11.74-1.55v5.63L58.18,25.69Zm2.58,3.09,6.45-.84V21l-6.45.85Zm2.08-6.63L66.72,16l.06-1-3.71.49Z"/><path d="M78.06,18.05c-.18.37-.39.79-.65,1.25s-.54.95-.84,1.44-.6,1-.91,1.43-.58.88-.84,1.25l-2.34-1.13c.27-.36.56-.76.87-1.21s.6-.9.89-1.36.55-.91.79-1.36.43-.83.59-1.18Zm4-1.85v4.12a3.73,3.73,0,0,1-.14,1.17,1.63,1.63,0,0,1-.44.73,2.25,2.25,0,0,1-.81.45c-.33.12-.73.23-1.21.35l-1.17.29-.83-2.6.89-.21a2.35,2.35,0,0,0,.73-.28.62.62,0,0,0,.2-.54V16.57l-5.6.74.59-7.74c.62-.08,1.27-.18,2-.29s1.39-.22,2.1-.34,1.43-.25,2.14-.39,1.41-.27,2.07-.41,1.29-.27,1.87-.41,1.11-.26,1.56-.39L86.52,10l-2.08.48c-.76.17-1.57.34-2.41.5l-2.6.49-2.58.45-.18,2.55,2.59-.34V11.88l2.78-.3v2.15L87,13.08v2.47ZM84.76,16c.17.19.39.45.65.78s.54.69.83,1.08.58.79.86,1.2.54.81.77,1.18L85.51,22c-.19-.35-.4-.74-.65-1.16s-.52-.82-.79-1.23-.55-.78-.82-1.14-.5-.66-.72-.91Z"/></g><polygon class="cls-2" points="128.13 0.5 128.13 34.5 85.13 17.5 128.13 0.5"/></g></g></g></svg>