<svg xmlns="http://www.w3.org/2000/svg" viewBox="0 0 82.07 129"><defs><style>.cls-1{fill:none;stroke:#333;stroke-linejoin:round;}.cls-2{opacity:0.16;}</style></defs><title>2-101</title><g id="图层_2" data-name="图层 2"><g id="_2-085_2-107" data-name="2-085——2-107"><g id="_2-101" data-name="2-101"><circle class="cls-1" cx="41.03" cy="64.5" r="21.33"/><line class="cls-1" x1="41.03" y1="43.17" x2="41.03" y2="85.83"/><g class="cls-2"><path d="M22.81,69.29c-.17.37-.39.79-.65,1.25s-.54.95-.84,1.44-.6,1-.9,1.43-.59.88-.85,1.25l-2.34-1.12c.27-.37.56-.77.87-1.22s.61-.9.9-1.36.55-.91.79-1.36.43-.83.58-1.18Zm4-1.85v4.12a4.05,4.05,0,0,1-.14,1.17,1.56,1.56,0,0,1-.45.73,2.28,2.28,0,0,1-.8.46c-.33.11-.74.23-1.22.34L23,74.55,22.19,72l.9-.22a2.46,2.46,0,0,0,.72-.27.63.63,0,0,0,.21-.55V67.81l-5.6.74L19,60.81c.62-.08,1.28-.18,2-.29s1.4-.22,2.11-.34l2.14-.39c.72-.13,1.4-.27,2.07-.41s1.28-.27,1.87-.41,1.1-.26,1.56-.39l.55,2.63-2.07.48c-.77.17-1.57.34-2.42.5s-1.71.33-2.59.49l-2.58.45-.18,2.55L24,65.34V63.13l2.78-.31V65l4.93-.65v2.47Zm2.71-.22q.27.28.66.78L31,69.08c.29.39.58.79.86,1.2s.53.81.76,1.18l-2.36,1.82c-.18-.35-.4-.74-.65-1.15s-.51-.83-.79-1.24-.54-.78-.81-1.14-.51-.66-.72-.91Z"/><path d="M48.34,62.4v2.21L33.7,66.54V64.32L37,63.89l.24-1-2.39.31V61.34L37.67,61l.21-.87-3.4.44V58.35l13.08-1.73v2.2l-6.85.9-.21.88,6-.79-.14,2.85Zm-13.2,4.66,11.75-1.55v5.63L35.14,72.69Zm2.59,3.09,6.44-.84V68l-6.44.85Zm2.08-6.63L43.69,63l.06-.95L40,62.55Z"/><path d="M55,65.05c-.18.37-.4.79-.66,1.25s-.54,1-.83,1.44-.6,1-.91,1.43-.58.88-.84,1.25l-2.35-1.13c.28-.36.57-.76.87-1.21s.61-.9.9-1.36.55-.91.79-1.36.43-.83.58-1.18Zm4-1.85v4.12a4.05,4.05,0,0,1-.14,1.17,1.63,1.63,0,0,1-.44.73,2.25,2.25,0,0,1-.81.45c-.33.12-.73.23-1.21.35l-1.17.29-.83-2.6.89-.21a2.35,2.35,0,0,0,.73-.28.62.62,0,0,0,.2-.54V63.57l-5.6.74.59-7.74c.62-.08,1.27-.18,2-.29s1.39-.22,2.1-.34,1.43-.25,2.14-.39,1.41-.27,2.07-.41,1.28-.27,1.87-.41,1.11-.26,1.56-.39L63.48,57l-2.07.48c-.76.17-1.57.34-2.42.5s-1.71.33-2.59.49l-2.58.45-.18,2.55,2.59-.34V58.88l2.78-.3v2.15l4.93-.65v2.47ZM61.73,63c.17.19.39.45.65.78s.54.69.83,1.08.58.79.86,1.2.54.81.77,1.18L62.48,69c-.19-.35-.41-.74-.65-1.16s-.52-.82-.79-1.23-.55-.78-.82-1.14-.5-.66-.72-.91Z"/></g><rect class="cls-1" x="0.5" y="0.5" width="81.07" height="128"/></g></g></g></svg>