<svg xmlns="http://www.w3.org/2000/svg" viewBox="0 0 128.5 36.1"><defs><style>.cls-1{fill:none;}.cls-1,.cls-3{stroke:#333;stroke-linejoin:round;}.cls-2{opacity:0.16;}.cls-3{fill:#333;}</style></defs><title>2-107</title><g id="图层_2" data-name="图层 2"><g id="_2-085_2-107" data-name="2-085——2-107"><g id="_2-107" data-name="2-107"><line class="cls-1" y1="18.05" x2="92.9" y2="18.05"/><g class="cls-2"><path d="M45.78,16.56c-.17.37-.39.79-.65,1.26s-.54.95-.84,1.44-.6,1-.9,1.43l-.85,1.25L40.2,20.81c.27-.36.56-.76.87-1.21s.61-.9.89-1.36.55-.92.79-1.36.44-.84.59-1.18Zm4-1.84v4.12A4.1,4.1,0,0,1,49.63,20a1.81,1.81,0,0,1-.45.73,2.25,2.25,0,0,1-.81.45c-.33.12-.73.23-1.21.35L46,21.82l-.83-2.59.9-.21a2.37,2.37,0,0,0,.72-.28.63.63,0,0,0,.2-.55v-3.1l-5.59.73L42,8.08c.62-.08,1.28-.17,2-.28l2.11-.34,2.14-.39,2.06-.41c.66-.14,1.29-.27,1.87-.41l1.57-.39.55,2.63L52.16,9l-2.41.51-2.6.49-2.58.45L44.4,13,47,12.61V10.4l2.78-.3v2.15l4.93-.65v2.47Zm2.72-.23c.17.2.39.46.65.79s.54.69.83,1.08.58.79.86,1.2.54.81.77,1.18l-2.36,1.82c-.18-.35-.4-.74-.65-1.16s-.51-.83-.79-1.23L51,17c-.27-.36-.51-.67-.73-.91Z"/><path d="M71.3,9.67v2.21L56.66,13.81V11.6l3.27-.43.25-1-2.39.32V8.62l2.84-.37.21-.88-3.4.45V5.62L70.52,3.9V6.1L63.67,7l-.21.87,6-.78L69.3,9.94ZM58.11,14.34l11.75-1.55v5.63L58.11,20Zm2.59,3.09,6.44-.85V15.3l-6.44.84Zm2.08-6.64,3.87-.51.07-.95L63,9.82Z"/><path d="M78,12.32c-.17.37-.39.79-.65,1.26s-.54.95-.84,1.44-.6,1-.9,1.42-.59.88-.85,1.25l-2.34-1.12c.27-.36.56-.76.87-1.21s.61-.9.9-1.36.55-.92.79-1.36.43-.84.58-1.18Zm4-1.84V14.6a4.1,4.1,0,0,1-.14,1.17,1.61,1.61,0,0,1-.45.73,2.27,2.27,0,0,1-.8.45c-.33.12-.74.23-1.22.35l-1.17.28L77.37,15l.9-.21A2.41,2.41,0,0,0,79,14.5.62.62,0,0,0,79.2,14v-3.1l-5.6.73.58-7.74c.62-.08,1.28-.17,2-.28l2.11-.34,2.14-.39,2.07-.41c.66-.14,1.28-.27,1.87-.41l1.56-.39.55,2.63-2.07.47L82,5.23l-2.59.49-2.58.45-.18,2.54,2.59-.34V6.16L82,5.86V8l4.93-.65V9.83Zm2.71-.23c.18.2.4.46.66.79l.83,1.08c.29.39.58.79.86,1.2s.53.81.76,1.18l-2.36,1.82c-.18-.36-.4-.74-.65-1.16s-.51-.83-.79-1.23-.54-.78-.81-1.14-.51-.67-.72-.91Z"/></g><circle class="cls-1" cx="110.45" cy="18.05" r="17.55"/><path class="cls-3" d="M110.45,18.05,98,30.46A17.56,17.56,0,0,1,98,5.64Z"/><path class="cls-3" d="M122.86,30.46,110.45,18.05,122.86,5.64A17.56,17.56,0,0,1,122.86,30.46Z"/></g></g></g></svg>