<svg xmlns="http://www.w3.org/2000/svg" viewBox="0 0 128.5 89.42"><defs><style>.cls-1{fill:#333;}.cls-2{fill:none;stroke:#333;stroke-linejoin:round;}.cls-3{opacity:0.16;}</style></defs><title>2-102</title><g id="图层_2" data-name="图层 2"><g id="_2-085_2-107" data-name="2-085——2-107"><g id="_2-102" data-name="2-102"><path class="cls-1" d="M93.33,87.77a10.27,10.27,0,0,1-3.82-3.2l1.19-.76a8.91,8.91,0,0,0,3.37,2.77,9.87,9.87,0,0,0,4.33,1,10.35,10.35,0,0,0,4-.72,6.44,6.44,0,0,0,2.76-2,4.75,4.75,0,0,0,1-2.95A4.82,4.82,0,0,0,105.3,79a6.55,6.55,0,0,0-2.49-2,27.37,27.37,0,0,0-4.62-1.65,28.59,28.59,0,0,1-4.34-1.59A7.76,7.76,0,0,1,91,71.57a5.7,5.7,0,0,1-1.1-3.6A6.48,6.48,0,0,1,91,64.26a7.22,7.22,0,0,1,3.1-2.52,11.14,11.14,0,0,1,4.62-.9,10.37,10.37,0,0,1,4.7,1,9.45,9.45,0,0,1,3.51,3l-1.11.83a9,9,0,0,0-3.17-2.58A9.62,9.62,0,0,0,95,62.93a6.52,6.52,0,0,0-2.63,2,4.65,4.65,0,0,0-1,2.9,4.6,4.6,0,0,0,1,3,6.92,6.92,0,0,0,2.52,1.89,26,26,0,0,0,3.93,1.35,25.61,25.61,0,0,1,5,1.87,7.65,7.65,0,0,1,2.81,2.38,5.8,5.8,0,0,1,.91,3.31A6.46,6.46,0,0,1,105.15,87a10.68,10.68,0,0,1-6.78,1.92A11.23,11.23,0,0,1,93.33,87.77Z"/><path class="cls-1" d="M113.88,75V87.05H128.5v1.37h-16V61.35H128v1.36H113.88V73.62H127.2V75Z"/><circle class="cls-2" cx="28.5" cy="44.71" r="14.74"/><line class="cls-2" x1="28.5" y1="29.97" x2="28.5" y2="59.45"/><rect class="cls-2" x="0.5" y="0.5" width="56" height="88.42"/><g class="cls-3"><path d="M46.28,49.5c-.17.37-.39.79-.65,1.26s-.54.94-.84,1.43-.6,1-.9,1.43-.59.88-.85,1.25L40.7,53.75c.27-.37.56-.77.87-1.22s.61-.9.89-1.36.55-.91.79-1.36.44-.83.59-1.18Zm4-1.85v4.12a4.1,4.1,0,0,1-.13,1.17,1.74,1.74,0,0,1-.45.73,2.42,2.42,0,0,1-.81.46c-.33.11-.73.23-1.21.34l-1.17.29-.83-2.59.9-.22a2.73,2.73,0,0,0,.72-.27.65.65,0,0,0,.2-.55V48l-5.59.74L42.47,41c.62-.08,1.28-.18,2-.29s1.4-.22,2.11-.34L48.69,40c.71-.13,1.4-.27,2.06-.41s1.29-.27,1.87-.4,1.11-.27,1.57-.4l.55,2.63-2.08.48c-.76.17-1.57.34-2.41.5l-2.6.49-2.58.45-.17,2.55,2.58-.34V43.34L50.26,43v2.15l4.93-.65V47ZM53,47.43c.17.19.39.45.65.78s.54.69.83,1.08.58.79.86,1.21.54.8.77,1.17l-2.36,1.82c-.18-.35-.4-.74-.65-1.15s-.51-.83-.79-1.23-.55-.79-.81-1.15-.51-.66-.73-.91Z"/><path d="M71.8,42.61v2.21L57.16,46.75V44.53l3.27-.43.25-1-2.39.31V41.56l2.84-.38.21-.87-3.4.44V38.56L71,36.84V39l-6.85.9-.21.88L70,40l-.15,2.85ZM58.61,47.27l11.75-1.54v5.62L58.61,52.9Zm2.59,3.09,6.44-.84V48.23l-6.44.85Zm2.08-6.63,3.87-.51.07-.95-3.71.49Z"/><path d="M78.49,45.26c-.17.37-.39.79-.65,1.25s-.54,1-.84,1.44-.6,1-.9,1.43-.59.88-.85,1.25l-2.34-1.12c.27-.37.56-.77.87-1.22s.61-.9.9-1.36.55-.91.79-1.36.43-.83.58-1.18Zm4-1.85v4.12a4.05,4.05,0,0,1-.14,1.17,1.56,1.56,0,0,1-.45.73,2.28,2.28,0,0,1-.8.46c-.33.11-.74.22-1.22.34l-1.17.29-.83-2.59.9-.22a2.46,2.46,0,0,0,.72-.27.63.63,0,0,0,.21-.55V43.78l-5.6.74.58-7.74c.62-.08,1.28-.18,2-.29s1.4-.22,2.11-.34l2.14-.39c.72-.13,1.4-.27,2.07-.41s1.28-.27,1.87-.41,1.1-.26,1.56-.39L87,37.18l-2.07.48c-.77.17-1.57.34-2.42.5s-1.71.33-2.59.49l-2.58.45-.18,2.55,2.59-.34V39.1l2.78-.31v2.15l4.93-.65v2.47Zm2.71-.22q.27.29.66.78l.83,1.08c.29.39.58.79.86,1.2s.53.81.76,1.18l-2.36,1.82c-.18-.35-.4-.74-.65-1.15s-.51-.83-.79-1.24-.54-.78-.81-1.14-.51-.66-.72-.91Z"/></g></g></g></g></svg>