<svg xmlns="http://www.w3.org/2000/svg" viewBox="0 0 128.63 35"><defs><style>.cls-1{fill:none;}.cls-1,.cls-2{stroke:#333;stroke-linejoin:round;}.cls-2{fill:#333;}.cls-3{opacity:0.16;}</style></defs><title>2-104</title><g id="图层_2" data-name="图层 2"><g id="_2-085_2-107" data-name="2-085——2-107"><g id="_2-104" data-name="2-104"><line class="cls-1" y1="17.5" x2="42" y2="17.5"/><rect class="cls-1" x="42.13" y="0.5" width="86" height="34"/><polygon class="cls-2" points="128.13 34.5 42.13 34.5 42.13 0.5 128.13 34.5"/><g class="cls-3"><path d="M45.78,22.29c-.17.37-.39.79-.65,1.25s-.54.95-.84,1.44-.6,1-.9,1.43-.59.88-.85,1.25L40.2,26.54c.27-.37.56-.77.87-1.22s.61-.9.89-1.36.55-.91.79-1.36.44-.83.59-1.18Zm4-1.85v4.12a4.1,4.1,0,0,1-.13,1.17,1.74,1.74,0,0,1-.45.73,2.42,2.42,0,0,1-.81.46c-.33.11-.73.23-1.21.34L46,27.55,45.16,25l.9-.22a2.73,2.73,0,0,0,.72-.27.65.65,0,0,0,.2-.55V20.81l-5.59.74L42,13.81c.62-.08,1.28-.18,2-.29s1.4-.22,2.11-.34l2.14-.39c.71-.13,1.4-.27,2.06-.41s1.29-.27,1.87-.41,1.11-.26,1.57-.39l.55,2.63-2.08.48c-.76.17-1.57.34-2.41.5l-2.6.49-2.58.45-.17,2.55L47,18.34V16.13l2.78-.31V18l4.93-.65v2.47Zm2.72-.22c.17.19.39.45.65.78s.54.69.83,1.08.58.79.86,1.2.54.81.77,1.18l-2.36,1.82c-.18-.35-.4-.74-.65-1.15s-.51-.83-.79-1.24L51,22.75c-.27-.36-.51-.66-.73-.91Z"/><path d="M71.3,15.4v2.21L56.66,19.54V17.32l3.27-.43.25-1-2.39.31V14.34L60.63,14l.21-.87-3.4.44V11.35L70.52,9.62v2.2l-6.85.9-.21.88,6-.79-.15,2.85ZM58.11,20.06l11.75-1.55v5.63L58.11,25.69Zm2.59,3.09,6.44-.84V21l-6.44.85Zm2.08-6.63L66.65,16l.07-1L63,15.55Z"/><path d="M78,18.05c-.17.37-.39.79-.65,1.25s-.54.95-.84,1.44-.6,1-.9,1.43-.59.88-.85,1.25l-2.34-1.13c.27-.36.56-.76.87-1.21s.61-.9.9-1.36.55-.91.79-1.36.43-.83.58-1.18Zm4-1.85v4.12a4.05,4.05,0,0,1-.14,1.17,1.56,1.56,0,0,1-.45.73,2.12,2.12,0,0,1-.8.45c-.33.12-.74.23-1.22.35l-1.17.29-.83-2.6.9-.21a2.17,2.17,0,0,0,.72-.28.6.6,0,0,0,.21-.54V16.57l-5.6.74.58-7.74c.62-.08,1.28-.18,2-.29s1.4-.22,2.11-.34l2.14-.39c.72-.13,1.4-.27,2.07-.41s1.28-.27,1.87-.41,1.1-.26,1.56-.39L86.45,10l-2.07.48c-.77.17-1.57.34-2.42.5s-1.71.33-2.59.49l-2.58.45-.18,2.55,2.59-.34V11.88l2.78-.3v2.15l4.93-.65v2.47ZM84.69,16q.27.29.66.78l.83,1.08c.29.39.58.79.86,1.2s.53.81.76,1.18L85.44,22c-.18-.35-.4-.74-.65-1.16s-.51-.82-.79-1.23-.54-.78-.81-1.14-.51-.66-.72-.91Z"/></g></g></g></g></svg>