<svg xmlns="http://www.w3.org/2000/svg" viewBox="0 0 65.77 128.6"><defs><style>.cls-1{fill:none;stroke:#333;stroke-linejoin:round;}.cls-2{opacity:0.16;}</style></defs><title>2-109</title><g id="图层_2" data-name="图层 2"><g id="_2-108_2-121" data-name="2-108——2-121"><g id="_2-109" data-name="2-109"><rect class="cls-1" x="14.35" y="50.31" width="13.63" height="27.98"/><line class="cls-1" y1="64.29" x2="63.85" y2="64.29"/><path class="cls-1" d="M65.38,128.29c-12.92-16.63-20.9-39.62-20.9-65,0-24.37,7.36-46.53,19.36-63"/><g class="cls-2"><path d="M14.47,69.08c-.18.37-.39.79-.65,1.26s-.54,1-.84,1.44-.6,1-.9,1.42-.59.88-.85,1.25L8.89,73.33c.27-.36.56-.76.87-1.21s.6-.9.89-1.36.55-.92.79-1.36.43-.84.59-1.18Zm4-1.84v4.11a3.84,3.84,0,0,1-.14,1.18,1.69,1.69,0,0,1-.44.73,2.41,2.41,0,0,1-.81.45c-.33.11-.73.23-1.21.35l-1.17.28-.83-2.59.89-.22a2.39,2.39,0,0,0,.73-.27.64.64,0,0,0,.2-.55V67.6l-5.6.74.59-7.74c.62-.08,1.27-.17,2-.28L14.74,60l2.13-.39,2.07-.41c.66-.14,1.29-.27,1.87-.41l1.56-.39L22.93,61l-2.08.47L18.44,62l-2.6.48-2.58.46-.18,2.54,2.59-.34V62.92l2.78-.3v2.15l4.93-.65v2.47ZM21.17,67c.17.2.39.46.65.79l.83,1.07c.29.39.58.8.86,1.21s.54.8.77,1.18l-2.36,1.82c-.19-.36-.4-.74-.65-1.16s-.52-.83-.79-1.23l-.81-1.15c-.27-.36-.51-.66-.73-.9Z"/><path d="M40,62.19V64.4L25.35,66.33V64.12l3.27-.43.25-1-2.4.32V61.14l2.85-.38.21-.87-3.4.45v-2.2l13.08-1.72v2.2l-6.85.9-.21.87,6-.79L38,62.45ZM26.8,66.86l11.75-1.55v5.63L26.8,72.49ZM29.39,70l6.44-.85V67.81l-6.44.85Zm2.08-6.64,3.87-.51.07-.95-3.71.49Z"/><path d="M46.68,64.84c-.17.37-.39.79-.65,1.26s-.54.94-.84,1.43-.6,1-.9,1.43-.59.88-.85,1.25L41.1,69.09c.27-.36.56-.77.87-1.21s.61-.9.9-1.36.55-.92.78-1.36.44-.84.59-1.19Zm4-1.84v4.11a4.18,4.18,0,0,1-.14,1.18,1.58,1.58,0,0,1-.45.72,2.37,2.37,0,0,1-.8.46c-.34.11-.74.23-1.22.35l-1.17.28-.83-2.59.9-.22a2.73,2.73,0,0,0,.72-.27.61.61,0,0,0,.2-.55V63.36l-5.59.74.58-7.74c.62-.08,1.28-.17,2-.28s1.4-.22,2.11-.35,1.42-.24,2.14-.38l2.06-.41c.67-.14,1.29-.27,1.87-.41l1.57-.39.55,2.62-2.07.48c-.77.17-1.57.34-2.42.5l-2.6.49-2.57.46-.18,2.54,2.58-.34V58.68l2.79-.3v2.15l4.93-.65v2.47Zm2.71-.23c.18.2.39.46.65.79s.54.68.83,1.07.58.8.87,1.21.53.8.76,1.17l-2.36,1.83c-.18-.36-.4-.74-.65-1.16s-.51-.83-.79-1.23-.55-.79-.81-1.15-.51-.66-.73-.9Z"/></g></g></g></g></svg>