<svg xmlns="http://www.w3.org/2000/svg" viewBox="0 0 128 48.64"><defs><style>.cls-1{fill:none;}.cls-1,.cls-2{stroke:#333;stroke-linejoin:round;}.cls-2{fill:#333;}.cls-3{opacity:0.16;}</style></defs><title>2-103</title><g id="图层_2" data-name="图层 2"><g id="_2-085_2-107" data-name="2-085——2-107"><g id="_2-103" data-name="2-103"><line class="cls-1" y1="30.59" x2="46.19" y2="30.59"/><line class="cls-1" x1="81.29" y1="30.59" x2="128" y2="30.59"/><circle class="cls-1" cx="63.74" cy="30.59" r="17.55"/><path class="cls-2" d="M51.33,43A17.55,17.55,0,0,0,76.15,18.18Z"/><g class="cls-3"><path d="M45.78,29.11c-.17.37-.39.79-.65,1.25s-.54.95-.84,1.44-.6,1-.9,1.43-.59.88-.85,1.25L40.2,33.36c.27-.37.56-.77.87-1.22s.61-.9.89-1.36.55-.91.79-1.36.44-.83.59-1.18Zm4-1.85v4.12a4.1,4.1,0,0,1-.13,1.17,1.74,1.74,0,0,1-.45.73,2.42,2.42,0,0,1-.81.46c-.33.11-.73.23-1.21.34L46,34.37l-.83-2.59.9-.22a2.73,2.73,0,0,0,.72-.27.65.65,0,0,0,.2-.55V27.63l-5.59.74L42,20.63c.62-.08,1.28-.18,2-.29s1.4-.22,2.11-.34l2.14-.39c.71-.13,1.4-.27,2.06-.41s1.29-.27,1.87-.41,1.11-.26,1.57-.39L54.24,21l-2.08.48c-.76.17-1.57.34-2.41.5l-2.6.49L44.57,23,44.4,25.5,47,25.16V23l2.78-.31v2.15l4.93-.65v2.47ZM52.48,27c.17.19.39.45.65.78s.54.69.83,1.08.58.79.86,1.21.54.8.77,1.17L53.23,33.1c-.18-.35-.4-.74-.65-1.15s-.51-.83-.79-1.24L51,29.57c-.27-.36-.51-.66-.73-.91Z"/><path d="M71.3,22.22v2.21L56.66,26.36V24.14l3.27-.43.25-1-2.39.31V21.16l2.84-.37.21-.87-3.4.44V18.17l13.08-1.72v2.19l-6.85.9-.21.88,6-.79-.15,2.85ZM58.11,26.88l11.75-1.55V31L58.11,32.51ZM60.7,30l6.44-.84V27.84l-6.44.85Zm2.08-6.63,3.87-.51.07-.95L63,22.37Z"/><path d="M78,24.87c-.17.37-.39.79-.65,1.25s-.54.95-.84,1.44-.6,1-.9,1.43-.59.88-.85,1.25l-2.34-1.13c.27-.36.56-.76.87-1.21s.61-.9.9-1.36.55-.91.79-1.36.43-.83.58-1.18ZM82,23v4.12a4.05,4.05,0,0,1-.14,1.17,1.56,1.56,0,0,1-.45.73,2.28,2.28,0,0,1-.8.46c-.33.11-.74.22-1.22.34l-1.17.29-.83-2.6.9-.21a2.46,2.46,0,0,0,.72-.27.63.63,0,0,0,.21-.55V23.39l-5.6.74.58-7.74c.62-.08,1.28-.18,2-.29s1.4-.22,2.11-.34l2.14-.39c.72-.13,1.4-.27,2.07-.41s1.28-.27,1.87-.41,1.1-.26,1.56-.39l.55,2.63-2.07.48c-.77.17-1.57.34-2.42.5s-1.71.33-2.59.49l-2.58.45-.18,2.55,2.59-.34V18.7L82,18.4v2.15l4.93-.65v2.47Zm2.71-.22q.27.28.66.78l.83,1.08c.29.39.58.79.86,1.2s.53.81.76,1.18l-2.36,1.82c-.18-.35-.4-.74-.65-1.16s-.51-.82-.79-1.23-.54-.78-.81-1.14-.51-.66-.72-.91Z"/></g><line class="cls-1" x1="63.74" y1="12.89" x2="63.74" y2="0.5"/><line class="cls-1" x1="55.74" y1="0.5" x2="71.74" y2="0.5"/></g></g></g></svg>