<svg xmlns="http://www.w3.org/2000/svg" viewBox="0 0 128 30.87"><defs><style>.cls-1{fill:none;}.cls-1,.cls-2{stroke:#333;stroke-linejoin:round;}.cls-2{fill:#333;}.cls-3{opacity:0.16;}</style></defs><title>2-115</title><g id="图层_2" data-name="图层 2"><g id="_2-108_2-121" data-name="2-108——2-121"><g id="_2-115" data-name="2-115"><polygon class="cls-1" points="46.92 19.29 63.38 11.06 81.08 19.29 63.79 27.94 46.92 19.29"/><polygon class="cls-2" points="85.98 0.5 76.87 14.4 72.03 9.56 85.98 0.5"/><line class="cls-1" x1="54.62" y1="30.5" x2="74.88" y2="12.41"/><line class="cls-1" x1="128" y1="19.29" x2="81.08" y2="19.29"/><g class="cls-3"><path d="M45.78,20.29c-.17.37-.39.79-.65,1.25s-.54.95-.84,1.44-.6,1-.9,1.43-.59.88-.85,1.25L40.2,24.54c.27-.37.56-.77.87-1.22s.61-.9.9-1.36.55-.91.78-1.36.44-.83.59-1.18Zm4-1.85v4.12a4.05,4.05,0,0,1-.14,1.17,1.56,1.56,0,0,1-.45.73,2.37,2.37,0,0,1-.8.46c-.34.11-.74.23-1.22.34L46,25.55,45.16,23l.9-.22a2.73,2.73,0,0,0,.72-.27.63.63,0,0,0,.2-.55V18.81l-5.59.74L42,11.81c.62-.08,1.28-.18,2-.29s1.4-.22,2.11-.34l2.14-.39c.71-.13,1.4-.27,2.06-.41s1.29-.27,1.87-.41,1.11-.26,1.57-.39l.55,2.63-2.07.48c-.77.17-1.57.34-2.42.5l-2.6.49-2.57.45-.18,2.55L47,16.34V14.13l2.79-.31V16l4.93-.65v2.47Zm2.71-.22c.18.19.39.45.65.78s.54.69.83,1.08.58.79.87,1.2.53.81.76,1.18l-2.36,1.82c-.18-.35-.4-.74-.65-1.15s-.51-.83-.79-1.24-.55-.78-.81-1.14-.51-.66-.73-.91Z"/><path d="M71.31,13.4v2.21L56.66,17.54V15.32l3.27-.43.25-1-2.39.31V12.34L60.63,12l.22-.87-3.4.44V9.35L70.53,7.62v2.2l-6.85.9-.22.88,6-.79-.14,2.85Zm-13.2,4.66,11.75-1.55v5.63L58.11,23.69Zm2.59,3.09,6.44-.84V19l-6.44.85Zm2.08-6.63L66.65,14l.07-.95L63,13.55Z"/><path d="M78,16.05c-.17.37-.39.79-.65,1.25s-.54.95-.84,1.44-.59,1-.9,1.43-.58.88-.84,1.25l-2.35-1.13c.27-.36.56-.76.87-1.21s.61-.9.9-1.36.55-.91.79-1.36.43-.83.58-1.18Zm4-1.85v4.12a4.05,4.05,0,0,1-.14,1.17,1.56,1.56,0,0,1-.45.73,2.12,2.12,0,0,1-.8.45c-.33.12-.74.23-1.21.35l-1.18.29-.83-2.6.9-.21a2.17,2.17,0,0,0,.72-.28.6.6,0,0,0,.21-.54V14.57l-5.6.74.59-7.74c.61-.08,1.27-.18,2-.29s1.4-.22,2.11-.34,1.43-.25,2.14-.39,1.41-.27,2.07-.41,1.28-.27,1.87-.41,1.1-.26,1.56-.39L86.45,8l-2.07.48c-.77.17-1.57.34-2.42.5s-1.71.33-2.59.49l-2.58.45-.18,2.55,2.59-.34V9.88L82,9.58v2.15l4.93-.65v2.47ZM84.7,14c.17.19.39.45.65.78l.83,1.08c.29.39.58.79.86,1.2s.54.81.76,1.18L85.44,20c-.18-.35-.4-.74-.65-1.16s-.51-.82-.79-1.23-.54-.78-.81-1.14-.51-.66-.72-.91Z"/></g><line class="cls-1" x1="46.92" y1="19.29" y2="19.29"/></g></g></g></svg>