<svg xmlns="http://www.w3.org/2000/svg" viewBox="0 0 128 20.32"><defs><style>.cls-1{fill:none;stroke:#333;stroke-linejoin:round;}.cls-2{opacity:0.16;}</style></defs><title>2-114</title><g id="图层_2" data-name="图层 2"><g id="_2-108_2-121" data-name="2-108——2-121"><g id="_2-114" data-name="2-114"><polygon class="cls-1" points="46.92 9.95 63.38 1.72 81.08 9.95 63.79 18.6 46.92 9.95"/><line class="cls-1" x1="128" y1="9.95" x2="81.08" y2="9.95"/><g class="cls-2"><path d="M45.78,15c-.17.37-.39.78-.65,1.25s-.54.95-.84,1.44-.6,1-.9,1.43-.59.88-.85,1.25L40.2,19.19c.27-.36.56-.76.87-1.21s.61-.9.9-1.36.55-.91.78-1.36.44-.83.59-1.18Zm4-1.85v4.12a4.05,4.05,0,0,1-.14,1.17,1.56,1.56,0,0,1-.45.73,2.2,2.2,0,0,1-.8.45c-.34.12-.74.23-1.22.35L46,20.2l-.83-2.59.9-.21a2.37,2.37,0,0,0,.72-.28c.14-.09.2-.27.2-.54V13.47l-5.59.74L42,6.47l2-.29,2.11-.34,2.14-.39c.71-.13,1.4-.27,2.06-.41s1.29-.27,1.87-.41,1.11-.26,1.57-.39l.55,2.63-2.07.47c-.77.18-1.57.35-2.42.51l-2.6.49-2.57.45-.18,2.55L47,11V8.78l2.79-.3v2.15L54.7,10v2.47Zm2.71-.22c.18.19.39.45.65.78s.54.69.83,1.08.58.79.87,1.2.53.81.76,1.18l-2.36,1.82c-.18-.35-.4-.74-.65-1.16s-.51-.82-.79-1.23-.55-.78-.81-1.14-.51-.66-.73-.91Z"/><path d="M71.31,8.05v2.22L56.66,12.19V10l3.27-.43.25-1-2.39.31V7l2.84-.37.22-.88-3.4.45V4L70.53,2.28v2.2l-6.85.9-.22.88,6-.79-.14,2.85Zm-13.2,4.67,11.75-1.55V16.8L58.11,18.35Zm2.59,3.09L67.14,15V13.68l-6.44.85Zm2.08-6.63,3.87-.51.07-1L63,8.2Z"/><path d="M78,10.7c-.17.37-.39.79-.65,1.26s-.54.95-.84,1.44-.59,1-.9,1.43-.58.88-.84,1.25L72.41,15c.27-.36.56-.76.87-1.21s.61-.9.9-1.36.55-.91.79-1.36.43-.84.58-1.18Zm4-1.84V13a4.05,4.05,0,0,1-.14,1.17,1.56,1.56,0,0,1-.45.73,2.12,2.12,0,0,1-.8.45c-.33.12-.74.23-1.21.35L78.2,16l-.83-2.59.9-.21a2.17,2.17,0,0,0,.72-.28.6.6,0,0,0,.21-.54V9.23L73.6,10l.59-7.73,2-.29,2.11-.34c.71-.12,1.43-.25,2.14-.39L82.47.8c.66-.13,1.28-.27,1.87-.41S85.44.12,85.9,0l.55,2.63-2.07.47c-.77.18-1.57.34-2.42.51s-1.71.33-2.59.49l-2.58.45L76.61,7.1l2.59-.34V4.54L82,4.24V6.39l4.93-.65V8.21Zm2.72-.23c.17.2.39.46.65.79l.83,1.08c.29.39.58.79.86,1.2s.54.81.76,1.18L85.44,14.7c-.18-.35-.4-.74-.65-1.16s-.51-.82-.79-1.23-.54-.78-.81-1.14-.51-.67-.72-.91Z"/></g><line class="cls-1" x1="46.92" y1="9.95" y2="9.95"/></g></g></g></svg>