<svg xmlns="http://www.w3.org/2000/svg" viewBox="0 0 128 109.85"><defs><style>.cls-1{fill:#333;}.cls-2{opacity:0.16;}.cls-3{fill:none;stroke:#333;stroke-linejoin:round;}</style></defs><title>2-117</title><g id="图层_2" data-name="图层 2"><g id="_2-108_2-121" data-name="2-108——2-121"><g id="_2-117" data-name="2-117"><path class="cls-1" d="M82.24,83.49H80.77l-6.4-17.66H53.63l-6.4,17.66H45.76l17.47-48h1.54ZM63.94,37.6l-9.8,26.88H73.86L64.06,37.6Z"/><g class="cls-2"><path d="M45.78,59.64c-.17.37-.39.79-.65,1.26s-.54.94-.84,1.43-.6,1-.9,1.43-.59.88-.85,1.25L40.2,63.89c.27-.36.56-.77.87-1.21s.61-.9.89-1.37.55-.91.79-1.35.44-.84.59-1.19Zm4-1.84v4.11a4.23,4.23,0,0,1-.13,1.18,1.77,1.77,0,0,1-.45.72,2.42,2.42,0,0,1-.81.46c-.33.11-.73.23-1.21.35L46,64.9l-.83-2.59.9-.22a2.73,2.73,0,0,0,.72-.27.65.65,0,0,0,.2-.55V58.16l-5.59.74L42,51.16c.62-.08,1.28-.17,2-.28s1.4-.22,2.11-.35l2.14-.38,2.06-.41,1.87-.41,1.57-.39.55,2.62L52.16,52c-.76.17-1.57.34-2.41.5l-2.6.49-2.58.46L44.4,56,47,55.69V53.48l2.78-.3v2.15l4.93-.65v2.47Zm2.72-.23c.17.19.39.46.65.78s.54.69.83,1.08.58.8.86,1.21.54.8.77,1.17l-2.36,1.83c-.18-.36-.4-.74-.65-1.16s-.51-.83-.79-1.23L51,60.1c-.27-.36-.51-.66-.73-.9Z"/><path d="M71.3,52.75V55L56.66,56.89V54.68l3.27-.43.25-1-2.39.32V51.7l2.84-.38.21-.87-3.4.45V48.7L70.52,47v2.2l-6.85.9-.21.87,6-.79L69.3,53ZM58.11,57.41l11.75-1.54V61.5L58.11,63Zm2.59,3.1,6.44-.85V58.37l-6.44.85Zm2.08-6.64,3.87-.51.07-1L63,52.9Z"/><path d="M78,55.4c-.17.37-.39.79-.65,1.26s-.54.94-.84,1.43-.6,1-.9,1.43-.59.88-.85,1.25l-2.34-1.12c.27-.36.56-.77.87-1.21s.61-.91.9-1.37.55-.91.79-1.35.43-.84.58-1.19Zm4-1.84v4.11a4.18,4.18,0,0,1-.14,1.18,1.58,1.58,0,0,1-.45.72,2.28,2.28,0,0,1-.8.46c-.33.11-.74.23-1.22.34l-1.17.29-.83-2.59.9-.22a2.46,2.46,0,0,0,.72-.27A.63.63,0,0,0,79.2,57V53.92l-5.6.74.58-7.74,2-.28c.7-.11,1.4-.22,2.11-.35l2.14-.38,2.07-.41,1.87-.41c.58-.14,1.1-.27,1.56-.4l.55,2.63-2.07.48c-.77.17-1.57.34-2.42.5s-1.71.33-2.59.49l-2.58.46-.18,2.54,2.59-.34V49.24l2.78-.3v2.14l4.93-.64v2.47Zm2.71-.23c.18.19.4.46.66.78l.83,1.08c.29.39.58.79.86,1.21s.53.8.76,1.17L85.44,59.4c-.18-.36-.4-.74-.65-1.16S84.28,57.41,84,57s-.54-.79-.81-1.15-.51-.66-.72-.9Z"/></g><rect class="cls-3" x="19" y="19.35" width="90" height="90"/><line class="cls-3" x1="109" y1="64.35" x2="128" y2="64.35"/><line class="cls-3" y1="64.35" x2="19" y2="64.35"/><line class="cls-3" x1="9.37" y1="52.55" x2="61.57" y2="0.35"/></g></g></g></svg>