<svg xmlns="http://www.w3.org/2000/svg" viewBox="0 0 129 107.67"><defs><style>.cls-1{fill:none;}.cls-1,.cls-2{stroke:#333;stroke-linejoin:round;}.cls-2{fill:#333;}.cls-3{opacity:0.16;}</style></defs><title>2-123</title><g id="图层_2" data-name="图层 2"><g id="_2-122_2-134" data-name="2-122——2-134"><g id="_2-123" data-name="2-123"><rect class="cls-1" x="0.5" y="0.5" width="128" height="106.67"/><path class="cls-1" d="M107.32,87.09,67.71,91.61a36,36,0,0,1-8.62,0L23.24,87.09,17,64.44a47.9,47.9,0,0,1,.56-27.33l5.69-17.79,33.68-5.26a43.71,43.71,0,0,1,13-.08l37.43,5.34,5.33,24a45.56,45.56,0,0,1,0,19.79Z"/><circle class="cls-2" cx="64.5" cy="38.15" r="10.67"/><g class="cls-3"><path d="M46.28,58.62c-.17.37-.39.79-.65,1.26s-.54.94-.84,1.43-.6,1-.9,1.43S43.3,63.62,43,64L40.7,62.87c.27-.36.56-.77.87-1.21s.61-.91.89-1.37.55-.91.79-1.35.44-.84.59-1.19Zm4-1.84v4.11a4.23,4.23,0,0,1-.13,1.18,1.77,1.77,0,0,1-.45.72,2.42,2.42,0,0,1-.81.46c-.33.11-.73.23-1.21.35l-1.17.28-.83-2.59.9-.22a2.73,2.73,0,0,0,.72-.27.65.65,0,0,0,.2-.55V57.14l-5.59.74.58-7.74c.62-.08,1.28-.17,2-.28s1.4-.22,2.11-.35l2.14-.38,2.06-.41,1.87-.41,1.57-.39.55,2.62L52.66,51c-.76.17-1.57.34-2.41.5l-2.6.49-2.58.46L44.9,55l2.58-.34V52.46l2.78-.3v2.15l4.93-.65v2.47ZM53,56.55c.17.19.39.46.65.78s.54.69.83,1.08.58.8.86,1.21.54.8.77,1.17l-2.36,1.83c-.18-.36-.4-.74-.65-1.16s-.51-.83-.79-1.23l-.81-1.15c-.27-.36-.51-.66-.73-.9Z"/><path d="M71.8,51.73v2.21L57.16,55.87V53.66l3.27-.43.25-1-2.39.32V50.68l2.84-.38.21-.87-3.4.45v-2.2L71,46v2.19l-6.85.91-.21.87,6-.79L69.8,52ZM58.61,56.39l11.75-1.54v5.63L58.61,62Zm2.59,3.1,6.44-.85V57.35l-6.44.85Zm2.08-6.64,3.87-.51.07-1-3.71.49Z"/><path d="M78.49,54.38c-.17.37-.39.79-.65,1.26s-.54.94-.84,1.43-.6,1-.9,1.43-.59.88-.85,1.25l-2.34-1.12c.27-.36.56-.77.87-1.21s.61-.91.9-1.37.55-.91.79-1.35.43-.84.58-1.19Zm4-1.84v4.11a4.18,4.18,0,0,1-.14,1.18,1.58,1.58,0,0,1-.45.72,2.28,2.28,0,0,1-.8.46c-.33.11-.74.23-1.22.34l-1.17.29-.83-2.59.9-.22a2.46,2.46,0,0,0,.72-.27A.63.63,0,0,0,79.7,56V52.9l-5.6.74.58-7.74,2-.28,2.11-.35,2.14-.38L83,44.48l1.87-.41c.58-.14,1.1-.27,1.56-.4L87,46.3l-2.07.48c-.77.17-1.57.34-2.42.5s-1.71.33-2.59.49l-2.58.46-.18,2.54,2.59-.34V48.22l2.78-.3v2.14l4.93-.64v2.47Zm2.71-.23c.18.19.4.46.66.78l.83,1.08c.29.39.58.79.86,1.21s.53.8.76,1.17l-2.36,1.83c-.18-.36-.4-.74-.65-1.16s-.51-.83-.79-1.23-.54-.79-.81-1.15-.51-.66-.72-.9Z"/></g><circle class="cls-2" cx="46.5" cy="67.01" r="10.67"/><circle class="cls-2" cx="82.5" cy="67.01" r="10.67"/></g></g></g></svg>