<svg xmlns="http://www.w3.org/2000/svg" viewBox="0 0 128 53.13"><defs><style>.cls-1{fill:none;stroke:#333;stroke-linejoin:round;}.cls-2{opacity:0.16;}.cls-3{fill:#333;}</style></defs><title>2-132</title><g id="图层_2" data-name="图层 2"><g id="_2-122_2-134" data-name="2-122——2-134"><g id="_2-132" data-name="2-132"><circle class="cls-1" cx="74" cy="16.5" r="16"/><g class="cls-2"><path d="M45.78,31.6c-.17.37-.39.79-.65,1.26s-.54.94-.84,1.43-.6,1-.9,1.43-.59.88-.85,1.25L40.2,35.85c.27-.36.56-.77.87-1.21s.61-.9.89-1.36.55-.92.79-1.36.44-.84.59-1.19Zm4-1.84v4.11a4.23,4.23,0,0,1-.13,1.18,1.77,1.77,0,0,1-.45.72,2.42,2.42,0,0,1-.81.46c-.33.11-.73.23-1.21.35L46,36.86l-.83-2.59.9-.22a2.73,2.73,0,0,0,.72-.27.64.64,0,0,0,.2-.55V30.12l-5.59.74L42,23.12c.62-.08,1.28-.17,2-.28l2.11-.34,2.14-.39,2.06-.41c.66-.14,1.29-.27,1.87-.41l1.57-.39.55,2.62L52.16,24c-.76.17-1.57.34-2.41.5l-2.6.49-2.58.46L44.4,28,47,27.65V25.44l2.78-.3v2.15l4.93-.65v2.47Zm2.72-.23c.17.2.39.46.65.79s.54.68.83,1.07.58.8.86,1.21.54.8.77,1.17L53.23,35.6c-.18-.36-.4-.74-.65-1.16s-.51-.83-.79-1.23L51,32.06c-.27-.36-.51-.66-.73-.9Z"/><path d="M71.3,24.71v2.21L56.66,28.85V26.64l3.27-.43.25-1-2.39.32V23.66l2.84-.38.21-.87-3.4.45v-2.2l13.08-1.72v2.2l-6.85.9-.21.87,6-.79L69.3,25ZM58.11,29.38l11.75-1.55v5.63L58.11,35Zm2.59,3.09,6.44-.85V30.33l-6.44.85Zm2.08-6.64,3.87-.51.07-.95L63,24.86Z"/><path d="M78,27.36c-.17.37-.39.79-.65,1.26s-.54.94-.84,1.43-.6,1-.9,1.43-.59.88-.85,1.25l-2.34-1.12c.27-.36.56-.77.87-1.21s.61-.91.9-1.37.55-.91.79-1.35.43-.84.58-1.19Zm4-1.84v4.11a4.18,4.18,0,0,1-.14,1.18,1.58,1.58,0,0,1-.45.72,2.28,2.28,0,0,1-.8.46c-.33.11-.74.23-1.22.35l-1.17.28L77.37,30l.9-.22a2.46,2.46,0,0,0,.72-.27A.63.63,0,0,0,79.2,29V25.88l-5.6.74.58-7.74c.62-.08,1.28-.17,2-.28s1.4-.22,2.11-.35l2.14-.38,2.07-.41,1.87-.41,1.56-.39.55,2.62-2.07.48c-.77.17-1.57.34-2.42.5s-1.71.33-2.59.49l-2.58.46-.18,2.54,2.59-.34V21.2L82,20.9V23l4.93-.64v2.47Zm2.71-.23c.18.19.4.46.66.78l.83,1.08c.29.39.58.79.86,1.21s.53.8.76,1.17l-2.36,1.83c-.18-.36-.4-.74-.65-1.16S84.28,29.37,84,29s-.54-.79-.81-1.15-.51-.66-.72-.9Z"/></g><line class="cls-1" y1="16.5" x2="58" y2="16.5"/><path class="cls-3" d="M103.5,53.13h-1.12v-20h-7V32.07H110.5v1.07h-7Z"/><path class="cls-3" d="M119.15,53.13l-7.64-21.06h1.17l7,19.41h.09l7-19.41H128l-7.64,21.06Z"/></g></g></g></svg>