<svg xmlns="http://www.w3.org/2000/svg" viewBox="0 0 128.35 76.71"><defs><style>.cls-1{fill:none;stroke:#333;stroke-linejoin:round;}.cls-2{opacity:0.16;}</style></defs><title>2-130</title><g id="图层_2" data-name="图层 2"><g id="_2-122_2-134" data-name="2-122——2-134"><g id="_2-130" data-name="2-130"><path class="cls-1" d="M48.35,73.35c-19.88,0-36-15.67-36-35s16.12-35,36-35Z"/><line class="cls-1" x1="128.35" y1="38.35" x2="48.9" y2="38.35"/><g class="cls-2"><path d="M46.13,43.14c-.17.37-.39.79-.65,1.26s-.54.94-.84,1.43-.6,1-.9,1.43-.59.88-.85,1.25l-2.34-1.12c.27-.36.56-.77.87-1.21s.61-.9.9-1.36.55-.92.79-1.36.43-.84.58-1.19Zm4-1.84v4.11A4.18,4.18,0,0,1,50,46.59a1.58,1.58,0,0,1-.45.72,2.28,2.28,0,0,1-.8.46c-.33.11-.74.23-1.21.35l-1.18.28-.83-2.59.9-.22a2.46,2.46,0,0,0,.72-.27.62.62,0,0,0,.21-.55V41.66l-5.6.74.59-7.74c.61-.08,1.27-.17,2-.28L46.4,34l2.14-.39,2.07-.41c.66-.14,1.28-.27,1.87-.41L54,32.44l.55,2.62-2.07.48c-.77.17-1.57.34-2.42.5s-1.71.33-2.59.49L44.93,37l-.18,2.54,2.59-.34V37l2.78-.3v2.15l4.93-.65v2.47Zm2.72-.23c.17.2.39.46.65.79l.83,1.07c.29.39.58.8.86,1.21s.53.8.76,1.17l-2.36,1.83c-.18-.36-.4-.74-.65-1.16s-.51-.83-.79-1.23-.54-.79-.81-1.15-.51-.66-.72-.9Z"/><path d="M71.66,36.25v2.21L57,40.39V38.18l3.27-.43.24-1-2.39.32V35.2L61,34.82,61.2,34l-3.4.45V32.2l13.08-1.72v2.2l-6.85.9-.21.87,6-.79-.14,2.85Zm-13.2,4.67,11.75-1.55V45L58.46,46.54ZM61.05,44l6.44-.85V41.87l-6.44.85Zm2.08-6.64L67,36.86l.06-1-3.71.49Z"/><path d="M78.35,38.9q-.27.56-.66,1.26c-.26.46-.53.94-.83,1.43s-.6,1-.91,1.43-.58.88-.84,1.25l-2.35-1.12c.28-.36.57-.77.88-1.21s.6-.91.89-1.37.55-.91.79-1.35.43-.84.58-1.19Zm4-1.84v4.11a4.18,4.18,0,0,1-.14,1.18,1.65,1.65,0,0,1-.44.72,2.42,2.42,0,0,1-.81.46c-.33.11-.73.23-1.21.35l-1.17.28-.83-2.59.89-.22a2.69,2.69,0,0,0,.73-.27.65.65,0,0,0,.2-.55V37.42l-5.6.74.59-7.74c.62-.08,1.27-.17,2-.28s1.39-.22,2.1-.35l2.14-.38L82.82,29l1.87-.41,1.56-.39.56,2.62-2.08.48c-.76.17-1.57.34-2.42.5s-1.71.33-2.59.49l-2.58.46L77,35.29,79.55,35V32.74l2.78-.3v2.14l4.93-.64v2.47Zm2.72-.23c.17.19.39.46.65.78s.54.69.83,1.08.58.79.86,1.21.54.8.77,1.17L85.8,42.9c-.19-.36-.41-.74-.65-1.16s-.52-.83-.79-1.23-.55-.79-.82-1.15a10.07,10.07,0,0,0-.72-.9Z"/></g><line class="cls-1" x1="18.35" y1="58.35" x2="0.35" y2="76.35"/><line class="cls-1" x1="18.35" y1="18.35" x2="0.35" y2="0.35"/></g></g></g></svg>