<svg xmlns="http://www.w3.org/2000/svg" viewBox="0 0 129 93.76"><defs><style>.cls-1{fill:none;stroke:#333;stroke-linejoin:round;}.cls-2{opacity:0.16;}</style></defs><title>2-140</title><g id="图层_2" data-name="图层 2"><g id="_2-135_2-145" data-name="2-135——2-145"><g id="_2-140" data-name="2-140"><circle class="cls-1" cx="12.28" cy="46.35" r="11.78"/><polygon class="cls-1" points="24.07 46.88 128.5 93.26 128.5 0.5 24.07 46.88"/><g class="cls-2"><path d="M46.28,51.67c-.17.37-.39.79-.65,1.26s-.54.94-.84,1.43-.6,1-.9,1.43S43.3,56.67,43,57L40.7,55.92c.27-.36.56-.77.87-1.22s.61-.9.89-1.36.55-.91.79-1.36.44-.83.59-1.18Zm4-1.84v4.11a4.23,4.23,0,0,1-.13,1.18,1.77,1.77,0,0,1-.45.72,2.42,2.42,0,0,1-.81.46c-.33.11-.73.23-1.21.34l-1.17.29-.83-2.59.9-.22a2.73,2.73,0,0,0,.72-.27.65.65,0,0,0,.2-.55V50.19l-5.59.74.58-7.74c.62-.08,1.28-.18,2-.29s1.4-.22,2.11-.34l2.14-.39,2.06-.4,1.87-.41c.59-.14,1.11-.27,1.57-.4l.55,2.63-2.08.48c-.76.17-1.57.34-2.41.5l-2.6.49-2.58.45-.17,2.55,2.58-.34V45.51l2.78-.3v2.14l4.93-.65v2.48ZM53,49.6c.17.19.39.45.65.78s.54.69.83,1.08.58.79.86,1.21.54.8.77,1.17l-2.36,1.83c-.18-.36-.4-.75-.65-1.16s-.51-.83-.79-1.23-.55-.79-.81-1.15-.51-.66-.73-.9Z"/><path d="M71.8,44.78V47L57.16,48.92V46.7l3.27-.43.25-1-2.39.31V43.73l2.84-.38.21-.87-3.4.44V40.73L71,39V41.2l-6.85.9L64,43l6-.79L69.8,45ZM58.61,49.44,70.36,47.9v5.63L58.61,55.07Zm2.59,3.1,6.44-.85V50.4l-6.44.85Zm2.08-6.64,3.87-.51.07-1-3.71.49Z"/><path d="M78.49,47.43c-.17.37-.39.79-.65,1.25s-.54,1-.84,1.44-.6,1-.9,1.43-.59.88-.85,1.25l-2.34-1.12c.27-.37.56-.77.87-1.22s.61-.9.9-1.36.55-.91.79-1.36.43-.83.58-1.18Zm4-1.85V49.7a4.05,4.05,0,0,1-.14,1.17,1.56,1.56,0,0,1-.45.73,2.28,2.28,0,0,1-.8.46c-.33.11-.74.23-1.22.34l-1.17.29-.83-2.59.9-.22a2.46,2.46,0,0,0,.72-.27.63.63,0,0,0,.21-.55V46l-5.6.74L74.68,39c.62-.08,1.28-.18,2-.29s1.4-.22,2.11-.34l2.14-.39c.72-.13,1.4-.27,2.07-.41s1.28-.27,1.87-.4,1.1-.27,1.56-.4L87,39.35l-2.07.48c-.77.17-1.57.34-2.42.5s-1.71.33-2.59.49l-2.58.45-.18,2.55,2.59-.34V41.27L82.48,41v2.15l4.93-.65v2.48Zm2.71-.22q.27.28.66.78l.83,1.08c.29.39.58.79.86,1.21s.53.8.76,1.17l-2.36,1.82c-.18-.35-.4-.74-.65-1.15s-.51-.83-.79-1.23-.54-.79-.81-1.15-.51-.66-.72-.91Z"/></g></g></g></g></svg>