<svg xmlns="http://www.w3.org/2000/svg" viewBox="0 0 65.45 128.78"><defs><style>.cls-1{fill:none;stroke:#333;stroke-linejoin:round;}.cls-2{opacity:0.16;}</style></defs><title>2-142</title><g id="图层_2" data-name="图层 2"><g id="_2-135_2-145" data-name="2-135——2-145"><g id="_2-142" data-name="2-142"><rect class="cls-1" x="0.5" y="63.83" width="64.45" height="64.45"/><g class="cls-2"><path d="M14.5,69.06c-.17.37-.39.79-.65,1.26s-.54,1-.84,1.44-.6,1-.9,1.43-.59.88-.85,1.25L8.92,73.31c.27-.36.56-.76.87-1.21s.61-.9.9-1.36.55-.91.79-1.36.43-.84.58-1.18Zm4-1.84v4.12a4.05,4.05,0,0,1-.14,1.17,1.56,1.56,0,0,1-.45.73,2.12,2.12,0,0,1-.8.45c-.33.12-.74.23-1.21.35l-1.18.28-.83-2.59.9-.21a2.17,2.17,0,0,0,.72-.28.61.61,0,0,0,.21-.55v-3.1l-5.6.73.59-7.73,2-.29L14.77,60l2.14-.39L19,59.16c.66-.13,1.28-.27,1.87-.41s1.1-.27,1.56-.39L23,61l-2.07.47c-.77.18-1.57.34-2.42.51s-1.71.33-2.59.49l-2.58.45-.18,2.55,2.59-.34V62.9l2.78-.3v2.15l4.93-.65v2.47ZM21.21,67c.17.2.39.46.65.79l.83,1.08c.29.39.58.79.86,1.2s.53.81.76,1.18L22,73.06c-.18-.35-.4-.74-.65-1.16s-.51-.82-.79-1.23-.54-.78-.81-1.14-.51-.67-.72-.91Z"/><path d="M40,62.17v2.22L25.39,66.31V64.1l3.27-.43.24-1L26.51,63V61.12l2.85-.37.21-.88-3.4.45v-2.2L39.25,56.4v2.2l-6.85.9-.21.87,6-.78L38,62.44Zm-13.2,4.67,11.75-1.55v5.63L26.83,72.47Zm2.59,3.09,6.44-.85V67.8l-6.44.85ZM31.5,63.3l3.88-.51.06-1-3.71.49Z"/><path d="M46.72,64.82q-.27.56-.66,1.26c-.26.47-.53,1-.83,1.44s-.6,1-.91,1.43-.58.87-.84,1.25l-2.35-1.13c.28-.36.57-.76.88-1.21s.6-.9.89-1.36.55-.92.79-1.36.43-.84.58-1.18Zm4-1.84V67.1a3.73,3.73,0,0,1-.14,1.17,1.69,1.69,0,0,1-.44.73,2.25,2.25,0,0,1-.81.45c-.33.12-.73.23-1.21.35l-1.17.28-.83-2.59.89-.21a2.35,2.35,0,0,0,.73-.28.63.63,0,0,0,.2-.55v-3.1l-5.6.73.59-7.74c.62-.08,1.27-.17,2-.28l2.1-.34c.71-.12,1.43-.25,2.14-.39l2.07-.41c.66-.14,1.28-.27,1.87-.41l1.56-.39.56,2.63-2.08.47-2.42.51-2.59.49-2.58.45-.18,2.55,2.59-.35V58.66l2.78-.3v2.15l4.93-.65v2.47Zm2.72-.23c.17.2.39.46.65.79s.54.69.83,1.08.58.79.86,1.2.54.81.77,1.18l-2.36,1.82c-.19-.35-.4-.74-.65-1.16s-.52-.83-.79-1.23-.55-.78-.82-1.14a10.36,10.36,0,0,0-.72-.91Z"/></g><line class="cls-1" x1="32.72" y1="0.28" x2="32.72" y2="63.83"/><line class="cls-1" x1="11.24" y1="0.28" x2="32.72" y2="32.5"/><line class="cls-1" x1="51.52" y1="0.28" x2="32.72" y2="32.5"/></g></g></g></svg>