<svg xmlns="http://www.w3.org/2000/svg" viewBox="0 0 128 53.18"><defs><style>.cls-1{fill:none;stroke:#333;stroke-linejoin:round;}.cls-2{opacity:0.16;}.cls-3{fill:#333;}</style></defs><title>2-145</title><g id="图层_2" data-name="图层 2"><g id="_2-135_2-145" data-name="2-135——2-145"><g id="_2-145" data-name="2-145"><circle class="cls-1" cx="84" cy="16.5" r="16"/><g class="cls-2"><path d="M45.78,31.63c-.17.37-.39.79-.65,1.26s-.54.94-.84,1.43-.6,1-.9,1.43-.59.88-.85,1.25L40.2,35.88c.27-.36.56-.77.87-1.21s.61-.91.89-1.37.55-.91.79-1.35.44-.84.59-1.19Zm4-1.84V33.9a4.23,4.23,0,0,1-.13,1.18,1.77,1.77,0,0,1-.45.72,2.42,2.42,0,0,1-.81.46c-.33.11-.73.23-1.21.34L46,36.89l-.83-2.59.9-.22a2.73,2.73,0,0,0,.72-.27.65.65,0,0,0,.2-.55V30.15l-5.59.74L42,23.15l2-.28,2.11-.35,2.14-.38,2.06-.41,1.87-.41c.59-.14,1.11-.27,1.57-.4l.55,2.63L52.16,24c-.76.17-1.57.34-2.41.5l-2.6.49-2.58.45L44.4,28,47,27.68V25.47l2.78-.3v2.14l4.93-.65v2.48Zm2.72-.23c.17.19.39.45.65.78s.54.69.83,1.08.58.79.86,1.21.54.8.77,1.17l-2.36,1.83c-.18-.36-.4-.75-.65-1.16s-.51-.83-.79-1.23-.55-.79-.81-1.15-.51-.66-.73-.9Z"/><path d="M71.3,24.74V27L56.66,28.88V26.66l3.27-.43.25-1-2.39.31V23.69l2.84-.38.21-.87-3.4.45v-2.2L70.52,19v2.19l-6.85.91-.21.87,6-.79L69.3,25ZM58.11,29.4l11.75-1.54v5.63L58.11,35Zm2.59,3.1,6.44-.85V30.36l-6.44.85Zm2.08-6.64,3.87-.51.07-1L63,24.89Z"/><path d="M78,27.39c-.17.37-.39.79-.65,1.26s-.54.94-.84,1.43-.6,1-.9,1.43-.59.88-.85,1.25l-2.34-1.12c.27-.36.56-.77.87-1.22s.61-.9.9-1.36.55-.91.79-1.36.43-.83.58-1.18Zm4-1.85v4.12a4.18,4.18,0,0,1-.14,1.18,1.58,1.58,0,0,1-.45.72,2.28,2.28,0,0,1-.8.46c-.33.11-.74.23-1.22.34l-1.17.29-.83-2.59.9-.22a2.46,2.46,0,0,0,.72-.27A.63.63,0,0,0,79.2,29V25.91l-5.6.74.58-7.74c.62-.08,1.28-.18,2-.29s1.4-.22,2.11-.34l2.14-.39c.72-.13,1.4-.27,2.07-.41s1.28-.27,1.87-.4,1.1-.27,1.56-.4l.55,2.63-2.07.48c-.77.17-1.57.34-2.42.5s-1.71.33-2.59.49l-2.58.45-.18,2.55,2.59-.34V21.23l2.78-.3v2.14l4.93-.65V24.9Zm2.71-.22q.27.29.66.78l.83,1.08c.29.39.58.79.86,1.21s.53.8.76,1.17l-2.36,1.83c-.18-.36-.4-.75-.65-1.16S84.28,29.4,84,29s-.54-.79-.81-1.15-.51-.66-.72-.91Z"/></g><line class="cls-1" y1="16.5" x2="68" y2="16.5"/><path class="cls-3" d="M110.08,53.18H109V32.1h1.29l8.17,15.54h.09l8.17-15.54H128V53.18h-1.12v-19h-.08l-7.9,15h-.81l-7.9-15h-.11Z"/></g></g></g></svg>