<svg xmlns="http://www.w3.org/2000/svg" viewBox="0 0 129 124.25"><defs><style>.cls-1{fill:none;stroke:#333;stroke-linejoin:round;}.cls-2{opacity:0.16;}.cls-3{fill:#333;}</style></defs><title>2-156</title><g id="图层_2" data-name="图层 2"><g id="_2-147_2-161" data-name="2-147——2-161"><g id="_2-156" data-name="2-156"><polygon class="cls-1" points="128.5 70.03 37.37 70.03 12.62 0.5 128.5 0.5 128.5 70.03"/><polyline class="cls-1" points="28 44.22 0.5 44.22 0.5 19.99 19 19.99"/><g class="cls-2"><path d="M46.28,66.91c-.17.37-.39.79-.65,1.26s-.54,1-.84,1.44-.6,1-.9,1.42-.59.88-.85,1.25L40.7,71.16c.27-.36.56-.76.87-1.21s.61-.9.89-1.36.55-.92.79-1.36.44-.84.59-1.18Zm4-1.84v4.12a4.15,4.15,0,0,1-.13,1.17,1.81,1.81,0,0,1-.45.73,2.41,2.41,0,0,1-.81.45c-.33.12-.73.23-1.21.35l-1.17.28-.83-2.59.9-.21a2.67,2.67,0,0,0,.72-.28.64.64,0,0,0,.2-.55v-3.1l-5.59.73.58-7.74c.62-.08,1.28-.17,2-.28l2.11-.34,2.14-.39L50.75,57c.66-.14,1.29-.27,1.87-.41l1.57-.39.55,2.63-2.08.47-2.41.51-2.6.49-2.58.45L44.9,63.3,47.48,63V60.75l2.78-.3V62.6L55.19,62v2.47ZM53,64.84c.17.2.39.46.65.79s.54.69.83,1.08.58.79.86,1.2.54.81.77,1.18l-2.36,1.82c-.18-.36-.4-.74-.65-1.16s-.51-.83-.79-1.23l-.81-1.14a10.64,10.64,0,0,0-.73-.91Z"/><path d="M71.8,60v2.21L57.16,64.16V62l3.27-.43.25-1-2.39.32V59l2.84-.37.21-.88-3.4.45V56L71,54.25v2.2l-6.85.9-.21.87,6-.79-.15,2.85ZM58.61,64.69l11.75-1.55v5.63L58.61,70.32Zm2.59,3.09,6.44-.85V65.65l-6.44.84Zm2.08-6.64,3.87-.51.07-1-3.71.49Z"/><path d="M78.49,62.67c-.17.37-.39.79-.65,1.26s-.54.95-.84,1.44-.6,1-.9,1.42-.59.88-.85,1.25l-2.34-1.12c.27-.36.56-.76.87-1.21s.61-.9.9-1.36.55-.92.79-1.36.43-.84.58-1.18Zm4-1.84v4.11a4.18,4.18,0,0,1-.14,1.18,1.61,1.61,0,0,1-.45.73,2.27,2.27,0,0,1-.8.45c-.33.11-.74.23-1.22.35l-1.17.28-.83-2.59.9-.22a2.2,2.2,0,0,0,.72-.27.62.62,0,0,0,.21-.55V61.19l-5.6.74.58-7.74c.62-.08,1.28-.17,2-.28l2.11-.34,2.14-.39L83,52.77c.66-.14,1.28-.27,1.87-.41L86.4,52,87,54.6l-2.07.47-2.42.51-2.59.48-2.58.46-.18,2.54,2.59-.34V56.51l2.78-.3v2.15l4.93-.65v2.47Zm2.71-.23c.18.2.4.46.66.79l.83,1.07c.29.39.58.8.86,1.21s.53.8.76,1.18l-2.36,1.82c-.18-.36-.4-.74-.65-1.16s-.51-.83-.79-1.23-.54-.78-.81-1.15-.51-.66-.72-.9Z"/></g><line class="cls-1" x1="53.17" y1="82.15" x2="100.58" y2="82.15"/><polygon class="cls-1" points="76.89 82.67 53.17 123.75 100.61 123.75 76.89 82.67"/><line class="cls-1" x1="64.73" y1="103.74" x2="89.06" y2="103.74"/><path class="cls-3" d="M59.64,11.91v48H58.23v-48Z"/><path class="cls-3" d="M83.25,11.91q8.46,0,13,3.62t4.54,10.27q0,6.66-4.54,10.24t-13,3.58H71.8V59.91H70.39v-48Zm-.19,26.37q7.88,0,12.1-3.23t4.22-9.25q0-6.07-4.22-9.31t-12.1-3.23H71.8v25Z"/></g></g></g></svg>