<svg xmlns="http://www.w3.org/2000/svg" viewBox="0 0 129 70.95"><defs><style>.cls-1{fill:#333;}.cls-1,.cls-3{stroke:#333;stroke-linejoin:round;}.cls-2{opacity:0.16;}.cls-3{fill:none;}</style></defs><title>2-157</title><g id="图层_2" data-name="图层 2"><g id="_2-147_2-161" data-name="2-147——2-161"><g id="_2-157" data-name="2-157"><circle class="cls-1" cx="47.91" cy="8.82" r="7.37"/><g class="cls-2"><path d="M46.28,40.21c-.17.37-.39.79-.65,1.26s-.54,1-.84,1.44-.6,1-.9,1.42-.59.88-.85,1.25L40.7,44.46c.27-.36.56-.76.87-1.21s.61-.9.89-1.36.55-.92.79-1.36.44-.84.59-1.18Zm4-1.84v4.12a4.15,4.15,0,0,1-.13,1.17,1.81,1.81,0,0,1-.45.73,2.41,2.41,0,0,1-.81.45c-.33.12-.73.23-1.21.35l-1.17.28-.83-2.59.9-.21a2.67,2.67,0,0,0,.72-.28.64.64,0,0,0,.2-.55v-3.1l-5.59.73.58-7.74c.62-.08,1.28-.17,2-.28l2.11-.34,2.14-.39,2.06-.41c.66-.14,1.29-.27,1.87-.41l1.57-.39.55,2.63-2.08.47-2.41.51-2.6.48c-.88.17-1.74.32-2.58.46L44.9,36.6l2.58-.34V34.05l2.78-.3V35.9l4.93-.65v2.47ZM53,38.14c.17.2.39.46.65.79s.54.69.83,1.08.58.79.86,1.2.54.8.77,1.18l-2.36,1.82c-.18-.36-.4-.74-.65-1.16s-.51-.83-.79-1.23l-.81-1.15c-.27-.36-.51-.66-.73-.9Z"/><path d="M71.8,33.32v2.21L57.16,37.46V35.25l3.27-.43.25-1-2.39.32V32.27l2.84-.37.21-.88-3.4.45v-2.2L71,27.55v2.2l-6.85.9-.21.87,6-.79-.15,2.85ZM58.61,38l11.75-1.55v5.63L58.61,43.62Zm2.59,3.09,6.44-.85V39l-6.44.84Zm2.08-6.64,3.87-.51.07-1-3.71.49Z"/><path d="M78.49,36c-.17.37-.39.79-.65,1.26s-.54,1-.84,1.43-.6,1-.9,1.43-.59.88-.85,1.25l-2.34-1.12c.27-.36.56-.76.87-1.21s.61-.9.9-1.36.55-.92.79-1.36.43-.84.58-1.18Zm4-1.84v4.11a4.18,4.18,0,0,1-.14,1.18,1.58,1.58,0,0,1-.45.72,2.13,2.13,0,0,1-.8.46c-.33.11-.74.23-1.22.35l-1.17.28-.83-2.59.9-.22a2.2,2.2,0,0,0,.72-.27.62.62,0,0,0,.21-.55V34.49l-5.6.74.58-7.74c.62-.08,1.28-.17,2-.28l2.11-.34,2.14-.39L83,26.07c.66-.14,1.28-.27,1.87-.41l1.56-.39L87,27.9l-2.07.47-2.42.51-2.59.48-2.58.46-.18,2.54L79.7,32V29.81l2.78-.3v2.15L87.41,31v2.47Zm2.71-.23c.18.2.4.46.66.79l.83,1.07c.29.39.58.8.86,1.21s.53.8.76,1.18L85.94,40c-.18-.36-.4-.74-.65-1.16s-.51-.83-.79-1.23-.54-.79-.81-1.15-.51-.66-.72-.9Z"/></g><ellipse class="cls-1" cx="34.74" cy="35.16" rx="5.79" ry="5.27"/><ellipse class="cls-1" cx="65.29" cy="36.22" rx="5.79" ry="5.27"/><polygon class="cls-3" points="128.5 70.45 37.37 70.45 12.62 0.92 128.5 0.92 128.5 70.45"/><polyline class="cls-3" points="28 44.38 0.5 44.38 0.5 20.15 19 20.15"/><line class="cls-3" x1="37.37" y1="69.93" x2="127.97" y2="0.4"/></g></g></g></svg>