<svg xmlns="http://www.w3.org/2000/svg" viewBox="0 0 129 72.98"><defs><style>.cls-1{fill:none;}.cls-1,.cls-2{stroke:#333;stroke-linejoin:round;}.cls-2{fill:#333;}.cls-3{opacity:0.16;}</style></defs><title>2-160</title><g id="图层_2" data-name="图层 2"><g id="_2-147_2-161" data-name="2-147——2-161"><g id="_2-160" data-name="2-160"><polygon class="cls-1" points="95.24 38.6 53.12 38.6 41.68 6.47 95.24 6.47 95.24 38.6"/><polyline class="cls-1" points="48.72 26.67 36.08 26.67 36.08 15.47 44.88 15.47"/><line class="cls-1" x1="60.42" y1="44.2" x2="82.34" y2="44.2"/><polygon class="cls-1" points="71.39 44.45 60.42 63.43 82.35 63.43 71.39 44.45"/><line class="cls-1" x1="65.51" y1="54.19" x2="76.76" y2="54.19"/><circle class="cls-2" cx="71.14" cy="14.5" r="3.41"/><ellipse class="cls-2" cx="65.05" cy="26.67" rx="2.68" ry="2.43"/><ellipse class="cls-2" cx="79.17" cy="26.67" rx="2.68" ry="2.43"/><g class="cls-3"><path d="M46.28,41.28c-.17.37-.39.78-.65,1.25s-.54.95-.84,1.44-.6,1-.9,1.43-.59.88-.85,1.25L40.7,45.52c.27-.36.56-.76.87-1.21s.61-.9.89-1.36.55-.91.79-1.36.44-.84.59-1.18Zm4-1.85v4.12a4.1,4.1,0,0,1-.13,1.17,1.74,1.74,0,0,1-.45.73,2.25,2.25,0,0,1-.81.45c-.33.12-.73.23-1.21.35l-1.17.28-.83-2.59.9-.21a2.37,2.37,0,0,0,.72-.28.62.62,0,0,0,.2-.54V39.8l-5.59.74.58-7.74,2-.29,2.11-.34,2.14-.39c.71-.13,1.4-.27,2.06-.41S52,31.1,52.62,31s1.11-.26,1.57-.39l.55,2.63-2.08.47c-.76.18-1.57.34-2.41.51l-2.6.49-2.58.45-.17,2.55,2.58-.34V35.11l2.78-.3V37l4.93-.65v2.47ZM53,39.21c.17.19.39.45.65.78s.54.69.83,1.08.58.79.86,1.2.54.81.77,1.18l-2.36,1.82c-.18-.35-.4-.74-.65-1.16s-.51-.82-.79-1.23l-.81-1.14c-.27-.36-.51-.66-.73-.91Z"/><path d="M71.8,34.38V36.6L57.16,38.52V36.31l3.27-.43.25-1-2.39.31V33.33L61.13,33l.21-.88-3.4.45V30.34L71,28.61v2.2l-6.85.9-.21.88,6-.79-.15,2.85ZM58.61,39.05,70.36,37.5v5.63L58.61,44.68Zm2.59,3.09,6.44-.85V40l-6.44.85Zm2.08-6.63L67.15,35l.07-1-3.71.48Z"/><path d="M78.49,37c-.17.37-.39.79-.65,1.26s-.54,1-.84,1.44-.6,1-.9,1.43-.59.88-.85,1.25l-2.34-1.13c.27-.36.56-.76.87-1.21s.61-.9.9-1.36.55-.91.79-1.36.43-.84.58-1.18Zm4-1.84v4.12a4.05,4.05,0,0,1-.14,1.17,1.56,1.56,0,0,1-.45.73,2.12,2.12,0,0,1-.8.45c-.33.12-.74.23-1.22.35l-1.17.28-.83-2.59.9-.21a2.17,2.17,0,0,0,.72-.28.61.61,0,0,0,.21-.55v-3.1l-5.6.73.58-7.73,2-.29,2.11-.34,2.14-.39L83,27.13c.66-.13,1.28-.27,1.87-.41s1.1-.27,1.56-.39L87,29l-2.07.47c-.77.18-1.57.34-2.42.51s-1.71.33-2.59.49l-2.58.45-.18,2.55,2.59-.34V30.87l2.78-.3v2.15l4.93-.65v2.47ZM85.19,35c.18.2.4.46.66.79l.83,1.08c.29.39.58.79.86,1.2s.53.81.76,1.18L85.94,41c-.18-.35-.4-.74-.65-1.16s-.51-.82-.79-1.23-.54-.78-.81-1.14-.51-.67-.72-.91Z"/></g><path class="cls-1" d="M128,.5A64,64,0,1,1,.57,8.51C.57,6.6.41,2.71.57.84Z"/></g></g></g></svg>