<svg xmlns="http://www.w3.org/2000/svg" viewBox="0 0 126.2 80.36"><defs><style>.cls-1{fill:none;stroke:#333;stroke-linejoin:round;}.cls-2{opacity:0.16;}.cls-3{fill:#333;}</style></defs><title>2-166</title><g id="图层_2" data-name="图层 2"><g id="_2-162_2-176" data-name="2-162——2-176"><g id="_2-166" data-name="2-166"><g id="_2-107" data-name="2-107"><circle class="cls-1" cx="32.5" cy="47.86" r="32"/></g><g id="_2-107-2" data-name="2-107"><line class="cls-1" x1="9.87" y1="25.23" x2="55.13" y2="70.49"/><g id="_2-107-3" data-name="2-107"><line class="cls-1" x1="55.13" y1="25.23" x2="9.87" y2="70.49"/></g></g><g class="cls-2"><path d="M45.13,44.72c-.18.37-.39.79-.65,1.26s-.54.94-.84,1.43-.6,1-.9,1.43-.59.88-.85,1.25L39.55,49c.27-.36.56-.77.87-1.21s.6-.91.89-1.37.55-.91.79-1.35.43-.84.59-1.19Zm4-1.84V47A3.84,3.84,0,0,1,49,48.17a1.65,1.65,0,0,1-.44.72,2.42,2.42,0,0,1-.81.46c-.33.11-.73.23-1.21.34L45.34,50l-.83-2.59.89-.22a2.69,2.69,0,0,0,.73-.27.65.65,0,0,0,.2-.55V43.24l-5.6.74.59-7.74,2-.28,2.11-.35,2.14-.38,2.06-.41,1.87-.41c.59-.14,1.11-.27,1.56-.4l.56,2.63-2.08.48c-.76.17-1.57.34-2.41.5l-2.6.49-2.58.45-.18,2.55,2.59-.34V38.56l2.78-.3V40.4L54,39.75v2.48Zm2.72-.23c.17.19.39.45.65.78s.54.69.83,1.08.58.79.86,1.21.54.8.77,1.17l-2.36,1.83c-.19-.36-.4-.75-.65-1.16s-.51-.83-.79-1.23-.55-.79-.81-1.15-.51-.66-.73-.9Z"/><path d="M70.65,37.83V40L56,42V39.76l3.27-.44.25-1-2.4.31V36.78L60,36.4l.21-.87-3.4.45v-2.2l13.08-1.72v2.19L63,35.16l-.21.87,6-.79-.15,2.85ZM57.46,42.49,69.21,41v5.63L57.46,48.12Zm2.59,3.1,6.44-.85V43.45l-6.44.85ZM62.13,39,66,38.44l.07-.95L62.36,38Z"/><path d="M77.34,40.48c-.17.37-.39.79-.65,1.26s-.54.94-.84,1.43-.6,1-.9,1.43-.59.88-.85,1.25l-2.34-1.12c.27-.36.56-.77.87-1.22s.61-.9.9-1.36.55-.91.78-1.36.44-.83.59-1.18Zm4-1.85v4.12a4.18,4.18,0,0,1-.14,1.18,1.58,1.58,0,0,1-.45.72,2.37,2.37,0,0,1-.8.46c-.34.11-.74.23-1.22.34l-1.17.29-.83-2.59.9-.22a2.73,2.73,0,0,0,.72-.27.63.63,0,0,0,.2-.55V39L73,39.74,73.53,32c.62-.08,1.28-.18,2-.29s1.4-.22,2.11-.34L79.75,31c.71-.13,1.4-.27,2.06-.41s1.29-.27,1.88-.4,1.1-.27,1.56-.4l.55,2.63-2.07.48c-.77.17-1.57.34-2.42.5l-2.6.49-2.57.45L76,36.87l2.58-.34V34.32l2.79-.3v2.14l4.93-.65V38ZM84,38.41c.18.19.39.45.65.78s.54.69.83,1.08.58.79.87,1.21.53.8.76,1.17l-2.36,1.83c-.18-.36-.4-.75-.65-1.16s-.51-.83-.79-1.23-.55-.79-.81-1.15-.51-.66-.73-.91Z"/></g><path class="cls-3" d="M84.92,0V48H83.51V0Z"/><path class="cls-3" d="M126.2,48h-1.67l-13-22.27c-1.28.08-2.29.13-3,.13H97.08V48H95.67V0h12.8q8.19,0,12.61,3.39t4.41,9.73a11.25,11.25,0,0,1-3.23,8.42q-3.23,3.16-9.31,4ZM108.28,24.51q7.6,0,11.71-2.94a9.77,9.77,0,0,0,4.09-8.45A10.22,10.22,0,0,0,120,4.38q-4.09-3-11.71-3H97.08V24.51Z"/></g></g></g></svg>