<svg xmlns="http://www.w3.org/2000/svg" viewBox="0 0 129 105.91"><defs><style>.cls-1{fill:none;}.cls-1,.cls-2{stroke:#333;stroke-linejoin:round;}.cls-2{fill:#333;}.cls-3{opacity:0.16;}</style></defs><title>2-170</title><g id="图层_2" data-name="图层 2"><g id="_2-162_2-176" data-name="2-162——2-176"><g id="_2-170" data-name="2-170"><path class="cls-1" d="M111,89.17,67.74,94.11a39.41,39.41,0,0,1-9.4,0L19.22,89.17l-6.81-24.7A52.29,52.29,0,0,1,13,34.65l6.21-19.41L56,9.5a47.6,47.6,0,0,1,14.15-.1L111,15.24l5.81,26.17a49.76,49.76,0,0,1,0,21.59Z"/><line class="cls-1" x1="0.5" x2="0.5" y2="105.41"/><line class="cls-1" x1="128.5" y1="0.5" x2="128.5" y2="105.91"/><circle class="cls-2" cx="63.75" cy="37.15" r="10.54"/><circle class="cls-2" cx="47.68" cy="67.26" r="10.54"/><circle class="cls-2" cx="83.83" cy="67.26" r="10.54"/><g class="cls-3"><path d="M46.28,57.74c-.17.37-.39.79-.65,1.26s-.54,1-.84,1.44-.6,1-.9,1.43L43,63.12,40.7,62c.27-.36.56-.76.87-1.21s.61-.9.89-1.36.55-.92.79-1.36.44-.84.59-1.18Zm4-1.84V60a4.1,4.1,0,0,1-.13,1.17,1.74,1.74,0,0,1-.45.73,2.25,2.25,0,0,1-.81.45c-.33.12-.73.23-1.21.35L46.49,63l-.83-2.59.9-.21a2.37,2.37,0,0,0,.72-.28.63.63,0,0,0,.2-.55v-3.1L41.89,57l.58-7.74c.62-.08,1.28-.17,2-.28l2.11-.34,2.14-.39,2.06-.41c.66-.14,1.29-.27,1.87-.41L54.19,47l.55,2.63-2.08.47c-.76.18-1.57.34-2.41.51l-2.6.49-2.58.45-.17,2.55,2.58-.35V51.58l2.78-.3v2.15l4.93-.65v2.47ZM53,55.67c.17.2.39.46.65.79s.54.69.83,1.08.58.79.86,1.2.54.81.77,1.18l-2.36,1.82c-.18-.35-.4-.74-.65-1.16s-.51-.83-.79-1.23l-.81-1.14c-.27-.36-.51-.67-.73-.91Z"/><path d="M71.8,50.85v2.21L57.16,55V52.78l3.27-.43.25-1-2.39.32V49.8l2.84-.37.21-.88-3.4.45V46.8L71,45.08v2.2l-6.85.9-.21.87,6-.78-.15,2.85ZM58.61,55.52,70.36,54V59.6L58.61,61.15Zm2.59,3.09,6.44-.85V56.48l-6.44.85ZM63.28,52l3.87-.51.07-1L63.51,51Z"/><path d="M78.49,53.5c-.17.37-.39.79-.65,1.26s-.54,1-.84,1.44-.6,1-.9,1.42-.59.88-.85,1.25l-2.34-1.12c.27-.36.56-.76.87-1.21s.61-.9.9-1.36.55-.92.79-1.36.43-.84.58-1.18Zm4-1.84v4.12A4.1,4.1,0,0,1,82.34,57a1.61,1.61,0,0,1-.45.73,2.27,2.27,0,0,1-.8.45c-.33.12-.74.23-1.22.35l-1.17.28-.83-2.59.9-.21a2.17,2.17,0,0,0,.72-.28.62.62,0,0,0,.21-.55V52l-5.6.73L74.68,45c.62-.08,1.28-.17,2-.28l2.11-.34L80.9,44,83,43.6c.66-.14,1.28-.27,1.87-.41l1.56-.39L87,45.43l-2.07.47-2.42.51-2.59.49-2.58.45-.18,2.54,2.59-.34V47.34l2.78-.3v2.15l4.93-.65V51Zm2.71-.23c.18.2.4.46.66.79l.83,1.08c.29.39.58.79.86,1.2s.53.81.76,1.18L85.94,57.5c-.18-.36-.4-.74-.65-1.16s-.51-.83-.79-1.23S84,54.33,83.69,54s-.51-.67-.72-.91Z"/></g></g></g></g></svg>