<svg xmlns="http://www.w3.org/2000/svg" viewBox="0 0 129 43.64"><defs><style>.cls-1{fill:#333;}.cls-2{fill:none;stroke:#333;stroke-linejoin:round;}.cls-3{opacity:0.16;}</style></defs><title>2-187</title><g id="图层_2" data-name="图层 2"><g id="_2-177_2-190" data-name="2-177——2-190"><g id="_2-187" data-name="2-187"><path class="cls-1" d="M57.29,18.07h-.94V0h1.11l7,13.32h.08L71.54,0h1.11V18.07h-1V1.75h-.07L64.85,14.62h-.7L57.38,1.75h-.09Z"/><path class="cls-1" d="M12.81,35.94h-1V18.81h-6v-.92h13v.92h-6Z"/><path class="cls-1" d="M22.43,29.51l4.44,6.43H25.75l-3.89-5.76L18,35.94H16.84l4.49-6.53-4.15-6h1.1l3.65,5.38,3.55-5.38h1.08Z"/><rect class="cls-2" x="0.5" y="9.8" width="33.15" height="33.15"/><path class="cls-1" d="M112.69,36.13h-1.13L106.74,28l-.91,0h-4v8.14h-.93V18.08h4.89a7.73,7.73,0,0,1,4.84,1.31,4.39,4.39,0,0,1,1.69,3.7,4.4,4.4,0,0,1-1.16,3.18,5.83,5.83,0,0,1-3.37,1.58Zm-7-9.05a7.21,7.21,0,0,0,4.17-1,3.41,3.41,0,0,0,1.47-3,3.52,3.52,0,0,0-1.47-3A7,7,0,0,0,105.66,19h-3.87v8.09Z"/><path class="cls-1" d="M119.22,29.69l4.44,6.44h-1.13l-3.89-5.76-3.89,5.76h-1.12l4.48-6.53-4.15-6h1.11L118.71,29l3.56-5.37h1.08Z"/><rect class="cls-2" x="95.35" y="9.99" width="33.15" height="33.15"/><g class="cls-3"><path d="M46.28,25.28c-.17.37-.39.79-.65,1.26s-.54.94-.84,1.43-.6,1-.9,1.43-.59.88-.85,1.25L40.7,29.53c.27-.36.56-.77.87-1.21s.61-.91.89-1.37.55-.91.79-1.35.44-.84.59-1.19Zm4-1.84v4.11a4.23,4.23,0,0,1-.13,1.18,1.77,1.77,0,0,1-.45.72,2.42,2.42,0,0,1-.81.46c-.33.11-.73.23-1.21.34l-1.17.29L45.66,28l.9-.22a2.73,2.73,0,0,0,.72-.27.65.65,0,0,0,.2-.55V23.8l-5.59.74.58-7.74,2-.28,2.11-.35,2.14-.38,2.06-.41L52.62,15c.59-.14,1.11-.27,1.57-.4l.55,2.63-2.08.48c-.76.17-1.57.34-2.41.5l-2.6.49-2.58.46-.17,2.54,2.58-.34V19.12l2.78-.3V21l4.93-.64v2.47ZM53,23.21c.17.19.39.45.65.78s.54.69.83,1.08.58.79.86,1.21.54.8.77,1.17l-2.36,1.83c-.18-.36-.4-.74-.65-1.16s-.51-.83-.79-1.23l-.81-1.15c-.27-.36-.51-.66-.73-.9Z"/><path d="M71.8,18.39V20.6L57.16,22.53V20.32l3.27-.44.25-1-2.39.31V17.34L61.13,17l.21-.87-3.4.45v-2.2L71,12.62v2.19l-6.85.91-.21.87,6-.79-.15,2.85ZM58.61,23.05l11.75-1.54v5.63L58.61,28.68Zm2.59,3.1,6.44-.85V24l-6.44.85Zm2.08-6.64L67.15,19l.07-.95-3.71.49Z"/><path d="M78.49,21c-.17.37-.39.79-.65,1.26s-.54.94-.84,1.43-.6,1-.9,1.43-.59.88-.85,1.25l-2.34-1.12c.27-.36.56-.77.87-1.22s.61-.9.9-1.36.55-.91.79-1.36.43-.83.58-1.18Zm4-1.85v4.12a4.18,4.18,0,0,1-.14,1.18,1.58,1.58,0,0,1-.45.72,2.28,2.28,0,0,1-.8.46c-.33.11-.74.23-1.22.34l-1.17.29-.83-2.59.9-.22a2.46,2.46,0,0,0,.72-.27.63.63,0,0,0,.21-.55V19.56l-5.6.74.58-7.74c.62-.08,1.28-.18,2-.29s1.4-.22,2.11-.34l2.14-.39,2.07-.4,1.87-.41c.58-.14,1.1-.27,1.56-.4L87,13l-2.07.48c-.77.17-1.57.34-2.42.5s-1.71.33-2.59.49l-2.58.45-.18,2.55,2.59-.34V14.88l2.78-.3v2.14l4.93-.65v2.48ZM85.19,19q.27.29.66.78l.83,1.08c.29.39.58.79.86,1.21s.53.8.76,1.17L85.94,25c-.18-.36-.4-.75-.65-1.16s-.51-.83-.79-1.23-.54-.79-.81-1.15-.51-.66-.72-.9Z"/></g><line class="cls-2" x1="33.65" y1="26.38" x2="46.17" y2="26.38"/><line class="cls-2" x1="50.78" y1="26.56" x2="95.35" y2="26.56"/></g></g></g></svg>