<svg xmlns="http://www.w3.org/2000/svg" viewBox="0 0 129 44"><defs><style>.cls-1{fill:#333;}.cls-2{fill:none;stroke:#333;stroke-linejoin:round;}.cls-3{opacity:0.16;}</style></defs><title>2-189</title><g id="图层_2" data-name="图层 2"><g id="_2-177_2-190" data-name="2-177——2-190"><g id="_2-189" data-name="2-189"><path class="cls-1" d="M71.42,16.08A6.14,6.14,0,0,1,69,18a7.54,7.54,0,0,1-3.21.68,7.72,7.72,0,0,1-4.24-1.16,7.56,7.56,0,0,1-2.79-3.3,11.8,11.8,0,0,1-1-5,11.29,11.29,0,0,1,1-4.89,7.42,7.42,0,0,1,2.79-3.23A7.8,7.8,0,0,1,65.81,0a7.41,7.41,0,0,1,3.11.68,7.3,7.3,0,0,1,2.53,2l-.75.58a5.89,5.89,0,0,0-2.22-1.68A6.28,6.28,0,0,0,65.81.91a6.69,6.69,0,0,0-3.72,1,6.65,6.65,0,0,0-2.45,2.91,10.44,10.44,0,0,0-.86,4.42,11,11,0,0,0,.86,4.53,6.71,6.71,0,0,0,2.45,3,6.55,6.55,0,0,0,3.72,1,6.39,6.39,0,0,0,2.72-.59,5.81,5.81,0,0,0,2.17-1.76Z"/><rect class="cls-2" x="0.5" y="10.16" width="33.15" height="33.15"/><rect class="cls-2" x="95.35" y="10.35" width="33.15" height="33.15"/><line class="cls-2" x1="33.65" y1="26.74" x2="46.17" y2="26.74"/><line class="cls-2" x1="50.78" y1="26.92" x2="95.35" y2="26.92"/><g class="cls-3"><path d="M46.28,25.1c-.17.37-.39.79-.65,1.25s-.54.95-.84,1.44-.6,1-.9,1.43-.59.88-.85,1.25L40.7,29.34c.27-.36.56-.76.87-1.21s.61-.9.89-1.36.55-.91.79-1.36.44-.83.59-1.18Zm4-1.85v4.12a4.1,4.1,0,0,1-.13,1.17,1.74,1.74,0,0,1-.45.73,2.25,2.25,0,0,1-.81.45c-.33.12-.73.23-1.21.35l-1.17.29-.83-2.6.9-.21a2.37,2.37,0,0,0,.72-.28.62.62,0,0,0,.2-.54V23.62l-5.59.74.58-7.74c.62-.08,1.28-.18,2-.29s1.4-.22,2.11-.34l2.14-.39c.71-.13,1.4-.27,2.06-.41s1.29-.27,1.87-.41,1.11-.26,1.57-.39L54.74,17l-2.08.48c-.76.17-1.57.34-2.41.5l-2.6.49-2.58.45-.17,2.55,2.58-.34V18.93l2.78-.3v2.15l4.93-.65V22.6ZM53,23c.17.19.39.45.65.78s.54.69.83,1.08.58.79.86,1.2.54.81.77,1.18l-2.36,1.82c-.18-.35-.4-.74-.65-1.16s-.51-.82-.79-1.23l-.81-1.14c-.27-.36-.51-.66-.73-.91Z"/><path d="M71.8,18.2v2.22L57.16,22.34V20.13l3.27-.43.25-1L58.29,19V17.15l2.84-.37.21-.87-3.4.44V14.16L71,12.43v2.2l-6.85.9-.21.88,6-.79-.15,2.85ZM58.61,22.87l11.75-1.55V27L58.61,28.5ZM61.2,26l6.44-.85V23.83l-6.44.85Zm2.08-6.63,3.87-.51.07-.95-3.71.48Z"/><path d="M78.49,20.86c-.17.37-.39.78-.65,1.25s-.54.95-.84,1.44-.6,1-.9,1.43-.59.88-.85,1.25L72.91,25.1c.27-.36.56-.76.87-1.21s.61-.9.9-1.36.55-.91.79-1.36.43-.84.58-1.18Zm4-1.85v4.12a4.05,4.05,0,0,1-.14,1.17,1.56,1.56,0,0,1-.45.73,2.12,2.12,0,0,1-.8.45c-.33.12-.74.23-1.22.35l-1.17.28-.83-2.59.9-.21a2.17,2.17,0,0,0,.72-.28.6.6,0,0,0,.21-.54V19.38l-5.6.73.58-7.73,2-.29,2.11-.34,2.14-.39c.72-.13,1.4-.27,2.07-.41s1.28-.27,1.87-.41,1.1-.26,1.56-.39L87,12.78l-2.07.47c-.77.18-1.57.34-2.42.51s-1.71.33-2.59.49l-2.58.45-.18,2.55,2.59-.34V14.69l2.78-.3v2.15l4.93-.65v2.47Zm2.71-.22q.27.29.66.78l.83,1.08c.29.39.58.79.86,1.2s.53.81.76,1.18l-2.36,1.82c-.18-.35-.4-.74-.65-1.16s-.51-.82-.79-1.23-.54-.78-.81-1.14-.51-.67-.72-.91Z"/></g></g></g></g></svg>