<svg xmlns="http://www.w3.org/2000/svg" viewBox="0 0 101 129"><defs><style>.cls-1{fill:#333;}.cls-2{fill:none;stroke:#333;stroke-linejoin:round;}.cls-3{opacity:0.16;}</style></defs><title>2-183</title><g id="图层_2" data-name="图层 2"><g id="_2-177_2-190" data-name="2-177——2-190"><g id="_2-183" data-name="2-183"><path class="cls-1" d="M53,50.46v30h-.88v-30Z"/><path class="cls-1" d="M78.8,80.46h-1L69.6,66.54c-.8,0-1.43.08-1.88.08H60.6V80.46h-.88v-30h8q5.11,0,7.88,2.12a7.2,7.2,0,0,1,2.76,6.08,7,7,0,0,1-2,5.26,10,10,0,0,1-5.82,2.5ZM67.6,65.78q4.75,0,7.32-1.84a6.11,6.11,0,0,0,2.56-5.28,6.39,6.39,0,0,0-2.56-5.46q-2.57-1.91-7.32-1.9h-7V65.78Z"/><polygon class="cls-2" points="0.5 64.5 100.5 128.5 100.5 0.5 0.5 64.5"/><g class="cls-3"><path d="M32.28,69.29c-.17.37-.39.79-.65,1.25s-.54.95-.84,1.44-.6,1-.9,1.43-.59.88-.85,1.25L26.7,73.54c.27-.37.56-.77.87-1.22s.61-.9.89-1.36.55-.91.79-1.36.44-.83.59-1.18Zm4-1.85v4.12a4.1,4.1,0,0,1-.13,1.17,1.74,1.74,0,0,1-.45.73,2.42,2.42,0,0,1-.81.46c-.33.11-.73.23-1.21.34l-1.17.29L31.66,72l.9-.22a2.73,2.73,0,0,0,.72-.27.65.65,0,0,0,.2-.55V67.81l-5.59.74.58-7.74c.62-.08,1.28-.18,2-.29s1.4-.22,2.11-.34l2.14-.39c.71-.13,1.4-.27,2.06-.41S38,59.11,38.62,59s1.11-.26,1.57-.39l.55,2.63-2.08.48c-.76.17-1.57.34-2.41.5l-2.6.49-2.58.45-.17,2.55,2.58-.34V63.13l2.78-.31V65l4.93-.65v2.47ZM39,67.22c.17.19.39.45.65.78s.54.69.83,1.08.58.79.86,1.2.54.81.77,1.18l-2.36,1.82c-.18-.35-.4-.74-.65-1.15s-.51-.83-.79-1.24l-.81-1.14c-.27-.36-.51-.66-.73-.91Z"/><path d="M57.8,62.4v2.21L43.16,66.54V64.32l3.27-.43.25-1-2.39.31V61.34L47.13,61l.21-.87-3.4.44V58.35L57,56.62v2.2l-6.85.9L50,60.6l6-.79-.15,2.85ZM44.61,67.06l11.75-1.55v5.63L44.61,72.69Zm2.59,3.09,6.44-.84V68l-6.44.85Zm2.08-6.63L53.15,63l.07-.95-3.71.49Z"/><path d="M64.49,65.05c-.17.37-.39.79-.65,1.25s-.54,1-.84,1.44-.6,1-.9,1.43-.59.88-.85,1.25l-2.34-1.13c.27-.36.56-.76.87-1.21s.61-.9.9-1.36.55-.91.79-1.36.43-.83.58-1.18Zm4-1.85v4.12a4.05,4.05,0,0,1-.14,1.17,1.56,1.56,0,0,1-.45.73,2.12,2.12,0,0,1-.8.45c-.33.12-.74.23-1.22.35l-1.17.29-.83-2.6.9-.21a2.17,2.17,0,0,0,.72-.28.6.6,0,0,0,.21-.54V63.57l-5.6.74.58-7.74c.62-.08,1.28-.18,2-.29s1.4-.22,2.11-.34l2.14-.39c.72-.13,1.4-.27,2.07-.41s1.28-.27,1.87-.41,1.1-.26,1.56-.39L73,57l-2.07.48c-.77.17-1.57.34-2.42.5s-1.71.33-2.59.49l-2.58.45-.18,2.55,2.59-.34V58.88l2.78-.3v2.15l4.93-.65v2.47ZM71.19,63q.27.29.66.78l.83,1.08c.29.39.58.79.86,1.2s.53.81.76,1.18L71.94,69c-.18-.35-.4-.74-.65-1.16s-.51-.82-.79-1.23-.54-.78-.81-1.14-.51-.66-.72-.91Z"/></g></g></g></g></svg>