<svg xmlns="http://www.w3.org/2000/svg" viewBox="0 0 129 91.35"><defs><style>.cls-1{fill:none;stroke:#333;stroke-linejoin:round;}.cls-2{opacity:0.16;}.cls-3{fill:#333;}</style></defs><title>2-181</title><g id="图层_2" data-name="图层 2"><g id="_2-177_2-190" data-name="2-177——2-190"><g id="_2-181" data-name="2-181"><polygon class="cls-1" points="69.34 90.85 0.5 41.37 65.04 0.5 128.5 41.37 69.34 90.85"/><g class="cls-2"><path d="M46.28,50.46c-.17.37-.39.79-.65,1.26s-.54,1-.84,1.44-.6,1-.9,1.43L43,55.84,40.7,54.71c.27-.36.56-.76.87-1.21s.61-.9.89-1.36.55-.92.79-1.36.44-.84.59-1.18Zm4-1.84v4.12a4.1,4.1,0,0,1-.13,1.17,1.81,1.81,0,0,1-.45.73,2.25,2.25,0,0,1-.81.45c-.33.12-.73.23-1.21.35l-1.17.28-.83-2.59.9-.21a2.37,2.37,0,0,0,.72-.28.63.63,0,0,0,.2-.55V49l-5.59.73L42.47,42c.62-.08,1.28-.17,2-.28l2.11-.34L48.69,41l2.06-.41c.66-.14,1.29-.27,1.87-.41l1.57-.39.55,2.63-2.08.47-2.41.51-2.6.49-2.58.45-.17,2.55,2.58-.35V44.3l2.78-.3v2.15l4.93-.65V48ZM53,48.39c.17.2.39.46.65.79s.54.69.83,1.08.58.79.86,1.2.54.81.77,1.18l-2.36,1.82c-.18-.35-.4-.74-.65-1.16s-.51-.83-.79-1.23l-.81-1.14c-.27-.36-.51-.67-.73-.91Z"/><path d="M71.8,43.57v2.21L57.16,47.71V45.5l3.27-.43.25-1-2.39.32V42.52l2.84-.37.21-.88-3.4.45v-2.2L71,37.8V40l-6.85.9-.21.87L70,41l-.15,2.85ZM58.61,48.24l11.75-1.55v5.63L58.61,53.87Zm2.59,3.09,6.44-.85V49.2L61.2,50Zm2.08-6.64,3.87-.51.07-1-3.71.49Z"/><path d="M78.49,46.22c-.17.37-.39.79-.65,1.26s-.54,1-.84,1.44-.6,1-.9,1.42-.59.88-.85,1.25l-2.34-1.12c.27-.36.56-.76.87-1.21s.61-.9.9-1.36.55-.92.79-1.36.43-.84.58-1.18Zm4-1.84V48.5a4.1,4.1,0,0,1-.14,1.17,1.61,1.61,0,0,1-.45.73,2.27,2.27,0,0,1-.8.45c-.33.12-.74.23-1.22.35l-1.17.28-.83-2.59.9-.21a2.41,2.41,0,0,0,.72-.28.62.62,0,0,0,.21-.55v-3.1l-5.6.73.58-7.74c.62-.08,1.28-.17,2-.28l2.11-.34,2.14-.39L83,36.32c.66-.14,1.28-.27,1.87-.41l1.56-.39L87,38.15l-2.07.47-2.42.51-2.59.49-2.58.45-.18,2.54,2.59-.34V40.06l2.78-.3v2.15l4.93-.65v2.47Zm2.71-.23c.18.2.4.46.66.79L86.68,46c.29.39.58.79.86,1.2s.53.8.76,1.18l-2.36,1.82c-.18-.36-.4-.74-.65-1.16s-.51-.83-.79-1.23-.54-.78-.81-1.15-.51-.66-.72-.9Z"/></g><path class="cls-3" d="M82.74,67.94H81.27l-6.4-17.66H54.13l-6.4,17.66H46.26l17.47-48h1.54ZM64.44,22.06l-9.8,26.88H74.36l-9.8-26.88Z"/></g></g></g></svg>