<svg xmlns="http://www.w3.org/2000/svg" viewBox="0 0 129 91.35"><defs><style>.cls-1{fill:none;stroke:#333;stroke-linejoin:round;}.cls-2{opacity:0.16;}.cls-3{fill:#333;}</style></defs><title>2-180</title><g id="图层_2" data-name="图层 2"><g id="_2-177_2-190" data-name="2-177——2-190"><g id="_2-180" data-name="2-180"><polygon class="cls-1" points="69.34 90.85 0.5 41.37 65.04 0.5 128.5 41.37 69.34 90.85"/><g class="cls-2"><path d="M46.28,50.46c-.17.37-.39.79-.65,1.26s-.54,1-.84,1.44-.6,1-.9,1.43L43,55.84,40.7,54.71c.27-.36.56-.76.87-1.21s.61-.9.89-1.36.55-.92.79-1.36.44-.84.59-1.18Zm4-1.84v4.12a4.1,4.1,0,0,1-.13,1.17,1.81,1.81,0,0,1-.45.73,2.25,2.25,0,0,1-.81.45c-.33.12-.73.23-1.21.35l-1.17.28-.83-2.59.9-.21a2.37,2.37,0,0,0,.72-.28.63.63,0,0,0,.2-.55V49l-5.59.73L42.47,42c.62-.08,1.28-.17,2-.28l2.11-.34L48.69,41l2.06-.41c.66-.14,1.29-.27,1.87-.41l1.57-.39.55,2.63-2.08.47-2.41.51-2.6.49-2.58.45-.17,2.55,2.58-.35V44.3l2.78-.3v2.15l4.93-.65V48ZM53,48.39c.17.2.39.46.65.79s.54.69.83,1.08.58.79.86,1.2.54.81.77,1.18l-2.36,1.82c-.18-.35-.4-.74-.65-1.16s-.51-.83-.79-1.23l-.81-1.14c-.27-.36-.51-.67-.73-.91Z"/><path d="M71.8,43.57v2.21L57.16,47.71V45.5l3.27-.43.25-1-2.39.32V42.52l2.84-.37.21-.88-3.4.45v-2.2L71,37.8V40l-6.85.9-.21.87L70,41l-.15,2.85ZM58.61,48.24l11.75-1.55v5.63L58.61,53.87Zm2.59,3.09,6.44-.85V49.2L61.2,50Zm2.08-6.64,3.87-.51.07-1-3.71.49Z"/><path d="M78.49,46.22c-.17.37-.39.79-.65,1.26s-.54,1-.84,1.44-.6,1-.9,1.42-.59.88-.85,1.25l-2.34-1.12c.27-.36.56-.76.87-1.21s.61-.9.9-1.36.55-.92.79-1.36.43-.84.58-1.18Zm4-1.84V48.5a4.1,4.1,0,0,1-.14,1.17,1.61,1.61,0,0,1-.45.73,2.27,2.27,0,0,1-.8.45c-.33.12-.74.23-1.22.35l-1.17.28-.83-2.59.9-.21a2.41,2.41,0,0,0,.72-.28.62.62,0,0,0,.21-.55v-3.1l-5.6.73.58-7.74c.62-.08,1.28-.17,2-.28l2.11-.34,2.14-.39L83,36.32c.66-.14,1.28-.27,1.87-.41l1.56-.39L87,38.15l-2.07.47-2.42.51-2.59.49-2.58.45-.18,2.54,2.59-.34V40.06l2.78-.3v2.15l4.93-.65v2.47Zm2.71-.23c.18.2.4.46.66.79L86.68,46c.29.39.58.79.86,1.2s.53.8.76,1.18l-2.36,1.82c-.18-.36-.4-.74-.65-1.16s-.51-.83-.79-1.23-.54-.78-.81-1.15-.51-.66-.72-.9Z"/></g><path class="cls-3" d="M67.92,42.79a15.47,15.47,0,0,1,9.28,3.87,10.82,10.82,0,0,1,3.4,8.16,11.08,11.08,0,0,1-5,9.73q-5,3.39-14.18,3.39H50.2v-48H61.27q8.06,0,12.38,3A9.68,9.68,0,0,1,78,31.4a10.71,10.71,0,0,1-2.75,7.33,12.36,12.36,0,0,1-7.3,3.93ZM51.6,21.29v20.8H62.93q6.27,0,9.95-2.82a9.2,9.2,0,0,0,3.68-7.74,8.57,8.57,0,0,0-4-7.59q-4-2.65-11.48-2.65ZM61.08,66.6q8.7,0,13.4-3a9.79,9.79,0,0,0,4.71-8.74,9.59,9.59,0,0,0-4.32-8.44q-4.32-3-11.94-3H51.6V66.6Z"/></g></g></g></svg>