<svg xmlns="http://www.w3.org/2000/svg" viewBox="0 0 129 43.66"><defs><style>.cls-1{fill:#333;}.cls-2{fill:none;stroke:#333;stroke-linejoin:round;}.cls-3{opacity:0.16;}</style></defs><title>2-186</title><g id="图层_2" data-name="图层 2"><g id="_2-177_2-190" data-name="2-177——2-190"><g id="_2-186" data-name="2-186"><path class="cls-1" d="M57.68,0V18.05h-.93V0Z"/><path class="cls-1" d="M73.5,18.05H72.37L67.55,9.89l-.91,0h-4v8.14h-.93V0h4.89A7.79,7.79,0,0,1,71.4,1.31,4.41,4.41,0,0,1,73.09,5,4.43,4.43,0,0,1,71.93,8.2a5.88,5.88,0,0,1-3.37,1.57Zm-7-9a7.13,7.13,0,0,0,4.17-1A3.39,3.39,0,0,0,72.11,5a3.52,3.52,0,0,0-1.47-3A7,7,0,0,0,66.47.91H62.6V9Z"/><path class="cls-1" d="M12.81,36h-1V18.83h-6v-.91h13v.91h-6Z"/><path class="cls-1" d="M22.43,29.53,26.87,36H25.75l-3.89-5.76L18,36H16.84l4.49-6.53-4.15-6h1.1l3.65,5.37,3.55-5.37h1.08Z"/><rect class="cls-2" x="0.5" y="9.83" width="33.15" height="33.15"/><path class="cls-1" d="M112.69,36.15h-1.13L106.74,28c-.19,0-.5,0-.91,0h-4v8.14h-.93v-18h4.89a7.79,7.79,0,0,1,4.84,1.31,4.41,4.41,0,0,1,1.69,3.71,4.43,4.43,0,0,1-1.16,3.18,5.82,5.82,0,0,1-3.37,1.57Zm-7-9a7.13,7.13,0,0,0,4.17-1,3.39,3.39,0,0,0,1.47-2.95,3.54,3.54,0,0,0-1.47-3A7,7,0,0,0,105.66,19h-3.87V27.1Z"/><path class="cls-1" d="M119.22,29.72l4.44,6.43h-1.13l-3.89-5.76-3.89,5.76h-1.12l4.48-6.53-4.15-6h1.11L118.71,29l3.56-5.38h1.08Z"/><rect class="cls-2" x="95.35" y="10.01" width="33.15" height="33.15"/><line class="cls-2" x1="33.65" y1="26.4" x2="46.17" y2="26.4"/><line class="cls-2" x1="50.78" y1="26.59" x2="95.35" y2="26.59"/><g class="cls-3"><path d="M46.28,25.3c-.17.37-.39.79-.65,1.26s-.54,1-.84,1.44-.6,1-.9,1.42-.59.88-.85,1.25L40.7,29.55c.27-.36.56-.76.87-1.21s.61-.9.89-1.36.55-.92.79-1.36.44-.84.59-1.18Zm4-1.84v4.12a4.15,4.15,0,0,1-.13,1.17,1.81,1.81,0,0,1-.45.73,2.25,2.25,0,0,1-.81.45c-.33.12-.73.23-1.21.35l-1.17.28L45.66,28l.9-.21a2.37,2.37,0,0,0,.72-.28.63.63,0,0,0,.2-.55v-3.1l-5.59.73.58-7.74c.62-.08,1.28-.17,2-.28l2.11-.34,2.14-.39,2.06-.41c.66-.14,1.29-.27,1.87-.41l1.57-.39.55,2.63-2.08.47-2.41.51-2.6.49-2.58.45-.17,2.54,2.58-.34V19.14l2.78-.3V21l4.93-.65v2.47ZM53,23.23c.17.2.39.46.65.79s.54.69.83,1.08.58.79.86,1.2.54.81.77,1.18L53.73,29.3c-.18-.36-.4-.74-.65-1.16s-.51-.83-.79-1.23l-.81-1.14a10.64,10.64,0,0,0-.73-.91Z"/><path d="M71.8,18.41v2.21L57.16,22.55V20.34l3.27-.43.25-1-2.39.32V17.36L61.13,17l.21-.88-3.4.45v-2.2L71,12.64v2.2l-6.85.9-.21.87,6-.79-.15,2.86ZM58.61,23.08l11.75-1.55v5.63L58.61,28.71Zm2.59,3.09,6.44-.85V24l-6.44.84Zm2.08-6.64L67.15,19l.07-.95-3.71.49Z"/><path d="M78.49,21.06c-.17.37-.39.79-.65,1.26s-.54.95-.84,1.44-.6,1-.9,1.42-.59.88-.85,1.25l-2.34-1.12c.27-.36.56-.76.87-1.21s.61-.9.9-1.36.55-.92.79-1.36.43-.84.58-1.18Zm4-1.84v4.12a4.1,4.1,0,0,1-.14,1.17,1.61,1.61,0,0,1-.45.73,2.27,2.27,0,0,1-.8.45c-.33.11-.74.23-1.22.35l-1.17.28-.83-2.59.9-.21a2.41,2.41,0,0,0,.72-.28.62.62,0,0,0,.21-.55v-3.1l-5.6.73.58-7.74c.62-.08,1.28-.17,2-.28L78.76,12l2.14-.39L83,11.16c.66-.14,1.28-.27,1.87-.41l1.56-.39L87,13l-2.07.47L82.46,14l-2.59.48-2.58.46-.18,2.54,2.59-.34V14.9l2.78-.3v2.15l4.93-.65v2.47ZM85.19,19c.18.2.4.46.66.79l.83,1.07c.29.4.58.8.86,1.21s.53.8.76,1.18l-2.36,1.82c-.18-.36-.4-.74-.65-1.16s-.51-.83-.79-1.23-.54-.78-.81-1.15-.51-.66-.72-.9Z"/></g></g></g></g></svg>