<svg xmlns="http://www.w3.org/2000/svg" viewBox="0 0 129 77.94"><defs><style>.cls-1{fill:none;}.cls-1,.cls-3{stroke:#333;stroke-linejoin:round;}.cls-2{opacity:0.16;}.cls-3{fill:#333;}</style></defs><title>2-195</title><g id="图层_2" data-name="图层 2"><g id="_2-191_2-204" data-name="2-191——2-204"><g id="_2-195" data-name="2-195"><rect class="cls-1" x="0.5" y="0.5" width="99.78" height="76.94"/><line class="cls-1" x1="71" y1="39.47" x2="95" y2="39.47"/><polygon class="cls-1" points="41.37 50.99 8.91 62.41 8.91 7.11 41.37 7.11 41.37 50.99"/><polyline class="cls-1" points="30.55 54.76 30.55 66.02 22.14 66.02 22.14 58.01"/><rect class="cls-1" x="48.29" y="20.64" width="22.24" height="36.67"/><g class="cls-2"><path d="M46.28,43.76c-.17.37-.39.79-.65,1.25s-.54,1-.84,1.44-.6,1-.9,1.43-.59.88-.85,1.25L40.7,48c.27-.37.56-.77.87-1.22s.61-.9.89-1.36.55-.91.79-1.36.44-.83.59-1.18Zm4-1.85V46a4.1,4.1,0,0,1-.13,1.17,1.74,1.74,0,0,1-.45.73,2.42,2.42,0,0,1-.81.46c-.33.11-.73.22-1.21.34L46.49,49l-.83-2.59.9-.22a2.73,2.73,0,0,0,.72-.27.65.65,0,0,0,.2-.55V42.28L41.89,43l.58-7.74c.62-.08,1.28-.18,2-.29s1.4-.22,2.11-.34l2.14-.39c.71-.13,1.4-.27,2.06-.41s1.29-.27,1.87-.41,1.11-.26,1.57-.39l.55,2.63-2.08.48c-.76.17-1.57.34-2.41.5l-2.6.49-2.58.45-.17,2.55,2.58-.34V37.6l2.78-.31v2.15l4.93-.65v2.47ZM53,41.69c.17.19.39.45.65.78s.54.69.83,1.08.58.79.86,1.2.54.81.77,1.18l-2.36,1.82c-.18-.35-.4-.74-.65-1.15s-.51-.83-.79-1.24l-.81-1.14c-.27-.36-.51-.66-.73-.91Z"/><path d="M71.8,36.87v2.21L57.16,41V38.79l3.27-.43.25-1-2.39.31V35.81l2.84-.37.21-.87-3.4.44V32.82L71,31.09v2.2l-6.85.9-.21.88,6-.79-.15,2.85ZM58.61,41.53,70.36,40v5.63L58.61,47.16Zm2.59,3.09,6.44-.84V42.49l-6.44.85ZM63.28,38l3.87-.51.07-.95L63.51,37Z"/><path d="M78.49,39.52c-.17.37-.39.79-.65,1.25s-.54.95-.84,1.44-.6,1-.9,1.43-.59.88-.85,1.25l-2.34-1.13c.27-.36.56-.76.87-1.21s.61-.9.9-1.36.55-.91.79-1.36.43-.83.58-1.18Zm4-1.85v4.12A4.05,4.05,0,0,1,82.34,43a1.56,1.56,0,0,1-.45.73,2.12,2.12,0,0,1-.8.45c-.33.12-.74.23-1.22.35l-1.17.29-.83-2.6.9-.21a2.17,2.17,0,0,0,.72-.28.6.6,0,0,0,.21-.54V38l-5.6.74L74.68,31c.62-.08,1.28-.18,2-.29s1.4-.22,2.11-.34L80.9,30c.72-.13,1.4-.27,2.07-.41s1.28-.27,1.87-.41,1.1-.26,1.56-.39L87,31.44l-2.07.48c-.77.17-1.57.34-2.42.5s-1.71.33-2.59.49l-2.58.45-.18,2.55,2.59-.34V33.35l2.78-.3V35.2l4.93-.65V37Zm2.71-.22q.27.28.66.78l.83,1.08c.29.39.58.79.86,1.2s.53.81.76,1.18l-2.36,1.82c-.18-.35-.4-.74-.65-1.16s-.51-.82-.79-1.23S84,40.34,83.69,40s-.51-.66-.72-.91Z"/></g><line class="cls-1" x1="70.53" y1="20.64" x2="100.58" y2="0.8"/><line class="cls-1" x1="70.23" y1="57" x2="100.28" y2="77.44"/><polygon class="cls-3" points="128.5 39.47 88.5 35.47 88.5 43.47 128.5 39.47"/></g></g></g></svg>