<svg xmlns="http://www.w3.org/2000/svg" viewBox="0 0 129 88.44"><defs><style>.cls-1{fill:none;stroke:#333;stroke-linejoin:round;}.cls-2{opacity:0.16;}</style></defs><title>2-198</title><g id="图层_2" data-name="图层 2"><g id="_2-191_2-204" data-name="2-191——2-204"><g id="_2-198" data-name="2-198"><rect class="cls-1" x="0.5" y="0.5" width="128" height="87.44"/><rect class="cls-1" x="13.57" y="23.49" width="45.97" height="41.46"/><line class="cls-1" x1="13.57" y1="44.22" x2="59.54" y2="44.22"/><line class="cls-1" x1="37.01" y1="24.39" x2="37.01" y2="64.95"/><line class="cls-1" x1="70.81" y1="28.44" x2="59.99" y2="44.67"/><g class="cls-2"><path d="M46.28,49c-.17.37-.39.78-.65,1.25s-.54,1-.84,1.44-.6,1-.9,1.43S43.3,54,43,54.38L40.7,53.25c.27-.36.56-.76.87-1.21s.61-.9.89-1.36.55-.91.79-1.36.44-.84.59-1.18Zm4-1.85v4.12a4.1,4.1,0,0,1-.13,1.17,1.74,1.74,0,0,1-.45.73,2.25,2.25,0,0,1-.81.45c-.33.12-.73.23-1.21.35l-1.17.28-.83-2.59.9-.21a2.37,2.37,0,0,0,.72-.28.62.62,0,0,0,.2-.54V47.53l-5.59.74.58-7.74,2-.29,2.11-.34,2.14-.39c.71-.13,1.4-.27,2.06-.41s1.29-.27,1.87-.41,1.11-.26,1.57-.39l.55,2.63-2.08.47c-.76.18-1.57.34-2.41.51l-2.6.49-2.58.45L44.9,45.4l2.58-.34V42.84l2.78-.3v2.15L55.19,44v2.47ZM53,46.94c.17.19.39.45.65.78s.54.69.83,1.08.58.79.86,1.2.54.81.77,1.18L53.73,53c-.18-.35-.4-.74-.65-1.16s-.51-.82-.79-1.23l-.81-1.14c-.27-.36-.51-.67-.73-.91Z"/><path d="M71.8,42.11v2.22L57.16,46.25V44l3.27-.43.25-1L58.29,43V41.06l2.84-.37.21-.88-3.4.45V38.07L71,36.34v2.2l-6.85.9-.21.88,6-.79-.15,2.85ZM58.61,46.78l11.75-1.55v5.63L58.61,52.41Zm2.59,3.09L67.64,49V47.74l-6.44.85Zm2.08-6.63,3.87-.51.07-.95-3.71.48Z"/><path d="M78.49,44.76c-.17.37-.39.79-.65,1.26S77.3,47,77,47.46s-.6,1-.9,1.43-.59.88-.85,1.25L72.91,49c.27-.36.56-.76.87-1.21s.61-.9.9-1.36.55-.91.79-1.36.43-.84.58-1.18Zm4-1.84V47a4.05,4.05,0,0,1-.14,1.17,1.56,1.56,0,0,1-.45.73,2.12,2.12,0,0,1-.8.45c-.33.12-.74.23-1.22.35L78.7,50l-.83-2.59.9-.21a2.17,2.17,0,0,0,.72-.28.61.61,0,0,0,.21-.55v-3.1L74.1,44l.58-7.73,2-.29,2.11-.34,2.14-.39L83,34.86c.66-.13,1.28-.27,1.87-.41s1.1-.27,1.56-.39L87,36.69l-2.07.47c-.77.18-1.57.34-2.42.51s-1.71.33-2.59.49l-2.58.45-.18,2.55,2.59-.34V38.6l2.78-.3v2.15l4.93-.65v2.47Zm2.71-.23c.18.2.4.46.66.79l.83,1.08c.29.39.58.79.86,1.2s.53.81.76,1.18l-2.36,1.82c-.18-.35-.4-.74-.65-1.16s-.51-.82-.79-1.23-.54-.78-.81-1.14-.51-.67-.72-.91Z"/></g><line class="cls-1" x1="71.26" y1="61.35" x2="59.54" y2="44.22"/><line class="cls-1" x1="106.87" y1="31.15" x2="89.74" y2="57.29"/><line class="cls-1" x1="89.74" y1="31.15" x2="106.87" y2="57.29"/><path class="cls-1" d="M116.78,29.8c6.22,0,11.27,6.45,11.27,14.42S123,58.64,116.78,58.64"/></g></g></g></svg>