<svg xmlns="http://www.w3.org/2000/svg" viewBox="0 0 129 86.33"><defs><style>.cls-1{fill:none;stroke:#333;stroke-linejoin:round;}.cls-2{opacity:0.16;}</style></defs><title>2-193</title><g id="图层_2" data-name="图层 2"><g id="_2-191_2-204" data-name="2-191——2-204"><g id="_2-193" data-name="2-193"><rect class="cls-1" x="0.5" y="0.5" width="128" height="85.33"/><line class="cls-1" x1="71.24" y1="1.62" x2="71.24" y2="23.33"/><line class="cls-1" x1="99.68" y1="1.62" x2="99.68" y2="23.33"/><line class="cls-1" x1="71.24" y1="63" x2="71.24" y2="84.71"/><line class="cls-1" x1="99.68" y1="63" x2="99.68" y2="84.71"/><rect class="cls-1" x="12.1" y="25.58" width="44.16" height="37.43"/><g class="cls-2"><path d="M46.28,48c-.17.37-.39.79-.65,1.26s-.54.95-.84,1.44-.6,1-.9,1.43L43,53.33,40.7,52.2c.27-.36.56-.76.87-1.21s.61-.9.89-1.36.55-.92.79-1.36.44-.84.59-1.18Zm4-1.84v4.12a4.1,4.1,0,0,1-.13,1.17,1.81,1.81,0,0,1-.45.73,2.25,2.25,0,0,1-.81.45c-.33.12-.73.23-1.21.35l-1.17.28-.83-2.59.9-.21a2.37,2.37,0,0,0,.72-.28.63.63,0,0,0,.2-.55v-3.1l-5.59.73.58-7.74c.62-.08,1.28-.17,2-.28l2.11-.34,2.14-.39,2.06-.41c.66-.14,1.29-.27,1.87-.41l1.57-.39.55,2.63-2.08.47-2.41.51-2.6.49-2.58.45-.17,2.55L47.48,44V41.79l2.78-.3v2.15L55.19,43v2.47ZM53,45.88c.17.2.39.46.65.79s.54.69.83,1.08.58.79.86,1.2.54.81.77,1.18L53.73,52c-.18-.35-.4-.74-.65-1.16s-.51-.83-.79-1.23l-.81-1.14c-.27-.36-.51-.67-.73-.91Z"/><path d="M71.8,41.06v2.21L57.16,45.2V43l3.27-.43.25-1-2.39.32V40l2.84-.37.21-.88-3.4.45V37L71,35.29v2.2l-6.85.9-.21.87,6-.78-.15,2.85ZM58.61,45.73l11.75-1.55v5.63L58.61,51.36Zm2.59,3.09L67.64,48V46.69l-6.44.84Zm2.08-6.64,3.87-.51.07-1-3.71.49Z"/><path d="M78.49,43.71c-.17.37-.39.79-.65,1.26s-.54,1-.84,1.44-.6,1-.9,1.42-.59.88-.85,1.25L72.91,48c.27-.36.56-.76.87-1.21s.61-.9.9-1.36.55-.92.79-1.36.43-.84.58-1.18Zm4-1.84V46a4.1,4.1,0,0,1-.14,1.17,1.61,1.61,0,0,1-.45.73,2.27,2.27,0,0,1-.8.45c-.33.12-.74.23-1.22.35L78.7,49l-.83-2.59.9-.21a2.41,2.41,0,0,0,.72-.28.62.62,0,0,0,.21-.55v-3.1L74.1,43l.58-7.74c.62-.08,1.28-.17,2-.28l2.11-.34,2.14-.39L83,33.81c.66-.14,1.28-.27,1.87-.41L86.4,33,87,35.64l-2.07.47-2.42.51-2.59.49-2.58.45-.18,2.54,2.59-.34V37.55l2.78-.3V39.4l4.93-.65v2.47Zm2.71-.23c.18.2.4.46.66.79l.83,1.08c.29.39.58.79.86,1.2s.53.81.76,1.18l-2.36,1.82c-.18-.36-.4-.74-.65-1.16s-.51-.83-.79-1.23-.54-.78-.81-1.14-.51-.67-.72-.91Z"/></g><rect class="cls-1" x="20.34" y="31.56" width="26.95" height="23.2"/></g></g></g></svg>