<svg xmlns="http://www.w3.org/2000/svg" viewBox="0 0 129 43.66"><defs><style>.cls-1{fill:#333;}.cls-2{fill:none;stroke:#333;stroke-linejoin:round;}.cls-3{opacity:0.16;}</style></defs><title>2-190</title><g id="图层_2" data-name="图层 2"><g id="_2-177_2-190" data-name="2-177——2-190"><g id="_2-190" data-name="2-190"><path class="cls-1" d="M52.24,0V17.14h9.57v.91H51.3V0Z"/><path class="cls-1" d="M64.26,18.05V0h5Q73.63,0,76,2.35A9,9,0,0,1,78.35,9a8.84,8.84,0,0,1-2.44,6.68C74.29,17.26,72,18.05,69,18.05Zm4.68-.91A8.64,8.64,0,0,0,75.19,15a8,8,0,0,0,2.17-6,8.07,8.07,0,0,0-2.12-6A8.33,8.33,0,0,0,69.13.91H65.2V17.14Z"/><rect class="cls-2" x="0.5" y="9.83" width="33.15" height="33.15"/><rect class="cls-2" x="95.35" y="10.01" width="33.15" height="33.15"/><line class="cls-2" x1="33.65" y1="26.4" x2="46.17" y2="26.4"/><line class="cls-2" x1="50.78" y1="26.59" x2="95.35" y2="26.59"/><g class="cls-3"><path d="M46.28,24.76c-.17.37-.39.79-.65,1.26s-.54.94-.84,1.43-.6,1-.9,1.43-.59.88-.85,1.25L40.7,29c.27-.36.56-.77.87-1.21s.61-.91.89-1.37.55-.91.79-1.35.44-.84.59-1.19Zm4-1.84V27a4.23,4.23,0,0,1-.13,1.18,1.77,1.77,0,0,1-.45.72,2.42,2.42,0,0,1-.81.46c-.33.11-.73.23-1.21.34L46.49,30l-.83-2.59.9-.22a2.73,2.73,0,0,0,.72-.27.65.65,0,0,0,.2-.55V23.28L41.89,24l.58-7.74,2-.28c.69-.11,1.4-.22,2.11-.35l2.14-.38,2.06-.41,1.87-.41c.59-.14,1.11-.27,1.57-.4l.55,2.63-2.08.48c-.76.17-1.57.34-2.41.5l-2.6.49-2.58.46-.17,2.54,2.58-.34V18.6l2.78-.3v2.14l4.93-.64v2.47ZM53,22.69c.17.19.39.46.65.78s.54.69.83,1.08.58.79.86,1.21.54.8.77,1.17l-2.36,1.83c-.18-.36-.4-.74-.65-1.16s-.51-.83-.79-1.23l-.81-1.15c-.27-.36-.51-.66-.73-.9Z"/><path d="M71.8,17.87v2.21L57.16,22V19.8l3.27-.43.25-1-2.39.32V16.82l2.84-.38.21-.87-3.4.45v-2.2L71,12.1v2.19l-6.85.91-.21.87,6-.79-.15,2.85ZM58.61,22.53,70.36,21v5.63L58.61,28.16Zm2.59,3.1,6.44-.85V23.49l-6.44.85ZM63.28,19l3.87-.51.07-.95L63.51,18Z"/><path d="M78.49,20.52c-.17.37-.39.79-.65,1.26s-.54.94-.84,1.43-.6,1-.9,1.43-.59.88-.85,1.25l-2.34-1.12c.27-.36.56-.77.87-1.21s.61-.91.9-1.37.55-.91.79-1.35.43-.84.58-1.19Zm4-1.84v4.11A4.18,4.18,0,0,1,82.34,24a1.58,1.58,0,0,1-.45.72,2.28,2.28,0,0,1-.8.46c-.33.11-.74.23-1.22.34l-1.17.29-.83-2.59.9-.22a2.46,2.46,0,0,0,.72-.27.63.63,0,0,0,.21-.55V19l-5.6.74L74.68,12l2-.28,2.11-.35L80.9,11,83,10.62l1.87-.41c.58-.14,1.1-.27,1.56-.4L87,12.44l-2.07.48c-.77.17-1.57.34-2.42.5s-1.71.33-2.59.49l-2.58.45-.18,2.55,2.59-.34V14.36l2.78-.3V16.2l4.93-.65V18Zm2.71-.23q.27.29.66.78l.83,1.08c.29.39.58.79.86,1.21s.53.8.76,1.17l-2.36,1.83c-.18-.36-.4-.75-.65-1.16s-.51-.83-.79-1.23S84,21.34,83.69,21s-.51-.66-.72-.9Z"/></g></g></g></g></svg>