<svg xmlns="http://www.w3.org/2000/svg" viewBox="0 0 129 82.83"><defs><style>.cls-1{fill:none;stroke:#333;stroke-linejoin:round;}.cls-2{opacity:0.16;}</style></defs><title>2-202</title><g id="图层_2" data-name="图层 2"><g id="_2-191_2-204" data-name="2-191——2-204"><g id="_2-202" data-name="2-202"><rect class="cls-1" x="73.64" y="34.04" width="11.66" height="19.29"/><polygon class="cls-1" points="96.96 64.59 85.3 53.74 85.3 34.45 96.96 22.79 96.96 64.59"/><g class="cls-2"><path d="M46.28,46.2c-.17.37-.39.79-.65,1.26s-.54.95-.84,1.43-.6,1-.9,1.43-.59.88-.85,1.25L40.7,50.45c.27-.36.56-.76.87-1.21s.61-.9.89-1.36.55-.92.79-1.36.44-.84.59-1.18Zm4-1.84v4.11a4.23,4.23,0,0,1-.13,1.18,1.77,1.77,0,0,1-.45.72,2.26,2.26,0,0,1-.81.46c-.33.11-.73.23-1.21.35l-1.17.28-.83-2.59.9-.22a2.73,2.73,0,0,0,.72-.27.64.64,0,0,0,.2-.55V44.72l-5.59.74.58-7.74c.62-.08,1.28-.17,2-.28l2.11-.34,2.14-.39,2.06-.41c.66-.14,1.29-.27,1.87-.41l1.57-.39.55,2.62-2.08.48-2.41.51-2.6.48-2.58.46-.17,2.54,2.58-.34V40l2.78-.3v2.15l4.93-.65v2.47ZM53,44.13c.17.2.39.46.65.79s.54.68.83,1.07.58.8.86,1.21.54.8.77,1.17L53.73,50.2c-.18-.36-.4-.74-.65-1.16s-.51-.83-.79-1.23l-.81-1.15c-.27-.36-.51-.66-.73-.9Z"/><path d="M71.8,39.31v2.21L57.16,43.45V41.24l3.27-.43.25-1-2.39.32V38.26l2.84-.38.21-.87-3.4.45v-2.2L71,33.54v2.2l-6.85.9-.21.87,6-.79-.15,2.85ZM58.61,44l11.75-1.55v5.63L58.61,49.61Zm2.59,3.09,6.44-.85V44.93l-6.44.85Zm2.08-6.64,3.87-.51.07-1-3.71.49Z"/><path d="M78.49,42c-.17.37-.39.79-.65,1.26s-.54.94-.84,1.43-.6,1-.9,1.43-.59.88-.85,1.25l-2.34-1.12c.27-.36.56-.77.87-1.21s.61-.91.9-1.37.55-.91.79-1.35.43-.84.58-1.19Zm4-1.84v4.11a4.18,4.18,0,0,1-.14,1.18,1.58,1.58,0,0,1-.45.72,2.28,2.28,0,0,1-.8.46c-.33.11-.74.23-1.22.35l-1.17.28-.83-2.59.9-.22a2.46,2.46,0,0,0,.72-.27.63.63,0,0,0,.21-.55V40.48l-5.6.74.58-7.74c.62-.08,1.28-.17,2-.28s1.4-.22,2.11-.35l2.14-.38L83,32.06l1.87-.41,1.56-.39L87,33.88l-2.07.48c-.77.17-1.57.34-2.42.5s-1.71.33-2.59.49l-2.58.46-.18,2.54L79.7,38V35.8l2.78-.3v2.15L87.41,37v2.47Zm2.71-.23c.18.19.4.46.66.78l.83,1.08c.29.39.58.8.86,1.21s.53.8.76,1.17L85.94,46c-.18-.36-.4-.74-.65-1.16s-.51-.83-.79-1.23-.54-.79-.81-1.15-.51-.66-.72-.9Z"/></g><circle class="cls-1" cx="45.58" cy="42.73" r="17.55"/><line class="cls-1" x1="32.48" y1="54.5" x2="58.69" y2="30.96"/><line class="cls-1" x1="58.69" y1="54.5" x2="32.48" y2="30.96"/><polygon class="cls-1" points="128.5 82.33 0.5 82.33 32.04 0.5 96.96 0.5 128.5 82.33"/></g></g></g></svg>