<svg xmlns="http://www.w3.org/2000/svg" viewBox="0 0 129 104"><defs><style>.cls-1{fill:none;stroke:#333;stroke-linejoin:round;}.cls-2{fill:#333;}.cls-3{opacity:0.16;}</style></defs><title>2-201</title><g id="图层_2" data-name="图层 2"><g id="_2-191_2-204" data-name="2-191——2-204"><g id="_2-201" data-name="2-201"><rect class="cls-1" x="0.5" y="18" width="128" height="68"/><line class="cls-1" x1="64.5" y1="104" x2="64.5" y2="86"/><line class="cls-1" x1="64.5" y1="18" x2="64.5"/><path class="cls-2" d="M48.61,70.35h-1v-35H35.27v-1H60.9v1H48.61Z"/><path class="cls-2" d="M71,36.85A13.9,13.9,0,0,0,65.87,43a22.59,22.59,0,0,0-1.8,9.36,22.85,22.85,0,0,0,1.77,9.36,14,14,0,0,0,5.07,6.15A13.7,13.7,0,0,0,78.61,70,15,15,0,0,0,90,64.74V53.89H80.63V52.83H91V65.12Q85.58,71,78.61,71a14.91,14.91,0,0,1-8.28-2.28,14.66,14.66,0,0,1-5.42-6.48A23.81,23.81,0,0,1,63,52.35,23.43,23.43,0,0,1,65,42.46,14.79,14.79,0,0,1,70.48,36a15.31,15.31,0,0,1,8.42-2.28,14.1,14.1,0,0,1,6,1.3,13.19,13.19,0,0,1,4.78,3.69l-.77.77a11.78,11.78,0,0,0-4.37-3.53,13.13,13.13,0,0,0-5.66-1.22A14.23,14.23,0,0,0,71,36.85Z"/><g class="cls-3"><path d="M46.28,56.79c-.17.37-.39.79-.65,1.25s-.54,1-.84,1.44-.6,1-.9,1.43-.59.88-.85,1.25L40.7,61c.27-.37.56-.77.87-1.22s.61-.9.89-1.36.55-.91.79-1.36.44-.83.59-1.18Zm4-1.85v4.12a4.1,4.1,0,0,1-.13,1.17,1.74,1.74,0,0,1-.45.73,2.42,2.42,0,0,1-.81.46c-.33.11-.73.23-1.21.34l-1.17.29-.83-2.59.9-.22a2.73,2.73,0,0,0,.72-.27.65.65,0,0,0,.2-.55V55.31l-5.59.74.58-7.74c.62-.08,1.28-.18,2-.29s1.4-.22,2.11-.34l2.14-.39c.71-.13,1.4-.27,2.06-.41s1.29-.27,1.87-.41,1.11-.26,1.57-.39l.55,2.63-2.08.48c-.76.17-1.57.34-2.41.5l-2.6.49-2.58.45-.17,2.55,2.58-.34V50.63l2.78-.31v2.15l4.93-.65v2.47ZM53,54.72c.17.19.39.45.65.78s.54.69.83,1.08.58.79.86,1.2.54.81.77,1.18l-2.36,1.82c-.18-.35-.4-.74-.65-1.15s-.51-.83-.79-1.24l-.81-1.14c-.27-.36-.51-.66-.73-.91Z"/><path d="M71.8,49.9v2.21L57.16,54V51.82l3.27-.43.25-1-2.39.31V48.84l2.84-.37.21-.87-3.4.44V45.85L71,44.12v2.2l-6.85.9L64,48.1l6-.79-.15,2.85ZM58.61,54.56,70.36,53v5.63L58.61,60.19Zm2.59,3.09,6.44-.84V55.52l-6.44.85ZM63.28,51l3.87-.51.07-.95-3.71.49Z"/><path d="M78.49,52.55c-.17.37-.39.79-.65,1.25s-.54,1-.84,1.44-.6,1-.9,1.43-.59.88-.85,1.25l-2.34-1.13c.27-.36.56-.76.87-1.21s.61-.9.9-1.36.55-.91.79-1.36.43-.83.58-1.18Zm4-1.85v4.12A4.05,4.05,0,0,1,82.34,56a1.56,1.56,0,0,1-.45.73,2.12,2.12,0,0,1-.8.45c-.33.12-.74.23-1.22.35l-1.17.29-.83-2.6.9-.21a2.17,2.17,0,0,0,.72-.28.6.6,0,0,0,.21-.54V51.07l-5.6.74.58-7.74c.62-.08,1.28-.18,2-.29s1.4-.22,2.11-.34l2.14-.39c.72-.13,1.4-.27,2.07-.41s1.28-.27,1.87-.41,1.1-.26,1.56-.39L87,44.47,84.88,45c-.77.17-1.57.34-2.42.5s-1.71.33-2.59.49l-2.58.45-.18,2.55,2.59-.34V46.38l2.78-.3v2.15l4.93-.65v2.47Zm2.71-.22q.27.29.66.78l.83,1.08c.29.39.58.79.86,1.2s.53.81.76,1.18l-2.36,1.82c-.18-.35-.4-.74-.65-1.16s-.51-.82-.79-1.23S84,53.37,83.69,53s-.51-.66-.72-.91Z"/></g></g></g></g></svg>