<svg xmlns="http://www.w3.org/2000/svg" viewBox="0 0 129 127.03"><defs><style>.cls-1{fill:none;stroke:#333;stroke-linejoin:round;}.cls-2{opacity:0.16;}</style></defs><title>2-206</title><g id="图层_2" data-name="图层 2"><g id="_2-205_2-218" data-name="2-205——2-218"><g id="_2-206" data-name="2-206"><ellipse class="cls-1" cx="64.01" cy="71.88" rx="45.78" ry="54.65"/><g class="cls-2"><path d="M46.28,68.3c-.17.37-.39.79-.65,1.26s-.54,1-.84,1.44-.6,1-.9,1.42-.59.88-.85,1.25L40.7,72.55c.27-.36.56-.76.87-1.21s.61-.9.89-1.36.55-.92.79-1.36.44-.84.59-1.18Zm4-1.84v4.12a4.15,4.15,0,0,1-.13,1.17,1.81,1.81,0,0,1-.45.73,2.41,2.41,0,0,1-.81.45c-.33.12-.73.23-1.21.35l-1.17.28L45.66,71l.9-.21a2.67,2.67,0,0,0,.72-.28.64.64,0,0,0,.2-.55v-3.1l-5.59.73.58-7.74c.62-.08,1.28-.17,2-.28l2.11-.34,2.14-.39,2.06-.41c.66-.14,1.29-.27,1.87-.41l1.57-.39.55,2.63-2.08.47-2.41.51-2.6.48-2.58.46-.17,2.54,2.58-.34V62.14l2.78-.3V64l4.93-.65v2.47ZM53,66.23c.17.2.39.46.65.79s.54.69.83,1.08.58.79.86,1.2.54.8.77,1.18L53.73,72.3c-.18-.36-.4-.74-.65-1.16s-.51-.83-.79-1.23l-.81-1.15c-.27-.36-.51-.66-.73-.9Z"/><path d="M71.8,61.41v2.21L57.16,65.55V63.34l3.27-.43.25-1-2.39.32V60.36L61.13,60l.21-.88-3.4.45v-2.2L71,55.64v2.2l-6.85.9-.21.87,6-.79-.15,2.85ZM58.61,66.08l11.75-1.55v5.63L58.61,71.71Zm2.59,3.09,6.44-.85V67l-6.44.84Zm2.08-6.64L67.15,62l.07-1-3.71.49Z"/><path d="M78.49,64.06c-.17.37-.39.79-.65,1.26s-.54,1-.84,1.43-.6,1-.9,1.43-.59.88-.85,1.25l-2.34-1.12c.27-.36.56-.76.87-1.21s.61-.9.9-1.36.55-.92.79-1.36.43-.84.58-1.18Zm4-1.84v4.11a4.18,4.18,0,0,1-.14,1.18,1.58,1.58,0,0,1-.45.72,2.13,2.13,0,0,1-.8.46c-.33.11-.74.23-1.22.35l-1.17.28-.83-2.59.9-.22a2.46,2.46,0,0,0,.72-.27.62.62,0,0,0,.21-.55V62.58l-5.6.74.58-7.74c.62-.08,1.28-.17,2-.28L78.76,55l2.14-.39L83,54.16c.66-.14,1.28-.27,1.87-.41l1.56-.39L87,56l-2.07.48L82.46,57l-2.59.48-2.58.46-.18,2.54,2.59-.34V57.9l2.78-.3v2.15l4.93-.65v2.47ZM85.19,62c.18.2.4.46.66.79l.83,1.07c.29.39.58.8.86,1.21s.53.8.76,1.18l-2.36,1.82c-.18-.36-.4-.74-.65-1.16s-.51-.83-.79-1.23-.54-.79-.81-1.15-.51-.66-.72-.9Z"/></g><path class="cls-1" d="M18.22,71.39.5,70.41C.5,31.8,29.15.5,64.5.5s64,31.3,64,69.91l-18.71,1"/></g></g></g></svg>