<svg xmlns="http://www.w3.org/2000/svg" viewBox="0 0 129 128.69"><defs><style>.cls-1{fill:none;stroke:#333;stroke-linejoin:round;}.cls-2{fill:#333;}.cls-3{opacity:0.16;}</style></defs><title>2-214</title><g id="图层_2" data-name="图层 2"><g id="_2-205_2-218" data-name="2-205——2-218"><g id="_2-214" data-name="2-214"><polygon class="cls-1" points="121.57 128.19 6.37 128.19 32.95 44.99 93.72 44.99 121.57 128.19"/><path class="cls-2" d="M56.85,102.12a13.75,13.75,0,0,1-5-3.84l.82-.62a12.65,12.65,0,0,0,4.7,3.57,14.14,14.14,0,0,0,5.86,1.28,14.87,14.87,0,0,0,5.69-1,9.23,9.23,0,0,0,4-2.9,6.82,6.82,0,0,0,1.44-4.27,6.92,6.92,0,0,0-1.13-4.06,9,9,0,0,0-3.5-2.78,40.68,40.68,0,0,0-6.51-2.38A32.47,32.47,0,0,1,57.5,83,10.37,10.37,0,0,1,53.8,80a7.3,7.3,0,0,1-1.42-4.61,8.5,8.5,0,0,1,1.42-4.84,9.15,9.15,0,0,1,4-3.27,14.94,14.94,0,0,1,6.07-1.15,14,14,0,0,1,6,1.27,12.35,12.35,0,0,1,4.6,3.67l-.81.63a11.82,11.82,0,0,0-4.39-3.43,13.07,13.07,0,0,0-5.45-1.13,12.89,12.89,0,0,0-5.21,1,9.21,9.21,0,0,0-3.77,2.9,6.82,6.82,0,0,0-1.39,4.18,6.7,6.7,0,0,0,1.32,4.27,9.21,9.21,0,0,0,3.48,2.67,39.23,39.23,0,0,0,5.42,1.89,35.06,35.06,0,0,1,7,2.62,9.56,9.56,0,0,1,3.65,3.09A7.49,7.49,0,0,1,75.42,94a8.47,8.47,0,0,1-3.16,7c-2.12,1.68-5.12,2.52-9,2.52A14.83,14.83,0,0,1,56.85,102.12Z"/><g class="cls-3"><path d="M46.28,69.13c-.17.37-.39.79-.65,1.26s-.54.94-.84,1.43-.6,1-.9,1.43-.59.88-.85,1.25L40.7,73.38c.27-.36.56-.77.87-1.21s.61-.9.89-1.36.55-.92.79-1.36.44-.84.59-1.19Zm4-1.84V71.4a4.23,4.23,0,0,1-.13,1.18,1.77,1.77,0,0,1-.45.72,2.42,2.42,0,0,1-.81.46c-.33.11-.73.23-1.21.35l-1.17.28-.83-2.59.9-.22a2.73,2.73,0,0,0,.72-.27.64.64,0,0,0,.2-.55V67.65l-5.59.74.58-7.74c.62-.08,1.28-.17,2-.28L46.55,60l2.14-.39,2.06-.41c.66-.14,1.29-.27,1.87-.41l1.57-.39.55,2.62-2.08.48c-.76.17-1.57.34-2.41.5l-2.6.49L45.07,63l-.17,2.54,2.58-.34V63l2.78-.3v2.15l4.93-.65v2.47ZM53,67.06c.17.2.39.46.65.79s.54.68.83,1.07.58.8.86,1.21.54.8.77,1.17l-2.36,1.83c-.18-.36-.4-.74-.65-1.16s-.51-.83-.79-1.23l-.81-1.15c-.27-.36-.51-.66-.73-.9Z"/><path d="M71.8,62.24v2.21L57.16,66.38V64.17l3.27-.43.25-1-2.39.32V61.19l2.84-.38.21-.87-3.4.45v-2.2L71,56.47v2.2l-6.85.9-.21.87,6-.79L69.8,62.5ZM58.61,66.91l11.75-1.55V71L58.61,72.53ZM61.2,70l6.44-.85V67.86l-6.44.85Zm2.08-6.64,3.87-.51.07-1-3.71.49Z"/><path d="M78.49,64.89c-.17.37-.39.79-.65,1.26s-.54.94-.84,1.43-.6,1-.9,1.43-.59.88-.85,1.25l-2.34-1.12c.27-.36.56-.77.87-1.21s.61-.91.9-1.37.55-.91.79-1.35.43-.84.58-1.19Zm4-1.84v4.11a4.18,4.18,0,0,1-.14,1.18,1.58,1.58,0,0,1-.45.72,2.28,2.28,0,0,1-.8.46c-.33.11-.74.23-1.22.35l-1.17.28-.83-2.59.9-.22a2.46,2.46,0,0,0,.72-.27.63.63,0,0,0,.21-.55V63.41l-5.6.74.58-7.74c.62-.08,1.28-.17,2-.28s1.4-.22,2.11-.35l2.14-.38L83,55l1.87-.41,1.56-.39L87,56.81l-2.07.48c-.77.17-1.57.34-2.42.5s-1.71.33-2.59.49l-2.58.46-.18,2.54,2.59-.34V58.73l2.78-.3v2.14l4.93-.64V62.4Zm2.71-.23c.18.19.4.46.66.78l.83,1.08c.29.39.58.79.86,1.21s.53.8.76,1.17l-2.36,1.83c-.18-.36-.4-.74-.65-1.16s-.51-.83-.79-1.23-.54-.79-.81-1.15-.51-.66-.72-.9Z"/></g><path class="cls-1" d="M100.24,64.5H128.5a64,64,0,0,0-128,0H26.72"/></g></g></g></svg>