<svg xmlns="http://www.w3.org/2000/svg" viewBox="0 0 106.98 128"><defs><style>.cls-1{fill:#333;}.cls-2{fill:none;stroke:#333;stroke-linejoin:round;}.cls-3{opacity:0.16;}</style></defs><title>2-215</title><g id="图层_2" data-name="图层 2"><g id="_2-205_2-218" data-name="2-205——2-218"><g id="_2-215" data-name="2-215"><path class="cls-1" d="M22.4,28.13V0h7.31q6.95,0,10.67,3.64t3.74,10.43q0,6.78-3.81,10.42t-10.9,3.64Zm6.9-.79q6.75,0,10.37-3.43t3.62-9.84q0-6.42-3.54-9.85T29.6.79H23.22V27.34Z"/><path class="cls-1" d="M43.77,128h-.86l-3.75-10.35H27L23.26,128h-.87L32.63,99.87h.9ZM33.05,101.11l-5.74,15.75H38.86l-5.74-15.75Z"/><path class="cls-1" d="M96.71,44.65c3.3,0,5.84.7,7.61,2.12a7.23,7.23,0,0,1,2.66,6,7.18,7.18,0,0,1-2.66,6q-2.66,2.1-7.61,2.1H90V72.78h-.82V44.65ZM96.6,60.1q4.61,0,7.08-1.89a6.43,6.43,0,0,0,2.48-5.42,6.46,6.46,0,0,0-2.48-5.46c-1.65-1.26-4-1.9-7.08-1.9H90V60.1Z"/><rect class="cls-2" x="0.5" y="35.79" width="79.71" height="56.26"/><g class="cls-3"><path d="M35.52,68.79c-.17.37-.39.79-.65,1.25s-.54.95-.84,1.44-.6,1-.9,1.43-.59.88-.85,1.25L29.94,73c.27-.37.56-.77.87-1.22s.61-.9.9-1.36.55-.91.79-1.36.43-.83.58-1.18Zm4-1.85v4.12a4.05,4.05,0,0,1-.14,1.17,1.56,1.56,0,0,1-.45.73,2.28,2.28,0,0,1-.8.46c-.33.11-.74.23-1.22.34l-1.17.29-.83-2.59.9-.22a2.59,2.59,0,0,0,.72-.27.63.63,0,0,0,.2-.55V67.31l-5.59.74.58-7.74c.62-.08,1.28-.18,2-.29s1.4-.22,2.11-.34l2.14-.39c.71-.13,1.4-.27,2.06-.41s1.29-.27,1.88-.41,1.1-.26,1.56-.39L44,60.71l-2.07.48c-.77.17-1.57.34-2.42.5l-2.59.49-2.58.45-.18,2.55,2.58-.34V62.63l2.79-.31v2.15l4.93-.65v2.47Zm2.71-.22c.18.19.39.45.65.78s.54.69.83,1.08.58.79.87,1.2.53.81.76,1.18L43,72.78c-.18-.35-.4-.74-.65-1.15s-.51-.83-.79-1.24-.55-.78-.81-1.14-.51-.66-.73-.91Z"/><path d="M61.05,61.9v2.21L46.41,66V63.82l3.27-.43.24-1-2.39.31V60.84l2.84-.37.22-.87-3.4.44V57.85l13.08-1.73v2.2l-6.85.9-.21.88,6-.79-.14,2.85Zm-13.2,4.66L59.6,65v5.63L47.85,72.19Zm2.59,3.09,6.44-.84V67.52l-6.44.85ZM52.52,63l3.87-.51.07-.95-3.71.49Z"/><path d="M67.73,64.55c-.17.37-.39.79-.65,1.25s-.54,1-.83,1.44-.6,1-.91,1.43-.58.88-.84,1.25l-2.35-1.13c.27-.36.56-.76.87-1.21s.61-.9.9-1.36.55-.91.79-1.36.43-.83.58-1.18Zm4-1.85v4.12A4.05,4.05,0,0,1,71.58,68a1.56,1.56,0,0,1-.45.73,2.12,2.12,0,0,1-.8.45c-.33.12-.74.23-1.21.35L68,69.81l-.83-2.6L68,67a2.17,2.17,0,0,0,.72-.28.6.6,0,0,0,.21-.54V63.07l-5.6.74.59-7.74c.62-.08,1.27-.18,2-.29s1.39-.22,2.1-.34,1.43-.25,2.14-.39,1.41-.27,2.07-.41,1.28-.27,1.87-.41,1.11-.26,1.56-.39l.55,2.63L74.12,57c-.76.17-1.57.34-2.42.5s-1.71.33-2.59.49l-2.58.45-.18,2.55,2.59-.34V58.38l2.78-.3v2.15l4.93-.65v2.47Zm2.72-.22c.17.19.39.45.65.78l.83,1.08c.29.39.58.79.86,1.2s.54.81.76,1.18l-2.35,1.82c-.19-.35-.41-.74-.66-1.16s-.51-.82-.78-1.23-.55-.78-.82-1.14-.5-.66-.72-.91Z"/></g><line class="cls-2" x1="12.22" y1="92.05" x2="12.22" y2="110.81"/><line class="cls-2" x1="12.22" y1="17.03" x2="12.22" y2="35.79"/><line class="cls-2" x1="98.96" y1="80.33" x2="80.21" y2="80.33"/></g></g></g></svg>