<svg xmlns="http://www.w3.org/2000/svg" viewBox="0 0 129 129"><defs><style>.cls-1{fill:none;stroke:#333;stroke-linejoin:round;}.cls-2{opacity:0.16;}.cls-3{fill:#333;}</style></defs><title>2-212</title><g id="图层_2" data-name="图层 2"><g id="_2-205_2-218" data-name="2-205——2-218"><g id="_2-212" data-name="2-212"><rect class="cls-1" x="0.5" y="0.5" width="128" height="128"/><polygon class="cls-1" points="0.5 128.5 0.5 0.5 128.5 0.5 0.5 128.5"/><g class="cls-2"><path d="M46.28,69.29c-.17.37-.39.79-.65,1.25s-.54.95-.84,1.44-.6,1-.9,1.43-.59.88-.85,1.25L40.7,73.54c.27-.37.56-.77.87-1.22s.61-.9.89-1.36.55-.91.79-1.36.44-.83.59-1.18Zm4-1.85v4.12a4.1,4.1,0,0,1-.13,1.17,1.74,1.74,0,0,1-.45.73,2.42,2.42,0,0,1-.81.46c-.33.11-.73.23-1.21.34l-1.17.29L45.66,72l.9-.22a2.73,2.73,0,0,0,.72-.27.65.65,0,0,0,.2-.55V67.81l-5.59.74.58-7.74c.62-.08,1.28-.18,2-.29s1.4-.22,2.11-.34l2.14-.39c.71-.13,1.4-.27,2.06-.41S52,59.11,52.62,59s1.11-.26,1.57-.39l.55,2.63-2.08.48c-.76.17-1.57.34-2.41.5l-2.6.49-2.58.45-.17,2.55,2.58-.34V63.13l2.78-.31V65l4.93-.65v2.47ZM53,67.22c.17.19.39.45.65.78s.54.69.83,1.08.58.79.86,1.2.54.81.77,1.18l-2.36,1.82c-.18-.35-.4-.74-.65-1.15s-.51-.83-.79-1.24l-.81-1.14c-.27-.36-.51-.66-.73-.91Z"/><path d="M71.8,62.4v2.21L57.16,66.54V64.32l3.27-.43.25-1-2.39.31V61.34L61.13,61l.21-.87-3.4.44V58.35L71,56.62v2.2l-6.85.9L64,60.6l6-.79-.15,2.85ZM58.61,67.06l11.75-1.55v5.63L58.61,72.69Zm2.59,3.09,6.44-.84V68l-6.44.85Zm2.08-6.63L67.15,63l.07-.95-3.71.49Z"/><path d="M78.49,65.05c-.17.37-.39.79-.65,1.25s-.54,1-.84,1.44-.6,1-.9,1.43-.59.88-.85,1.25l-2.34-1.13c.27-.36.56-.76.87-1.21s.61-.9.9-1.36.55-.91.79-1.36.43-.83.58-1.18Zm4-1.85v4.12a4.05,4.05,0,0,1-.14,1.17,1.56,1.56,0,0,1-.45.73,2.12,2.12,0,0,1-.8.45c-.33.12-.74.23-1.22.35l-1.17.29-.83-2.6.9-.21a2.17,2.17,0,0,0,.72-.28.6.6,0,0,0,.21-.54V63.57l-5.6.74.58-7.74c.62-.08,1.28-.18,2-.29s1.4-.22,2.11-.34l2.14-.39c.72-.13,1.4-.27,2.07-.41s1.28-.27,1.87-.41,1.1-.26,1.56-.39L87,57l-2.07.48c-.77.17-1.57.34-2.42.5s-1.71.33-2.59.49l-2.58.45-.18,2.55,2.59-.34V58.88l2.78-.3v2.15l4.93-.65v2.47ZM85.19,63q.27.29.66.78l.83,1.08c.29.39.58.79.86,1.2s.53.81.76,1.18L85.94,69c-.18-.35-.4-.74-.65-1.16s-.51-.82-.79-1.23-.54-.78-.81-1.14-.51-.66-.72-.91Z"/></g><path class="cls-3" d="M27,60a17.35,17.35,0,0,1-5.85-7.2A25,25,0,0,1,19,42.28a24.88,24.88,0,0,1,2.1-10.43A17.19,17.19,0,0,1,27,24.68,14.68,14.68,0,0,1,35.5,22.1,14.68,14.68,0,0,1,44,24.68a17.19,17.19,0,0,1,5.85,7.17A24.88,24.88,0,0,1,52,42.28a25,25,0,0,1-2.1,10.48A17.35,17.35,0,0,1,44,60a14.63,14.63,0,0,1-8.53,2.6A14.63,14.63,0,0,1,27,60ZM43.43,59a16,16,0,0,0,5.46-6.81,24.11,24.11,0,0,0,2-9.93,23.79,23.79,0,0,0-2-9.85,16,16,0,0,0-5.46-6.79,14.11,14.11,0,0,0-15.86,0,16,16,0,0,0-5.46,6.79,23.79,23.79,0,0,0-1.95,9.85,24.11,24.11,0,0,0,1.95,9.93A16,16,0,0,0,27.57,59a14.06,14.06,0,0,0,15.86,0Z"/><path class="cls-3" d="M87.43,88v18.72H108.9v1.09H86.28v-39h21.89v1.09H87.43v17H107V88Z"/></g></g></g></svg>