<svg xmlns="http://www.w3.org/2000/svg" viewBox="0 0 128 125.57"><defs><style>.cls-1{fill:#333;}.cls-2{fill:none;stroke:#333;stroke-linejoin:round;}.cls-3{opacity:0.16;}</style></defs><title>2-216</title><g id="图层_2" data-name="图层 2"><g id="_2-205_2-218" data-name="2-205——2-218"><g id="_2-216" data-name="2-216"><path class="cls-1" d="M62.41,27.48V0h7.15Q76.32,0,80,3.55t3.65,10.19q0,6.63-3.72,10.19T69.26,27.48Zm6.74-.77q6.6,0,10.13-3.35t3.54-9.62q0-6.27-3.46-9.62T69.44.77H63.22V26.71Z"/><path class="cls-1" d="M38.76,124.51A10.39,10.39,0,0,1,35,121.57l.63-.47a9.67,9.67,0,0,0,3.59,2.73,10.75,10.75,0,0,0,4.47,1A11.27,11.27,0,0,0,48,124a7,7,0,0,0,3-2.22,5.65,5.65,0,0,0,.24-6.35,6.87,6.87,0,0,0-2.67-2.13,31.2,31.2,0,0,0-5-1.81,24.83,24.83,0,0,1-4.38-1.6,7.9,7.9,0,0,1-2.82-2.25,5.57,5.57,0,0,1-1.08-3.52,6.49,6.49,0,0,1,1.08-3.7,6.91,6.91,0,0,1,3.08-2.49,11.35,11.35,0,0,1,4.63-.88,10.61,10.61,0,0,1,4.55,1,9.58,9.58,0,0,1,3.52,2.8l-.63.48a9,9,0,0,0-3.35-2.62,10,10,0,0,0-4.16-.86,9.74,9.74,0,0,0-4,.79,6.92,6.92,0,0,0-2.88,2.21A5.23,5.23,0,0,0,36.16,104a5.11,5.11,0,0,0,1,3.26,7,7,0,0,0,2.66,2A28.7,28.7,0,0,0,44,110.76a26.93,26.93,0,0,1,5.35,2,7.37,7.37,0,0,1,2.79,2.36,5.75,5.75,0,0,1,.84,3.16,6.47,6.47,0,0,1-2.42,5.36q-2.42,1.94-6.89,1.93A11.47,11.47,0,0,1,38.76,124.51Z"/><path class="cls-1" d="M17.48,41.65h-.95L9.05,28.9C8.32,29,7.74,29,7.33,29H.81V41.65H0V14.17H7.33c3.13,0,5.53.64,7.22,1.94a6.61,6.61,0,0,1,2.53,5.57,6.46,6.46,0,0,1-1.85,4.82,9.22,9.22,0,0,1-5.34,2.29ZM7.22,28.2a11.43,11.43,0,0,0,6.71-1.68,5.61,5.61,0,0,0,2.34-4.84,5.84,5.84,0,0,0-2.34-5,11.13,11.13,0,0,0-6.71-1.74H.81V28.2Z"/><path class="cls-1" d="M128,71.1h-1.06l-12.61-15L111.44,59V71.1h-.81V43.62h.81V57.87l14.32-14.25h1.18l-12,11.91Z"/><rect class="cls-2" x="23.84" y="34.97" width="77.87" height="54.97"/><g class="cls-3"><path d="M45.78,67.57c-.17.37-.39.79-.65,1.26s-.54.94-.84,1.43-.6,1-.9,1.43-.59.88-.85,1.25L40.2,71.82c.27-.36.56-.77.87-1.21s.61-.9.89-1.36.55-.92.79-1.36.44-.84.59-1.19Zm4-1.84v4.11A4.23,4.23,0,0,1,49.63,71a1.77,1.77,0,0,1-.45.72,2.42,2.42,0,0,1-.81.46c-.33.11-.73.23-1.21.35L46,72.83l-.83-2.59.9-.22a2.73,2.73,0,0,0,.72-.27.64.64,0,0,0,.2-.55V66.09l-5.59.74L42,59.09c.62-.08,1.28-.17,2-.28l2.11-.34,2.14-.39,2.06-.41c.66-.14,1.29-.27,1.87-.41l1.57-.39.55,2.62L52.16,60l-2.41.51-2.6.48-2.58.46L44.4,64,47,63.62V61.41l2.78-.3v2.15l4.93-.65v2.47Zm2.72-.23c.17.2.39.46.65.79s.54.68.83,1.07.58.8.86,1.21.54.8.77,1.17l-2.36,1.83c-.18-.36-.4-.74-.65-1.16s-.51-.83-.79-1.23L51,68c-.27-.36-.51-.66-.73-.9Z"/><path d="M71.3,60.68v2.21L56.66,64.82V62.61l3.27-.43.25-1-2.39.32V59.63l2.84-.38.21-.87-3.4.45v-2.2l13.08-1.72v2.2l-6.85.9-.21.87,6-.79-.15,2.85ZM58.11,65.35,69.86,63.8v5.63L58.11,71Zm2.59,3.09,6.44-.85V66.3l-6.44.85Zm2.08-6.64,3.87-.51.07-.95L63,60.83Z"/><path d="M78,63.33c-.17.37-.39.79-.65,1.26s-.54.94-.84,1.43-.6,1-.9,1.43-.59.88-.85,1.25l-2.34-1.12c.27-.36.56-.77.87-1.21s.61-.91.9-1.37.55-.91.79-1.35.43-.84.58-1.19Zm4-1.84V65.6a4.18,4.18,0,0,1-.14,1.18,1.58,1.58,0,0,1-.45.72,2.28,2.28,0,0,1-.8.46c-.33.11-.74.23-1.22.35l-1.17.28L77.37,66l.9-.22a2.46,2.46,0,0,0,.72-.27A.63.63,0,0,0,79.2,65V61.85l-5.6.74.58-7.74c.62-.08,1.28-.17,2-.28s1.4-.22,2.11-.35l2.14-.38,2.07-.41L84.34,53l1.56-.39.55,2.62-2.07.48c-.77.17-1.57.34-2.42.5s-1.71.33-2.59.49l-2.58.46-.18,2.54,2.59-.34V57.17l2.78-.3V59l4.93-.64v2.47Zm2.71-.23c.18.19.4.46.66.78l.83,1.08c.29.39.58.8.86,1.21s.53.8.76,1.17l-2.36,1.83c-.18-.36-.4-.74-.65-1.16s-.51-.83-.79-1.23-.54-.79-.81-1.15-.51-.66-.72-.9Z"/></g><line class="cls-2" x1="62.77" y1="89.93" x2="62.77" y2="108.26"/><line class="cls-2" x1="90.26" y1="16.64" x2="90.26" y2="34.97"/><line class="cls-2" x1="23.84" y1="46.42" x2="5.51" y2="46.42"/><line class="cls-2" x1="120.03" y1="78.48" x2="101.71" y2="78.48"/></g></g></g></svg>