<svg xmlns="http://www.w3.org/2000/svg" viewBox="0 0 128 41"><defs><style>.cls-1{fill:none;stroke:#333;stroke-linejoin:round;}.cls-2{fill:#333;}.cls-3{opacity:0.16;}</style></defs><title>2-219</title><g id="图层_2" data-name="图层 2"><g id="_2-219_2-233" data-name="2-219——2-233"><g id="_2-219" data-name="2-219"><rect class="cls-1" x="36" y="0.5" width="56" height="40"/><line class="cls-1" x1="128" y1="20.5" x2="92" y2="20.5"/><line class="cls-1" x1="36" y1="20.5" y2="20.5"/><path class="cls-2" d="M64.66,33.1H63.38V10.25h-8V9H72.66v1.21h-8Z"/><g class="cls-3"><path d="M45.78,26.16c-.17.37-.39.79-.65,1.26s-.54.95-.84,1.44-.6,1-.9,1.42-.59.88-.85,1.25L40.2,30.41c.27-.36.56-.76.87-1.21s.61-.9.89-1.36.55-.92.79-1.36.44-.84.59-1.18Zm4-1.84v4.12a4.15,4.15,0,0,1-.13,1.17,1.81,1.81,0,0,1-.45.73,2.41,2.41,0,0,1-.81.45c-.33.12-.73.23-1.21.35L46,31.42l-.83-2.59.9-.21a2.37,2.37,0,0,0,.72-.28.64.64,0,0,0,.2-.55v-3.1l-5.59.73L42,17.68c.62-.08,1.28-.17,2-.28l2.11-.34,2.14-.39,2.06-.41c.66-.14,1.29-.27,1.87-.41l1.57-.39.55,2.63-2.08.47-2.41.51-2.6.49L44.57,20l-.17,2.54L47,22.21V20l2.78-.3v2.15l4.93-.65v2.47Zm2.72-.23c.17.2.39.46.65.79s.54.69.83,1.08.58.79.86,1.2.54.81.77,1.18l-2.36,1.82c-.18-.36-.4-.74-.65-1.16s-.51-.83-.79-1.23L51,26.63a10.64,10.64,0,0,0-.73-.91Z"/><path d="M71.3,19.27v2.21L56.66,23.41V21.2l3.27-.43.25-1-2.39.32V18.22l2.84-.37.21-.88-3.4.45v-2.2L70.52,13.5v2.2l-6.85.9-.21.87,6-.79-.15,2.85ZM58.11,23.94l11.75-1.55V28L58.11,29.57ZM60.7,27l6.44-.85V24.9l-6.44.84Zm2.08-6.64,3.87-.51.07-.95L63,19.42Z"/><path d="M78,21.92c-.17.37-.39.79-.65,1.26s-.54.95-.84,1.44-.6,1-.9,1.42-.59.88-.85,1.25l-2.34-1.12c.27-.36.56-.76.87-1.21s.61-.9.9-1.36.55-.92.79-1.36.43-.84.58-1.18Zm4-1.84V24.2a4.1,4.1,0,0,1-.14,1.17,1.61,1.61,0,0,1-.45.73,2.27,2.27,0,0,1-.8.45c-.33.11-.74.23-1.22.35l-1.17.28-.83-2.59.9-.22A2.2,2.2,0,0,0,79,24.1a.62.62,0,0,0,.21-.55v-3.1l-5.6.73.58-7.74c.62-.08,1.28-.17,2-.28l2.11-.34,2.14-.39L82.47,12c.66-.14,1.28-.27,1.87-.41l1.56-.39.55,2.63-2.07.47L82,14.83l-2.59.48-2.58.46-.18,2.54L79.2,18V15.76l2.78-.3v2.15L86.91,17v2.47Zm2.71-.23c.18.2.4.46.66.79l.83,1.07c.29.4.58.8.86,1.21s.53.8.76,1.18l-2.36,1.82c-.18-.36-.4-.74-.65-1.16s-.51-.83-.79-1.23-.54-.78-.81-1.15-.51-.66-.72-.9Z"/></g></g></g></g></svg>