<svg xmlns="http://www.w3.org/2000/svg" viewBox="0 0 129 129"><defs><style>.cls-1{fill:none;stroke:#333;stroke-linejoin:round;}.cls-2{fill:#333;}.cls-3{opacity:0.16;}</style></defs><title>2-224</title><g id="图层_2" data-name="图层 2"><g id="_2-219_2-233" data-name="2-219——2-233"><g id="_2-224" data-name="2-224"><circle class="cls-1" cx="64.5" cy="64.5" r="64"/><line class="cls-1" x1="64.5" y1="73.85" x2="64.5" y2="128.01"/><line class="cls-1" x1="73.85" y1="81.63" x2="55.15" y2="110.19"/><line class="cls-1" x1="55.15" y1="81.63" x2="73.85" y2="110.19"/><path class="cls-2" d="M45.11,28.54A13.88,13.88,0,0,0,40,34.69a22.52,22.52,0,0,0-1.8,9.36,22.92,22.92,0,0,0,1.77,9.36A14,14,0,0,0,45,59.55a13.7,13.7,0,0,0,7.7,2.16,15,15,0,0,0,11.38-5.28V45.58H54.71v-1H65.12V56.81q-5.46,5.91-12.43,5.91a14.91,14.91,0,0,1-8.28-2.28A14.66,14.66,0,0,1,39,54a23.84,23.84,0,0,1-1.9-9.91A23.36,23.36,0,0,1,39,34.16a14.76,14.76,0,0,1,5.52-6.51A15.31,15.31,0,0,1,53,25.37a14.25,14.25,0,0,1,6,1.3,13.21,13.21,0,0,1,4.78,3.7l-.77.76a11.76,11.76,0,0,0-4.37-3.52A13,13,0,0,0,53,26.38,14.23,14.23,0,0,0,45.11,28.54Z"/><path class="cls-2" d="M81.44,62.05h-1v-35H68.1v-1H93.73v1H81.44Z"/><g class="cls-3"><path d="M46.28,69.29c-.17.37-.39.79-.65,1.25s-.54.95-.84,1.44-.6,1-.9,1.43-.59.88-.85,1.25L40.7,73.54c.27-.37.56-.77.87-1.22s.61-.9.89-1.36.55-.91.79-1.36.44-.83.59-1.18Zm4-1.85v4.12a4.1,4.1,0,0,1-.13,1.17,1.74,1.74,0,0,1-.45.73,2.42,2.42,0,0,1-.81.46c-.33.11-.73.23-1.21.34l-1.17.29L45.66,72l.9-.22a2.73,2.73,0,0,0,.72-.27.65.65,0,0,0,.2-.55V67.81l-5.59.74.58-7.74c.62-.08,1.28-.18,2-.29s1.4-.22,2.11-.34l2.14-.39c.71-.13,1.4-.27,2.06-.41S52,59.11,52.62,59s1.11-.26,1.57-.39l.55,2.63-2.08.48c-.76.17-1.57.34-2.41.5l-2.6.49-2.58.45-.17,2.55,2.58-.34V63.13l2.78-.31V65l4.93-.65v2.47ZM53,67.22c.17.19.39.45.65.78s.54.69.83,1.08.58.79.86,1.2.54.81.77,1.18l-2.36,1.82c-.18-.35-.4-.74-.65-1.15s-.51-.83-.79-1.24l-.81-1.14c-.27-.36-.51-.66-.73-.91Z"/><path d="M71.8,62.4v2.21L57.16,66.54V64.32l3.27-.43.25-1-2.39.31V61.34L61.13,61l.21-.87-3.4.44V58.35L71,56.62v2.2l-6.85.9L64,60.6l6-.79-.15,2.85ZM58.61,67.06l11.75-1.55v5.63L58.61,72.69Zm2.59,3.09,6.44-.84V68l-6.44.85Zm2.08-6.63L67.15,63l.07-.95-3.71.49Z"/><path d="M78.49,65.05c-.17.37-.39.79-.65,1.25s-.54,1-.84,1.44-.6,1-.9,1.43-.59.88-.85,1.25l-2.34-1.13c.27-.36.56-.76.87-1.21s.61-.9.9-1.36.55-.91.79-1.36.43-.83.58-1.18Zm4-1.85v4.12a4.05,4.05,0,0,1-.14,1.17,1.56,1.56,0,0,1-.45.73,2.12,2.12,0,0,1-.8.45c-.33.12-.74.23-1.22.35l-1.17.29-.83-2.6.9-.21a2.17,2.17,0,0,0,.72-.28.6.6,0,0,0,.21-.54V63.57l-5.6.74.58-7.74c.62-.08,1.28-.18,2-.29s1.4-.22,2.11-.34l2.14-.39c.72-.13,1.4-.27,2.07-.41s1.28-.27,1.87-.41,1.1-.26,1.56-.39L87,57l-2.07.48c-.77.17-1.57.34-2.42.5s-1.71.33-2.59.49l-2.58.45-.18,2.55,2.59-.34V58.88l2.78-.3v2.15l4.93-.65v2.47ZM85.19,63q.27.29.66.78l.83,1.08c.29.39.58.79.86,1.2s.53.81.76,1.18L85.94,69c-.18-.35-.4-.74-.65-1.16s-.51-.82-.79-1.23-.54-.78-.81-1.14-.51-.66-.72-.91Z"/></g></g></g></g></svg>