<svg xmlns="http://www.w3.org/2000/svg" viewBox="0 0 129 93.34"><defs><style>.cls-1{fill:none;stroke:#333;stroke-linejoin:round;}.cls-2{opacity:0.16;}</style></defs><title>2-238</title><g id="图层_2" data-name="图层 2"><g id="_2-234_2-248" data-name="2-234——2-248"><g id="_2-238" data-name="2-238"><rect class="cls-1" x="0.5" y="27.57" width="37.66" height="37.66"/><line class="cls-1" x1="38.98" y1="46.4" x2="112.67" y2="46.4"/><line class="cls-1" x1="100.66" y1="19.65" x2="128.5" y2="71.51"/><line class="cls-1" x1="128.5" x2="128.5" y2="25.65"/><line class="cls-1" x1="128.5" y1="93.34" x2="128.5" y2="71.51"/><line class="cls-1" x1="53.72" y1="27.57" x2="37.34" y2="27.57"/><g class="cls-2"><path d="M46.28,51.46c-.17.37-.39.79-.65,1.25s-.54.95-.84,1.44-.6,1-.9,1.43-.59.88-.85,1.25L40.7,55.71c.27-.37.56-.77.87-1.22s.61-.9.89-1.36.55-.91.79-1.36.44-.83.59-1.18Zm4-1.85v4.12a4.1,4.1,0,0,1-.13,1.17,1.74,1.74,0,0,1-.45.73,2.42,2.42,0,0,1-.81.46c-.33.11-.73.22-1.21.34l-1.17.29-.83-2.59.9-.22a2.73,2.73,0,0,0,.72-.27.65.65,0,0,0,.2-.55V50l-5.59.74L42.47,43c.62-.08,1.28-.18,2-.29s1.4-.22,2.11-.34L48.69,42c.71-.13,1.4-.27,2.06-.41s1.29-.27,1.87-.41,1.11-.26,1.57-.39l.55,2.63-2.08.48c-.76.17-1.57.34-2.41.5l-2.6.49-2.58.45-.17,2.55,2.58-.34V45.3L50.26,45v2.15l4.93-.65V49ZM53,49.39c.17.19.39.45.65.78s.54.69.83,1.08.58.79.86,1.2.54.81.77,1.18l-2.36,1.82c-.18-.35-.4-.74-.65-1.15s-.51-.83-.79-1.24l-.81-1.14c-.27-.36-.51-.66-.73-.91Z"/><path d="M71.8,44.56v2.22L57.16,48.71V46.49l3.27-.43.25-1-2.39.31V43.51l2.84-.37.21-.87-3.4.44V40.52L71,38.79V41l-6.85.9-.21.88L70,42l-.15,2.85ZM58.61,49.23l11.75-1.55v5.63L58.61,54.86Zm2.59,3.09,6.44-.84V50.19L61.2,51Zm2.08-6.63,3.87-.51.07-1-3.71.48Z"/><path d="M78.49,47.22c-.17.37-.39.78-.65,1.25s-.54,1-.84,1.44-.6,1-.9,1.43-.59.88-.85,1.25l-2.34-1.13c.27-.36.56-.76.87-1.21s.61-.9.9-1.36.55-.91.79-1.36.43-.83.58-1.18Zm4-1.85v4.12a4.05,4.05,0,0,1-.14,1.17,1.56,1.56,0,0,1-.45.73,2.12,2.12,0,0,1-.8.45c-.33.12-.74.23-1.22.35l-1.17.28-.83-2.59.9-.21a2.17,2.17,0,0,0,.72-.28.6.6,0,0,0,.21-.54V45.74l-5.6.74.58-7.74,2-.29,2.11-.34,2.14-.39c.72-.13,1.4-.27,2.07-.41s1.28-.27,1.87-.41,1.1-.26,1.56-.39L87,39.14l-2.07.47c-.77.18-1.57.35-2.42.51s-1.71.33-2.59.49l-2.58.45-.18,2.55,2.59-.34V41.05l2.78-.3V42.9l4.93-.65v2.47Zm2.71-.22q.27.29.66.78L86.68,47c.29.39.58.79.86,1.2s.53.81.76,1.18l-2.36,1.82c-.18-.35-.4-.74-.65-1.16s-.51-.82-.79-1.23S84,48,83.69,47.68s-.51-.66-.72-.91Z"/></g></g></g></g></svg>