<svg xmlns="http://www.w3.org/2000/svg" viewBox="0 0 129 69"><defs><style>.cls-1{fill:none;stroke:#333;stroke-linejoin:round;}.cls-2{fill:#333;}.cls-3{opacity:0.16;}</style></defs><title>2-241</title><g id="图层_2" data-name="图层 2"><g id="_2-234_2-248" data-name="2-234——2-248"><g id="_2-241" data-name="2-241"><rect class="cls-1" x="0.5" y="0.5" width="128" height="68"/><path class="cls-2" d="M37.84,34a11.63,11.63,0,0,1,7,2.9A8.12,8.12,0,0,1,47.34,43a8.31,8.31,0,0,1-3.72,7.3Q39.9,52.85,33,52.85H24.54v-36h8.3c4,0,7.13.75,9.29,2.23a7.27,7.27,0,0,1,3.24,6.36,8,8,0,0,1-2.06,5.5,9.29,9.29,0,0,1-5.47,2.95ZM25.6,17.86v15.6h8.49a12,12,0,0,0,7.47-2.11,6.92,6.92,0,0,0,2.76-5.81,6.44,6.44,0,0,0-3-5.69c-2-1.33-4.88-2-8.62-2Zm7.1,34q6.52,0,10.06-2.28A7.33,7.33,0,0,0,46.28,43,7.19,7.19,0,0,0,43,36.68c-2.16-1.48-5.14-2.21-8.95-2.21H25.6V51.84Z"/><path class="cls-2" d="M77.24,52.85h-1.1L71.34,39.6H55.79L51,52.85H49.88L63,16.85h1.15ZM63.52,18.44,56.17,38.6H71L63.61,18.44Z"/><path class="cls-2" d="M106.24,48.63a12.48,12.48,0,0,1-4.68,3.62,14.78,14.78,0,0,1-6.17,1.27A15.21,15.21,0,0,1,87,51.22a14.87,14.87,0,0,1-5.49-6.55,24.13,24.13,0,0,1-1.92-10,23.23,23.23,0,0,1,1.92-9.79A14.54,14.54,0,0,1,87,18.44a15.44,15.44,0,0,1,8.43-2.26,14.08,14.08,0,0,1,5.85,1.27,15.65,15.65,0,0,1,5,3.63l-.76.72a14.14,14.14,0,0,0-4.66-3.36,13,13,0,0,0-5.47-1.25,14.26,14.26,0,0,0-7.85,2.13A13.88,13.88,0,0,0,82.4,25.4a22.08,22.08,0,0,0-1.8,9.26,23.1,23.1,0,0,0,1.8,9.5,13.94,13.94,0,0,0,5.14,6.2,14.11,14.11,0,0,0,7.85,2.16,12,12,0,0,0,10.08-4.66Z"/><g class="cls-3"><path d="M46.28,39.29c-.17.37-.39.79-.65,1.25s-.54,1-.84,1.44-.6,1-.9,1.43-.59.88-.85,1.25L40.7,43.54c.27-.37.56-.77.87-1.22s.61-.9.89-1.36.55-.91.79-1.36.44-.83.59-1.18Zm4-1.85v4.12a4.1,4.1,0,0,1-.13,1.17,1.74,1.74,0,0,1-.45.73,2.42,2.42,0,0,1-.81.46c-.33.11-.73.23-1.21.34l-1.17.29L45.66,42l.9-.22a2.73,2.73,0,0,0,.72-.27.65.65,0,0,0,.2-.55V37.81l-5.59.74.58-7.74c.62-.08,1.28-.18,2-.29s1.4-.22,2.11-.34l2.14-.39c.71-.13,1.4-.27,2.06-.41S52,29.11,52.62,29s1.11-.26,1.57-.39l.55,2.63-2.08.48c-.76.17-1.57.34-2.41.5l-2.6.49-2.58.45-.17,2.55,2.58-.34V33.13l2.78-.31V35l4.93-.65v2.47ZM53,37.22c.17.19.39.45.65.78s.54.69.83,1.08.58.79.86,1.2.54.81.77,1.18l-2.36,1.82c-.18-.35-.4-.74-.65-1.15s-.51-.83-.79-1.24l-.81-1.14c-.27-.36-.51-.66-.73-.91Z"/><path d="M71.8,32.4v2.21L57.16,36.54V34.32l3.27-.43.25-1-2.39.31V31.34L61.13,31l.21-.87-3.4.44V28.35L71,26.62v2.2l-6.85.9L64,30.6l6-.79-.15,2.85ZM58.61,37.06l11.75-1.55v5.63L58.61,42.69Zm2.59,3.09,6.44-.84V38l-6.44.85Zm2.08-6.63L67.15,33l.07-.95-3.71.49Z"/><path d="M78.49,35.05c-.17.37-.39.79-.65,1.25s-.54,1-.84,1.44-.6,1-.9,1.43-.59.88-.85,1.25l-2.34-1.13c.27-.36.56-.76.87-1.21s.61-.9.9-1.36.55-.91.79-1.36.43-.83.58-1.18Zm4-1.85v4.12a4.05,4.05,0,0,1-.14,1.17,1.56,1.56,0,0,1-.45.73,2.12,2.12,0,0,1-.8.45c-.33.12-.74.23-1.22.35l-1.17.29-.83-2.6.9-.21a2.17,2.17,0,0,0,.72-.28.6.6,0,0,0,.21-.54V33.57l-5.6.74.58-7.74c.62-.08,1.28-.18,2-.29s1.4-.22,2.11-.34l2.14-.39c.72-.13,1.4-.27,2.07-.41s1.28-.27,1.87-.41,1.1-.26,1.56-.39L87,27l-2.07.48c-.77.17-1.57.34-2.42.5s-1.71.33-2.59.49l-2.58.45-.18,2.55,2.59-.34V28.88l2.78-.3v2.15l4.93-.65v2.47ZM85.19,33q.27.29.66.78l.83,1.08c.29.39.58.79.86,1.2s.53.81.76,1.18L85.94,39c-.18-.35-.4-.74-.65-1.16s-.51-.82-.79-1.23-.54-.78-.81-1.14-.51-.66-.72-.91Z"/></g></g></g></g></svg>