<svg xmlns="http://www.w3.org/2000/svg" viewBox="0 0 129 65.61"><defs><style>.cls-1{fill:none;stroke:#333;stroke-linejoin:round;}.cls-2{opacity:0.16;}</style></defs><title>2-259</title><g id="图层_2" data-name="图层 2"><g id="_2-249_2-262" data-name="2-249——2-262"><g id="_2-259" data-name="2-259"><rect class="cls-1" x="33.41" y="0.5" width="95.09" height="64.61"/><rect class="cls-1" x="0.5" y="32.2" width="32.91" height="32.91"/><g class="cls-2"><path d="M46.28,37.59c-.17.37-.39.79-.65,1.26s-.54.95-.84,1.44-.6,1-.9,1.42S43.3,42.59,43,43L40.7,41.84c.27-.36.56-.76.87-1.21s.61-.9.89-1.36.55-.92.79-1.36.44-.84.59-1.18Zm4-1.84v4.11A4.23,4.23,0,0,1,50.13,41a1.81,1.81,0,0,1-.45.73,2.41,2.41,0,0,1-.81.45c-.33.11-.73.23-1.21.35l-1.17.28-.83-2.59.9-.22a2.41,2.41,0,0,0,.72-.27.64.64,0,0,0,.2-.55V36.11l-5.59.74.58-7.74c.62-.08,1.28-.17,2-.28l2.11-.34,2.14-.39,2.06-.41c.66-.14,1.29-.27,1.87-.41l1.57-.39.55,2.63L52.66,30l-2.41.51-2.6.48-2.58.46L44.9,34l2.58-.34V31.43l2.78-.3v2.15l4.93-.65V35.1ZM53,35.52c.17.2.39.46.65.79l.83,1.07c.29.39.58.8.86,1.21s.54.8.77,1.18l-2.36,1.82c-.18-.36-.4-.74-.65-1.16s-.51-.83-.79-1.23l-.81-1.15c-.27-.36-.51-.66-.73-.9Z"/><path d="M71.8,30.7v2.21L57.16,34.84V32.63l3.27-.43.25-1-2.39.32V29.65l2.84-.38.21-.87-3.4.45v-2.2L71,24.93v2.2l-6.85.9L64,28.9l6-.79L69.8,31ZM58.61,35.37l11.75-1.55v5.63L58.61,41Zm2.59,3.09,6.44-.85V36.32l-6.44.85Zm2.08-6.64,3.87-.51.07-.95-3.71.49Z"/><path d="M78.49,33.35c-.17.37-.39.79-.65,1.26S77.3,35.55,77,36s-.6,1-.9,1.43-.59.88-.85,1.25L72.91,37.6c.27-.36.56-.77.87-1.21s.61-.9.9-1.36.55-.92.79-1.36.43-.84.58-1.19Zm4-1.84v4.11a4.18,4.18,0,0,1-.14,1.18,1.58,1.58,0,0,1-.45.72,2.28,2.28,0,0,1-.8.46c-.33.11-.74.23-1.22.35l-1.17.28L77.87,36l.9-.22a2.46,2.46,0,0,0,.72-.27A.62.62,0,0,0,79.7,35V31.87l-5.6.74.58-7.74c.62-.08,1.28-.17,2-.28s1.4-.22,2.11-.35,1.42-.24,2.14-.38L83,23.45c.66-.14,1.28-.27,1.87-.41l1.56-.39L87,25.27l-2.07.48c-.77.17-1.57.34-2.42.5s-1.71.33-2.59.49l-2.58.46-.18,2.54,2.59-.34V27.19l2.78-.3V29l4.93-.65v2.47Zm2.71-.23c.18.2.4.46.66.79l.83,1.07c.29.39.58.8.86,1.21s.53.8.76,1.17l-2.36,1.83c-.18-.36-.4-.74-.65-1.16s-.51-.83-.79-1.23-.54-.79-.81-1.15-.51-.66-.72-.9Z"/></g></g></g></g></svg>