<svg xmlns="http://www.w3.org/2000/svg" viewBox="0 0 129 116.81"><defs><style>.cls-1{fill:none;stroke:#333;stroke-linejoin:round;}.cls-2{opacity:0.16;}</style></defs><title>2-254</title><g id="图层_2" data-name="图层 2"><g id="_2-249_2-262" data-name="2-249——2-262"><g id="_2-254" data-name="2-254"><rect class="cls-1" x="0.5" y="0.5" width="128" height="66.46"/><polyline class="cls-1" points="92.19 116.81 92.19 24.5 63.88 44.19 36.81 24.5 36.81 116.81"/><g class="cls-2"><path d="M46.28,63.44c-.17.37-.39.79-.65,1.26s-.54.94-.84,1.43-.6,1-.9,1.43-.59.88-.85,1.25L40.7,67.69c.27-.36.56-.77.87-1.21s.61-.9.89-1.36.55-.92.79-1.36.44-.84.59-1.19Zm4-1.84v4.11a4.23,4.23,0,0,1-.13,1.18,1.77,1.77,0,0,1-.45.72,2.42,2.42,0,0,1-.81.46c-.33.11-.73.23-1.21.35l-1.17.28-.83-2.59.9-.22a2.73,2.73,0,0,0,.72-.27.64.64,0,0,0,.2-.55V62l-5.59.74L42.47,55c.62-.08,1.28-.17,2-.28s1.4-.22,2.11-.35S48,54.09,48.69,54l2.06-.41c.66-.14,1.29-.27,1.87-.41l1.57-.39.55,2.62-2.08.48c-.76.17-1.57.34-2.41.5l-2.6.49-2.58.46-.17,2.54,2.58-.34V57.28l2.78-.3v2.15l4.93-.65V61ZM53,61.37c.17.2.39.46.65.79s.54.68.83,1.07.58.8.86,1.21.54.8.77,1.17l-2.36,1.83c-.18-.36-.4-.74-.65-1.16s-.51-.83-.79-1.23l-.81-1.15c-.27-.36-.51-.66-.73-.9Z"/><path d="M71.8,56.55v2.21L57.16,60.69V58.48l3.27-.43.25-1-2.39.32V55.5l2.84-.38.21-.87-3.4.45V52.5L71,50.78V53l-6.85.9-.21.87L70,54l-.15,2.85ZM58.61,61.22l11.75-1.55V65.3L58.61,66.84Zm2.59,3.09,6.44-.85V62.17L61.2,63Zm2.08-6.64,3.87-.51.07-.95-3.71.49Z"/><path d="M78.49,59.2c-.17.37-.39.79-.65,1.26s-.54.94-.84,1.43-.6,1-.9,1.43-.59.88-.85,1.25l-2.34-1.12c.27-.36.56-.77.87-1.21s.61-.91.9-1.37.55-.91.79-1.35.43-.84.58-1.19Zm4-1.84v4.11a4.18,4.18,0,0,1-.14,1.18,1.58,1.58,0,0,1-.45.72,2.28,2.28,0,0,1-.8.46c-.33.11-.74.23-1.22.35l-1.17.28-.83-2.59.9-.22a2.46,2.46,0,0,0,.72-.27.63.63,0,0,0,.21-.55V57.72l-5.6.74.58-7.74,2-.28c.7-.11,1.4-.22,2.11-.35l2.14-.38L83,49.3l1.87-.41,1.56-.39L87,51.12l-2.07.48c-.77.17-1.57.34-2.42.5s-1.71.33-2.59.49l-2.58.46-.18,2.54,2.59-.34V53l2.78-.3v2.14l4.93-.64v2.47Zm2.71-.23c.18.19.4.46.66.78L86.68,59c.29.39.58.79.86,1.21s.53.8.76,1.17L85.94,63.2c-.18-.36-.4-.74-.65-1.16s-.51-.83-.79-1.23S84,60,83.69,59.66s-.51-.66-.72-.9Z"/></g></g></g></g></svg>