<svg xmlns="http://www.w3.org/2000/svg" viewBox="0 0 129 57.08"><defs><style>.cls-1{fill:none;stroke:#333;stroke-linejoin:round;}.cls-2{opacity:0.16;}</style></defs><title>2-257</title><g id="图层_2" data-name="图层 2"><g id="_2-249_2-262" data-name="2-249——2-262"><g id="_2-257" data-name="2-257"><rect class="cls-1" x="0.5" y="0.5" width="128" height="56.08"/><line class="cls-1" x1="0.5" y1="0.5" x2="128.5" y2="56.58"/><g class="cls-2"><path d="M46.28,33.33c-.17.37-.39.78-.65,1.25s-.54,1-.84,1.44-.6,1-.9,1.43-.59.88-.85,1.25L40.7,37.57c.27-.36.56-.76.87-1.21s.61-.9.89-1.36.55-.91.79-1.36.44-.84.59-1.18Zm4-1.85V35.6a4.1,4.1,0,0,1-.13,1.17,1.74,1.74,0,0,1-.45.73,2.25,2.25,0,0,1-.81.45c-.33.12-.73.23-1.21.35l-1.17.28L45.66,36l.9-.21a2.37,2.37,0,0,0,.72-.28.62.62,0,0,0,.2-.54V31.85l-5.59.73.58-7.73,2-.29,2.11-.34,2.14-.39c.71-.13,1.4-.27,2.06-.41S52,23.15,52.62,23s1.11-.26,1.57-.39l.55,2.63-2.08.47c-.76.18-1.57.34-2.41.51l-2.6.49-2.58.45-.17,2.55,2.58-.34V27.16l2.78-.3V29l4.93-.65v2.47ZM53,31.26c.17.19.39.45.65.78s.54.69.83,1.08.58.79.86,1.2.54.81.77,1.18l-2.36,1.82c-.18-.35-.4-.74-.65-1.16s-.51-.82-.79-1.23l-.81-1.14c-.27-.36-.51-.67-.73-.91Z"/><path d="M71.8,26.43v2.22L57.16,30.57V28.36l3.27-.43.25-1-2.39.31V25.38L61.13,25l.21-.88-3.4.45V22.39L71,20.66v2.2l-6.85.9-.21.88,6-.79L69.8,26.7ZM58.61,31.1l11.75-1.55v5.63L58.61,36.73Zm2.59,3.09,6.44-.85V32.06l-6.44.85Zm2.08-6.63,3.87-.51.07-1-3.71.49Z"/><path d="M78.49,29.08c-.17.37-.39.79-.65,1.26s-.54.95-.84,1.44-.6,1-.9,1.43-.59.88-.85,1.25l-2.34-1.13c.27-.36.56-.76.87-1.21s.61-.9.9-1.36.55-.91.79-1.36.43-.84.58-1.18Zm4-1.84v4.12a4.05,4.05,0,0,1-.14,1.17,1.56,1.56,0,0,1-.45.73,2.12,2.12,0,0,1-.8.45c-.33.12-.74.23-1.22.35l-1.17.28-.83-2.59.9-.21a2.17,2.17,0,0,0,.72-.28.61.61,0,0,0,.21-.55v-3.1l-5.6.73.58-7.74c.62-.08,1.28-.17,2-.28L78.76,20l2.14-.39L83,19.18c.66-.14,1.28-.27,1.87-.41s1.1-.27,1.56-.39L87,21l-2.07.47c-.77.18-1.57.34-2.42.51s-1.71.33-2.59.49l-2.58.45-.18,2.55,2.59-.34V22.92l2.78-.3v2.15l4.93-.65v2.47ZM85.19,27c.18.2.4.46.66.79l.83,1.08c.29.39.58.79.86,1.2s.53.81.76,1.18l-2.36,1.82c-.18-.35-.4-.74-.65-1.16s-.51-.82-.79-1.23-.54-.78-.81-1.14-.51-.67-.72-.91Z"/></g></g></g></g></svg>