<svg xmlns="http://www.w3.org/2000/svg" viewBox="0 0 129 69"><defs><style>.cls-1{fill:none;stroke:#333;stroke-linejoin:round;}.cls-2{fill:#333;}.cls-3{opacity:0.16;}</style></defs><title>2-264</title><g id="图层_2" data-name="图层 2"><g id="_2-263_2-277" data-name="2-263——2-277"><g id="_2-264" data-name="2-264"><rect class="cls-1" x="0.5" y="0.5" width="128" height="68"/><path class="cls-2" d="M47.87,48.63a12.48,12.48,0,0,1-4.68,3.62A14.74,14.74,0,0,1,37,53.52a15.16,15.16,0,0,1-8.42-2.3,14.82,14.82,0,0,1-5.5-6.55,24.13,24.13,0,0,1-1.92-10,23.23,23.23,0,0,1,1.92-9.79,14.5,14.5,0,0,1,5.5-6.43A15.39,15.39,0,0,1,37,16.18a14.12,14.12,0,0,1,5.86,1.27,15.87,15.87,0,0,1,5,3.63l-.77.72a14,14,0,0,0-4.66-3.36A13,13,0,0,0,37,17.19a14.28,14.28,0,0,0-7.85,2.13A13.86,13.86,0,0,0,24,25.4a22.08,22.08,0,0,0-1.8,9.26,23.1,23.1,0,0,0,1.8,9.5,13.92,13.92,0,0,0,5.13,6.2A14.13,14.13,0,0,0,37,52.52,12,12,0,0,0,47.1,47.86Z"/><path class="cls-2" d="M63.8,16.85q6.35,0,9.75,2.71A9.29,9.29,0,0,1,77,27.27,9.21,9.21,0,0,1,73.55,35q-3.4,2.69-9.75,2.69H55.21V52.85H54.16v-36Zm-.14,19.78q5.91,0,9.07-2.43a8.2,8.2,0,0,0,3.17-6.93,8.29,8.29,0,0,0-3.17-7q-3.17-2.41-9.07-2.42H55.21V36.63Z"/><path class="cls-2" d="M100.21,51a9.89,9.89,0,0,0,3.87-4.35A15.37,15.37,0,0,0,105.42,40V16.85h1.06V40.42a15.38,15.38,0,0,1-1.49,7,10.62,10.62,0,0,1-4.23,4.56,13.87,13.87,0,0,1-12.86,0,10.66,10.66,0,0,1-4.22-4.56,15.25,15.25,0,0,1-1.49-7V16.85h1V40a15.22,15.22,0,0,0,1.35,6.62A9.81,9.81,0,0,0,88.45,51a12.2,12.2,0,0,0,11.76,0Z"/><g class="cls-3"><path d="M46.28,39.29c-.17.37-.39.79-.65,1.25s-.54,1-.84,1.44-.6,1-.9,1.43-.59.88-.85,1.25L40.7,43.54c.27-.37.56-.77.87-1.22s.61-.9.89-1.36.55-.91.79-1.36.44-.83.59-1.18Zm4-1.85v4.12a4.1,4.1,0,0,1-.13,1.17,1.74,1.74,0,0,1-.45.73,2.42,2.42,0,0,1-.81.46c-.33.11-.73.23-1.21.34l-1.17.29L45.66,42l.9-.22a2.73,2.73,0,0,0,.72-.27.65.65,0,0,0,.2-.55V37.81l-5.59.74.58-7.74c.62-.08,1.28-.18,2-.29s1.4-.22,2.11-.34l2.14-.39c.71-.13,1.4-.27,2.06-.41S52,29.11,52.62,29s1.11-.26,1.57-.39l.55,2.63-2.08.48c-.76.17-1.57.34-2.41.5l-2.6.49-2.58.45-.17,2.55,2.58-.34V33.13l2.78-.31V35l4.93-.65v2.47ZM53,37.22c.17.19.39.45.65.78s.54.69.83,1.08.58.79.86,1.2.54.81.77,1.18l-2.36,1.82c-.18-.35-.4-.74-.65-1.15s-.51-.83-.79-1.24l-.81-1.14c-.27-.36-.51-.66-.73-.91Z"/><path d="M71.8,32.4v2.21L57.16,36.54V34.32l3.27-.43.25-1-2.39.31V31.34L61.13,31l.21-.87-3.4.44V28.35L71,26.62v2.2l-6.85.9L64,30.6l6-.79-.15,2.85ZM58.61,37.06l11.75-1.55v5.63L58.61,42.69Zm2.59,3.09,6.44-.84V38l-6.44.85Zm2.08-6.63L67.15,33l.07-.95-3.71.49Z"/><path d="M78.49,35.05c-.17.37-.39.79-.65,1.25s-.54,1-.84,1.44-.6,1-.9,1.43-.59.88-.85,1.25l-2.34-1.13c.27-.36.56-.76.87-1.21s.61-.9.9-1.36.55-.91.79-1.36.43-.83.58-1.18Zm4-1.85v4.12a4.05,4.05,0,0,1-.14,1.17,1.56,1.56,0,0,1-.45.73,2.12,2.12,0,0,1-.8.45c-.33.12-.74.23-1.22.35l-1.17.29-.83-2.6.9-.21a2.17,2.17,0,0,0,.72-.28.6.6,0,0,0,.21-.54V33.57l-5.6.74.58-7.74c.62-.08,1.28-.18,2-.29s1.4-.22,2.11-.34l2.14-.39c.72-.13,1.4-.27,2.07-.41s1.28-.27,1.87-.41,1.1-.26,1.56-.39L87,27l-2.07.48c-.77.17-1.57.34-2.42.5s-1.71.33-2.59.49l-2.58.45-.18,2.55,2.59-.34V28.88l2.78-.3v2.15l4.93-.65v2.47ZM85.19,33q.27.29.66.78l.83,1.08c.29.39.58.79.86,1.2s.53.81.76,1.18L85.94,39c-.18-.35-.4-.74-.65-1.16s-.51-.82-.79-1.23-.54-.78-.81-1.14-.51-.66-.72-.91Z"/></g></g></g></g></svg>