<svg xmlns="http://www.w3.org/2000/svg" viewBox="0 0 129 69"><defs><style>.cls-1{fill:none;stroke:#333;stroke-linejoin:round;}.cls-2{fill:#333;}.cls-3{opacity:0.16;}</style></defs><title>2-265</title><g id="图层_2" data-name="图层 2"><g id="_2-263_2-277" data-name="2-263——2-277"><g id="_2-265" data-name="2-265"><rect class="cls-1" x="0.5" y="0.5" width="128" height="68"/><path class="cls-2" d="M29.46,52.13a13.72,13.72,0,0,1-4.94-3.84l.81-.62A12.61,12.61,0,0,0,30,51.24a14.09,14.09,0,0,0,5.85,1.28,14.87,14.87,0,0,0,5.69-1,9.23,9.23,0,0,0,4-2.9A6.82,6.82,0,0,0,47,44.31a6.92,6.92,0,0,0-1.13-4.06,9,9,0,0,0-3.5-2.78,40.31,40.31,0,0,0-6.51-2.38A32.47,32.47,0,0,1,30.11,33a10.46,10.46,0,0,1-3.7-2.95A7.3,7.3,0,0,1,25,25.44a8.49,8.49,0,0,1,1.41-4.84,9.2,9.2,0,0,1,4-3.27,15,15,0,0,1,6.08-1.15,13.94,13.94,0,0,1,5.95,1.27,12.47,12.47,0,0,1,4.61,3.67l-.82.63a11.82,11.82,0,0,0-4.39-3.43,13.07,13.07,0,0,0-5.45-1.13,12.92,12.92,0,0,0-5.21,1,9.21,9.21,0,0,0-3.77,2.9,6.89,6.89,0,0,0-1.39,4.18,6.7,6.7,0,0,0,1.32,4.27,9.21,9.21,0,0,0,3.48,2.67,39,39,0,0,0,5.43,1.89,35.17,35.17,0,0,1,7,2.62,9.49,9.49,0,0,1,3.65,3.09A7.5,7.5,0,0,1,48,44a8.48,8.48,0,0,1-3.17,7q-3.16,2.52-9,2.52A14.83,14.83,0,0,1,29.46,52.13Z"/><path class="cls-2" d="M63.88,52.85H62.82v-35H50.53v-1H76.16v1H63.88Z"/><path class="cls-2" d="M94.36,34a11.63,11.63,0,0,1,7,2.9A8.12,8.12,0,0,1,103.86,43a8.31,8.31,0,0,1-3.72,7.3q-3.72,2.53-10.63,2.54H81.06v-36h8.3c4,0,7.13.75,9.29,2.23a7.27,7.27,0,0,1,3.24,6.36,8,8,0,0,1-2.06,5.5,9.29,9.29,0,0,1-5.47,2.95ZM82.12,17.86v15.6h8.49a12,12,0,0,0,7.47-2.11,6.92,6.92,0,0,0,2.76-5.81,6.44,6.44,0,0,0-3-5.69c-2-1.33-4.88-2-8.62-2Zm7.1,34q6.52,0,10.06-2.28A7.33,7.33,0,0,0,102.8,43a7.19,7.19,0,0,0-3.24-6.33c-2.16-1.48-5.14-2.21-9-2.21H82.12V51.84Z"/><g class="cls-3"><path d="M46.28,39.29c-.17.37-.39.79-.65,1.25s-.54,1-.84,1.44-.6,1-.9,1.43-.59.88-.85,1.25L40.7,43.54c.27-.37.56-.77.87-1.22s.61-.9.89-1.36.55-.91.79-1.36.44-.83.59-1.18Zm4-1.85v4.12a4.1,4.1,0,0,1-.13,1.17,1.74,1.74,0,0,1-.45.73,2.42,2.42,0,0,1-.81.46c-.33.11-.73.23-1.21.34l-1.17.29L45.66,42l.9-.22a2.73,2.73,0,0,0,.72-.27.65.65,0,0,0,.2-.55V37.81l-5.59.74.58-7.74c.62-.08,1.28-.18,2-.29s1.4-.22,2.11-.34l2.14-.39c.71-.13,1.4-.27,2.06-.41S52,29.11,52.62,29s1.11-.26,1.57-.39l.55,2.63-2.08.48c-.76.17-1.57.34-2.41.5l-2.6.49-2.58.45-.17,2.55,2.58-.34V33.13l2.78-.31V35l4.93-.65v2.47ZM53,37.22c.17.19.39.45.65.78s.54.69.83,1.08.58.79.86,1.2.54.81.77,1.18l-2.36,1.82c-.18-.35-.4-.74-.65-1.15s-.51-.83-.79-1.24l-.81-1.14c-.27-.36-.51-.66-.73-.91Z"/><path d="M71.8,32.4v2.21L57.16,36.54V34.32l3.27-.43.25-1-2.39.31V31.34L61.13,31l.21-.87-3.4.44V28.35L71,26.62v2.2l-6.85.9L64,30.6l6-.79-.15,2.85ZM58.61,37.06l11.75-1.55v5.63L58.61,42.69Zm2.59,3.09,6.44-.84V38l-6.44.85Zm2.08-6.63L67.15,33l.07-.95-3.71.49Z"/><path d="M78.49,35.05c-.17.37-.39.79-.65,1.25s-.54,1-.84,1.44-.6,1-.9,1.43-.59.88-.85,1.25l-2.34-1.13c.27-.36.56-.76.87-1.21s.61-.9.9-1.36.55-.91.79-1.36.43-.83.58-1.18Zm4-1.85v4.12a4.05,4.05,0,0,1-.14,1.17,1.56,1.56,0,0,1-.45.73,2.12,2.12,0,0,1-.8.45c-.33.12-.74.23-1.22.35l-1.17.29-.83-2.6.9-.21a2.17,2.17,0,0,0,.72-.28.6.6,0,0,0,.21-.54V33.57l-5.6.74.58-7.74c.62-.08,1.28-.18,2-.29s1.4-.22,2.11-.34l2.14-.39c.72-.13,1.4-.27,2.07-.41s1.28-.27,1.87-.41,1.1-.26,1.56-.39L87,27l-2.07.48c-.77.17-1.57.34-2.42.5s-1.71.33-2.59.49l-2.58.45-.18,2.55,2.59-.34V28.88l2.78-.3v2.15l4.93-.65v2.47ZM85.19,33q.27.29.66.78l.83,1.08c.29.39.58.79.86,1.2s.53.81.76,1.18L85.94,39c-.18-.35-.4-.74-.65-1.16s-.51-.82-.79-1.23-.54-.78-.81-1.14-.51-.66-.72-.91Z"/></g></g></g></g></svg>