<svg xmlns="http://www.w3.org/2000/svg" viewBox="0 0 64.83 129"><defs><style>.cls-1{fill:none;}.cls-1,.cls-3{stroke:#333;stroke-linejoin:round;}.cls-2,.cls-3{fill:#333;}.cls-4{opacity:0.16;}</style></defs><title>2-262</title><g id="图层_2" data-name="图层 2"><g id="_2-249_2-262" data-name="2-249——2-262"><g id="_2-262" data-name="2-262"><circle class="cls-1" cx="32.41" cy="22.7" r="22.2"/><path class="cls-2" d="M25.2,33.43h-.93V15.36h1.1l7,13.32h.07l7-13.32h1.1V33.43h-1V17.11h-.07L32.76,30h-.69L25.3,17.11h-.1Z"/><line class="cls-1" x1="32.41" y1="84.79" x2="32.41" y2="44.9"/><circle class="cls-3" cx="32.07" cy="106.65" r="5.9"/><rect class="cls-1" x="0.5" y="84.79" width="63.83" height="43.71"/><line class="cls-1" x1="0.5" y1="128.5" x2="64.33" y2="84.79"/><g class="cls-4"><path d="M14.19,69.29c-.17.37-.39.79-.65,1.25S13,71.49,12.7,72s-.6,1-.9,1.43-.59.88-.85,1.25L8.61,73.54c.27-.37.56-.77.87-1.22s.61-.9.9-1.36.55-.91.79-1.36.43-.83.58-1.18Zm4-1.85v4.12A4.05,4.05,0,0,1,18,72.73a1.56,1.56,0,0,1-.45.73,2.28,2.28,0,0,1-.8.46c-.33.11-.74.23-1.22.34l-1.17.29L13.57,72l.9-.22a2.46,2.46,0,0,0,.72-.27.63.63,0,0,0,.21-.55V67.81l-5.6.74.58-7.74c.62-.08,1.28-.18,2-.29s1.4-.22,2.11-.34l2.14-.39c.72-.13,1.4-.27,2.07-.41S20,59.11,20.54,59s1.1-.26,1.56-.39l.55,2.63-2.07.48c-.77.17-1.57.34-2.42.5s-1.71.33-2.59.49L13,63.13l-.18,2.55,2.59-.34V63.13l2.78-.31V65l4.93-.65v2.47Zm2.71-.22q.27.28.66.78l.83,1.08c.29.39.58.79.86,1.2s.53.81.76,1.18l-2.36,1.82c-.18-.35-.4-.74-.65-1.15s-.51-.83-.79-1.24-.54-.78-.81-1.14-.51-.66-.72-.91Z"/><path d="M39.72,62.4v2.21L25.08,66.54V64.32l3.27-.43.24-1-2.39.31V61.34L29.05,61l.21-.87-3.4.44V58.35l13.08-1.73v2.2l-6.85.9-.21.88,6-.79-.14,2.85Zm-13.2,4.66,11.75-1.55v5.63L26.52,72.69Zm2.59,3.09,6.44-.84V68l-6.44.85Zm2.08-6.63L35.07,63l.06-.95-3.71.49Z"/><path d="M46.41,65.05c-.18.37-.4.79-.66,1.25s-.54,1-.83,1.44-.6,1-.91,1.43-.58.88-.84,1.25l-2.35-1.13c.28-.36.57-.76.87-1.21s.61-.9.9-1.36.55-.91.79-1.36.43-.83.58-1.18Zm4-1.85v4.12a4.05,4.05,0,0,1-.14,1.17,1.63,1.63,0,0,1-.44.73,2.25,2.25,0,0,1-.81.45c-.33.12-.73.23-1.21.35l-1.17.29-.83-2.6.89-.21a2.35,2.35,0,0,0,.73-.28.62.62,0,0,0,.2-.54V63.57l-5.6.74.59-7.74c.62-.08,1.27-.18,2-.29s1.39-.22,2.1-.34,1.43-.25,2.14-.39,1.41-.27,2.07-.41,1.28-.27,1.87-.41,1.11-.26,1.56-.39L54.86,57l-2.07.48c-.76.17-1.57.34-2.42.5s-1.71.33-2.59.49l-2.58.45L45,61.44l2.59-.34V58.88l2.78-.3v2.15l4.93-.65v2.47ZM53.11,63c.17.19.39.45.65.78s.54.69.83,1.08.58.79.86,1.2.54.81.77,1.18L53.86,69c-.19-.35-.41-.74-.65-1.16s-.52-.82-.79-1.23-.55-.78-.82-1.14-.5-.66-.72-.91Z"/></g></g></g></g></svg>