<svg xmlns="http://www.w3.org/2000/svg" viewBox="0 0 128 64.7"><defs><style>.cls-1{fill:none;stroke:#333;stroke-linejoin:round;}.cls-2{opacity:0.16;}</style></defs><title>2-272</title><g id="图层_2" data-name="图层 2"><g id="_2-263_2-277" data-name="2-263——2-277"><g id="_2-272" data-name="2-272"><rect class="cls-1" x="26.44" y="0.5" width="81.43" height="63.7"/><line class="cls-1" x1="86.54" y1="32.65" x2="128" y2="32.65"/><line class="cls-1" x1="55.89" y1="28.44" x2="81.13" y2="28.44"/><line class="cls-1" x1="55.89" y1="39.26" x2="81.13" y2="39.26"/><line class="cls-1" y1="12.82" x2="41.46" y2="12.82"/><line class="cls-1" x1="41.46" y1="12.82" x2="41.46" y2="54.28"/><line class="cls-1" y1="54.28" x2="41.46" y2="54.28"/><line class="cls-1" x1="28.71" y1="44.07" x2="53.95" y2="44.07"/><polygon class="cls-1" points="41.33 42.69 53.02 22.43 29.63 22.43 41.33 42.69"/><g class="cls-2"><path d="M45.78,37.14c-.17.37-.39.79-.65,1.25s-.54,1-.84,1.44-.6,1-.9,1.43-.59.88-.85,1.25L40.2,41.39c.27-.37.56-.77.87-1.22s.61-.9.89-1.36.55-.91.79-1.36.44-.83.59-1.18Zm4-1.85v4.12a4.1,4.1,0,0,1-.13,1.17,1.74,1.74,0,0,1-.45.73,2.42,2.42,0,0,1-.81.46c-.33.11-.73.22-1.21.34L46,42.4l-.83-2.59.9-.22a2.73,2.73,0,0,0,.72-.27.65.65,0,0,0,.2-.55V35.66l-5.59.74L42,28.66c.62-.08,1.28-.18,2-.29s1.4-.22,2.11-.34l2.14-.39c.71-.13,1.4-.27,2.06-.41s1.29-.27,1.87-.41,1.11-.26,1.57-.39l.55,2.63-2.08.48c-.76.17-1.57.34-2.41.5l-2.6.49L44.57,31l-.17,2.55L47,33.19V31l2.78-.31v2.15l4.93-.65v2.47Zm2.72-.22c.17.19.39.45.65.78s.54.69.83,1.08.58.79.86,1.2.54.81.77,1.18l-2.36,1.82c-.18-.35-.4-.74-.65-1.15s-.51-.83-.79-1.24L51,37.6c-.27-.36-.51-.66-.73-.91Z"/><path d="M71.3,30.25v2.21L56.66,34.39V32.17l3.27-.43.25-1-2.39.31V29.19l2.84-.37.21-.87-3.4.44V26.2l13.08-1.73v2.2l-6.85.9-.21.88,6-.79-.15,2.85ZM58.11,34.91l11.75-1.55V39L58.11,40.54ZM60.7,38l6.44-.84V35.87l-6.44.85Zm2.08-6.63,3.87-.51.07-.95L63,30.39Z"/><path d="M78,32.9c-.17.37-.39.78-.65,1.25s-.54,1-.84,1.44-.6,1-.9,1.43-.59.88-.85,1.25l-2.34-1.13c.27-.36.56-.76.87-1.21s.61-.9.9-1.36.55-.91.79-1.36.43-.83.58-1.18Zm4-1.85v4.12a4.05,4.05,0,0,1-.14,1.17,1.56,1.56,0,0,1-.45.73,2.12,2.12,0,0,1-.8.45c-.33.12-.74.23-1.22.35l-1.17.28-.83-2.59.9-.21a2.17,2.17,0,0,0,.72-.28.6.6,0,0,0,.21-.54V31.42l-5.6.74.58-7.74c.62-.08,1.28-.18,2-.29l2.11-.34,2.14-.39c.72-.13,1.4-.27,2.07-.41s1.28-.27,1.87-.41,1.1-.26,1.56-.39l.55,2.63-2.07.47c-.77.18-1.57.35-2.42.51s-1.71.33-2.59.49l-2.58.45-.18,2.55L79.2,29V26.73l2.78-.3v2.15l4.93-.65V30.4Zm2.71-.22q.27.29.66.78l.83,1.08c.29.39.58.79.86,1.2s.53.81.76,1.18l-2.36,1.82c-.18-.35-.4-.74-.65-1.16s-.51-.82-.79-1.23-.54-.78-.81-1.14-.51-.66-.72-.91Z"/></g></g></g></g></svg>