<svg xmlns="http://www.w3.org/2000/svg" viewBox="0 0 99.1 128"><defs><style>.cls-1{fill:#333;}.cls-2{fill:none;stroke:#333;stroke-linejoin:round;}.cls-3{opacity:0.16;}</style></defs><title>2-271</title><g id="图层_2" data-name="图层 2"><g id="_2-263_2-277" data-name="2-263——2-277"><g id="_2-271" data-name="2-271"><path class="cls-1" d="M23.47,83.09l-13.1-36h1.1L24,81.46h.1L36.62,47.09h1.11l-13.11,36Z"/><path class="cls-1" d="M60,83.19H58.89v-36h1.44L74.78,75.55h.1L89.32,47.19h1.44v36H89.71V48.91h-.1L75.36,76.8H74.3L60,48.91H60Z"/><rect class="cls-2" x="0.5" y="31.77" width="98.1" height="64.47"/><line class="cls-2" x1="49.55" x2="49.55" y2="128"/><g class="cls-3"><path d="M31.33,68.79c-.17.37-.39.79-.65,1.25s-.54.95-.84,1.44-.6,1-.9,1.43-.59.88-.85,1.25L25.75,73c.27-.37.56-.77.87-1.22s.61-.9.89-1.36.55-.91.79-1.36.44-.83.59-1.18Zm4-1.85v4.12a4.05,4.05,0,0,1-.14,1.17,1.56,1.56,0,0,1-.45.73,2.33,2.33,0,0,1-.81.46c-.33.11-.73.23-1.21.34l-1.17.29-.83-2.59.9-.22a2.73,2.73,0,0,0,.72-.27.63.63,0,0,0,.2-.55V67.31l-5.59.74.58-7.74c.62-.08,1.28-.18,2-.29s1.4-.22,2.11-.34l2.14-.39c.71-.13,1.4-.27,2.06-.41s1.29-.27,1.87-.41,1.11-.26,1.57-.39l.55,2.63-2.07.48c-.77.17-1.57.34-2.42.5l-2.6.49-2.57.45L30,65.18l2.58-.34V62.63l2.79-.31v2.15l4.92-.65v2.47ZM38,66.72c.18.19.39.45.65.78s.54.69.83,1.08.58.79.87,1.2.53.81.76,1.18l-2.36,1.82c-.18-.35-.4-.74-.65-1.15s-.51-.83-.79-1.24l-.81-1.14c-.27-.36-.51-.66-.73-.91Z"/><path d="M56.86,61.9v2.21L42.21,66V63.82l3.27-.43.25-1-2.39.31V60.84l2.84-.37.21-.87L43,60V57.85l13.09-1.73v2.2l-6.85.9L49,60.1l6-.79-.15,2.85Zm-13.2,4.66L55.41,65v5.63L43.66,72.19Zm2.59,3.09,6.44-.84V67.52l-6.44.85ZM48.33,63l3.87-.51.07-.95-3.71.49Z"/><path d="M63.54,64.55c-.17.37-.39.79-.65,1.25s-.54,1-.84,1.44-.6,1-.9,1.43-.58.88-.84,1.25L58,68.79c.27-.36.56-.76.87-1.21s.61-.9.9-1.36.55-.91.79-1.36.43-.83.58-1.18Zm4-1.85v4.12A4.05,4.05,0,0,1,67.39,68a1.56,1.56,0,0,1-.45.73,2.12,2.12,0,0,1-.8.45c-.33.12-.74.23-1.21.35l-1.18.29-.83-2.6.9-.21a2.17,2.17,0,0,0,.72-.28.6.6,0,0,0,.21-.54V63.07l-5.6.74.59-7.74c.61-.08,1.27-.18,2-.29s1.4-.22,2.11-.34L66,55.05c.72-.13,1.41-.27,2.07-.41s1.28-.27,1.87-.41,1.1-.26,1.56-.39L72,56.47,69.93,57c-.77.17-1.57.34-2.42.5s-1.71.33-2.59.49l-2.58.45-.18,2.55,2.59-.34V58.38l2.78-.3v2.15l4.93-.65v2.47Zm2.72-.22c.17.19.39.45.65.78l.83,1.08c.29.39.58.79.86,1.2s.54.81.76,1.18L71,68.54c-.18-.35-.4-.74-.65-1.16s-.51-.82-.79-1.23S69,65.37,68.74,65s-.51-.66-.72-.91Z"/></g></g></g></g></svg>