<svg xmlns="http://www.w3.org/2000/svg" viewBox="0 0 129 129"><defs><style>.cls-1{fill:none;}.cls-1,.cls-2{stroke:#333;stroke-linejoin:round;}.cls-2{fill:#333;}.cls-3{opacity:0.16;}</style></defs><title>2-270</title><g id="图层_2" data-name="图层 2"><g id="_2-263_2-277" data-name="2-263——2-277"><g id="_2-270" data-name="2-270"><rect class="cls-1" x="0.5" y="0.5" width="128" height="128"/><circle class="cls-2" cx="32.84" cy="32.08" r="4.53"/><circle class="cls-2" cx="64.52" cy="32.08" r="4.53"/><circle class="cls-2" cx="96.2" cy="32.08" r="4.53"/><circle class="cls-2" cx="32.84" cy="64.41" r="4.53"/><circle class="cls-2" cx="64.52" cy="64.41" r="4.53"/><circle class="cls-2" cx="96.2" cy="64.41" r="4.53"/><circle class="cls-2" cx="32.84" cy="96.73" r="4.53"/><circle class="cls-2" cx="64.52" cy="96.73" r="4.53"/><circle class="cls-2" cx="96.2" cy="96.73" r="4.53"/><g class="cls-3"><path d="M46.3,69.19c-.17.37-.39.79-.65,1.26s-.54,1-.84,1.44-.6,1-.9,1.43-.59.88-.85,1.25l-2.34-1.13c.27-.36.56-.76.87-1.21s.61-.9.89-1.36.55-.91.79-1.36.44-.84.59-1.18Zm4-1.84v4.12a4.05,4.05,0,0,1-.14,1.17,1.56,1.56,0,0,1-.45.73,2.25,2.25,0,0,1-.81.45c-.33.12-.73.23-1.21.35l-1.17.28-.83-2.59.9-.21a2.37,2.37,0,0,0,.72-.28c.14-.09.2-.27.2-.55v-3.1l-5.59.73.58-7.74c.62-.08,1.28-.17,2-.28l2.11-.34,2.14-.39,2.06-.41c.66-.13,1.29-.27,1.87-.41s1.11-.27,1.57-.39l.55,2.63-2.07.47c-.77.18-1.58.34-2.42.51l-2.6.49L45.1,63l-.18,2.55,2.58-.34V63l2.79-.3v2.15l4.92-.65V66.7ZM53,67.12c.18.2.39.46.65.79s.54.69.83,1.08.58.79.87,1.2.53.81.76,1.18l-2.36,1.82c-.18-.35-.4-.74-.65-1.16s-.51-.82-.79-1.23l-.81-1.14c-.27-.36-.51-.67-.73-.91Z"/><path d="M71.83,62.3v2.22L57.18,66.44V64.23l3.27-.43.25-1-2.39.31V61.25l2.84-.37.21-.88-3.4.45v-2.2l13.09-1.72v2.2l-6.85.9L64,60.5l6-.78-.15,2.85ZM58.63,67l11.75-1.55v5.63L58.63,72.6Zm2.59,3.09,6.44-.85V67.93l-6.44.85Zm2.08-6.63,3.87-.51.07-1-3.71.49Z"/><path d="M78.51,65c-.17.37-.39.79-.65,1.26s-.54,1-.84,1.44-.6,1-.9,1.42-.59.88-.85,1.25L72.93,69.2c.27-.36.56-.76.87-1.21s.61-.9.9-1.36.55-.92.79-1.36.43-.84.58-1.18Zm4-1.84v4.12a4.1,4.1,0,0,1-.14,1.17,1.61,1.61,0,0,1-.45.73,2.12,2.12,0,0,1-.8.45c-.33.12-.74.23-1.21.35l-1.18.28-.83-2.59.9-.21a2.17,2.17,0,0,0,.72-.28.61.61,0,0,0,.21-.55v-3.1l-5.6.73.59-7.74c.61-.08,1.27-.17,2-.28l2.11-.34,2.14-.39L83,55.05c.66-.14,1.28-.27,1.87-.41l1.56-.39L87,56.88l-2.07.47-2.42.51-2.59.49-2.58.45-.18,2.54L79.72,61V58.79l2.78-.3v2.15L87.43,60v2.47Zm2.72-.23c.17.2.39.46.65.79l.83,1.08c.29.39.58.79.86,1.2s.54.81.76,1.18L86,69c-.18-.35-.4-.74-.65-1.16s-.51-.83-.79-1.23-.54-.78-.81-1.14-.51-.67-.72-.91Z"/></g></g></g></g></svg>