<svg xmlns="http://www.w3.org/2000/svg" viewBox="0 0 128 87.91"><defs><style>.cls-1{fill:none;stroke:#333;stroke-linejoin:round;}.cls-2{opacity:0.16;}</style></defs><title>2-274</title><g id="图层_2" data-name="图层 2"><g id="_2-263_2-277" data-name="2-263——2-277"><g id="_2-274" data-name="2-274"><rect class="cls-1" x="20.54" y="0.5" width="86.91" height="86.91"/><line class="cls-1" y1="43.96" x2="20.54" y2="43.96"/><line class="cls-1" x1="107.46" y1="43.96" x2="128" y2="43.96"/><path class="cls-1" d="M43.26,51.46S38.52,33.29,57.48,42c0,0,30,20.54,27.65-5.53"/><line class="cls-1" x1="59.65" y1="51.46" x2="68.35" y2="36.45"/><g class="cls-2"><path d="M45.78,48.74c-.17.37-.39.79-.65,1.26s-.54,1-.84,1.44-.6,1-.9,1.43l-.85,1.25L40.2,53c.27-.36.56-.76.87-1.21s.61-.9.89-1.36.55-.92.79-1.36.44-.84.59-1.18Zm4-1.84V51a4.1,4.1,0,0,1-.13,1.17,1.74,1.74,0,0,1-.45.73,2.25,2.25,0,0,1-.81.45c-.33.12-.73.23-1.21.35L46,54l-.83-2.59.9-.21a2.37,2.37,0,0,0,.72-.28.63.63,0,0,0,.2-.55v-3.1L41.39,48,42,40.26c.62-.08,1.28-.17,2-.28l2.11-.34,2.14-.39,2.06-.41c.66-.14,1.29-.27,1.87-.41L53.69,38l.55,2.63-2.08.47c-.76.18-1.57.34-2.41.51l-2.6.49-2.58.45-.17,2.55L47,44.79V42.58l2.78-.3v2.15l4.93-.65v2.47Zm2.72-.23c.17.2.39.46.65.79s.54.69.83,1.08.58.79.86,1.2.54.81.77,1.18l-2.36,1.82c-.18-.35-.4-.74-.65-1.16s-.51-.83-.79-1.23L51,49.21c-.27-.36-.51-.67-.73-.91Z"/><path d="M71.3,41.85v2.21L56.66,46V43.78l3.27-.43.25-1-2.39.32V40.8l2.84-.37.21-.88-3.4.45V37.8l13.08-1.72v2.2l-6.85.9-.21.87,6-.78-.15,2.85ZM58.11,46.52,69.86,45V50.6L58.11,52.15Zm2.59,3.09,6.44-.85V47.48l-6.44.84ZM62.78,43l3.87-.51.07-1L63,42Z"/><path d="M78,44.5c-.17.37-.39.79-.65,1.26s-.54,1-.84,1.44-.6,1-.9,1.42-.59.88-.85,1.25l-2.34-1.12c.27-.36.56-.76.87-1.21s.61-.9.9-1.36.55-.92.79-1.36.43-.84.58-1.18Zm4-1.84v4.12A4.1,4.1,0,0,1,81.84,48a1.61,1.61,0,0,1-.45.73,2.27,2.27,0,0,1-.8.45c-.33.12-.74.23-1.22.35l-1.17.28-.83-2.59.9-.21a2.17,2.17,0,0,0,.72-.28.62.62,0,0,0,.21-.55V43l-5.6.73L74.18,36c.62-.08,1.28-.17,2-.28l2.11-.34L80.4,35l2.07-.41c.66-.14,1.28-.27,1.87-.41l1.56-.39.55,2.63-2.07.47L82,37.41l-2.59.49-2.58.45-.18,2.54,2.59-.34V38.34L82,38v2.15l4.93-.65V42Zm2.71-.23c.18.2.4.46.66.79l.83,1.08c.29.39.58.79.86,1.2s.53.81.76,1.18L85.44,48.5c-.18-.36-.4-.74-.65-1.16s-.51-.83-.79-1.23-.54-.78-.81-1.14-.51-.67-.72-.91Z"/></g></g></g></g></svg>