<svg xmlns="http://www.w3.org/2000/svg" viewBox="0 0 128 20.35"><defs><style>.cls-1{fill:none;stroke:#333;stroke-linejoin:round;}.cls-2{fill:#333;}.cls-3{opacity:0.16;}</style></defs><title>2-286</title><g id="图层_2" data-name="图层 2"><g id="_2-278_2-290" data-name="2-278——2-290"><g id="_2-286" data-name="2-286"><line class="cls-1" x1="128" y1="19.85" y2="19.85"/><path class="cls-2" d="M51.89,3.9a4.31,4.31,0,0,0-1.55,1.88,6.8,6.8,0,0,0-.55,2.85,7,7,0,0,0,.54,2.86,4.21,4.21,0,0,0,1.52,1.88,4.07,4.07,0,0,0,2.29.65,4.36,4.36,0,0,0,3.36-1.6v-3h-3V8.5h3.92v4.26a5.43,5.43,0,0,1-4.29,2.14,5.12,5.12,0,0,1-2.81-.76A4.8,4.8,0,0,1,49.49,12a8,8,0,0,1-.64-3.34,8,8,0,0,1,.65-3.34,5,5,0,0,1,1.88-2.17,5.24,5.24,0,0,1,2.86-.76,4.84,4.84,0,0,1,2.2.51,4.6,4.6,0,0,1,1.67,1.42l-.73.56A4.15,4.15,0,0,0,56,3.67a3.68,3.68,0,0,0-1.75-.43A4.18,4.18,0,0,0,51.89,3.9Z"/><path class="cls-2" d="M69.74,13a4.22,4.22,0,0,1-1.64,1.4,5,5,0,0,1-2.23.5,5,5,0,0,1-4.73-3,7.85,7.85,0,0,1-.66-3.33,7.65,7.65,0,0,1,.66-3.28A5.12,5.12,0,0,1,63,3.13a5.17,5.17,0,0,1,2.84-.77,5,5,0,0,1,2.2.5,4.63,4.63,0,0,1,1.69,1.4L69,4.81a3.91,3.91,0,0,0-1.41-1.15,4,4,0,0,0-1.75-.42A4.06,4.06,0,0,0,62,5.76a6.8,6.8,0,0,0-.55,2.81A7.17,7.17,0,0,0,62,11.44a4.29,4.29,0,0,0,1.55,1.91,4.09,4.09,0,0,0,2.34.67,3.89,3.89,0,0,0,1.76-.41A3.68,3.68,0,0,0,69,12.44Z"/><path class="cls-2" d="M72.79,14.34a4.37,4.37,0,0,1-1.73-1.57l.76-.49a3.84,3.84,0,0,0,1.46,1.29,4.12,4.12,0,0,0,1.9.45,4.18,4.18,0,0,0,1.62-.3,2.65,2.65,0,0,0,1.13-.84A2.08,2.08,0,0,0,78,10.5a2.66,2.66,0,0,0-1-.81A11.68,11.68,0,0,0,75,9a12.62,12.62,0,0,1-2-.69,3.41,3.41,0,0,1-1.27-1,2.65,2.65,0,0,1-.49-1.67,2.94,2.94,0,0,1,.49-1.69A3.33,3.33,0,0,1,73.2,2.77a5.14,5.14,0,0,1,2.1-.41,4.66,4.66,0,0,1,2.17.5,4.45,4.45,0,0,1,1.6,1.42l-.73.53A4.09,4.09,0,0,0,77,3.65a3.6,3.6,0,0,0-1.71-.41,4,4,0,0,0-1.52.29,2.71,2.71,0,0,0-1.11.83,1.9,1.9,0,0,0-.41,1.18,1.9,1.9,0,0,0,.43,1.28,2.94,2.94,0,0,0,1.07.78,13.58,13.58,0,0,0,1.72.58A11.69,11.69,0,0,1,77.56,9,3.45,3.45,0,0,1,78.83,10a2.71,2.71,0,0,1,.45,1.59A3,3,0,0,1,78.18,14a4.69,4.69,0,0,1-3,.88A5,5,0,0,1,72.79,14.34Z"/><g class="cls-3"><path d="M45.78,15c-.17.37-.39.78-.65,1.25s-.54.95-.84,1.44-.6,1-.9,1.43-.59.88-.85,1.25L40.2,19.19c.27-.36.56-.76.87-1.21s.61-.9.89-1.36.55-.91.79-1.36.44-.83.59-1.18Zm4-1.85v4.12a4.1,4.1,0,0,1-.13,1.17,1.74,1.74,0,0,1-.45.73,2.25,2.25,0,0,1-.81.45c-.33.12-.73.23-1.21.35L46,20.2l-.83-2.59.9-.21a2.37,2.37,0,0,0,.72-.28.62.62,0,0,0,.2-.54V13.47l-5.59.74L42,6.47l2-.29,2.11-.34,2.14-.39c.71-.13,1.4-.27,2.06-.41s1.29-.27,1.87-.41,1.11-.26,1.57-.39l.55,2.63-2.08.47c-.76.18-1.57.35-2.41.51l-2.6.49-2.58.45-.17,2.55L47,11V8.78l2.78-.3v2.15L54.69,10v2.47Zm2.72-.22c.17.19.39.45.65.78s.54.69.83,1.08.58.79.86,1.2.54.81.77,1.18l-2.36,1.82c-.18-.35-.4-.74-.65-1.16s-.51-.82-.79-1.23L51,15.41c-.27-.36-.51-.66-.73-.91Z"/><path d="M71.3,8.05v2.22L56.66,12.19V10l3.27-.43.25-1-2.39.31V7l2.84-.37.21-.88-3.4.45V4L70.52,2.28v2.2l-6.85.9-.21.88,6-.79L69.3,8.32ZM58.11,12.72l11.75-1.55V16.8L58.11,18.35Zm2.59,3.09L67.14,15V13.68l-6.44.85Zm2.08-6.63,3.87-.51.07-1L63,8.2Z"/><path d="M78,10.7c-.17.37-.39.79-.65,1.26s-.54.95-.84,1.44-.6,1-.9,1.43-.59.88-.85,1.25L72.41,15c.27-.36.56-.76.87-1.21s.61-.9.9-1.36.55-.91.79-1.36.43-.84.58-1.18Zm4-1.84V13a4.05,4.05,0,0,1-.14,1.17,1.56,1.56,0,0,1-.45.73,2.12,2.12,0,0,1-.8.45c-.33.12-.74.23-1.22.35L78.2,16l-.83-2.59.9-.21a2.17,2.17,0,0,0,.72-.28.6.6,0,0,0,.21-.54V9.23L73.6,10l.58-7.73,2-.29,2.11-.34,2.14-.39L82.47.8c.66-.13,1.28-.27,1.87-.41S85.44.12,85.9,0l.55,2.63-2.07.47c-.77.18-1.57.34-2.42.51s-1.71.33-2.59.49l-2.58.45L76.61,7.1l2.59-.34V4.54L82,4.24V6.39l4.93-.65V8.21Zm2.71-.23c.18.2.4.46.66.79l.83,1.08c.29.39.58.79.86,1.2s.53.81.76,1.18L85.44,14.7c-.18-.35-.4-.74-.65-1.16s-.51-.82-.79-1.23-.54-.78-.81-1.14-.51-.67-.72-.91Z"/></g></g></g></g></svg>