<svg xmlns="http://www.w3.org/2000/svg" viewBox="0 0 127.76 25.89"><defs><style>.cls-1{fill:#333;}.cls-2{fill:none;stroke:#333;stroke-linejoin:round;}.cls-3{opacity:0.16;}</style></defs><title>2-289</title><g id="图层_2" data-name="图层 2"><g id="_2-278_2-290" data-name="2-278——2-290"><g id="_2-289" data-name="2-289"><path class="cls-1" d="M3.28,12.1,0,0H1L3.78,10.43h.08L6.78,0h1l3,10.43h0L13.6,0h1L11.3,12.1h-1l-3-10.52H7.25l-3,10.52Z"/><path class="cls-1" d="M23.78,5.39V0h.92V12.1h-.92V6.26H17V12.1h-.93V0H17V5.39Z"/><line class="cls-2" x1="8.59" y1="15.01" x2="127.76" y2="15.01"/><g class="cls-3"><path d="M45.66,17.48c-.17.37-.39.79-.65,1.26s-.54.94-.84,1.43-.6,1-.9,1.43-.59.88-.85,1.25l-2.34-1.12c.27-.36.56-.77.87-1.21s.61-.91.89-1.37.55-.91.79-1.35.44-.84.59-1.19Zm4-1.84v4.11a4.23,4.23,0,0,1-.13,1.18,1.77,1.77,0,0,1-.45.72,2.42,2.42,0,0,1-.81.46c-.33.11-.73.23-1.21.34l-1.17.29L45,20.15l.9-.22a2.73,2.73,0,0,0,.72-.27.65.65,0,0,0,.2-.55V16l-5.59.74L41.85,9l2-.28c.69-.11,1.4-.22,2.11-.35L48.07,8l2.06-.41L52,7.17l1.57-.39.55,2.62L52,9.88c-.76.17-1.57.34-2.41.5l-2.6.49-2.58.46-.17,2.54,2.58-.34V11.32l2.78-.3v2.14l4.93-.64V15Zm2.72-.23c.17.19.39.46.65.78s.54.69.83,1.08.58.79.86,1.21.54.8.77,1.17l-2.36,1.83c-.18-.36-.4-.74-.65-1.16s-.51-.83-.79-1.23l-.81-1.15c-.27-.36-.51-.66-.73-.9Z"/><path d="M71.18,10.59V12.8L56.54,14.73V12.52l3.27-.43.25-1-2.39.32V9.54l2.84-.38.21-.87-3.4.45V6.54L70.4,4.82V7l-6.85.91-.21.87,6-.79-.15,2.85ZM58,15.25l11.75-1.54v5.63L58,20.88Zm2.59,3.1L67,17.5V16.21l-6.44.85Zm2.08-6.64,3.87-.51.07-.95-3.71.49Z"/><path d="M77.87,13.24c-.17.37-.39.79-.65,1.26s-.54.94-.84,1.43-.6,1-.9,1.43-.59.88-.85,1.25l-2.34-1.12c.27-.36.56-.77.87-1.21s.61-.91.9-1.37.55-.91.79-1.35.43-.84.58-1.19Zm4-1.84v4.11a4.18,4.18,0,0,1-.14,1.18,1.58,1.58,0,0,1-.45.72,2.28,2.28,0,0,1-.8.46c-.33.11-.74.23-1.22.34l-1.17.29-.83-2.59.9-.22a2.46,2.46,0,0,0,.72-.27.63.63,0,0,0,.21-.55V11.76l-5.6.74.58-7.74,2-.28,2.11-.35,2.14-.38,2.07-.41,1.87-.41c.58-.14,1.1-.27,1.56-.4l.55,2.63-2.07.48c-.77.17-1.57.34-2.42.5s-1.71.33-2.59.49l-2.58.45-.18,2.55,2.59-.34V7.08l2.78-.3V8.92l4.93-.65v2.48Zm2.71-.23q.27.28.66.78L86.06,13c.29.39.58.79.86,1.21s.53.8.76,1.17l-2.36,1.83c-.18-.36-.4-.75-.65-1.16s-.51-.83-.79-1.23-.54-.79-.81-1.15-.51-.66-.72-.9Z"/></g><circle class="cls-2" cx="38.52" cy="14.61" r="10.77"/><line class="cls-2" x1="32.27" y1="17.41" x2="39.98" y2="7.83"/><line class="cls-2" x1="35.59" y1="20.73" x2="43.3" y2="11.15"/></g></g></g></svg>