<svg xmlns="http://www.w3.org/2000/svg" viewBox="0 0 75.47 128.5"><defs><style>.cls-1{fill:none;stroke:#333;stroke-linejoin:round;}.cls-2{opacity:0.16;}</style></defs><title>2-287</title><g id="图层_2" data-name="图层 2"><g id="_2-278_2-290" data-name="2-278——2-290"><g id="_2-287" data-name="2-287"><path class="cls-1" d="M14.93,90.2s5-18.74,17.61-1.27c0,0,16.49,33.76,27.65,9.13"/><rect class="cls-1" x="0.5" y="53.53" width="74.47" height="74.47"/><line class="cls-1" x1="37.74" x2="37.74" y2="53.53"/><g class="cls-2"><path d="M19.52,68.79c-.18.37-.4.79-.66,1.25s-.54.95-.83,1.44-.6,1-.91,1.43-.58.88-.84,1.25L13.93,73c.28-.37.57-.77.87-1.22s.61-.9.9-1.36.55-.91.79-1.36.43-.83.58-1.18Zm4-1.85v4.12a4.05,4.05,0,0,1-.14,1.17,1.63,1.63,0,0,1-.44.73,2.42,2.42,0,0,1-.81.46c-.33.11-.73.23-1.21.34l-1.17.29-.83-2.59.89-.22a2.69,2.69,0,0,0,.73-.27.65.65,0,0,0,.2-.55V67.31l-5.6.74.59-7.74c.62-.08,1.27-.18,2-.29s1.39-.22,2.1-.34,1.43-.25,2.14-.39S23.33,59,24,58.88s1.28-.27,1.87-.41,1.11-.26,1.56-.39L28,60.71l-2.07.48c-.76.17-1.57.34-2.42.5s-1.71.33-2.59.49l-2.58.45-.18,2.55,2.59-.34V62.63l2.78-.31v2.15l4.93-.65v2.47Zm2.72-.22c.17.19.39.45.65.78s.54.69.83,1.08.58.79.86,1.2.54.81.77,1.18L27,72.78c-.19-.35-.41-.74-.65-1.15s-.52-.83-.79-1.24-.55-.78-.82-1.14-.5-.66-.72-.91Z"/><path d="M45,61.9v2.21L30.4,66V63.82l3.27-.43.24-1-2.39.31V60.84l2.85-.37.21-.87-3.4.44V57.85l13.08-1.73v2.2l-6.85.9-.21.88,6-.79L43,62.16ZM31.85,66.56,43.59,65v5.63L31.85,72.19Zm2.58,3.09,6.45-.84V67.52l-6.45.85ZM36.52,63l3.87-.51.06-.95-3.71.49Z"/><path d="M51.73,64.55c-.18.37-.39.79-.65,1.25s-.54,1-.84,1.44-.6,1-.9,1.43-.59.88-.85,1.25l-2.34-1.13c.27-.36.56-.76.87-1.21s.61-.9.89-1.36.55-.91.79-1.36.44-.83.59-1.18Zm4-1.85v4.12A4.1,4.1,0,0,1,55.58,68a1.74,1.74,0,0,1-.45.73,2.25,2.25,0,0,1-.81.45c-.33.12-.73.23-1.21.35l-1.17.29-.83-2.6L52,67a2.35,2.35,0,0,0,.73-.28.62.62,0,0,0,.2-.54V63.07l-5.59.74.58-7.74c.62-.08,1.28-.18,2-.29s1.4-.22,2.11-.34l2.14-.39c.71-.13,1.4-.27,2.06-.41s1.29-.27,1.87-.41,1.11-.26,1.57-.39l.55,2.63L58.11,57c-.76.17-1.57.34-2.41.5l-2.6.49-2.58.45-.17,2.55,2.58-.34V58.38l2.78-.3v2.15l4.93-.65v2.47Zm2.72-.22c.17.19.39.45.65.78s.54.69.83,1.08.58.79.86,1.2.54.81.77,1.18l-2.36,1.82c-.19-.35-.4-.74-.65-1.16s-.51-.82-.79-1.23L56.93,65c-.27-.36-.51-.66-.73-.91Z"/></g></g></g></g></svg>