<svg xmlns="http://www.w3.org/2000/svg" viewBox="0 0 128 68.26"><defs><style>.cls-1{fill:none;stroke:#333;stroke-linejoin:round;}.cls-2{opacity:0.16;}</style></defs><title>2-288</title><g id="图层_2" data-name="图层 2"><g id="_2-278_2-290" data-name="2-278——2-290"><g id="_2-288" data-name="2-288"><rect class="cls-1" x="44.6" y="0.5" width="37.07" height="37.07"/><g class="cls-2"><path d="M45.78,39.17c-.17.37-.39.79-.65,1.26s-.54.94-.84,1.43-.6,1-.9,1.43-.59.88-.85,1.25L40.2,43.42c.27-.36.56-.77.87-1.21s.61-.91.89-1.37.55-.91.79-1.35.44-.84.59-1.19Zm4-1.84v4.11a4.23,4.23,0,0,1-.13,1.18,1.77,1.77,0,0,1-.45.72,2.42,2.42,0,0,1-.81.46c-.33.11-.73.23-1.21.34L46,44.43l-.83-2.59.9-.22a2.73,2.73,0,0,0,.72-.27.65.65,0,0,0,.2-.55V37.69l-5.59.74L42,30.69l2-.28,2.11-.35,2.14-.38,2.06-.41,1.87-.41c.59-.14,1.11-.27,1.57-.4l.55,2.63-2.08.48c-.76.17-1.57.34-2.41.5l-2.6.49L44.57,33l-.17,2.54L47,35.22V33l2.78-.3v2.14l4.93-.64v2.47Zm2.72-.23c.17.19.39.46.65.78s.54.69.83,1.08.58.79.86,1.21.54.8.77,1.17l-2.36,1.83c-.18-.36-.4-.74-.65-1.16s-.51-.83-.79-1.23L51,39.63c-.27-.36-.51-.66-.73-.9Z"/><path d="M71.3,32.28v2.21L56.66,36.42V34.21l3.27-.44.25-1-2.39.32V31.23l2.84-.38.21-.87-3.4.45v-2.2l13.08-1.72V28.7l-6.85.91-.21.87,6-.79-.15,2.85ZM58.11,36.94,69.86,35.4V41L58.11,42.57ZM60.7,40l6.44-.85V37.9l-6.44.85Zm2.08-6.64,3.87-.51.07-.95L63,32.43Z"/><path d="M78,34.93c-.17.37-.39.79-.65,1.26s-.54.94-.84,1.43-.6,1-.9,1.43-.59.88-.85,1.25l-2.34-1.12c.27-.36.56-.77.87-1.21s.61-.91.9-1.37.55-.91.79-1.36.43-.83.58-1.18Zm4-1.84V37.2a4.18,4.18,0,0,1-.14,1.18,1.58,1.58,0,0,1-.45.72,2.28,2.28,0,0,1-.8.46c-.33.11-.74.23-1.22.34l-1.17.29-.83-2.59.9-.22a2.46,2.46,0,0,0,.72-.27.63.63,0,0,0,.21-.55V33.45l-5.6.74.58-7.74c.62-.08,1.28-.18,2-.29s1.4-.22,2.11-.34l2.14-.39,2.07-.4,1.87-.41c.58-.14,1.1-.27,1.56-.4l.55,2.63-2.07.48c-.77.17-1.57.34-2.42.5s-1.71.33-2.59.49l-2.58.45-.18,2.55L79.2,31V28.77l2.78-.3v2.14L86.91,30v2.48Zm2.71-.23q.27.28.66.78l.83,1.08c.29.39.58.79.86,1.21s.53.8.76,1.17l-2.36,1.83c-.18-.36-.4-.75-.65-1.16s-.51-.83-.79-1.23-.54-.79-.81-1.15-.51-.66-.72-.9Z"/></g><line class="cls-1" y1="20.48" x2="128" y2="20.48"/><line class="cls-1" x1="63.13" y1="37.57" x2="63.13" y2="68.26"/></g></g></g></svg>