<svg xmlns="http://www.w3.org/2000/svg" viewBox="0 0 128 61.21"><defs><style>.cls-1{fill:none;stroke:#333;stroke-linejoin:round;}.cls-2{opacity:0.16;}</style></defs><title>3-185</title><g id="图层_2" data-name="图层 2"><g id="_3-185_3-194" data-name="3-185——3-194"><g id="_3-185" data-name="3-185"><path class="cls-1" d="M55.85.08S65.88,60.71,0,60.71"/><path class="cls-1" d="M72.15.08S62.12,60.71,128,60.71"/><g class="cls-2"><path d="M45.78,35.18c-.17.37-.39.79-.65,1.26s-.54.94-.84,1.43-.6,1-.9,1.43-.59.88-.85,1.25L40.2,39.43c.27-.36.56-.77.87-1.21s.61-.9.89-1.37.55-.91.79-1.35.44-.84.59-1.19Zm4-1.84v4.11a4.23,4.23,0,0,1-.13,1.18,1.77,1.77,0,0,1-.45.72,2.42,2.42,0,0,1-.81.46c-.33.11-.73.23-1.21.35L46,40.44l-.83-2.59.9-.22a2.73,2.73,0,0,0,.72-.27.65.65,0,0,0,.2-.55V33.7l-5.59.74L42,26.7c.62-.08,1.28-.17,2-.28s1.4-.22,2.11-.35,1.42-.24,2.14-.38l2.06-.41c.66-.14,1.29-.27,1.87-.41l1.57-.39.55,2.62-2.08.48c-.76.17-1.57.34-2.41.5l-2.6.49L44.57,29l-.17,2.54L47,31.23V29l2.78-.3v2.15l4.93-.65v2.47Zm2.72-.23c.17.2.39.46.65.79s.54.68.83,1.07.58.8.86,1.21.54.8.77,1.17l-2.36,1.83c-.18-.36-.4-.74-.65-1.16s-.51-.83-.79-1.23L51,35.64c-.27-.36-.51-.66-.73-.9Z"/><path d="M71.3,28.29V30.5L56.66,32.43V30.22l3.27-.43.25-1-2.39.32V27.24l2.84-.38.21-.87-3.4.45v-2.2l13.08-1.72v2.2l-6.85.9-.21.87,6-.79-.15,2.85ZM58.11,33l11.75-1.54V37L58.11,38.58Zm2.59,3.1,6.44-.85V33.91l-6.44.85Zm2.08-6.64,3.87-.51.07-.95L63,28.44Z"/><path d="M78,30.94c-.17.37-.39.79-.65,1.26s-.54.94-.84,1.43-.6,1-.9,1.43-.59.88-.85,1.25l-2.34-1.12c.27-.36.56-.77.87-1.21s.61-.91.9-1.37.55-.91.79-1.35.43-.84.58-1.19Zm4-1.84v4.11a4.18,4.18,0,0,1-.14,1.18,1.58,1.58,0,0,1-.45.72,2.28,2.28,0,0,1-.8.46c-.33.11-.74.23-1.22.34l-1.17.29-.83-2.59.9-.22a2.46,2.46,0,0,0,.72-.27.63.63,0,0,0,.21-.55V29.46l-5.6.74.58-7.74,2-.28c.7-.11,1.4-.22,2.11-.35l2.14-.38L82.47,21l1.87-.41,1.56-.39.55,2.62-2.07.48c-.77.17-1.57.34-2.42.5s-1.71.33-2.59.49l-2.58.46-.18,2.54L79.2,27V24.78l2.78-.3v2.14L86.91,26v2.47Zm2.71-.23c.18.19.4.46.66.78l.83,1.08c.29.39.58.79.86,1.21s.53.8.76,1.17l-2.36,1.83c-.18-.36-.4-.74-.65-1.16S84.28,33,84,32.55s-.54-.79-.81-1.15-.51-.66-.72-.9Z"/></g></g></g></g></svg>