<svg xmlns="http://www.w3.org/2000/svg" viewBox="0 0 128.84 99.1"><defs><style>.cls-1{fill:none;stroke:#333;stroke-linejoin:round;}.cls-2{opacity:0.16;}</style></defs><title>3-187</title><g id="图层_2" data-name="图层 2"><g id="_3-185_3-194" data-name="3-185——3-194"><g id="_3-187" data-name="3-187"><line class="cls-1" x1="0.42" y1="0.27" x2="64.42" y2="98.83"/><line class="cls-1" x1="128.42" y1="0.27" x2="64.42" y2="98.83"/><g class="cls-2"><path d="M46.2,54.34c-.18.37-.39.79-.65,1.26s-.54.94-.84,1.43-.6,1-.9,1.43-.59.88-.85,1.25l-2.34-1.12c.27-.36.56-.77.87-1.21s.6-.91.89-1.37.55-.91.79-1.35.44-.84.59-1.19Zm4-1.84v4.11a4.23,4.23,0,0,1-.13,1.18,1.77,1.77,0,0,1-.45.72,2.42,2.42,0,0,1-.81.46c-.33.11-.73.23-1.21.34l-1.17.29L45.58,57l.89-.22a2.69,2.69,0,0,0,.73-.27.65.65,0,0,0,.2-.55V52.86l-5.6.74.59-7.74,2-.28,2.11-.35,2.14-.38,2.06-.41L52.54,44c.59-.14,1.11-.27,1.57-.4l.55,2.63-2.08.48c-.76.17-1.57.34-2.41.5l-2.6.49L45,48.19l-.17,2.54,2.58-.34V48.18l2.78-.3V50l4.93-.64v2.47Zm2.72-.23c.17.19.39.46.65.78s.54.69.83,1.08.58.79.86,1.21.54.8.77,1.17l-2.36,1.83c-.19-.36-.4-.74-.65-1.16s-.51-.83-.79-1.23L51.4,54.8c-.27-.36-.51-.66-.73-.9Z"/><path d="M71.72,47.45v2.21L57.08,51.59V49.38l3.27-.44.25-1-2.4.31V46.4L61.05,46l.21-.87-3.4.45V43.4l13.08-1.72v2.19l-6.85.91-.21.87,6-.79-.15,2.85ZM58.53,52.11l11.75-1.54V56.2L58.53,57.74Zm2.59,3.1,6.44-.85V53.07l-6.44.85Zm2.08-6.64,3.87-.51.07-1-3.71.49Z"/><path d="M78.41,50.1c-.17.37-.39.79-.65,1.26s-.54.94-.84,1.43-.6,1-.9,1.43-.59.88-.85,1.25l-2.34-1.12c.27-.36.56-.77.87-1.22s.61-.9.9-1.36.55-.91.79-1.36.43-.83.58-1.18Zm4-1.84v4.11a4.18,4.18,0,0,1-.14,1.18,1.58,1.58,0,0,1-.45.72,2.28,2.28,0,0,1-.8.46c-.33.11-.74.23-1.22.34l-1.17.29-.83-2.59.9-.22a2.59,2.59,0,0,0,.72-.27.63.63,0,0,0,.2-.55V48.62L74,49.36l.58-7.74c.62-.08,1.28-.18,2-.29s1.4-.22,2.11-.34l2.14-.39,2.06-.4,1.88-.41c.58-.14,1.1-.27,1.56-.4L86.87,42l-2.07.48c-.77.17-1.57.34-2.42.5l-2.59.49-2.58.45L77,46.49l2.58-.34V43.94l2.79-.3v2.14l4.93-.65v2.48ZM85.11,48c.18.19.39.45.65.78s.54.69.83,1.08.58.79.87,1.21.53.8.76,1.17L85.86,54.1c-.18-.36-.4-.75-.65-1.16s-.51-.83-.79-1.23-.55-.79-.81-1.15-.51-.66-.73-.9Z"/></g></g></g></g></svg>