<svg xmlns="http://www.w3.org/2000/svg" viewBox="0 0 128.83 113.51"><defs><style>.cls-1{fill:none;stroke:#333;stroke-linejoin:round;}.cls-2{opacity:0.16;}</style></defs><title>3-188</title><g id="图层_2" data-name="图层 2"><g id="_3-185_3-194" data-name="3-185——3-194"><g id="_3-188" data-name="3-188"><line class="cls-1" x1="0.5" y1="0.38" x2="0.5" y2="113.14"/><line class="cls-1" x1="128.5" y1="0.38" x2="0.5" y2="113.14"/><g class="cls-2"><path d="M46.28,61.54c-.17.37-.39.79-.65,1.26s-.54,1-.84,1.44-.6,1-.9,1.42-.59.88-.85,1.25L40.7,65.79c.27-.36.56-.76.87-1.21s.61-.9.89-1.36.55-.92.79-1.36.44-.84.59-1.18Zm4-1.84v4.12A4.15,4.15,0,0,1,50.13,65a1.81,1.81,0,0,1-.45.73,2.25,2.25,0,0,1-.81.45c-.33.12-.73.23-1.21.35l-1.17.28-.83-2.59.9-.21a2.37,2.37,0,0,0,.72-.28.63.63,0,0,0,.2-.55v-3.1l-5.59.73.58-7.74c.62-.08,1.28-.17,2-.28l2.11-.34,2.14-.39,2.06-.41c.66-.14,1.29-.27,1.87-.41l1.57-.39.55,2.63-2.08.47-2.41.51-2.6.49-2.58.45-.17,2.54,2.58-.34V55.38l2.78-.3v2.15l4.93-.65v2.47ZM53,59.47c.17.2.39.46.65.79s.54.69.83,1.08.58.79.86,1.2.54.81.77,1.18l-2.36,1.82c-.18-.36-.4-.74-.65-1.16s-.51-.83-.79-1.23L51.48,62a10.64,10.64,0,0,0-.73-.91Z"/><path d="M71.8,54.65v2.21L57.16,58.79V56.58l3.27-.43.25-1-2.39.32V53.6l2.84-.37.21-.88-3.4.45V50.6L71,48.88v2.2l-6.85.9-.21.87,6-.78-.15,2.85ZM58.61,59.32l11.75-1.55V63.4L58.61,65Zm2.59,3.09,6.44-.85V60.28l-6.44.84Zm2.08-6.64,3.87-.51.07-.95-3.71.49Z"/><path d="M78.49,57.3c-.17.37-.39.79-.65,1.26S77.3,59.51,77,60s-.6,1-.9,1.42-.59.88-.85,1.25l-2.34-1.12c.27-.36.56-.76.87-1.21s.61-.9.9-1.36.55-.92.79-1.36.43-.84.58-1.18Zm4-1.84v4.12a4.1,4.1,0,0,1-.14,1.17,1.61,1.61,0,0,1-.45.73,2.27,2.27,0,0,1-.8.45c-.33.11-.74.23-1.22.35l-1.17.28L77.87,60l.9-.21a2.41,2.41,0,0,0,.72-.28.62.62,0,0,0,.21-.55v-3.1l-5.6.73.58-7.74c.62-.08,1.28-.17,2-.28l2.11-.34,2.14-.39L83,47.4c.66-.14,1.28-.27,1.87-.41l1.56-.39L87,49.23l-2.07.47-2.42.51-2.59.48-2.58.46-.18,2.54,2.59-.34V51.14l2.78-.3V53l4.93-.65v2.47Zm2.71-.23c.18.2.4.46.66.79l.83,1.07c.29.4.58.8.86,1.21s.53.8.76,1.18L85.94,61.3c-.18-.36-.4-.74-.65-1.16s-.51-.83-.79-1.23-.54-.78-.81-1.15-.51-.66-.72-.9Z"/></g></g></g></g></svg>