<svg xmlns="http://www.w3.org/2000/svg" viewBox="0 0 78.49 128.28"><defs><style>.cls-1{fill:none;stroke:#333;stroke-linejoin:round;}.cls-2{opacity:0.16;}</style></defs><title>3-189</title><g id="图层_2" data-name="图层 2"><g id="_3-185_3-194" data-name="3-185——3-194"><g id="_3-189" data-name="3-189"><line class="cls-1" x1="0.41" y1="0.28" x2="39.24" y2="56.37"/><line class="cls-1" x1="78.07" y1="0.28" x2="39.24" y2="56.37"/><line class="cls-1" x1="39.24" y1="128.28" x2="39.24" y2="56.37"/><g class="cls-2"><path d="M21,69.07c-.17.37-.39.79-.65,1.26s-.54,1-.84,1.43-.6,1-.9,1.43-.59.88-.85,1.25l-2.34-1.12c.27-.36.56-.76.87-1.21s.61-.9.9-1.36.55-.92.79-1.36.43-.84.58-1.18Zm4-1.84v4.11a4.18,4.18,0,0,1-.14,1.18,1.58,1.58,0,0,1-.45.72,2.13,2.13,0,0,1-.8.46c-.33.11-.74.23-1.22.35l-1.17.28-.83-2.59.9-.22a2.3,2.3,0,0,0,.72-.27.61.61,0,0,0,.2-.55V67.59l-5.59.74.58-7.74c.62-.08,1.28-.17,2-.28L21.29,60l2.14-.39,2.07-.41c.66-.14,1.28-.27,1.87-.41l1.56-.39L29.48,61l-2.07.47L25,62l-2.59.48-2.58.46-.18,2.54,2.58-.34V62.91l2.79-.3v2.15l4.93-.65v2.47ZM27.72,67c.18.2.39.46.65.79l.83,1.07c.3.39.58.8.87,1.21s.53.8.76,1.18l-2.36,1.82c-.18-.36-.4-.74-.65-1.16s-.51-.83-.79-1.23-.55-.79-.81-1.15-.51-.66-.72-.9Z"/><path d="M46.55,62.18v2.21L31.91,66.32V64.11l3.27-.43.24-1L33,63V61.13l2.84-.38.22-.87-3.4.45v-2.2l13.08-1.72v2.2l-6.85.9-.21.87,6-.79-.14,2.85Zm-13.2,4.67L45.1,65.3v5.63L33.35,72.48Zm2.59,3.09,6.44-.85V67.8l-6.44.85ZM38,63.3l3.87-.51.07-.95-3.71.49Z"/><path d="M53.23,64.83c-.17.37-.39.79-.65,1.26s-.54.94-.83,1.43-.6,1-.91,1.43-.58.88-.84,1.25l-2.35-1.12c.28-.36.57-.77.87-1.21s.61-.9.9-1.37.55-.91.79-1.35.43-.84.58-1.19Zm4-1.84V67.1a4.18,4.18,0,0,1-.14,1.18,1.58,1.58,0,0,1-.45.72,2.28,2.28,0,0,1-.8.46c-.33.11-.74.23-1.21.35l-1.17.28-.83-2.59.89-.22a2.46,2.46,0,0,0,.72-.27.63.63,0,0,0,.21-.55V63.35l-5.6.74.59-7.74c.62-.08,1.27-.17,2-.28s1.39-.22,2.1-.35,1.43-.24,2.14-.38l2.07-.41,1.87-.41,1.56-.39.55,2.62-2.07.48c-.76.17-1.57.34-2.42.5s-1.71.33-2.59.49L52,58.68l-.18,2.54,2.59-.34V58.67l2.78-.3v2.15l4.93-.65v2.47Zm2.72-.23.65.78.83,1.08c.29.39.58.8.86,1.21s.54.8.76,1.17l-2.35,1.83c-.19-.36-.41-.74-.65-1.16s-.52-.83-.79-1.23-.55-.79-.82-1.15a10.07,10.07,0,0,0-.72-.9Z"/></g></g></g></g></svg>