<svg xmlns="http://www.w3.org/2000/svg" viewBox="0 0 129 51.26"><defs><style>.cls-1{fill:none;stroke:#333;stroke-linejoin:round;}.cls-2{opacity:0.16;}</style></defs><title>3-193</title><g id="图层_2" data-name="图层 2"><g id="_3-185_3-194" data-name="3-185——3-194"><g id="_3-193" data-name="3-193"><path class="cls-1" d="M128.5.5c0,27.76-28.65,50.26-64,50.26S.5,28.26.5.5Z"/><g class="cls-2"><path d="M46.28,30.42c-.17.37-.39.79-.65,1.26s-.54.94-.84,1.43-.6,1-.9,1.43-.59.88-.85,1.25L40.7,34.67c.27-.36.56-.77.87-1.22s.61-.9.89-1.36.55-.91.79-1.36.44-.83.59-1.18Zm4-1.85v4.12a4.23,4.23,0,0,1-.13,1.18,1.77,1.77,0,0,1-.45.72,2.42,2.42,0,0,1-.81.46c-.33.11-.73.23-1.21.34l-1.17.29-.83-2.59.9-.22a2.73,2.73,0,0,0,.72-.27.65.65,0,0,0,.2-.55V28.94l-5.59.74.58-7.74c.62-.08,1.28-.18,2-.29s1.4-.22,2.11-.34l2.14-.39c.71-.13,1.4-.27,2.06-.41s1.29-.27,1.87-.4,1.11-.27,1.57-.4l.55,2.63-2.08.48c-.76.17-1.57.34-2.41.5l-2.6.49-2.58.45-.17,2.55,2.58-.34V24.26l2.78-.3V26.1l4.93-.65v2.48ZM53,28.35c.17.19.39.45.65.78s.54.69.83,1.08.58.79.86,1.21.54.8.77,1.17l-2.36,1.83c-.18-.36-.4-.75-.65-1.16s-.51-.83-.79-1.23-.55-.79-.81-1.15-.51-.66-.73-.91Z"/><path d="M71.8,23.53v2.21L57.16,27.67V25.45L60.43,25l.25-1-2.39.31V22.48l2.84-.38.21-.87-3.4.44V19.48L71,17.76V20l-6.85.9-.21.88,6-.79-.15,2.85ZM58.61,28.19l11.75-1.54v5.63L58.61,33.82Zm2.59,3.09,6.44-.84V29.15L61.2,30Zm2.08-6.63,3.87-.51.07-.95-3.71.49Z"/><path d="M78.49,26.18c-.17.37-.39.79-.65,1.25s-.54.95-.84,1.44-.6,1-.9,1.43-.59.88-.85,1.25l-2.34-1.12c.27-.37.56-.77.87-1.22s.61-.9.9-1.36.55-.91.79-1.36.43-.83.58-1.18Zm4-1.85v4.12a4.05,4.05,0,0,1-.14,1.17,1.56,1.56,0,0,1-.45.73,2.28,2.28,0,0,1-.8.46c-.33.11-.74.22-1.22.34l-1.17.29-.83-2.59.9-.22a2.46,2.46,0,0,0,.72-.27.63.63,0,0,0,.21-.55V24.7l-5.6.74.58-7.74c.62-.08,1.28-.18,2-.29s1.4-.22,2.11-.34l2.14-.39c.72-.13,1.4-.27,2.07-.41s1.28-.27,1.87-.41,1.1-.26,1.56-.39L87,18.1l-2.07.48c-.77.17-1.57.34-2.42.5s-1.71.33-2.59.49L77.29,20l-.18,2.55,2.59-.34V20l2.78-.31v2.15l4.93-.65v2.47Zm2.71-.22q.27.29.66.78L86.68,26c.29.39.58.79.86,1.2s.53.81.76,1.18l-2.36,1.82c-.18-.35-.4-.74-.65-1.15s-.51-.83-.79-1.24S84,27,83.69,26.64s-.51-.66-.72-.91Z"/></g></g></g></g></svg>