<svg xmlns="http://www.w3.org/2000/svg" viewBox="0 0 128 79.03"><defs><style>.cls-1{fill:none;stroke:#333;stroke-linejoin:round;}.cls-2{opacity:0.16;}</style></defs><title>3-197</title><g id="图层_2" data-name="图层 2"><g id="_3-195_3-204" data-name="3-195——3-204"><g id="_3-197" data-name="3-197"><circle class="cls-1" cx="65.32" cy="39.51" r="39.01"/><line class="cls-1" y1="48.72" x2="128" y2="48.72"/><line class="cls-1" y1="27.68" x2="128" y2="27.68"/><g class="cls-2"><path d="M45.78,44.3c-.17.37-.39.79-.65,1.26s-.54.94-.84,1.43-.6,1-.9,1.43-.59.88-.85,1.25L40.2,48.55c.27-.36.56-.77.87-1.21s.61-.9.89-1.37.55-.91.79-1.35.44-.84.59-1.19Zm4-1.84v4.11a4.23,4.23,0,0,1-.13,1.18,1.77,1.77,0,0,1-.45.72,2.42,2.42,0,0,1-.81.46c-.33.11-.73.23-1.21.35L46,49.56,45.16,47l.9-.22a2.73,2.73,0,0,0,.72-.27.65.65,0,0,0,.2-.55V42.82l-5.59.74L42,35.82c.62-.08,1.28-.17,2-.28s1.4-.22,2.11-.35,1.42-.24,2.14-.38l2.06-.41L52.12,34l1.57-.39.55,2.62-2.08.48c-.76.17-1.57.34-2.41.5l-2.6.49-2.58.46-.17,2.54L47,40.35V38.14l2.78-.3V40l4.93-.65v2.47Zm2.72-.23c.17.2.39.46.65.79s.54.68.83,1.07.58.8.86,1.21.54.8.77,1.17L53.23,48.3c-.18-.36-.4-.74-.65-1.16s-.51-.83-.79-1.23L51,44.76c-.27-.36-.51-.66-.73-.9Z"/><path d="M71.3,37.41v2.21L56.66,41.55V39.34l3.27-.43.25-1-2.39.32V36.36L60.63,36l.21-.87-3.4.45v-2.2l13.08-1.72v2.2l-6.85.9-.21.87,6-.79-.15,2.85ZM58.11,42.07l11.75-1.54v5.63L58.11,47.7Zm2.59,3.1,6.44-.85V43l-6.44.85Zm2.08-6.64L66.65,38l.07-1L63,37.56Z"/><path d="M78,40.06c-.17.37-.39.79-.65,1.26s-.54.94-.84,1.43-.6,1-.9,1.43-.59.88-.85,1.25l-2.34-1.12c.27-.36.56-.77.87-1.21s.61-.91.9-1.37.55-.91.79-1.35.43-.84.58-1.19Zm4-1.84v4.11a4.18,4.18,0,0,1-.14,1.18,1.58,1.58,0,0,1-.45.72,2.28,2.28,0,0,1-.8.46c-.33.11-.74.23-1.22.34l-1.17.29-.83-2.59.9-.22a2.46,2.46,0,0,0,.72-.27.63.63,0,0,0,.21-.55V38.58l-5.6.74.58-7.74,2-.28c.7-.11,1.4-.22,2.11-.35l2.14-.38,2.07-.41,1.87-.41,1.56-.39L86.45,32l-2.07.48c-.77.17-1.57.34-2.42.5s-1.71.33-2.59.49l-2.58.46-.18,2.54,2.59-.34V33.9L82,33.6v2.14l4.93-.64v2.47ZM84.69,38c.18.19.4.46.66.78l.83,1.08c.29.39.58.79.86,1.21s.53.8.76,1.17l-2.36,1.83c-.18-.36-.4-.74-.65-1.16s-.51-.83-.79-1.23-.54-.79-.81-1.15-.51-.66-.72-.9Z"/></g></g></g></g></svg>