<svg xmlns="http://www.w3.org/2000/svg" viewBox="0 0 60.14 128.62"><defs><style>.cls-1{fill:none;stroke:#333;stroke-linejoin:round;}.cls-2{opacity:0.16;}</style></defs><title>3-199</title><g id="图层_2" data-name="图层 2"><g id="_3-195_3-204" data-name="3-195——3-204"><g id="_3-199" data-name="3-199"><line class="cls-1" x1="0.5" y1="0.12" x2="0.5" y2="128.12"/><line class="cls-1" x1="49.73" y1="128.12" x2="0.5" y2="128.12"/><line class="cls-1" x1="59.65" y1="0.12" x2="27.65" y2="128.12"/><g class="cls-2"><path d="M11.86,68.91c-.18.37-.39.79-.66,1.26s-.53.94-.83,1.43-.6,1-.91,1.43-.58.88-.84,1.25L6.27,73.16c.28-.36.57-.77.88-1.22s.6-.9.89-1.36.55-.91.79-1.36.43-.83.58-1.18Zm4-1.85v4.12a3.84,3.84,0,0,1-.14,1.18,1.65,1.65,0,0,1-.44.72,2.42,2.42,0,0,1-.81.46c-.33.11-.73.23-1.21.34l-1.17.29-.83-2.59.89-.22a2.69,2.69,0,0,0,.73-.27.65.65,0,0,0,.2-.55V67.43l-5.6.74.59-7.74c.62-.08,1.27-.18,2-.29s1.39-.22,2.1-.34,1.43-.25,2.14-.39l2.07-.4,1.87-.41c.59-.14,1.11-.27,1.56-.4l.56,2.63-2.08.48c-.76.17-1.57.34-2.42.5s-1.71.33-2.59.49l-2.58.45-.18,2.55L13.06,65V62.75l2.78-.3v2.14l4.93-.65v2.48Zm2.72-.22c.17.19.39.45.65.78s.54.69.83,1.08.58.79.86,1.21.54.8.77,1.17l-2.36,1.83c-.19-.36-.4-.75-.65-1.16s-.52-.83-.79-1.23-.55-.79-.82-1.15a10.07,10.07,0,0,0-.72-.9Z"/><path d="M37.38,62v2.21L22.74,66.16V63.94L26,63.51l.24-1-2.39.31V61l2.85-.38.21-.87-3.4.44V58L36.6,56.25v2.19l-6.85.9-.21.88,6-.79-.15,2.85ZM24.19,66.68l11.74-1.54v5.63L24.19,72.31Zm2.58,3.1,6.45-.85V67.64l-6.45.85Zm2.09-6.64,3.87-.51.06-1-3.71.49Z"/><path d="M44.07,64.67c-.17.37-.39.79-.65,1.25s-.54,1-.84,1.44-.6,1-.9,1.43-.59.88-.85,1.25l-2.34-1.12c.27-.37.56-.77.87-1.22s.61-.9.89-1.36.55-.91.79-1.36.44-.83.59-1.18Zm4-1.85v4.12a4.1,4.1,0,0,1-.13,1.17,1.74,1.74,0,0,1-.45.73,2.42,2.42,0,0,1-.81.46c-.33.11-.73.23-1.21.34l-1.17.29-.83-2.59.9-.22a2.73,2.73,0,0,0,.72-.27.65.65,0,0,0,.2-.55V63.19l-5.59.74.58-7.74c.62-.08,1.28-.18,2-.29s1.4-.22,2.11-.34l2.14-.39c.71-.13,1.4-.27,2.06-.41s1.29-.27,1.87-.4,1.11-.27,1.57-.4l.55,2.63-2.08.48c-.76.17-1.57.34-2.41.5l-2.6.49-2.58.45-.17,2.55,2.58-.34V58.51l2.78-.31v2.15L53,59.7v2.48Zm2.72-.22c.17.19.39.45.65.78s.54.69.83,1.08.58.79.86,1.21.54.8.77,1.17l-2.36,1.82c-.18-.35-.4-.74-.65-1.15s-.51-.83-.79-1.23-.55-.79-.81-1.15-.51-.66-.73-.91Z"/></g></g></g></g></svg>