<svg xmlns="http://www.w3.org/2000/svg" viewBox="0 0 107.96 128.63"><defs><style>.cls-1{fill:none;stroke:#333;stroke-linejoin:round;}.cls-2{opacity:0.16;}</style></defs><title>3-198</title><g id="图层_2" data-name="图层 2"><g id="_3-195_3-204" data-name="3-195——3-204"><g id="_3-198" data-name="3-198"><line class="cls-1" x1="0.48" y1="0.13" x2="36.15" y2="128.13"/><line class="cls-1" x1="107.48" y1="0.13" x2="71.81" y2="128.13"/><g class="cls-2"><path d="M35.76,68.92c-.17.37-.39.79-.65,1.26s-.54.95-.84,1.43-.6,1-.9,1.43-.59.88-.85,1.25l-2.34-1.12c.27-.36.56-.77.87-1.21s.61-.9.9-1.36.55-.92.78-1.36.44-.84.59-1.18Zm4-1.84v4.11a4.18,4.18,0,0,1-.14,1.18,1.58,1.58,0,0,1-.45.72,2.22,2.22,0,0,1-.8.46c-.34.11-.74.23-1.22.35L36,74.18l-.83-2.59.9-.22a2.73,2.73,0,0,0,.72-.27.61.61,0,0,0,.2-.55V67.44l-5.59.74L32,60.44c.62-.08,1.28-.17,2-.28L36,59.82l2.14-.39L40.23,59c.67-.14,1.29-.27,1.87-.41l1.57-.39.55,2.62-2.07.48-2.42.51-2.6.48-2.57.46-.18,2.54L37,65V62.76l2.79-.3v2.15L44.68,64v2.47Zm2.71-.23c.18.2.39.46.65.79s.54.68.83,1.07.58.8.87,1.21.53.8.76,1.17l-2.36,1.83c-.18-.36-.4-.74-.65-1.16s-.51-.83-.79-1.23-.55-.79-.81-1.15-.51-.66-.73-.9Z"/><path d="M61.29,62v2.21L46.64,66.17V64l3.27-.43.25-1-2.39.32V61l2.84-.38.22-.87-3.4.45V58l13.08-1.72v2.2l-6.85.9-.21.87,6-.79-.14,2.85ZM48.09,66.7l11.75-1.55v5.63L48.09,72.33Zm2.59,3.09,6.44-.85V67.65l-6.44.85Zm2.08-6.64,3.87-.51.07-1L53,62.18Z"/><path d="M68,64.68c-.17.37-.39.79-.65,1.26s-.54.94-.84,1.43-.59,1-.9,1.43-.58.88-.84,1.25l-2.35-1.12c.27-.36.56-.77.87-1.21s.61-.91.9-1.37.55-.91.79-1.35.43-.84.58-1.19Zm4-1.84V67a4.18,4.18,0,0,1-.14,1.18,1.58,1.58,0,0,1-.45.72,2.28,2.28,0,0,1-.8.46c-.33.11-.74.23-1.21.35l-1.18.28-.82-2.59.89-.22a2.46,2.46,0,0,0,.72-.27.63.63,0,0,0,.21-.55V63.2l-5.6.74.59-7.74c.61-.08,1.27-.17,2-.28s1.39-.22,2.1-.35l2.14-.38,2.07-.41,1.87-.41L75.88,54l.55,2.62-2.07.48c-.77.17-1.57.34-2.42.5s-1.71.33-2.59.49l-2.58.46-.18,2.54,2.59-.34V58.52l2.78-.3v2.15l4.93-.65v2.47Zm2.72-.23c.17.19.39.46.65.78l.83,1.08c.29.39.58.8.86,1.21s.54.8.76,1.17l-2.36,1.83c-.18-.36-.4-.74-.65-1.16s-.51-.83-.78-1.23-.55-.79-.82-1.15-.51-.66-.72-.9Z"/></g><line class="cls-1" x1="0.19" y1="128.13" x2="107.77" y2="128.13"/></g></g></g></svg>