<svg xmlns="http://www.w3.org/2000/svg" viewBox="0 0 129 76.14"><defs><style>.cls-1{fill:none;stroke:#333;stroke-linejoin:round;}.cls-2{opacity:0.16;}</style></defs><title>3-195</title><g id="图层_2" data-name="图层 2"><g id="_3-195_3-204" data-name="3-195——3-204"><g id="_3-195" data-name="3-195"><line class="cls-1" x1="0.5" y1="0.5" x2="0.5" y2="76.14"/><line class="cls-1" x1="128.5" y1="0.5" x2="128.5" y2="76.14"/><line class="cls-1" x1="0.5" y1="0.5" x2="128.5" y2="0.5"/><g class="cls-2"><path d="M46.28,43.11c-.17.37-.39.78-.65,1.25s-.54,1-.84,1.44-.6,1-.9,1.43-.59.88-.85,1.25L40.7,47.35c.27-.36.56-.76.87-1.21s.61-.9.89-1.36.55-.91.79-1.36.44-.84.59-1.18Zm4-1.85v4.12a4.1,4.1,0,0,1-.13,1.17,1.74,1.74,0,0,1-.45.73,2.25,2.25,0,0,1-.81.45c-.33.12-.73.23-1.21.35l-1.17.28-.83-2.59.9-.21a2.37,2.37,0,0,0,.72-.28.62.62,0,0,0,.2-.54V41.63l-5.59.74.58-7.74,2-.29L46.55,34l2.14-.39c.71-.13,1.4-.27,2.06-.41s1.29-.27,1.87-.41,1.11-.26,1.57-.39L54.74,35l-2.08.47c-.76.18-1.57.34-2.41.51l-2.6.49L45.07,37,44.9,39.5l2.58-.34V36.94l2.78-.3v2.15l4.93-.65v2.47ZM53,41c.17.19.39.45.65.78s.54.69.83,1.08.58.79.86,1.2.54.81.77,1.18L53.73,47.1c-.18-.35-.4-.74-.65-1.16s-.51-.82-.79-1.23l-.81-1.14c-.27-.36-.51-.67-.73-.91Z"/><path d="M71.8,36.21v2.22L57.16,40.35V38.14l3.27-.43.25-1-2.39.31V35.16l2.84-.37.21-.88-3.4.45V32.17L71,30.44v2.2l-6.85.9-.21.88,6-.79-.15,2.85ZM58.61,40.88l11.75-1.55V45L58.61,46.51ZM61.2,44l6.44-.85V41.84l-6.44.85Zm2.08-6.63,3.87-.51.07-1-3.71.49Z"/><path d="M78.49,38.86c-.17.37-.39.79-.65,1.26s-.54,1-.84,1.44-.6,1-.9,1.43-.59.88-.85,1.25l-2.34-1.13c.27-.36.56-.76.87-1.21s.61-.9.9-1.36.55-.91.79-1.36.43-.84.58-1.18Zm4-1.84v4.12a4.05,4.05,0,0,1-.14,1.17,1.56,1.56,0,0,1-.45.73,2.12,2.12,0,0,1-.8.45c-.33.12-.74.23-1.22.35l-1.17.28-.83-2.59.9-.21a2.17,2.17,0,0,0,.72-.28.61.61,0,0,0,.21-.55v-3.1l-5.6.73.58-7.74c.62-.08,1.28-.17,2-.28l2.11-.34,2.14-.39L83,29c.66-.13,1.28-.27,1.87-.41s1.1-.27,1.56-.39L87,30.79l-2.07.47c-.77.18-1.57.34-2.42.51s-1.71.33-2.59.49l-2.58.45-.18,2.55,2.59-.34V32.7l2.78-.3v2.15l4.93-.65v2.47Zm2.71-.23c.18.2.4.46.66.79l.83,1.08c.29.39.58.79.86,1.2s.53.81.76,1.18l-2.36,1.82c-.18-.35-.4-.74-.65-1.16s-.51-.82-.79-1.23-.54-.78-.81-1.14-.51-.67-.72-.91Z"/></g></g></g></g></svg>