<svg xmlns="http://www.w3.org/2000/svg" viewBox="0 0 128.88 35.77"><defs><style>.cls-1{fill:none;stroke:#333;stroke-linejoin:round;}.cls-2{opacity:0.16;}</style></defs><title>3-207</title><g id="图层_2" data-name="图层 2"><g id="_3-205_3-214" data-name="3-205——3-214"><g id="_3-207" data-name="3-207"><path class="cls-1" d="M128.44,35.37C117,14.75,92.68.5,64.48.5s-52.68,14.32-64,35"/><g class="cls-2"><path d="M46.22,22.8c-.18.37-.39.79-.65,1.26s-.54,1-.84,1.44-.6,1-.9,1.42-.59.88-.85,1.25l-2.34-1.12c.27-.36.56-.76.87-1.21s.6-.9.89-1.36.55-.92.79-1.36.43-.84.59-1.18Zm4-1.84v4.12a3.77,3.77,0,0,1-.14,1.17,1.69,1.69,0,0,1-.44.73,2.25,2.25,0,0,1-.81.45c-.33.12-.73.23-1.21.35l-1.17.28-.83-2.59.89-.21a2.35,2.35,0,0,0,.73-.28.63.63,0,0,0,.2-.55v-3.1l-5.6.73.59-7.74c.62-.08,1.27-.17,2-.28l2.11-.34q1.07-.18,2.13-.39l2.07-.41c.66-.14,1.29-.27,1.87-.41l1.56-.39.56,2.63-2.08.47-2.41.51-2.6.49L45,16.65l-.18,2.54,2.59-.34V16.64l2.78-.3v2.15l4.93-.65v2.47Zm2.72-.23c.17.2.39.46.65.79s.54.69.83,1.08.58.79.86,1.2.54.81.77,1.18L53.67,26.8c-.19-.35-.4-.74-.65-1.16s-.52-.83-.79-1.23l-.81-1.14a10.64,10.64,0,0,0-.73-.91Z"/><path d="M71.74,15.91v2.21L57.1,20.05V17.84l3.27-.43.24-1-2.39.32V14.86l2.85-.37.21-.88-3.4.45v-2.2L71,10.14v2.2l-6.85.9-.21.87,6-.78-.15,2.85ZM58.55,20.58,70.3,19v5.63L58.55,26.21Zm2.59,3.09,6.44-.85V21.54l-6.44.84ZM63.22,17l3.87-.51.07-.95-3.71.49Z"/><path d="M78.43,18.56c-.17.37-.39.79-.65,1.26s-.54.95-.84,1.44-.6,1-.9,1.42-.59.88-.85,1.25l-2.34-1.12c.27-.36.56-.76.87-1.21s.61-.9.89-1.36.56-.92.79-1.36.44-.84.59-1.18Zm4-1.84v4.12A4.1,4.1,0,0,1,82.28,22a1.61,1.61,0,0,1-.45.73,2.36,2.36,0,0,1-.8.45c-.34.12-.74.23-1.22.35l-1.17.28-.83-2.59.9-.21a2.67,2.67,0,0,0,.72-.28.61.61,0,0,0,.2-.55v-3.1L74,17.82l.58-7.74c.62-.08,1.28-.17,2-.28l2.11-.34,2.14-.39,2.06-.41c.67-.14,1.29-.27,1.87-.41l1.57-.39.55,2.63L84.82,11l-2.42.51L79.8,12l-2.57.46L77.05,15l2.58-.34V12.4l2.79-.3v2.15l4.93-.65v2.47Zm2.71-.23c.18.2.39.46.65.79s.54.69.83,1.08.58.79.87,1.2.53.8.76,1.18l-2.36,1.82c-.18-.36-.4-.74-.65-1.16s-.51-.83-.79-1.23-.55-.78-.81-1.15-.51-.66-.73-.9Z"/></g></g></g></g></svg>