<svg xmlns="http://www.w3.org/2000/svg" viewBox="0 0 128.53 94.43"><defs><style>.cls-1{fill:none;stroke:#333;stroke-linejoin:round;}.cls-2{opacity:0.16;}</style></defs><title>3-203</title><g id="图层_2" data-name="图层 2"><g id="_3-195_3-204" data-name="3-195——3-204"><g id="_3-203" data-name="3-203"><line class="cls-1" x1="113.9" y1="0.43" x2="0.26" y2="70.81"/><g class="cls-2"><path d="M46,52c-.17.37-.39.79-.65,1.26s-.54,1-.84,1.44-.6,1-.9,1.42-.59.88-.85,1.25l-2.34-1.12c.27-.36.56-.76.87-1.21s.61-.9.9-1.36.55-.92.79-1.36.43-.84.58-1.18Zm4-1.84v4.12a4.1,4.1,0,0,1-.14,1.17,1.61,1.61,0,0,1-.45.73,2.27,2.27,0,0,1-.8.45c-.33.11-.74.23-1.22.35l-1.17.28-.83-2.59.9-.21a2.41,2.41,0,0,0,.72-.28.62.62,0,0,0,.21-.55v-3.1l-5.6.73.58-7.74c.62-.08,1.28-.17,2-.28l2.11-.34,2.14-.39,2.07-.41c.66-.14,1.28-.27,1.87-.41L54,41.3l.55,2.63-2.07.47L50,44.91l-2.59.48-2.58.46-.18,2.54,2.59-.34V45.84l2.78-.3v2.15L55,47v2.47Zm2.71-.23c.18.2.4.46.66.79l.83,1.07c.29.4.58.8.86,1.21s.53.8.76,1.18L53.49,56c-.18-.36-.4-.74-.65-1.16s-.51-.83-.79-1.23-.54-.78-.81-1.15-.51-.66-.72-.9Z"/><path d="M71.57,45.11v2.21L56.93,49.25V47l3.27-.43.24-1L58.05,46V44.06l2.85-.37.21-.88-3.4.45v-2.2l13.08-1.72v2.2l-6.85.9-.21.87,6-.79-.14,2.85Zm-13.2,4.67,11.75-1.55v5.63L58.37,55.41ZM61,52.87,67.4,52V50.74L61,51.58ZM63,46.23l3.88-.51.06-.95-3.71.49Z"/><path d="M78.26,47.76Q78,48.32,77.6,49c-.26.47-.54.95-.83,1.43s-.6,1-.91,1.43-.58.88-.84,1.25L72.67,52c.28-.36.57-.76.87-1.21s.61-.9.9-1.36.55-.92.79-1.36.43-.84.58-1.18Zm4-1.84V50a4.18,4.18,0,0,1-.14,1.18,1.65,1.65,0,0,1-.44.72,2.26,2.26,0,0,1-.81.46c-.33.11-.73.23-1.21.35L78.47,53l-.83-2.59.89-.22a2.69,2.69,0,0,0,.73-.27.64.64,0,0,0,.2-.55V46.28l-5.6.74.59-7.74c.62-.08,1.27-.17,2-.28l2.1-.34c.71-.12,1.43-.25,2.14-.39l2.07-.41c.66-.14,1.28-.27,1.87-.41l1.56-.39.55,2.62-2.07.48-2.42.51-2.59.48-2.58.46-.18,2.54,2.59-.34V41.6l2.78-.3v2.15l4.93-.65v2.47ZM85,45.69c.17.2.39.46.65.79s.54.68.83,1.07.58.8.86,1.21.54.8.77,1.17l-2.36,1.83c-.19-.36-.41-.74-.65-1.16s-.52-.83-.79-1.23-.55-.79-.82-1.15a10.07,10.07,0,0,0-.72-.9Z"/></g><line class="cls-1" x1="128.26" y1="23.62" x2="14.63" y2="94.01"/></g></g></g></svg>