<svg xmlns="http://www.w3.org/2000/svg" viewBox="0 0 128 27.12"><defs><style>.cls-1{fill:none;stroke:#333;stroke-linejoin:round;}.cls-2{opacity:0.16;}</style></defs><title>3-202</title><g id="图层_2" data-name="图层 2"><g id="_3-195_3-204" data-name="3-195——3-204"><g id="_3-202" data-name="3-202"><line class="cls-1" x1="128" y1="0.5" y2="0.5"/><line class="cls-1" x1="128" y1="26.62" y2="26.62"/><g class="cls-2"><path d="M45.78,18.35c-.17.37-.39.79-.65,1.26s-.54.94-.84,1.43-.6,1-.9,1.43-.59.88-.85,1.25L40.2,22.6c.27-.36.56-.77.87-1.22s.61-.9.89-1.36.55-.91.79-1.36.44-.83.59-1.18Zm4-1.85v4.12a4.23,4.23,0,0,1-.13,1.18,1.77,1.77,0,0,1-.45.72,2.42,2.42,0,0,1-.81.46c-.33.11-.73.23-1.21.34L46,23.61,45.16,21l.9-.22a2.73,2.73,0,0,0,.72-.27A.65.65,0,0,0,47,20V16.87l-5.59.74L42,9.87c.62-.08,1.28-.18,2-.29s1.4-.22,2.11-.34l2.14-.39,2.06-.4L52.12,8c.59-.14,1.11-.27,1.57-.4l.55,2.63-2.08.48c-.76.17-1.57.34-2.41.5l-2.6.49-2.58.45-.17,2.55L47,14.4V12.19l2.78-.3V14l4.93-.65v2.48Zm2.72-.22c.17.19.39.45.65.78s.54.69.83,1.08.58.79.86,1.21.54.8.77,1.17l-2.36,1.83c-.18-.36-.4-.75-.65-1.16s-.51-.83-.79-1.23-.55-.79-.81-1.15-.51-.66-.73-.9Z"/><path d="M71.3,11.46v2.21L56.66,15.6V13.38L59.93,13l.25-1-2.39.31V10.41L60.63,10l.21-.87-3.4.44V7.41L70.52,5.69V7.88l-6.85.9-.21.88,6-.79-.15,2.85ZM58.11,16.12l11.75-1.54v5.63L58.11,21.75Zm2.59,3.1,6.44-.85V17.08l-6.44.85Zm2.08-6.64,3.87-.51.07-1L63,11.61Z"/><path d="M78,14.11c-.17.37-.39.79-.65,1.25s-.54.95-.84,1.44-.6,1-.9,1.43-.59.88-.85,1.25l-2.34-1.12c.27-.37.56-.77.87-1.22s.61-.9.9-1.36.55-.91.79-1.36.43-.83.58-1.18Zm4-1.85v4.12a4.05,4.05,0,0,1-.14,1.17,1.56,1.56,0,0,1-.45.73,2.28,2.28,0,0,1-.8.46c-.33.11-.74.23-1.22.34l-1.17.29-.83-2.59.9-.22a2.46,2.46,0,0,0,.72-.27.63.63,0,0,0,.21-.55V12.63l-5.6.74.58-7.74c.62-.08,1.28-.18,2-.29s1.4-.22,2.11-.34l2.14-.39c.72-.13,1.4-.27,2.07-.41s1.28-.27,1.87-.41,1.1-.26,1.56-.39L86.45,6l-2.07.48c-.77.17-1.57.34-2.42.5s-1.71.33-2.59.49L76.79,8l-.18,2.55,2.59-.34V8L82,7.64V9.79l4.93-.65v2.48ZM84.69,12q.27.29.66.78l.83,1.08c.29.39.58.79.86,1.21s.53.8.76,1.17L85.44,18.1c-.18-.35-.4-.74-.65-1.15s-.51-.83-.79-1.23-.54-.79-.81-1.15-.51-.66-.72-.91Z"/></g></g></g></g></svg>