<svg xmlns="http://www.w3.org/2000/svg" viewBox="0 0 129 32.42"><defs><style>.cls-1{fill:none;stroke:#333;stroke-linejoin:round;}.cls-2{opacity:0.16;}</style></defs><title>3-201</title><g id="图层_2" data-name="图层 2"><g id="_3-195_3-204" data-name="3-195——3-204"><g id="_3-201" data-name="3-201"><path class="cls-1" d="M64.35,32.42a31.93,31.93,0,0,0-63.85,0"/><path class="cls-1" d="M128.5,32.42a31.93,31.93,0,0,0-63.85,0"/><g class="cls-2"><path d="M46.28,21.25c-.17.37-.39.79-.65,1.26s-.54.94-.84,1.43-.6,1-.9,1.43-.59.88-.85,1.25L40.7,25.5c.27-.36.56-.77.87-1.21s.61-.91.89-1.37.55-.91.79-1.35.44-.84.59-1.19Zm4-1.84v4.11a4.23,4.23,0,0,1-.13,1.18,1.77,1.77,0,0,1-.45.72,2.42,2.42,0,0,1-.81.46c-.33.11-.73.23-1.21.34l-1.17.29-.83-2.59.9-.22a2.73,2.73,0,0,0,.72-.27.65.65,0,0,0,.2-.55V19.77l-5.59.74.58-7.74,2-.28,2.11-.35,2.14-.38,2.06-.41,1.87-.41c.59-.14,1.11-.27,1.57-.4l.55,2.63-2.08.48c-.76.17-1.57.34-2.41.5l-2.6.49-2.58.46-.17,2.54,2.58-.34V15.09l2.78-.3v2.14l4.93-.64v2.47ZM53,19.18c.17.19.39.45.65.78s.54.69.83,1.08.58.79.86,1.21.54.8.77,1.17l-2.36,1.83c-.18-.36-.4-.74-.65-1.16s-.51-.83-.79-1.23l-.81-1.15c-.27-.36-.51-.66-.73-.9Z"/><path d="M71.8,14.36v2.21L57.16,18.5V16.29l3.27-.44.25-1-2.39.31V13.31l2.84-.38.21-.87-3.4.45v-2.2L71,8.59v2.19l-6.85.91-.21.87,6-.79-.15,2.85ZM58.61,19l11.75-1.54v5.63L58.61,24.65Zm2.59,3.1,6.44-.85V20l-6.44.85Zm2.08-6.64L67.15,15l.07-1-3.71.49Z"/><path d="M78.49,17c-.17.37-.39.79-.65,1.26s-.54.94-.84,1.43-.6,1-.9,1.43-.59.88-.85,1.25l-2.34-1.12c.27-.36.56-.77.87-1.22s.61-.9.9-1.36.55-.91.79-1.36.43-.83.58-1.18Zm4-1.85v4.12a4.18,4.18,0,0,1-.14,1.18,1.58,1.58,0,0,1-.45.72,2.28,2.28,0,0,1-.8.46c-.33.11-.74.23-1.22.34l-1.17.29-.83-2.59.9-.22a2.46,2.46,0,0,0,.72-.27.63.63,0,0,0,.21-.55V15.53l-5.6.74.58-7.74c.62-.08,1.28-.18,2-.29s1.4-.22,2.11-.34l2.14-.39L83,7.11l1.87-.41c.58-.14,1.1-.27,1.56-.4L87,8.93l-2.07.48c-.77.17-1.57.34-2.42.5s-1.71.33-2.59.49l-2.58.45-.18,2.55,2.59-.34V10.85l2.78-.3v2.14L87.41,12v2.48Zm2.71-.22q.27.29.66.78l.83,1.08c.29.39.58.79.86,1.21s.53.8.76,1.17L85.94,21c-.18-.36-.4-.75-.65-1.16s-.51-.83-.79-1.23-.54-.79-.81-1.15-.51-.66-.72-.9Z"/></g></g></g></g></svg>