<svg xmlns="http://www.w3.org/2000/svg" viewBox="0 0 68.76 128"><defs><style>.cls-1{fill:none;stroke:#333;stroke-linejoin:round;}.cls-2{opacity:0.16;}</style></defs><title>3-200</title><g id="图层_2" data-name="图层 2"><g id="_3-195_3-204" data-name="3-195——3-204"><g id="_3-200" data-name="3-200"><line class="cls-1" x1="0.5" x2="0.5" y2="128"/><line class="cls-1" x1="34.38" x2="34.38" y2="128"/><line class="cls-1" x1="68.26" x2="68.26" y2="128"/><g class="cls-2"><path d="M16.16,68.79c-.17.37-.39.79-.65,1.25s-.54.95-.84,1.44-.6,1-.9,1.43-.59.88-.85,1.25L10.58,73c.27-.37.56-.77.87-1.22s.61-.9.9-1.36.55-.91.79-1.36.43-.83.58-1.18Zm4-1.85v4.12A4.05,4.05,0,0,1,20,72.23a1.56,1.56,0,0,1-.45.73,2.28,2.28,0,0,1-.8.46c-.33.11-.74.23-1.22.34l-1.17.29-.83-2.59.9-.22a2.59,2.59,0,0,0,.72-.27.63.63,0,0,0,.2-.55V67.31l-5.59.74.58-7.74c.62-.08,1.28-.18,2-.29s1.4-.22,2.11-.34l2.14-.39c.71-.13,1.4-.27,2.06-.41s1.29-.27,1.88-.41,1.1-.26,1.56-.39l.55,2.63-2.07.48c-.77.17-1.57.34-2.42.5l-2.59.49L15,62.63l-.18,2.55,2.58-.34V62.63l2.79-.31v2.15l4.93-.65v2.47Zm2.71-.22c.18.19.39.45.65.78s.54.69.83,1.08.58.79.87,1.2.53.81.76,1.18l-2.36,1.82c-.18-.35-.4-.74-.65-1.15s-.51-.83-.79-1.24-.55-.78-.81-1.14-.51-.66-.73-.91Z"/><path d="M41.69,61.9v2.21L27.05,66V63.82l3.27-.43.24-1-2.39.31V60.84L31,60.47l.22-.87-3.4.44V57.85l13.08-1.73v2.2l-6.85.9-.21.88,6-.79-.14,2.85Zm-13.2,4.66L40.24,65v5.63L28.49,72.19Zm2.59,3.09,6.44-.84V67.52l-6.44.85ZM33.16,63,37,62.51l.07-.95-3.71.49Z"/><path d="M48.37,64.55c-.17.37-.39.79-.65,1.25s-.54,1-.83,1.44-.6,1-.91,1.43-.58.88-.84,1.25l-2.35-1.13c.27-.36.56-.76.87-1.21s.61-.9.9-1.36.55-.91.79-1.36.43-.83.58-1.18Zm4-1.85v4.12A4.05,4.05,0,0,1,52.22,68a1.56,1.56,0,0,1-.45.73,2.12,2.12,0,0,1-.8.45c-.33.12-.74.23-1.21.35l-1.17.29-.83-2.6.89-.21a2.17,2.17,0,0,0,.72-.28.6.6,0,0,0,.21-.54V63.07l-5.6.74.59-7.74c.62-.08,1.27-.18,2-.29s1.39-.22,2.1-.34,1.43-.25,2.14-.39,1.41-.27,2.07-.41,1.28-.27,1.87-.41,1.11-.26,1.56-.39l.55,2.63L54.76,57c-.76.17-1.57.34-2.42.5s-1.71.33-2.59.49l-2.58.45L47,60.94l2.59-.34V58.38l2.78-.3v2.15l4.93-.65v2.47Zm2.72-.22c.17.19.39.45.65.78l.83,1.08c.29.39.58.79.86,1.2s.54.81.76,1.18l-2.35,1.82c-.19-.35-.41-.74-.66-1.16s-.51-.82-.78-1.23-.55-.78-.82-1.14-.5-.66-.72-.91Z"/></g></g></g></g></svg>