<svg xmlns="http://www.w3.org/2000/svg" viewBox="0 0 128.88 35.77"><defs><style>.cls-1{fill:none;stroke:#333;stroke-linejoin:round;}.cls-2{opacity:0.16;}</style></defs><title>3-206</title><g id="图层_2" data-name="图层 2"><g id="_3-205_3-214" data-name="3-205——3-214"><g id="_3-206" data-name="3-206"><path class="cls-1" d="M128.44.4C117,21,92.68,35.27,64.48,35.27S11.8,21,.44.24"/><g class="cls-2"><path d="M46.22,22.54c-.18.37-.39.79-.65,1.26s-.54.95-.84,1.44-.6,1-.9,1.43L43,27.92l-2.34-1.13c.27-.36.56-.76.87-1.21s.6-.9.89-1.36.55-.92.79-1.36.43-.84.59-1.18Zm4-1.84v4.12A3.73,3.73,0,0,1,50.06,26a1.63,1.63,0,0,1-.44.73,2.25,2.25,0,0,1-.81.45c-.33.12-.73.23-1.21.35l-1.17.28-.83-2.59.89-.21a2.35,2.35,0,0,0,.73-.28.63.63,0,0,0,.2-.55v-3.1l-5.6.73.59-7.74c.62-.08,1.27-.17,2-.28l2.11-.34q1.07-.18,2.13-.39l2.07-.41c.66-.14,1.29-.27,1.87-.41l1.56-.39.56,2.63-2.08.47c-.76.18-1.57.34-2.41.51l-2.6.49L45,16.39l-.18,2.55,2.59-.35V16.38l2.78-.3v2.15l4.93-.65v2.47Zm2.72-.23c.17.2.39.46.65.79s.54.69.83,1.08.58.79.86,1.2.54.81.77,1.18l-2.36,1.82c-.19-.35-.4-.74-.65-1.16s-.52-.83-.79-1.23L51.42,23c-.27-.36-.51-.67-.73-.91Z"/><path d="M71.74,15.65v2.21L57.1,19.79V17.58l3.27-.43.24-1-2.39.32V14.6l2.85-.37.21-.88-3.4.45V11.6L71,9.88v2.2l-6.85.9-.21.87,6-.78-.15,2.85ZM58.55,20.32,70.3,18.77V24.4L58.55,26Zm2.59,3.09,6.44-.85V21.28l-6.44.85Zm2.08-6.64,3.87-.51.07-1-3.71.49Z"/><path d="M78.43,18.3c-.17.37-.39.79-.65,1.26s-.54,1-.84,1.44-.6,1-.9,1.42-.59.88-.85,1.25l-2.34-1.12c.27-.36.56-.76.87-1.21s.61-.9.89-1.36.56-.92.79-1.36.44-.84.59-1.18Zm4-1.84v4.12a4.1,4.1,0,0,1-.14,1.17,1.61,1.61,0,0,1-.45.73,2.36,2.36,0,0,1-.8.45c-.34.12-.74.23-1.22.35l-1.17.28L77.81,21l.9-.21a2.37,2.37,0,0,0,.72-.28.61.61,0,0,0,.2-.55v-3.1L74,17.56l.58-7.74c.62-.08,1.28-.17,2-.28L78.7,9.2l2.14-.39L82.9,8.4c.67-.14,1.29-.27,1.87-.41l1.57-.39.55,2.63-2.07.47-2.42.51-2.6.49-2.57.45-.18,2.54,2.58-.34V12.14l2.79-.3V14l4.93-.65v2.47Zm2.71-.23c.18.2.39.46.65.79s.54.69.83,1.08.58.79.87,1.2.53.81.76,1.18L85.88,22.3c-.18-.36-.4-.74-.65-1.16s-.51-.83-.79-1.23-.55-.78-.81-1.14a10.64,10.64,0,0,0-.73-.91Z"/></g></g></g></g></svg>