<svg xmlns="http://www.w3.org/2000/svg" viewBox="0 0 129 111.05"><defs><style>.cls-1{fill:none;stroke:#333;stroke-linejoin:round;}.cls-2{opacity:0.16;}</style></defs><title>3-208</title><g id="图层_2" data-name="图层 2"><g id="_3-205_3-214" data-name="3-205——3-214"><g id="_3-208" data-name="3-208"><line class="cls-1" x1="64.5" x2="64.5" y2="85.82"/><g class="cls-2"><path d="M46.28,60.06c-.17.37-.39.79-.65,1.26s-.54.94-.84,1.43-.6,1-.9,1.43-.59.88-.85,1.25L40.7,64.31c.27-.36.56-.77.87-1.21s.61-.91.89-1.37.55-.91.79-1.35.44-.84.59-1.19Zm4-1.84v4.11a4.23,4.23,0,0,1-.13,1.18,1.77,1.77,0,0,1-.45.72,2.42,2.42,0,0,1-.81.46c-.33.11-.73.23-1.21.34l-1.17.29-.83-2.59.9-.22a2.73,2.73,0,0,0,.72-.27.65.65,0,0,0,.2-.55V58.58l-5.59.74.58-7.74,2-.28c.69-.11,1.4-.22,2.11-.35l2.14-.38,2.06-.41,1.87-.41,1.57-.39L54.74,52l-2.08.48c-.76.17-1.57.34-2.41.5l-2.6.49-2.58.46-.17,2.54,2.58-.34V53.9l2.78-.3v2.14l4.93-.64v2.47ZM53,58c.17.19.39.46.65.78s.54.69.83,1.08.58.79.86,1.21.54.8.77,1.17l-2.36,1.83c-.18-.36-.4-.74-.65-1.16s-.51-.83-.79-1.23l-.81-1.15c-.27-.36-.51-.66-.73-.9Z"/><path d="M71.8,53.17v2.21L57.16,57.31V55.1l3.27-.43.25-1L58.29,54V52.12l2.84-.38.21-.87-3.4.45v-2.2L71,47.4v2.19l-6.85.91-.21.87,6-.79-.15,2.85ZM58.61,57.83l11.75-1.54v5.63L58.61,63.46Zm2.59,3.1,6.44-.85V58.79l-6.44.85Zm2.08-6.64,3.87-.51.07-1-3.71.49Z"/><path d="M78.49,55.82c-.17.37-.39.79-.65,1.26S77.3,58,77,58.51s-.6,1-.9,1.43-.59.88-.85,1.25l-2.34-1.12c.27-.36.56-.77.87-1.21s.61-.91.9-1.37.55-.91.79-1.35.43-.84.58-1.19Zm4-1.84v4.11a4.18,4.18,0,0,1-.14,1.18,1.58,1.58,0,0,1-.45.72,2.28,2.28,0,0,1-.8.46c-.33.11-.74.23-1.22.34l-1.17.29-.83-2.59.9-.22a2.46,2.46,0,0,0,.72-.27.63.63,0,0,0,.21-.55V54.34l-5.6.74.58-7.74,2-.28,2.11-.35,2.14-.38L83,45.92l1.87-.41c.58-.14,1.1-.27,1.56-.4L87,47.74l-2.07.48c-.77.17-1.57.34-2.42.5s-1.71.33-2.59.49l-2.58.45-.18,2.55,2.59-.34V49.66l2.78-.3V51.5l4.93-.65v2.48Zm2.71-.23q.27.28.66.78l.83,1.08c.29.39.58.79.86,1.21s.53.8.76,1.17l-2.36,1.83c-.18-.36-.4-.75-.65-1.16s-.51-.83-.79-1.23-.54-.79-.81-1.15-.51-.66-.72-.9Z"/></g><path class="cls-1" d="M128.5,80c0,16.87-14.33,30.55-32,30.55S64.5,96.87,64.5,80"/><path class="cls-1" d="M64.5,80c0,16.87-14.33,30.55-32,30.55S.5,96.87.5,80"/></g></g></g></svg>