<svg xmlns="http://www.w3.org/2000/svg" viewBox="0 0 64.85 128.71"><defs><style>.cls-1{opacity:0.16;}.cls-2{fill:none;stroke:#333;stroke-linejoin:round;}</style></defs><title>3-214</title><g id="图层_2" data-name="图层 2"><g id="_3-205_3-214" data-name="3-205——3-214"><g id="_3-214" data-name="3-214"><g class="cls-1"><path d="M14.28,69.14c-.17.37-.39.79-.65,1.26s-.54.94-.84,1.43-.6,1-.9,1.43-.59.88-.85,1.25L8.7,73.39c.27-.36.56-.77.87-1.21s.61-.9.89-1.37.55-.91.79-1.35.44-.84.59-1.19Zm4-1.84v4.11a4.23,4.23,0,0,1-.13,1.18,1.77,1.77,0,0,1-.45.72,2.42,2.42,0,0,1-.81.46c-.33.11-.73.23-1.21.35l-1.17.28-.83-2.59.9-.22a2.73,2.73,0,0,0,.72-.27.65.65,0,0,0,.2-.55V67.66l-5.59.74.58-7.74c.62-.08,1.28-.17,2-.28s1.4-.22,2.11-.35l2.14-.38,2.06-.41,1.87-.41,1.57-.39.55,2.62-2.08.48c-.76.17-1.57.34-2.41.5l-2.6.49L13.07,63l-.17,2.54,2.58-.34V63l2.78-.3v2.15l4.93-.65v2.47ZM21,67.07c.17.19.39.46.65.78s.54.69.83,1.08.58.8.86,1.21.54.8.77,1.17l-2.36,1.83c-.18-.36-.4-.74-.65-1.16s-.51-.83-.79-1.23l-.81-1.15c-.27-.36-.51-.66-.73-.9Z"/><path d="M39.8,62.25v2.21L25.16,66.39V64.18l3.27-.43.25-1-2.39.32V61.2l2.84-.38.21-.87-3.4.45V58.2L39,56.48v2.2l-6.85.9-.21.87,6-.79-.15,2.85ZM26.61,66.91l11.75-1.54V71L26.61,72.54ZM29.2,70l6.44-.85V67.87l-6.44.85Zm2.08-6.64,3.87-.51.07-1-3.71.49Z"/><path d="M46.49,64.9c-.17.37-.39.79-.65,1.26s-.54.94-.84,1.43-.6,1-.9,1.43-.59.88-.85,1.25l-2.34-1.12c.27-.36.56-.77.87-1.21s.61-.91.9-1.37.55-.91.79-1.35.43-.84.58-1.19Zm4-1.84v4.11a4.18,4.18,0,0,1-.14,1.18,1.58,1.58,0,0,1-.45.72,2.28,2.28,0,0,1-.8.46c-.33.11-.74.23-1.22.34l-1.17.29-.83-2.59.9-.22a2.46,2.46,0,0,0,.72-.27.63.63,0,0,0,.21-.55V63.42l-5.6.74.58-7.74,2-.28c.7-.11,1.4-.22,2.11-.35l2.14-.38L51,55l1.87-.41c.58-.14,1.1-.27,1.56-.4L55,56.82l-2.07.48c-.77.17-1.57.34-2.42.5s-1.71.33-2.59.49l-2.58.46-.18,2.54L47.7,61V58.74l2.78-.3v2.14l4.93-.64v2.47Zm2.71-.23c.18.19.4.46.66.78l.83,1.08c.29.39.58.79.86,1.21s.53.8.76,1.17L53.94,68.9c-.18-.36-.4-.74-.65-1.16s-.51-.83-.79-1.23-.54-.79-.81-1.15-.51-.66-.72-.9Z"/></g><polyline class="cls-2" points="64.5 128.35 0.5 64.35 64.5 0.35"/></g></g></g></svg>