<svg xmlns="http://www.w3.org/2000/svg" viewBox="0 0 128.5 128.75"><defs><style>.cls-1{fill:none;stroke:#333;stroke-linejoin:round;}.cls-2{opacity:0.16;}.cls-3{fill:#333;}</style></defs><title>4-009</title><g id="图层_2" data-name="图层 2"><g id="_4-001_4-010" data-name="4-001——4-010"><g id="_4-009" data-name="4-009"><circle class="cls-1" cx="24.34" cy="104.41" r="23.84"/><line class="cls-1" x1="35.64" y1="83.07" x2="83.32" y2="0.25"/><g class="cls-2"><path d="M46.28,69c-.17.37-.39.79-.65,1.25s-.54.95-.84,1.44-.6,1-.9,1.43S43.3,74,43,74.41L40.7,73.29c.27-.37.56-.77.87-1.22s.61-.9.89-1.36.55-.91.79-1.36.44-.83.59-1.18Zm4-1.85v4.12a4.1,4.1,0,0,1-.13,1.17,1.74,1.74,0,0,1-.45.73,2.42,2.42,0,0,1-.81.46c-.33.11-.73.22-1.21.34l-1.17.29-.83-2.59.9-.22a2.73,2.73,0,0,0,.72-.27.65.65,0,0,0,.2-.55V67.56l-5.59.74.58-7.74c.62-.08,1.28-.18,2-.29s1.4-.22,2.11-.34l2.14-.39c.71-.13,1.4-.27,2.06-.41s1.29-.27,1.87-.41,1.11-.26,1.57-.39L54.74,61l-2.08.48c-.76.17-1.57.34-2.41.5l-2.6.49-2.58.45-.17,2.55,2.58-.34V62.88l2.78-.31v2.15l4.93-.65v2.47ZM53,67c.17.19.39.45.65.78s.54.69.83,1.08.58.79.86,1.2.54.81.77,1.18L53.73,73c-.18-.35-.4-.74-.65-1.15s-.51-.83-.79-1.24l-.81-1.14c-.27-.36-.51-.66-.73-.91Z"/><path d="M71.8,62.14v2.22L57.16,66.29V64.07l3.27-.43.25-1L58.29,63V61.09l2.84-.37.21-.87-3.4.44V58.1L71,56.37v2.2l-6.85.9-.21.88,6-.79-.15,2.85ZM58.61,66.81l11.75-1.55v5.63L58.61,72.44ZM61.2,69.9l6.44-.84V67.77l-6.44.85Zm2.08-6.63,3.87-.51.07-.95-3.71.48Z"/><path d="M78.49,64.8c-.17.37-.39.78-.65,1.25s-.54,1-.84,1.44-.6,1-.9,1.43-.59.88-.85,1.25L72.91,69c.27-.36.56-.76.87-1.21s.61-.9.9-1.36.55-.91.79-1.36.43-.83.58-1.18Zm4-1.85v4.12a4.05,4.05,0,0,1-.14,1.17,1.56,1.56,0,0,1-.45.73,2.12,2.12,0,0,1-.8.45c-.33.12-.74.23-1.22.35l-1.17.28-.83-2.59.9-.21a2.17,2.17,0,0,0,.72-.28.6.6,0,0,0,.21-.54V63.32l-5.6.74.58-7.74,2-.29,2.11-.34,2.14-.39c.72-.13,1.4-.27,2.07-.41s1.28-.27,1.87-.41,1.1-.26,1.56-.39L87,56.72l-2.07.47c-.77.18-1.57.35-2.42.51s-1.71.33-2.59.49l-2.58.45-.18,2.55,2.59-.34V58.63l2.78-.3v2.15l4.93-.65V62.3Zm2.71-.22q.27.29.66.78l.83,1.08c.29.39.58.79.86,1.2s.53.81.76,1.18l-2.36,1.82c-.18-.35-.4-.74-.65-1.16s-.51-.82-.79-1.23-.54-.78-.81-1.14-.51-.66-.72-.91Z"/></g><path class="cls-3" d="M88.74,82.11v14.4h16.52v.84H87.86v-30H104.7v.84h-16V81.27h15.08v.84Z"/><path class="cls-3" d="M118.58,81.55l9.92,15.8h-1.12L118,82.15l-9.28,15.2h-1.12l9.92-15.88L108.3,67.35h1.08l8.76,13.52,8.56-13.52h1.08Z"/></g></g></g></svg>