<svg xmlns="http://www.w3.org/2000/svg" viewBox="0 0 127.85 31"><defs><style>.cls-1{fill:none;stroke:#333;stroke-linejoin:round;}.cls-2{opacity:0.16;}.cls-3{fill:#333;}</style></defs><title>4-004</title><g id="图层_2" data-name="图层 2"><g id="_4-001_4-010" data-name="4-001——4-010"><g id="_4-004" data-name="4-004"><rect class="cls-1" x="0.5" y="0.5" width="80" height="30"/><g class="cls-2"><path d="M46,20.29c-.17.37-.39.79-.65,1.25s-.54.95-.83,1.44-.6,1-.91,1.43-.58.88-.84,1.25l-2.35-1.12c.28-.37.57-.77.87-1.22s.61-.9.9-1.36.55-.91.79-1.36.43-.83.58-1.18Zm4-1.85v4.12a4.05,4.05,0,0,1-.14,1.17,1.56,1.56,0,0,1-.45.73,2.28,2.28,0,0,1-.8.46c-.33.11-.73.23-1.21.34l-1.17.29L45.34,23l.89-.22a2.69,2.69,0,0,0,.73-.27.65.65,0,0,0,.2-.55V18.81l-5.6.74.59-7.74c.62-.08,1.27-.18,2-.29s1.39-.22,2.1-.34,1.43-.25,2.14-.39,1.41-.27,2.07-.41,1.28-.27,1.87-.41,1.11-.26,1.56-.39l.55,2.63-2.07.48c-.76.17-1.57.34-2.42.5s-1.71.33-2.59.49l-2.58.45-.18,2.55,2.59-.34V14.13l2.78-.31V16l4.93-.65v2.47Zm2.72-.22c.17.19.39.45.65.78s.54.69.83,1.08.58.79.86,1.2.54.81.77,1.18l-2.36,1.82c-.19-.35-.41-.74-.65-1.15s-.52-.83-.79-1.24-.55-.78-.82-1.14-.5-.66-.72-.91Z"/><path d="M71.48,13.4v2.21L56.84,17.54V15.32l3.27-.43.24-1L58,14.23V12.34L60.81,12,61,11.1l-3.4.44V9.35L70.7,7.62v2.2l-6.85.9-.21.88,6-.79-.15,2.85ZM58.29,18.06,70,16.51v5.63L58.29,23.69Zm2.58,3.09,6.45-.84V19l-6.45.85ZM63,14.52,66.83,14l.06-.95-3.71.49Z"/><path d="M78.17,16.05c-.18.37-.39.79-.65,1.25s-.54.95-.84,1.44-.6,1-.9,1.43-.59.88-.85,1.25l-2.34-1.13c.27-.36.56-.76.87-1.21s.6-.9.89-1.36.55-.91.79-1.36.44-.83.59-1.18Zm4-1.85v4.12A4.1,4.1,0,0,1,82,19.49a1.74,1.74,0,0,1-.45.73,2.25,2.25,0,0,1-.81.45c-.33.12-.73.23-1.21.35l-1.17.29-.83-2.6.89-.21a2.35,2.35,0,0,0,.73-.28.62.62,0,0,0,.2-.54V14.57l-5.6.74.59-7.74c.62-.08,1.28-.18,2-.29s1.4-.22,2.11-.34l2.14-.39c.71-.13,1.4-.27,2.06-.41s1.29-.27,1.87-.41,1.11-.26,1.56-.39L86.63,8l-2.08.48c-.76.17-1.57.34-2.41.5l-2.6.49L77,9.89l-.18,2.55,2.59-.34V9.88l2.78-.3v2.15l4.93-.65v2.47ZM84.87,14c.17.19.39.45.65.78s.54.69.83,1.08.58.79.86,1.2.54.81.77,1.18L85.62,20c-.19-.35-.4-.74-.65-1.16s-.51-.82-.79-1.23l-.81-1.14c-.27-.36-.51-.66-.73-.91Z"/></g><path class="cls-3" d="M113.81,24.52h-1L110.45,18H103l-2.36,6.48h-1l6.55-18h1Zm-7.1-16.65-3.36,9.26h6.79l-3.36-9.26Z"/><path class="cls-3" d="M121.2,6.48a7.77,7.77,0,0,1,4.92,1.36,4.72,4.72,0,0,1,1.73,3.94,4.73,4.73,0,0,1-1.7,3.91,7.69,7.69,0,0,1-4.9,1.37h-4.1v7.46h-.94v-18Zm-.12,9.69A7,7,0,0,0,125.37,15a3.84,3.84,0,0,0,1.5-3.25,3.84,3.84,0,0,0-1.5-3.25,7,7,0,0,0-4.29-1.14h-3.93v8.78Z"/></g></g></g></svg>