<svg xmlns="http://www.w3.org/2000/svg" viewBox="0 0 128.04 31"><defs><style>.cls-1{fill:none;stroke:#333;stroke-linejoin:round;}.cls-2{opacity:0.16;}.cls-3{fill:#333;}</style></defs><title>4-005</title><g id="图层_2" data-name="图层 2"><g id="_4-001_4-010" data-name="4-001——4-010"><g id="_4-005" data-name="4-005"><rect class="cls-1" x="0.5" y="0.5" width="80" height="30"/><g class="cls-2"><path d="M46.28,20.29c-.17.37-.39.79-.65,1.25s-.54.95-.84,1.44-.6,1-.9,1.43-.59.88-.85,1.25L40.7,24.54c.27-.37.56-.77.87-1.22s.61-.9.89-1.36.55-.91.79-1.36.44-.83.59-1.18Zm4-1.85v4.12a4.1,4.1,0,0,1-.13,1.17,1.74,1.74,0,0,1-.45.73,2.42,2.42,0,0,1-.81.46c-.33.11-.73.23-1.21.34l-1.17.29L45.66,23l.9-.22a2.73,2.73,0,0,0,.72-.27.65.65,0,0,0,.2-.55V18.81l-5.59.74.58-7.74c.62-.08,1.28-.18,2-.29s1.4-.22,2.11-.34l2.14-.39c.71-.13,1.4-.27,2.06-.41S52,10.11,52.62,10s1.11-.26,1.57-.39l.55,2.63-2.08.48c-.76.17-1.57.34-2.41.5l-2.6.49-2.58.45-.17,2.55,2.58-.34V14.13l2.78-.31V16l4.93-.65v2.47ZM53,18.22c.17.19.39.45.65.78s.54.69.83,1.08.58.79.86,1.2.54.81.77,1.18l-2.36,1.82c-.18-.35-.4-.74-.65-1.15s-.51-.83-.79-1.24l-.81-1.14c-.27-.36-.51-.66-.73-.91Z"/><path d="M71.8,13.4v2.21L57.16,17.54V15.32l3.27-.43.25-1-2.39.31V12.34L61.13,12l.21-.87-3.4.44V9.35L71,7.62v2.2l-6.85.9L64,11.6l6-.79-.15,2.85ZM58.61,18.06l11.75-1.55v5.63L58.61,23.69Zm2.59,3.09,6.44-.84V19l-6.44.85Zm2.08-6.63L67.15,14l.07-.95-3.71.49Z"/><path d="M78.49,16.05c-.17.37-.39.79-.65,1.25s-.54.95-.84,1.44-.6,1-.9,1.43-.59.88-.85,1.25l-2.34-1.13c.27-.36.56-.76.87-1.21s.61-.9.9-1.36.55-.91.79-1.36.43-.83.58-1.18Zm4-1.85v4.12a4.05,4.05,0,0,1-.14,1.17,1.56,1.56,0,0,1-.45.73,2.12,2.12,0,0,1-.8.45c-.33.12-.74.23-1.22.35l-1.17.29-.83-2.6.9-.21a2.17,2.17,0,0,0,.72-.28.6.6,0,0,0,.21-.54V14.57l-5.6.74.58-7.74c.62-.08,1.28-.18,2-.29s1.4-.22,2.11-.34l2.14-.39c.72-.13,1.4-.27,2.07-.41s1.28-.27,1.87-.41,1.1-.26,1.56-.39L87,8l-2.07.48c-.77.17-1.57.34-2.42.5s-1.71.33-2.59.49l-2.58.45-.18,2.55,2.59-.34V9.88l2.78-.3v2.15l4.93-.65v2.47ZM85.19,14q.27.29.66.78l.83,1.08c.29.39.58.79.86,1.2s.53.81.76,1.18L85.94,20c-.18-.35-.4-.74-.65-1.16s-.51-.82-.79-1.23-.54-.78-.81-1.14-.51-.66-.72-.91Z"/></g><path class="cls-3" d="M115.13,24.52h-1L111.77,18h-7.41L102,24.52h-1l6.55-18h1ZM108,7.87l-3.36,9.26h6.79L108.1,7.87Z"/><path class="cls-3" d="M118.47,6.48V23.61H128v.91H117.53v-18Z"/></g></g></g></svg>