<svg xmlns="http://www.w3.org/2000/svg" viewBox="0 0 100 128"><defs><style>.cls-1{fill:#333;}.cls-2{opacity:0.16;}.cls-3{fill:none;stroke:#333;stroke-linejoin:round;}</style></defs><title>4-008</title><g id="图层_2" data-name="图层 2"><g id="_4-001_4-010" data-name="4-001——4-010"><g id="_4-008" data-name="4-008"><path class="cls-1" d="M34.46,127.22H33.23V86.84L24.6,91.66v-1.4l9-5h.9Z"/><path class="cls-1" d="M75.34,122.29a14.6,14.6,0,0,1-5.46,4.23,17.36,17.36,0,0,1-7.2,1.48,17.73,17.73,0,0,1-9.82-2.69,17.3,17.3,0,0,1-6.42-7.64A28.24,28.24,0,0,1,44.2,106a27.15,27.15,0,0,1,2.24-11.42,17.05,17.05,0,0,1,6.42-7.51,18,18,0,0,1,9.82-2.63,16.53,16.53,0,0,1,6.84,1.49,18.48,18.48,0,0,1,5.88,4.22l-.9.84a16.6,16.6,0,0,0-5.43-3.92,15.3,15.3,0,0,0-6.39-1.45,16.59,16.59,0,0,0-9.15,2.49,16.08,16.08,0,0,0-6,7.08A25.83,25.83,0,0,0,45.44,106a27,27,0,0,0,2.1,11.09,16.14,16.14,0,0,0,6,7.22,16.44,16.44,0,0,0,9.15,2.52q7.56,0,11.76-5.43Z"/><g class="cls-2"><path d="M31.78,68.79c-.17.37-.39.79-.65,1.25s-.54.95-.84,1.44-.6,1-.9,1.43-.59.88-.85,1.25L26.2,73c.27-.37.56-.77.87-1.22s.61-.9.89-1.36.55-.91.79-1.36.44-.83.59-1.18Zm4-1.85v4.12a4.1,4.1,0,0,1-.13,1.17,1.74,1.74,0,0,1-.45.73,2.42,2.42,0,0,1-.81.46c-.33.11-.73.23-1.21.34L32,74.05l-.83-2.59.9-.22a2.73,2.73,0,0,0,.72-.27.65.65,0,0,0,.2-.55V67.31l-5.59.74L28,60.31c.62-.08,1.28-.18,2-.29s1.4-.22,2.11-.34l2.14-.39c.71-.13,1.4-.27,2.06-.41s1.29-.27,1.87-.41,1.11-.26,1.57-.39l.55,2.63-2.08.48c-.76.17-1.57.34-2.41.5l-2.6.49-2.58.45-.17,2.55L33,64.84V62.63l2.78-.31v2.15l4.93-.65v2.47Zm2.72-.22c.17.19.39.45.65.78s.54.69.83,1.08.58.79.86,1.2.54.81.77,1.18l-2.36,1.82c-.18-.35-.4-.74-.65-1.15s-.51-.83-.79-1.24L37,69.25c-.27-.36-.51-.66-.73-.91Z"/><path d="M57.3,61.9v2.21L42.66,66V63.82l3.27-.43.25-1-2.39.31V60.84l2.84-.37.21-.87-3.4.44V57.85l13.08-1.73v2.2l-6.85.9-.21.88,6-.79-.15,2.85ZM44.11,66.56,55.86,65v5.63L44.11,72.19Zm2.59,3.09,6.44-.84V67.52l-6.44.85ZM48.78,63l3.87-.51.07-.95L49,62.05Z"/><path d="M64,64.55c-.17.37-.39.79-.65,1.25s-.54,1-.84,1.44-.6,1-.9,1.43-.59.88-.85,1.25l-2.34-1.13c.27-.36.56-.76.87-1.21s.61-.9.9-1.36.55-.91.79-1.36.43-.83.58-1.18Zm4-1.85v4.12A4.05,4.05,0,0,1,67.84,68a1.56,1.56,0,0,1-.45.73,2.12,2.12,0,0,1-.8.45c-.33.12-.74.23-1.22.35l-1.17.29-.83-2.6.9-.21a2.17,2.17,0,0,0,.72-.28.6.6,0,0,0,.21-.54V63.07l-5.6.74.58-7.74c.62-.08,1.28-.18,2-.29s1.4-.22,2.11-.34l2.14-.39c.72-.13,1.4-.27,2.07-.41s1.28-.27,1.87-.41,1.1-.26,1.56-.39l.55,2.63L70.38,57c-.77.17-1.57.34-2.42.5s-1.71.33-2.59.49l-2.58.45-.18,2.55,2.59-.34V58.38l2.78-.3v2.15l4.93-.65v2.47Zm2.71-.22q.27.29.66.78l.83,1.08c.29.39.58.79.86,1.2s.53.81.76,1.18l-2.36,1.82c-.18-.35-.4-.74-.65-1.16s-.51-.82-.79-1.23-.54-.78-.81-1.14-.51-.66-.72-.91Z"/></g><path class="cls-3" d="M94.5,78.48a44.5,44.5,0,0,0-89,0"/><line class="cls-3" y1="33.98" x2="100" y2="33.98"/><line class="cls-3" x1="50" y1="33.98" x2="50"/></g></g></g></svg>