<svg xmlns="http://www.w3.org/2000/svg" viewBox="0 0 65.81 128"><defs><style>.cls-1{fill:none;stroke:#333;stroke-linejoin:round;}.cls-2{opacity:0.16;}</style></defs><title>4-017</title><g id="图层_2" data-name="图层 2"><g id="_4-011_4-020" data-name="4-011——4-020"><g id="_4-017" data-name="4-017"><polyline class="cls-1" points="37.88 0 37.88 42.53 65.81 42.53"/><polyline class="cls-1" points="37.88 128 37.88 89.44 56.97 36.57"/><g class="cls-2"><path d="M14.93,68.79c-.17.37-.39.79-.65,1.25s-.54.95-.83,1.44-.6,1-.91,1.43-.58.88-.84,1.25L9.35,73c.27-.37.56-.77.87-1.22s.61-.9.9-1.36.55-.91.79-1.36.43-.83.58-1.18Zm4-1.85v4.12a4.05,4.05,0,0,1-.14,1.17,1.56,1.56,0,0,1-.45.73,2.28,2.28,0,0,1-.8.46c-.33.11-.74.23-1.21.34l-1.17.29-.83-2.59.89-.22a2.46,2.46,0,0,0,.72-.27.63.63,0,0,0,.21-.55V67.31l-5.6.74.59-7.74c.62-.08,1.27-.18,2-.29s1.39-.22,2.1-.34,1.43-.25,2.14-.39,1.41-.27,2.07-.41,1.28-.27,1.87-.41,1.11-.26,1.56-.39l.55,2.63-2.07.48c-.76.17-1.57.34-2.42.5s-1.71.33-2.59.49l-2.58.45-.18,2.55,2.59-.34V62.63l2.78-.31v2.15l4.93-.65v2.47Zm2.72-.22c.17.19.39.45.65.78l.83,1.08c.29.39.58.79.86,1.2s.54.81.76,1.18l-2.35,1.82c-.19-.35-.41-.74-.66-1.15s-.51-.83-.78-1.24-.55-.78-.82-1.14-.51-.66-.72-.91Z"/><path d="M40.46,61.9v2.21L25.82,66V63.82l3.27-.43.24-1-2.39.31V60.84l2.85-.37L30,59.6,26.6,60V57.85l13.08-1.73v2.2l-6.85.9-.21.88,6-.79-.15,2.85ZM27.27,66.56,39,65v5.63L27.27,72.19Zm2.58,3.09,6.45-.84V67.52l-6.45.85ZM31.93,63l3.88-.51.06-.95-3.71.49Z"/><path d="M47.15,64.55c-.18.37-.39.79-.65,1.25s-.54,1-.84,1.44-.6,1-.9,1.43-.59.88-.85,1.25l-2.34-1.13c.27-.36.56-.76.87-1.21s.6-.9.89-1.36.55-.91.79-1.36.43-.83.59-1.18Zm4-1.85v4.12A3.73,3.73,0,0,1,51,68a1.63,1.63,0,0,1-.44.73,2.25,2.25,0,0,1-.81.45c-.33.12-.73.23-1.21.35l-1.17.29-.83-2.6.89-.21a2.35,2.35,0,0,0,.73-.28.62.62,0,0,0,.2-.54V63.07l-5.6.74.59-7.74c.62-.08,1.27-.18,2-.29s1.39-.22,2.11-.34,1.42-.25,2.13-.39,1.41-.27,2.07-.41,1.29-.27,1.87-.41,1.11-.26,1.56-.39l.56,2.63L53.53,57c-.76.17-1.57.34-2.41.5l-2.6.49-2.58.45-.18,2.55,2.59-.34V58.38l2.78-.3v2.15l4.93-.65v2.47Zm2.72-.22c.17.19.39.45.65.78s.54.69.83,1.08.58.79.86,1.2.54.81.77,1.18L54.6,68.54c-.19-.35-.4-.74-.65-1.16s-.52-.82-.79-1.23L52.35,65c-.27-.36-.51-.66-.73-.91Z"/></g><path class="cls-1" d="M24,89.44a23.46,23.46,0,0,1,0-46.91"/><line class="cls-1" x1="1.69" y1="59.63" x2="48.6" y2="59.63"/><line class="cls-1" x1="1.69" y1="69.96" x2="44.89" y2="69.96"/></g></g></g></svg>